#N canvas 572 50 488 724 10;
#X obj 12 31 inlet~;
#X obj 12 136 rpole~;
#X obj 12 73 *~;
#X obj 12 393 rpole~;
#X obj 12 372 *~;
#X obj 32 414 loadbang;
#X obj 202 393 rpole~;
#X obj 202 372 *~;
#X obj 217 204 *~;
#X obj 27 225 *~;
#X obj 202 288 +~;
#X obj 12 288 +~;
#X obj 202 524 *~;
#X obj 369 57 clip~ 0 1;
#X obj 139 57 clip~ 0 1;
#X obj 12 330 delwrite~ \$0-dela 200;
#X obj 12 351 delread~ \$0-dela 141.69;
#X obj 202 330 delwrite~ \$0-deld 200;
#X obj 202 351 delread~ \$0-deld 149.62;
#X obj 27 183 delread~ \$0-delf 125;
#X obj 217 162 delread~ \$0-delc 106.28;
#X obj 202 545 delwrite~ \$0-delf 200;
#X obj 349 314 loadbang;
#X msg 349 335 1;
#X obj 349 356 -~;
#X obj 139 36 inlet~;
#X obj 124 78 loadbang;
#X msg 124 99 1;
#X obj 124 120 -~;
#X obj 369 36 inlet~;
#X msg 37 267 30.51 0.1 0.7;
#N canvas 1047 506 295 300 modallpass 0;
#X obj 12 31 inlet~;
#X obj 12 170 +~;
#X obj 27 148 *~;
#X obj 87 31 inlet;
#X obj 202 132 inlet;
#X obj 202 158 * -1;
#X obj 187 186 *~;
#X obj 172 207 +~;
#X obj 172 228 outlet~;
#X obj 157 52 osc~;
#X obj 87 90 +~;
#X obj 157 74 *~ 4;
#X obj 157 31 inlet;
#X text 87 11 (I2) Time;
#X text 157 11 (I3) Freq;
#X text 202 112 (I4) Gain;
#X text 12 11 (I1) Input;
#X text 172 248 (O1) Output;
#X obj 87 112 vd~ \$0-mod-ap-1;
#X obj 12 228 delwrite~ \$0-mod-ap-1 50;
#X connect 0 0 1 0;
#X connect 1 0 6 0;
#X connect 1 0 19 0;
#X connect 2 0 1 1;
#X connect 3 0 10 0;
#X connect 4 0 2 1;
#X connect 4 0 5 0;
#X connect 5 0 6 1;
#X connect 6 0 7 1;
#X connect 7 0 8 0;
#X connect 9 0 11 0;
#X connect 10 0 18 0;
#X connect 11 0 10 1;
#X connect 12 0 9 0;
#X connect 18 0 2 0;
#X connect 18 0 7 0;
#X restore 12 309 pd modallpass;
#X obj 37 288 unpack f f f;
#X obj 37 246 loadbang;
#X text 12 11 (I1) Input;
#X text 139 16 (I2) Bandwidth;
#N canvas 505 611 561 213 allpass2tap 0;
#X obj 12 52 inlet~;
#X obj 12 110 +~;
#X obj 27 88 *~;
#X obj 82 31 inlet;
#X obj 212 72 inlet;
#X obj 212 93 * -1;
#X obj 197 126 *~;
#X obj 182 147 +~;
#X obj 182 168 outlet~;
#X text 12 32 (I1) Input;
#X text 82 11 (I2) Time;
#X text 212 52 (I3) Gain;
#X obj 272 168 outlet~;
#X obj 272 126 inlet;
#X text 272 106 (I4) Tap Time 1;
#X obj 402 168 outlet~;
#X obj 402 126 inlet;
#X obj 12 168 delwrite~ \$0-ap2tap-1 100;
#X obj 82 52 delread~ \$0-ap2tap-1;
#X text 402 106 (I5) Tap Time 2;
#X text 182 188 (O1) AP Out;
#X obj 272 147 delread~ \$0-ap2tap-1;
#X obj 402 147 delread~ \$0-ap2tap-1;
#X text 272 188 (O2) Tap 1 Out;
#X text 402 188 (O3) Tap 2 Out;
#X connect 0 0 1 0;
#X connect 1 0 6 0;
#X connect 1 0 17 0;
#X connect 2 0 1 1;
#X connect 3 0 18 0;
#X connect 4 0 2 1;
#X connect 4 0 5 0;
#X connect 5 0 6 1;
#X connect 6 0 7 1;
#X connect 7 0 8 0;
#X connect 13 0 21 0;
#X connect 16 0 22 0;
#X connect 18 0 2 0;
#X connect 18 0 7 0;
#X connect 21 0 12 0;
#X connect 22 0 15 0;
#X restore 12 477 pd allpass2tap;
#X msg 32 435 89.24 0.5 64.2 11.2;
#X obj 32 456 unpack f f f f;
#N canvas 763 302 214 344 allpasschain 0;
#N canvas 845 584 289 213 allpass 0;
#X obj 12 52 inlet~;
#X obj 12 110 +~;
#X obj 27 88 *~;
#X obj 92 31 inlet;
#X obj 202 72 inlet;
#X obj 202 93 * -1;
#X obj 187 126 *~;
#X obj 172 147 +~;
#X obj 172 168 outlet~;
#X obj 92 52 delread~ \$0-ap-1;
#X text 12 32 (I1) Input;
#X text 92 11 (I2) Time;
#X text 202 52 (I3) Gain;
#X obj 12 168 delwrite~ \$0-ap-1 20;
#X text 172 188 (O1) Output;
#X connect 0 0 1 0;
#X connect 1 0 6 0;
#X connect 1 0 13 0;
#X connect 2 0 1 1;
#X connect 3 0 9 0;
#X connect 4 0 2 1;
#X connect 4 0 5 0;
#X connect 5 0 6 1;
#X connect 6 0 7 1;
#X connect 7 0 8 0;
#X connect 9 0 2 0;
#X connect 9 0 7 0;
#X restore 12 75 pd allpass;
#X msg 40 33 4.771 0.75;
#X obj 40 54 unpack f f;
#N canvas 845 584 289 213 allpass 0;
#X obj 12 52 inlet~;
#X obj 12 110 +~;
#X obj 27 88 *~;
#X obj 92 31 inlet;
#X obj 202 72 inlet;
#X obj 202 93 * -1;
#X obj 187 126 *~;
#X obj 172 147 +~;
#X obj 172 168 outlet~;
#X text 12 32 (I1) Input;
#X text 92 11 (I2) Time;
#X text 202 52 (I3) Gain;
#X obj 12 168 delwrite~ \$0-ap-2 20;
#X obj 92 52 delread~ \$0-ap-2;
#X text 172 188 (O1) Output;
#X connect 0 0 1 0;
#X connect 1 0 6 0;
#X connect 1 0 12 0;
#X connect 2 0 1 1;
#X connect 3 0 13 0;
#X connect 4 0 2 1;
#X connect 4 0 5 0;
#X connect 5 0 6 1;
#X connect 6 0 7 1;
#X connect 7 0 8 0;
#X connect 13 0 2 0;
#X connect 13 0 7 0;
#X restore 12 138 pd allpass;
#X obj 40 117 unpack f f;
#N canvas 845 584 289 213 allpass 0;
#X obj 12 52 inlet~;
#X obj 12 110 +~;
#X obj 27 88 *~;
#X obj 92 31 inlet;
#X obj 202 72 inlet;
#X obj 202 93 * -1;
#X obj 187 126 *~;
#X obj 172 147 +~;
#X obj 172 168 outlet~;
#X text 12 32 (I1) Input;
#X text 92 11 (I2) Time;
#X text 202 52 (I3) Gain;
#X obj 92 52 delread~ \$0-ap-4;
#X obj 12 168 delwrite~ \$0-ap-4 20;
#X text 172 188 (O1) Output;
#X connect 0 0 1 0;
#X connect 1 0 6 0;
#X connect 1 0 13 0;
#X connect 2 0 1 1;
#X connect 3 0 12 0;
#X connect 4 0 2 1;
#X connect 4 0 5 0;
#X connect 5 0 6 1;
#X connect 6 0 7 1;
#X connect 7 0 8 0;
#X connect 12 0 2 0;
#X connect 12 0 7 0;
#X restore 12 201 pd allpass;
#X obj 40 180 unpack f f;
#N canvas 845 584 289 213 allpass 0;
#X obj 12 52 inlet~;
#X obj 12 110 +~;
#X obj 27 88 *~;
#X obj 92 31 inlet;
#X obj 202 72 inlet;
#X obj 202 93 * -1;
#X obj 187 126 *~;
#X obj 172 147 +~;
#X obj 172 168 outlet~;
#X text 12 32 (I1) Input;
#X text 92 11 (I2) Time;
#X text 202 52 (I3) Gain;
#X obj 92 52 delread~ \$0-ap-5;
#X obj 12 168 delwrite~ \$0-ap-5 20;
#X text 172 188 (O1) Output;
#X connect 0 0 1 0;
#X connect 1 0 6 0;
#X connect 1 0 13 0;
#X connect 2 0 1 1;
#X connect 3 0 12 0;
#X connect 4 0 2 1;
#X connect 4 0 5 0;
#X connect 5 0 6 1;
#X connect 6 0 7 1;
#X connect 7 0 8 0;
#X connect 12 0 2 0;
#X connect 12 0 7 0;
#X restore 12 264 pd allpass;
#X obj 40 243 unpack f f;
#X msg 40 96 3.595 0.75;
#X msg 40 222 9.307 0.625;
#X msg 40 159 12.73 0.625;
#X obj 12 12 inlet~;
#X obj 12 285 outlet~;
#X obj 120 17 loadbang;
#X obj 120 80 loadbang;
#X obj 120 143 loadbang;
#X obj 120 206 loadbang;
#X connect 0 0 3 0;
#X connect 1 0 2 0;
#X connect 2 0 0 1;
#X connect 2 1 0 2;
#X connect 3 0 5 0;
#X connect 4 0 3 1;
#X connect 4 1 3 2;
#X connect 5 0 7 0;
#X connect 6 0 5 1;
#X connect 6 1 5 2;
#X connect 7 0 13 0;
#X connect 8 0 7 1;
#X connect 8 1 7 2;
#X connect 9 0 4 0;
#X connect 10 0 8 0;
#X connect 11 0 6 0;
#X connect 12 0 0 0;
#X connect 14 0 1 0;
#X connect 15 0 9 0;
#X connect 16 0 11 0;
#X connect 17 0 10 0;
#X restore 12 157 pd allpasschain;
#N canvas 1047 506 295 300 modallpass 0;
#X obj 12 31 inlet~;
#X obj 12 170 +~;
#X obj 27 148 *~;
#X obj 87 31 inlet;
#X obj 202 132 inlet;
#X obj 202 158 * -1;
#X obj 187 186 *~;
#X obj 172 207 +~;
#X obj 172 228 outlet~;
#X obj 157 52 osc~;
#X obj 87 90 +~;
#X obj 157 74 *~ 4;
#X obj 157 31 inlet;
#X text 87 11 (I2) Time;
#X text 157 11 (I3) Freq;
#X text 202 112 (I4) Gain;
#X text 12 11 (I1) Input;
#X text 172 248 (O1) Output;
#X obj 12 228 delwrite~ \$0-mod-ap-2 50;
#X obj 87 112 vd~ \$0-mod-ap-2;
#X connect 0 0 1 0;
#X connect 1 0 6 0;
#X connect 1 0 18 0;
#X connect 2 0 1 1;
#X connect 3 0 10 0;
#X connect 4 0 2 1;
#X connect 4 0 5 0;
#X connect 5 0 6 1;
#X connect 6 0 7 1;
#X connect 7 0 8 0;
#X connect 9 0 11 0;
#X connect 10 0 19 0;
#X connect 11 0 10 1;
#X connect 12 0 9 0;
#X connect 19 0 2 0;
#X connect 19 0 7 0;
#X restore 202 309 pd modallpass;
#X obj 227 288 unpack f f f;
#X obj 227 246 loadbang;
#X msg 227 267 22.58 0.07 0.7;
#X obj 222 414 loadbang;
#N canvas 505 611 561 213 allpass2tap 0;
#X obj 12 52 inlet~;
#X obj 12 110 +~;
#X obj 27 88 *~;
#X obj 82 31 inlet;
#X obj 212 72 inlet;
#X obj 212 93 * -1;
#X obj 197 126 *~;
#X obj 182 147 +~;
#X obj 182 168 outlet~;
#X text 12 32 (I1) Input;
#X text 82 11 (I2) Time;
#X text 212 52 (I3) Gain;
#X obj 272 168 outlet~;
#X obj 272 126 inlet;
#X text 272 106 (I4) Tap Time 1;
#X obj 402 168 outlet~;
#X obj 402 126 inlet;
#X text 402 106 (I5) Tap Time 2;
#X text 182 188 (O1) AP Out;
#X obj 82 52 delread~ \$0-ap2tap-2;
#X obj 12 168 delwrite~ \$0-ap2tap-2 100;
#X obj 272 147 delread~ \$0-ap2tap-2;
#X obj 402 147 delread~ \$0-ap2tap-2;
#X text 272 188 (O2) Tap 1 Out;
#X text 402 188 (O3) Tap 2 Out;
#X connect 0 0 1 0;
#X connect 1 0 6 0;
#X connect 1 0 20 0;
#X connect 2 0 1 1;
#X connect 3 0 19 0;
#X connect 4 0 2 1;
#X connect 4 0 5 0;
#X connect 5 0 6 1;
#X connect 6 0 7 1;
#X connect 7 0 8 0;
#X connect 13 0 21 0;
#X connect 16 0 22 0;
#X connect 19 0 2 0;
#X connect 19 0 7 0;
#X connect 21 0 12 0;
#X connect 22 0 15 0;
#X restore 202 477 pd allpass2tap;
#X obj 222 456 unpack f f f f;
#X msg 222 435 60.48 0.5 6.3 41.2;
#N canvas 351 137 392 227 tanh~ 0;
#X obj 12 12 inlet~;
#X obj 12 38 clip~ -3 3;
#X obj 27 64 *~;
#X obj 12 192 outlet~;
#X obj 27 140 /~;
#X obj 12 166 *~;
#X obj 67 90 *~ 9;
#X text 92 42 // http://www.musicdsp.org/showone.php?id=238;
#X text 92 62 // y = x * (27 + x^2) / (27 + 9*x^2);
#X obj 27 90 +~ 27;
#X obj 67 116 +~ 27;
#X text 92 22 // pade-approximation of tanh function;
#X connect 0 0 1 0;
#X connect 1 0 2 0;
#X connect 1 0 2 1;
#X connect 1 0 5 0;
#X connect 2 0 9 0;
#X connect 2 0 6 0;
#X connect 4 0 5 1;
#X connect 5 0 3 0;
#X connect 6 0 10 0;
#X connect 9 0 4 0;
#X connect 10 0 4 1;
#X restore 217 225 pd tanh~;
#X obj 369 78 s~ \$0-gain;
#X obj 217 503 r~ \$0-gain;
#X obj 12 524 *~;
#X obj 27 503 r~ \$0-gain;
#X obj 12 545 delwrite~ \$0-delc 200;
#X obj 232 183 r~ \$0-gain;
#X obj 42 204 r~ \$0-gain;
#X obj 259 57 clip~ 0 1;
#X obj 259 36 inlet~;
#X obj 259 78 s~ \$0-damping;
#X obj 384 377 r~ \$0-damping;
#X text 259 16 (I3) Damping;
#X obj 12 52 /~ 2;
#N canvas 0 22 493 300 multitapdelay 0;
#X obj 9 102 +~;
#X obj 29 123 -~;
#X obj 49 144 +~;
#X obj 69 165 -~;
#X obj 89 186 -~;
#X obj 109 207 -~;
#X obj 9 60 delread~ \$0-dela 8.9;
#X obj 24 81 delread~ \$0-dela 99.8;
#X obj 64 123 delread~ \$0-delc 67;
#X obj 84 144 delread~ \$0-deld 66.8;
#X obj 124 186 delread~ \$0-delf 35.8;
#X obj 44 35 inlet~;
#X obj 104 35 inlet~;
#X obj 229 102 +~;
#X obj 249 123 -~;
#X obj 269 144 +~;
#X obj 289 165 -~;
#X obj 309 186 -~;
#X obj 329 207 -~;
#X obj 264 35 inlet~;
#X obj 324 35 inlet~;
#X obj 229 60 delread~ \$0-deld 11.8;
#X obj 244 81 delread~ \$0-deld 121.7;
#X obj 284 123 delread~ \$0-delf 89.7;
#X obj 304 144 delread~ \$0-dela 70.8;
#X obj 344 186 delread~ \$0-delc 4.1;
#X obj 109 228 outlet~;
#X obj 329 228 outlet~;
#X connect 0 0 1 0;
#X connect 1 0 2 0;
#X connect 2 0 3 0;
#X connect 3 0 4 0;
#X connect 4 0 5 0;
#X connect 5 0 26 0;
#X connect 6 0 0 0;
#X connect 7 0 0 1;
#X connect 8 0 2 1;
#X connect 9 0 3 1;
#X connect 10 0 5 1;
#X connect 11 0 1 1;
#X connect 12 0 4 1;
#X connect 13 0 14 0;
#X connect 14 0 15 0;
#X connect 15 0 16 0;
#X connect 16 0 17 0;
#X connect 17 0 18 0;
#X connect 18 0 27 0;
#X connect 19 0 14 1;
#X connect 20 0 17 1;
#X connect 21 0 13 0;
#X connect 22 0 13 1;
#X connect 23 0 15 1;
#X connect 24 0 16 1;
#X connect 25 0 18 1;
#X restore 112 581 pd multitapdelay;
#X obj 112 623 outlet~;
#X obj 205 623 outlet~;
#X text 112 643 (O1) Left-Out;
#X text 202 643 (O2) Right-Out;
#X text 12 678 http://tre.ucsd.edu/wordpress/?p=625;
#X text 12 663 Tom Erbe's port of Jon Dattorro's plate reverb;
#X text 369 16 (I4) Gain;
#X obj 112 602 /~ 2;
#X obj 205 602 /~ 2;
#X connect 0 0 61 0;
#X connect 1 0 39 0;
#X connect 2 0 1 0;
#X connect 3 0 36 0;
#X connect 4 0 3 0;
#X connect 5 0 37 0;
#X connect 6 0 45 0;
#X connect 7 0 6 0;
#X connect 8 0 48 0;
#X connect 9 0 11 1;
#X connect 10 0 40 0;
#X connect 11 0 31 0;
#X connect 12 0 21 0;
#X connect 13 0 49 0;
#X connect 14 0 2 1;
#X connect 14 0 28 1;
#X connect 16 0 4 0;
#X connect 18 0 7 0;
#X connect 19 0 9 0;
#X connect 20 0 8 0;
#X connect 22 0 23 0;
#X connect 23 0 24 0;
#X connect 24 0 7 1;
#X connect 24 0 4 1;
#X connect 25 0 14 0;
#X connect 26 0 27 0;
#X connect 27 0 28 0;
#X connect 28 0 1 1;
#X connect 29 0 13 0;
#X connect 30 0 32 0;
#X connect 31 0 15 0;
#X connect 32 0 31 1;
#X connect 32 1 31 2;
#X connect 32 2 31 3;
#X connect 33 0 30 0;
#X connect 36 0 51 0;
#X connect 36 1 62 0;
#X connect 36 2 62 2;
#X connect 37 0 38 0;
#X connect 38 0 36 1;
#X connect 38 1 36 2;
#X connect 38 2 36 3;
#X connect 38 3 36 4;
#X connect 39 0 11 0;
#X connect 39 0 10 0;
#X connect 40 0 17 0;
#X connect 41 0 40 1;
#X connect 41 1 40 2;
#X connect 41 2 40 3;
#X connect 42 0 43 0;
#X connect 43 0 41 0;
#X connect 44 0 47 0;
#X connect 45 0 12 0;
#X connect 45 1 62 1;
#X connect 45 2 62 3;
#X connect 46 0 45 1;
#X connect 46 1 45 2;
#X connect 46 2 45 3;
#X connect 46 3 45 4;
#X connect 47 0 46 0;
#X connect 48 0 10 1;
#X connect 50 0 12 1;
#X connect 51 0 53 0;
#X connect 52 0 51 1;
#X connect 54 0 8 1;
#X connect 55 0 9 1;
#X connect 56 0 58 0;
#X connect 57 0 56 0;
#X connect 59 0 6 1;
#X connect 59 0 3 1;
#X connect 59 0 24 1;
#X connect 61 0 2 0;
#X connect 62 0 70 0;
#X connect 62 1 71 0;
#X connect 70 0 63 0;
#X connect 71 0 64 0;
