#N canvas 298 77 775 755 10;
#X obj 12 75 inlet~;
#X text 12 55 in;
#X obj 139 31 inlet;
#X obj 12 163 rpole~;
#X obj 186 268 loadbang;
#X msg 186 285 0.625;
#X obj 384 720 outlet~;
#X obj 12 119 *~;
#X obj 233 429 rpole~;
#X obj 233 407 *~;
#X obj 266 128 inlet;
#X obj 386 417 loadbang;
#X msg 356 434 64.2;
#X obj 453 429 rpole~;
#X obj 453 407 *~;
#X obj 606 417 loadbang;
#X obj 498 280 *~;
#X obj 235 311 *~;
#X obj 453 319 +~;
#X obj 216 353 +~;
#X obj 438 197 inlet;
#X obj 264 588 -~;
#X obj 284 610 +~;
#X obj 304 632 -~;
#X msg 576 434 6.3;
#X obj 324 654 -~;
#X obj 344 676 -~;
#X obj 651 720 outlet~;
#X obj 511 566 +~;
#X obj 531 588 -~;
#X obj 551 610 +~;
#X obj 571 632 -~;
#X obj 591 654 -~;
#X obj 611 676 -~;
#X msg 606 434 41.2;
#X msg 386 434 11.2;
#X msg 146 285 9.307;
#X msg 506 434 60.48;
#X msg 286 434 89.24;
#X msg 326 434 0.5;
#X msg 546 434 0.5;
#X obj 631 698 *~ 0.125;
#X obj 12 97 *~ 0.5;
#X obj 438 473 *~;
#X obj 218 473 *~;
#X obj 438 241 line~;
#X obj 438 263 clip~ 0 1;
#X obj 139 124 -~ 1;
#X obj 139 146 *~ -1;
#X obj 139 102 clip~ 0 1;
#X obj 139 75 line~;
#X msg 438 219 \$1 1;
#X msg 139 53 \$1 1;
#X obj 263 258 delread~ \$0-delf 125;
#X obj 513 258 delread~ \$0-delc 106.28;
#X obj 438 495 delwrite~ \$0-delf 200;
#X obj 218 495 delwrite~ \$0-delc 200;
#X text 139 11 bandwidth;
#X obj 248 233 *~ -1;
#X obj 248 211 -~ 1;
#X obj 266 194 clip~ 0 1;
#X msg 266 150 \$1 1;
#X obj 266 172 line~;
#X text 266 108 damping;
#X text 438 177 gain;
#N canvas 351 137 158 227 tanh 0;
#X obj 12 12 inlet~;
#X obj 12 34 clip~ -3 3;
#X obj 27 61 *~;
#X obj 12 171 outlet~;
#X obj 82 61 sig~ 27;
#X obj 27 88 +~;
#X obj 27 127 /~;
#X obj 12 149 *~;
#X obj 67 88 *~ 9;
#X obj 67 110 +~;
#X connect 0 0 1 0;
#X connect 1 0 2 0;
#X connect 1 0 2 1;
#X connect 1 0 7 0;
#X connect 2 0 5 0;
#X connect 2 0 8 0;
#X connect 4 0 5 1;
#X connect 4 0 9 1;
#X connect 5 0 6 0;
#X connect 6 0 7 1;
#X connect 7 0 3 0;
#X connect 8 0 9 0;
#X connect 9 0 6 1;
#X restore 498 302 pd tanh;
#X text 374 127 gain 0 to 1;
#X text 374 107 damping 0 to 1;
#X text 374 87 bandwidth 0 to 1;
#N canvas 412 162 241 206 allpass100ms 0;
#X obj 12 31 inlet~;
#X obj 12 92 +~;
#X obj 27 70 *~;
#X obj 102 31 inlet;
#X obj 202 53 inlet;
#X obj 202 75 * -1;
#X obj 187 109 *~;
#X obj 172 131 +~;
#X obj 172 153 outlet~;
#X text 12 173 0 - 100 mSec allpass;
#X text 202 33 gain;
#X text 102 11 time;
#X text 12 11 sound;
#X obj 12 153 delwrite~ \$0-short-4 100;
#X obj 102 53 vd~ \$0-short-4;
#X connect 0 0 1 0;
#X connect 1 0 6 0;
#X connect 1 0 13 0;
#X connect 2 0 1 1;
#X connect 3 0 14 0;
#X connect 4 0 2 1;
#X connect 4 0 5 0;
#X connect 5 0 6 1;
#X connect 6 0 7 1;
#X connect 7 0 8 0;
#X connect 14 0 2 0;
#X connect 14 0 7 0;
#X restore 62 302 pd allpass100ms;
#N canvas 0 22 482 228 allpass100ms2tap 0;
#X obj 12 31 inlet~;
#X obj 12 92 +~;
#X obj 27 70 *~;
#X obj 62 31 inlet;
#X obj 202 53 inlet;
#X obj 202 75 * -1;
#X obj 187 109 *~;
#X obj 172 131 +~;
#X obj 172 153 outlet~;
#X obj 223 154 outlet~;
#X obj 223 110 inlet;
#X obj 343 154 outlet~;
#X obj 343 110 inlet;
#X text 12 173 0 - 100 mSec allpass;
#X text 343 90 time;
#X text 223 90 time;
#X text 202 33 gain;
#X text 62 11 time;
#X text 12 11 sound;
#X obj 12 153 delwrite~ \$0-short-7 100;
#X obj 223 132 delread~ \$0-short-7;
#X obj 343 132 delread~ \$0-short-7;
#X obj 62 53 delread~ \$0-short-7;
#X connect 0 0 1 0;
#X connect 1 0 6 0;
#X connect 1 0 19 0;
#X connect 2 0 1 1;
#X connect 3 0 22 0;
#X connect 4 0 2 1;
#X connect 4 0 5 0;
#X connect 5 0 6 1;
#X connect 6 0 7 1;
#X connect 7 0 8 0;
#X connect 10 0 20 0;
#X connect 12 0 21 0;
#X connect 20 0 9 0;
#X connect 21 0 11 0;
#X connect 22 0 2 0;
#X connect 22 0 7 0;
#X restore 233 451 pd allpass100ms2tap;
#N canvas 0 22 482 228 allpass100ms2tap 0;
#X obj 12 31 inlet~;
#X obj 12 92 +~;
#X obj 27 70 *~;
#X obj 62 31 inlet;
#X obj 202 53 inlet;
#X obj 202 75 * -1;
#X obj 187 109 *~;
#X obj 172 131 +~;
#X obj 172 153 outlet~;
#X obj 223 154 outlet~;
#X obj 223 110 inlet;
#X obj 343 154 outlet~;
#X obj 343 110 inlet;
#X text 12 173 0 - 100 mSec allpass;
#X text 343 90 time;
#X text 223 90 time;
#X text 202 33 gain;
#X text 62 11 time;
#X text 12 11 sound;
#X obj 223 132 delread~ \$0-short-8;
#X obj 12 153 delwrite~ \$0-short-8 100;
#X obj 62 53 delread~ \$0-short-8;
#X obj 343 132 delread~ \$0-short-8;
#X connect 0 0 1 0;
#X connect 1 0 6 0;
#X connect 1 0 20 0;
#X connect 2 0 1 1;
#X connect 3 0 21 0;
#X connect 4 0 2 1;
#X connect 4 0 5 0;
#X connect 5 0 6 1;
#X connect 6 0 7 1;
#X connect 7 0 8 0;
#X connect 10 0 19 0;
#X connect 12 0 22 0;
#X connect 19 0 9 0;
#X connect 21 0 2 0;
#X connect 21 0 7 0;
#X connect 22 0 11 0;
#X restore 453 451 pd allpass100ms2tap;
#X text 374 67 from http://tre.ucsd.edu/wordpress/?p=285;
#X text 507 218 https://github.com/MikeMorenoAudio;
#X text 507 198 Made heavy compatible by Mike Moreno;
#X text 374 47 By Tom Erbe;
#X obj 219 32 loadbang;
#X obj 219 53 pack \$1 \$2 \$3;
#X obj 219 74 unpack f f f;
#X obj 364 698 /~ 2;
#X connect 0 0 42 0;
#X connect 2 0 52 0;
#X connect 3 0 69 0;
#X connect 4 0 5 0;
#X connect 4 0 36 0;
#X connect 5 0 69 2;
#X connect 7 0 3 0;
#X connect 8 0 70 0;
#X connect 9 0 8 0;
#X connect 10 0 61 0;
#X connect 11 0 39 0;
#X connect 11 0 38 0;
#X connect 11 0 12 0;
#X connect 11 0 35 0;
#X connect 12 0 70 3;
#X connect 13 0 71 0;
#X connect 14 0 13 0;
#X connect 15 0 40 0;
#X connect 15 0 37 0;
#X connect 15 0 24 0;
#X connect 15 0 34 0;
#X connect 16 0 65 0;
#X connect 17 0 19 1;
#X connect 18 0 14 0;
#X connect 19 0 9 0;
#X connect 20 0 51 0;
#X connect 21 0 22 0;
#X connect 22 0 23 0;
#X connect 23 0 25 0;
#X connect 24 0 71 3;
#X connect 25 0 26 0;
#X connect 26 0 79 0;
#X connect 28 0 29 0;
#X connect 29 0 30 0;
#X connect 30 0 31 0;
#X connect 31 0 32 0;
#X connect 32 0 33 0;
#X connect 33 0 41 0;
#X connect 34 0 71 4;
#X connect 35 0 70 4;
#X connect 36 0 69 1;
#X connect 37 0 71 1;
#X connect 38 0 70 1;
#X connect 39 0 70 2;
#X connect 40 0 71 2;
#X connect 41 0 27 0;
#X connect 42 0 7 0;
#X connect 43 0 55 0;
#X connect 44 0 56 0;
#X connect 45 0 46 0;
#X connect 46 0 16 0;
#X connect 46 0 17 0;
#X connect 46 0 43 0;
#X connect 46 0 44 0;
#X connect 47 0 48 0;
#X connect 48 0 3 1;
#X connect 49 0 7 1;
#X connect 49 0 47 0;
#X connect 50 0 49 0;
#X connect 51 0 45 0;
#X connect 52 0 50 0;
#X connect 53 0 17 1;
#X connect 54 0 16 1;
#X connect 58 0 9 1;
#X connect 58 0 14 1;
#X connect 59 0 58 0;
#X connect 60 0 8 1;
#X connect 60 0 13 1;
#X connect 60 0 59 0;
#X connect 61 0 62 0;
#X connect 62 0 60 0;
#X connect 65 0 18 1;
#X connect 69 0 19 0;
#X connect 69 0 18 0;
#X connect 70 0 44 1;
#X connect 70 1 21 0;
#X connect 70 2 32 1;
#X connect 71 0 43 1;
#X connect 71 2 29 1;
#X connect 76 0 77 0;
#X connect 77 0 78 0;
#X connect 78 0 52 0;
#X connect 78 1 61 0;
#X connect 78 2 51 0;
#X connect 79 0 6 0;
