#N canvas 219 23 1019 755 10;
#X msg 234 311 open ./funk-kit.wav \, start;
#X obj 234 338 readsf~;
#X obj 422 273 loadbang;
#X obj 422 315 unpack f f f;
#X obj 164 517 clip~ -1 1;
#X obj 166 604 hip~ 3;
#X obj 166 646 dac~ 1 2;
#X obj 463 221 readsf~;
#X msg 463 200 open ./piano.wav \, start;
#X obj 299 436 re.simple;
#X obj 260 80 tgl 15 0 empty empty empty 17 7 0 10 -262144 -1 -1 1
1;
#X obj 260 142 vline~;
#X obj 260 163 pow~ 2;
#X obj 260 184 *~;
#X obj 355 137 noise~;
#X obj 260 100 metro 2000;
#X obj 792 430 re.plate~;
#X msg 355 117 seed 541;
#X floatatom 439 118 5 0 0 0 - - -;
#X obj 434 140 mtof;
#X obj 397 521 tgl 15 0 empty empty empty 17 7 0 10 -262144 -1 -1 1
1;
#X obj 397 541 metro 50;
#X obj 397 562 tabwrite~ \$0-scope;
#N canvas 0 22 450 278 (subpatch) 0;
#X array \$0-scope 441 float 0;
#X coords 0 1 441 -1 200 140 1;
#X restore 533 396 graph;
#X obj 391 414 loadbang;
#X obj 391 456 unpack f f f;
#X obj 374 477 re.plate~;
#X obj 166 625 /~ 1;
#X obj 319 171 phasor~ 440;
#X msg 260 121 1 1 \, 0 100 20;
#N canvas 0 22 450 300 pink 0;
#X obj 12 78 noise~;
#X obj 121 94 *~ 0.099046;
#X text 149 72 b0;
#X text 267 73 b1;
#X text 367 72 b2;
#X obj 241 94 *~ 0.296516;
#X obj 341 94 *~ 1.05269;
#X obj 12 152 +~;
#X obj 12 173 +~;
#X obj 12 126 *~ 0.1848;
#X obj 12 194 +~;
#X obj 12 237 outlet~;
#X text 142 192 http://www.firstpr.com.au/dsp/pink-noise/;
#X obj 12 215 *~ 0.2;
#X obj 154 115 sig~ 0.99765;
#X obj 274 115 sig~ 0.963;
#X obj 374 115 sig~ 0.57;
#X obj 121 136 rpole~;
#X obj 241 136 rpole~;
#X obj 341 136 rpole~;
#X text 142 212 Paul Kellet's economy method:;
#X text 142 232 b0 = 0.99765 * b0 + white * 0.099046 \;;
#X text 142 252 b1 = 0.963 * b1 + white * 0.296516 \;;
#X text 142 272 b2 = 0.57 * b2 + white * 1.05269 \;;
#X text 142 292 tmp = b0 + b1 + b2 + white * 0.1848 \;;
#X text 12 257 (01) Output;
#X obj 48 31 inlet;
#X obj 48 52 t a b;
#X msg 75 120 clear;
#X text 48 11 (I1) Reset noise's seed and filter's state;
#X connect 0 0 1 0;
#X connect 0 0 5 0;
#X connect 0 0 6 0;
#X connect 0 0 9 0;
#X connect 1 0 17 0;
#X connect 5 0 18 0;
#X connect 6 0 19 0;
#X connect 7 0 8 0;
#X connect 8 0 10 0;
#X connect 9 0 7 0;
#X connect 10 0 13 0;
#X connect 13 0 11 0;
#X connect 14 0 17 1;
#X connect 15 0 18 1;
#X connect 16 0 19 1;
#X connect 17 0 7 1;
#X connect 18 0 8 1;
#X connect 19 0 10 1;
#X connect 26 0 27 0;
#X connect 27 0 0 0;
#X connect 27 1 28 0;
#X connect 28 0 17 0;
#X connect 28 0 19 0;
#X connect 28 0 18 0;
#X restore 596 129 pd pink;
#X msg 392 435 1 0 0.8;
#X obj 164 496 /~ 1;
#X obj 234 359 delwrite~ \$0-del 1100;
#X obj 260 204 /~ 1;
#X obj 359 224 /~ 4;
#X obj 359 246 /~ 4;
#X obj 359 203 osc~;
#X msg 422 290 0.5 0.5 1;
#X connect 0 0 1 0;
#X connect 1 0 33 0;
#X connect 1 1 0 0;
#X connect 2 0 38 0;
#X connect 3 0 9 1;
#X connect 3 1 9 2;
#X connect 3 2 9 3;
#X connect 4 0 5 0;
#X connect 5 0 27 0;
#X connect 7 1 8 0;
#X connect 8 0 7 0;
#X connect 10 0 15 0;
#X connect 11 0 12 0;
#X connect 12 0 13 0;
#X connect 13 0 34 0;
#X connect 15 0 29 0;
#X connect 15 0 17 0;
#X connect 17 0 14 0;
#X connect 18 0 19 0;
#X connect 19 0 28 0;
#X connect 19 0 37 0;
#X connect 20 0 21 0;
#X connect 21 0 22 0;
#X connect 24 0 31 0;
#X connect 25 0 26 1;
#X connect 25 1 26 2;
#X connect 25 2 26 3;
#X connect 27 0 6 0;
#X connect 27 0 6 1;
#X connect 28 0 13 1;
#X connect 29 0 11 0;
#X connect 31 0 25 0;
#X connect 32 0 4 0;
#X connect 35 0 36 0;
#X connect 37 0 35 0;
#X connect 38 0 3 0;
