#N canvas 520 171 775 755 10;
#X obj 12 31 inlet~;
#X obj 12 136 rpole~;
#X obj 12 73 *~;
#X obj 12 411 rpole~;
#X obj 12 390 *~;
#X obj 27 264 *~;
#X obj 12 348 +~;
#X obj 12 605 *~;
#X obj 369 57 clip~ 0 1;
#X obj 139 57 clip~ 0 1;
#X obj 12 453 delwrite~ \$0-deld 200;
#X obj 12 474 delread~ \$0-deld 149.62;
#X obj 12 626 delwrite~ \$0-delf 200;
#X obj 159 332 loadbang;
#X msg 159 353 1;
#X obj 159 374 -~;
#X obj 139 36 inlet~;
#X obj 124 78 loadbang;
#X msg 124 99 1;
#X obj 124 120 -~;
#X obj 369 36 inlet~;
#X text 12 11 (I1) Input;
#X text 139 16 (I2) Bandwidth;
#N canvas 1047 506 295 300 modallpass 0;
#X obj 12 31 inlet~;
#X obj 12 170 +~;
#X obj 27 148 *~;
#X obj 87 31 inlet;
#X obj 222 132 inlet;
#X obj 222 158 * -1;
#X obj 207 186 *~;
#X obj 192 207 +~;
#X obj 192 228 outlet~;
#X text 87 11 (I2) Time;
#X text 222 112 (I4) Gain;
#X text 12 11 (I1) Input;
#X text 192 248 (O1) Output;
#X obj 12 228 delwrite~ \$0-mod-ap-2 50;
#X obj 87 90 +~;
#X obj 87 112 vd~ \$0-mod-ap-2;
#X obj 176 48 *~ 0.1;
#X obj 176 26 osc~ 500;
#X connect 0 0 1 0;
#X connect 1 0 6 0;
#X connect 1 0 13 0;
#X connect 2 0 1 1;
#X connect 3 0 14 0;
#X connect 4 0 2 1;
#X connect 4 0 5 0;
#X connect 5 0 6 1;
#X connect 6 0 7 1;
#X connect 7 0 8 0;
#X connect 14 0 15 0;
#X connect 15 0 2 0;
#X connect 15 0 7 0;
#X connect 16 0 14 1;
#X connect 17 0 16 0;
#X restore 12 369 pd modallpass;
#X obj 49 306 loadbang;
#X obj 32 495 loadbang;
#N canvas 505 611 561 213 allpass2tap 0;
#X obj 12 52 inlet~;
#X obj 12 110 +~;
#X obj 27 88 *~;
#X obj 82 31 inlet;
#X obj 212 72 inlet;
#X obj 212 93 * -1;
#X obj 197 126 *~;
#X obj 182 147 +~;
#X obj 182 168 outlet~;
#X text 12 32 (I1) Input;
#X text 82 11 (I2) Time;
#X text 212 52 (I3) Gain;
#X obj 272 168 outlet~;
#X obj 272 126 inlet;
#X text 272 106 (I4) Tap Time 1;
#X obj 402 168 outlet~;
#X obj 402 126 inlet;
#X text 402 106 (I5) Tap Time 2;
#X text 182 188 (O1) AP Out;
#X obj 82 52 delread~ \$0-ap2tap-2;
#X obj 12 173 delwrite~ \$0-ap2tap-2 100;
#X obj 272 147 delread~ \$0-ap2tap-2;
#X obj 402 147 delread~ \$0-ap2tap-2;
#X text 272 188 (O2) Tap 1 Out;
#X text 402 188 (O3) Tap 2 Out;
#X obj 12 131 lop~ 6000;
#X connect 0 0 1 0;
#X connect 1 0 6 0;
#X connect 1 0 25 0;
#X connect 2 0 1 1;
#X connect 3 0 19 0;
#X connect 4 0 2 1;
#X connect 4 0 5 0;
#X connect 5 0 6 1;
#X connect 6 0 7 1;
#X connect 7 0 8 0;
#X connect 13 0 21 0;
#X connect 16 0 22 0;
#X connect 19 0 2 0;
#X connect 19 0 7 0;
#X connect 21 0 12 0;
#X connect 22 0 15 0;
#X connect 25 0 20 0;
#X restore 12 558 pd allpass2tap;
#X obj 32 537 unpack f f f f;
#X msg 32 516 60.48 0.5 6.3 41.2;
#N canvas 351 137 392 227 tanh~ 0;
#X obj 12 12 inlet~;
#X obj 12 38 clip~ -3 3;
#X obj 27 64 *~;
#X obj 12 192 outlet~;
#X obj 27 140 /~;
#X obj 12 166 *~;
#X obj 67 90 *~ 9;
#X text 92 42 // http://www.musicdsp.org/showone.php?id=238;
#X text 92 62 // y = x * (27 + x^2) / (27 + 9*x^2);
#X obj 27 90 +~ 27;
#X obj 67 116 +~ 27;
#X text 92 22 // pade-approximation of tanh function;
#X connect 0 0 1 0;
#X connect 1 0 2 0;
#X connect 1 0 2 1;
#X connect 1 0 5 0;
#X connect 2 0 9 0;
#X connect 2 0 6 0;
#X connect 4 0 5 1;
#X connect 5 0 3 0;
#X connect 6 0 10 0;
#X connect 9 0 4 0;
#X connect 10 0 4 1;
#X restore 27 285 pd tanh~;
#X obj 369 78 s~ \$0-gain;
#X obj 27 584 r~ \$0-gain;
#X obj 42 243 r~ \$0-gain;
#X obj 259 57 clip~ 0 1;
#X obj 259 36 inlet~;
#X obj 259 78 s~ \$0-damping;
#X obj 194 395 r~ \$0-damping;
#X text 259 16 (I3) Damping;
#X text 369 16 (I2) Gain;
#X obj 12 52 /~ 2;
#N canvas 0 22 493 300 multitapdelay 0;
#X obj 69 77 -~;
#X obj 89 98 -~;
#X obj 109 119 -~;
#X obj 84 56 delread~ \$0-deld 66.8;
#X obj 124 98 delread~ \$0-delf 35.8;
#X obj 104 35 inlet~;
#X obj 109 140 outlet~;
#X connect 0 0 1 0;
#X connect 1 0 2 0;
#X connect 2 0 6 0;
#X connect 3 0 0 1;
#X connect 4 0 2 1;
#X connect 5 0 1 1;
#X restore 52 647 pd multitapdelay;
#X obj 52 689 outlet~;
#X text 52 709 (O1) Left-Out;
#X obj 27 222 delread~ \$0-delf 106.28;
#N canvas 845 584 289 213 allpass 0;
#X obj 12 52 inlet~;
#X obj 12 110 +~;
#X obj 27 88 *~;
#X obj 92 31 inlet;
#X obj 202 72 inlet;
#X obj 202 93 * -1;
#X obj 187 126 *~;
#X obj 172 147 +~;
#X obj 172 168 outlet~;
#X text 12 32 (I1) Input;
#X text 92 11 (I2) Time;
#X text 202 52 (I3) Gain;
#X obj 92 52 delread~ \$0-ap-4;
#X obj 12 168 delwrite~ \$0-ap-4 20;
#X text 172 188 (O1) Output;
#X connect 0 0 1 0;
#X connect 1 0 6 0;
#X connect 1 0 13 0;
#X connect 2 0 1 1;
#X connect 3 0 12 0;
#X connect 4 0 2 1;
#X connect 4 0 5 0;
#X connect 5 0 6 1;
#X connect 6 0 7 1;
#X connect 7 0 8 0;
#X connect 12 0 7 0;
#X connect 12 0 2 0;
#X restore 12 201 pd allpass;
#X obj 40 180 unpack f f;
#X msg 40 159 12.73 0.625;
#X obj 120 143 loadbang;
#X msg 49 327 22.58 0.7;
#X obj 49 347 unpack f f;
#X obj 52 668 /~ 2;
#X obj 12 432 hip~ 50;
#X connect 0 0 39 0;
#X connect 1 0 44 0;
#X connect 2 0 1 0;
#X connect 3 0 51 0;
#X connect 4 0 3 0;
#X connect 5 0 29 0;
#X connect 6 0 23 0;
#X connect 7 0 12 0;
#X connect 8 0 30 0;
#X connect 9 0 2 1;
#X connect 9 0 19 1;
#X connect 11 0 26 0;
#X connect 13 0 14 0;
#X connect 14 0 15 0;
#X connect 15 0 4 1;
#X connect 16 0 9 0;
#X connect 17 0 18 0;
#X connect 18 0 19 0;
#X connect 19 0 1 1;
#X connect 20 0 8 0;
#X connect 23 0 4 0;
#X connect 24 0 48 0;
#X connect 25 0 28 0;
#X connect 26 0 7 0;
#X connect 26 1 40 0;
#X connect 27 0 26 1;
#X connect 27 1 26 2;
#X connect 27 2 26 3;
#X connect 27 3 26 4;
#X connect 28 0 27 0;
#X connect 29 0 6 1;
#X connect 31 0 7 1;
#X connect 32 0 5 1;
#X connect 33 0 35 0;
#X connect 34 0 33 0;
#X connect 36 0 3 1;
#X connect 36 0 15 1;
#X connect 39 0 2 0;
#X connect 40 0 50 0;
#X connect 43 0 5 0;
#X connect 44 0 6 0;
#X connect 45 0 44 1;
#X connect 45 1 44 2;
#X connect 46 0 45 0;
#X connect 47 0 46 0;
#X connect 48 0 49 0;
#X connect 49 0 23 1;
#X connect 49 1 23 2;
#X connect 50 0 41 0;
#X connect 51 0 10 0;
