#N canvas 22 23 1138 588 10;
#X obj 455 445 /;
#X obj 166 327 +~;
#X obj 166 305 *~ 0.9;
#X obj 223 305 *~ 0.1;
#X obj 223 283 pow~ 1.85;
#X obj 166 283 pow~ 6.7;
#X obj 351 167 noise~;
#X obj 151 455 *~;
#X obj 515 445 /;
#X obj 575 445 /;
#X obj 635 445 /;
#X obj 695 445 /;
#X obj 755 445 /;
#X obj 295 240 r \$0-vel-cym;
#X msg 295 262 1 \$1;
#X obj 295 284 -;
#X obj 295 350 + 100;
#X obj 295 372 dbtorms;
#X msg 295 394 \$1 1;
#X obj 295 416 line~;
#X obj 166 46 r \$0-trg-cym;
#N canvas 0 22 241 126 lowpass 0;
#X obj 12 93 outlet~;
#N canvas 674 187 405 205 @hv_obj 0;
#X obj 62 12 inlet~ b0;
#X obj 132 12 inlet~ b1;
#X obj 202 12 inlet~ b2;
#X obj 272 12 inlet~ a1;
#X obj 332 12 inlet~ a2;
#X obj 12 12 inlet~;
#N canvas 677 380 306 397 zeros 0;
#X obj 12 282 czero~;
#X obj 12 329 czero~;
#X obj 12 356 outlet~;
#X obj 75 356 outlet~;
#X obj 62 12 inlet~ b0;
#X obj 132 12 inlet~ b1;
#X obj 202 12 inlet~ b2;
#X obj 12 12 inlet~;
#X obj 47 89 *~ -1;
#X obj 47 111 *~ 0.5;
#X obj 132 117 *~;
#X obj 132 155 -~;
#X obj 187 138 *~ 4;
#X obj 187 116 *~;
#X obj 228 172 abs~;
#X obj 228 216 *~ 0.5;
#X obj 228 238 /~;
#N canvas 773 235 262 212 location 0;
#X obj 12 12 inlet~;
#X obj 62 12 inlet~;
#X obj 207 12 inlet~;
#X obj 12 174 outlet~;
#X obj 72 174 outlet~;
#X obj 132 174 outlet~;
#X obj 192 174 outlet~;
#N canvas 725 189 180 137 gte 0;
#X obj 117 12 inlet~;
#X obj 12 12 inlet~;
#X obj 12 100 outlet~;
#N canvas 758 270 144 76 @hv_obj 0;
#X obj 62 12 inlet~;
#X obj 12 12 inlet~;
#X obj 12 34 outlet~;
#X connect 1 0 2 0;
#X restore 12 78 pd @hv_obj __and~f;
#X obj 117 56 sig~ 1;
#N canvas 945 362 136 178 @hv_obj 0;
#X obj 12 56 -~;
#X obj 12 78 clip~ -1e-37 0;
#X obj 12 12 inlet~;
#X obj 62 12 inlet~;
#X obj 12 144 outlet~;
#X obj 12 122 *~ 1e+37;
#X obj 12 34 min~;
#X obj 12 100 +~ 1e-37;
#X connect 0 0 1 0;
#X connect 1 0 7 0;
#X connect 2 0 6 0;
#X connect 3 0 6 1;
#X connect 3 0 0 1;
#X connect 5 0 4 0;
#X connect 6 0 0 0;
#X connect 7 0 5 0;
#X restore 12 34 pd @hv_obj __gte~f;
#X connect 0 0 5 1;
#X connect 1 0 5 0;
#X connect 3 0 2 0;
#X connect 4 0 3 1;
#X connect 5 0 3 0;
#X restore 62 49 pd gte;
#N canvas 845 375 187 138 lte 0;
#X obj 117 12 inlet~;
#X obj 12 12 inlet~;
#X obj 12 100 outlet~;
#N canvas 467 216 140 82 @hv_obj 0;
#X obj 72 12 inlet~;
#X obj 12 12 inlet~;
#X obj 12 39 outlet~;
#X connect 1 0 2 0;
#X restore 12 78 pd @hv_obj __and~f;
#X obj 117 56 sig~ 1;
#N canvas 715 101 137 184 @hv_obj 0;
#X obj 12 56 -~;
#X obj 12 78 clip~ -1e-37 0;
#X obj 12 12 inlet~;
#X obj 62 12 inlet~;
#X obj 12 144 outlet~;
#X obj 12 122 *~ 1e+37;
#X obj 12 34 min~;
#X obj 12 100 +~ 1e-37;
#X connect 0 0 1 0;
#X connect 1 0 7 0;
#X connect 2 0 6 0;
#X connect 2 0 0 1;
#X connect 3 0 6 1;
#X connect 5 0 4 0;
#X connect 6 0 0 0;
#X connect 7 0 5 0;
#X restore 12 34 pd @hv_obj __lte~f;
#X connect 0 0 5 1;
#X connect 1 0 5 0;
#X connect 3 0 2 0;
#X connect 4 0 3 1;
#X connect 5 0 3 0;
#X restore 127 49 pd lte;
#X obj 12 152 +~;
#X obj 160 22 sig~ 0;
#X obj 147 125 *~;
#X obj 192 125 *~;
#X obj 132 152 -~;
#X obj 192 152 *~ -1;
#X connect 0 0 9 0;
#X connect 0 0 13 0;
#X connect 1 0 7 0;
#X connect 1 0 8 0;
#X connect 2 0 11 1;
#X connect 2 0 12 1;
#X connect 7 0 11 0;
#X connect 8 0 12 0;
#X connect 9 0 3 0;
#X connect 10 0 7 1;
#X connect 10 0 8 1;
#X connect 11 0 9 1;
#X connect 11 0 13 1;
#X connect 12 0 4 0;
#X connect 12 0 14 0;
#X connect 13 0 5 0;
#X connect 14 0 6 0;
#X restore 34 255 pd location;
#X obj 228 194 sqrt~;
#X obj 47 133 /~;
#X connect 0 0 1 0;
#X connect 0 1 1 1;
#X connect 1 0 2 0;
#X connect 1 1 3 0;
#X connect 4 0 13 0;
#X connect 4 0 16 1;
#X connect 4 0 19 1;
#X connect 5 0 8 0;
#X connect 5 0 10 1;
#X connect 5 0 10 0;
#X connect 6 0 13 1;
#X connect 7 0 0 0;
#X connect 8 0 9 0;
#X connect 9 0 19 0;
#X connect 10 0 11 0;
#X connect 11 0 14 0;
#X connect 11 0 17 1;
#X connect 12 0 11 1;
#X connect 13 0 12 0;
#X connect 14 0 18 0;
#X connect 15 0 16 0;
#X connect 16 0 17 2;
#X connect 17 0 0 2;
#X connect 17 1 0 3;
#X connect 17 2 1 2;
#X connect 17 3 1 3;
#X connect 18 0 15 0;
#X connect 19 0 17 0;
#X restore 12 86 pd zeros;
#X obj 12 49 *~;
#N canvas 744 202 254 278 poles 0;
#X obj 12 170 cpole~;
#X obj 12 217 cpole~;
#X obj 12 244 outlet~;
#X obj 12 12 inlet~;
#X obj 62 12 inlet~;
#X obj 112 12 inlet~ a1;
#X obj 182 12 inlet~ a2;
#N canvas 739 258 279 198 location 0;
#X obj 12 12 inlet~;
#X obj 127 12 inlet~;
#X obj 222 49 inlet~;
#X obj 12 155 outlet~;
#X obj 62 155 outlet~;
#X obj 112 155 outlet~;
#X obj 172 155 outlet~;
#N canvas 796 341 183 142 gte 0;
#X obj 117 12 inlet~;
#X obj 12 12 inlet~;
#X obj 12 100 outlet~;
#N canvas 679 326 140 75 @hv_obj 0;
#X obj 72 12 inlet~;
#X obj 12 12 inlet~;
#X obj 12 34 outlet~;
#X connect 1 0 2 0;
#X restore 12 78 pd @hv_obj __and~f;
#X obj 117 56 sig~ 1;
#N canvas 754 439 132 184 @hv_obj 0;
#X obj 12 56 -~;
#X obj 12 78 clip~ -1e-37 0;
#X obj 12 12 inlet~;
#X obj 62 12 inlet~;
#X obj 12 144 outlet~;
#X obj 12 122 *~ 1e+37;
#X obj 12 34 min~;
#X obj 12 100 +~ 1e-37;
#X connect 0 0 1 0;
#X connect 1 0 7 0;
#X connect 2 0 6 0;
#X connect 3 0 6 1;
#X connect 3 0 0 1;
#X connect 5 0 4 0;
#X connect 6 0 0 0;
#X connect 7 0 5 0;
#X restore 12 34 pd @hv_obj __gte~f;
#X connect 0 0 5 1;
#X connect 1 0 5 0;
#X connect 3 0 2 0;
#X connect 4 0 3 1;
#X connect 5 0 3 0;
#X restore 127 39 pd gte;
#N canvas 816 493 187 138 lte 0;
#X obj 117 12 inlet~;
#X obj 12 12 inlet~;
#X obj 12 100 outlet~;
#N canvas 467 216 142 76 @hv_obj 0;
#X obj 72 12 inlet~;
#X obj 12 12 inlet~;
#X obj 12 34 outlet~;
#X connect 1 0 2 0;
#X restore 12 78 pd @hv_obj __and~f;
#X obj 117 56 sig~ 1;
#N canvas 715 101 131 178 @hv_obj 0;
#X obj 12 56 -~;
#X obj 12 78 clip~ -1e-37 0;
#X obj 12 12 inlet~;
#X obj 62 12 inlet~;
#X obj 12 144 outlet~;
#X obj 12 122 *~ 1e+37;
#X obj 12 34 min~;
#X obj 12 100 +~ 1e-37;
#X connect 0 0 1 0;
#X connect 1 0 7 0;
#X connect 2 0 6 0;
#X connect 2 0 0 1;
#X connect 3 0 6 1;
#X connect 5 0 4 0;
#X connect 6 0 0 0;
#X connect 7 0 5 0;
#X restore 12 34 pd @hv_obj __lte~f;
#X connect 0 0 5 1;
#X connect 1 0 5 0;
#X connect 3 0 2 0;
#X connect 4 0 3 1;
#X connect 5 0 3 0;
#X restore 172 39 pd lte;
#X obj 12 83 +~;
#X obj 205 12 sig~ 0;
#X obj 127 66 *~;
#X obj 172 66 *~;
#X obj 112 133 -~;
#X obj 172 133 *~ -1;
#X connect 0 0 9 0;
#X connect 0 0 13 0;
#X connect 1 0 7 0;
#X connect 1 0 8 0;
#X connect 2 0 11 1;
#X connect 2 0 12 1;
#X connect 7 0 11 0;
#X connect 8 0 12 0;
#X connect 9 0 3 0;
#X connect 10 0 7 1;
#X connect 10 0 8 1;
#X connect 11 0 9 1;
#X connect 11 0 13 1;
#X connect 12 0 4 0;
#X connect 12 0 14 0;
#X connect 13 0 5 0;
#X connect 14 0 6 0;
#X restore 34 144 pd location;
#X obj 54 77 *~ 0.5;
#X obj 112 39 *~;
#X obj 112 61 +~;
#X obj 182 44 *~ 4;
#X obj 112 83 abs~;
#X obj 112 127 *~ 0.5;
#X obj 112 105 sqrt~;
#X connect 0 0 1 0;
#X connect 0 1 1 1;
#X connect 1 0 2 0;
#X connect 3 0 0 0;
#X connect 4 0 0 1;
#X connect 5 0 8 0;
#X connect 5 0 9 0;
#X connect 5 0 9 1;
#X connect 6 0 11 0;
#X connect 7 0 0 2;
#X connect 7 1 0 3;
#X connect 7 2 1 2;
#X connect 7 3 1 3;
#X connect 8 0 7 0;
#X connect 9 0 10 0;
#X connect 10 0 7 1;
#X connect 10 0 12 0;
#X connect 11 0 10 1;
#X connect 12 0 14 0;
#X connect 13 0 7 2;
#X connect 14 0 13 0;
#X restore 12 133 pd poles;
#X obj 12 160 outlet~;
#X obj 272 116 *~ -1;
#X obj 332 116 *~ -1;
#X connect 0 0 6 1;
#X connect 0 0 7 1;
#X connect 1 0 6 2;
#X connect 2 0 6 3;
#X connect 3 0 10 0;
#X connect 4 0 11 0;
#X connect 5 0 7 0;
#X connect 6 0 8 0;
#X connect 6 1 8 1;
#X connect 7 0 6 0;
#X connect 8 0 9 0;
#X connect 10 0 8 2;
#X connect 11 0 8 3;
#X restore 12 71 pd @hv_obj biquad;
#X obj 62 12 inlet~ freq;
#X obj 161 12 inlet~ q;
#N canvas 533 23 706 367 lowpass.coeffs 0;
#X obj 137 12 inlet~ freq;
#X obj 298 50 inlet~ q;
#N canvas 78 244 261 257 hz2rad 0;
#X obj 27 56 samplerate~;
#X obj 27 34 loadbang;
#X obj 27 122 atan;
#X msg 27 100 1;
#X obj 27 144 * 8;
#X obj 27 78 t b a;
#X obj 27 166 / 44100;
#X obj 12 188 *~;
#X obj 12 210 outlet~ w(rad);
#X obj 12 12 inlet~ freq(Hz);
#X text 77 166 // 2 * pi / SR;
#X text 107 56 // w = 2 * pi * f / SR;
#X connect 0 0 5 0;
#X connect 1 0 0 0;
#X connect 2 0 4 0;
#X connect 3 0 2 0;
#X connect 4 0 6 0;
#X connect 5 0 3 0;
#X connect 5 1 6 1;
#X connect 6 0 7 1;
#X connect 7 0 8 0;
#X connect 9 0 7 0;
#X restore 137 55 pd hz2rad;
#X obj 137 34 clip~ 20 20000;
#X obj 137 77 /~ 6.28319;
#X obj 137 121 cos~;
#X obj 298 72 clip~ 0.1 100;
#X obj 283 94 sig~ 1;
#X obj 283 116 /~;
#X obj 207 121 cos~;
#X obj 283 138 *~;
#X obj 283 160 *~ 0.5;
#X obj 12 258 sig~ 1;
#X obj 12 280 /~;
#X obj 122 297 *~;
#X obj 137 275 *~ 0.5;
#X obj 122 319 outlet~ b0;
#X obj 192 297 *~;
#X obj 192 319 outlet~ b1;
#X obj 262 297 *~;
#X obj 262 319 outlet~ b2;
#X obj 347 297 *~;
#X obj 362 231 *~ -2;
#X obj 347 319 outlet~ a1;
#X obj 432 231 sig~ 1;
#X obj 432 253 -~;
#X obj 417 297 *~;
#X obj 417 319 outlet~ a2;
#X obj 57 263 +~ 1;
#X text 363 162 w0 = 2*pi*f0*Fs;
#X text 363 182 alpha = sin(w0)/(2*Q);
#X text 527 237 a2 = 1 - alpha;
#X text 527 217 a1 = -2*cos(w0);
#X text 392 72 H(z) = -----------------------------------------;
#X text 392 32 Audio-Cookbook:;
#X text 392 112 http://musicdsp.org/files/Audio-EQ-Cookbook.txt;
#X obj 137 231 sig~ 1;
#X obj 137 253 -~;
#X obj 207 231 sig~ 1;
#X obj 207 253 -~;
#X obj 277 275 *~ 0.5;
#X obj 277 231 sig~ 1;
#X obj 277 253 -~;
#X text 434 87 1 + (a1/a0)*z^(-1) + (a2/a0)*z^(-2);
#X text 434 57 (b0/a0) + (b1/a0)*z^(-1) + (b2/a0)*z^(-2);
#X text 527 197 a0 = 1 + alpha;
#X text 527 257 b0 = (1 - cos(w0))/2;
#X text 527 277 b1 = (1 - cos(w0));
#X text 527 297 b2 = (1 - cos(w0))/2;
#X text 517 177 LPF:;
#X obj 207 99 -~ 0.25;
#X connect 0 0 3 0;
#X connect 1 0 6 0;
#X connect 2 0 4 0;
#X connect 3 0 2 0;
#X connect 4 0 5 0;
#X connect 4 0 50 0;
#X connect 5 0 37 1;
#X connect 5 0 39 1;
#X connect 5 0 42 1;
#X connect 5 0 22 0;
#X connect 6 0 8 1;
#X connect 7 0 8 0;
#X connect 8 0 10 0;
#X connect 9 0 10 1;
#X connect 10 0 11 0;
#X connect 11 0 25 1;
#X connect 11 0 28 0;
#X connect 12 0 13 0;
#X connect 13 0 14 0;
#X connect 13 0 17 0;
#X connect 13 0 19 0;
#X connect 13 0 21 0;
#X connect 13 0 26 0;
#X connect 14 0 16 0;
#X connect 15 0 14 1;
#X connect 17 0 18 0;
#X connect 19 0 20 0;
#X connect 21 0 23 0;
#X connect 22 0 21 1;
#X connect 24 0 25 0;
#X connect 25 0 26 1;
#X connect 26 0 27 0;
#X connect 28 0 13 1;
#X connect 36 0 37 0;
#X connect 37 0 15 0;
#X connect 38 0 39 0;
#X connect 39 0 17 1;
#X connect 40 0 19 1;
#X connect 41 0 42 0;
#X connect 42 0 40 0;
#X connect 50 0 9 0;
#X restore 62 34 pd lowpass.coeffs;
#X obj 12 12 inlet~;
#X connect 1 0 0 0;
#X connect 2 0 4 0;
#X connect 3 0 4 1;
#X connect 4 0 1 1;
#X connect 4 1 1 2;
#X connect 4 2 1 3;
#X connect 4 3 1 4;
#X connect 4 4 1 5;
#X connect 5 0 1 0;
#X restore 12 438 pd lowpass;
#X obj 80 267 r \$0-vel-cym;
#X obj 80 355 pow;
#X msg 80 333 2 \$1;
#X obj 80 377 * 40;
#X msg 80 399 \$1 1;
#X obj 80 421 line~;
#X msg 120 311 1 \$1;
#X obj 120 333 -;
#X msg 120 399 \$1 1;
#X obj 120 421 line~;
#X obj 166 433 *~;
#X obj 295 328 * -9;
#X obj 295 306 pow 2;
#X obj 419 305 +~;
#X obj 419 283 *~ 0.9;
#X obj 476 283 *~ 0.1;
#X obj 476 261 pow~ 1.85;
#X obj 419 261 pow~ 6.7;
#X obj 419 349 *~;
#X obj 351 366 *~;
#X obj 166 349 pow~;
#X obj 268 332 + 1;
#X obj 268 310 * 3;
#X obj 544 156 r \$0-vel-cym;
#X msg 544 178 1 \$1;
#X obj 544 200 -;
#X obj 544 266 + 100;
#X obj 544 288 dbtorms;
#X msg 544 310 \$1 1;
#X obj 544 332 line~;
#X obj 80 289 * 4;
#X obj 80 311 + 5;
#X obj 351 344 hip~ 1000;
#X obj 351 472 clip~ -1 1;
#X obj 12 184 bp~ 3462 0.3;
#X obj 12 394 hip~ 1000;
#X obj 12 416 hip~ 1000;
#X obj 351 388 *~;
#N canvas 0 22 273 194 comb 0;
#X obj 12 11 inlet~;
#X obj 12 119 -~;
#X obj 12 146 outlet~;
#X obj 62 92 *~;
#X obj 148 75 clip~ 0 0.999;
#X obj 148 53 inlet~ feedback;
#X obj 148 26 block~ 1;
#X obj 62 65 vd~ \$0-del-1;
#X obj 62 11 inlet~ delay;
#X obj 78 136 delwrite~ \$0-del-1 100;
#X obj 62 38 min~ 100;
#X connect 0 0 1 0;
#X connect 1 0 2 0;
#X connect 1 0 9 0;
#X connect 3 0 1 1;
#X connect 4 0 3 1;
#X connect 5 0 4 0;
#X connect 7 0 3 0;
#X connect 8 0 10 0;
#X connect 10 0 7 0;
#X restore 436 489 pd comb;
#X obj 455 467 sig~;
#N canvas 0 22 273 194 comb 0;
#X obj 12 11 inlet~;
#X obj 12 119 -~;
#X obj 12 146 outlet~;
#X obj 62 92 *~;
#X obj 148 75 clip~ 0 0.999;
#X obj 148 53 inlet~ feedback;
#X obj 148 26 block~ 1;
#X obj 62 11 inlet~ delay;
#X obj 62 38 min~ 100;
#X obj 78 136 delwrite~ \$0-del-2 100;
#X obj 62 65 vd~ \$0-del-2;
#X connect 0 0 1 0;
#X connect 1 0 2 0;
#X connect 1 0 9 0;
#X connect 3 0 1 1;
#X connect 4 0 3 1;
#X connect 5 0 4 0;
#X connect 7 0 8 0;
#X connect 8 0 10 0;
#X connect 10 0 3 0;
#X restore 496 489 pd comb;
#X obj 515 467 sig~;
#N canvas 0 22 273 194 comb 0;
#X obj 12 11 inlet~;
#X obj 12 119 -~;
#X obj 12 146 outlet~;
#X obj 62 92 *~;
#X obj 148 75 clip~ 0 0.999;
#X obj 148 53 inlet~ feedback;
#X obj 148 26 block~ 1;
#X obj 62 11 inlet~ delay;
#X obj 62 38 min~ 100;
#X obj 78 136 delwrite~ \$0-del-3 100;
#X obj 62 65 vd~ \$0-del-3;
#X connect 0 0 1 0;
#X connect 1 0 2 0;
#X connect 1 0 9 0;
#X connect 3 0 1 1;
#X connect 4 0 3 1;
#X connect 5 0 4 0;
#X connect 7 0 8 0;
#X connect 8 0 10 0;
#X connect 10 0 3 0;
#X restore 556 489 pd comb;
#X obj 575 467 sig~;
#N canvas 0 22 273 194 comb 0;
#X obj 12 11 inlet~;
#X obj 12 119 -~;
#X obj 12 146 outlet~;
#X obj 62 92 *~;
#X obj 148 75 clip~ 0 0.999;
#X obj 148 53 inlet~ feedback;
#X obj 148 26 block~ 1;
#X obj 62 11 inlet~ delay;
#X obj 62 38 min~ 100;
#X obj 78 136 delwrite~ \$0-del-4 100;
#X obj 62 65 vd~ \$0-del-4;
#X connect 0 0 1 0;
#X connect 1 0 2 0;
#X connect 1 0 9 0;
#X connect 3 0 1 1;
#X connect 4 0 3 1;
#X connect 5 0 4 0;
#X connect 7 0 8 0;
#X connect 8 0 10 0;
#X connect 10 0 3 0;
#X restore 616 489 pd comb;
#X obj 635 467 sig~;
#N canvas 0 22 273 194 comb 0;
#X obj 12 11 inlet~;
#X obj 12 119 -~;
#X obj 12 146 outlet~;
#X obj 62 92 *~;
#X obj 148 75 clip~ 0 0.999;
#X obj 148 53 inlet~ feedback;
#X obj 148 26 block~ 1;
#X obj 62 11 inlet~ delay;
#X obj 62 38 min~ 100;
#X obj 78 136 delwrite~ \$0-del-5 100;
#X obj 62 65 vd~ \$0-del-5;
#X connect 0 0 1 0;
#X connect 1 0 2 0;
#X connect 1 0 9 0;
#X connect 3 0 1 1;
#X connect 4 0 3 1;
#X connect 5 0 4 0;
#X connect 7 0 8 0;
#X connect 8 0 10 0;
#X connect 10 0 3 0;
#X restore 676 489 pd comb;
#X obj 695 467 sig~;
#N canvas 0 22 273 194 comb 0;
#X obj 12 11 inlet~;
#X obj 12 119 -~;
#X obj 12 146 outlet~;
#X obj 62 92 *~;
#X obj 148 75 clip~ 0 0.999;
#X obj 148 53 inlet~ feedback;
#X obj 148 26 block~ 1;
#X obj 62 11 inlet~ delay;
#X obj 62 38 min~ 100;
#X obj 78 136 delwrite~ \$0-del-6 100;
#X obj 62 65 vd~ \$0-del-6;
#X connect 0 0 1 0;
#X connect 1 0 2 0;
#X connect 1 0 9 0;
#X connect 3 0 1 1;
#X connect 4 0 3 1;
#X connect 5 0 4 0;
#X connect 7 0 8 0;
#X connect 8 0 10 0;
#X connect 10 0 3 0;
#X restore 736 489 pd comb;
#X obj 736 511 /~ 6;
#X obj 755 467 sig~;
#X msg 807 450 \$1 20;
#X obj 807 472 line~;
#X obj 600 261 / 127;
#X obj 600 283 pow 0.125;
#X obj 600 327 dbtorms;
#X obj 600 371 line~;
#X msg 600 349 \$1 10;
#X obj 600 305 * 91;
#X obj 807 362 / 127;
#X obj 807 406 * 0.099;
#X obj 807 428 + 0.9;
#X obj 807 384 sqrt;
#X obj 351 322 pow~ 8;
#X obj 36 239 / 127;
#X msg 36 283 2 \$1;
#X obj 36 305 pow;
#X obj 36 327 * 500;
#X obj 36 261 * 4;
#X obj 223 90 / 127;
#X obj 223 156 pow;
#X obj 223 68 r \$0-snd-cym-0;
#X msg 223 134 10 \$1;
#X obj 223 112 * 3;
#N canvas 633 38 388 273 hv.vline 0;
#X obj 12 12 inlet;
#X obj 69 116 unpack f f f;
#X obj 69 67 t a b;
#X msg 87 91 0;
#X text 120 92 Default to zero delay if 2 args supplied;
#X obj 12 225 outlet~;
#X obj 12 34 route stop;
#X msg 12 126 stop;
#X obj 12 56 t b b;
#X msg 25 94 clear;
#N canvas 274 138 360 214 dbl-pipe 0;
#X obj 65 42 inlet;
#X obj 125 42 inlet;
#X obj 185 42 inlet;
#X obj 65 84 pipe 0;
#X obj 125 84 pipe 0;
#X obj 65 106 outlet;
#X obj 125 106 outlet;
#X connect 0 0 3 0;
#X connect 0 0 4 0;
#X connect 1 0 4 0;
#X connect 2 0 3 1;
#X connect 2 0 4 1;
#X connect 3 0 5 0;
#X connect 4 0 6 0;
#X restore 69 144 pd dbl-pipe;
#X obj 69 168 pack f f;
#X obj 12 203 line~;
#X connect 0 0 6 0;
#X connect 1 0 10 0;
#X connect 1 1 10 1;
#X connect 1 2 10 2;
#X connect 2 0 1 0;
#X connect 2 1 3 0;
#X connect 3 0 10 2;
#X connect 6 0 8 0;
#X connect 6 1 2 0;
#X connect 7 0 12 0;
#X connect 8 0 7 0;
#X connect 8 1 9 0;
#X connect 9 0 10 0;
#X connect 9 0 10 1;
#X connect 10 0 11 0;
#X connect 10 1 11 1;
#X connect 11 0 12 0;
#X connect 12 0 5 0;
#X restore 166 261 pd hv.vline;
#X obj 223 178 + 2;
#X msg 166 239 1 \$2 \, 0 50 \$3;
#X obj 807 340 r \$0-snd-cym-1;
#X obj 36 217 r \$0-snd-cym-3;
#X obj 600 239 r \$0-snd-cym-2;
#X obj 316 73 / 127;
#X msg 316 139 2 \$1;
#X obj 316 161 pow;
#X obj 316 183 * 20;
#X obj 316 117 + 3;
#X obj 316 95 * 5;
#X obj 316 51 r \$0-snd-cym-1;
#N canvas 633 38 388 273 hv.vline 0;
#X obj 12 12 inlet;
#X obj 69 116 unpack f f f;
#X obj 69 67 t a b;
#X msg 87 91 0;
#X text 120 92 Default to zero delay if 2 args supplied;
#X obj 12 225 outlet~;
#X obj 12 34 route stop;
#X msg 12 126 stop;
#X obj 12 56 t b b;
#X msg 25 94 clear;
#N canvas 274 138 360 214 dbl-pipe 0;
#X obj 65 42 inlet;
#X obj 125 42 inlet;
#X obj 185 42 inlet;
#X obj 65 84 pipe 0;
#X obj 125 84 pipe 0;
#X obj 65 106 outlet;
#X obj 125 106 outlet;
#X connect 0 0 3 0;
#X connect 0 0 4 0;
#X connect 1 0 4 0;
#X connect 2 0 3 1;
#X connect 2 0 4 1;
#X connect 3 0 5 0;
#X connect 4 0 6 0;
#X restore 69 144 pd dbl-pipe;
#X obj 69 168 pack f f;
#X obj 12 203 line~;
#X connect 0 0 6 0;
#X connect 1 0 10 0;
#X connect 1 1 10 1;
#X connect 1 2 10 2;
#X connect 2 0 1 0;
#X connect 2 1 3 0;
#X connect 3 0 10 2;
#X connect 6 0 8 0;
#X connect 6 1 2 0;
#X connect 7 0 12 0;
#X connect 8 0 7 0;
#X connect 8 1 9 0;
#X connect 9 0 10 0;
#X connect 9 0 10 1;
#X connect 10 0 11 0;
#X connect 10 1 11 1;
#X connect 11 0 12 0;
#X connect 12 0 5 0;
#X restore 419 239 pd hv.vline;
#X obj 166 200 pack f f f f;
#X msg 419 217 1 \$2 \, 0 \$4 \$3;
#X msg 863 384 210.2 320.09 379.973 539.95 549.5 799.957;
#X obj 436 528 *~ 0.5;
#X obj 544 244 * -15;
#X obj 544 222 sqrt;
#X obj 120 355 * 3.5;
#X obj 863 406 unpack f f f f f f;
#X obj 863 367 loadbang;
#X msg 455 423 1000 \$1;
#X msg 515 423 1000 \$1;
#X msg 575 423 1000 \$1;
#X msg 635 423 1000 \$1;
#X msg 695 423 1000 \$1;
#X msg 755 423 1000 \$1;
#X obj 616 511 /~ 6;
#X obj 676 511 /~ 6;
#X obj 436 511 /~ 12;
#X obj 556 511 /~ 6;
#X obj 496 511 /~ 6;
#X obj 436 550 outlet~;
#X obj 12 73 sel 0;
#X obj 12 95 t b f;
#X obj 12 117 s \$0-trg-cym;
#X obj 93 112 - 1;
#X obj 93 134 / 126;
#X obj 695 163 route attack decay noise highpass;
#X obj 695 317 clip 0 127;
#X obj 695 339 s \$0-snd-cym-0;
#X obj 743 273 clip 0 127;
#X obj 792 229 clip 0 127;
#X obj 743 295 s \$0-snd-cym-1;
#X obj 792 251 s \$0-snd-cym-2;
#X obj 841 185 clip 0 127;
#X obj 841 207 s \$0-snd-cym-3;
#X obj 925 357 inlet tuning;
#X obj 12 29 inlet trigger/velocity;
#X obj 695 141 inlet parameters;
#X text 455 403 //Hz to ms;
#X text 243 38 //ATTACK;
#X text 80 237 //LPF VEL;
#X text 419 197 //NOISE ENV;
#X text 600 209 //NOISE AMP;
#X text 12 458 //RESONANT LPF;
#X text 346 489 //COMB FILTERS;
#X text 807 320 //DECAY-FEEDBACK;
#X text 448 65 Miguel Moreno 2018;
#X text 12 9 //INLET 1: Trigger/Velocity;
#X text 695 121 //INLET 2: Parameters;
#X text 925 337 //INLET 3: Tuning;
#X text 448 80 Email: mianmogra94@gmail.com;
#X text 544 136 //AMP VEL -15–0 dB;
#X text 316 31 //DECAY 160–5120 ms;
#X text 243 53 //1–1000 ms;
#X text 176 219 //BURST ENV;
#X text 36 201 //HIGHPASS 500–8k Hz;
#X text 80 252 //1280–20k Hz;
#X text 295 220 //AMP VEL -9–0 dB;
#X text 600 224 //-100–-9 dB;
#X text 448 95 GitHub: github.com/MikeMorenoAudio;
#X text 678 50 Facebook: fb.com/MikeMorenoAudio;
#X text 678 65 Youtube: youtube.com/user/Lehjiot;
#X text 678 80 WordPress: mikemorenoaudio.wordpress.com;
#X text 678 95 PatchStorage: patchstorage.com/author/mianmogra;
#X text 448 45 COMB CYMBAL v1;
#X obj 907 124 loadbang;
#X msg 907 146 0 120 64 64;
#X obj 907 168 unpack f f f f;
#X obj 93 156 s \$0-vel-cym;
#X obj 12 51 clip 0 127;
#X connect 0 0 61 0;
#X connect 1 0 42 0;
#X connect 2 0 1 0;
#X connect 3 0 1 1;
#X connect 4 0 3 0;
#X connect 5 0 2 0;
#X connect 6 0 56 0;
#X connect 6 0 85 0;
#X connect 7 0 55 0;
#X connect 8 0 63 0;
#X connect 9 0 65 0;
#X connect 10 0 67 0;
#X connect 11 0 69 0;
#X connect 12 0 72 0;
#X connect 13 0 14 0;
#X connect 14 0 15 0;
#X connect 15 0 34 0;
#X connect 15 0 44 0;
#X connect 16 0 17 0;
#X connect 17 0 18 0;
#X connect 18 0 19 0;
#X connect 19 0 32 1;
#X connect 20 0 110 0;
#X connect 21 0 7 0;
#X connect 22 0 28 0;
#X connect 22 0 52 0;
#X connect 23 0 25 0;
#X connect 24 0 23 0;
#X connect 25 0 26 0;
#X connect 26 0 27 0;
#X connect 27 0 21 1;
#X connect 28 0 29 0;
#X connect 29 0 116 0;
#X connect 30 0 31 0;
#X connect 31 0 21 2;
#X connect 32 0 7 1;
#X connect 33 0 16 0;
#X connect 34 0 33 0;
#X connect 35 0 40 0;
#X connect 36 0 35 0;
#X connect 37 0 35 1;
#X connect 38 0 37 0;
#X connect 39 0 36 0;
#X connect 40 0 41 1;
#X connect 41 0 59 0;
#X connect 42 0 32 0;
#X connect 43 0 42 1;
#X connect 44 0 43 0;
#X connect 45 0 46 0;
#X connect 46 0 47 0;
#X connect 47 0 115 0;
#X connect 48 0 49 0;
#X connect 49 0 50 0;
#X connect 50 0 51 0;
#X connect 51 0 40 1;
#X connect 52 0 53 0;
#X connect 53 0 24 0;
#X connect 54 0 41 0;
#X connect 55 0 60 0;
#X connect 55 0 62 0;
#X connect 55 0 64 0;
#X connect 55 0 66 0;
#X connect 55 0 68 0;
#X connect 55 0 70 0;
#X connect 56 0 57 0;
#X connect 57 0 58 0;
#X connect 58 0 21 0;
#X connect 59 0 55 0;
#X connect 60 0 127 0;
#X connect 61 0 60 1;
#X connect 62 0 129 0;
#X connect 63 0 62 1;
#X connect 64 0 128 0;
#X connect 65 0 64 1;
#X connect 66 0 125 0;
#X connect 67 0 66 1;
#X connect 68 0 126 0;
#X connect 69 0 68 1;
#X connect 70 0 71 0;
#X connect 71 0 113 0;
#X connect 72 0 70 1;
#X connect 73 0 74 0;
#X connect 74 0 70 2;
#X connect 74 0 68 2;
#X connect 74 0 66 2;
#X connect 74 0 64 2;
#X connect 74 0 62 2;
#X connect 74 0 60 2;
#X connect 75 0 76 0;
#X connect 76 0 80 0;
#X connect 77 0 79 0;
#X connect 78 0 59 1;
#X connect 79 0 78 0;
#X connect 80 0 77 0;
#X connect 81 0 84 0;
#X connect 82 0 83 0;
#X connect 83 0 73 0;
#X connect 84 0 82 0;
#X connect 85 0 54 0;
#X connect 86 0 90 0;
#X connect 87 0 88 0;
#X connect 88 0 89 0;
#X connect 89 0 57 1;
#X connect 89 0 54 1;
#X connect 89 0 58 1;
#X connect 90 0 87 0;
#X connect 91 0 95 0;
#X connect 92 0 97 0;
#X connect 92 0 110 1;
#X connect 93 0 91 0;
#X connect 94 0 92 0;
#X connect 95 0 94 0;
#X connect 96 0 5 0;
#X connect 96 0 4 0;
#X connect 97 0 110 2;
#X connect 98 0 96 0;
#X connect 99 0 81 0;
#X connect 100 0 86 0;
#X connect 101 0 75 0;
#X connect 102 0 107 0;
#X connect 103 0 104 0;
#X connect 104 0 105 0;
#X connect 105 0 110 3;
#X connect 106 0 103 0;
#X connect 107 0 106 0;
#X connect 108 0 102 0;
#X connect 109 0 39 0;
#X connect 109 0 38 0;
#X connect 110 0 98 0;
#X connect 110 0 111 0;
#X connect 111 0 109 0;
#X connect 112 0 117 0;
#X connect 113 0 130 0;
#X connect 114 0 48 0;
#X connect 115 0 114 0;
#X connect 116 0 30 0;
#X connect 117 0 119 0;
#X connect 117 1 120 0;
#X connect 117 2 121 0;
#X connect 117 3 122 0;
#X connect 117 4 123 0;
#X connect 117 5 124 0;
#X connect 118 0 112 0;
#X connect 119 0 0 0;
#X connect 120 0 8 0;
#X connect 121 0 9 0;
#X connect 122 0 10 0;
#X connect 123 0 11 0;
#X connect 124 0 12 0;
#X connect 125 0 113 0;
#X connect 126 0 113 0;
#X connect 127 0 113 0;
#X connect 128 0 113 0;
#X connect 129 0 113 0;
#X connect 131 1 132 0;
#X connect 132 0 133 0;
#X connect 132 1 134 0;
#X connect 134 0 135 0;
#X connect 135 0 178 0;
#X connect 136 0 137 0;
#X connect 136 1 139 0;
#X connect 136 2 140 0;
#X connect 136 3 143 0;
#X connect 137 0 138 0;
#X connect 139 0 141 0;
#X connect 140 0 142 0;
#X connect 143 0 144 0;
#X connect 145 0 117 0;
#X connect 146 0 179 0;
#X connect 147 0 136 0;
#X connect 175 0 176 0;
#X connect 176 0 177 0;
#X connect 177 0 137 0;
#X connect 177 1 139 0;
#X connect 177 2 140 0;
#X connect 177 3 143 0;
#X connect 177 3 143 1;
#X connect 179 0 131 0;
