#N canvas 397 105 191 310 10;
#X obj 12 12 inlet~;
#X obj 60 12 inlet~;
#X obj 102 123 samplerate~;
#X msg 75 51 1;
#X obj 75 73 atan;
#X obj 75 96 * 8;
#X obj 12 272 outlet~;
#X obj 45 206 clip~ 0 1;
#X obj 12 228 rpole~;
#X obj 12 250 rzero~ 1;
#X obj 102 34 loadbang;
#X obj 60 118 *~;
#X obj 45 162 sig~ 1;
#X obj 45 184 -~;
#X obj 60 140 /~;
#X connect 0 0 8 0;
#X connect 1 0 11 0;
#X connect 2 0 14 1;
#X connect 3 0 4 0;
#X connect 4 0 5 0;
#X connect 5 0 11 1;
#X connect 7 0 8 1;
#X connect 8 0 9 0;
#X connect 9 0 6 0;
#X connect 10 0 2 0;
#X connect 10 0 3 0;
#X connect 11 0 14 0;
#X connect 12 0 13 0;
#X connect 13 0 7 0;
#X connect 14 0 13 1;
