#N canvas 219 23 814 755 10;
#X obj 62 75 inlet~;
#X text 62 55 in;
#X obj 189 31 inlet;
#X obj 62 163 rpole~;
#X msg 236 168 0.75;
#X obj 236 151 loadbang;
#X msg 236 207 0.75;
#X obj 236 190 loadbang;
#X obj 236 229 loadbang;
#X msg 236 246 0.625;
#X obj 236 268 loadbang;
#X msg 236 285 0.625;
#X obj 434 720 outlet~;
#X obj 384 307 loadbang;
#X obj 62 119 *~;
#X obj 283 429 rpole~;
#X obj 283 407 *~;
#X obj 316 128 inlet;
#X obj 436 417 loadbang;
#X msg 406 434 64.2;
#X obj 604 307 loadbang;
#X obj 503 429 rpole~;
#X obj 503 407 *~;
#X obj 656 417 loadbang;
#X obj 548 280 *~;
#X obj 298 280 *~;
#X obj 503 319 +~;
#X obj 283 319 +~;
#X obj 488 197 inlet;
#X msg 574 324 0.7;
#X obj 294 566 +~;
#X obj 314 588 -~;
#X obj 334 610 +~;
#X obj 354 632 -~;
#X msg 626 434 6.3;
#X obj 374 654 -~;
#X obj 394 676 -~;
#X obj 701 720 outlet~;
#X obj 561 566 +~;
#X obj 581 588 -~;
#X obj 601 610 +~;
#X obj 621 632 -~;
#X obj 641 654 -~;
#X obj 661 676 -~;
#X msg 656 434 41.2;
#X msg 436 434 11.2;
#X msg 354 324 0.7;
#X msg 196 285 9.307;
#X msg 196 246 12.73;
#X msg 196 207 3.595;
#X msg 196 168 4.771;
#X msg 534 324 22.58;
#X msg 384 324 0.1;
#X msg 314 324 30.51;
#X msg 556 434 60.48;
#X msg 336 434 89.24;
#X msg 376 434 0.5;
#X msg 596 434 0.5;
#X msg 604 324 0.07;
#X obj 414 698 *~ 0.125;
#X obj 681 698 *~ 0.125;
#X obj 62 97 *~ 0.5;
#X obj 488 473 *~;
#X obj 268 473 *~;
#X obj 488 241 line~;
#X obj 488 263 clip~ 0 1;
#X obj 189 124 -~ 1;
#X obj 189 146 *~ -1;
#X obj 189 102 clip~ 0 1;
#X obj 189 75 line~;
#X msg 488 219 \$1 1;
#X msg 189 53 \$1 1;
#X obj 294 522 delread~ \$0-dela 8.9;
#X obj 309 544 delread~ \$0-dela 99.8;
#X obj 349 588 delread~ \$0-delc 67;
#X obj 369 610 delread~ \$0-deld 66.8;
#X obj 409 654 delread~ \$0-delf 35.8;
#X obj 561 522 delread~ \$0-deld 11.8;
#X obj 283 363 delwrite~ \$0-dela 200;
#X obj 283 385 delread~ \$0-dela 141.69;
#X obj 503 363 delwrite~ \$0-deld 200;
#X obj 503 385 delread~ \$0-deld 149.62;
#X obj 313 258 delread~ \$0-delf 125;
#X obj 563 258 delread~ \$0-delc 106.28;
#X obj 488 495 delwrite~ \$0-delf 200;
#X obj 576 544 delread~ \$0-deld 121.7;
#X obj 616 588 delread~ \$0-delf 89.7;
#X obj 636 610 delread~ \$0-dela 70.8;
#X obj 676 654 delread~ \$0-delc 4.1;
#X obj 268 495 delwrite~ \$0-delc 200;
#X text 189 11 bandwidth;
#X obj 298 233 *~ -1;
#X obj 298 211 -~ 1;
#X obj 316 194 clip~ 0 1;
#X msg 316 150 \$1 1;
#X obj 316 172 line~;
#X text 316 108 damping;
#X text 488 177 gain;
#N canvas 351 137 158 227 tanh 0;
#X obj 12 12 inlet~;
#X obj 12 34 clip~ -3 3;
#X obj 27 61 *~;
#X obj 12 171 outlet~;
#X obj 82 61 sig~ 27;
#X obj 27 88 +~;
#X obj 27 127 /~;
#X obj 12 149 *~;
#X obj 67 88 *~ 9;
#X obj 67 110 +~;
#X connect 0 0 1 0;
#X connect 1 0 2 0;
#X connect 1 0 2 1;
#X connect 1 0 7 0;
#X connect 2 0 5 0;
#X connect 2 0 8 0;
#X connect 4 0 5 1;
#X connect 4 0 9 1;
#X connect 5 0 6 0;
#X connect 6 0 7 1;
#X connect 7 0 3 0;
#X connect 8 0 9 0;
#X connect 9 0 6 1;
#X restore 548 302 pd tanh;
#X text 424 127 gain 0 to 1;
#X text 424 107 damping 0 to 1;
#X text 424 87 bandwidth 0 to 1;
#N canvas 412 162 241 206 allpass100ms 0;
#X obj 12 31 inlet~;
#X obj 12 92 +~;
#X obj 27 70 *~;
#X obj 102 31 inlet;
#X obj 202 53 inlet;
#X obj 202 75 * -1;
#X obj 187 109 *~;
#X obj 172 131 +~;
#X obj 172 153 outlet~;
#X text 12 173 0 - 100 mSec allpass;
#X text 202 33 gain;
#X text 102 11 time;
#X text 12 11 sound;
#X obj 12 153 delwrite~ \$0-short-1 100;
#X obj 102 53 vd~ \$0-short-1;
#X connect 0 0 1 0;
#X connect 1 0 6 0;
#X connect 1 0 13 0;
#X connect 2 0 1 1;
#X connect 3 0 14 0;
#X connect 4 0 2 1;
#X connect 4 0 5 0;
#X connect 5 0 6 1;
#X connect 6 0 7 1;
#X connect 7 0 8 0;
#X connect 14 0 2 0;
#X connect 14 0 7 0;
#X restore 112 185 pd allpass100ms;
#N canvas 412 162 241 206 allpass100ms 0;
#X obj 12 31 inlet~;
#X obj 12 92 +~;
#X obj 27 70 *~;
#X obj 102 31 inlet;
#X obj 202 53 inlet;
#X obj 202 75 * -1;
#X obj 187 109 *~;
#X obj 172 131 +~;
#X obj 172 153 outlet~;
#X text 12 173 0 - 100 mSec allpass;
#X text 202 33 gain;
#X text 102 11 time;
#X text 12 11 sound;
#X obj 102 53 vd~ \$0-short-2;
#X obj 12 153 delwrite~ \$0-short-2 100;
#X connect 0 0 1 0;
#X connect 1 0 6 0;
#X connect 1 0 14 0;
#X connect 2 0 1 1;
#X connect 3 0 13 0;
#X connect 4 0 2 1;
#X connect 4 0 5 0;
#X connect 5 0 6 1;
#X connect 6 0 7 1;
#X connect 7 0 8 0;
#X connect 13 0 2 0;
#X connect 13 0 7 0;
#X restore 112 224 pd allpass100ms;
#N canvas 412 162 241 206 allpass100ms 0;
#X obj 12 31 inlet~;
#X obj 12 92 +~;
#X obj 27 70 *~;
#X obj 102 31 inlet;
#X obj 202 53 inlet;
#X obj 202 75 * -1;
#X obj 187 109 *~;
#X obj 172 131 +~;
#X obj 172 153 outlet~;
#X text 12 173 0 - 100 mSec allpass;
#X text 202 33 gain;
#X text 102 11 time;
#X text 12 11 sound;
#X obj 12 153 delwrite~ \$0-short-3 100;
#X obj 102 53 vd~ \$0-short-3;
#X connect 0 0 1 0;
#X connect 1 0 6 0;
#X connect 1 0 13 0;
#X connect 2 0 1 1;
#X connect 3 0 14 0;
#X connect 4 0 2 1;
#X connect 4 0 5 0;
#X connect 5 0 6 1;
#X connect 6 0 7 1;
#X connect 7 0 8 0;
#X connect 14 0 2 0;
#X connect 14 0 7 0;
#X restore 112 263 pd allpass100ms;
#N canvas 412 162 241 206 allpass100ms 0;
#X obj 12 31 inlet~;
#X obj 12 92 +~;
#X obj 27 70 *~;
#X obj 102 31 inlet;
#X obj 202 53 inlet;
#X obj 202 75 * -1;
#X obj 187 109 *~;
#X obj 172 131 +~;
#X obj 172 153 outlet~;
#X text 12 173 0 - 100 mSec allpass;
#X text 202 33 gain;
#X text 102 11 time;
#X text 12 11 sound;
#X obj 12 153 delwrite~ \$0-short-4 100;
#X obj 102 53 vd~ \$0-short-4;
#X connect 0 0 1 0;
#X connect 1 0 6 0;
#X connect 1 0 13 0;
#X connect 2 0 1 1;
#X connect 3 0 14 0;
#X connect 4 0 2 1;
#X connect 4 0 5 0;
#X connect 5 0 6 1;
#X connect 6 0 7 1;
#X connect 7 0 8 0;
#X connect 14 0 2 0;
#X connect 14 0 7 0;
#X restore 112 302 pd allpass100ms;
#N canvas 0 22 450 300 modallpass100ms 0;
#X obj 12 31 inlet~;
#X obj 12 158 +~;
#X obj 27 136 *~;
#X obj 67 31 inlet;
#X obj 117 31 inlet;
#X obj 117 158 * -1;
#X obj 187 175 *~;
#X obj 172 197 +~;
#X obj 172 219 outlet~;
#X obj 187 31 inlet;
#X obj 187 53 osc~;
#X obj 172 97 +~;
#X obj 187 75 *~ 0.2;
#X obj 227 31 inlet;
#X obj 227 53 * 2;
#X text 12 239 0 - 100 mSec allpass;
#X text 187 11 freq;
#X text 117 11 gain;
#X text 67 11 time;
#X text 12 11 sound;
#X obj 12 219 delwrite~ \$0-short-5 100;
#X obj 172 119 vd~ \$0-short-5;
#X connect 0 0 1 0;
#X connect 1 0 6 0;
#X connect 1 0 20 0;
#X connect 2 0 1 1;
#X connect 3 0 11 0;
#X connect 4 0 2 1;
#X connect 4 0 5 0;
#X connect 5 0 6 1;
#X connect 6 0 7 1;
#X connect 7 0 8 0;
#X connect 9 0 10 0;
#X connect 10 0 12 0;
#X connect 11 0 21 0;
#X connect 12 0 11 1;
#X connect 13 0 14 0;
#X connect 14 0 12 1;
#X connect 21 0 2 0;
#X connect 21 0 7 0;
#X restore 283 341 pd modallpass100ms;
#N canvas 0 22 450 300 modallpass100ms 0;
#X obj 12 31 inlet~;
#X obj 12 158 +~;
#X obj 27 136 *~;
#X obj 67 31 inlet;
#X obj 117 31 inlet;
#X obj 117 158 * -1;
#X obj 187 175 *~;
#X obj 172 197 +~;
#X obj 172 219 outlet~;
#X obj 187 31 inlet;
#X obj 187 53 osc~;
#X obj 172 97 +~;
#X obj 187 75 *~ 0.2;
#X obj 227 31 inlet;
#X obj 227 53 * 2;
#X text 12 239 0 - 100 mSec allpass;
#X text 187 11 freq;
#X text 117 11 gain;
#X text 67 11 time;
#X text 12 11 sound;
#X obj 172 119 vd~ \$0-short-6;
#X obj 12 219 delwrite~ \$0-short-6 100;
#X connect 0 0 1 0;
#X connect 1 0 6 0;
#X connect 1 0 21 0;
#X connect 2 0 1 1;
#X connect 3 0 11 0;
#X connect 4 0 2 1;
#X connect 4 0 5 0;
#X connect 5 0 6 1;
#X connect 6 0 7 1;
#X connect 7 0 8 0;
#X connect 9 0 10 0;
#X connect 10 0 12 0;
#X connect 11 0 20 0;
#X connect 12 0 11 1;
#X connect 13 0 14 0;
#X connect 14 0 12 1;
#X connect 20 0 2 0;
#X connect 20 0 7 0;
#X restore 503 341 pd modallpass100ms;
#N canvas 0 22 482 228 allpass100ms2tap 0;
#X obj 12 31 inlet~;
#X obj 12 92 +~;
#X obj 27 70 *~;
#X obj 62 31 inlet;
#X obj 202 53 inlet;
#X obj 202 75 * -1;
#X obj 187 109 *~;
#X obj 172 131 +~;
#X obj 172 153 outlet~;
#X obj 223 154 outlet~;
#X obj 223 110 inlet;
#X obj 343 154 outlet~;
#X obj 343 110 inlet;
#X text 12 173 0 - 100 mSec allpass;
#X text 343 90 time;
#X text 223 90 time;
#X text 202 33 gain;
#X text 62 11 time;
#X text 12 11 sound;
#X obj 12 153 delwrite~ \$0-short-7 100;
#X obj 223 132 delread~ \$0-short-7;
#X obj 343 132 delread~ \$0-short-7;
#X obj 62 53 delread~ \$0-short-7;
#X connect 0 0 1 0;
#X connect 1 0 6 0;
#X connect 1 0 19 0;
#X connect 2 0 1 1;
#X connect 3 0 22 0;
#X connect 4 0 2 1;
#X connect 4 0 5 0;
#X connect 5 0 6 1;
#X connect 6 0 7 1;
#X connect 7 0 8 0;
#X connect 10 0 20 0;
#X connect 12 0 21 0;
#X connect 20 0 9 0;
#X connect 21 0 11 0;
#X connect 22 0 2 0;
#X connect 22 0 7 0;
#X restore 283 451 pd allpass100ms2tap;
#N canvas 0 22 482 228 allpass100ms2tap 0;
#X obj 12 31 inlet~;
#X obj 12 92 +~;
#X obj 27 70 *~;
#X obj 62 31 inlet;
#X obj 202 53 inlet;
#X obj 202 75 * -1;
#X obj 187 109 *~;
#X obj 172 131 +~;
#X obj 172 153 outlet~;
#X obj 223 154 outlet~;
#X obj 223 110 inlet;
#X obj 343 154 outlet~;
#X obj 343 110 inlet;
#X text 12 173 0 - 100 mSec allpass;
#X text 343 90 time;
#X text 223 90 time;
#X text 202 33 gain;
#X text 62 11 time;
#X text 12 11 sound;
#X obj 223 132 delread~ \$0-short-8;
#X obj 12 153 delwrite~ \$0-short-8 100;
#X obj 62 53 delread~ \$0-short-8;
#X obj 343 132 delread~ \$0-short-8;
#X connect 0 0 1 0;
#X connect 1 0 6 0;
#X connect 1 0 20 0;
#X connect 2 0 1 1;
#X connect 3 0 21 0;
#X connect 4 0 2 1;
#X connect 4 0 5 0;
#X connect 5 0 6 1;
#X connect 6 0 7 1;
#X connect 7 0 8 0;
#X connect 10 0 19 0;
#X connect 12 0 22 0;
#X connect 19 0 9 0;
#X connect 21 0 2 0;
#X connect 21 0 7 0;
#X connect 22 0 11 0;
#X restore 503 451 pd allpass100ms2tap;
#X text 424 67 from http://tre.ucsd.edu/wordpress/?p=285;
#X connect 0 0 61 0;
#X connect 2 0 71 0;
#X connect 3 0 102 0;
#X connect 4 0 102 2;
#X connect 5 0 4 0;
#X connect 5 0 50 0;
#X connect 6 0 103 2;
#X connect 7 0 6 0;
#X connect 7 0 49 0;
#X connect 8 0 9 0;
#X connect 8 0 48 0;
#X connect 9 0 104 2;
#X connect 10 0 11 0;
#X connect 10 0 47 0;
#X connect 11 0 105 2;
#X connect 13 0 46 0;
#X connect 13 0 53 0;
#X connect 13 0 52 0;
#X connect 14 0 3 0;
#X connect 15 0 108 0;
#X connect 16 0 15 0;
#X connect 17 0 94 0;
#X connect 18 0 56 0;
#X connect 18 0 55 0;
#X connect 18 0 19 0;
#X connect 18 0 45 0;
#X connect 19 0 108 3;
#X connect 20 0 29 0;
#X connect 20 0 51 0;
#X connect 20 0 58 0;
#X connect 21 0 109 0;
#X connect 22 0 21 0;
#X connect 23 0 57 0;
#X connect 23 0 54 0;
#X connect 23 0 34 0;
#X connect 23 0 44 0;
#X connect 24 0 98 0;
#X connect 25 0 27 1;
#X connect 26 0 107 0;
#X connect 27 0 106 0;
#X connect 28 0 70 0;
#X connect 29 0 107 2;
#X connect 30 0 31 0;
#X connect 31 0 32 0;
#X connect 32 0 33 0;
#X connect 33 0 35 0;
#X connect 34 0 109 3;
#X connect 35 0 36 0;
#X connect 36 0 59 0;
#X connect 38 0 39 0;
#X connect 39 0 40 0;
#X connect 40 0 41 0;
#X connect 41 0 42 0;
#X connect 42 0 43 0;
#X connect 43 0 60 0;
#X connect 44 0 109 4;
#X connect 45 0 108 4;
#X connect 46 0 106 2;
#X connect 47 0 105 1;
#X connect 48 0 104 1;
#X connect 49 0 103 1;
#X connect 50 0 102 1;
#X connect 51 0 107 1;
#X connect 52 0 106 3;
#X connect 53 0 106 1;
#X connect 54 0 109 1;
#X connect 55 0 108 1;
#X connect 56 0 108 2;
#X connect 57 0 109 2;
#X connect 58 0 107 3;
#X connect 59 0 12 0;
#X connect 60 0 37 0;
#X connect 61 0 14 0;
#X connect 62 0 84 0;
#X connect 63 0 89 0;
#X connect 64 0 65 0;
#X connect 65 0 24 0;
#X connect 65 0 25 0;
#X connect 65 0 62 0;
#X connect 65 0 63 0;
#X connect 66 0 67 0;
#X connect 67 0 3 1;
#X connect 68 0 14 1;
#X connect 68 0 66 0;
#X connect 69 0 68 0;
#X connect 70 0 64 0;
#X connect 71 0 69 0;
#X connect 72 0 30 0;
#X connect 73 0 30 1;
#X connect 74 0 32 1;
#X connect 75 0 33 1;
#X connect 76 0 36 1;
#X connect 77 0 38 0;
#X connect 79 0 16 0;
#X connect 81 0 22 0;
#X connect 82 0 25 1;
#X connect 83 0 24 1;
#X connect 85 0 38 1;
#X connect 86 0 40 1;
#X connect 87 0 41 1;
#X connect 88 0 43 1;
#X connect 91 0 16 1;
#X connect 91 0 22 1;
#X connect 92 0 91 0;
#X connect 93 0 15 1;
#X connect 93 0 21 1;
#X connect 93 0 92 0;
#X connect 94 0 95 0;
#X connect 95 0 93 0;
#X connect 98 0 26 1;
#X connect 102 0 103 0;
#X connect 103 0 104 0;
#X connect 104 0 105 0;
#X connect 105 0 27 0;
#X connect 105 0 26 0;
#X connect 106 0 78 0;
#X connect 107 0 80 0;
#X connect 108 0 63 1;
#X connect 108 1 31 1;
#X connect 108 2 42 1;
#X connect 109 0 62 1;
#X connect 109 1 35 1;
#X connect 109 2 39 1;
