#N canvas 614 52 1110 936 10;
#X msg 143 487 1 \$1;
#X obj 143 508 -;
#X obj 143 529 *;
#X obj 143 597 +;
#X obj 143 618 *;
#X obj 143 726 +;
#X obj 314 492 f;
#X obj 185 576 *;
#X obj 338 689 +;
#X obj 338 710 *;
#X obj 287 663 /;
#X msg 512 673 1 \$1;
#X obj 512 694 -;
#X obj 302 742 t f f;
#X obj 257 621 -;
#X obj 267 642 *;
#X msg 391 605 1 \$1;
#X obj 391 626 -;
#X obj 391 584 exp;
#X msg 431 605 1 \$1;
#X obj 431 626 -;
#X obj 431 584 exp;
#X obj 431 647 +;
#X obj 473 602 t f f f;
#X obj 230 560 t f f;
#X obj 391 477 *;
#X obj 241 212 unpack f f f;
#X obj 389 383 i;
#X obj 419 383 + 1;
#X msg 404 362 0;
#X obj 314 513 t f f f;
#X obj 473 581 == 0;
#X obj 412 451 t f f f;
#X obj 168 461 t f f b f;
#X obj 241 150 inlet;
#X msg 241 191 \$2 \$1 \$3;
#X obj 302 763 outlet;
#X obj 389 404 outlet;
#X obj 241 171 t a b;
#X obj 275 254 s \$0-value;
#X obj 230 539 r \$0-value;
#N canvas 0 22 191 183 vline 0;
#X obj 12 59 until;
#X obj 44 83 i;
#X obj 74 83 + 1;
#X msg 59 59 0;
#X obj 62 33 t f b f;
#X obj 101 93 - 1;
#X obj 44 109 /;
#X obj 62 12 inlet;
#X obj 44 130 outlet;
#X connect 0 0 1 0;
#X connect 1 0 2 0;
#X connect 1 0 6 0;
#X connect 2 0 1 1;
#X connect 3 0 1 1;
#X connect 4 0 0 0;
#X connect 4 1 3 0;
#X connect 4 2 5 0;
#X connect 5 0 6 1;
#X connect 6 0 8 0;
#X connect 7 0 4 0;
#X restore 168 346 pd vline;
#X obj 168 367 t f b;
#X obj 431 208 del 0;
#X obj 404 250 i;
#X obj 434 250 + 1;
#X obj 404 341 sel 0;
#X msg 431 229 0;
#X obj 404 187 t b b;
#X text 241 130 (I1) List (Value \, Time \, Curve);
#X obj 310 233 s \$0-curve;
#X obj 412 430 r \$0-curve;
#X obj 241 280 t f b;
#X obj 241 301 i;
#X obj 241 322 max 2;
#X connect 0 0 1 0;
#X connect 1 0 2 0;
#X connect 2 0 3 0;
#X connect 3 0 4 0;
#X connect 4 0 5 0;
#X connect 5 0 13 0;
#X connect 6 0 30 0;
#X connect 7 0 3 1;
#X connect 8 0 9 0;
#X connect 9 0 5 1;
#X connect 10 0 8 0;
#X connect 11 0 12 0;
#X connect 12 0 9 1;
#X connect 13 0 36 0;
#X connect 13 1 6 1;
#X connect 14 0 15 0;
#X connect 15 0 10 0;
#X connect 16 0 17 0;
#X connect 17 0 15 1;
#X connect 18 0 16 0;
#X connect 19 0 20 0;
#X connect 20 0 22 0;
#X connect 21 0 19 0;
#X connect 22 0 10 1;
#X connect 23 0 4 1;
#X connect 23 1 22 1;
#X connect 23 2 11 0;
#X connect 24 0 7 1;
#X connect 24 1 14 0;
#X connect 25 0 18 0;
#X connect 26 0 52 0;
#X connect 26 1 39 0;
#X connect 26 2 50 0;
#X connect 27 0 28 0;
#X connect 27 0 37 0;
#X connect 28 0 27 1;
#X connect 29 0 27 1;
#X connect 29 0 6 1;
#X connect 30 0 2 1;
#X connect 30 1 14 1;
#X connect 30 2 8 1;
#X connect 31 0 23 0;
#X connect 32 0 25 1;
#X connect 32 1 21 0;
#X connect 32 2 31 0;
#X connect 33 0 0 0;
#X connect 33 1 7 0;
#X connect 33 2 14 0;
#X connect 33 3 25 0;
#X connect 34 0 38 0;
#X connect 35 0 26 0;
#X connect 38 0 35 0;
#X connect 38 1 48 0;
#X connect 40 0 24 0;
#X connect 41 0 42 0;
#X connect 42 0 33 0;
#X connect 42 1 27 0;
#X connect 43 0 47 0;
#X connect 44 0 45 0;
#X connect 44 0 46 0;
#X connect 45 0 44 1;
#X connect 46 0 29 0;
#X connect 47 0 44 1;
#X connect 48 0 44 0;
#X connect 48 1 43 0;
#X connect 51 0 32 0;
#X connect 52 0 53 0;
#X connect 52 1 6 0;
#X connect 53 0 54 0;
#X connect 54 0 41 0;
#X coords 0 936 1 935 220 101 0;
