#N canvas 251 480 390 383 10;
#X obj 12 31 inlet;
#X obj 69 135 unpack f f f;
#X obj 69 86 t a b;
#X msg 87 110 0;
#X text 120 111 Default to zero delay if 2 args supplied;
#X obj 12 312 line~;
#X obj 12 333 outlet~;
#X obj 12 53 route stop;
#X msg 12 145 stop;
#X obj 12 75 t b b;
#X msg 25 113 clear;
#N canvas 274 138 215 130 dbl-pipe 0;
#X obj 12 12 inlet;
#X obj 72 12 inlet;
#X obj 132 12 inlet;
#X obj 12 54 pipe 0;
#X obj 72 54 pipe 0;
#X obj 12 76 outlet;
#X obj 72 76 outlet;
#X connect 0 0 3 0;
#X connect 0 0 4 0;
#X connect 1 0 4 0;
#X connect 2 0 3 1;
#X connect 2 0 4 1;
#X connect 3 0 5 0;
#X connect 4 0 6 0;
#X restore 69 263 pd dbl-pipe;
#X obj 69 287 pack f f;
#X obj 142 171 / 1.45125;
#X obj 142 213 i;
#X obj 142 234 * 1.45125;
#X obj 142 192 + 0.5;
#X text 12 11 (I1) Value / Time / Delay;
#X text 12 353 (O1) Output;
#X text 185 199 <- Truncate to block size in ms;
#X connect 0 0 7 0;
#X connect 1 0 11 0;
#X connect 1 1 11 1;
#X connect 1 2 13 0;
#X connect 2 0 1 0;
#X connect 2 1 3 0;
#X connect 3 0 11 2;
#X connect 5 0 6 0;
#X connect 7 0 9 0;
#X connect 7 1 2 0;
#X connect 8 0 5 0;
#X connect 9 0 8 0;
#X connect 9 1 10 0;
#X connect 10 0 11 0;
#X connect 10 0 11 1;
#X connect 11 0 12 0;
#X connect 11 1 12 1;
#X connect 12 0 5 0;
#X connect 13 0 16 0;
#X connect 14 0 15 0;
#X connect 15 0 11 2;
#X connect 16 0 14 0;
