#N canvas 734 321 706 619 10;
#X text 47 26 [line~] based replacement for [vline~];
#X text 49 42 Note: This object isn't doing any block boundary calculation
or interpolation \, so the output could be very slightly different
to [vline~];
#X obj 198 275 hv.vline;
#X obj 144 189 bng 15 250 50 0 empty empty empty 17 7 0 10 -262144
-1 -1;
#N canvas 0 22 450 278 (subpatch) 0;
#X array array1 441 float 0;
#X coords 0 1 440 -1 200 140 1;
#X restore 437 251 graph;
#X obj 115 323 tabwrite~ array1;
#X msg 178 214 1 3 \, 0.5 1 3 \, 0 4 4;
#X connect 2 0 5 0;
#X connect 3 0 5 0;
#X connect 3 0 6 0;
#X connect 6 0 2 0;
