#N canvas 608 484 390 231 10;
#X obj 31 162 env~;
#X floatatom 31 207 5 0 0 0 - - -, f 5;
#X floatatom 31 71 5 0 0 0 - - -, f 5;
#X obj 64 113 sig~ 0;
#X obj 31 91 sig~ 0;
#X text 23 14 Signal rate >=~ (greater-then-or-equal-to) operation.
;
#X text 23 30 Outputs 1 if left input is greater than or equal to the
right input \, 0 otherwise.;
#X obj 31 137 hv.gte;
#X obj 31 184 dbtorms;
#X connect 0 0 8 0;
#X connect 2 0 4 0;
#X connect 3 0 7 1;
#X connect 4 0 7 0;
#X connect 7 0 0 0;
#X connect 8 0 1 0;
