#N canvas 450 292 393 356 10;
#X obj 89 31 inlet~;
#X obj 104 52 wrap~;
#X obj 89 83 -~;
#X obj 89 144 tabread~ \$1;
#X obj 194 99 +~ 1;
#X obj 194 145 tabread~ \$1;
#X obj 12 26 loadbang;
#X msg 12 47 1;
#X obj 12 68 -~;
#X obj 179 166 *~;
#X obj 12 160 *~;
#X obj 12 182 +~;
#X obj 12 203 outlet~;
#X text 22 313 https://github.com/porres/pd-else;
#X text 22 298 Live-Electronics-Tutorial > Vol 2 > Part 6 > 24 > 3
> 1;
#X text 22 283 1.Linear.Interpolation;
#X text 12 263 References:;
#X obj 234 87 inlet;
#X msg 234 108 set \$1;
#X text 89 11 in(1): Index;
#X text 234 67 in(2): Set Array;
#X text 12 223 out(1): Output;
#X connect 0 0 1 0;
#X connect 0 0 2 0;
#X connect 1 0 2 1;
#X connect 1 0 8 1;
#X connect 1 0 9 0;
#X connect 2 0 3 0;
#X connect 2 0 4 0;
#X connect 3 0 10 1;
#X connect 4 0 5 0;
#X connect 5 0 9 1;
#X connect 6 0 7 0;
#X connect 7 0 8 0;
#X connect 8 0 10 0;
#X connect 9 0 11 1;
#X connect 10 0 11 0;
#X connect 11 0 12 0;
#X connect 17 0 18 0;
#X connect 18 0 5 0;
#X connect 18 0 3 0;
