#N canvas 668 363 712 364 10;
#X obj 117 100 abs~;
#X obj 102 141 -~;
#X obj 102 163 clip~ 0 1;
#X obj 55 88 loadbang;
#X msg 55 109 1;
#X obj 117 78 -~ 0;
#X obj 12 158 inlet~;
#X obj 12 179 *~;
#X obj 12 205 +~;
#X text 12 138 (I1) Input 1;
#X obj 277 100 abs~;
#X obj 262 141 -~;
#X obj 262 163 clip~ 0 1;
#X obj 215 88 loadbang;
#X msg 215 109 1;
#X obj 172 158 inlet~;
#X obj 172 179 *~;
#X obj 437 100 abs~;
#X obj 422 141 -~;
#X obj 422 163 clip~ 0 1;
#X obj 375 88 loadbang;
#X msg 375 109 1;
#X obj 332 158 inlet~;
#X obj 332 179 *~;
#X obj 597 100 abs~;
#X obj 582 141 -~;
#X obj 582 163 clip~ 0 1;
#X obj 535 88 loadbang;
#X msg 535 109 1;
#X obj 492 158 inlet~;
#X obj 492 179 *~;
#X obj 277 78 -~ 1;
#X obj 437 78 -~ 2;
#X obj 597 78 -~ 3;
#X text 172 138 (I2) Input 2;
#X text 332 138 (I3) Input 3;
#X text 492 138 (I4) Input 4;
#X obj 597 52 clip~ 0 3;
#X obj 597 31 inlet~;
#X text 597 11 (I5) Crossfade;
#X obj 12 226 outlet~;
#X text 12 246 (O1) Crossfade Output;
#X text 12 276 References:;
#X text 22 306 https://mathr.co.uk/blog/2015-02-12_bandlimited_wavetables.html
;
#X text 22 291 Claude Heiland-Allen;
#X connect 0 0 1 1;
#X connect 1 0 2 0;
#X connect 2 0 7 1;
#X connect 3 0 4 0;
#X connect 4 0 1 0;
#X connect 5 0 0 0;
#X connect 6 0 7 0;
#X connect 7 0 8 0;
#X connect 8 0 40 0;
#X connect 10 0 11 1;
#X connect 11 0 12 0;
#X connect 12 0 16 1;
#X connect 13 0 14 0;
#X connect 14 0 11 0;
#X connect 15 0 16 0;
#X connect 16 0 8 1;
#X connect 17 0 18 1;
#X connect 18 0 19 0;
#X connect 19 0 23 1;
#X connect 20 0 21 0;
#X connect 21 0 18 0;
#X connect 22 0 23 0;
#X connect 23 0 8 1;
#X connect 24 0 25 1;
#X connect 25 0 26 0;
#X connect 26 0 30 1;
#X connect 27 0 28 0;
#X connect 28 0 25 0;
#X connect 29 0 30 0;
#X connect 30 0 8 1;
#X connect 31 0 10 0;
#X connect 32 0 17 0;
#X connect 33 0 24 0;
#X connect 37 0 33 0;
#X connect 37 0 5 0;
#X connect 37 0 31 0;
#X connect 37 0 32 0;
#X connect 38 0 37 0;
