#N canvas 1270 223 390 231 10;
#X obj 31 162 env~;
#X floatatom 31 207 5 0 0 0 - - - 0;
#X floatatom 31 71 5 0 0 0 - - - 0;
#X obj 58 113 sig~ 0;
#X obj 31 91 sig~ 0;
#X obj 31 184 dbtorms;
#X text 23 30 Outputs 1 if left input is equal to the right input \, 0 otherwise.;
#X text 23 14 Signal rate ==~ (equals) operation.;
#X obj 31 137 ma.==~;
#X connect 0 0 5 0;
#X connect 2 0 4 0;
#X connect 3 0 8 1;
#X connect 4 0 8 0;
#X connect 5 0 1 0;
#X connect 8 0 0 0;
