#N struct 1187-dial float p1x float p1y float p2x float p2y float c1
float px float py float c float c3 float c4 float w1 float w2 float
w3 float g float g2 float wc float wlc float wlw;
#N struct 1188-dial float p1x float p1y float p2x float p2y float c1
float px float py float c float c3 float c4 float w1 float w2 float
w3 float g float g2 float wc float wlc float wlw;
#N canvas 364 73 1210 775 10;
#X floatatom 56 309 5 0 0 0 - - -;
#X obj 56 39 r params;
#X obj 266 678 s params;
#X msg 266 31 size \$1;
#X floatatom 225 34 5 20 130 0 - - -;
#X msg 266 342 marks \$1;
#X obj 247 344 tgl 15 0 empty empty empty 17 7 0 10 -262144 -1 -1 0
1;
#X msg 266 57 min -127 \, max 127;
#X floatatom 225 86 5 0 999 0 - - -;
#X msg 266 83 ccol \$1;
#X floatatom 225 112 5 0 999 0 - - -;
#X msg 266 109 ncol \$1;
#X floatatom 225 138 5 0 999 0 - - -;
#X msg 266 135 fcol \$1;
#X floatatom 225 164 5 0 999 0 - - -;
#X msg 266 161 bgcol \$1;
#X floatatom 225 190 5 0 999 0 - - -;
#X msg 266 187 bxcol \$1;
#X floatatom 225 215 5 0 20 0 - - -;
#X msg 266 213 nwide \$1;
#X floatatom 225 241 5 0 20 0 - - -;
#X msg 266 239 cbwide \$1;
#X floatatom 225 267 5 0 20 0 - - -;
#X msg 266 265 bbwide \$1;
#X floatatom 225 294 5 -150 150 0 - - -;
#X msg 266 292 nsize \$1;
#X floatatom 225 319 5 -150 150 0 - - -;
#X msg 266 317 ncent \$1;
#X msg 657 107 size 100 \, min \, max \, ccol 860 \, ncol 860 \, fcol
66 \, bgcol 66 \, bxcol 66 \, nwide 9 \, cbwide 9 \, bbwide 17 \, nsize
82 \, ncent 0 \, marks 0 \, gap 0 \, 50;
#X msg 642 58 size 40 \, min \, max \, ccol 900 \, ncol 9 \, fcol 999
\, bgcol 999 \, bxcol 999 \, nwide 9 \, cbwide 9 \, bbwide 1 \, nsize
131 \, ncent -138 \, marks 0 \, gap 0 \, 25;
#X msg 697 204 size 54 \, min \, max \, ccol 92 \, ncol 90 \, fcol
0 \, bgcol 0 \, bxcol 0 \, nwide 1 \, cbwide 1 \, bbwide 1 \, nsize
90 \, ncent 0 \, marks 0 \, gap 0 \, 0;
#X floatatom 626 710 5 0 0 0 - - -;
#X msg 627 9 size 100 \, min \, max \, ccol 900 \, ncol 900 \, fcol
99 \, bgcol 999 \, bxcol 900 \, nwide 5 \, cbwide 5 \, bbwide 1 \,
nsize 75 \, ncent 0 \, marks 1 \, gap 0 \, 0;
#X msg 266 369 gap 3 \, 3;
#X msg 266 409 gap 0 \, 0;
#X msg 266 389 gap 5 \, 5;
#X msg 266 459 wedge \$1;
#X obj 246 460 tgl 15 0 empty empty empty 17 7 0 10 -262144 -1 -1 0
1;
#X msg 266 430 gap 15 \, 15;
#X msg 694 256 size 50 \, min \, max \, ccol 253 \, ncol 90 \, fcol
32 \, bgcol 32 \, bxcol 32 \, nwide 7 \, cbwide 7 \, bbwide 11 \, nsize
90 \, ncent 85 \, marks 0 \, gap 0 \, 0;
#X obj 572 582 gridknob-wip;
#X floatatom 225 488 5 0 999 0 - - -;
#X msg 266 485 wcol \$1;
#X floatatom 225 515 5 0 999 0 - - -;
#X obj 701 537 r params;
#X obj 56 110 gridknob-wip;
#X msg 764 396 size 50 \, min \, max \, ccol 253 \, ncol 90 \, fcol
32 \, bgcol 32 \, bxcol 32 \, nwide 7 \, cbwide 7 \, bbwide 11 \, nsize
95 \, ncent 80 \, marks 0 \, gap 15 \, wcol 32 \, wlcol 32 \, wlw 7
\, 15;
#X msg 739 305 size 90 \, min \, max \, ccol 960 \, ncol 990 \, fcol
45 \, bgcol 960 \, bxcol 999 \, nwide 4 \, cbwide 1 \, bbwide 0 \,
nsize 86 \, ncent -2 \, marks 0 \, gap 5 \, wcol 960 \, wlcol 960 \,
wlw 0 \, 5;
#X msg 672 157 size 100 \, min \, max \, ccol 45 \, ncol 864 \, fcol
69 \, bgcol 57 \, bxcol 766 \, nwide 4 \, cbwide 3 \, bbwide 3 \, nsize
86 \, ncent -1 \, marks 0 \, gap 5 \, wcol 57 \, wlcol 57 \, wlw 0
\, 5;
#X msg 763 451 size 50 \, min \, max \, ccol 253 \, ncol 90 \, fcol
32 \, bgcol 32 \, bxcol 32 \, nwide 7 \, cbwide 9 \, bbwide 11 \, nsize
95 \, ncent 80 \, marks 0 \, gap 8 \, wcol 32 \, wlcol 253 \, wlw 7
\, 8;
#X floatatom 225 541 5 0 20 0 - - -;
#X msg 266 539 wlw \$1;
#X floatatom 166 624 5 0 0 0 - - -;
#X msg 266 512 wlcol \$1;
#X text 399 31 size 20 -130 \; \; \; minimum and maximum range \; \;
circle colour 0-999 \; \; needle colour 0-999 \; \; face colour 0-999
\; \; background colour 0-999 \; \; box border colour 0-999 \; \; needle
width 1-9 \; \; circle width 1-9 \; \; box border width 1-20 \; \;
needle length \; \; needle centre offset \; \; inlet/outlet marks 0-1
\; \; start/end gap 0-20 \; \; \; \; \; \; \; wedge show/hidw 0-1 \;
\; wedge colour 0-999 \; \; wedge border colour 0-999 \; \; wedge border
width 1-20;
#X floatatom 800 552 5 0 0 0 - - -;
#X connect 1 0 45 0;
#X connect 3 0 2 0;
#X connect 4 0 3 0;
#X connect 5 0 2 0;
#X connect 6 0 5 0;
#X connect 7 0 2 0;
#X connect 8 0 9 0;
#X connect 9 0 2 0;
#X connect 10 0 11 0;
#X connect 11 0 2 0;
#X connect 12 0 13 0;
#X connect 13 0 2 0;
#X connect 14 0 15 0;
#X connect 15 0 2 0;
#X connect 16 0 17 0;
#X connect 17 0 2 0;
#X connect 18 0 19 0;
#X connect 19 0 2 0;
#X connect 20 0 21 0;
#X connect 21 0 2 0;
#X connect 22 0 23 0;
#X connect 23 0 2 0;
#X connect 24 0 25 0;
#X connect 25 0 2 0;
#X connect 26 0 27 0;
#X connect 27 0 2 0;
#X connect 28 0 40 0;
#X connect 29 0 40 0;
#X connect 30 0 40 0;
#X connect 32 0 40 0;
#X connect 33 0 2 0;
#X connect 34 0 2 0;
#X connect 35 0 2 0;
#X connect 36 0 2 0;
#X connect 37 0 36 0;
#X connect 38 0 2 0;
#X connect 39 0 40 0;
#X connect 41 0 42 0;
#X connect 42 0 2 0;
#X connect 43 0 53 0;
#X connect 44 0 40 0;
#X connect 46 0 40 0;
#X connect 47 0 40 0;
#X connect 48 0 40 0;
#X connect 49 0 40 0;
#X connect 50 0 51 0;
#X connect 51 0 2 0;
#X connect 52 0 51 0;
#X connect 53 0 2 0;
