#N struct 1031-dial float p1x float p1y float p2x float p2y float c1
float px float py float c2 float c3 float c4 float w1 float w2;
#N canvas 523 59 1397 885 10;
#X obj 302 115 f \$0;
#X obj 302 94 loadbang;
#X msg 412 152 \; pd-\$1-graph clear;
#X msg 336 184 traverse pd-\$1-graph \, bang;
#X obj 718 205 pointer;
#X obj 319 259 t b p;
#X obj 723 695 pack f f f f;
#X obj 723 597 t f f f f;
#X obj 803 648 * 1;
#X obj 843 648 * 1;
#X obj 882 695 r \$0-pointer;
#X obj 346 280 s \$0-pointer;
#X obj 723 716 set \$0-dial p1x p1y p2x p2y;
#X obj 302 136 t b b f f;
#N canvas 117 404 1803 480 huge-template 0;
#X obj 46 52 outlet;
#X text 475 89 background;
#X msg 296 693 drawpolygon -x c w1;
#X obj 33 163 drawpolygon 0 1 px(-100:100)(-100:-100) py(-100:100)(-100:-100)
px(-100:100)(-80:-80) py(-100:100)(-100:-100) px(-100:100)(-80:-80)
py(-100:100)(-80:-80) px(-100:100)(-60:-60) py(-100:100)(-80:-80) px(-100:100)(-60:-60)
py(-100:100)(-100:-100) px(-100:100)(-40:-40) py(-100:100)(-100:-100)
px(-100:100)(-40:-40) py(-100:100)(-80:-80) px(-100:100)(-20:-20) py(-100:100)(-80:-80)
px(-100:100)(-20:-20) py(-100:100)(-100:-100) px(-100:100)(0:0) py(-100:100)(-100:-100)
px(-100:100)(0:0) py(-100:100)(-80:-80) px(-100:100)(20:20) py(-100:100)(-80:-80)
px(-100:100)(20:20) py(-100:100)(-100:-100) px(-100:100)(40:40) py(-100:100)(-100:-100)
px(-100:100)(40:40) py(-100:100)(-80:-80) px(-100:100)(60:60) py(-100:100)(-80:-80)
px(-100:100)(60:60) py(-100:100)(-100:-100) px(-100:100)(80:80) py(-100:100)(-100:-100)
px(-100:100)(80:80) py(-100:100)(-80:-80) px(-100:100)(100:100) py(-100:100)(-80:-80)
, f 23;
#X obj 201 163 drawpolygon 0 1 px(-100:100)(-100:-100) py(-100:100)(-80:-80)
px(-100:100)(-80:-80) py(-100:100)(-80:-80) px(-100:100)(-80:-80) py(-100:100)(-60:-60)
px(-100:100)(-60:-60) py(-100:100)(-60:-60) px(-100:100)(-60:-60) py(-100:100)(-80:-80)
px(-100:100)(-40:-40) py(-100:100)(-80:-80) px(-100:100)(-40:-40) py(-100:100)(-60:-60)
px(-100:100)(-20:-20) py(-100:100)(-60:-60) px(-100:100)(-20:-20) py(-100:100)(-80:-80)
px(-100:100)(0:0) py(-100:100)(-80:-80) px(-100:100)(0:0) py(-100:100)(-60:-60)
px(-100:100)(20:20) py(-100:100)(-60:-60) px(-100:100)(20:20) py(-100:100)(-80:-80)
px(-100:100)(40:40) py(-100:100)(-80:-80) px(-100:100)(40:40) py(-100:100)(-60:-60)
px(-100:100)(60:60) py(-100:100)(-60:-60) px(-100:100)(60:60) py(-100:100)(-80:-80)
px(-100:100)(80:80) py(-100:100)(-80:-80) px(-100:100)(80:80) py(-100:100)(-60:-60)
px(-100:100)(100:100) py(-100:100)(-60:-60), f 23;
#X obj 370 163 drawpolygon 0 1 px(-100:100)(-100:-100) py(-100:100)(-60:-60)
px(-100:100)(-80:-80) py(-100:100)(-60:-60) px(-100:100)(-80:-80) py(-100:100)(-40:-40)
px(-100:100)(-60:-60) py(-100:100)(-40:-40) px(-100:100)(-60:-60) py(-100:100)(-60:-60)
px(-100:100)(-40:-40) py(-100:100)(-60:-60) px(-100:100)(-40:-40) py(-100:100)(-40:-40)
px(-100:100)(-20:-20) py(-100:100)(-40:-40) px(-100:100)(-20:-20) py(-100:100)(-60:-60)
px(-100:100)(0:0) py(-100:100)(-60:-60) px(-100:100)(0:0) py(-100:100)(-40:-40)
px(-100:100)(20:20) py(-100:100)(-40:-40) px(-100:100)(20:20) py(-100:100)(-60:-60)
px(-100:100)(40:40) py(-100:100)(-60:-60) px(-100:100)(40:40) py(-100:100)(-40:-40)
px(-100:100)(60:60) py(-100:100)(-40:-40) px(-100:100)(60:60) py(-100:100)(-60:-60)
px(-100:100)(80:80) py(-100:100)(-60:-60) px(-100:100)(80:80) py(-100:100)(-40:-40)
px(-100:100)(100:100) py(-100:100)(-40:-40), f 23;
#X obj 539 163 drawpolygon 0 1 px(-100:100)(-100:-100) py(-100:100)(-40:-40)
px(-100:100)(-80:-80) py(-100:100)(-40:-40) px(-100:100)(-80:-80) py(-100:100)(-20:-20)
px(-100:100)(-60:-60) py(-100:100)(-20:-20) px(-100:100)(-60:-60) py(-100:100)(-40:-40)
px(-100:100)(-40:-40) py(-100:100)(-40:-40) px(-100:100)(-40:-40) py(-100:100)(-20:-20)
px(-100:100)(-20:-20) py(-100:100)(-20:-20) px(-100:100)(-20:-20) py(-100:100)(-40:-40)
px(-100:100)(0:0) py(-100:100)(-40:-40) px(-100:100)(0:0) py(-100:100)(-20:-20)
px(-100:100)(20:20) py(-100:100)(-20:-20) px(-100:100)(20:20) py(-100:100)(-40:-40)
px(-100:100)(40:40) py(-100:100)(-40:-40) px(-100:100)(40:40) py(-100:100)(-20:-20)
px(-100:100)(60:60) py(-100:100)(-20:-20) px(-100:100)(60:60) py(-100:100)(-40:-40)
px(-100:100)(80:80) py(-100:100)(-40:-40) px(-100:100)(80:80) py(-100:100)(-20:-20)
px(-100:100)(100:100) py(-100:100)(-20:-20), f 23;
#X obj 708 162 drawpolygon 0 1 px(-100:100)(-100:-100) py(-100:100)(-20:-20)
px(-100:100)(-80:-80) py(-100:100)(-20:-20) px(-100:100)(-80:-80) py(-100:100)(-0:-0)
px(-100:100)(-60:-60) py(-100:100)(-0:-0) px(-100:100)(-60:-60) py(-100:100)(-20:-20)
px(-100:100)(-40:-40) py(-100:100)(-20:-20) px(-100:100)(-40:-40) py(-100:100)(-0:-0)
px(-100:100)(-20:-20) py(-100:100)(-0:-0) px(-100:100)(-20:-20) py(-100:100)(-20:-20)
px(-100:100)(0:0) py(-100:100)(-20:-20) px(-100:100)(0:0) py(-100:100)(-0:-0)
px(-100:100)(20:20) py(-100:100)(-0:-0) px(-100:100)(20:20) py(-100:100)(-20:-20)
px(-100:100)(40:40) py(-100:100)(-20:-20) px(-100:100)(40:40) py(-100:100)(-0:-0)
px(-100:100)(60:60) py(-100:100)(-0:-0) px(-100:100)(60:60) py(-100:100)(-20:-20)
px(-100:100)(80:80) py(-100:100)(-20:-20) px(-100:100)(80:80) py(-100:100)(-0:-0)
px(-100:100)(100:100) py(-100:100)(-0:-0), f 23;
#X obj 878 163 drawpolygon 0 1 px(-100:100)(-100:-100) py(-100:100)(0:0)
px(-100:100)(-80:-80) py(-100:100)(0:0) px(-100:100)(-80:-80) py(-100:100)(20:20)
px(-100:100)(-60:-60) py(-100:100)(20:20) px(-100:100)(-60:-60) py(-100:100)(0:0)
px(-100:100)(-40:-40) py(-100:100)(0:0) px(-100:100)(-40:-40) py(-100:100)(20:20)
px(-100:100)(-20:-20) py(-100:100)(20:20) px(-100:100)(-20:-20) py(-100:100)(0:0)
px(-100:100)(0:0) py(-100:100)(0:0) px(-100:100)(0:0) py(-100:100)(20:20)
px(-100:100)(20:20) py(-100:100)(20:20) px(-100:100)(20:20) py(-100:100)(0:0)
px(-100:100)(40:40) py(-100:100)(0:0) px(-100:100)(40:40) py(-100:100)(20:20)
px(-100:100)(60:60) py(-100:100)(20:20) px(-100:100)(60:60) py(-100:100)(0:0)
px(-100:100)(80:80) py(-100:100)(0:0) px(-100:100)(80:80) py(-100:100)(20:20)
px(-100:100)(100:100) py(-100:100)(20:20), f 23;
#X obj 1046 163 drawpolygon 0 1 px(-100:100)(-100:-100) py(-100:100)(20:20)
px(-100:100)(-80:-80) py(-100:100)(20:20) px(-100:100)(-80:-80) py(-100:100)(40:40)
px(-100:100)(-60:-60) py(-100:100)(40:40) px(-100:100)(-60:-60) py(-100:100)(20:20)
px(-100:100)(-40:-40) py(-100:100)(20:20) px(-100:100)(-40:-40) py(-100:100)(40:40)
px(-100:100)(-20:-20) py(-100:100)(40:40) px(-100:100)(-20:-20) py(-100:100)(20:20)
px(-100:100)(0:0) py(-100:100)(20:20) px(-100:100)(0:0) py(-100:100)(40:40)
px(-100:100)(20:20) py(-100:100)(40:40) px(-100:100)(20:20) py(-100:100)(20:20)
px(-100:100)(40:40) py(-100:100)(20:20) px(-100:100)(40:40) py(-100:100)(40:40)
px(-100:100)(60:60) py(-100:100)(40:40) px(-100:100)(60:60) py(-100:100)(20:20)
px(-100:100)(80:80) py(-100:100)(20:20) px(-100:100)(80:80) py(-100:100)(40:40)
px(-100:100)(100:100) py(-100:100)(40:40), f 23;
#X obj 1214 163 drawpolygon 0 1 px(-100:100)(-100:-100) py(-100:100)(40:40)
px(-100:100)(-80:-80) py(-100:100)(40:40) px(-100:100)(-80:-80) py(-100:100)(60:60)
px(-100:100)(-60:-60) py(-100:100)(60:60) px(-100:100)(-60:-60) py(-100:100)(40:40)
px(-100:100)(-40:-40) py(-100:100)(40:40) px(-100:100)(-40:-40) py(-100:100)(60:60)
px(-100:100)(-20:-20) py(-100:100)(60:60) px(-100:100)(-20:-20) py(-100:100)(40:40)
px(-100:100)(0:0) py(-100:100)(40:40) px(-100:100)(0:0) py(-100:100)(60:60)
px(-100:100)(20:20) py(-100:100)(60:60) px(-100:100)(20:20) py(-100:100)(40:40)
px(-100:100)(40:40) py(-100:100)(40:40) px(-100:100)(40:40) py(-100:100)(60:60)
px(-100:100)(60:60) py(-100:100)(60:60) px(-100:100)(60:60) py(-100:100)(40:40)
px(-100:100)(80:80) py(-100:100)(40:40) px(-100:100)(80:80) py(-100:100)(60:60)
px(-100:100)(100:100) py(-100:100)(60:60), f 23;
#X obj 1383 162 drawpolygon 0 1 px(-100:100)(-100:-100) py(-100:100)(60:60)
px(-100:100)(-80:-80) py(-100:100)(60:60) px(-100:100)(-80:-80) py(-100:100)(80:80)
px(-100:100)(-60:-60) py(-100:100)(80:80) px(-100:100)(-60:-60) py(-100:100)(60:60)
px(-100:100)(-40:-40) py(-100:100)(60:60) px(-100:100)(-40:-40) py(-100:100)(80:80)
px(-100:100)(-20:-20) py(-100:100)(80:80) px(-100:100)(-20:-20) py(-100:100)(60:60)
px(-100:100)(0:0) py(-100:100)(60:60) px(-100:100)(0:0) py(-100:100)(80:80)
px(-100:100)(20:20) py(-100:100)(80:80) px(-100:100)(20:20) py(-100:100)(60:60)
px(-100:100)(40:40) py(-100:100)(60:60) px(-100:100)(40:40) py(-100:100)(80:80)
px(-100:100)(60:60) py(-100:100)(80:80) px(-100:100)(60:60) py(-100:100)(60:60)
px(-100:100)(80:80) py(-100:100)(60:60) px(-100:100)(80:80) py(-100:100)(80:80)
px(-100:100)(100:100) py(-100:100)(80:80), f 23;
#X obj 1552 163 drawpolygon 0 1 px(-100:100)(-100:-100) py(-100:100)(80:80)
px(-100:100)(-80:-80) py(-100:100)(80:80) px(-100:100)(-80:-80) py(-100:100)(100:100)
px(-100:100)(-60:-60) py(-100:100)(100:100) px(-100:100)(-60:-60) py(-100:100)(80:80)
px(-100:100)(-40:-40) py(-100:100)(80:80) px(-100:100)(-40:-40) py(-100:100)(100:100)
px(-100:100)(-20:-20) py(-100:100)(100:100) px(-100:100)(-20:-20) py(-100:100)(80:80)
px(-100:100)(0:0) py(-100:100)(80:80) px(-100:100)(0:0) py(-100:100)(100:100)
px(-100:100)(20:20) py(-100:100)(100:100) px(-100:100)(20:20) py(-100:100)(80:80)
px(-100:100)(40:40) py(-100:100)(80:80) px(-100:100)(40:40) py(-100:100)(100:100)
px(-100:100)(60:60) py(-100:100)(100:100) px(-100:100)(60:60) py(-100:100)(80:80)
px(-100:100)(80:80) py(-100:100)(80:80) px(-100:100)(80:80) py(-100:100)(100:100)
px(-100:100)(100:100) py(-100:100)(100:100), f 23;
#X obj 46 20 struct \$0-dial float p1x float p1y float p2x float p2y
float c1 float px float py float c2 float c3 float c4 float w1 float
w2, f 96;
#X obj 65 83 filledpolygon -x c3 c4 w2 -100 -100 100 -100 100 100 -100
100 -100 -100;
#X obj 41 128 drawpolygon -x c1 w1 p1x p1y p2x p2y p1x p1y;
#X obj 451 726 drawpolygon -x c2 w1 px(-100:100)(32.7664:32.7664) py(-100:100)(78.0094:78.0094)
px(-100:100)(37.5253:37.5253) py(-100:100)(75.905:75.905) px(-100:100)(42.1412:42.1412)
py(-100:100)(73.503:73.503) px(-100:100)(46.5953:46.5953) py(-100:100)(70.8132:70.8132)
px(-100:100)(50.8699:50.8699) py(-100:100)(67.8463:67.8463) px(-100:100)(54.9478:54.9478)
py(-100:100)(64.6141:64.6141) px(-100:100)(58.8124:58.8124) py(-100:100)(61.13:61.13)
px(-100:100)(62.4482:62.4482) py(-100:100)(57.4077:57.4077) px(-100:100)(65.8407:65.8407)
py(-100:100)(53.4622:53.4622) px(-100:100)(68.9761:68.9761) py(-100:100)(49.3096:49.3096)
px(-100:100)(71.8418:71.8418) py(-100:100)(44.9665:44.9665) px(-100:100)(74.4263:74.4263)
py(-100:100)(40.4503:40.4503) px(-100:100)(76.7192:76.7192) py(-100:100)(35.7793:35.7793)
px(-100:100)(78.7112:78.7112) py(-100:100)(30.9723:30.9723) px(-100:100)(80.3942:80.3942)
py(-100:100)(26.0487:26.0487) px(-100:100)(81.7617:81.7617) py(-100:100)(21.0282:21.0282)
px(-100:100)(82.8079:82.8079) py(-100:100)(15.9311:15.9311) px(-100:100)(83.5288:83.5288)
py(-100:100)(10.778:10.778) px(-100:100)(83.9214:83.9214) py(-100:100)(5.58936:5.58936)
px(-100:100)(83.9841:83.9841) py(-100:100)(0.386357:0.386357) px(-100:100)(83.7167:83.7167)
py(-100:100)(-4.81015:-4.81015) px(-100:100)(83.1203:83.1203) py(-100:100)(-9.9792:-9.9792)
px(-100:100)(82.1972:82.1972) py(-100:100)(-15.1:-15.1) px(-100:100)(80.9512:80.9512)
py(-100:100)(-20.152:-20.152) px(-100:100)(79.3872:79.3872) py(-100:100)(-25.1148:-25.1148)
px(-100:100)(77.5117:77.5117) py(-100:100)(-29.9685:-29.9685) px(-100:100)(75.3321:75.3321)
py(-100:100)(-34.6933:-34.6933) px(-100:100)(72.8573:72.8573) py(-100:100)(-39.2704:-39.2704)
px(-100:100)(70.0971:70.0971) py(-100:100)(-43.6814:-43.6814) px(-100:100)(67.0627:67.0627)
py(-100:100)(-47.9084:-47.9084) px(-100:100)(63.7663:63.7663) py(-100:100)(-51.9345:-51.9345)
px(-100:100)(60.2212:60.2212) py(-100:100)(-55.7433:-55.7433) px(-100:100)(56.4417:56.4417)
py(-100:100)(-59.3197:-59.3197) px(-100:100)(52.4429:52.4429) py(-100:100)(-62.6491:-62.6491)
px(-100:100)(48.2411:48.2411) py(-100:100)(-65.7183:-65.7183) px(-100:100)(43.853:43.853)
py(-100:100)(-68.5147:-68.5147) px(-100:100)(39.2964:39.2964) py(-100:100)(-71.0272:-71.0272)
px(-100:100)(34.5897:34.5897) py(-100:100)(-73.2457:-73.2457) px(-100:100)(29.7517:29.7517)
py(-100:100)(-75.1611:-75.1611) px(-100:100)(24.802:24.802) py(-100:100)(-76.7659:-76.7659)
px(-100:100)(19.7604:19.7604) py(-100:100)(-78.0535:-78.0535) px(-100:100)(14.6474:14.6474)
py(-100:100)(-79.0188:-79.0188) px(-100:100)(9.48337:9.48337) py(-100:100)(-79.6578:-79.6578)
px(-100:100)(4.28928:4.28928) py(-100:100)(-79.968:-79.968) px(-100:100)(-0.914104:-0.914104)
py(-100:100)(-79.9482:-79.9482) px(-100:100)(-6.10568:-6.10568) py(-100:100)(-79.5984:-79.5984)
px(-100:100)(-11.2647:-11.2647) py(-100:100)(-78.92:-78.92) px(-100:100)(-16.3702:-16.3702)
py(-100:100)(-77.9158:-77.9158) px(-100:100)(-21.4018:-21.4018) py(-100:100)(-76.5898:-76.5898)
px(-100:100)(-26.3392:-26.3392) py(-100:100)(-74.9473:-74.9473) px(-100:100)(-31.1624:-31.1624)
py(-100:100)(-72.995:-72.995) px(-100:100)(-35.8521:-35.8521) py(-100:100)(-70.7408:-70.7408)
px(-100:100)(-40.3894:-40.3894) py(-100:100)(-68.1936:-68.1936) px(-100:100)(-44.756:-44.756)
py(-100:100)(-65.3638:-65.3638) px(-100:100)(-48.9343:-48.9343) py(-100:100)(-62.2627:-62.2627)
px(-100:100)(-52.9076:-52.9076) py(-100:100)(-58.9029:-58.9029) px(-100:100)(-56.6597:-56.6597)
py(-100:100)(-55.2978:-55.2978) px(-100:100)(-60.1757:-60.1757) py(-100:100)(-51.462:-51.462)
px(-100:100)(-63.4413:-63.4413) py(-100:100)(-47.4109:-47.4109) px(-100:100)(-66.4433:-66.4433)
py(-100:100)(-43.1609:-43.1609) px(-100:100)(-69.1698:-69.1698) py(-100:100)(-38.7291:-38.7291)
px(-100:100)(-71.6097:-71.6097) py(-100:100)(-34.1332:-34.1332) px(-100:100)(-73.7532:-73.7532)
py(-100:100)(-29.3919:-29.3919) px(-100:100)(-75.5917:-75.5917) py(-100:100)(-24.5241:-24.5241)
px(-100:100)(-77.1178:-77.1178) py(-100:100)(-19.5495:-19.5495) px(-100:100)(-78.3252:-78.3252)
py(-100:100)(-14.4882:-14.4882) px(-100:100)(-79.2092:-79.2092) py(-100:100)(-9.36042:-9.36042)
px(-100:100)(-79.7663:-79.7663) py(-100:100)(-4.18698:-4.18698) px(-100:100)(-79.994:-79.994)
py(-100:100)(1.01142:1.01142) px(-100:100)(-79.8917:-79.8917) py(-100:100)(6.21379:6.21379)
px(-100:100)(-79.4595:-79.4595) py(-100:100)(11.3992:11.3992) px(-100:100)(-78.6994:-78.6994)
py(-100:100)(16.5468:16.5468) px(-100:100)(-77.6143:-77.6143) py(-100:100)(21.6357:21.6357)
px(-100:100)(-76.2086:-76.2086) py(-100:100)(26.6457:26.6457) px(-100:100)(-74.4881:-74.4881)
py(-100:100)(31.5563:31.5563) px(-100:100)(-72.4595:-72.4595) py(-100:100)(36.348:36.348)
px(-100:100)(-70.1311:-70.1311) py(-100:100)(41.0013:41.0013) px(-100:100)(-67.5123:-67.5123)
py(-100:100)(45.4977:45.4977) px(-100:100)(-64.6135:-64.6135) py(-100:100)(49.8188:49.8188)
px(-100:100)(-61.4465:-61.4465) py(-100:100)(53.9474:53.9474) px(-100:100)(-58.0241:-58.0241)
py(-100:100)(57.8669:57.8669) px(-100:100)(-54.36:-54.36) py(-100:100)(61.5613:61.5613)
px(-100:100)(-50.4689:-50.4689) py(-100:100)(65.016:65.016) px(-100:100)(-46.3665:-46.3665)
py(-100:100)(68.2169:68.2169) px(-100:100)(-42.0694:-42.0694) py(-100:100)(71.1512:71.1512)
px(-100:100)(-37.5949:-37.5949) py(-100:100)(73.807:73.807) px(-100:100)(-32.9609:-32.9609)
py(-100:100)(76.1737:76.1737) px(-100:100)(-28.1861:-28.1861) py(-100:100)(78.2417:78.2417)
;
#X connect 13 0 0 0;
#X restore 479 272 pd huge-template;
#X obj 479 293 unpack s p f;
#X obj 570 697 +;
#X obj 513 315 get \$0-dial py;
#X msg 513 655 0;
#X obj 540 676 t b f;
#X obj 671 11 inlet;
#X obj 723 669 + 2;
#X obj 763 669 + 2;
#X obj 803 669 + 2;
#X obj 843 669 + 2;
#X obj 723 648 * 82;
#X obj 763 648 * 82;
#X obj 923 185 s pd-\$0-graph;
#X obj 923 238 s \$0-base;
#X msg 923 164 donecanvasdialog 1 -1 2 -100 -100 100 100 \$1 \$1 0
0 \, dirty 0;
#X obj 302 73 namecanvas \$0-base;
#N canvas 0 50 450 707 \$0-graph 0;
#X scalar 1031-dial -28.1862 78.2417 1.63188 2.92978 0 0 0 0 999 999
4 0 \;;
#X coords -100 -100 100 100 50 50 2 0 0;
#X restore 10 10 pd \$0-graph;
#X obj 513 357 t f f;
#X obj 622 420 f;
#X obj 622 399 t f b;
#X obj 595 378 t f f;
#X obj 595 441 -;
#X obj 595 461 t f f;
#X obj 585 503 sel 0;
#X obj 585 550 spigot;
#X msg 585 524 0;
#X obj 595 482 t f f;
#X msg 622 524 1;
#X obj 585 676 i;
#X obj 513 634 t b b;
#X obj 585 571 / 2;
#X obj 655 555 /;
#X msg 655 534 200 \$1;
#X obj 585 592 t f f;
#X obj 612 634 - 0.5;
#X obj 612 613 > 0;
#X obj 585 655 +;
#X obj 779 497 loadbang;
#X obj 779 539 atan;
#X msg 779 518 1;
#X obj 779 560 * 8;
#X obj 723 576 *;
#X msg 923 205 donecanvasdialog 1 -1 2 -100 -100 100 100 \$1 \$1 10
10 \, dirty 0;
#N canvas 360 182 213 566 compute-coordinates 0;
#X obj 39 97 until;
#X obj 68 144 + 1;
#X obj 39 54 t b b;
#X msg 54 118 0;
#X obj 12 537 print;
#X obj 39 207 * 6.28318;
#X obj 39 228 t f f;
#X obj 39 495 list append;
#X obj 12 516 list;
#X obj 12 11 bng 15 250 50 0 empty empty empty 17 7 0 10 -262144 -1
-1;
#X obj 102 516 list;
#X msg 102 474 bang;
#X obj 39 300 cos;
#X obj 79 300 sin;
#X obj 39 165 / 99;
#X obj 126 316 % 2;
#X obj 126 337 sel 0 1;
#X msg 126 358 py;
#X msg 156 358 px;
#X obj 39 432 pack f s;
#X obj 126 416 symbol;
#X msg 39 453 \$2(-100:100)(\$1:\$1);
#X obj 155 295 + 1;
#X msg 141 269 0;
#X obj 79 249 t f b;
#X obj 39 249 t f b;
#X obj 39 144 i;
#X obj 126 295 i;
#X obj 12 31 t b b;
#X obj 39 411 + 2;
#X obj 39 390 * 82;
#X msg 39 76 88;
#X obj 39 186 + 0.31;
#X connect 0 0 26 0;
#X connect 1 0 26 1;
#X connect 2 0 31 0;
#X connect 2 1 3 0;
#X connect 2 1 11 0;
#X connect 2 1 23 0;
#X connect 3 0 26 1;
#X connect 5 0 6 0;
#X connect 6 0 25 0;
#X connect 6 1 24 0;
#X connect 7 0 8 1;
#X connect 7 0 10 0;
#X connect 8 0 4 0;
#X connect 9 0 28 0;
#X connect 10 0 7 1;
#X connect 11 0 7 1;
#X connect 12 0 30 0;
#X connect 13 0 30 0;
#X connect 14 0 32 0;
#X connect 15 0 16 0;
#X connect 16 0 17 0;
#X connect 16 1 18 0;
#X connect 17 0 20 0;
#X connect 18 0 20 0;
#X connect 19 0 21 0;
#X connect 20 0 19 1;
#X connect 21 0 7 0;
#X connect 22 0 27 1;
#X connect 23 0 27 1;
#X connect 24 0 13 0;
#X connect 24 1 27 0;
#X connect 25 0 12 0;
#X connect 25 1 27 0;
#X connect 26 0 1 0;
#X connect 26 0 14 0;
#X connect 27 0 22 0;
#X connect 27 0 15 0;
#X connect 28 0 8 0;
#X connect 28 1 2 0;
#X connect 29 0 19 0;
#X connect 30 0 29 0;
#X connect 31 0 0 0;
#X connect 32 0 5 0;
#X restore 302 51 pd compute-coordinates;
#X obj 570 718 clip 0 127;
#X obj 723 513 / 127;
#X obj 513 336 * -1;
#X obj 723 626 cos;
#X obj 803 626 cos;
#X obj 763 626 sin;
#X obj 843 626 sin;
#X obj 570 769 outlet;
#X obj 220 801 r \$0-pointer;
#X obj 996 410 savestate;
#X obj 1047 431 f;
#X obj 319 322 s \$0-upd;
#X obj 1062 410 r \$0-val;
#X obj 1023 473 f \$1;
#X obj 1070 349 r \$0-siz;
#X obj 503 681 r \$0-inp;
#X obj 855 55 s \$0-inp;
#X obj 540 697 i;
#X obj 996 431 t a b;
#X obj 671 53 s \$0-siz;
#X obj 923 143 r \$0-siz;
#X obj 1023 494 v \$0-siz;
#X obj 717 75 unpack f f f f;
#X obj 771 118 s \$0-c3;
#X obj 798 97 s \$0-c4;
#X obj 1164 349 r \$0-c4;
#X obj 975 557 unpack f f f f f f f;
#X obj 723 555 + 0.31;
#X obj 723 534 * 0.88;
#X obj 975 536 list;
#X obj 975 515 r \$0-upd;
#X obj 165 542 r \$0-c3;
#X obj 225 542 r \$0-c4;
#X obj 105 563 t b f;
#X obj 165 563 t b f;
#X obj 225 563 t b f;
#X obj 580 739 s \$0-val;
#X obj 975 578 v \$0-val;
#X obj 319 301 del 2;
#X obj 55 821 set \$0-dial c1 c2 c3 c4 w1 w2;
#X obj 55 542 r \$0-c1;
#X obj 105 542 r \$0-c2;
#X obj 319 226 append \$0-dial p1x p1y p2x p2y c1 px py c2 c3 c4 w1
w2, f 67;
#X obj 717 160 s \$0-c1;
#X obj 744 139 s \$0-c2;
#X obj 1093 370 r \$0-c1;
#X obj 1117 391 r \$0-c2;
#X obj 1140 411 r \$0-c3;
#X obj 994 599 sel 0;
#X obj 1164 370 + 1;
#X obj 1093 391 + 1;
#X obj 1117 412 + 1;
#X obj 1140 432 + 1;
#X msg 319 205 1 1;
#X obj 421 700 loadbang;
#X obj 1014 666 sel 0;
#X obj 1041 687 - 1;
#X obj 1041 708 s \$0-c1;
#X obj 1033 729 sel 0;
#X obj 1060 750 - 1;
#X obj 1060 771 s \$0-c2;
#X obj 1066 666 sel 0;
#X obj 1093 687 - 1;
#X obj 1084 729 sel 0;
#X obj 1111 750 - 1;
#X obj 1093 708 s \$0-c3;
#X obj 1111 771 s \$0-c4;
#X obj 421 721 t b b;
#X obj 655 513 r \$0-siz;
#X obj 1021 641 s \$0-siz;
#X obj 1035 37 loadbang;
#X obj 1035 58 f \$1;
#X obj 1062 121 s \$0-siz;
#X obj 842 520 loadbang;
#X msg 842 541 0;
#X obj 1035 79 sel 0;
#X msg 1035 100 50;
#X obj 671 32 route size color width;
#X obj 1047 452 pack f f f f f f f, f 24;
#X obj 1188 411 r \$0-wid;
#X obj 285 542 r \$0-c4;
#X obj 285 563 t b f;
#X obj 1100 604 s \$0-wid;
#X obj 421 763 unpack f f f f f;
#X msg 421 742 0 0 999 999 4;
#X obj 355 713 t b f;
#X obj 1097 584 sel 0;
#X obj 355 692 r \$0-wid;
#X obj 757 54 s \$0-wid;
#X floatatom 845 64 5 0 0 0 - - -;
#X obj 55 719 pack f f f f f;
#X text 73 394 GridKnob mod from https://forum.pdpatchrepo.info/topic/10838/no-mouse-external-some-success
;
#X connect 0 0 13 0;
#X connect 1 0 0 0;
#X connect 3 0 4 0;
#X connect 4 0 101 12;
#X connect 5 0 97 0;
#X connect 5 1 11 0;
#X connect 6 0 12 0;
#X connect 7 0 62 0;
#X connect 7 1 64 0;
#X connect 7 2 63 0;
#X connect 7 3 65 0;
#X connect 8 0 23 0;
#X connect 9 0 24 0;
#X connect 10 0 12 4;
#X connect 13 1 112 0;
#X connect 13 2 3 0;
#X connect 13 3 2 0;
#X connect 14 0 15 0;
#X connect 15 1 17 0;
#X connect 16 0 59 0;
#X connect 17 0 61 0;
#X connect 18 0 19 0;
#X connect 19 0 76 0;
#X connect 19 1 16 1;
#X connect 20 0 136 0;
#X connect 21 0 6 0;
#X connect 22 0 6 1;
#X connect 23 0 6 2;
#X connect 24 0 6 3;
#X connect 25 0 21 0;
#X connect 26 0 22 0;
#X connect 29 0 27 0;
#X connect 32 0 44 0;
#X connect 32 1 35 0;
#X connect 33 0 36 1;
#X connect 34 0 33 1;
#X connect 34 1 33 0;
#X connect 35 0 36 0;
#X connect 35 1 34 0;
#X connect 36 0 37 0;
#X connect 37 0 41 0;
#X connect 37 1 39 0;
#X connect 38 0 40 0;
#X connect 39 0 45 0;
#X connect 40 0 39 1;
#X connect 41 0 38 0;
#X connect 41 1 42 0;
#X connect 42 0 39 1;
#X connect 43 0 16 1;
#X connect 44 0 18 0;
#X connect 44 1 76 0;
#X connect 45 0 48 0;
#X connect 46 0 45 1;
#X connect 47 0 46 0;
#X connect 48 0 51 0;
#X connect 48 1 50 0;
#X connect 49 0 51 1;
#X connect 50 0 49 0;
#X connect 51 0 43 0;
#X connect 52 0 54 0;
#X connect 53 0 55 0;
#X connect 54 0 53 0;
#X connect 55 0 56 1;
#X connect 56 0 7 0;
#X connect 57 0 28 0;
#X connect 59 0 66 0;
#X connect 59 0 60 0;
#X connect 59 0 76 1;
#X connect 59 0 95 0;
#X connect 60 0 87 0;
#X connect 61 0 32 0;
#X connect 62 0 25 0;
#X connect 63 0 8 0;
#X connect 64 0 26 0;
#X connect 65 0 9 0;
#X connect 67 0 98 6;
#X connect 68 0 77 0;
#X connect 68 1 69 0;
#X connect 69 0 137 0;
#X connect 71 0 69 1;
#X connect 72 0 80 0;
#X connect 73 0 137 1;
#X connect 74 0 76 0;
#X connect 76 0 16 0;
#X connect 77 0 88 1;
#X connect 77 1 72 0;
#X connect 79 0 29 0;
#X connect 79 0 57 0;
#X connect 81 0 102 0;
#X connect 81 1 103 0;
#X connect 81 2 82 0;
#X connect 81 3 83 0;
#X connect 84 0 108 0;
#X connect 85 0 96 0;
#X connect 85 0 76 0;
#X connect 85 1 107 0;
#X connect 85 2 114 0;
#X connect 85 3 117 0;
#X connect 85 4 120 0;
#X connect 85 5 122 0;
#X connect 85 6 145 0;
#X connect 86 0 56 0;
#X connect 87 0 86 0;
#X connect 88 0 85 0;
#X connect 89 0 88 0;
#X connect 90 0 93 0;
#X connect 91 0 94 0;
#X connect 92 0 149 0;
#X connect 92 1 149 1;
#X connect 93 0 149 0;
#X connect 93 1 149 2;
#X connect 94 0 149 0;
#X connect 94 1 149 3;
#X connect 97 0 70 0;
#X connect 99 0 149 0;
#X connect 100 0 92 0;
#X connect 101 0 5 0;
#X connect 104 0 109 0;
#X connect 105 0 110 0;
#X connect 106 0 111 0;
#X connect 107 1 128 0;
#X connect 108 0 137 5;
#X connect 109 0 137 2;
#X connect 110 0 137 3;
#X connect 111 0 137 4;
#X connect 112 0 101 0;
#X connect 113 0 126 0;
#X connect 114 1 115 0;
#X connect 115 0 116 0;
#X connect 117 1 118 0;
#X connect 118 0 119 0;
#X connect 120 1 121 0;
#X connect 121 0 124 0;
#X connect 122 1 123 0;
#X connect 123 0 125 0;
#X connect 126 0 143 0;
#X connect 127 0 47 0;
#X connect 129 0 130 0;
#X connect 130 0 134 0;
#X connect 132 0 133 0;
#X connect 133 0 87 0;
#X connect 134 0 135 0;
#X connect 134 1 131 0;
#X connect 135 0 131 0;
#X connect 136 0 78 0;
#X connect 136 1 81 0;
#X connect 136 2 147 0;
#X connect 136 2 148 0;
#X connect 136 3 75 0;
#X connect 137 0 68 0;
#X connect 138 0 137 6;
#X connect 139 0 140 0;
#X connect 142 0 149 0;
#X connect 142 1 149 1;
#X connect 142 2 149 2;
#X connect 142 3 149 3;
#X connect 142 4 149 4;
#X connect 143 0 142 0;
#X connect 144 0 149 0;
#X connect 144 1 149 4;
#X connect 145 1 141 0;
#X connect 146 0 144 0;
#X connect 149 0 98 0;
#X coords -100 -100 100 100 50 50 2 10 10;
