#N struct 1311-dial float p1x float p1y float p2x float p2y float c1
float px float py float c float c3 float c4 float w1 float w2;
#N canvas 498 180 1187 818 10;
#X obj 302 115 f \$0;
#X obj 302 94 loadbang;
#X msg 412 152 \; pd-\$1-graph clear;
#X msg 336 184 traverse pd-\$1-graph \, bang;
#X obj 718 205 pointer;
#X obj 319 259 t b p;
#X obj 723 695 pack f f f f;
#X obj 723 597 t f f f f;
#X obj 803 648 * 1;
#X obj 843 648 * 1;
#X obj 882 695 r \$0-pointer;
#X obj 346 280 s \$0-pointer;
#X obj 723 716 set \$0-dial p1x p1y p2x p2y;
#X obj 302 136 t b b f f;
#N canvas 117 404 1803 480 huge-template 0;
#X obj 46 52 outlet;
#X text 475 89 background;
#X obj 33 163 drawpolygon c 1 px(-100:100)(-100:-100) py(-100:100)(-100:-100)
px(-100:100)(-80:-80) py(-100:100)(-100:-100) px(-100:100)(-80:-80)
py(-100:100)(-80:-80) px(-100:100)(-60:-60) py(-100:100)(-80:-80) px(-100:100)(-60:-60)
py(-100:100)(-100:-100) px(-100:100)(-40:-40) py(-100:100)(-100:-100)
px(-100:100)(-40:-40) py(-100:100)(-80:-80) px(-100:100)(-20:-20) py(-100:100)(-80:-80)
px(-100:100)(-20:-20) py(-100:100)(-100:-100) px(-100:100)(0:0) py(-100:100)(-100:-100)
px(-100:100)(0:0) py(-100:100)(-80:-80) px(-100:100)(20:20) py(-100:100)(-80:-80)
px(-100:100)(20:20) py(-100:100)(-100:-100) px(-100:100)(40:40) py(-100:100)(-100:-100)
px(-100:100)(40:40) py(-100:100)(-80:-80) px(-100:100)(60:60) py(-100:100)(-80:-80)
px(-100:100)(60:60) py(-100:100)(-100:-100) px(-100:100)(80:80) py(-100:100)(-100:-100)
px(-100:100)(80:80) py(-100:100)(-80:-80) px(-100:100)(100:100) py(-100:100)(-80:-80)
, f 23;
#X obj 201 163 drawpolygon c 1 px(-100:100)(-100:-100) py(-100:100)(-80:-80)
px(-100:100)(-80:-80) py(-100:100)(-80:-80) px(-100:100)(-80:-80) py(-100:100)(-60:-60)
px(-100:100)(-60:-60) py(-100:100)(-60:-60) px(-100:100)(-60:-60) py(-100:100)(-80:-80)
px(-100:100)(-40:-40) py(-100:100)(-80:-80) px(-100:100)(-40:-40) py(-100:100)(-60:-60)
px(-100:100)(-20:-20) py(-100:100)(-60:-60) px(-100:100)(-20:-20) py(-100:100)(-80:-80)
px(-100:100)(0:0) py(-100:100)(-80:-80) px(-100:100)(0:0) py(-100:100)(-60:-60)
px(-100:100)(20:20) py(-100:100)(-60:-60) px(-100:100)(20:20) py(-100:100)(-80:-80)
px(-100:100)(40:40) py(-100:100)(-80:-80) px(-100:100)(40:40) py(-100:100)(-60:-60)
px(-100:100)(60:60) py(-100:100)(-60:-60) px(-100:100)(60:60) py(-100:100)(-80:-80)
px(-100:100)(80:80) py(-100:100)(-80:-80) px(-100:100)(80:80) py(-100:100)(-60:-60)
px(-100:100)(100:100) py(-100:100)(-60:-60), f 23;
#X obj 370 163 drawpolygon c 1 px(-100:100)(-100:-100) py(-100:100)(-60:-60)
px(-100:100)(-80:-80) py(-100:100)(-60:-60) px(-100:100)(-80:-80) py(-100:100)(-40:-40)
px(-100:100)(-60:-60) py(-100:100)(-40:-40) px(-100:100)(-60:-60) py(-100:100)(-60:-60)
px(-100:100)(-40:-40) py(-100:100)(-60:-60) px(-100:100)(-40:-40) py(-100:100)(-40:-40)
px(-100:100)(-20:-20) py(-100:100)(-40:-40) px(-100:100)(-20:-20) py(-100:100)(-60:-60)
px(-100:100)(0:0) py(-100:100)(-60:-60) px(-100:100)(0:0) py(-100:100)(-40:-40)
px(-100:100)(20:20) py(-100:100)(-40:-40) px(-100:100)(20:20) py(-100:100)(-60:-60)
px(-100:100)(40:40) py(-100:100)(-60:-60) px(-100:100)(40:40) py(-100:100)(-40:-40)
px(-100:100)(60:60) py(-100:100)(-40:-40) px(-100:100)(60:60) py(-100:100)(-60:-60)
px(-100:100)(80:80) py(-100:100)(-60:-60) px(-100:100)(80:80) py(-100:100)(-40:-40)
px(-100:100)(100:100) py(-100:100)(-40:-40), f 23;
#X obj 539 163 drawpolygon c 1 px(-100:100)(-100:-100) py(-100:100)(-40:-40)
px(-100:100)(-80:-80) py(-100:100)(-40:-40) px(-100:100)(-80:-80) py(-100:100)(-20:-20)
px(-100:100)(-60:-60) py(-100:100)(-20:-20) px(-100:100)(-60:-60) py(-100:100)(-40:-40)
px(-100:100)(-40:-40) py(-100:100)(-40:-40) px(-100:100)(-40:-40) py(-100:100)(-20:-20)
px(-100:100)(-20:-20) py(-100:100)(-20:-20) px(-100:100)(-20:-20) py(-100:100)(-40:-40)
px(-100:100)(0:0) py(-100:100)(-40:-40) px(-100:100)(0:0) py(-100:100)(-20:-20)
px(-100:100)(20:20) py(-100:100)(-20:-20) px(-100:100)(20:20) py(-100:100)(-40:-40)
px(-100:100)(40:40) py(-100:100)(-40:-40) px(-100:100)(40:40) py(-100:100)(-20:-20)
px(-100:100)(60:60) py(-100:100)(-20:-20) px(-100:100)(60:60) py(-100:100)(-40:-40)
px(-100:100)(80:80) py(-100:100)(-40:-40) px(-100:100)(80:80) py(-100:100)(-20:-20)
px(-100:100)(100:100) py(-100:100)(-20:-20), f 23;
#X obj 708 162 drawpolygon c 1 px(-100:100)(-100:-100) py(-100:100)(-20:-20)
px(-100:100)(-80:-80) py(-100:100)(-20:-20) px(-100:100)(-80:-80) py(-100:100)(-0:-0)
px(-100:100)(-60:-60) py(-100:100)(-0:-0) px(-100:100)(-60:-60) py(-100:100)(-20:-20)
px(-100:100)(-40:-40) py(-100:100)(-20:-20) px(-100:100)(-40:-40) py(-100:100)(-0:-0)
px(-100:100)(-20:-20) py(-100:100)(-0:-0) px(-100:100)(-20:-20) py(-100:100)(-20:-20)
px(-100:100)(0:0) py(-100:100)(-20:-20) px(-100:100)(0:0) py(-100:100)(-0:-0)
px(-100:100)(20:20) py(-100:100)(-0:-0) px(-100:100)(20:20) py(-100:100)(-20:-20)
px(-100:100)(40:40) py(-100:100)(-20:-20) px(-100:100)(40:40) py(-100:100)(-0:-0)
px(-100:100)(60:60) py(-100:100)(-0:-0) px(-100:100)(60:60) py(-100:100)(-20:-20)
px(-100:100)(80:80) py(-100:100)(-20:-20) px(-100:100)(80:80) py(-100:100)(-0:-0)
px(-100:100)(100:100) py(-100:100)(-0:-0), f 23;
#X obj 878 163 drawpolygon c 1 px(-100:100)(-100:-100) py(-100:100)(0:0)
px(-100:100)(-80:-80) py(-100:100)(0:0) px(-100:100)(-80:-80) py(-100:100)(20:20)
px(-100:100)(-60:-60) py(-100:100)(20:20) px(-100:100)(-60:-60) py(-100:100)(0:0)
px(-100:100)(-40:-40) py(-100:100)(0:0) px(-100:100)(-40:-40) py(-100:100)(20:20)
px(-100:100)(-20:-20) py(-100:100)(20:20) px(-100:100)(-20:-20) py(-100:100)(0:0)
px(-100:100)(0:0) py(-100:100)(0:0) px(-100:100)(0:0) py(-100:100)(20:20)
px(-100:100)(20:20) py(-100:100)(20:20) px(-100:100)(20:20) py(-100:100)(0:0)
px(-100:100)(40:40) py(-100:100)(0:0) px(-100:100)(40:40) py(-100:100)(20:20)
px(-100:100)(60:60) py(-100:100)(20:20) px(-100:100)(60:60) py(-100:100)(0:0)
px(-100:100)(80:80) py(-100:100)(0:0) px(-100:100)(80:80) py(-100:100)(20:20)
px(-100:100)(100:100) py(-100:100)(20:20), f 23;
#X obj 1046 163 drawpolygon c 1 px(-100:100)(-100:-100) py(-100:100)(20:20)
px(-100:100)(-80:-80) py(-100:100)(20:20) px(-100:100)(-80:-80) py(-100:100)(40:40)
px(-100:100)(-60:-60) py(-100:100)(40:40) px(-100:100)(-60:-60) py(-100:100)(20:20)
px(-100:100)(-40:-40) py(-100:100)(20:20) px(-100:100)(-40:-40) py(-100:100)(40:40)
px(-100:100)(-20:-20) py(-100:100)(40:40) px(-100:100)(-20:-20) py(-100:100)(20:20)
px(-100:100)(0:0) py(-100:100)(20:20) px(-100:100)(0:0) py(-100:100)(40:40)
px(-100:100)(20:20) py(-100:100)(40:40) px(-100:100)(20:20) py(-100:100)(20:20)
px(-100:100)(40:40) py(-100:100)(20:20) px(-100:100)(40:40) py(-100:100)(40:40)
px(-100:100)(60:60) py(-100:100)(40:40) px(-100:100)(60:60) py(-100:100)(20:20)
px(-100:100)(80:80) py(-100:100)(20:20) px(-100:100)(80:80) py(-100:100)(40:40)
px(-100:100)(100:100) py(-100:100)(40:40), f 23;
#X obj 1214 163 drawpolygon c 1 px(-100:100)(-100:-100) py(-100:100)(40:40)
px(-100:100)(-80:-80) py(-100:100)(40:40) px(-100:100)(-80:-80) py(-100:100)(60:60)
px(-100:100)(-60:-60) py(-100:100)(60:60) px(-100:100)(-60:-60) py(-100:100)(40:40)
px(-100:100)(-40:-40) py(-100:100)(40:40) px(-100:100)(-40:-40) py(-100:100)(60:60)
px(-100:100)(-20:-20) py(-100:100)(60:60) px(-100:100)(-20:-20) py(-100:100)(40:40)
px(-100:100)(0:0) py(-100:100)(40:40) px(-100:100)(0:0) py(-100:100)(60:60)
px(-100:100)(20:20) py(-100:100)(60:60) px(-100:100)(20:20) py(-100:100)(40:40)
px(-100:100)(40:40) py(-100:100)(40:40) px(-100:100)(40:40) py(-100:100)(60:60)
px(-100:100)(60:60) py(-100:100)(60:60) px(-100:100)(60:60) py(-100:100)(40:40)
px(-100:100)(80:80) py(-100:100)(40:40) px(-100:100)(80:80) py(-100:100)(60:60)
px(-100:100)(100:100) py(-100:100)(60:60), f 23;
#X obj 1383 162 drawpolygon c 1 px(-100:100)(-100:-100) py(-100:100)(60:60)
px(-100:100)(-80:-80) py(-100:100)(60:60) px(-100:100)(-80:-80) py(-100:100)(80:80)
px(-100:100)(-60:-60) py(-100:100)(80:80) px(-100:100)(-60:-60) py(-100:100)(60:60)
px(-100:100)(-40:-40) py(-100:100)(60:60) px(-100:100)(-40:-40) py(-100:100)(80:80)
px(-100:100)(-20:-20) py(-100:100)(80:80) px(-100:100)(-20:-20) py(-100:100)(60:60)
px(-100:100)(0:0) py(-100:100)(60:60) px(-100:100)(0:0) py(-100:100)(80:80)
px(-100:100)(20:20) py(-100:100)(80:80) px(-100:100)(20:20) py(-100:100)(60:60)
px(-100:100)(40:40) py(-100:100)(60:60) px(-100:100)(40:40) py(-100:100)(80:80)
px(-100:100)(60:60) py(-100:100)(80:80) px(-100:100)(60:60) py(-100:100)(60:60)
px(-100:100)(80:80) py(-100:100)(60:60) px(-100:100)(80:80) py(-100:100)(80:80)
px(-100:100)(100:100) py(-100:100)(80:80), f 23;
#X obj 1552 163 drawpolygon c 1 px(-100:100)(-100:-100) py(-100:100)(80:80)
px(-100:100)(-80:-80) py(-100:100)(80:80) px(-100:100)(-80:-80) py(-100:100)(100:100)
px(-100:100)(-60:-60) py(-100:100)(100:100) px(-100:100)(-60:-60) py(-100:100)(80:80)
px(-100:100)(-40:-40) py(-100:100)(80:80) px(-100:100)(-40:-40) py(-100:100)(100:100)
px(-100:100)(-20:-20) py(-100:100)(100:100) px(-100:100)(-20:-20) py(-100:100)(80:80)
px(-100:100)(0:0) py(-100:100)(80:80) px(-100:100)(0:0) py(-100:100)(100:100)
px(-100:100)(20:20) py(-100:100)(100:100) px(-100:100)(20:20) py(-100:100)(80:80)
px(-100:100)(40:40) py(-100:100)(80:80) px(-100:100)(40:40) py(-100:100)(100:100)
px(-100:100)(60:60) py(-100:100)(100:100) px(-100:100)(60:60) py(-100:100)(80:80)
px(-100:100)(80:80) py(-100:100)(80:80) px(-100:100)(80:80) py(-100:100)(100:100)
px(-100:100)(100:100) py(-100:100)(100:100), f 23;
#X obj 65 83 filledpolygon -x c3 c4 w2 -100 -100 100 -100 100 100 -100
100 -100 -100;
#X obj 41 128 drawpolygon -x c1 w1 p1x p1y p2x p2y p1x p1y;
#X obj 46 20 struct \$0-dial float p1x float p1y float p2x float p2y
float c1 float px float py float c float c3 float c4 float w1 float
w2, f 96;
#X obj 368 126 drawpolygon -x c1 w1 p2x p2y p1x p1y p2x p2y;
#X msg 296 693 drawpolygon -x c w1;
#X obj 451 726 drawpolygon -x c w1 px(-100:100)(60.8958:60.8958) py(-100:100)(59.0551:59.0551)
px(-100:100)(64.3958:64.3958) py(-100:100)(55.2049:55.2049) px(-100:100)(67.6446:67.6446)
py(-100:100)(51.1404:51.1404) px(-100:100)(70.6292:70.6292) py(-100:100)(46.878:46.878)
px(-100:100)(73.3373:73.3373) py(-100:100)(42.4349:42.4349) px(-100:100)(75.7582:75.7582)
py(-100:100)(37.8291:37.8291) px(-100:100)(77.8822:77.8822) py(-100:100)(33.0789:33.0789)
px(-100:100)(79.7006:79.7006) py(-100:100)(28.2035:28.2035) px(-100:100)(81.206:81.206)
py(-100:100)(23.2228:23.2228) px(-100:100)(82.3926:82.3926) py(-100:100)(18.1565:18.1565)
px(-100:100)(83.2554:83.2554) py(-100:100)(13.0251:13.0251) px(-100:100)(83.7911:83.7911)
py(-100:100)(7.84939:7.84939) px(-100:100)(83.9974:83.9974) py(-100:100)(2.65013:2.65013)
px(-100:100)(83.8736:83.8736) py(-100:100)(-2.55178:-2.55178) px(-100:100)(83.42:83.42)
py(-100:100)(-7.73536:-7.73536) px(-100:100)(82.6387:82.6387) py(-100:100)(-12.8797:-12.8797)
px(-100:100)(81.5326:81.5326) py(-100:100)(-17.9642:-17.9642) px(-100:100)(80.1062:80.1062)
py(-100:100)(-22.9683:-22.9683) px(-100:100)(78.3654:78.3654) py(-100:100)(-27.8718:-27.8718)
px(-100:100)(76.3171:76.3171) py(-100:100)(-32.655:-32.655) px(-100:100)(73.9695:73.9695)
py(-100:100)(-37.2987:-37.2987) px(-100:100)(71.3321:71.3321) py(-100:100)(-41.7842:-41.7842)
px(-100:100)(68.4156:68.4156) py(-100:100)(-46.0934:-46.0934) px(-100:100)(65.2316:65.2316)
py(-100:100)(-50.2089:-50.2089) px(-100:100)(61.793:61.793) py(-100:100)(-54.1142:-54.1142)
px(-100:100)(58.1136:58.1136) py(-100:100)(-57.7935:-57.7935) px(-100:100)(54.2083:54.2083)
py(-100:100)(-61.232:-61.232) px(-100:100)(50.0928:50.0928) py(-100:100)(-64.416:-64.416)
px(-100:100)(45.7836:45.7836) py(-100:100)(-67.3325:-67.3325) px(-100:100)(41.2981:41.2981)
py(-100:100)(-69.9698:-69.9698) px(-100:100)(36.6544:36.6544) py(-100:100)(-72.3174:-72.3174)
px(-100:100)(31.8711:31.8711) py(-100:100)(-74.3657:-74.3657) px(-100:100)(26.9676:26.9676)
py(-100:100)(-76.1065:-76.1065) px(-100:100)(21.9635:21.9635) py(-100:100)(-77.5328:-77.5328)
px(-100:100)(16.879:16.879) py(-100:100)(-78.6388:-78.6388) px(-100:100)(11.7346:11.7346)
py(-100:100)(-79.4201:-79.4201) px(-100:100)(6.55109:6.55109) py(-100:100)(-79.8736:-79.8736)
px(-100:100)(1.34914:1.34914) py(-100:100)(-79.9974:-79.9974) px(-100:100)(-3.85011:-3.85011)
py(-100:100)(-79.7911:-79.7911) px(-100:100)(-9.02585:-9.02585) py(-100:100)(-79.2553:-79.2553)
px(-100:100)(-14.1572:-14.1572) py(-100:100)(-78.3924:-78.3924) px(-100:100)(-19.2234:-19.2234)
py(-100:100)(-77.2058:-77.2058) px(-100:100)(-24.2043:-24.2043) py(-100:100)(-75.7003:-75.7003)
px(-100:100)(-29.0795:-29.0795) py(-100:100)(-73.8819:-73.8819) px(-100:100)(-33.8297:-33.8297)
py(-100:100)(-71.7579:-71.7579) px(-100:100)(-38.4356:-38.4356) py(-100:100)(-69.337:-69.337)
px(-100:100)(-42.8786:-42.8786) py(-100:100)(-66.6288:-66.6288) px(-100:100)(-47.141:-47.141)
py(-100:100)(-63.6442:-63.6442) px(-100:100)(-51.2054:-51.2054) py(-100:100)(-60.3954:-60.3954)
px(-100:100)(-55.0557:-55.0557) py(-100:100)(-56.8952:-56.8952) px(-100:100)(-58.6762:-58.6762)
py(-100:100)(-53.158:-53.158) px(-100:100)(-62.0524:-62.0524) py(-100:100)(-49.1986:-49.1986)
px(-100:100)(-65.1706:-65.1706) py(-100:100)(-45.0331:-45.0331) px(-100:100)(-68.0184:-68.0184)
py(-100:100)(-40.6782:-40.6782) px(-100:100)(-70.5842:-70.5842) py(-100:100)(-36.1514:-36.1514)
px(-100:100)(-72.8578:-72.8578) py(-100:100)(-31.471:-31.471) px(-100:100)(-74.83:-74.83)
py(-100:100)(-26.6558:-26.6558) px(-100:100)(-76.4927:-76.4927) py(-100:100)(-21.7253:-21.7253)
px(-100:100)(-77.8395:-77.8395) py(-100:100)(-16.6992:-16.6992) px(-100:100)(-78.8647:-78.8647)
py(-100:100)(-11.5978:-11.5978) px(-100:100)(-79.5643:-79.5643) py(-100:100)(-6.44173:-6.44173)
px(-100:100)(-79.9355:-79.9355) py(-100:100)(-1.25161:-1.25161) px(-100:100)(-79.9768:-79.9768)
py(-100:100)(3.95161:3.95161) px(-100:100)(-79.688:-79.688) py(-100:100)(9.14698:9.14698)
px(-100:100)(-79.0702:-79.0702) py(-100:100)(14.3136:14.3136) px(-100:100)(-78.126:-78.126)
py(-100:100)(19.4305:19.4305) px(-100:100)(-76.8592:-76.8592) py(-100:100)(24.4774:24.4774)
px(-100:100)(-75.2748:-75.2748) py(-100:100)(29.4336:29.4336) px(-100:100)(-73.3793:-73.3793)
py(-100:100)(34.2795:34.2795) px(-100:100)(-71.1802:-71.1802) py(-100:100)(38.9953:38.9953)
px(-100:100)(-68.6865:-68.6865) py(-100:100)(43.5622:43.5622) px(-100:100)(-65.9081:-65.9081)
py(-100:100)(47.9618:47.9618) px(-100:100)(-62.8564:-62.8564) py(-100:100)(52.1762:52.1762)
px(-100:100)(-59.5434:-59.5434) py(-100:100)(56.1886:56.1886) px(-100:100)(-55.9826:-55.9826)
py(-100:100)(59.9829:59.9829);
#X connect 14 0 0 0;
#X restore 479 272 pd huge-template;
#X obj 479 293 unpack s p f;
#X obj 570 697 +;
#X obj 513 315 get \$0-dial py;
#X msg 513 655 0;
#X obj 540 676 t b f;
#X obj 671 11 inlet;
#X obj 723 669 + 2;
#X obj 763 669 + 2;
#X obj 803 669 + 2;
#X obj 843 669 + 2;
#X obj 723 648 * 82;
#X obj 763 648 * 82;
#X obj 790 260 s pd-\$0-graph;
#X obj 790 313 s \$0-base;
#X msg 790 239 donecanvasdialog 1 -1 2 -100 -100 100 100 \$1 \$1 0
0 \, dirty 0;
#X obj 302 73 namecanvas \$0-base;
#X obj 790 199 r \$0-size;
#N canvas 0 50 450 707 \$0-graph 0;
#X scalar 1311-dial -66.2508 -43.4513 1.16767 1.44572 0 17.3333 66.6668
0 999 999 7.5 0 \;;
#X coords -100 -100 100 100 150 150 2 0 0;
#X restore 10 10 pd \$0-graph;
#X obj 513 357 t f f;
#X obj 622 420 f;
#X obj 622 399 t f b;
#X obj 595 378 t f f;
#X obj 595 441 -;
#X obj 595 461 t f f;
#X obj 585 503 sel 0;
#X obj 585 550 spigot;
#X msg 585 524 0;
#X obj 595 482 t f f;
#X msg 622 524 1;
#X obj 585 676 i;
#X obj 513 634 t b b;
#X obj 585 571 / 2;
#X obj 655 513 r \$0-size;
#X obj 655 555 /;
#X msg 655 534 200 \$1;
#X obj 585 592 t f f;
#X obj 612 634 - 0.5;
#X obj 612 613 > 0;
#X obj 585 655 +;
#X obj 779 497 loadbang;
#X obj 779 539 atan;
#X msg 779 518 1;
#X obj 779 560 * 8;
#X obj 723 576 *;
#X msg 790 280 donecanvasdialog 1 -1 2 -100 -100 100 100 \$1 \$1 10
10 \, dirty 0;
#X obj 723 534 * 0.75;
#N canvas 360 182 213 566 compute-coordinates 1;
#X obj 39 97 until;
#X obj 68 144 + 1;
#X obj 39 54 t b b;
#X msg 54 118 0;
#X obj 12 537 print;
#X obj 39 207 * 6.28318;
#X obj 39 228 t f f;
#X obj 39 495 list append;
#X obj 12 516 list;
#X obj 12 11 bng 15 250 50 0 empty empty empty 17 7 0 10 -262144 -1
-1;
#X obj 102 516 list;
#X msg 102 474 bang;
#X obj 39 300 cos;
#X obj 79 300 sin;
#X obj 39 165 / 99;
#X msg 39 76 75;
#X obj 39 186 + 0.375;
#X obj 126 316 % 2;
#X obj 126 337 sel 0 1;
#X msg 126 358 py;
#X msg 156 358 px;
#X obj 39 432 pack f s;
#X obj 126 416 symbol;
#X msg 39 453 \$2(-100:100)(\$1:\$1);
#X obj 155 295 + 1;
#X msg 141 269 0;
#X obj 79 249 t f b;
#X obj 39 249 t f b;
#X obj 39 144 i;
#X obj 126 295 i;
#X obj 12 31 t b b;
#X obj 39 411 + 2;
#X obj 39 390 * 82;
#X connect 0 0 28 0;
#X connect 1 0 28 1;
#X connect 2 0 15 0;
#X connect 2 1 3 0;
#X connect 2 1 11 0;
#X connect 2 1 25 0;
#X connect 3 0 28 1;
#X connect 5 0 6 0;
#X connect 6 0 27 0;
#X connect 6 1 26 0;
#X connect 7 0 8 1;
#X connect 7 0 10 0;
#X connect 8 0 4 0;
#X connect 9 0 30 0;
#X connect 10 0 7 1;
#X connect 11 0 7 1;
#X connect 12 0 32 0;
#X connect 13 0 32 0;
#X connect 14 0 16 0;
#X connect 15 0 0 0;
#X connect 16 0 5 0;
#X connect 17 0 18 0;
#X connect 18 0 19 0;
#X connect 18 1 20 0;
#X connect 19 0 22 0;
#X connect 20 0 22 0;
#X connect 21 0 23 0;
#X connect 22 0 21 1;
#X connect 23 0 7 0;
#X connect 24 0 29 1;
#X connect 25 0 29 1;
#X connect 26 0 13 0;
#X connect 26 1 29 0;
#X connect 27 0 12 0;
#X connect 27 1 29 0;
#X connect 28 0 1 0;
#X connect 28 0 14 0;
#X connect 29 0 24 0;
#X connect 29 0 17 0;
#X connect 30 0 8 0;
#X connect 30 1 2 0;
#X connect 31 0 21 0;
#X connect 32 0 31 0;
#X restore 302 51 pd compute-coordinates;
#X obj 570 718 clip 0 127;
#X obj 723 513 / 127;
#X obj 513 336 * -1;
#X obj 723 626 cos;
#X obj 803 626 cos;
#X obj 763 626 sin;
#X obj 843 626 sin;
#X obj 723 555 + 0.375;
#X obj 570 769 outlet;
#X obj 319 226 append \$0-dial p1x p1y p2x p2y c1 px py c c3 c4 w1
w2, f 67;
#X obj 691 456 set \$0-dial c c1 c3 c4 w1 w2;
#X msg 319 205 0 0 0 0 0 0 0 0 999 999 3 2;
#X obj 671 32 route size;
#X obj 671 53 s \$0-size;
#X obj 774 419 t b f;
#X msg 691 435 0 0 999 999;
#X obj 774 377 r \$0-size;
#X obj 856 435 r \$0-pointer;
#X obj 929 546 savestate;
#X obj 980 567 f;
#X obj 319 322 s \$0-upd;
#X obj 453 660 r \$0-upd;
#X obj 745 16 r \$0-upd;
#X obj 580 739 s \$0-val;
#X obj 980 588 pack f f f f;
#X obj 995 546 r \$0-val;
#X obj 929 609 unpack f f f f;
#X obj 453 681 v \$0-val;
#X obj 929 630 v \$0-val;
#X obj 302 348 f \$1;
#X obj 302 369 s \$0-siz;
#X obj 1004 566 r \$0-siz;
#X obj 956 651 v \$0-siz;
#X obj 745 37 v \$0-siz;
#X obj 774 398 / 20;
#X obj 393 681 r \$0-inp;
#X obj 728 94 s \$0-inp;
#X obj 540 697 i;
#X obj 319 301 del 2;
#X connect 0 0 13 0;
#X connect 1 0 0 0;
#X connect 3 0 4 0;
#X connect 4 0 71 12;
#X connect 5 0 100 0;
#X connect 5 1 11 0;
#X connect 6 0 12 0;
#X connect 7 0 65 0;
#X connect 7 1 67 0;
#X connect 7 2 66 0;
#X connect 7 3 68 0;
#X connect 8 0 23 0;
#X connect 9 0 24 0;
#X connect 10 0 12 4;
#X connect 13 0 91 0;
#X connect 13 1 73 0;
#X connect 13 2 3 0;
#X connect 13 3 2 0;
#X connect 14 0 15 0;
#X connect 15 1 17 0;
#X connect 16 0 62 0;
#X connect 17 0 64 0;
#X connect 18 0 19 0;
#X connect 19 0 99 0;
#X connect 19 1 16 1;
#X connect 20 0 74 0;
#X connect 21 0 6 0;
#X connect 22 0 6 1;
#X connect 23 0 6 2;
#X connect 24 0 6 3;
#X connect 25 0 21 0;
#X connect 26 0 22 0;
#X connect 29 0 27 0;
#X connect 31 0 29 0;
#X connect 31 0 59 0;
#X connect 33 0 45 0;
#X connect 33 1 36 0;
#X connect 34 0 37 1;
#X connect 35 0 34 1;
#X connect 35 1 34 0;
#X connect 36 0 37 0;
#X connect 36 1 35 0;
#X connect 37 0 38 0;
#X connect 38 0 42 0;
#X connect 38 1 40 0;
#X connect 39 0 41 0;
#X connect 40 0 46 0;
#X connect 41 0 40 1;
#X connect 42 0 39 0;
#X connect 42 1 43 0;
#X connect 43 0 40 1;
#X connect 44 0 16 1;
#X connect 45 0 18 0;
#X connect 45 1 99 0;
#X connect 46 0 50 0;
#X connect 47 0 49 0;
#X connect 48 0 46 1;
#X connect 49 0 48 0;
#X connect 50 0 53 0;
#X connect 50 1 52 0;
#X connect 51 0 53 1;
#X connect 52 0 51 0;
#X connect 53 0 44 0;
#X connect 54 0 56 0;
#X connect 55 0 57 0;
#X connect 56 0 55 0;
#X connect 57 0 58 1;
#X connect 58 0 7 0;
#X connect 59 0 28 0;
#X connect 60 0 69 0;
#X connect 62 0 70 0;
#X connect 62 0 85 0;
#X connect 62 0 63 0;
#X connect 62 0 99 1;
#X connect 63 0 60 0;
#X connect 64 0 33 0;
#X connect 65 0 25 0;
#X connect 66 0 8 0;
#X connect 67 0 26 0;
#X connect 68 0 9 0;
#X connect 69 0 58 0;
#X connect 71 0 5 0;
#X connect 73 0 71 0;
#X connect 74 0 75 0;
#X connect 74 1 98 0;
#X connect 76 0 77 0;
#X connect 76 1 72 4;
#X connect 77 0 72 0;
#X connect 78 0 96 0;
#X connect 79 0 72 6;
#X connect 80 0 88 0;
#X connect 80 1 81 0;
#X connect 81 0 86 0;
#X connect 83 0 89 0;
#X connect 84 0 95 0;
#X connect 86 0 80 0;
#X connect 87 0 81 1;
#X connect 88 0 90 0;
#X connect 88 1 94 0;
#X connect 89 0 99 0;
#X connect 91 0 92 0;
#X connect 93 0 86 1;
#X connect 95 0 75 0;
#X connect 96 0 76 0;
#X connect 97 0 99 0;
#X connect 99 0 16 0;
#X connect 100 0 82 0;
#X coords -100 -100 100 100 150 150 2 10 10;
