#N struct 1004-dial float p1x float p1y float p2x float p2y float c1
float px float py float c2 float c3 float c4 float w1 float w2;
#N canvas 1044 175 819 658 10;
#X obj 379 288 gknob 250;
#A saved 0 200 681 681 1 1 10;
#N canvas 0 23 195 247 RGB 0;
#X obj 17 34 / 255;
#X obj 17 56 * 8;
#X obj 17 100 i;
#X obj 17 78 + 0.5;
#X obj 67 34 / 255;
#X obj 67 56 * 8;
#X obj 67 100 i;
#X obj 67 78 + 0.5;
#X obj 117 34 / 255;
#X obj 117 56 * 8;
#X obj 117 100 i;
#X obj 117 78 + 0.5;
#X obj 17 122 * 100;
#X obj 17 181 +;
#X obj 67 122 * 10;
#X obj 67 165 t b f;
#X obj 67 143 +;
#X obj 117 127 t b f;
#X obj 17 202 outlet;
#X obj 17 13 inlet;
#X obj 67 13 inlet;
#X obj 117 13 inlet;
#X connect 0 0 1 0;
#X connect 1 0 3 0;
#X connect 2 0 12 0;
#X connect 3 0 2 0;
#X connect 4 0 5 0;
#X connect 5 0 7 0;
#X connect 6 0 14 0;
#X connect 7 0 6 0;
#X connect 8 0 9 0;
#X connect 9 0 11 0;
#X connect 10 0 17 0;
#X connect 11 0 10 0;
#X connect 12 0 13 0;
#X connect 13 0 18 0;
#X connect 14 0 16 0;
#X connect 15 0 13 0;
#X connect 15 1 13 1;
#X connect 16 0 15 0;
#X connect 17 0 16 0;
#X connect 17 1 16 1;
#X connect 19 0 0 0;
#X connect 20 0 4 0;
#X connect 21 0 8 0;
#X restore 405 219 pd RGB;
#X obj 405 109 vsl 16 101 0 255 0 0 empty empty RED 0 -9 0 10 -258113
-1 -1 7300 1;
#X obj 445 109 vsl 16 101 0 255 0 0 empty empty GREEN 0 -9 0 10 -4034
-1 -1 10000 1;
#X obj 485 109 vsl 16 101 0 255 0 0 empty empty BLUE 0 -9 0 10 -4160
-262144 -1 0 1;
#X msg 405 241 color \$1 \$1 0 0;
#X floatatom 624 136 5 0 0 0 - - -;
#X msg 624 156 width \$1;
#N canvas 0 23 450 300 clock 0;
#X obj 190 64 loadbang;
#X obj 190 106 /;
#X msg 115 96 1;
#X obj 115 117 metro;
#X obj 115 138 i;
#X obj 145 138 + 1;
#X obj 115 250 s \$0-clk;
#X obj 115 159 t f f;
#X obj 155 185 % 2;
#X obj 115 221 pipe;
#X obj 155 206 * 10;
#X obj 190 127 v \$0-ms;
#X msg 190 85 15000 120;
#X connect 0 0 12 0;
#X connect 0 0 2 0;
#X connect 1 0 3 1;
#X connect 1 0 11 0;
#X connect 2 0 3 0;
#X connect 3 0 4 0;
#X connect 4 0 5 0;
#X connect 4 0 7 0;
#X connect 5 0 4 1;
#X connect 7 0 9 0;
#X connect 7 1 8 0;
#X connect 8 0 10 0;
#X connect 9 0 6 0;
#X connect 10 0 9 1;
#X connect 12 0 1 0;
#X restore 146 215 pd clock;
#N canvas 981 426 939 406 chords 0;
#N canvas 0 23 184 162 scl 0;
#X obj 12 12 inlet;
#X obj 12 33 t f f;
#X obj 12 54 % 7;
#X obj 12 75 tabread \$0-scl;
#X obj 12 96 +;
#X obj 110 49 div 7;
#X obj 110 80 * 12;
#X obj 12 117 outlet;
#X connect 0 0 1 0;
#X connect 1 0 2 0;
#X connect 1 1 5 0;
#X connect 2 0 3 0;
#X connect 3 0 4 0;
#X connect 4 0 7 0;
#X connect 5 0 6 0;
#X connect 6 0 4 1;
#X restore 522 201 pd scl;
#X obj 740 194 text define -k \$0-chords;
#A set 65 47 39 75 \; 71 39 47 53 \; 48 63 51 67 \; 53 53 67 74 \;
;
#X obj 494 305 text set \$0-chords;
#X obj 771 106 bng 15 250 50 0 empty empty empty 0 -6 0 8 -262144 -1
-1;
#X obj 643 244 t l;
#X obj 526 238 list prepend;
#X obj 228 17 r \$0-clk;
#X obj 228 140 i;
#X obj 228 161 % 4;
#X obj 258 140 + 1;
#X obj 228 182 text get \$0-chords;
#X obj 228 203 unpack f f f f;
#X obj 93 362 throw~ \$0-M;
#X msg 527 0 4;
#X obj 527 21 until;
#X obj 527 42 i;
#X obj 527 63 % 4;
#X obj 558 41 + 1;
#X obj 527 84 t b f b;
#X msg 607 111 4;
#X obj 607 132 until;
#X obj 520 139 random 24;
#X obj 226 94 bang;
#X obj 228 59 change;
#X obj 228 38 div 16;
#X obj 520 160 + 21;
#X connect 0 0 5 0;
#X connect 3 0 5 1;
#X connect 4 0 5 1;
#X connect 5 0 4 0;
#X connect 5 0 2 0;
#X connect 6 0 24 0;
#X connect 7 0 8 0;
#X connect 8 0 9 0;
#X connect 8 0 10 0;
#X connect 9 0 7 1;
#X connect 10 0 11 0;
#X connect 13 0 14 0;
#X connect 14 0 15 0;
#X connect 15 0 16 0;
#X connect 16 0 17 0;
#X connect 16 0 18 0;
#X connect 17 0 15 1;
#X connect 18 0 19 0;
#X connect 18 1 2 1;
#X connect 18 2 3 0;
#X connect 19 0 20 0;
#X connect 20 0 21 0;
#X connect 21 0 25 0;
#X connect 22 0 7 0;
#X connect 23 0 22 0;
#X connect 24 0 23 0;
#X connect 25 0 0 0;
#X restore 110 288 pd chords;
#X obj 133 56 loadbang;
#X obj 133 98 array set \$0-scl;
#X obj 133 119 array define -k \$0-scl 7;
#A 0 0 2 3 5 7 8 11;
#X obj 104 451 catch~ \$0-M;
#N canvas 581 156 1326 883 melody 0;
#X obj 431 113 bng 15 250 50 0 empty empty empty 17 7 0 10 -262144
-1 -1;
#X obj 431 176 until;
#X obj 431 239 t b f;
#X obj 431 281 tabwrite \$0-vel;
#X msg 431 260 1;
#X obj 531 255 random 101;
#X obj 531 171 until;
#X obj 531 192 i;
#X obj 561 192 + 1;
#X obj 531 234 t b f;
#X obj 531 297 tabwrite \$0-vel;
#X obj 431 134 t b b b;
#X msg 601 150 const 0;
#X obj 531 276 > 80;
#X obj 223 162 r \$0-clk;
#X obj 283 212 sel 0;
#X obj 228 204 t f f;
#X obj 411 335 tabread \$0-vel;
#X obj 411 377 sel 1 0;
#X obj 413 518 vline~;
#X obj 214 625 *~;
#X obj 216 734 throw~ \$0-M;
#X obj 729 351 until;
#X obj 729 372 i;
#X obj 759 372 + 1;
#X obj 729 414 t b f;
#X msg 799 330 const 0;
#N canvas 0 23 184 162 scl 0;
#X obj 12 12 inlet;
#X obj 12 33 t f f;
#X obj 12 54 % 7;
#X obj 12 75 tabread \$0-scl;
#X obj 12 96 +;
#X obj 110 49 div 7;
#X obj 110 80 * 12;
#X obj 12 117 outlet;
#X connect 0 0 1 0;
#X connect 1 0 2 0;
#X connect 1 1 5 0;
#X connect 2 0 3 0;
#X connect 3 0 4 0;
#X connect 4 0 7 0;
#X connect 5 0 6 0;
#X connect 6 0 4 1;
#X restore 729 477 pd scl;
#X obj 729 498 tabwrite \$0-seq;
#X obj 373 204 t b b;
#X obj 214 271 t f f;
#X obj 214 362 tabread \$0-seq;
#X obj 214 383 mtof;
#X obj 214 341 spigot;
#X obj 214 434 phasor~;
#X obj 214 515 -~ 0.25;
#X obj 214 536 cos~;
#X obj 284 455 -~ 0.25;
#X obj 284 476 cos~;
#X obj 214 455 *~ 2;
#X obj 214 597 /~ 2;
#X obj 151 492 -~ 0.25;
#X obj 151 513 cos~;
#X obj 214 404 / 2;
#X obj 284 518 *~;
#X obj 339 502 pow~ 2;
#X obj 499 377 tabread \$0-dur;
#X obj 411 398 f;
#X obj 411 460 *;
#X obj 411 419 t f b;
#X obj 444 443 v \$0-ms;
#X msg 413 497 1 1 \, 0 \$1 1;
#X obj 619 539 until;
#X obj 619 560 i;
#X obj 649 560 + 1;
#X obj 619 602 t b f;
#X msg 689 618 const 0;
#X obj 619 623 random 101;
#X obj 619 644 / 100;
#X obj 619 749 tabwrite \$0-dur;
#X msg 619 707 2 \$1;
#X obj 619 728 pow;
#X obj 729 456 + 21;
#X msg 441 197 seed 155;
#X obj 284 433 phasor~ 441;
#X msg 777 291 seed 15662;
#X obj 729 435 random 24;
#X obj 619 686 - 2;
#X obj 619 665 * 4;
#X obj 560 438 bang;
#X obj 413 539 lop~ 0.5;
#X msg 560 480 2 \$1;
#X obj 560 501 pow;
#X obj 799 351 array define -k -yrange 0 100 \$0-seq 32;
#A 0 68 39 50 50 74 39 71 56 63 41 60 43 63 44 72 75 41 38 48 44 71
48 56 63 36 65 51 48 51 60 67 72;
#X obj 688 639 array define -k -yrange 0 4 \$0-dur 32;
#A 0 0.423373 2.2974 1.55833 0.779165 0.271684 0.678302 0.716978 2.78949
1 0.920188 1.55833 0.823591 1.08673 0.25 2.2974 0.447513 2.63902 0.737135
0.312083 0.411796 0.972655 0.779165 1.7411 0.697372 0.558644 3.29436
1.89212 0.339151 0.678302 1.18099 0.389582 0.574349;
#X obj 601 171 array define -k \$0-vel 32;
#A 0 0 1 0 0 1 0 1 0 1 1 0 1 0 1 0 1 0 0 0 1 1 0 1 1 1 1 1 0 1 1 1
0;
#X msg 619 518 32;
#X obj 223 183 % 32;
#X msg 531 150 32;
#X obj 431 218 random 32;
#X msg 431 155 16;
#X obj 619 581 % 32;
#X obj 729 393 % 32;
#X msg 729 330 32;
#X obj 531 213 % 32;
#X obj 560 459 random 24;
#X obj 214 646 *~ 2;
#X obj 214 667 expr~ tanh($v1);
#X obj 284 497 /~ 4;
#X connect 0 0 11 0;
#X connect 1 0 29 0;
#X connect 2 0 4 0;
#X connect 2 1 3 1;
#X connect 4 0 3 0;
#X connect 5 0 13 0;
#X connect 6 0 7 0;
#X connect 7 0 84 0;
#X connect 8 0 7 1;
#X connect 9 0 5 0;
#X connect 9 1 10 1;
#X connect 11 0 80 0;
#X connect 11 1 63 0;
#X connect 11 1 78 0;
#X connect 11 1 83 0;
#X connect 11 1 76 0;
#X connect 11 2 12 0;
#X connect 11 2 26 0;
#X connect 11 2 65 0;
#X connect 11 2 56 0;
#X connect 12 0 75 0;
#X connect 13 0 10 0;
#X connect 14 0 77 0;
#X connect 15 0 0 0;
#X connect 16 0 30 0;
#X connect 16 1 15 0;
#X connect 17 0 18 0;
#X connect 17 0 33 1;
#X connect 18 0 47 0;
#X connect 19 0 70 0;
#X connect 20 0 86 0;
#X connect 22 0 23 0;
#X connect 23 0 82 0;
#X connect 24 0 23 1;
#X connect 25 0 66 0;
#X connect 25 1 28 1;
#X connect 26 0 73 0;
#X connect 27 0 28 0;
#X connect 29 1 79 0;
#X connect 30 0 33 0;
#X connect 30 1 17 0;
#X connect 30 1 46 0;
#X connect 30 1 69 0;
#X connect 31 0 32 0;
#X connect 32 0 43 0;
#X connect 33 0 31 0;
#X connect 34 0 39 0;
#X connect 34 0 41 0;
#X connect 35 0 36 0;
#X connect 36 0 40 0;
#X connect 37 0 38 0;
#X connect 38 0 88 0;
#X connect 39 0 35 0;
#X connect 39 0 37 0;
#X connect 40 0 20 0;
#X connect 41 0 42 0;
#X connect 42 0 40 0;
#X connect 43 0 34 0;
#X connect 44 0 35 0;
#X connect 45 0 44 1;
#X connect 46 0 47 1;
#X connect 47 0 49 0;
#X connect 48 0 51 0;
#X connect 49 0 48 0;
#X connect 49 1 50 0;
#X connect 50 0 48 1;
#X connect 51 0 19 0;
#X connect 52 0 53 0;
#X connect 53 0 81 0;
#X connect 54 0 53 1;
#X connect 55 0 57 0;
#X connect 55 1 59 1;
#X connect 56 0 74 0;
#X connect 57 0 58 0;
#X connect 58 0 68 0;
#X connect 60 0 61 0;
#X connect 61 0 59 0;
#X connect 62 0 27 0;
#X connect 63 0 79 0;
#X connect 64 0 37 0;
#X connect 65 0 66 0;
#X connect 66 0 62 0;
#X connect 67 0 60 0;
#X connect 68 0 67 0;
#X connect 69 0 85 0;
#X connect 70 0 20 1;
#X connect 70 0 45 0;
#X connect 71 0 72 0;
#X connect 72 0 70 1;
#X connect 76 0 52 0;
#X connect 77 0 16 0;
#X connect 78 0 6 0;
#X connect 79 0 2 0;
#X connect 80 0 1 0;
#X connect 81 0 54 0;
#X connect 81 0 55 0;
#X connect 82 0 24 0;
#X connect 82 0 25 0;
#X connect 83 0 22 0;
#X connect 84 0 8 0;
#X connect 84 0 9 0;
#X connect 85 0 71 0;
#X connect 86 0 87 0;
#X connect 87 0 21 0;
#X connect 88 0 44 0;
#X restore 180 333 pd melody;
#X msg 133 77 0 2 3 5 7 8 11;
#N canvas 0 23 1333 682 drums 0;
#X obj 431 113 bng 15 250 50 0 empty empty empty 17 7 0 10 -262144
-1 -1;
#X obj 431 176 until;
#X obj 431 239 t b f;
#X msg 431 260 1;
#X obj 551 255 random 101;
#X obj 551 171 until;
#X obj 551 192 i;
#X obj 581 192 + 1;
#X obj 551 234 t b f;
#X obj 431 134 t b b b;
#X msg 621 150 const 0;
#X obj 551 276 > 80;
#X obj 373 204 t b b;
#X msg 441 197 seed 155;
#X obj 551 297 tabwrite \$0-vel-2;
#X obj 431 281 tabwrite \$0-vel-2;
#X obj 213 125 r \$0-clk;
#X obj 213 146 % 16;
#X obj 245 193 sel 0;
#X obj 431 218 random 16;
#X msg 431 155 8;
#X obj 551 213 % 16;
#X msg 551 150 16;
#X obj 621 171 array define -k \$0-vel-2 16;
#A 0 0 0 0 1 1 1 1 1 0 1 1 0 0 0 0 0;
#X obj 213 268 random 4;
#X obj 295 292 tabread \$0-vel-2;
#X obj 213 289 spigot;
#X obj 213 310 sel 0 1 2 3;
#X msg 129 380 0 \, 1 100;
#X obj 129 401 vline~;
#X obj 173 423 sqrt~;
#X obj 173 465 -~ 0.25;
#X obj 173 486 cos~;
#X obj 168 609 throw~ \$0-M;
#X obj 213 167 t b f;
#X obj 301 371 vline~;
#X obj 304 454 *~;
#X obj 385 430 noise~;
#X obj 354 516 delwrite~ \$0-del 50;
#X msg 301 350 1 \, 0 100;
#X obj 304 475 -~;
#X obj 742 427 hip~ 10000;
#X obj 738 406 noise~;
#X obj 649 459 *~;
#X obj 566 376 vline~;
#X msg 566 355 1 \, 0 50;
#X msg 642 347 1 \, 0 1000;
#X obj 760 320 phasor~ 7800;
#X obj 760 341 -~ 0.25;
#X obj 760 362 cos~;
#X obj 870 319 -~ 0.25;
#X obj 870 340 cos~;
#X obj 870 298 phasor~ 754;
#X obj 668 397 /~ 1;
#X obj 870 382 *~;
#X obj 566 397 pow~ 2;
#X obj 870 361 /~ 8;
#X obj 647 480 *~ 0.2;
#X msg 245 214 seed 14157;
#X obj 139 293 div 4;
#X obj 139 314 change;
#X obj 301 392 pow~ 4;
#X obj 459 434 delread~ \$0-del 50;
#X obj 459 455 lop~ 8000;
#X obj 459 476 *~ 0.5;
#X obj 383 448 bp~ 1000 4;
#X obj 304 496 *~ 8;
#X obj 129 422 *~ 2;
#X obj 173 444 *~ 10;
#X obj 173 558 expr~ tanh($v1);
#X obj 173 537 *~ 2;
#X obj 173 579 /~ 2;
#X obj 173 507 lop~ 1000;
#X connect 0 0 9 0;
#X connect 1 0 12 0;
#X connect 2 0 3 0;
#X connect 2 1 15 1;
#X connect 3 0 15 0;
#X connect 4 0 11 0;
#X connect 5 0 6 0;
#X connect 6 0 21 0;
#X connect 7 0 6 1;
#X connect 8 0 4 0;
#X connect 8 1 14 1;
#X connect 9 0 20 0;
#X connect 9 1 13 0;
#X connect 9 1 22 0;
#X connect 9 2 10 0;
#X connect 10 0 23 0;
#X connect 11 0 14 0;
#X connect 12 1 19 0;
#X connect 13 0 19 0;
#X connect 16 0 17 0;
#X connect 16 0 59 0;
#X connect 17 0 34 0;
#X connect 18 0 0 0;
#X connect 18 0 58 0;
#X connect 19 0 2 0;
#X connect 20 0 1 0;
#X connect 21 0 7 0;
#X connect 21 0 8 0;
#X connect 22 0 5 0;
#X connect 24 0 26 0;
#X connect 25 0 26 1;
#X connect 26 0 27 0;
#X connect 27 1 39 0;
#X connect 27 2 45 0;
#X connect 27 3 46 0;
#X connect 28 0 29 0;
#X connect 29 0 30 0;
#X connect 29 0 67 0;
#X connect 30 0 68 0;
#X connect 31 0 32 0;
#X connect 32 0 72 0;
#X connect 34 0 24 0;
#X connect 34 1 18 0;
#X connect 34 1 25 0;
#X connect 35 0 61 0;
#X connect 36 0 40 0;
#X connect 37 0 65 0;
#X connect 39 0 35 0;
#X connect 40 0 38 0;
#X connect 40 0 66 0;
#X connect 41 0 43 0;
#X connect 42 0 41 0;
#X connect 43 0 57 0;
#X connect 44 0 55 0;
#X connect 45 0 44 0;
#X connect 46 0 44 0;
#X connect 47 0 48 0;
#X connect 48 0 49 0;
#X connect 49 0 53 0;
#X connect 50 0 51 0;
#X connect 51 0 56 0;
#X connect 52 0 50 0;
#X connect 53 0 41 0;
#X connect 54 0 49 0;
#X connect 55 0 43 1;
#X connect 55 0 54 1;
#X connect 56 0 54 0;
#X connect 58 0 24 0;
#X connect 59 0 60 0;
#X connect 60 0 28 0;
#X connect 61 0 36 0;
#X connect 62 0 63 0;
#X connect 63 0 64 0;
#X connect 64 0 40 1;
#X connect 65 0 36 1;
#X connect 67 0 31 0;
#X connect 68 0 31 0;
#X connect 69 0 71 0;
#X connect 70 0 69 0;
#X connect 71 0 33 0;
#X connect 72 0 70 0;
#X restore 226 386 pd drums;
#X obj 101 513 expr~ tanh($v1);
#X obj 101 534 hip~ 3;
#X obj 101 555 dac~ 1 2;
#X obj 104 472 /~ 2;
#X obj 298 470 s \$0-what;
#X obj 449 30 r \$0-what;
#X obj 449 51 / 127;
#X obj 449 72 * 255;
#X msg 740 141 size 200;
#X connect 0 0 21 0;
#X connect 1 0 5 0;
#X connect 2 0 1 0;
#X connect 3 0 1 1;
#X connect 4 0 1 2;
#X connect 5 0 0 0;
#X connect 6 0 7 0;
#X connect 7 0 0 0;
#X connect 10 0 15 0;
#X connect 13 0 20 0;
#X connect 15 0 11 0;
#X connect 17 0 18 0;
#X connect 18 0 19 0;
#X connect 18 0 19 1;
#X connect 20 0 17 0;
#X connect 22 0 23 0;
#X connect 23 0 24 0;
#X connect 24 0 3 0;
#X connect 25 0 0 0;
