#N struct 1223-dial float p1x float p1y float p2x float p2y float c1
float c2 float px float py float c float c3 float c4 float w1 float
w2 float w3 float g float g2 float wc float wlc float wlw;
#N canvas 638 131 1775 795 10;
#X obj 280 654 sin;
#X obj 320 654 cos;
#X obj 280 112 f \$0;
#X obj 280 91 loadbang;
#X msg 396 150 \; pd-\$1-graph clear;
#X msg 314 196 traverse pd-\$1-graph \, bang;
#X obj 696 217 pointer;
#X obj 297 271 t b p;
#X obj 360 654 sin;
#X obj 400 654 cos;
#X obj 280 723 pack f f f f;
#X floatatom 280 584 5 1 100 0 - - -;
#X obj 280 625 t f f f f;
#X obj 360 676 * 1;
#X obj 400 676 * 1;
#X obj 439 723 r \$0-pointer;
#X obj 324 292 s \$0-pointer;
#X obj 280 744 set \$0-dial p1x p1y p2x p2y;
#X obj 280 133 t b b f f;
#N canvas 698 370 1803 575 huge-template 1;
#X obj 33 163 drawpolygon c 1 px(-100:100)(-100:-100) py(-100:100)(-100:-100)
px(-100:100)(-80:-80) py(-100:100)(-100:-100) px(-100:100)(-80:-80)
py(-100:100)(-80:-80) px(-100:100)(-60:-60) py(-100:100)(-80:-80) px(-100:100)(-60:-60)
py(-100:100)(-100:-100) px(-100:100)(-40:-40) py(-100:100)(-100:-100)
px(-100:100)(-40:-40) py(-100:100)(-80:-80) px(-100:100)(-20:-20) py(-100:100)(-80:-80)
px(-100:100)(-20:-20) py(-100:100)(-100:-100) px(-100:100)(0:0) py(-100:100)(-100:-100)
px(-100:100)(0:0) py(-100:100)(-80:-80) px(-100:100)(20:20) py(-100:100)(-80:-80)
px(-100:100)(20:20) py(-100:100)(-100:-100) px(-100:100)(40:40) py(-100:100)(-100:-100)
px(-100:100)(40:40) py(-100:100)(-80:-80) px(-100:100)(60:60) py(-100:100)(-80:-80)
px(-100:100)(60:60) py(-100:100)(-100:-100) px(-100:100)(80:80) py(-100:100)(-100:-100)
px(-100:100)(80:80) py(-100:100)(-80:-80) px(-100:100)(100:100) py(-100:100)(-80:-80)
, f 23;
#X obj 201 163 drawpolygon c 1 px(-100:100)(-100:-100) py(-100:100)(-80:-80)
px(-100:100)(-80:-80) py(-100:100)(-80:-80) px(-100:100)(-80:-80) py(-100:100)(-60:-60)
px(-100:100)(-60:-60) py(-100:100)(-60:-60) px(-100:100)(-60:-60) py(-100:100)(-80:-80)
px(-100:100)(-40:-40) py(-100:100)(-80:-80) px(-100:100)(-40:-40) py(-100:100)(-60:-60)
px(-100:100)(-20:-20) py(-100:100)(-60:-60) px(-100:100)(-20:-20) py(-100:100)(-80:-80)
px(-100:100)(0:0) py(-100:100)(-80:-80) px(-100:100)(0:0) py(-100:100)(-60:-60)
px(-100:100)(20:20) py(-100:100)(-60:-60) px(-100:100)(20:20) py(-100:100)(-80:-80)
px(-100:100)(40:40) py(-100:100)(-80:-80) px(-100:100)(40:40) py(-100:100)(-60:-60)
px(-100:100)(60:60) py(-100:100)(-60:-60) px(-100:100)(60:60) py(-100:100)(-80:-80)
px(-100:100)(80:80) py(-100:100)(-80:-80) px(-100:100)(80:80) py(-100:100)(-60:-60)
px(-100:100)(100:100) py(-100:100)(-60:-60), f 23;
#X obj 370 163 drawpolygon c 1 px(-100:100)(-100:-100) py(-100:100)(-60:-60)
px(-100:100)(-80:-80) py(-100:100)(-60:-60) px(-100:100)(-80:-80) py(-100:100)(-40:-40)
px(-100:100)(-60:-60) py(-100:100)(-40:-40) px(-100:100)(-60:-60) py(-100:100)(-60:-60)
px(-100:100)(-40:-40) py(-100:100)(-60:-60) px(-100:100)(-40:-40) py(-100:100)(-40:-40)
px(-100:100)(-20:-20) py(-100:100)(-40:-40) px(-100:100)(-20:-20) py(-100:100)(-60:-60)
px(-100:100)(0:0) py(-100:100)(-60:-60) px(-100:100)(0:0) py(-100:100)(-40:-40)
px(-100:100)(20:20) py(-100:100)(-40:-40) px(-100:100)(20:20) py(-100:100)(-60:-60)
px(-100:100)(40:40) py(-100:100)(-60:-60) px(-100:100)(40:40) py(-100:100)(-40:-40)
px(-100:100)(60:60) py(-100:100)(-40:-40) px(-100:100)(60:60) py(-100:100)(-60:-60)
px(-100:100)(80:80) py(-100:100)(-60:-60) px(-100:100)(80:80) py(-100:100)(-40:-40)
px(-100:100)(100:100) py(-100:100)(-40:-40), f 23;
#X obj 539 163 drawpolygon c 1 px(-100:100)(-100:-100) py(-100:100)(-40:-40)
px(-100:100)(-80:-80) py(-100:100)(-40:-40) px(-100:100)(-80:-80) py(-100:100)(-20:-20)
px(-100:100)(-60:-60) py(-100:100)(-20:-20) px(-100:100)(-60:-60) py(-100:100)(-40:-40)
px(-100:100)(-40:-40) py(-100:100)(-40:-40) px(-100:100)(-40:-40) py(-100:100)(-20:-20)
px(-100:100)(-20:-20) py(-100:100)(-20:-20) px(-100:100)(-20:-20) py(-100:100)(-40:-40)
px(-100:100)(0:0) py(-100:100)(-40:-40) px(-100:100)(0:0) py(-100:100)(-20:-20)
px(-100:100)(20:20) py(-100:100)(-20:-20) px(-100:100)(20:20) py(-100:100)(-40:-40)
px(-100:100)(40:40) py(-100:100)(-40:-40) px(-100:100)(40:40) py(-100:100)(-20:-20)
px(-100:100)(60:60) py(-100:100)(-20:-20) px(-100:100)(60:60) py(-100:100)(-40:-40)
px(-100:100)(80:80) py(-100:100)(-40:-40) px(-100:100)(80:80) py(-100:100)(-20:-20)
px(-100:100)(100:100) py(-100:100)(-20:-20), f 23;
#X obj 708 162 drawpolygon c 1 px(-100:100)(-100:-100) py(-100:100)(-20:-20)
px(-100:100)(-80:-80) py(-100:100)(-20:-20) px(-100:100)(-80:-80) py(-100:100)(-0:-0)
px(-100:100)(-60:-60) py(-100:100)(-0:-0) px(-100:100)(-60:-60) py(-100:100)(-20:-20)
px(-100:100)(-40:-40) py(-100:100)(-20:-20) px(-100:100)(-40:-40) py(-100:100)(-0:-0)
px(-100:100)(-20:-20) py(-100:100)(-0:-0) px(-100:100)(-20:-20) py(-100:100)(-20:-20)
px(-100:100)(0:0) py(-100:100)(-20:-20) px(-100:100)(0:0) py(-100:100)(-0:-0)
px(-100:100)(20:20) py(-100:100)(-0:-0) px(-100:100)(20:20) py(-100:100)(-20:-20)
px(-100:100)(40:40) py(-100:100)(-20:-20) px(-100:100)(40:40) py(-100:100)(-0:-0)
px(-100:100)(60:60) py(-100:100)(-0:-0) px(-100:100)(60:60) py(-100:100)(-20:-20)
px(-100:100)(80:80) py(-100:100)(-20:-20) px(-100:100)(80:80) py(-100:100)(-0:-0)
px(-100:100)(100:100) py(-100:100)(-0:-0), f 23;
#X obj 878 163 drawpolygon c 1 px(-100:100)(-100:-100) py(-100:100)(0:0)
px(-100:100)(-80:-80) py(-100:100)(0:0) px(-100:100)(-80:-80) py(-100:100)(20:20)
px(-100:100)(-60:-60) py(-100:100)(20:20) px(-100:100)(-60:-60) py(-100:100)(0:0)
px(-100:100)(-40:-40) py(-100:100)(0:0) px(-100:100)(-40:-40) py(-100:100)(20:20)
px(-100:100)(-20:-20) py(-100:100)(20:20) px(-100:100)(-20:-20) py(-100:100)(0:0)
px(-100:100)(0:0) py(-100:100)(0:0) px(-100:100)(0:0) py(-100:100)(20:20)
px(-100:100)(20:20) py(-100:100)(20:20) px(-100:100)(20:20) py(-100:100)(0:0)
px(-100:100)(40:40) py(-100:100)(0:0) px(-100:100)(40:40) py(-100:100)(20:20)
px(-100:100)(60:60) py(-100:100)(20:20) px(-100:100)(60:60) py(-100:100)(0:0)
px(-100:100)(80:80) py(-100:100)(0:0) px(-100:100)(80:80) py(-100:100)(20:20)
px(-100:100)(100:100) py(-100:100)(20:20), f 23;
#X obj 1046 163 drawpolygon c 1 px(-100:100)(-100:-100) py(-100:100)(20:20)
px(-100:100)(-80:-80) py(-100:100)(20:20) px(-100:100)(-80:-80) py(-100:100)(40:40)
px(-100:100)(-60:-60) py(-100:100)(40:40) px(-100:100)(-60:-60) py(-100:100)(20:20)
px(-100:100)(-40:-40) py(-100:100)(20:20) px(-100:100)(-40:-40) py(-100:100)(40:40)
px(-100:100)(-20:-20) py(-100:100)(40:40) px(-100:100)(-20:-20) py(-100:100)(20:20)
px(-100:100)(0:0) py(-100:100)(20:20) px(-100:100)(0:0) py(-100:100)(40:40)
px(-100:100)(20:20) py(-100:100)(40:40) px(-100:100)(20:20) py(-100:100)(20:20)
px(-100:100)(40:40) py(-100:100)(20:20) px(-100:100)(40:40) py(-100:100)(40:40)
px(-100:100)(60:60) py(-100:100)(40:40) px(-100:100)(60:60) py(-100:100)(20:20)
px(-100:100)(80:80) py(-100:100)(20:20) px(-100:100)(80:80) py(-100:100)(40:40)
px(-100:100)(100:100) py(-100:100)(40:40), f 23;
#X obj 1214 163 drawpolygon c 1 px(-100:100)(-100:-100) py(-100:100)(40:40)
px(-100:100)(-80:-80) py(-100:100)(40:40) px(-100:100)(-80:-80) py(-100:100)(60:60)
px(-100:100)(-60:-60) py(-100:100)(60:60) px(-100:100)(-60:-60) py(-100:100)(40:40)
px(-100:100)(-40:-40) py(-100:100)(40:40) px(-100:100)(-40:-40) py(-100:100)(60:60)
px(-100:100)(-20:-20) py(-100:100)(60:60) px(-100:100)(-20:-20) py(-100:100)(40:40)
px(-100:100)(0:0) py(-100:100)(40:40) px(-100:100)(0:0) py(-100:100)(60:60)
px(-100:100)(20:20) py(-100:100)(60:60) px(-100:100)(20:20) py(-100:100)(40:40)
px(-100:100)(40:40) py(-100:100)(40:40) px(-100:100)(40:40) py(-100:100)(60:60)
px(-100:100)(60:60) py(-100:100)(60:60) px(-100:100)(60:60) py(-100:100)(40:40)
px(-100:100)(80:80) py(-100:100)(40:40) px(-100:100)(80:80) py(-100:100)(60:60)
px(-100:100)(100:100) py(-100:100)(60:60), f 23;
#X obj 1383 162 drawpolygon c 1 px(-100:100)(-100:-100) py(-100:100)(60:60)
px(-100:100)(-80:-80) py(-100:100)(60:60) px(-100:100)(-80:-80) py(-100:100)(80:80)
px(-100:100)(-60:-60) py(-100:100)(80:80) px(-100:100)(-60:-60) py(-100:100)(60:60)
px(-100:100)(-40:-40) py(-100:100)(60:60) px(-100:100)(-40:-40) py(-100:100)(80:80)
px(-100:100)(-20:-20) py(-100:100)(80:80) px(-100:100)(-20:-20) py(-100:100)(60:60)
px(-100:100)(0:0) py(-100:100)(60:60) px(-100:100)(0:0) py(-100:100)(80:80)
px(-100:100)(20:20) py(-100:100)(80:80) px(-100:100)(20:20) py(-100:100)(60:60)
px(-100:100)(40:40) py(-100:100)(60:60) px(-100:100)(40:40) py(-100:100)(80:80)
px(-100:100)(60:60) py(-100:100)(80:80) px(-100:100)(60:60) py(-100:100)(60:60)
px(-100:100)(80:80) py(-100:100)(60:60) px(-100:100)(80:80) py(-100:100)(80:80)
px(-100:100)(100:100) py(-100:100)(80:80), f 23;
#X obj 1552 163 drawpolygon c 1 px(-100:100)(-100:-100) py(-100:100)(80:80)
px(-100:100)(-80:-80) py(-100:100)(80:80) px(-100:100)(-80:-80) py(-100:100)(100:100)
px(-100:100)(-60:-60) py(-100:100)(100:100) px(-100:100)(-60:-60) py(-100:100)(80:80)
px(-100:100)(-40:-40) py(-100:100)(80:80) px(-100:100)(-40:-40) py(-100:100)(100:100)
px(-100:100)(-20:-20) py(-100:100)(100:100) px(-100:100)(-20:-20) py(-100:100)(80:80)
px(-100:100)(0:0) py(-100:100)(80:80) px(-100:100)(0:0) py(-100:100)(100:100)
px(-100:100)(20:20) py(-100:100)(100:100) px(-100:100)(20:20) py(-100:100)(80:80)
px(-100:100)(40:40) py(-100:100)(80:80) px(-100:100)(40:40) py(-100:100)(100:100)
px(-100:100)(60:60) py(-100:100)(100:100) px(-100:100)(60:60) py(-100:100)(80:80)
px(-100:100)(80:80) py(-100:100)(80:80) px(-100:100)(80:80) py(-100:100)(100:100)
px(-100:100)(100:100) py(-100:100)(100:100), f 23;
#X obj 46 52 outlet;
#X text 475 89 background;
#X obj 44 79 filledpolygon -x c3 c4 w3 -100 -100 100 -100 100 100 -100
100 -100 -100;
#X obj 1195 8 inlet;
#X obj 769 48 filledpolygon -x c c 1 -100 -100 -78 -100 -78 -96 -100
-96 -100 -100;
#X obj 1195 31 route markers wedge;
#X obj 1068 73 filledpolygon -x c c 1 -100 100 -78 100 -78 96 -100
96 -100 100;
#X obj 742 109 tgl 15 0 empty empty empty 17 7 0 10 -262144 -1 -1 0
1;
#X obj 46 20 struct \$0-dial float p1x float p1y float p2x float p2y
float c1 float c2 float px float py float c float c3 float c4 float
w1 float w2 float w3 float g float g2 float wc float wlc float wlw
, f 96;
#X obj 770 122 filledpolygon -x wc wc wlw g2 90 0 0 g 90;
#X obj 771 144 drawpolygon -x wlc wlw 0 0 g2 90 g 90 0 0 g2 90;
#X obj 41 128 drawpolygon -x c1 w1 p1x p1y p2x p2y p1x p1y;
#X obj 361 127 drawpolygon -x c1 w1 p2x p2y p1x p1y p2x p2y;
#X obj 33 711 drawpolygon c2 c w2 px(-100:100)(8.15497:8.15497) py(-100:100)(89.7845:89.7845)
px(-100:100)(14.2798:14.2798) py(-100:100)(89.139:89.139) px(-100:100)(20.3445:20.3445)
py(-100:100)(88.0667:88.0667) px(-100:100)(26.3193:26.3193) py(-100:100)(86.5729:86.5729)
px(-100:100)(32.175:32.175) py(-100:100)(84.6648:84.6648) px(-100:100)(37.8829:37.8829)
py(-100:100)(82.3518:82.3518) px(-100:100)(43.4151:43.4151) py(-100:100)(79.6453:79.6453)
px(-100:100)(48.7444:48.7444) py(-100:100)(76.5584:76.5584) px(-100:100)(53.8447:53.8447)
py(-100:100)(73.1064:73.1064) px(-100:100)(58.6912:58.6912) py(-100:100)(69.3061:69.3061)
px(-100:100)(63.2599:63.2599) py(-100:100)(65.1761:65.1761) px(-100:100)(67.5286:67.5286)
py(-100:100)(60.7367:60.7367) px(-100:100)(71.4763:71.4763) py(-100:100)(56.0096:56.0096)
px(-100:100)(75.0838:75.0838) py(-100:100)(51.018:51.018) px(-100:100)(78.3332:78.3332)
py(-100:100)(45.7863:45.7863) px(-100:100)(81.2088:81.2088) py(-100:100)(40.3401:40.3401)
px(-100:100)(83.6965:83.6965) py(-100:100)(34.7061:34.7061) px(-100:100)(85.784:85.784)
py(-100:100)(28.9119:28.9119) px(-100:100)(87.4611:87.4611) py(-100:100)(22.9859:22.9859)
px(-100:100)(88.7196:88.7196) py(-100:100)(16.9571:16.9571) px(-100:100)(89.5533:89.5533)
py(-100:100)(10.855:10.855) px(-100:100)(89.9583:89.9583) py(-100:100)(4.70962:4.70962)
px(-100:100)(89.9324:89.9324) py(-100:100)(-1.44907:-1.44907) px(-100:100)(89.4758:89.4758)
py(-100:100)(-7.59087:-7.59087) px(-100:100)(88.5908:88.5908) py(-100:100)(-13.6857:-13.6857)
px(-100:100)(87.2816:87.2816) py(-100:100)(-19.7037:-19.7037) px(-100:100)(85.5547:85.5547)
py(-100:100)(-25.6154:-25.6154) px(-100:100)(83.4186:83.4186) py(-100:100)(-31.3918:-31.3918)
px(-100:100)(80.8837:80.8837) py(-100:100)(-37.0047:-37.0047) px(-100:100)(77.9624:77.9624)
py(-100:100)(-42.4265:-42.4265) px(-100:100)(74.6691:74.6691) py(-100:100)(-47.6307:-47.6307)
px(-100:100)(71.0198:71.0198) py(-100:100)(-52.5919:-52.5919) px(-100:100)(67.0324:67.0324)
py(-100:100)(-57.2856:-57.2856) px(-100:100)(62.7266:62.7266) py(-100:100)(-61.689:-61.689)
px(-100:100)(58.1233:58.1233) py(-100:100)(-65.7804:-65.7804) px(-100:100)(53.2451:53.2451)
py(-100:100)(-69.5398:-69.5398) px(-100:100)(48.1159:48.1159) py(-100:100)(-72.9488:-72.9488)
px(-100:100)(42.7608:42.7608) py(-100:100)(-75.9907:-75.9907) px(-100:100)(37.2061:37.2061)
py(-100:100)(-78.6507:-78.6507) px(-100:100)(31.479:31.479) py(-100:100)(-80.9156:-80.9156)
px(-100:100)(25.6074:25.6074) py(-100:100)(-82.7743:-82.7743) px(-100:100)(19.6203:19.6203)
py(-100:100)(-84.2179:-84.2179) px(-100:100)(13.5468:13.5468) py(-100:100)(-85.2392:-85.2392)
px(-100:100)(7.41675:7.41675) py(-100:100)(-85.8331:-85.8331) px(-100:100)(1.2602:1.2602)
py(-100:100)(-85.9969:-85.9969) px(-100:100)(-4.89274:-4.89274) py(-100:100)(-85.7296:-85.7296)
px(-100:100)(-11.0119:-11.0119) py(-100:100)(-85.0327:-85.0327) px(-100:100)(-17.0674:-17.0674)
py(-100:100)(-83.9095:-83.9095) px(-100:100)(-23.0294:-23.0294) py(-100:100)(-82.3654:-82.3654)
px(-100:100)(-28.8689:-28.8689) py(-100:100)(-80.4082:-80.4082) px(-100:100)(-34.5571:-34.5571)
py(-100:100)(-78.0473:-78.0473) px(-100:100)(-40.0663:-40.0663) py(-100:100)(-75.2944:-75.2944)
px(-100:100)(-45.3695:-45.3695) py(-100:100)(-72.1629:-72.1629) px(-100:100)(-50.4406:-50.4406)
py(-100:100)(-68.6681:-68.6681) px(-100:100)(-55.2549:-55.2549) py(-100:100)(-64.8272:-64.8272)
px(-100:100)(-59.7888:-59.7888) py(-100:100)(-60.659:-60.659) px(-100:100)(-64.02:-64.02)
py(-100:100)(-56.1838:-56.1838) px(-100:100)(-67.9279:-67.9279) py(-100:100)(-51.4237:-51.4237)
px(-100:100)(-71.4933:-71.4933) py(-100:100)(-46.4019:-46.4019) px(-100:100)(-74.6986:-74.6986)
py(-100:100)(-41.143:-41.143) px(-100:100)(-77.5284:-77.5284) py(-100:100)(-35.6728:-35.6728)
px(-100:100)(-79.9685:-79.9685) py(-100:100)(-30.0181:-30.0181) px(-100:100)(-82.0072:-82.0072)
py(-100:100)(-24.2066:-24.2066) px(-100:100)(-83.6345:-83.6345) py(-100:100)(-18.2667:-18.2667)
px(-100:100)(-84.8423:-84.8423) py(-100:100)(-12.2275:-12.2275) px(-100:100)(-85.6247:-85.6247)
py(-100:100)(-6.11864:-6.11864) px(-100:100)(-85.9779:-85.9779) py(-100:100)(0.0299814:0.0299814)
px(-100:100)(-85.9003:-85.9003) py(-100:100)(6.18825:6.18825) px(-100:100)(-85.3921:-85.3921)
py(-100:100)(12.326:12.326) px(-100:100)(-84.4558:-84.4558) py(-100:100)(18.4132:18.4132)
px(-100:100)(-83.0961:-83.0961) py(-100:100)(24.42:24.42) px(-100:100)(-81.3196:-81.3196)
py(-100:100)(30.3169:30.3169) px(-100:100)(-79.1349:-79.1349) py(-100:100)(36.0752:36.0752)
px(-100:100)(-76.5529:-76.5529) py(-100:100)(41.6666:41.6666) px(-100:100)(-73.5862:-73.5862)
py(-100:100)(47.0637:47.0637) px(-100:100)(-70.2491:-70.2491) py(-100:100)(52.24:52.24)
px(-100:100)(-66.5583:-66.5583) py(-100:100)(57.1703:57.1703) px(-100:100)(-62.5316:-62.5316)
py(-100:100)(61.8304:61.8304) px(-100:100)(-58.1888:-58.1888) py(-100:100)(66.1974:66.1974)
px(-100:100)(-53.5513:-53.5513) py(-100:100)(70.25:70.25) px(-100:100)(-48.6416:-48.6416)
py(-100:100)(73.9682:73.9682) px(-100:100)(-43.4839:-43.4839) py(-100:100)(77.334:77.334)
px(-100:100)(-38.1034:-38.1034) py(-100:100)(80.3308:80.3308) px(-100:100)(-32.5265:-32.5265)
py(-100:100)(82.9439:82.9439) px(-100:100)(-26.7805:-26.7805) py(-100:100)(85.1606:85.1606)
px(-100:100)(-20.8935:-20.8935) py(-100:100)(86.9699:86.9699) px(-100:100)(-14.8944:-14.8944)
py(-100:100)(88.3631:88.3631) px(-100:100)(-8.81255:-8.81255) py(-100:100)(89.3332:89.3332)
px(-100:100)(-2.67772:-2.67772) py(-100:100)(89.8756:89.8756) px(-100:100)(3.48002:3.48002)
py(-100:100)(89.9876:89.9876) px(-100:100)(9.63051:9.63051) py(-100:100)(89.6686:89.6686)
;
#X connect 13 0 15 0;
#X connect 15 0 14 0;
#X connect 15 0 16 0;
#X connect 15 1 20 0;
#X connect 15 1 19 0;
#X connect 17 0 19 0;
#X connect 18 0 10 0;
#X restore 619 325 pd huge-template;
#X obj 619 353 unpack s p f;
#X obj 732 587 +;
#X obj 678 587 float;
#X obj 653 375 get \$0-dial py;
#X msg 712 520 0;
#X obj 729 552 t b f;
#X obj 649 23 inlet;
#X obj 297 313 delay 10;
#X msg 297 335 100;
#X floatatom 1244 69 5 10 150 0 scale - -;
#X obj 280 697 + 2;
#X obj 320 697 + 2;
#X obj 360 697 + 2;
#X obj 400 697 + 2;
#X obj 280 676 * 82;
#X obj 320 676 * 82;
#X obj 1244 109 s pd-\$0-graph;
#X obj 1244 162 s \$0-base;
#X msg 1244 88 donecanvasdialog 1 -1 2 -100 -100 100 100 \$1 \$1 0
0 \, dirty 0;
#X obj 459 24 namecanvas \$0-base;
#X obj 1231 312 r \$0-pointer;
#X floatatom 885 163 5 0 999 1 circle-border-colour - -;
#X obj 885 313 pack f f f f f f f f;
#X floatatom 904 181 5 0 999 1 needle-colour - -;
#X floatatom 924 200 5 0 999 1 face-colour - -;
#X floatatom 943 220 5 0 999 1 background-colour - -;
#X floatatom 963 240 5 0 999 1 box-colour - -;
#X obj 835 275 bang;
#X floatatom 982 260 5 0 20 1 needle-width - -;
#X floatatom 1002 277 5 0 20 1 circle-border-width - -;
#X floatatom 1022 293 5 0 20 1 box-border-width - -;
#X floatatom 160 661 5 -150 150 1 needle-size - -;
#X floatatom 437 512 5 -150 150 1 needle-centre - -;
#X obj 280 400 bang;
#X obj 1102 89 s \$0-inlet-val;
#X obj 551 429 r \$0-inlet-val;
#X obj 649 78 s \$0-size;
#X obj 1244 48 r \$0-size;
#X obj 675 99 s \$0-min;
#X obj 702 120 s \$0-max;
#X obj 160 636 r \$0-nsize;
#X obj 437 488 r \$0-ncent;
#X obj 1075 140 s \$0-gap;
#X obj 1022 117 s \$0-ncent;
#X obj 994 94 s \$0-nsize;
#X obj 578 478 -;
#X msg 578 454 100 \$1;
#X obj 578 501 mod 100;
#X msg 297 217 0 0 0 0 0 999 0 0 0 999 999 3 2 1 0;
#X obj 1273 197 r \$0-gap;
#X obj 1321 284 * -1;
#X obj 1321 259 * 5;
#X msg 619 295 markers \$1;
#X msg 1125 192 wedge \$1;
#X obj 1125 167 != 0;
#X obj 1160 114 loadbang;
#X msg 1160 138 0;
#X obj 1293 258 * 5;
#X obj 1275 232 t b f f;
#X obj 297 238 append \$0-dial p1x p1y p2x p2y c1 c2 px py c c3 c4
w1 w2 w3 g g2 wc wlc wlw, f 67;
#X obj 649 44 route size min max ccol ncol fcol bgcol bxcol nwide cbwide
bbwide nsize ncent marks gap wedge wcol wlcol wlw;
#X obj 884 341 set \$0-dial c c1 c2 c3 c4 w1 w2 w3 g g2 wc wlc wlw
;
#X obj 826 230 t b b b;
#N canvas 0 50 450 707 \$0-graph 0;
#X scalar 1223-dial -3.14883 -79.8382 1.93721 1.00197 0 999 15.3845
-50.7687 0 999 999 3 2 1 0 0 0 0 0 \;;
#X coords -100 -100 100 100 130 130 2 0 0;
#X restore 10 10 pd \$0-graph;
#X obj 898 398 t f f;
#X obj 952 461 f;
#X obj 952 440 t f b;
#X obj 925 419 t f f;
#X obj 925 482 -;
#X obj 925 502 t f f;
#X obj 915 544 sel 0;
#X obj 915 591 spigot;
#X msg 915 565 0;
#X obj 925 523 t f f;
#X msg 952 565 1;
#X obj 915 717 i;
#X obj 726 633 clip 0 100;
#X obj 712 499 t b b;
#X obj 915 612 / 2;
#X obj 985 554 r \$0-size;
#X obj 985 596 /;
#X obj 726 654 outlet;
#X msg 985 575 200 \$1;
#X obj 915 633 t f f;
#X obj 942 675 - 0.5;
#X obj 942 654 > 0;
#X obj 915 696 +;
#X obj 322 504 loadbang;
#X obj 322 546 atan;
#X msg 322 525 1;
#X obj 322 567 * 8;
#X obj 280 604 *;
#X obj 322 588 / 100;
#X msg 1244 129 donecanvasdialog 1 -1 2 -100 -100 100 100 \$1 \$1 10
10 \, dirty 0;
#X floatatom 915 738 5 0 0 0 - - -;
#X floatatom 1070 15 5 0 0 0 - - -;
#X obj 1070 35 list prepend gap;
#X connect 0 0 34 0;
#X connect 1 0 35 0;
#X connect 2 0 18 0;
#X connect 3 0 2 0;
#X connect 5 0 6 0;
#X connect 6 0 79 19;
#X connect 7 0 27 0;
#X connect 7 1 16 0;
#X connect 8 0 13 0;
#X connect 9 0 14 0;
#X connect 10 0 17 0;
#X connect 11 0 111 0;
#X connect 12 0 0 0;
#X connect 12 1 1 0;
#X connect 12 2 8 0;
#X connect 12 3 9 0;
#X connect 13 0 32 0;
#X connect 14 0 33 0;
#X connect 15 0 17 4;
#X connect 18 1 68 0;
#X connect 18 2 5 0;
#X connect 18 3 4 0;
#X connect 19 0 20 0;
#X connect 20 1 23 0;
#X connect 21 0 96 0;
#X connect 22 0 21 0;
#X connect 22 0 11 0;
#X connect 23 0 84 0;
#X connect 24 0 25 0;
#X connect 25 0 22 0;
#X connect 25 1 21 1;
#X connect 26 0 80 0;
#X connect 27 0 28 0;
#X connect 28 0 22 0;
#X connect 29 0 113 0;
#X connect 29 0 38 0;
#X connect 30 0 10 0;
#X connect 31 0 10 1;
#X connect 32 0 10 2;
#X connect 33 0 10 3;
#X connect 34 0 30 0;
#X connect 35 0 31 0;
#X connect 38 0 36 0;
#X connect 40 0 81 13;
#X connect 41 0 42 0;
#X connect 42 0 81 0;
#X connect 43 0 42 1;
#X connect 43 0 47 0;
#X connect 44 0 42 2;
#X connect 44 0 47 0;
#X connect 45 0 42 3;
#X connect 45 0 47 0;
#X connect 46 0 42 4;
#X connect 46 0 47 0;
#X connect 47 0 42 0;
#X connect 48 0 42 5;
#X connect 48 0 47 0;
#X connect 49 0 42 6;
#X connect 49 0 47 0;
#X connect 50 0 42 7;
#X connect 50 0 47 0;
#X connect 51 0 35 1;
#X connect 51 0 34 1;
#X connect 51 0 53 0;
#X connect 52 0 14 1;
#X connect 52 0 13 1;
#X connect 52 0 53 0;
#X connect 53 0 11 0;
#X connect 55 0 66 0;
#X connect 57 0 29 0;
#X connect 60 0 51 0;
#X connect 61 0 52 0;
#X connect 65 0 67 0;
#X connect 66 0 65 0;
#X connect 67 0 22 0;
#X connect 68 0 79 0;
#X connect 69 0 78 0;
#X connect 70 0 81 8;
#X connect 71 0 70 0;
#X connect 72 0 19 0;
#X connect 73 0 19 0;
#X connect 74 0 73 0;
#X connect 75 0 76 0;
#X connect 76 0 74 0;
#X connect 77 0 81 9;
#X connect 78 0 47 0;
#X connect 78 1 77 0;
#X connect 78 2 71 0;
#X connect 79 0 7 0;
#X connect 80 0 56 0;
#X connect 80 1 58 0;
#X connect 80 2 59 0;
#X connect 80 3 41 0;
#X connect 80 4 43 0;
#X connect 80 5 44 0;
#X connect 80 6 45 0;
#X connect 80 7 46 0;
#X connect 80 8 48 0;
#X connect 80 9 49 0;
#X connect 80 10 50 0;
#X connect 80 11 64 0;
#X connect 80 12 63 0;
#X connect 80 13 72 0;
#X connect 80 14 62 0;
#X connect 80 14 74 0;
#X connect 80 15 73 0;
#X connect 80 16 82 0;
#X connect 80 16 81 10;
#X connect 80 17 82 0;
#X connect 80 17 81 11;
#X connect 80 18 82 0;
#X connect 80 18 81 12;
#X connect 80 19 54 0;
#X connect 82 0 47 0;
#X connect 82 1 47 0;
#X connect 82 2 47 0;
#X connect 84 0 97 0;
#X connect 84 1 87 0;
#X connect 85 0 88 1;
#X connect 86 0 85 1;
#X connect 86 1 85 0;
#X connect 87 0 88 0;
#X connect 87 1 86 0;
#X connect 88 0 89 0;
#X connect 89 0 93 0;
#X connect 89 1 91 0;
#X connect 90 0 92 0;
#X connect 91 0 98 0;
#X connect 92 0 91 1;
#X connect 93 0 90 0;
#X connect 93 1 94 0;
#X connect 94 0 91 1;
#X connect 95 0 21 1;
#X connect 95 0 114 0;
#X connect 96 0 22 1;
#X connect 96 0 101 0;
#X connect 97 0 24 0;
#X connect 97 1 22 0;
#X connect 98 0 103 0;
#X connect 99 0 102 0;
#X connect 100 0 98 1;
#X connect 102 0 100 0;
#X connect 103 0 106 0;
#X connect 103 1 105 0;
#X connect 104 0 106 1;
#X connect 105 0 104 0;
#X connect 106 0 95 0;
#X connect 107 0 109 0;
#X connect 108 0 110 0;
#X connect 109 0 108 0;
#X connect 110 0 112 0;
#X connect 111 0 12 0;
#X connect 112 0 111 1;
#X connect 113 0 37 0;
#X connect 115 0 116 0;
#X connect 116 0 80 0;
#X coords -100 -100 100 100 130 130 2 10 10;
