#N canvas 145 174 1775 884 10;
#X obj 280 112 f \$0;
#X obj 280 91 loadbang;
#X msg 390 161 \; pd-\$1-graph clear;
#X msg 314 196 traverse pd-\$1-graph \, bang;
#X obj 696 217 pointer;
#X obj 297 271 t b p;
#X obj 481 551 pack f f f f;
#X obj 481 453 t f f f f;
#X obj 561 504 * 1;
#X obj 601 504 * 1;
#X obj 640 551 r \$0-pointer;
#X obj 324 292 s \$0-pointer;
#X obj 481 572 set \$0-dial p1x p1y p2x p2y;
#X obj 280 133 t b b f f;
#N canvas 117 483 1803 575 huge-template 0;
#X obj 46 52 outlet;
#X text 475 89 background;
#X obj 1195 8 inlet;
#X obj 1195 31 route markers wedge;
#X obj 33 163 drawpolygon c 1 px(-100:100)(-100:-100) py(-100:100)(-100:-100)
px(-100:100)(-80:-80) py(-100:100)(-100:-100) px(-100:100)(-80:-80)
py(-100:100)(-80:-80) px(-100:100)(-60:-60) py(-100:100)(-80:-80) px(-100:100)(-60:-60)
py(-100:100)(-100:-100) px(-100:100)(-40:-40) py(-100:100)(-100:-100)
px(-100:100)(-40:-40) py(-100:100)(-80:-80) px(-100:100)(-20:-20) py(-100:100)(-80:-80)
px(-100:100)(-20:-20) py(-100:100)(-100:-100) px(-100:100)(0:0) py(-100:100)(-100:-100)
px(-100:100)(0:0) py(-100:100)(-80:-80) px(-100:100)(20:20) py(-100:100)(-80:-80)
px(-100:100)(20:20) py(-100:100)(-100:-100) px(-100:100)(40:40) py(-100:100)(-100:-100)
px(-100:100)(40:40) py(-100:100)(-80:-80) px(-100:100)(60:60) py(-100:100)(-80:-80)
px(-100:100)(60:60) py(-100:100)(-100:-100) px(-100:100)(80:80) py(-100:100)(-100:-100)
px(-100:100)(80:80) py(-100:100)(-80:-80) px(-100:100)(100:100) py(-100:100)(-80:-80)
, f 23;
#X obj 201 163 drawpolygon c 1 px(-100:100)(-100:-100) py(-100:100)(-80:-80)
px(-100:100)(-80:-80) py(-100:100)(-80:-80) px(-100:100)(-80:-80) py(-100:100)(-60:-60)
px(-100:100)(-60:-60) py(-100:100)(-60:-60) px(-100:100)(-60:-60) py(-100:100)(-80:-80)
px(-100:100)(-40:-40) py(-100:100)(-80:-80) px(-100:100)(-40:-40) py(-100:100)(-60:-60)
px(-100:100)(-20:-20) py(-100:100)(-60:-60) px(-100:100)(-20:-20) py(-100:100)(-80:-80)
px(-100:100)(0:0) py(-100:100)(-80:-80) px(-100:100)(0:0) py(-100:100)(-60:-60)
px(-100:100)(20:20) py(-100:100)(-60:-60) px(-100:100)(20:20) py(-100:100)(-80:-80)
px(-100:100)(40:40) py(-100:100)(-80:-80) px(-100:100)(40:40) py(-100:100)(-60:-60)
px(-100:100)(60:60) py(-100:100)(-60:-60) px(-100:100)(60:60) py(-100:100)(-80:-80)
px(-100:100)(80:80) py(-100:100)(-80:-80) px(-100:100)(80:80) py(-100:100)(-60:-60)
px(-100:100)(100:100) py(-100:100)(-60:-60), f 23;
#X obj 370 163 drawpolygon c 1 px(-100:100)(-100:-100) py(-100:100)(-60:-60)
px(-100:100)(-80:-80) py(-100:100)(-60:-60) px(-100:100)(-80:-80) py(-100:100)(-40:-40)
px(-100:100)(-60:-60) py(-100:100)(-40:-40) px(-100:100)(-60:-60) py(-100:100)(-60:-60)
px(-100:100)(-40:-40) py(-100:100)(-60:-60) px(-100:100)(-40:-40) py(-100:100)(-40:-40)
px(-100:100)(-20:-20) py(-100:100)(-40:-40) px(-100:100)(-20:-20) py(-100:100)(-60:-60)
px(-100:100)(0:0) py(-100:100)(-60:-60) px(-100:100)(0:0) py(-100:100)(-40:-40)
px(-100:100)(20:20) py(-100:100)(-40:-40) px(-100:100)(20:20) py(-100:100)(-60:-60)
px(-100:100)(40:40) py(-100:100)(-60:-60) px(-100:100)(40:40) py(-100:100)(-40:-40)
px(-100:100)(60:60) py(-100:100)(-40:-40) px(-100:100)(60:60) py(-100:100)(-60:-60)
px(-100:100)(80:80) py(-100:100)(-60:-60) px(-100:100)(80:80) py(-100:100)(-40:-40)
px(-100:100)(100:100) py(-100:100)(-40:-40), f 23;
#X obj 539 163 drawpolygon c 1 px(-100:100)(-100:-100) py(-100:100)(-40:-40)
px(-100:100)(-80:-80) py(-100:100)(-40:-40) px(-100:100)(-80:-80) py(-100:100)(-20:-20)
px(-100:100)(-60:-60) py(-100:100)(-20:-20) px(-100:100)(-60:-60) py(-100:100)(-40:-40)
px(-100:100)(-40:-40) py(-100:100)(-40:-40) px(-100:100)(-40:-40) py(-100:100)(-20:-20)
px(-100:100)(-20:-20) py(-100:100)(-20:-20) px(-100:100)(-20:-20) py(-100:100)(-40:-40)
px(-100:100)(0:0) py(-100:100)(-40:-40) px(-100:100)(0:0) py(-100:100)(-20:-20)
px(-100:100)(20:20) py(-100:100)(-20:-20) px(-100:100)(20:20) py(-100:100)(-40:-40)
px(-100:100)(40:40) py(-100:100)(-40:-40) px(-100:100)(40:40) py(-100:100)(-20:-20)
px(-100:100)(60:60) py(-100:100)(-20:-20) px(-100:100)(60:60) py(-100:100)(-40:-40)
px(-100:100)(80:80) py(-100:100)(-40:-40) px(-100:100)(80:80) py(-100:100)(-20:-20)
px(-100:100)(100:100) py(-100:100)(-20:-20), f 23;
#X obj 708 162 drawpolygon c 1 px(-100:100)(-100:-100) py(-100:100)(-20:-20)
px(-100:100)(-80:-80) py(-100:100)(-20:-20) px(-100:100)(-80:-80) py(-100:100)(-0:-0)
px(-100:100)(-60:-60) py(-100:100)(-0:-0) px(-100:100)(-60:-60) py(-100:100)(-20:-20)
px(-100:100)(-40:-40) py(-100:100)(-20:-20) px(-100:100)(-40:-40) py(-100:100)(-0:-0)
px(-100:100)(-20:-20) py(-100:100)(-0:-0) px(-100:100)(-20:-20) py(-100:100)(-20:-20)
px(-100:100)(0:0) py(-100:100)(-20:-20) px(-100:100)(0:0) py(-100:100)(-0:-0)
px(-100:100)(20:20) py(-100:100)(-0:-0) px(-100:100)(20:20) py(-100:100)(-20:-20)
px(-100:100)(40:40) py(-100:100)(-20:-20) px(-100:100)(40:40) py(-100:100)(-0:-0)
px(-100:100)(60:60) py(-100:100)(-0:-0) px(-100:100)(60:60) py(-100:100)(-20:-20)
px(-100:100)(80:80) py(-100:100)(-20:-20) px(-100:100)(80:80) py(-100:100)(-0:-0)
px(-100:100)(100:100) py(-100:100)(-0:-0), f 23;
#X obj 878 163 drawpolygon c 1 px(-100:100)(-100:-100) py(-100:100)(0:0)
px(-100:100)(-80:-80) py(-100:100)(0:0) px(-100:100)(-80:-80) py(-100:100)(20:20)
px(-100:100)(-60:-60) py(-100:100)(20:20) px(-100:100)(-60:-60) py(-100:100)(0:0)
px(-100:100)(-40:-40) py(-100:100)(0:0) px(-100:100)(-40:-40) py(-100:100)(20:20)
px(-100:100)(-20:-20) py(-100:100)(20:20) px(-100:100)(-20:-20) py(-100:100)(0:0)
px(-100:100)(0:0) py(-100:100)(0:0) px(-100:100)(0:0) py(-100:100)(20:20)
px(-100:100)(20:20) py(-100:100)(20:20) px(-100:100)(20:20) py(-100:100)(0:0)
px(-100:100)(40:40) py(-100:100)(0:0) px(-100:100)(40:40) py(-100:100)(20:20)
px(-100:100)(60:60) py(-100:100)(20:20) px(-100:100)(60:60) py(-100:100)(0:0)
px(-100:100)(80:80) py(-100:100)(0:0) px(-100:100)(80:80) py(-100:100)(20:20)
px(-100:100)(100:100) py(-100:100)(20:20), f 23;
#X obj 1046 163 drawpolygon c 1 px(-100:100)(-100:-100) py(-100:100)(20:20)
px(-100:100)(-80:-80) py(-100:100)(20:20) px(-100:100)(-80:-80) py(-100:100)(40:40)
px(-100:100)(-60:-60) py(-100:100)(40:40) px(-100:100)(-60:-60) py(-100:100)(20:20)
px(-100:100)(-40:-40) py(-100:100)(20:20) px(-100:100)(-40:-40) py(-100:100)(40:40)
px(-100:100)(-20:-20) py(-100:100)(40:40) px(-100:100)(-20:-20) py(-100:100)(20:20)
px(-100:100)(0:0) py(-100:100)(20:20) px(-100:100)(0:0) py(-100:100)(40:40)
px(-100:100)(20:20) py(-100:100)(40:40) px(-100:100)(20:20) py(-100:100)(20:20)
px(-100:100)(40:40) py(-100:100)(20:20) px(-100:100)(40:40) py(-100:100)(40:40)
px(-100:100)(60:60) py(-100:100)(40:40) px(-100:100)(60:60) py(-100:100)(20:20)
px(-100:100)(80:80) py(-100:100)(20:20) px(-100:100)(80:80) py(-100:100)(40:40)
px(-100:100)(100:100) py(-100:100)(40:40), f 23;
#X obj 1214 163 drawpolygon c 1 px(-100:100)(-100:-100) py(-100:100)(40:40)
px(-100:100)(-80:-80) py(-100:100)(40:40) px(-100:100)(-80:-80) py(-100:100)(60:60)
px(-100:100)(-60:-60) py(-100:100)(60:60) px(-100:100)(-60:-60) py(-100:100)(40:40)
px(-100:100)(-40:-40) py(-100:100)(40:40) px(-100:100)(-40:-40) py(-100:100)(60:60)
px(-100:100)(-20:-20) py(-100:100)(60:60) px(-100:100)(-20:-20) py(-100:100)(40:40)
px(-100:100)(0:0) py(-100:100)(40:40) px(-100:100)(0:0) py(-100:100)(60:60)
px(-100:100)(20:20) py(-100:100)(60:60) px(-100:100)(20:20) py(-100:100)(40:40)
px(-100:100)(40:40) py(-100:100)(40:40) px(-100:100)(40:40) py(-100:100)(60:60)
px(-100:100)(60:60) py(-100:100)(60:60) px(-100:100)(60:60) py(-100:100)(40:40)
px(-100:100)(80:80) py(-100:100)(40:40) px(-100:100)(80:80) py(-100:100)(60:60)
px(-100:100)(100:100) py(-100:100)(60:60), f 23;
#X obj 1383 162 drawpolygon c 1 px(-100:100)(-100:-100) py(-100:100)(60:60)
px(-100:100)(-80:-80) py(-100:100)(60:60) px(-100:100)(-80:-80) py(-100:100)(80:80)
px(-100:100)(-60:-60) py(-100:100)(80:80) px(-100:100)(-60:-60) py(-100:100)(60:60)
px(-100:100)(-40:-40) py(-100:100)(60:60) px(-100:100)(-40:-40) py(-100:100)(80:80)
px(-100:100)(-20:-20) py(-100:100)(80:80) px(-100:100)(-20:-20) py(-100:100)(60:60)
px(-100:100)(0:0) py(-100:100)(60:60) px(-100:100)(0:0) py(-100:100)(80:80)
px(-100:100)(20:20) py(-100:100)(80:80) px(-100:100)(20:20) py(-100:100)(60:60)
px(-100:100)(40:40) py(-100:100)(60:60) px(-100:100)(40:40) py(-100:100)(80:80)
px(-100:100)(60:60) py(-100:100)(80:80) px(-100:100)(60:60) py(-100:100)(60:60)
px(-100:100)(80:80) py(-100:100)(60:60) px(-100:100)(80:80) py(-100:100)(80:80)
px(-100:100)(100:100) py(-100:100)(80:80), f 23;
#X obj 1552 163 drawpolygon c 1 px(-100:100)(-100:-100) py(-100:100)(80:80)
px(-100:100)(-80:-80) py(-100:100)(80:80) px(-100:100)(-80:-80) py(-100:100)(100:100)
px(-100:100)(-60:-60) py(-100:100)(100:100) px(-100:100)(-60:-60) py(-100:100)(80:80)
px(-100:100)(-40:-40) py(-100:100)(80:80) px(-100:100)(-40:-40) py(-100:100)(100:100)
px(-100:100)(-20:-20) py(-100:100)(100:100) px(-100:100)(-20:-20) py(-100:100)(80:80)
px(-100:100)(0:0) py(-100:100)(80:80) px(-100:100)(0:0) py(-100:100)(100:100)
px(-100:100)(20:20) py(-100:100)(100:100) px(-100:100)(20:20) py(-100:100)(80:80)
px(-100:100)(40:40) py(-100:100)(80:80) px(-100:100)(40:40) py(-100:100)(100:100)
px(-100:100)(60:60) py(-100:100)(100:100) px(-100:100)(60:60) py(-100:100)(80:80)
px(-100:100)(80:80) py(-100:100)(80:80) px(-100:100)(80:80) py(-100:100)(100:100)
px(-100:100)(100:100) py(-100:100)(100:100), f 23;
#X msg 1003 714 filledpolygon c2 c w2 px(-100:100)(8.15497:8.15497)
py(-100:100)(89.7845:89.7845) px(-100:100)(14.2798:14.2798) py(-100:100)(89.139:89.139)
px(-100:100)(20.3445:20.3445) py(-100:100)(88.0667:88.0667) px(-100:100)(26.3193:26.3193)
py(-100:100)(86.5729:86.5729) px(-100:100)(32.175:32.175) py(-100:100)(84.6648:84.6648)
px(-100:100)(37.8829:37.8829) py(-100:100)(82.3518:82.3518) px(-100:100)(43.4151:43.4151)
py(-100:100)(79.6453:79.6453) px(-100:100)(48.7444:48.7444) py(-100:100)(76.5584:76.5584)
px(-100:100)(53.8447:53.8447) py(-100:100)(73.1064:73.1064) px(-100:100)(58.6912:58.6912)
py(-100:100)(69.3061:69.3061) px(-100:100)(63.2599:63.2599) py(-100:100)(65.1761:65.1761)
px(-100:100)(67.5286:67.5286) py(-100:100)(60.7367:60.7367) px(-100:100)(71.4763:71.4763)
py(-100:100)(56.0096:56.0096) px(-100:100)(75.0838:75.0838) py(-100:100)(51.018:51.018)
px(-100:100)(78.3332:78.3332) py(-100:100)(45.7863:45.7863) px(-100:100)(81.2088:81.2088)
py(-100:100)(40.3401:40.3401) px(-100:100)(83.6965:83.6965) py(-100:100)(34.7061:34.7061)
px(-100:100)(85.784:85.784) py(-100:100)(28.9119:28.9119) px(-100:100)(87.4611:87.4611)
py(-100:100)(22.9859:22.9859) px(-100:100)(88.7196:88.7196) py(-100:100)(16.9571:16.9571)
px(-100:100)(89.5533:89.5533) py(-100:100)(10.855:10.855) px(-100:100)(89.9583:89.9583)
py(-100:100)(4.70962:4.70962) px(-100:100)(89.9324:89.9324) py(-100:100)(-1.44907:-1.44907)
px(-100:100)(89.4758:89.4758) py(-100:100)(-7.59087:-7.59087) px(-100:100)(88.5908:88.5908)
py(-100:100)(-13.6857:-13.6857) px(-100:100)(87.2816:87.2816) py(-100:100)(-19.7037:-19.7037)
px(-100:100)(85.5547:85.5547) py(-100:100)(-25.6154:-25.6154) px(-100:100)(83.4186:83.4186)
py(-100:100)(-31.3918:-31.3918) px(-100:100)(80.8837:80.8837) py(-100:100)(-37.0047:-37.0047)
px(-100:100)(77.9624:77.9624) py(-100:100)(-42.4265:-42.4265) px(-100:100)(74.6691:74.6691)
py(-100:100)(-47.6307:-47.6307) px(-100:100)(71.0198:71.0198) py(-100:100)(-52.5919:-52.5919)
px(-100:100)(67.0324:67.0324) py(-100:100)(-57.2856:-57.2856) px(-100:100)(62.7266:62.7266)
py(-100:100)(-61.689:-61.689) px(-100:100)(58.1233:58.1233) py(-100:100)(-65.7804:-65.7804)
px(-100:100)(53.2451:53.2451) py(-100:100)(-69.5398:-69.5398) px(-100:100)(48.1159:48.1159)
py(-100:100)(-72.9488:-72.9488) px(-100:100)(42.7608:42.7608) py(-100:100)(-75.9907:-75.9907)
px(-100:100)(37.2061:37.2061) py(-100:100)(-78.6507:-78.6507) px(-100:100)(31.479:31.479)
py(-100:100)(-80.9156:-80.9156) px(-100:100)(25.6074:25.6074) py(-100:100)(-82.7743:-82.7743)
px(-100:100)(19.6203:19.6203) py(-100:100)(-84.2179:-84.2179) px(-100:100)(13.5468:13.5468)
py(-100:100)(-85.2392:-85.2392) px(-100:100)(7.41675:7.41675) py(-100:100)(-85.8331:-85.8331)
px(-100:100)(1.2602:1.2602) py(-100:100)(-85.9969:-85.9969) px(-100:100)(-4.89274:-4.89274)
py(-100:100)(-85.7296:-85.7296) px(-100:100)(-11.0119:-11.0119) py(-100:100)(-85.0327:-85.0327)
px(-100:100)(-17.0674:-17.0674) py(-100:100)(-83.9095:-83.9095) px(-100:100)(-23.0294:-23.0294)
py(-100:100)(-82.3654:-82.3654) px(-100:100)(-28.8689:-28.8689) py(-100:100)(-80.4082:-80.4082)
px(-100:100)(-34.5571:-34.5571) py(-100:100)(-78.0473:-78.0473) px(-100:100)(-40.0663:-40.0663)
py(-100:100)(-75.2944:-75.2944) px(-100:100)(-45.3695:-45.3695) py(-100:100)(-72.1629:-72.1629)
px(-100:100)(-50.4406:-50.4406) py(-100:100)(-68.6681:-68.6681) px(-100:100)(-55.2549:-55.2549)
py(-100:100)(-64.8272:-64.8272) px(-100:100)(-59.7888:-59.7888) py(-100:100)(-60.659:-60.659)
px(-100:100)(-64.02:-64.02) py(-100:100)(-56.1838:-56.1838) px(-100:100)(-67.9279:-67.9279)
py(-100:100)(-51.4237:-51.4237) px(-100:100)(-71.4933:-71.4933) py(-100:100)(-46.4019:-46.4019)
px(-100:100)(-74.6986:-74.6986) py(-100:100)(-41.143:-41.143) px(-100:100)(-77.5284:-77.5284)
py(-100:100)(-35.6728:-35.6728) px(-100:100)(-79.9685:-79.9685) py(-100:100)(-30.0181:-30.0181)
px(-100:100)(-82.0072:-82.0072) py(-100:100)(-24.2066:-24.2066) px(-100:100)(-83.6345:-83.6345)
py(-100:100)(-18.2667:-18.2667) px(-100:100)(-84.8423:-84.8423) py(-100:100)(-12.2275:-12.2275)
px(-100:100)(-85.6247:-85.6247) py(-100:100)(-6.11864:-6.11864) px(-100:100)(-85.9779:-85.9779)
py(-100:100)(0.0299814:0.0299814) px(-100:100)(-85.9003:-85.9003) py(-100:100)(6.18825:6.18825)
px(-100:100)(-85.3921:-85.3921) py(-100:100)(12.326:12.326) px(-100:100)(-84.4558:-84.4558)
py(-100:100)(18.4132:18.4132) px(-100:100)(-83.0961:-83.0961) py(-100:100)(24.42:24.42)
px(-100:100)(-81.3196:-81.3196) py(-100:100)(30.3169:30.3169) px(-100:100)(-79.1349:-79.1349)
py(-100:100)(36.0752:36.0752) px(-100:100)(-76.5529:-76.5529) py(-100:100)(41.6666:41.6666)
px(-100:100)(-73.5862:-73.5862) py(-100:100)(47.0637:47.0637) px(-100:100)(-70.2491:-70.2491)
py(-100:100)(52.24:52.24) px(-100:100)(-66.5583:-66.5583) py(-100:100)(57.1703:57.1703)
px(-100:100)(-62.5316:-62.5316) py(-100:100)(61.8304:61.8304) px(-100:100)(-58.1888:-58.1888)
py(-100:100)(66.1974:66.1974) px(-100:100)(-53.5513:-53.5513) py(-100:100)(70.25:70.25)
px(-100:100)(-48.6416:-48.6416) py(-100:100)(73.9682:73.9682) px(-100:100)(-43.4839:-43.4839)
py(-100:100)(77.334:77.334) px(-100:100)(-38.1034:-38.1034) py(-100:100)(80.3308:80.3308)
px(-100:100)(-32.5265:-32.5265) py(-100:100)(82.9439:82.9439) px(-100:100)(-26.7805:-26.7805)
py(-100:100)(85.1606:85.1606) px(-100:100)(-20.8935:-20.8935) py(-100:100)(86.9699:86.9699)
px(-100:100)(-14.8944:-14.8944) py(-100:100)(88.3631:88.3631) px(-100:100)(-8.81255:-8.81255)
py(-100:100)(89.3332:89.3332) px(-100:100)(-2.67772:-2.67772) py(-100:100)(89.8756:89.8756)
px(-100:100)(3.48002:3.48002) py(-100:100)(89.9876:89.9876) px(-100:100)(9.63051:9.63051)
py(-100:100)(89.6686:89.6686);
#X msg 1538 36 filledpolygon -x c3 c4 w3 -100 -100 100 -100 100 100
-100 100 -100 -100;
#X obj 65 83 filledpolygon -x c3 c4 w3 -100 -100 100 -100 100 100 -100
100 -100 -100;
#X obj 41 128 drawpolygon -x c1 w1 p1x p1y p2x p2y p1x p1y;
#X obj 361 127 drawpolygon -x c1 w1 p2x p2y p1x p1y p2x p2y;
#X msg 747 97 filledpolygon -x c3 c4 w3 -100 -100 100 -100 100 100
-100 100 -100 -100;
#X obj 451 726 drawpolygon c w2 px(-100:100)(66.2052:66.2052) py(-100:100)(64.2299:64.2299)
px(-100:100)(69.9614:69.9614) py(-100:100)(60.0979:60.0979) px(-100:100)(73.4479:73.4479)
py(-100:100)(55.7361:55.7361) px(-100:100)(76.6508:76.6508) py(-100:100)(51.1618:51.1618)
px(-100:100)(79.5571:79.5571) py(-100:100)(46.3936:46.3936) px(-100:100)(82.1552:82.1552)
py(-100:100)(41.4507:41.4507) px(-100:100)(84.4345:84.4345) py(-100:100)(36.3529:36.3529)
px(-100:100)(86.386:86.386) py(-100:100)(31.1208:31.1208) px(-100:100)(88.0016:88.0016)
py(-100:100)(25.7757:25.7757) px(-100:100)(89.275:89.275) py(-100:100)(20.3386:20.3386)
px(-100:100)(90.201:90.201) py(-100:100)(14.8318:14.8318) px(-100:100)(90.7758:90.7758)
py(-100:100)(9.27739:9.27739) px(-100:100)(90.9972:90.9972) py(-100:100)(3.6977:3.6977)
px(-100:100)(90.8643:90.8643) py(-100:100)(-1.88483:-1.88483) px(-100:100)(90.3776:90.3776)
py(-100:100)(-7.4477:-7.4477) px(-100:100)(89.5391:89.5391) py(-100:100)(-12.9685:-12.9685)
px(-100:100)(88.352:88.352) py(-100:100)(-18.425:-18.425) px(-100:100)(86.8213:86.8213)
py(-100:100)(-23.7952:-23.7952) px(-100:100)(84.9531:84.9531) py(-100:100)(-29.0576:-29.0576)
px(-100:100)(82.7549:82.7549) py(-100:100)(-34.1908:-34.1908) px(-100:100)(80.2356:80.2356)
py(-100:100)(-39.1743:-39.1743) px(-100:100)(77.4052:77.4052) py(-100:100)(-43.9879:-43.9879)
px(-100:100)(74.2752:74.2752) py(-100:100)(-48.6124:-48.6124) px(-100:100)(70.8583:70.8583)
py(-100:100)(-53.029:-53.029) px(-100:100)(67.1681:67.1681) py(-100:100)(-57.2201:-57.2201)
px(-100:100)(63.2195:63.2195) py(-100:100)(-61.1686:-61.1686) px(-100:100)(59.0285:59.0285)
py(-100:100)(-64.8588:-64.8588) px(-100:100)(54.6118:54.6118) py(-100:100)(-68.2757:-68.2757)
px(-100:100)(49.9873:49.9873) py(-100:100)(-71.4056:-71.4056) px(-100:100)(45.1736:45.1736)
py(-100:100)(-74.2359:-74.2359) px(-100:100)(40.1901:40.1901) py(-100:100)(-76.7552:-76.7552)
px(-100:100)(35.0568:35.0568) py(-100:100)(-78.9534:-78.9534) px(-100:100)(29.7945:29.7945)
py(-100:100)(-80.8216:-80.8216) px(-100:100)(24.4242:24.4242) py(-100:100)(-82.3522:-82.3522)
px(-100:100)(18.9677:18.9677) py(-100:100)(-83.5392:-83.5392) px(-100:100)(13.4469:13.4469)
py(-100:100)(-84.3777:-84.3777) px(-100:100)(7.88409:7.88409) py(-100:100)(-84.8644:-84.8644)
px(-100:100)(2.30151:2.30151) py(-100:100)(-84.9972:-84.9972) px(-100:100)(-3.27817:-3.27817)
py(-100:100)(-84.7758:-84.7758) px(-100:100)(-8.83261:-8.83261) py(-100:100)(-84.2009:-84.2009)
px(-100:100)(-14.3394:-14.3394) py(-100:100)(-83.2748:-83.2748) px(-100:100)(-19.7764:-19.7764)
py(-100:100)(-82.0014:-82.0014) px(-100:100)(-25.1217:-25.1217) py(-100:100)(-80.3857:-80.3857)
px(-100:100)(-30.3537:-30.3537) py(-100:100)(-78.4342:-78.4342) px(-100:100)(-35.4514:-35.4514)
py(-100:100)(-76.1549:-76.1549) px(-100:100)(-40.3943:-40.3943) py(-100:100)(-73.5568:-73.5568)
px(-100:100)(-45.1624:-45.1624) py(-100:100)(-70.6504:-70.6504) px(-100:100)(-49.7367:-49.7367)
py(-100:100)(-67.4474:-67.4474) px(-100:100)(-54.0985:-54.0985) py(-100:100)(-63.9609:-63.9609)
px(-100:100)(-58.2305:-58.2305) py(-100:100)(-60.2046:-60.2046) px(-100:100)(-62.1159:-62.1159)
py(-100:100)(-56.1939:-56.1939) px(-100:100)(-65.7391:-65.7391) py(-100:100)(-51.9448:-51.9448)
px(-100:100)(-69.0855:-69.0855) py(-100:100)(-47.4745:-47.4745) px(-100:100)(-72.1417:-72.1417)
py(-100:100)(-42.801:-42.801) px(-100:100)(-74.8953:-74.8953) py(-100:100)(-37.9429:-37.9429)
px(-100:100)(-77.3352:-77.3352) py(-100:100)(-32.9201:-32.9201) px(-100:100)(-79.4517:-79.4517)
py(-100:100)(-27.7526:-27.7526) px(-100:100)(-81.2361:-81.2361) py(-100:100)(-22.4613:-22.4613)
px(-100:100)(-82.6814:-82.6814) py(-100:100)(-17.0674:-17.0674) px(-100:100)(-83.7816:-83.7816)
py(-100:100)(-11.5928:-11.5928) px(-100:100)(-84.5324:-84.5324) py(-100:100)(-6.05942:-6.05942)
px(-100:100)(-84.9308:-84.9308) py(-100:100)(-0.489527:-0.489527) px(-100:100)(-84.9751:-84.9751)
py(-100:100)(5.09442:5.09442) px(-100:100)(-84.6651:-84.6651) py(-100:100)(10.6699:10.6699)
px(-100:100)(-84.0022:-84.0022) py(-100:100)(16.2146:16.2146) px(-100:100)(-82.9889:-82.9889)
py(-100:100)(21.7059:21.7059) px(-100:100)(-81.6293:-81.6293) py(-100:100)(27.122:27.122)
px(-100:100)(-79.9291:-79.9291) py(-100:100)(32.441:32.441) px(-100:100)(-77.8948:-77.8948)
py(-100:100)(37.6414:37.6414) px(-100:100)(-75.5349:-75.5349) py(-100:100)(42.7023:42.7023)
px(-100:100)(-72.8587:-72.8587) py(-100:100)(47.6034:47.6034) px(-100:100)(-69.877:-69.877)
py(-100:100)(52.3248:52.3248) px(-100:100)(-66.6019:-66.6019) py(-100:100)(56.8477:56.8477)
px(-100:100)(-63.0466:-63.0466) py(-100:100)(61.1537:61.1537) px(-100:100)(-59.2253:-59.2253)
py(-100:100)(65.2255:65.2255);
#X obj 46 20 struct \$0-dial float p1x float p1y float p2x float p2y
float c1 float px float py float c float c3 float c4 float w1 float
w2 float w3 float g float g2 float wc float wlc float wlw, f 96;
#X connect 2 0 3 0;
#X connect 21 0 0 0;
#X restore 619 325 pd huge-template;
#X obj 619 353 unpack s p f;
#X obj 710 757 +;
#X obj 653 375 get \$0-dial py;
#X msg 653 715 0;
#X obj 680 736 t b f;
#X obj 649 23 inlet;
#X obj 297 313 delay 10;
#X floatatom 1244 69 5 10 150 0 scale - -;
#X obj 481 525 + 2;
#X obj 521 525 + 2;
#X obj 561 525 + 2;
#X obj 601 525 + 2;
#X obj 481 504 * 82;
#X obj 521 504 * 82;
#X obj 1244 109 s pd-\$0-graph;
#X obj 1244 162 s \$0-base;
#X msg 1244 88 donecanvasdialog 1 -1 2 -100 -100 100 100 \$1 \$1 0
0 \, dirty 0;
#X obj 459 24 namecanvas \$0-base;
#X obj 1231 312 r \$0-pointer;
#X floatatom 885 163 5 0 999 1 circle-border-colour - -;
#X obj 885 313 pack f f f f f f f f;
#X floatatom 904 181 5 0 999 1 needle-colour - -;
#X floatatom 924 200 5 0 999 1 face-colour - -;
#X floatatom 943 220 5 0 999 1 background-colour - -;
#X floatatom 963 240 5 0 999 1 box-colour - -;
#X obj 835 275 bang;
#X floatatom 982 260 5 0 20 1 needle-width - -;
#X floatatom 1002 277 5 0 20 1 circle-border-width - -;
#X floatatom 1022 293 5 0 20 1 box-border-width - -;
#X obj 1102 89 s \$0-inlet-val;
#X obj 649 78 s \$0-size;
#X obj 1244 48 r \$0-size;
#X obj 675 99 s \$0-min;
#X obj 702 120 s \$0-max;
#X obj 1075 140 s \$0-gap;
#X obj 1022 117 s \$0-ncent;
#X obj 994 94 s \$0-nsize;
#X obj 1273 197 r \$0-gap;
#X obj 1321 284 * -1;
#X obj 1321 259 * 5;
#X msg 619 295 markers \$1;
#X msg 1125 192 wedge \$1;
#X obj 1125 167 != 0;
#X obj 1160 114 loadbang;
#X obj 1293 258 * 5;
#X obj 1275 232 t b f f;
#X obj 649 44 route size min max ccol ncol fcol bgcol bxcol nwide cbwide
bbwide nsize ncent marks gap wedge wcol wlcol wlw;
#X obj 826 230 t b b b;
#N canvas 0 50 450 707 \$0-graph 0;
#X coords -100 -100 100 100 94 94 2 0 0;
#X restore 10 10 pd \$0-graph;
#X obj 653 417 t f f;
#X obj 762 480 f;
#X obj 762 459 t f b;
#X obj 735 438 t f f;
#X obj 735 501 -;
#X obj 735 521 t f f;
#X obj 725 563 sel 0;
#X obj 725 610 spigot;
#X msg 725 584 0;
#X obj 735 542 t f f;
#X msg 762 584 1;
#X obj 725 736 i;
#X obj 653 694 t b b;
#X obj 725 631 / 2;
#X obj 795 573 r \$0-size;
#X obj 795 615 /;
#X msg 795 594 200 \$1;
#X obj 725 652 t f f;
#X obj 752 694 - 0.5;
#X obj 752 673 > 0;
#X obj 725 715 +;
#X obj 537 353 loadbang;
#X obj 537 395 atan;
#X msg 537 374 1;
#X obj 537 416 * 8;
#X obj 481 432 *;
#X msg 1244 129 donecanvasdialog 1 -1 2 -100 -100 100 100 \$1 \$1 10
10 \, dirty 0;
#X obj 481 390 * 0.75;
#N canvas 360 182 378 645 compute-coordinates 0;
#X obj 118 126 until;
#X obj 118 177 f;
#X obj 147 177 + 1;
#X obj 118 61 t b b;
#X msg 133 151 0;
#X obj 48 534 print;
#X obj 118 30 bng 15 250 50 0 empty empty empty 17 7 0 10 -262144 -1
-1;
#X obj 118 246 * 6.28318;
#X obj 118 273 t f f;
#X obj 119 491 list append;
#X obj 48 507 list;
#X obj 48 472 bng 15 250 50 0 empty empty empty 17 7 0 10 -262144 -1
-1;
#X obj 133 527 list;
#X msg 181 341 bang;
#X obj 118 324 cos;
#X obj 145 324 sin;
#X obj 118 198 / 99;
#X msg 118 91 75;
#X obj 118 219 + 0.375;
#X obj 245 290 % 2;
#X obj 245 311 sel 0 1;
#X msg 245 332 py;
#X msg 275 332 px;
#X obj 118 422 pack f s;
#X obj 245 393 symbol;
#X msg 118 452 \$2(-100:100)(\$1:\$1);
#X obj 218 242 f;
#X obj 247 242 + 1;
#X msg 233 216 0;
#X obj 207 184 bang;
#X obj 148 297 t f b;
#X obj 88 300 t f b;
#X obj 118 375 * 88;
#X obj 118 396 + 3;
#X connect 0 0 1 0;
#X connect 1 0 2 0;
#X connect 1 0 16 0;
#X connect 2 0 1 1;
#X connect 3 0 17 0;
#X connect 3 1 4 0;
#X connect 3 1 13 0;
#X connect 3 1 28 0;
#X connect 4 0 1 1;
#X connect 6 0 3 0;
#X connect 7 0 8 0;
#X connect 8 0 31 0;
#X connect 8 1 30 0;
#X connect 9 0 10 1;
#X connect 9 0 12 0;
#X connect 10 0 5 0;
#X connect 11 0 10 0;
#X connect 12 0 9 1;
#X connect 13 0 9 1;
#X connect 14 0 32 0;
#X connect 15 0 32 0;
#X connect 16 0 18 0;
#X connect 17 0 0 0;
#X connect 18 0 7 0;
#X connect 19 0 20 0;
#X connect 20 0 21 0;
#X connect 20 1 22 0;
#X connect 21 0 24 0;
#X connect 22 0 24 0;
#X connect 23 0 25 0;
#X connect 24 0 23 1;
#X connect 25 0 9 0;
#X connect 26 0 27 0;
#X connect 26 0 19 0;
#X connect 27 0 26 1;
#X connect 28 0 26 1;
#X connect 30 0 15 0;
#X connect 30 1 26 0;
#X connect 31 0 14 0;
#X connect 31 1 26 0;
#X connect 32 0 33 0;
#X connect 33 0 23 0;
#X restore 110 311 pd compute-coordinates;
#X obj 710 778 clip 0 127;
#X obj 481 369 / 127;
#X obj 680 757 f;
#X obj 653 396 * -1;
#X obj 481 482 cos;
#X obj 561 482 cos;
#X obj 521 482 sin;
#X obj 601 482 sin;
#X obj 481 411 + 0.375;
#X msg 1160 138 1;
#X obj 710 799 outlet;
#X msg 297 335 0;
#X msg 297 217 0 0 0 0 0 0 0 0 999 999 3 2 1 0;
#X obj 297 238 append \$0-dial p1x p1y p2x p2y c1 px py c c3 c4 w1
w2 w3 g g2 wc wlc wlw, f 67;
#X obj 884 341 set \$0-dial c c1 c3 c4 w1 w2 w3 g g2 wc wlc wlw;
#X connect 0 0 13 0;
#X connect 1 0 0 0;
#X connect 3 0 4 0;
#X connect 4 0 106 18;
#X connect 5 0 21 0;
#X connect 5 1 11 0;
#X connect 6 0 12 0;
#X connect 7 0 97 0;
#X connect 7 1 99 0;
#X connect 7 2 98 0;
#X connect 7 3 100 0;
#X connect 8 0 25 0;
#X connect 9 0 26 0;
#X connect 10 0 12 4;
#X connect 13 1 105 0;
#X connect 13 2 3 0;
#X connect 13 3 2 0;
#X connect 14 0 15 0;
#X connect 15 1 17 0;
#X connect 16 0 93 0;
#X connect 17 0 96 0;
#X connect 18 0 19 0;
#X connect 19 0 95 0;
#X connect 19 1 16 1;
#X connect 20 0 61 0;
#X connect 21 0 104 0;
#X connect 22 0 90 0;
#X connect 22 0 31 0;
#X connect 23 0 6 0;
#X connect 24 0 6 1;
#X connect 25 0 6 2;
#X connect 26 0 6 3;
#X connect 27 0 23 0;
#X connect 28 0 24 0;
#X connect 31 0 29 0;
#X connect 34 0 35 0;
#X connect 35 0 107 0;
#X connect 36 0 35 1;
#X connect 36 0 40 0;
#X connect 37 0 35 2;
#X connect 37 0 40 0;
#X connect 38 0 35 3;
#X connect 38 0 40 0;
#X connect 39 0 35 4;
#X connect 39 0 40 0;
#X connect 40 0 35 0;
#X connect 41 0 35 5;
#X connect 41 0 40 0;
#X connect 42 0 35 6;
#X connect 42 0 40 0;
#X connect 43 0 35 7;
#X connect 43 0 40 0;
#X connect 46 0 22 0;
#X connect 52 0 60 0;
#X connect 53 0 107 8;
#X connect 54 0 53 0;
#X connect 55 0 14 0;
#X connect 56 0 14 0;
#X connect 57 0 56 0;
#X connect 58 0 102 0;
#X connect 59 0 107 9;
#X connect 60 0 40 0;
#X connect 60 1 59 0;
#X connect 60 2 54 0;
#X connect 61 0 45 0;
#X connect 61 1 47 0;
#X connect 61 2 48 0;
#X connect 61 3 34 0;
#X connect 61 4 36 0;
#X connect 61 5 37 0;
#X connect 61 6 38 0;
#X connect 61 7 39 0;
#X connect 61 8 41 0;
#X connect 61 9 42 0;
#X connect 61 10 43 0;
#X connect 61 11 51 0;
#X connect 61 12 50 0;
#X connect 61 13 55 0;
#X connect 61 14 49 0;
#X connect 61 14 57 0;
#X connect 61 15 56 0;
#X connect 61 16 62 0;
#X connect 61 16 107 10;
#X connect 61 17 62 0;
#X connect 61 17 107 11;
#X connect 61 18 62 0;
#X connect 61 18 107 12;
#X connect 61 19 44 0;
#X connect 62 0 40 0;
#X connect 62 1 40 0;
#X connect 62 2 40 0;
#X connect 64 0 76 0;
#X connect 64 1 67 0;
#X connect 65 0 68 1;
#X connect 66 0 65 1;
#X connect 66 1 65 0;
#X connect 67 0 68 0;
#X connect 67 1 66 0;
#X connect 68 0 69 0;
#X connect 69 0 73 0;
#X connect 69 1 71 0;
#X connect 70 0 72 0;
#X connect 71 0 77 0;
#X connect 72 0 71 1;
#X connect 73 0 70 0;
#X connect 73 1 74 0;
#X connect 74 0 71 1;
#X connect 75 0 16 1;
#X connect 76 0 18 0;
#X connect 76 1 95 0;
#X connect 77 0 81 0;
#X connect 78 0 80 0;
#X connect 79 0 77 1;
#X connect 80 0 79 0;
#X connect 81 0 84 0;
#X connect 81 1 83 0;
#X connect 82 0 84 1;
#X connect 83 0 82 0;
#X connect 84 0 75 0;
#X connect 85 0 87 0;
#X connect 86 0 88 0;
#X connect 87 0 86 0;
#X connect 88 0 89 1;
#X connect 89 0 7 0;
#X connect 90 0 30 0;
#X connect 91 0 101 0;
#X connect 93 0 95 1;
#X connect 93 0 103 0;
#X connect 94 0 91 0;
#X connect 95 0 16 0;
#X connect 95 0 94 0;
#X connect 96 0 64 0;
#X connect 97 0 27 0;
#X connect 98 0 8 0;
#X connect 99 0 28 0;
#X connect 100 0 9 0;
#X connect 101 0 89 0;
#X connect 102 0 57 0;
#X connect 104 0 94 0;
#X connect 105 0 106 0;
#X connect 106 0 5 0;
#X coords -100 -100 100 100 94 94 2 10 10;
