#N canvas 499 78 1252 980 10;
#X obj 134 165 inlet;
#X obj 244 165 inlet;
#X text 134 145 (I1) MIDI Note;
#X text 244 145 (I2) Velocity;
#X obj 161 228 tabwrite \$0-velocity;
#X obj 134 186 list prepend;
#X obj 161 248 array define -yrange 0 127 -k \$0-velocity 127;
#A 0 0 0 0 0 0 0 0 0 0 0 0 0 0 0 0 0 0 0 0 0 0 0 0 0 0 0 0 0 0 0 0
0 0 0 0 0 0 0 0 0 0 0 0 0 0 0 0 0 0 0 0 0 0 0 0 0 0 0 0 0 0 0 0 0 0
0 0 0 0 0 0 0 0 0 0 0 0 0 0 0 0 0 0 0 0 0 0 0 0 0 0 0 0 0 0 0 0 0 0
0 0 0 0 0 0 0 0 0 0 0 0 0 0 0 0 0 0 0 0 0 0 0 0 0 0 0 0;
#X obj 134 207 t b l;
#X obj 153 334 t b b;
#X msg 153 355 127;
#X obj 153 376 until;
#X obj 178 397 i;
#X obj 208 397 + 1;
#X msg 193 355 0;
#X obj 178 418 t f f;
#X obj 178 439 tabread \$0-velocity;
#X obj 134 270 t b b b;
#X obj 173 312 text define \$0-note-on;
#X msg 173 291 clear;
#X obj 178 544 text insert \$0-note-on 127;
#X obj 178 460 t f f;
#X obj 178 481 > 0;
#X obj 178 502 sel 1;
#X obj 217 507 list prepend;
#X obj 178 523 list;
#X obj 134 600 text size \$0-note-on;
#X obj 161 642 s \$0-size;
#X obj 760 894 outlet;
#X text 178 564 [3] Read notes with velocity greater than zero and
insert them on the note-on text array.;
#X text 213 291 [2] Clear note-on text array.;
#X text 171 208 [1] Register velocity of all notes.;
#X text 161 702 [4] Get size of note-on: number of active notes;
#X obj 134 621 t f f;
#X obj 134 707 > 0;
#X obj 134 728 change;
#X obj 134 819 s \$0-gate;
#X obj 607 330 r \$0-gate;
#X obj 134 749 t f f;
#X obj 175 770 sel 1;
#X obj 175 791 s \$0-on;
#X obj 607 442 v \$0-int;
#X obj 846 314 r \$0-on;
#X obj 846 356 v \$0-int;
#X obj 668 532 >;
#X obj 683 469 r \$0-size;
#X obj 683 511 - 1;
#X obj 668 553 sel 1;
#X obj 668 595 v \$0-int;
#X obj 607 538 + 1;
#X obj 607 559 v \$0-int;
#X obj 607 517 v \$0-int;
#X msg 668 574 0;
#X msg 846 335 0;
#X obj 758 746 t f f;
#X obj 793 770 div;
#X obj 760 810 text get \$0-note-on;
#X obj 758 767 %;
#X obj 818 720 r \$0-size;
#X obj 818 741 t f f;
#X obj 761 831 unpack f f;
#X obj 760 852 +;
#X obj 793 791 * 12;
#X obj 760 873 pack f f;
#X obj 484 165 inlet;
#X obj 161 662 v \$0-size;
#X obj 484 186 + 1;
#X obj 484 207 s \$0-octave;
#X obj 683 427 r \$0-octave;
#X obj 683 448 t b f;
#X obj 905 486 v \$0-int;
#X obj 963 604 sel 1;
#X obj 857 641 + 1;
#X obj 857 662 v \$0-int;
#X obj 905 507 t b f f;
#X obj 846 567 v \$0-int;
#X msg 963 625 -1;
#X obj 903 604 sel 0;
#X msg 903 625 1;
#X obj 978 562 - 1;
#X obj 963 583 >=;
#X obj 792 596 min;
#X obj 683 490 * 1;
#X obj 1046 483 r \$0-size;
#X obj 1046 441 r \$0-octave;
#X obj 1046 462 t b f;
#X obj 1046 504 * 1;
#X obj 607 463 t b f;
#X obj 545 686 list prepend;
#X obj 545 707 -;
#X text 484 145 (I3) Octave;
#X obj 574 165 inlet;
#X text 574 145 (I4) Direction;
#X obj 607 372 v \$0-direction;
#X obj 607 393 sel 0 1 2;
#X obj 574 187 s \$0-direction;
#X obj 574 208 v \$0-direction;
#X obj 675 650 r \$0-direction;
#X obj 653 695 spigot;
#X obj 675 671 == 0;
#X obj 545 728 spigot;
#X obj 621 746 r \$0-direction;
#X obj 621 767 == 1;
#X obj 607 351 metro 150;
#X obj 674 165 inlet;
#X text 674 145 (I4) Direction;
#X obj 674 187 s \$0-tempo;
#X obj 742 313 r \$0-tempo;
#X connect 0 0 5 0;
#X connect 1 0 5 1;
#X connect 5 0 7 0;
#X connect 7 0 16 0;
#X connect 7 1 4 0;
#X connect 8 0 9 0;
#X connect 8 1 13 0;
#X connect 9 0 10 0;
#X connect 10 0 11 0;
#X connect 11 0 12 0;
#X connect 11 0 14 0;
#X connect 12 0 11 1;
#X connect 13 0 11 1;
#X connect 14 0 15 0;
#X connect 14 1 23 1;
#X connect 15 0 20 0;
#X connect 16 0 25 0;
#X connect 16 1 8 0;
#X connect 16 2 18 0;
#X connect 18 0 17 0;
#X connect 20 0 21 0;
#X connect 20 1 23 0;
#X connect 21 0 22 0;
#X connect 22 0 24 0;
#X connect 23 0 24 1;
#X connect 24 0 19 0;
#X connect 25 0 32 0;
#X connect 32 0 33 0;
#X connect 32 1 26 0;
#X connect 33 0 34 0;
#X connect 34 0 37 0;
#X connect 36 0 102 0;
#X connect 37 0 35 0;
#X connect 37 1 38 0;
#X connect 38 0 39 0;
#X connect 40 0 86 0;
#X connect 41 0 52 0;
#X connect 43 0 46 0;
#X connect 44 0 81 0;
#X connect 45 0 43 1;
#X connect 45 0 87 1;
#X connect 46 0 51 0;
#X connect 48 0 49 0;
#X connect 50 0 48 0;
#X connect 50 0 87 0;
#X connect 50 0 97 0;
#X connect 51 0 47 0;
#X connect 52 0 42 0;
#X connect 53 0 56 0;
#X connect 53 1 54 0;
#X connect 54 0 61 0;
#X connect 55 0 59 0;
#X connect 56 0 55 0;
#X connect 57 0 58 0;
#X connect 58 0 56 1;
#X connect 58 1 54 1;
#X connect 59 0 60 0;
#X connect 59 1 62 1;
#X connect 60 0 62 0;
#X connect 61 0 60 1;
#X connect 62 0 27 0;
#X connect 63 0 65 0;
#X connect 65 0 66 0;
#X connect 67 0 68 0;
#X connect 68 0 81 0;
#X connect 68 1 81 1;
#X connect 69 0 73 0;
#X connect 70 0 75 0;
#X connect 71 0 72 0;
#X connect 73 0 74 0;
#X connect 73 1 76 0;
#X connect 73 2 79 0;
#X connect 74 0 71 0;
#X connect 74 0 80 0;
#X connect 75 0 71 1;
#X connect 76 0 77 0;
#X connect 77 0 71 1;
#X connect 78 0 79 1;
#X connect 78 0 80 1;
#X connect 79 0 70 0;
#X connect 80 0 53 0;
#X connect 81 0 45 0;
#X connect 82 0 85 0;
#X connect 83 0 84 0;
#X connect 84 0 85 0;
#X connect 84 1 85 1;
#X connect 85 0 78 0;
#X connect 86 0 50 0;
#X connect 86 1 43 0;
#X connect 87 0 88 0;
#X connect 88 0 99 0;
#X connect 90 0 94 0;
#X connect 92 0 93 0;
#X connect 93 0 40 0;
#X connect 93 1 40 0;
#X connect 93 2 69 0;
#X connect 96 0 98 0;
#X connect 97 0 53 0;
#X connect 98 0 97 1;
#X connect 99 0 53 0;
#X connect 100 0 101 0;
#X connect 101 0 99 1;
#X connect 102 0 92 0;
#X connect 103 0 105 0;
#X connect 106 0 102 1;
