#N canvas 196 92 635 825 10;
#X obj 12 58 tgl 17 0 empty empty empty 17 7 0 10 -262144 -1 -1 1 1
;
#X obj 39 16 nbx 3 17 30 300 0 1 empty empty BPM 0 -8 0 10 -262144
-1 -1 100 256;
#X obj 39 59 /;
#X obj 12 80 metro;
#X obj 12 101 i;
#X obj 42 101 + 1;
#X obj 12 700 *~ 0.7;
#X obj 12 721 hip~ 3;
#X obj 12 742 clip~ -1 1;
#X obj 12 763 *~ 0.7;
#X obj 12 784 dac~ 1 2;
#X obj 122 59 loadbang;
#X msg 122 80 0 2 4 5 7 9 11;
#X obj 122 101 array set \$0-scale;
#X obj 122 122 array define \$0-scale 7;
#X obj 272 59 loadbang;
#X obj 272 101 array set \$0-melody;
#X obj 272 122 array define \$0-melody 5;
#X msg 272 80 12 5 8 2 4;
#X obj 312 164 euklid 1 0 12 5 1 3 0;
#X msg 154 634 1;
#X obj 322 434 euklid 1 0 16 4 2 2 1;
#X obj 12 164 euklid 1 1 20 7 0 1 0;
#X obj 12 679 catch~ \$0-M;
#N canvas 555 112 301 295 kick 0;
#X obj 175 124 r \$0-trg-kck;
#X obj 225 145 del 2;
#X msg 225 166 1 \, 0 100;
#X obj 175 187 line~;
#X obj 132 103 pow~ 6;
#X msg 175 145 0 1;
#X obj 132 124 *~ 120;
#X obj 12 159 phasor~;
#X obj 12 201 cos~;
#X obj 12 222 *~;
#X obj 62 103 r \$0-trg-kck;
#X obj 62 124 del 2;
#X msg 62 145 0;
#X obj 12 12 r \$0-trg-kck;
#X obj 12 33 del 2;
#X obj 12 75 line~;
#X msg 12 54 1 \, 0 2;
#X obj 12 264 throw~ \$0-M;
#X obj 175 208 pow~ 4;
#X obj 12 243 *~ 0.5;
#X obj 12 180 -~ 0.25;
#X obj 12 96 *~ 250;
#X obj 12 138 +~ 50;
#X obj 140 15 inlet;
#X obj 140 36 s \$0-trg-kck;
#X connect 0 0 1 0;
#X connect 0 0 5 0;
#X connect 1 0 2 0;
#X connect 2 0 3 0;
#X connect 3 0 18 0;
#X connect 3 0 4 0;
#X connect 4 0 6 0;
#X connect 5 0 3 0;
#X connect 6 0 22 0;
#X connect 7 0 20 0;
#X connect 8 0 9 0;
#X connect 9 0 19 0;
#X connect 10 0 11 0;
#X connect 11 0 12 0;
#X connect 12 0 7 1;
#X connect 13 0 14 0;
#X connect 14 0 16 0;
#X connect 15 0 21 0;
#X connect 16 0 15 0;
#X connect 18 0 9 1;
#X connect 19 0 17 0;
#X connect 20 0 8 0;
#X connect 21 0 22 0;
#X connect 22 0 7 0;
#X connect 23 0 24 0;
#X restore 322 648 pd kick;
#N canvas 0 23 197 202 snare 0;
#X obj 12 84 line~;
#X obj 12 126 *~;
#X obj 98 49 noise~;
#X obj 98 70 bp~ 1000 14;
#X obj 98 112 clip~ -1 1;
#X obj 12 105 pow~ 6;
#X msg 12 63 1 \, 0 800;
#X obj 98 91 *~ 4;
#X obj 12 168 throw~ \$0-M;
#X obj 12 147 *~ 0.5;
#X obj 12 42 inlet;
#X connect 0 0 5 0;
#X connect 1 0 9 0;
#X connect 2 0 3 0;
#X connect 3 0 7 0;
#X connect 4 0 1 1;
#X connect 5 0 1 0;
#X connect 6 0 0 0;
#X connect 7 0 4 0;
#X connect 9 0 8 0;
#X connect 10 0 6 0;
#X restore 464 635 pd snare;
#N canvas 432 86 199 421 maceta 0;
#N canvas 0 23 719 451 mct~ 0;
#X obj 12 237 phasor~;
#X obj 12 276 cos~;
#X obj 12 254 *~ 4;
#X obj 72 254 *~ 11;
#X obj 72 276 cos~;
#X obj 202 276 cos~;
#X obj 202 254 *~ 20;
#X obj 262 276 cos~;
#X obj 262 254 *~ 21;
#X obj 302 276 cos~;
#X obj 302 254 *~ 36;
#X obj 12 342 *~;
#X obj 72 342 *~;
#X obj 262 342 *~;
#X obj 474 342 +~ 0.5;
#X obj 12 359 *~;
#X msg 519 281 0;
#X obj 72 298 *~ 0.7;
#X obj 202 342 *~;
#X obj 132 276 cos~;
#X obj 132 254 *~ 16;
#X obj 132 342 *~;
#X obj 262 298 /~ 20;
#X obj 302 298 /~ 32;
#X obj 474 298 osc~;
#X obj 342 276 cos~;
#X obj 342 342 *~;
#X obj 342 254 *~ 96;
#X obj 381 259 /~ 10;
#X obj 27 320 pow~ 1;
#X obj 609 34 - 1;
#X obj 609 56 / 126;
#X msg 609 78 1 \$1;
#X obj 609 100 -;
#X obj 87 320 pow~ 2;
#X obj 609 298 dbtorms;
#X obj 147 320 pow~ 32;
#X obj 132 298 /~ 4;
#X obj 217 320 pow~ 4;
#X obj 202 298 /~ 8;
#X obj 342 298 /~ 20;
#X obj 277 320 pow~ 10;
#X obj 357 320 pow~ 20;
#X obj 474 320 /~ 16;
#X obj 12 403 outlet~;
#N canvas 4 23 507 447 env 0;
#X obj 163 73 unpack f f f;
#X obj 88 386 outlet~;
#X obj 163 259 -~;
#X obj 195 242 sig~ 1;
#X obj 195 264 -~;
#X obj 245 225 *~;
#X obj 163 281 *~;
#X obj 148 325 +~;
#X obj 163 303 /~;
#X obj 280 242 sig~ 1;
#X obj 280 264 -~;
#X obj 280 286 +~;
#X obj 88 198 sig~ 1;
#X obj 88 220 -~;
#X obj 88 242 *~;
#X obj 88 264 +~;
#X obj 131 247 *~;
#N canvas 0 22 234 183 <=~ 0;
#X obj 150 34 inlet~;
#X obj 45 34 inlet~;
#X obj 45 129 outlet~;
#N canvas 467 216 450 300 @hv_obj 0;
#X obj 217 60 inlet~;
#X obj 120 60 inlet~;
#X obj 170 183 outlet~;
#X connect 1 0 2 0;
#X restore 45 105 pd @hv_obj __and~f;
#X obj 150 83 sig~ 1;
#N canvas 715 101 191 233 @hv_obj 0;
#X obj 49 83 -~;
#X obj 50 109 clip~ -1e-37 0;
#X obj 49 32 inlet~;
#X obj 93 33 inlet~;
#X obj 50 174 outlet~;
#X obj 50 151 *~ 1e+37;
#X obj 49 58 min~;
#X obj 50 130 +~ 1e-37;
#X connect 0 0 1 0;
#X connect 1 0 7 0;
#X connect 2 0 6 0;
#X connect 2 0 0 1;
#X connect 3 0 6 1;
#X connect 5 0 4 0;
#X connect 6 0 0 0;
#X connect 7 0 5 0;
#X restore 45 57 pd @hv_obj __lte~f;
#X connect 0 0 5 1;
#X connect 1 0 5 0;
#X connect 3 0 2 0;
#X connect 4 0 3 1;
#X connect 5 0 3 0;
#X restore 363 247 pd <=~;
#N canvas 0 22 255 189 >=~ 0;
#X obj 150 34 inlet~;
#X obj 45 34 inlet~;
#X obj 45 129 outlet~;
#N canvas 467 216 290 220 @hv_obj 0;
#X obj 158 52 inlet~;
#X obj 61 52 inlet~;
#X obj 61 136 outlet~;
#X obj 61 100 *~;
#X connect 0 0 3 1;
#X connect 1 0 3 0;
#X connect 3 0 2 0;
#X restore 45 105 pd @hv_obj __and~f;
#X obj 150 83 sig~ 1;
#N canvas 249 541 148 189 @hv_obj 0;
#X obj 23 69 -~;
#X obj 23 94 clip~ -1e-37 0;
#X obj 23 18 inlet~;
#X obj 67 19 inlet~;
#X obj 23 159 outlet~;
#X obj 23 136 *~ 1e+37;
#X obj 23 44 min~;
#X obj 23 115 +~ 1e-37;
#X connect 0 0 1 0;
#X connect 1 0 7 0;
#X connect 2 0 6 0;
#X connect 3 0 6 1;
#X connect 3 0 0 1;
#X connect 5 0 4 0;
#X connect 6 0 0 0;
#X connect 7 0 5 0;
#X restore 45 57 pd @hv_obj __gte~f;
#X connect 0 0 5 1;
#X connect 1 0 5 0;
#X connect 3 0 2 0;
#X connect 4 0 3 1;
#X connect 5 0 3 0;
#X restore 413 252 pd >=~;
#X obj 446 230 sig~ 0;
#X obj 363 269 *~;
#X obj 348 308 sig~ 1;
#X obj 348 330 -~;
#X obj 88 286 *~;
#X obj 148 347 *~;
#X obj 88 364 +~;
#X obj 163 156 line~;
#X obj 103 161 line~;
#X obj 12 12 inlet list;
#N canvas 349 167 179 187 hv.vline 0;
#X obj 12 34 t a b;
#X msg 75 56 0;
#N canvas 274 138 292 165 dbl-pipe 0;
#X obj 22 22 inlet;
#X obj 82 22 inlet;
#X obj 182 22 inlet;
#X obj 22 64 pipe 0;
#X obj 82 64 pipe 0;
#X obj 22 86 outlet;
#X obj 82 86 outlet;
#X obj 132 64 pipe 0;
#X obj 132 86 outlet;
#X obj 132 22 inlet;
#X connect 0 0 3 0;
#X connect 0 0 4 0;
#X connect 1 0 4 0;
#X connect 2 0 3 1;
#X connect 2 0 4 1;
#X connect 2 0 7 1;
#X connect 3 0 5 0;
#X connect 4 0 6 0;
#X connect 7 0 8 0;
#X connect 9 0 7 0;
#X restore 12 100 pd dbl-pipe;
#X obj 12 78 unpack f f f f;
#X obj 12 122 pack f f f;
#X obj 12 12 inlet;
#X obj 12 144 outlet;
#X connect 0 0 3 0;
#X connect 0 1 1 0;
#X connect 1 0 2 3;
#X connect 2 0 4 0;
#X connect 2 1 4 1;
#X connect 2 2 4 2;
#X connect 3 0 2 0;
#X connect 3 1 2 1;
#X connect 3 2 2 2;
#X connect 3 3 2 3;
#X connect 4 0 6 0;
#X connect 5 0 0 0;
#X restore 12 34 pd hv.vline;
#X obj 12 56 t a b a;
#X obj 325 90 sig~;
#X msg 103 139 0 \, 1 \$1;
#X obj 178 225 samphold~;
#X obj 12 78 unpack f f f;
#X msg 229 110 -1 \, 0 1;
#X obj 229 132 line~;
#X obj 245 247 exp~;
#X obj 325 247 exp~;
#X obj 325 68 inlet curve;
#X obj 144 381 s~ \$0-env-mct;
#X obj 178 203 r~ \$0-env-mct;
#X connect 0 0 26 0;
#X connect 0 2 31 0;
#X connect 2 0 6 0;
#X connect 3 0 4 0;
#X connect 4 0 6 1;
#X connect 5 0 37 0;
#X connect 6 0 8 0;
#X connect 7 0 24 0;
#X connect 8 0 7 1;
#X connect 9 0 10 0;
#X connect 10 0 11 0;
#X connect 11 0 8 1;
#X connect 12 0 13 0;
#X connect 13 0 14 0;
#X connect 14 0 15 0;
#X connect 15 0 23 0;
#X connect 16 0 15 1;
#X connect 17 0 20 0;
#X connect 18 0 20 1;
#X connect 19 0 17 1;
#X connect 19 0 18 1;
#X connect 20 0 11 1;
#X connect 20 0 22 1;
#X connect 20 0 23 1;
#X connect 21 0 22 0;
#X connect 22 0 24 1;
#X connect 23 0 25 0;
#X connect 24 0 25 1;
#X connect 25 0 1 0;
#X connect 25 0 40 0;
#X connect 26 0 2 0;
#X connect 26 0 16 1;
#X connect 27 0 5 0;
#X connect 27 0 13 1;
#X connect 27 0 16 0;
#X connect 28 0 29 0;
#X connect 29 0 30 0;
#X connect 30 0 34 0;
#X connect 30 1 35 0;
#X connect 30 2 0 0;
#X connect 31 0 5 1;
#X connect 31 0 18 0;
#X connect 31 0 17 0;
#X connect 31 0 38 0;
#X connect 32 0 27 0;
#X connect 33 0 2 1;
#X connect 33 0 7 0;
#X connect 33 0 14 1;
#X connect 34 1 32 0;
#X connect 35 0 36 0;
#X connect 36 0 33 1;
#X connect 37 0 4 1;
#X connect 38 0 10 1;
#X connect 39 0 31 0;
#X connect 41 0 33 0;
#X restore 425 281 pd env;
#X obj 12 215 /~ 4;
#X obj 474 209 *~ 4;
#X obj 474 231 /~ 975;
#X obj 609 12 r \$0-vel-mct;
#X obj 160 90 clip 0 127;
#X obj 160 112 sel 0;
#X obj 187 134 t b f;
#X obj 187 178 s \$0-trg-mct;
#X obj 214 156 s \$0-vel-mct;
#X obj 425 95 r \$0-trg-mct;
#X obj 425 303 *~ 1;
#X obj 470 139 - 6;
#X obj 91 176 r \$0-trg-mct;
#X obj 470 117 * -32;
#X obj 91 198 del 3;
#X obj 425 161 pack f f;
#X obj 12 381 *~;
#X msg 609 342 \$1 1;
#X obj 609 320 pipe 2;
#X obj 609 364 line~;
#X msg 91 220 0;
#X msg 425 182 0 1 0 \, 1 1 -12 3 \, 0 5000 \$2 6;
#X obj 12 192 inlet~ freq;
#X obj 160 68 inlet velocity;
#X obj 609 276 + 97;
#X obj 519 237 r \$0-trg-mct;
#X obj 519 259 del 3;
#X obj 609 254 * -18;
#X connect 0 0 2 0;
#X connect 0 0 3 0;
#X connect 0 0 6 0;
#X connect 0 0 8 0;
#X connect 0 0 10 0;
#X connect 0 0 20 0;
#X connect 0 0 27 0;
#X connect 1 0 11 0;
#X connect 2 0 1 0;
#X connect 3 0 4 0;
#X connect 4 0 17 0;
#X connect 5 0 39 0;
#X connect 6 0 5 0;
#X connect 7 0 22 0;
#X connect 8 0 7 0;
#X connect 9 0 23 0;
#X connect 9 0 28 0;
#X connect 10 0 9 0;
#X connect 11 0 15 0;
#X connect 12 0 15 0;
#X connect 13 0 15 0;
#X connect 14 0 15 1;
#X connect 15 0 62 0;
#X connect 16 0 24 1;
#X connect 17 0 12 0;
#X connect 18 0 15 0;
#X connect 19 0 37 0;
#X connect 20 0 19 0;
#X connect 21 0 15 0;
#X connect 22 0 13 0;
#X connect 23 0 13 0;
#X connect 24 0 43 0;
#X connect 25 0 40 0;
#X connect 26 0 15 0;
#X connect 27 0 25 0;
#X connect 28 0 25 0;
#X connect 29 0 11 1;
#X connect 30 0 31 0;
#X connect 31 0 32 0;
#X connect 32 0 33 0;
#X connect 33 0 59 0;
#X connect 33 0 73 0;
#X connect 34 0 12 1;
#X connect 35 0 64 0;
#X connect 36 0 21 1;
#X connect 37 0 21 0;
#X connect 38 0 18 1;
#X connect 39 0 18 0;
#X connect 40 0 26 0;
#X connect 41 0 13 1;
#X connect 42 0 26 1;
#X connect 43 0 14 0;
#X connect 45 0 56 0;
#X connect 46 0 0 0;
#X connect 47 0 48 0;
#X connect 48 0 24 0;
#X connect 49 0 30 0;
#X connect 50 0 51 0;
#X connect 51 1 52 0;
#X connect 52 0 53 0;
#X connect 52 1 54 0;
#X connect 55 0 61 0;
#X connect 56 0 29 0;
#X connect 56 0 34 0;
#X connect 56 0 36 0;
#X connect 56 0 38 0;
#X connect 56 0 41 0;
#X connect 56 0 42 0;
#X connect 57 0 61 1;
#X connect 58 0 60 0;
#X connect 59 0 57 0;
#X connect 60 0 66 0;
#X connect 61 0 67 0;
#X connect 62 0 44 0;
#X connect 63 0 65 0;
#X connect 64 0 63 0;
#X connect 65 0 62 1;
#X connect 66 0 0 1;
#X connect 67 0 45 0;
#X connect 68 0 46 0;
#X connect 68 0 47 0;
#X connect 69 0 50 0;
#X connect 70 0 35 0;
#X connect 71 0 72 0;
#X connect 72 0 16 0;
#X connect 73 0 70 0;
#X restore 12 243 pd mct~;
#X obj 122 152 div 7;
#X obj 122 187 * 12;
#X obj 12 159 % 7;
#X obj 12 180 tabread \$0-scale;
#X obj 12 201 +;
#X obj 12 222 mtof;
#X obj 12 54 i;
#X obj 12 75 % 5;
#X obj 42 54 + 1;
#X obj 12 96 tabread \$0-melody;
#X obj 12 138 t f f;
#X obj 12 117 + 35;
#X obj 12 33 bang;
#X obj 12 12 inlet;
#X obj 51 219 inlet;
#X obj 12 363 +~;
#X obj 12 384 throw~ \$0-M;
#X obj 62 285 delwrite~ \$0-mct 225;
#X obj 62 307 delread~ \$0-mct 225;
#X obj 62 349 lop~ 1000;
#X obj 12 264 *~ 0.4;
#X obj 62 328 *~ 0.5;
#X connect 0 0 21 0;
#X connect 1 0 2 0;
#X connect 2 0 5 1;
#X connect 3 0 4 0;
#X connect 4 0 5 0;
#X connect 5 0 6 0;
#X connect 6 0 0 0;
#X connect 7 0 8 0;
#X connect 8 0 9 0;
#X connect 8 0 10 0;
#X connect 9 0 7 1;
#X connect 10 0 12 0;
#X connect 11 0 3 0;
#X connect 11 1 1 0;
#X connect 12 0 11 0;
#X connect 13 0 7 0;
#X connect 14 0 13 0;
#X connect 15 0 0 1;
#X connect 16 0 17 0;
#X connect 19 0 22 0;
#X connect 20 0 16 1;
#X connect 21 0 16 0;
#X connect 21 0 18 0;
#X connect 22 0 18 0;
#X connect 22 0 20 0;
#X restore 312 385 pd maceta;
#X msg 414 364 50;
#X msg 454 364 100;
#X obj 312 364 bang;
#N canvas 717 177 171 206 hihat 0;
#X obj 12 75 line~;
#X obj 12 33 t f f;
#X obj 12 138 *~;
#X obj 89 82 noise~;
#X obj 89 103 hip~ 10000;
#X obj 12 117 *~;
#X obj 12 96 pow~ 8;
#X msg 12 54 1 \, 0 200;
#X obj 89 124 bp~ 8000 14;
#X obj 12 12 inlet;
#X obj 12 159 *~ 0.5;
#X obj 12 180 throw~ \$0-M;
#X connect 0 0 6 0;
#X connect 1 0 7 0;
#X connect 1 1 5 1;
#X connect 2 0 10 0;
#X connect 3 0 4 0;
#X connect 4 0 8 0;
#X connect 5 0 2 0;
#X connect 6 0 5 0;
#X connect 7 0 0 0;
#X connect 8 0 2 1;
#X connect 9 0 1 0;
#X connect 10 0 11 0;
#X restore 12 658 pd hihat;
#N canvas 435 250 777 646 rhodes 0;
#N canvas 0 23 930 487 rds~ 0;
#X obj 12 252 phasor~;
#X obj 12 385 cos~;
#X obj 42 324 cos~;
#X obj 42 346 *~;
#X obj 122 49 > 0;
#X obj 122 71 sel 1 0;
#X obj 180 329 *~;
#X obj 834 205 log~;
#X obj 834 227 /~;
#X obj 849 161 log~;
#X obj 834 183 sig~ 261.626;
#X obj 420 235 sig~ 261.626;
#X obj 420 257 /~;
#X obj 180 210 line~;
#X msg 180 188 1 \, 0 141213;
#X obj 122 115 s \$0-non-rds;
#X obj 141 93 s \$0-nof-rds;
#X obj 612 266 r \$0-non-rds;
#X obj 748 271 r \$0-nof-rds;
#X obj 195 307 *~ 0.24;
#X obj 180 252 pow~ 48;
#X obj 80 324 cos~;
#X obj 80 346 *~;
#X obj 250 210 line~;
#X obj 250 329 *~;
#X obj 80 302 *~ 6;
#X obj 250 252 pow~ 4;
#X msg 250 188 1 \, 0 3000;
#X obj 320 210 line~;
#X obj 320 329 *~;
#X obj 110 324 cos~;
#X obj 110 346 *~;
#X obj 110 302 *~ 20;
#X msg 320 188 1 \, 0 500;
#X obj 180 274 *~;
#X obj 250 274 *~;
#X obj 320 274 *~;
#X obj 420 290 min~ 1;
#X obj 265 307 *~ 0.0008;
#N canvas 0 22 507 447 env 0;
#X obj 163 73 unpack f f f;
#X obj 88 386 outlet~;
#X obj 163 259 -~;
#X obj 195 242 sig~ 1;
#X obj 195 264 -~;
#X obj 245 225 *~;
#X obj 163 281 *~;
#X obj 148 325 +~;
#X obj 163 303 /~;
#X obj 280 242 sig~ 1;
#X obj 280 264 -~;
#X obj 280 286 +~;
#X obj 88 198 sig~ 1;
#X obj 88 220 -~;
#X obj 88 242 *~;
#X obj 88 264 +~;
#X obj 131 247 *~;
#N canvas 0 22 234 183 <=~ 0;
#X obj 150 34 inlet~;
#X obj 45 34 inlet~;
#X obj 45 129 outlet~;
#N canvas 467 216 450 300 @hv_obj 0;
#X obj 217 60 inlet~;
#X obj 120 60 inlet~;
#X obj 170 183 outlet~;
#X connect 1 0 2 0;
#X restore 45 105 pd @hv_obj __and~f;
#X obj 150 83 sig~ 1;
#N canvas 715 101 191 233 @hv_obj 0;
#X obj 49 83 -~;
#X obj 50 109 clip~ -1e-37 0;
#X obj 49 32 inlet~;
#X obj 93 33 inlet~;
#X obj 50 174 outlet~;
#X obj 50 151 *~ 1e+37;
#X obj 49 58 min~;
#X obj 50 130 +~ 1e-37;
#X connect 0 0 1 0;
#X connect 1 0 7 0;
#X connect 2 0 6 0;
#X connect 2 0 0 1;
#X connect 3 0 6 1;
#X connect 5 0 4 0;
#X connect 6 0 0 0;
#X connect 7 0 5 0;
#X restore 45 57 pd @hv_obj __lte~f;
#X connect 0 0 5 1;
#X connect 1 0 5 0;
#X connect 3 0 2 0;
#X connect 4 0 3 1;
#X connect 5 0 3 0;
#X restore 363 247 pd <=~;
#N canvas 0 22 255 189 >=~ 0;
#X obj 150 34 inlet~;
#X obj 45 34 inlet~;
#X obj 45 129 outlet~;
#N canvas 467 216 290 220 @hv_obj 0;
#X obj 158 52 inlet~;
#X obj 61 52 inlet~;
#X obj 61 136 outlet~;
#X obj 61 100 *~;
#X connect 0 0 3 1;
#X connect 1 0 3 0;
#X connect 3 0 2 0;
#X restore 45 105 pd @hv_obj __and~f;
#X obj 150 83 sig~ 1;
#N canvas 249 541 148 189 @hv_obj 0;
#X obj 23 69 -~;
#X obj 23 94 clip~ -1e-37 0;
#X obj 23 18 inlet~;
#X obj 67 19 inlet~;
#X obj 23 159 outlet~;
#X obj 23 136 *~ 1e+37;
#X obj 23 44 min~;
#X obj 23 115 +~ 1e-37;
#X connect 0 0 1 0;
#X connect 1 0 7 0;
#X connect 2 0 6 0;
#X connect 3 0 6 1;
#X connect 3 0 0 1;
#X connect 5 0 4 0;
#X connect 6 0 0 0;
#X connect 7 0 5 0;
#X restore 45 57 pd @hv_obj __gte~f;
#X connect 0 0 5 1;
#X connect 1 0 5 0;
#X connect 3 0 2 0;
#X connect 4 0 3 1;
#X connect 5 0 3 0;
#X restore 413 252 pd >=~;
#X obj 446 230 sig~ 0;
#X obj 363 269 *~;
#X obj 348 308 sig~ 1;
#X obj 348 330 -~;
#X obj 88 286 *~;
#X obj 148 347 *~;
#X obj 88 364 +~;
#X obj 163 156 line~;
#X obj 103 161 line~;
#X obj 12 12 inlet list;
#N canvas 349 167 179 187 hv.vline 0;
#X obj 12 34 t a b;
#X msg 75 56 0;
#N canvas 274 138 292 165 dbl-pipe 0;
#X obj 22 22 inlet;
#X obj 82 22 inlet;
#X obj 182 22 inlet;
#X obj 22 64 pipe 0;
#X obj 82 64 pipe 0;
#X obj 22 86 outlet;
#X obj 82 86 outlet;
#X obj 132 64 pipe 0;
#X obj 132 86 outlet;
#X obj 132 22 inlet;
#X connect 0 0 3 0;
#X connect 0 0 4 0;
#X connect 1 0 4 0;
#X connect 2 0 3 1;
#X connect 2 0 4 1;
#X connect 2 0 7 1;
#X connect 3 0 5 0;
#X connect 4 0 6 0;
#X connect 7 0 8 0;
#X connect 9 0 7 0;
#X restore 12 100 pd dbl-pipe;
#X obj 12 78 unpack f f f f;
#X obj 12 122 pack f f f;
#X obj 12 12 inlet;
#X obj 12 144 outlet;
#X connect 0 0 3 0;
#X connect 0 1 1 0;
#X connect 1 0 2 3;
#X connect 2 0 4 0;
#X connect 2 1 4 1;
#X connect 2 2 4 2;
#X connect 3 0 2 0;
#X connect 3 1 2 1;
#X connect 3 2 2 2;
#X connect 3 3 2 3;
#X connect 4 0 6 0;
#X connect 5 0 0 0;
#X restore 12 34 pd hv.vline;
#X obj 12 56 t a b a;
#X obj 325 90 sig~;
#X msg 103 139 0 \, 1 \$1;
#X obj 178 225 samphold~;
#X obj 12 78 unpack f f f;
#X msg 229 110 -1 \, 0 1;
#X obj 229 132 line~;
#X obj 245 247 exp~;
#X obj 325 247 exp~;
#X obj 325 68 inlet curve;
#X obj 144 381 s~ \$0-env-rds;
#X obj 178 203 r~ \$0-env-rds;
#X connect 0 0 26 0;
#X connect 0 2 31 0;
#X connect 2 0 6 0;
#X connect 3 0 4 0;
#X connect 4 0 6 1;
#X connect 5 0 37 0;
#X connect 6 0 8 0;
#X connect 7 0 24 0;
#X connect 8 0 7 1;
#X connect 9 0 10 0;
#X connect 10 0 11 0;
#X connect 11 0 8 1;
#X connect 12 0 13 0;
#X connect 13 0 14 0;
#X connect 14 0 15 0;
#X connect 15 0 23 0;
#X connect 16 0 15 1;
#X connect 17 0 20 0;
#X connect 18 0 20 1;
#X connect 19 0 17 1;
#X connect 19 0 18 1;
#X connect 20 0 11 1;
#X connect 20 0 22 1;
#X connect 20 0 23 1;
#X connect 21 0 22 0;
#X connect 22 0 24 1;
#X connect 23 0 25 0;
#X connect 24 0 25 1;
#X connect 25 0 1 0;
#X connect 25 0 40 0;
#X connect 26 0 2 0;
#X connect 26 0 16 1;
#X connect 27 0 5 0;
#X connect 27 0 13 1;
#X connect 27 0 16 0;
#X connect 28 0 29 0;
#X connect 29 0 30 0;
#X connect 30 0 34 0;
#X connect 30 1 35 0;
#X connect 30 2 0 0;
#X connect 31 0 5 1;
#X connect 31 0 18 0;
#X connect 31 0 17 0;
#X connect 31 0 38 0;
#X connect 32 0 27 0;
#X connect 33 0 2 1;
#X connect 33 0 7 0;
#X connect 33 0 14 1;
#X connect 34 1 32 0;
#X connect 35 0 36 0;
#X connect 36 0 33 1;
#X connect 37 0 4 1;
#X connect 38 0 10 1;
#X connect 39 0 31 0;
#X connect 41 0 33 0;
#X restore 612 310 pd env;
#X obj 180 232 lop~ 2000;
#X obj 250 232 lop~ 2000;
#X obj 320 232 lop~ 2000;
#X obj 12 200 lop~ 1000;
#X obj 633 217 /~ 261.626;
#X obj 612 332 pow~;
#X obj 12 407 *~ -1;
#X obj 12 429 *~;
#X obj 180 166 r \$0-non-rds;
#X obj 633 239 max~ 1;
#X msg 748 293 0 50 0;
#X obj 320 252 pow~ 8;
#X msg 612 288 1 1 0 \, 0 14213 -16 6;
#X obj 42 368 *~;
#X obj 181 67 s \$0-vel-rds;
#X obj 506 153 r \$0-vel-rds;
#X obj 506 175 - 1;
#X obj 506 197 / 126;
#X obj 506 285 + 100;
#X obj 154 39 sel 0;
#X msg 506 219 1 \$1;
#X obj 506 241 -;
#X obj 506 263 * -9;
#X obj 506 307 dbtorms;
#X msg 506 329 \$1 1;
#X obj 506 351 line~;
#X obj 556 285 + 100;
#X obj 556 307 dbtorms;
#X msg 556 329 \$1 1;
#X obj 556 351 line~;
#X obj 110 368 *~;
#X obj 556 263 * -12;
#X obj 834 249 cos~;
#X obj 834 271 /~ 2;
#X obj 834 293 +~ 0.5;
#X obj 834 315 /~ 2;
#X obj 612 354 *~;
#X obj 834 337 +~ 0.5;
#X obj 612 376 *~;
#X obj 612 414 lop~ 10000;
#X obj 335 307 *~ 0.001;
#X obj 12 451 outlet~;
#X obj 12 144 inlet~ frequency;
#X obj 122 12 inlet velocity;
#X connect 0 0 2 0;
#X connect 0 0 25 0;
#X connect 0 0 32 0;
#X connect 0 0 1 0;
#X connect 1 0 46 0;
#X connect 2 0 3 0;
#X connect 3 0 53 0;
#X connect 4 0 5 0;
#X connect 5 0 15 0;
#X connect 5 1 16 0;
#X connect 6 0 3 1;
#X connect 7 0 8 0;
#X connect 8 0 72 0;
#X connect 9 0 8 1;
#X connect 10 0 7 0;
#X connect 11 0 12 0;
#X connect 12 0 36 1;
#X connect 12 0 35 1;
#X connect 12 0 34 1;
#X connect 12 0 37 0;
#X connect 13 0 40 0;
#X connect 14 0 13 0;
#X connect 17 0 52 0;
#X connect 18 0 50 0;
#X connect 19 0 6 1;
#X connect 20 0 34 0;
#X connect 21 0 22 0;
#X connect 22 0 53 0;
#X connect 23 0 41 0;
#X connect 24 0 22 1;
#X connect 25 0 21 0;
#X connect 26 0 35 0;
#X connect 27 0 23 0;
#X connect 28 0 42 0;
#X connect 29 0 31 1;
#X connect 30 0 31 0;
#X connect 31 0 70 0;
#X connect 32 0 30 0;
#X connect 33 0 28 0;
#X connect 34 0 6 0;
#X connect 35 0 24 0;
#X connect 36 0 29 0;
#X connect 37 0 19 0;
#X connect 37 0 38 0;
#X connect 38 0 24 1;
#X connect 39 0 45 0;
#X connect 40 0 20 0;
#X connect 41 0 26 0;
#X connect 42 0 51 0;
#X connect 43 0 0 0;
#X connect 43 0 12 1;
#X connect 43 0 44 0;
#X connect 44 0 49 0;
#X connect 44 0 80 0;
#X connect 45 0 76 0;
#X connect 46 0 47 0;
#X connect 47 0 81 0;
#X connect 48 0 14 0;
#X connect 48 0 27 0;
#X connect 48 0 33 0;
#X connect 49 0 45 1;
#X connect 50 0 39 0;
#X connect 51 0 36 0;
#X connect 52 0 39 0;
#X connect 53 0 1 0;
#X connect 55 0 56 0;
#X connect 56 0 57 0;
#X connect 57 0 60 0;
#X connect 58 0 63 0;
#X connect 59 1 54 0;
#X connect 60 0 61 0;
#X connect 61 0 62 0;
#X connect 61 0 71 0;
#X connect 62 0 58 0;
#X connect 63 0 64 0;
#X connect 64 0 65 0;
#X connect 65 0 53 1;
#X connect 66 0 67 0;
#X connect 67 0 68 0;
#X connect 68 0 69 0;
#X connect 69 0 70 1;
#X connect 69 0 78 1;
#X connect 70 0 1 0;
#X connect 71 0 66 0;
#X connect 72 0 73 0;
#X connect 73 0 74 0;
#X connect 74 0 75 0;
#X connect 75 0 77 0;
#X connect 76 0 78 0;
#X connect 77 0 76 1;
#X connect 78 0 79 0;
#X connect 79 0 47 1;
#X connect 80 0 29 1;
#X connect 82 0 43 0;
#X connect 82 0 9 0;
#X connect 83 0 4 0;
#X connect 83 0 59 0;
#X restore 75 409 pd rds~;
#X obj 75 269 t f f;
#X obj 185 283 div 7;
#X obj 185 318 * 12;
#X obj 75 290 % 7;
#X obj 75 311 tabread \$0-scale;
#X obj 75 332 +;
#X obj 75 353 mtof;
#N canvas 0 23 930 487 rds~ 0;
#X obj 12 252 phasor~;
#X obj 12 385 cos~;
#X obj 42 324 cos~;
#X obj 42 346 *~;
#X obj 122 49 > 0;
#X obj 122 71 sel 1 0;
#X obj 180 329 *~;
#X obj 834 205 log~;
#X obj 834 227 /~;
#X obj 849 161 log~;
#X obj 834 183 sig~ 261.626;
#X obj 420 235 sig~ 261.626;
#X obj 420 257 /~;
#X obj 180 210 line~;
#X msg 180 188 1 \, 0 141213;
#X obj 122 115 s \$0-non-rds;
#X obj 141 93 s \$0-nof-rds;
#X obj 612 266 r \$0-non-rds;
#X obj 748 271 r \$0-nof-rds;
#X obj 195 307 *~ 0.24;
#X obj 180 252 pow~ 48;
#X obj 80 324 cos~;
#X obj 80 346 *~;
#X obj 250 210 line~;
#X obj 250 329 *~;
#X obj 80 302 *~ 6;
#X obj 250 252 pow~ 4;
#X msg 250 188 1 \, 0 3000;
#X obj 320 210 line~;
#X obj 320 329 *~;
#X obj 110 324 cos~;
#X obj 110 346 *~;
#X obj 110 302 *~ 20;
#X msg 320 188 1 \, 0 500;
#X obj 180 274 *~;
#X obj 250 274 *~;
#X obj 320 274 *~;
#X obj 420 290 min~ 1;
#X obj 265 307 *~ 0.0008;
#N canvas 0 23 507 447 env 0;
#X obj 163 73 unpack f f f;
#X obj 88 386 outlet~;
#X obj 163 259 -~;
#X obj 195 242 sig~ 1;
#X obj 195 264 -~;
#X obj 245 225 *~;
#X obj 163 281 *~;
#X obj 148 325 +~;
#X obj 163 303 /~;
#X obj 280 242 sig~ 1;
#X obj 280 264 -~;
#X obj 280 286 +~;
#X obj 88 198 sig~ 1;
#X obj 88 220 -~;
#X obj 88 242 *~;
#X obj 88 264 +~;
#X obj 131 247 *~;
#N canvas 0 22 234 183 <=~ 0;
#X obj 150 34 inlet~;
#X obj 45 34 inlet~;
#X obj 45 129 outlet~;
#N canvas 467 216 450 300 @hv_obj 0;
#X obj 217 60 inlet~;
#X obj 120 60 inlet~;
#X obj 170 183 outlet~;
#X connect 1 0 2 0;
#X restore 45 105 pd @hv_obj __and~f;
#X obj 150 83 sig~ 1;
#N canvas 715 101 191 233 @hv_obj 0;
#X obj 49 83 -~;
#X obj 50 109 clip~ -1e-37 0;
#X obj 49 32 inlet~;
#X obj 93 33 inlet~;
#X obj 50 174 outlet~;
#X obj 50 151 *~ 1e+37;
#X obj 49 58 min~;
#X obj 50 130 +~ 1e-37;
#X connect 0 0 1 0;
#X connect 1 0 7 0;
#X connect 2 0 6 0;
#X connect 2 0 0 1;
#X connect 3 0 6 1;
#X connect 5 0 4 0;
#X connect 6 0 0 0;
#X connect 7 0 5 0;
#X restore 45 57 pd @hv_obj __lte~f;
#X connect 0 0 5 1;
#X connect 1 0 5 0;
#X connect 3 0 2 0;
#X connect 4 0 3 1;
#X connect 5 0 3 0;
#X restore 363 247 pd <=~;
#N canvas 0 22 255 189 >=~ 0;
#X obj 150 34 inlet~;
#X obj 45 34 inlet~;
#X obj 45 129 outlet~;
#N canvas 467 216 290 220 @hv_obj 0;
#X obj 158 52 inlet~;
#X obj 61 52 inlet~;
#X obj 61 136 outlet~;
#X obj 61 100 *~;
#X connect 0 0 3 1;
#X connect 1 0 3 0;
#X connect 3 0 2 0;
#X restore 45 105 pd @hv_obj __and~f;
#X obj 150 83 sig~ 1;
#N canvas 249 541 148 189 @hv_obj 0;
#X obj 23 69 -~;
#X obj 23 94 clip~ -1e-37 0;
#X obj 23 18 inlet~;
#X obj 67 19 inlet~;
#X obj 23 159 outlet~;
#X obj 23 136 *~ 1e+37;
#X obj 23 44 min~;
#X obj 23 115 +~ 1e-37;
#X connect 0 0 1 0;
#X connect 1 0 7 0;
#X connect 2 0 6 0;
#X connect 3 0 6 1;
#X connect 3 0 0 1;
#X connect 5 0 4 0;
#X connect 6 0 0 0;
#X connect 7 0 5 0;
#X restore 45 57 pd @hv_obj __gte~f;
#X connect 0 0 5 1;
#X connect 1 0 5 0;
#X connect 3 0 2 0;
#X connect 4 0 3 1;
#X connect 5 0 3 0;
#X restore 413 252 pd >=~;
#X obj 446 230 sig~ 0;
#X obj 363 269 *~;
#X obj 348 308 sig~ 1;
#X obj 348 330 -~;
#X obj 88 286 *~;
#X obj 148 347 *~;
#X obj 88 364 +~;
#X obj 163 156 line~;
#X obj 103 161 line~;
#X obj 12 12 inlet list;
#N canvas 349 167 179 187 hv.vline 0;
#X obj 12 34 t a b;
#X msg 75 56 0;
#N canvas 274 138 292 165 dbl-pipe 0;
#X obj 22 22 inlet;
#X obj 82 22 inlet;
#X obj 182 22 inlet;
#X obj 22 64 pipe 0;
#X obj 82 64 pipe 0;
#X obj 22 86 outlet;
#X obj 82 86 outlet;
#X obj 132 64 pipe 0;
#X obj 132 86 outlet;
#X obj 132 22 inlet;
#X connect 0 0 3 0;
#X connect 0 0 4 0;
#X connect 1 0 4 0;
#X connect 2 0 3 1;
#X connect 2 0 4 1;
#X connect 2 0 7 1;
#X connect 3 0 5 0;
#X connect 4 0 6 0;
#X connect 7 0 8 0;
#X connect 9 0 7 0;
#X restore 12 100 pd dbl-pipe;
#X obj 12 78 unpack f f f f;
#X obj 12 122 pack f f f;
#X obj 12 12 inlet;
#X obj 12 144 outlet;
#X connect 0 0 3 0;
#X connect 0 1 1 0;
#X connect 1 0 2 3;
#X connect 2 0 4 0;
#X connect 2 1 4 1;
#X connect 2 2 4 2;
#X connect 3 0 2 0;
#X connect 3 1 2 1;
#X connect 3 2 2 2;
#X connect 3 3 2 3;
#X connect 4 0 6 0;
#X connect 5 0 0 0;
#X restore 12 34 pd hv.vline;
#X obj 12 56 t a b a;
#X obj 325 90 sig~;
#X msg 103 139 0 \, 1 \$1;
#X obj 178 225 samphold~;
#X obj 12 78 unpack f f f;
#X msg 229 110 -1 \, 0 1;
#X obj 229 132 line~;
#X obj 245 247 exp~;
#X obj 325 247 exp~;
#X obj 325 68 inlet curve;
#X obj 144 381 s~ \$0-env-rds-2;
#X obj 178 203 r~ \$0-env-rds-2;
#X connect 0 0 26 0;
#X connect 0 2 31 0;
#X connect 2 0 6 0;
#X connect 3 0 4 0;
#X connect 4 0 6 1;
#X connect 5 0 37 0;
#X connect 6 0 8 0;
#X connect 7 0 24 0;
#X connect 8 0 7 1;
#X connect 9 0 10 0;
#X connect 10 0 11 0;
#X connect 11 0 8 1;
#X connect 12 0 13 0;
#X connect 13 0 14 0;
#X connect 14 0 15 0;
#X connect 15 0 23 0;
#X connect 16 0 15 1;
#X connect 17 0 20 0;
#X connect 18 0 20 1;
#X connect 19 0 17 1;
#X connect 19 0 18 1;
#X connect 20 0 11 1;
#X connect 20 0 22 1;
#X connect 20 0 23 1;
#X connect 21 0 22 0;
#X connect 22 0 24 1;
#X connect 23 0 25 0;
#X connect 24 0 25 1;
#X connect 25 0 1 0;
#X connect 25 0 40 0;
#X connect 26 0 2 0;
#X connect 26 0 16 1;
#X connect 27 0 5 0;
#X connect 27 0 13 1;
#X connect 27 0 16 0;
#X connect 28 0 29 0;
#X connect 29 0 30 0;
#X connect 30 0 34 0;
#X connect 30 1 35 0;
#X connect 30 2 0 0;
#X connect 31 0 5 1;
#X connect 31 0 18 0;
#X connect 31 0 17 0;
#X connect 31 0 38 0;
#X connect 32 0 27 0;
#X connect 33 0 2 1;
#X connect 33 0 7 0;
#X connect 33 0 14 1;
#X connect 34 1 32 0;
#X connect 35 0 36 0;
#X connect 36 0 33 1;
#X connect 37 0 4 1;
#X connect 38 0 10 1;
#X connect 39 0 31 0;
#X connect 41 0 33 0;
#X restore 612 310 pd env;
#X obj 180 232 lop~ 2000;
#X obj 250 232 lop~ 2000;
#X obj 320 232 lop~ 2000;
#X obj 12 200 lop~ 1000;
#X obj 633 217 /~ 261.626;
#X obj 612 332 pow~;
#X obj 12 407 *~ -1;
#X obj 12 429 *~;
#X obj 180 166 r \$0-non-rds;
#X obj 633 239 max~ 1;
#X msg 748 293 0 50 0;
#X obj 320 252 pow~ 8;
#X msg 612 288 1 1 0 \, 0 14213 -16 6;
#X obj 42 368 *~;
#X obj 181 67 s \$0-vel-rds;
#X obj 506 153 r \$0-vel-rds;
#X obj 506 175 - 1;
#X obj 506 197 / 126;
#X obj 506 285 + 100;
#X obj 154 39 sel 0;
#X msg 506 219 1 \$1;
#X obj 506 241 -;
#X obj 506 263 * -9;
#X obj 506 307 dbtorms;
#X msg 506 329 \$1 1;
#X obj 506 351 line~;
#X obj 556 285 + 100;
#X obj 556 307 dbtorms;
#X msg 556 329 \$1 1;
#X obj 556 351 line~;
#X obj 110 368 *~;
#X obj 556 263 * -12;
#X obj 834 249 cos~;
#X obj 834 271 /~ 2;
#X obj 834 293 +~ 0.5;
#X obj 834 315 /~ 2;
#X obj 612 354 *~;
#X obj 834 337 +~ 0.5;
#X obj 612 376 *~;
#X obj 612 414 lop~ 10000;
#X obj 335 307 *~ 0.001;
#X obj 12 451 outlet~;
#X obj 12 144 inlet~ frequency;
#X obj 122 12 inlet velocity;
#X connect 0 0 2 0;
#X connect 0 0 25 0;
#X connect 0 0 32 0;
#X connect 0 0 1 0;
#X connect 1 0 46 0;
#X connect 2 0 3 0;
#X connect 3 0 53 0;
#X connect 4 0 5 0;
#X connect 5 0 15 0;
#X connect 5 1 16 0;
#X connect 6 0 3 1;
#X connect 7 0 8 0;
#X connect 8 0 72 0;
#X connect 9 0 8 1;
#X connect 10 0 7 0;
#X connect 11 0 12 0;
#X connect 12 0 36 1;
#X connect 12 0 35 1;
#X connect 12 0 34 1;
#X connect 12 0 37 0;
#X connect 13 0 40 0;
#X connect 14 0 13 0;
#X connect 17 0 52 0;
#X connect 18 0 50 0;
#X connect 19 0 6 1;
#X connect 20 0 34 0;
#X connect 21 0 22 0;
#X connect 22 0 53 0;
#X connect 23 0 41 0;
#X connect 24 0 22 1;
#X connect 25 0 21 0;
#X connect 26 0 35 0;
#X connect 27 0 23 0;
#X connect 28 0 42 0;
#X connect 29 0 31 1;
#X connect 30 0 31 0;
#X connect 31 0 70 0;
#X connect 32 0 30 0;
#X connect 33 0 28 0;
#X connect 34 0 6 0;
#X connect 35 0 24 0;
#X connect 36 0 29 0;
#X connect 37 0 19 0;
#X connect 37 0 38 0;
#X connect 38 0 24 1;
#X connect 39 0 45 0;
#X connect 40 0 20 0;
#X connect 41 0 26 0;
#X connect 42 0 51 0;
#X connect 43 0 0 0;
#X connect 43 0 12 1;
#X connect 43 0 44 0;
#X connect 44 0 49 0;
#X connect 44 0 80 0;
#X connect 45 0 76 0;
#X connect 46 0 47 0;
#X connect 47 0 81 0;
#X connect 48 0 14 0;
#X connect 48 0 27 0;
#X connect 48 0 33 0;
#X connect 49 0 45 1;
#X connect 50 0 39 0;
#X connect 51 0 36 0;
#X connect 52 0 39 0;
#X connect 53 0 1 0;
#X connect 55 0 56 0;
#X connect 56 0 57 0;
#X connect 57 0 60 0;
#X connect 58 0 63 0;
#X connect 59 1 54 0;
#X connect 60 0 61 0;
#X connect 61 0 62 0;
#X connect 61 0 71 0;
#X connect 62 0 58 0;
#X connect 63 0 64 0;
#X connect 64 0 65 0;
#X connect 65 0 53 1;
#X connect 66 0 67 0;
#X connect 67 0 68 0;
#X connect 68 0 69 0;
#X connect 69 0 70 1;
#X connect 69 0 78 1;
#X connect 70 0 1 0;
#X connect 71 0 66 0;
#X connect 72 0 73 0;
#X connect 73 0 74 0;
#X connect 74 0 75 0;
#X connect 75 0 77 0;
#X connect 76 0 78 0;
#X connect 77 0 76 1;
#X connect 78 0 79 0;
#X connect 79 0 47 1;
#X connect 80 0 29 1;
#X connect 82 0 43 0;
#X connect 82 0 9 0;
#X connect 83 0 4 0;
#X connect 83 0 59 0;
#X restore 225 409 pd rds~;
#X obj 225 269 t f f;
#X obj 335 283 div 7;
#X obj 335 318 * 12;
#X obj 225 290 % 7;
#X obj 225 311 tabread \$0-scale;
#X obj 225 332 +;
#X obj 225 353 mtof;
#X obj 225 248 + 4;
#N canvas 0 23 930 487 rds~ 0;
#X obj 12 252 phasor~;
#X obj 12 385 cos~;
#X obj 42 324 cos~;
#X obj 42 346 *~;
#X obj 122 49 > 0;
#X obj 122 71 sel 1 0;
#X obj 180 329 *~;
#X obj 834 205 log~;
#X obj 834 227 /~;
#X obj 849 161 log~;
#X obj 834 183 sig~ 261.626;
#X obj 420 235 sig~ 261.626;
#X obj 420 257 /~;
#X obj 180 210 line~;
#X msg 180 188 1 \, 0 141213;
#X obj 122 115 s \$0-non-rds;
#X obj 141 93 s \$0-nof-rds;
#X obj 612 266 r \$0-non-rds;
#X obj 748 271 r \$0-nof-rds;
#X obj 195 307 *~ 0.24;
#X obj 180 252 pow~ 48;
#X obj 80 324 cos~;
#X obj 80 346 *~;
#X obj 250 210 line~;
#X obj 250 329 *~;
#X obj 80 302 *~ 6;
#X obj 250 252 pow~ 4;
#X msg 250 188 1 \, 0 3000;
#X obj 320 210 line~;
#X obj 320 329 *~;
#X obj 110 324 cos~;
#X obj 110 346 *~;
#X obj 110 302 *~ 20;
#X msg 320 188 1 \, 0 500;
#X obj 180 274 *~;
#X obj 250 274 *~;
#X obj 320 274 *~;
#X obj 420 290 min~ 1;
#X obj 265 307 *~ 0.0008;
#N canvas 0 23 507 447 env 0;
#X obj 163 73 unpack f f f;
#X obj 88 386 outlet~;
#X obj 163 259 -~;
#X obj 195 242 sig~ 1;
#X obj 195 264 -~;
#X obj 245 225 *~;
#X obj 163 281 *~;
#X obj 148 325 +~;
#X obj 163 303 /~;
#X obj 280 242 sig~ 1;
#X obj 280 264 -~;
#X obj 280 286 +~;
#X obj 88 198 sig~ 1;
#X obj 88 220 -~;
#X obj 88 242 *~;
#X obj 88 264 +~;
#X obj 131 247 *~;
#N canvas 0 22 234 183 <=~ 0;
#X obj 150 34 inlet~;
#X obj 45 34 inlet~;
#X obj 45 129 outlet~;
#N canvas 467 216 450 300 @hv_obj 0;
#X obj 217 60 inlet~;
#X obj 120 60 inlet~;
#X obj 170 183 outlet~;
#X connect 1 0 2 0;
#X restore 45 105 pd @hv_obj __and~f;
#X obj 150 83 sig~ 1;
#N canvas 715 101 191 233 @hv_obj 0;
#X obj 49 83 -~;
#X obj 50 109 clip~ -1e-37 0;
#X obj 49 32 inlet~;
#X obj 93 33 inlet~;
#X obj 50 174 outlet~;
#X obj 50 151 *~ 1e+37;
#X obj 49 58 min~;
#X obj 50 130 +~ 1e-37;
#X connect 0 0 1 0;
#X connect 1 0 7 0;
#X connect 2 0 6 0;
#X connect 2 0 0 1;
#X connect 3 0 6 1;
#X connect 5 0 4 0;
#X connect 6 0 0 0;
#X connect 7 0 5 0;
#X restore 45 57 pd @hv_obj __lte~f;
#X connect 0 0 5 1;
#X connect 1 0 5 0;
#X connect 3 0 2 0;
#X connect 4 0 3 1;
#X connect 5 0 3 0;
#X restore 363 247 pd <=~;
#N canvas 0 22 255 189 >=~ 0;
#X obj 150 34 inlet~;
#X obj 45 34 inlet~;
#X obj 45 129 outlet~;
#N canvas 467 216 290 220 @hv_obj 0;
#X obj 158 52 inlet~;
#X obj 61 52 inlet~;
#X obj 61 136 outlet~;
#X obj 61 100 *~;
#X connect 0 0 3 1;
#X connect 1 0 3 0;
#X connect 3 0 2 0;
#X restore 45 105 pd @hv_obj __and~f;
#X obj 150 83 sig~ 1;
#N canvas 249 541 148 189 @hv_obj 0;
#X obj 23 69 -~;
#X obj 23 94 clip~ -1e-37 0;
#X obj 23 18 inlet~;
#X obj 67 19 inlet~;
#X obj 23 159 outlet~;
#X obj 23 136 *~ 1e+37;
#X obj 23 44 min~;
#X obj 23 115 +~ 1e-37;
#X connect 0 0 1 0;
#X connect 1 0 7 0;
#X connect 2 0 6 0;
#X connect 3 0 6 1;
#X connect 3 0 0 1;
#X connect 5 0 4 0;
#X connect 6 0 0 0;
#X connect 7 0 5 0;
#X restore 45 57 pd @hv_obj __gte~f;
#X connect 0 0 5 1;
#X connect 1 0 5 0;
#X connect 3 0 2 0;
#X connect 4 0 3 1;
#X connect 5 0 3 0;
#X restore 413 252 pd >=~;
#X obj 446 230 sig~ 0;
#X obj 363 269 *~;
#X obj 348 308 sig~ 1;
#X obj 348 330 -~;
#X obj 88 286 *~;
#X obj 148 347 *~;
#X obj 88 364 +~;
#X obj 163 156 line~;
#X obj 103 161 line~;
#X obj 12 12 inlet list;
#N canvas 349 167 179 187 hv.vline 0;
#X obj 12 34 t a b;
#X msg 75 56 0;
#N canvas 274 138 292 165 dbl-pipe 0;
#X obj 22 22 inlet;
#X obj 82 22 inlet;
#X obj 182 22 inlet;
#X obj 22 64 pipe 0;
#X obj 82 64 pipe 0;
#X obj 22 86 outlet;
#X obj 82 86 outlet;
#X obj 132 64 pipe 0;
#X obj 132 86 outlet;
#X obj 132 22 inlet;
#X connect 0 0 3 0;
#X connect 0 0 4 0;
#X connect 1 0 4 0;
#X connect 2 0 3 1;
#X connect 2 0 4 1;
#X connect 2 0 7 1;
#X connect 3 0 5 0;
#X connect 4 0 6 0;
#X connect 7 0 8 0;
#X connect 9 0 7 0;
#X restore 12 100 pd dbl-pipe;
#X obj 12 78 unpack f f f f;
#X obj 12 122 pack f f f;
#X obj 12 12 inlet;
#X obj 12 144 outlet;
#X connect 0 0 3 0;
#X connect 0 1 1 0;
#X connect 1 0 2 3;
#X connect 2 0 4 0;
#X connect 2 1 4 1;
#X connect 2 2 4 2;
#X connect 3 0 2 0;
#X connect 3 1 2 1;
#X connect 3 2 2 2;
#X connect 3 3 2 3;
#X connect 4 0 6 0;
#X connect 5 0 0 0;
#X restore 12 34 pd hv.vline;
#X obj 12 56 t a b a;
#X obj 325 90 sig~;
#X msg 103 139 0 \, 1 \$1;
#X obj 178 225 samphold~;
#X obj 12 78 unpack f f f;
#X msg 229 110 -1 \, 0 1;
#X obj 229 132 line~;
#X obj 245 247 exp~;
#X obj 325 247 exp~;
#X obj 325 68 inlet curve;
#X obj 144 381 s~ \$0-env-rds-3;
#X obj 178 203 r~ \$0-env-rds-3;
#X connect 0 0 26 0;
#X connect 0 2 31 0;
#X connect 2 0 6 0;
#X connect 3 0 4 0;
#X connect 4 0 6 1;
#X connect 5 0 37 0;
#X connect 6 0 8 0;
#X connect 7 0 24 0;
#X connect 8 0 7 1;
#X connect 9 0 10 0;
#X connect 10 0 11 0;
#X connect 11 0 8 1;
#X connect 12 0 13 0;
#X connect 13 0 14 0;
#X connect 14 0 15 0;
#X connect 15 0 23 0;
#X connect 16 0 15 1;
#X connect 17 0 20 0;
#X connect 18 0 20 1;
#X connect 19 0 17 1;
#X connect 19 0 18 1;
#X connect 20 0 11 1;
#X connect 20 0 22 1;
#X connect 20 0 23 1;
#X connect 21 0 22 0;
#X connect 22 0 24 1;
#X connect 23 0 25 0;
#X connect 24 0 25 1;
#X connect 25 0 1 0;
#X connect 25 0 40 0;
#X connect 26 0 2 0;
#X connect 26 0 16 1;
#X connect 27 0 5 0;
#X connect 27 0 13 1;
#X connect 27 0 16 0;
#X connect 28 0 29 0;
#X connect 29 0 30 0;
#X connect 30 0 34 0;
#X connect 30 1 35 0;
#X connect 30 2 0 0;
#X connect 31 0 5 1;
#X connect 31 0 18 0;
#X connect 31 0 17 0;
#X connect 31 0 38 0;
#X connect 32 0 27 0;
#X connect 33 0 2 1;
#X connect 33 0 7 0;
#X connect 33 0 14 1;
#X connect 34 1 32 0;
#X connect 35 0 36 0;
#X connect 36 0 33 1;
#X connect 37 0 4 1;
#X connect 38 0 10 1;
#X connect 39 0 31 0;
#X connect 41 0 33 0;
#X restore 612 310 pd env;
#X obj 180 232 lop~ 2000;
#X obj 250 232 lop~ 2000;
#X obj 320 232 lop~ 2000;
#X obj 12 200 lop~ 1000;
#X obj 633 217 /~ 261.626;
#X obj 612 332 pow~;
#X obj 12 407 *~ -1;
#X obj 12 429 *~;
#X obj 180 166 r \$0-non-rds;
#X obj 633 239 max~ 1;
#X msg 748 293 0 50 0;
#X obj 320 252 pow~ 8;
#X msg 612 288 1 1 0 \, 0 14213 -16 6;
#X obj 42 368 *~;
#X obj 181 67 s \$0-vel-rds;
#X obj 506 153 r \$0-vel-rds;
#X obj 506 175 - 1;
#X obj 506 197 / 126;
#X obj 506 285 + 100;
#X obj 154 39 sel 0;
#X msg 506 219 1 \$1;
#X obj 506 241 -;
#X obj 506 263 * -9;
#X obj 506 307 dbtorms;
#X msg 506 329 \$1 1;
#X obj 506 351 line~;
#X obj 556 285 + 100;
#X obj 556 307 dbtorms;
#X msg 556 329 \$1 1;
#X obj 556 351 line~;
#X obj 110 368 *~;
#X obj 556 263 * -12;
#X obj 834 249 cos~;
#X obj 834 271 /~ 2;
#X obj 834 293 +~ 0.5;
#X obj 834 315 /~ 2;
#X obj 612 354 *~;
#X obj 834 337 +~ 0.5;
#X obj 612 376 *~;
#X obj 612 414 lop~ 10000;
#X obj 335 307 *~ 0.001;
#X obj 12 451 outlet~;
#X obj 12 144 inlet~ frequency;
#X obj 122 12 inlet velocity;
#X connect 0 0 2 0;
#X connect 0 0 25 0;
#X connect 0 0 32 0;
#X connect 0 0 1 0;
#X connect 1 0 46 0;
#X connect 2 0 3 0;
#X connect 3 0 53 0;
#X connect 4 0 5 0;
#X connect 5 0 15 0;
#X connect 5 1 16 0;
#X connect 6 0 3 1;
#X connect 7 0 8 0;
#X connect 8 0 72 0;
#X connect 9 0 8 1;
#X connect 10 0 7 0;
#X connect 11 0 12 0;
#X connect 12 0 36 1;
#X connect 12 0 35 1;
#X connect 12 0 34 1;
#X connect 12 0 37 0;
#X connect 13 0 40 0;
#X connect 14 0 13 0;
#X connect 17 0 52 0;
#X connect 18 0 50 0;
#X connect 19 0 6 1;
#X connect 20 0 34 0;
#X connect 21 0 22 0;
#X connect 22 0 53 0;
#X connect 23 0 41 0;
#X connect 24 0 22 1;
#X connect 25 0 21 0;
#X connect 26 0 35 0;
#X connect 27 0 23 0;
#X connect 28 0 42 0;
#X connect 29 0 31 1;
#X connect 30 0 31 0;
#X connect 31 0 70 0;
#X connect 32 0 30 0;
#X connect 33 0 28 0;
#X connect 34 0 6 0;
#X connect 35 0 24 0;
#X connect 36 0 29 0;
#X connect 37 0 19 0;
#X connect 37 0 38 0;
#X connect 38 0 24 1;
#X connect 39 0 45 0;
#X connect 40 0 20 0;
#X connect 41 0 26 0;
#X connect 42 0 51 0;
#X connect 43 0 0 0;
#X connect 43 0 12 1;
#X connect 43 0 44 0;
#X connect 44 0 49 0;
#X connect 44 0 80 0;
#X connect 45 0 76 0;
#X connect 46 0 47 0;
#X connect 47 0 81 0;
#X connect 48 0 14 0;
#X connect 48 0 27 0;
#X connect 48 0 33 0;
#X connect 49 0 45 1;
#X connect 50 0 39 0;
#X connect 51 0 36 0;
#X connect 52 0 39 0;
#X connect 53 0 1 0;
#X connect 55 0 56 0;
#X connect 56 0 57 0;
#X connect 57 0 60 0;
#X connect 58 0 63 0;
#X connect 59 1 54 0;
#X connect 60 0 61 0;
#X connect 61 0 62 0;
#X connect 61 0 71 0;
#X connect 62 0 58 0;
#X connect 63 0 64 0;
#X connect 64 0 65 0;
#X connect 65 0 53 1;
#X connect 66 0 67 0;
#X connect 67 0 68 0;
#X connect 68 0 69 0;
#X connect 69 0 70 1;
#X connect 69 0 78 1;
#X connect 70 0 1 0;
#X connect 71 0 66 0;
#X connect 72 0 73 0;
#X connect 73 0 74 0;
#X connect 74 0 75 0;
#X connect 75 0 77 0;
#X connect 76 0 78 0;
#X connect 77 0 76 1;
#X connect 78 0 79 0;
#X connect 79 0 47 1;
#X connect 80 0 29 1;
#X connect 82 0 43 0;
#X connect 82 0 9 0;
#X connect 83 0 4 0;
#X connect 83 0 59 0;
#X restore 375 409 pd rds~;
#X obj 375 269 t f f;
#X obj 485 283 div 7;
#X obj 485 318 * 12;
#X obj 375 290 % 7;
#X obj 375 311 tabread \$0-scale;
#X obj 375 332 +;
#X obj 375 353 mtof;
#X obj 375 248 + 2;
#X msg 114 385 127;
#X msg 154 385 0;
#X obj 75 227 random 8;
#X obj 375 430 *~ 0.25;
#X obj 225 430 *~ 0.25;
#X obj 75 430 *~ 0.25;
#X obj 114 364 inlet;
#X obj 154 364 inlet;
#X obj 75 206 inlet;
#X obj 75 564 +~;
#X obj 75 585 throw~ \$0-M;
#X obj 75 451 *~ 0.9;
#X obj 165 508 vd~ \$0-rds;
#X obj 279 494 +~ 300;
#X obj 145 472 delwrite~ \$0-rds 310;
#X obj 75 248 + 28;
#X obj 165 529 *~ 0.8;
#X obj 165 550 hip~ 1000;
#X obj 279 473 *~ 5;
#X obj 279 452 osc~ 0.2;
#X connect 0 0 31 0;
#X connect 1 0 4 0;
#X connect 1 1 2 0;
#X connect 2 0 3 0;
#X connect 3 0 6 1;
#X connect 4 0 5 0;
#X connect 5 0 6 0;
#X connect 6 0 7 0;
#X connect 7 0 0 0;
#X connect 8 0 30 0;
#X connect 9 0 12 0;
#X connect 9 1 10 0;
#X connect 10 0 11 0;
#X connect 11 0 14 1;
#X connect 12 0 13 0;
#X connect 13 0 14 0;
#X connect 14 0 15 0;
#X connect 15 0 8 0;
#X connect 16 0 9 0;
#X connect 16 0 25 0;
#X connect 17 0 29 0;
#X connect 18 0 21 0;
#X connect 18 1 19 0;
#X connect 19 0 20 0;
#X connect 20 0 23 1;
#X connect 21 0 22 0;
#X connect 22 0 23 0;
#X connect 23 0 24 0;
#X connect 24 0 17 0;
#X connect 25 0 18 0;
#X connect 26 0 0 1;
#X connect 26 0 8 1;
#X connect 26 0 17 1;
#X connect 27 0 0 1;
#X connect 27 0 8 1;
#X connect 27 0 17 1;
#X connect 28 0 41 0;
#X connect 29 0 37 0;
#X connect 30 0 37 0;
#X connect 31 0 37 0;
#X connect 32 0 26 0;
#X connect 33 0 27 0;
#X connect 34 0 28 0;
#X connect 35 0 36 0;
#X connect 37 0 35 0;
#X connect 37 0 40 0;
#X connect 38 0 42 0;
#X connect 39 0 38 0;
#X connect 41 0 1 0;
#X connect 41 0 16 0;
#X connect 42 0 40 0;
#X connect 42 0 43 0;
#X connect 43 0 35 1;
#X connect 44 0 39 0;
#X connect 45 0 44 0;
#X restore 154 378 pd rhodes;
#X obj 12 122 s \$0-clock;
#X obj 12 413 r \$0-clock;
#X msg 12 634 0.3;
#X msg 39 38 15000 \$1;
#X obj 12 143 r \$0-clock;
#X obj 312 143 r \$0-clock;
#X obj 12 434 euklid 1 1 11 11 0 2 0;
#N canvas 0 23 228 485 bass 0;
#X obj 12 228 phasor~;
#X obj 12 319 cos~;
#X obj 12 382 *~;
#X msg 147 226 1 \, 0 300;
#X obj 147 247 line~;
#X obj 147 268 pow~ 3;
#X obj 123 136 div 7;
#X obj 123 171 * 12;
#X obj 13 143 % 7;
#X obj 13 164 tabread \$0-scale;
#X obj 13 185 +;
#X obj 13 206 mtof;
#X obj 13 38 i;
#X obj 13 59 % 5;
#X obj 43 38 + 1;
#X obj 13 80 tabread \$0-melody;
#X obj 13 122 t f f;
#X obj 13 101 + 14;
#X obj 12 249 -~ 0.25;
#X msg 96 214 0;
#X obj 68 263 cos~;
#X obj 68 284 *~;
#N canvas 0 23 437 326 hv-tanh 0;
#X obj 39 37 inlet~;
#X obj 39 67 clip~ -3 3;
#X obj 54 107 *~;
#X obj 39 277 outlet~;
#X obj 109 107 sig~ 27;
#X obj 54 147 +~;
#X obj 54 217 /~;
#X obj 39 247 *~;
#X obj 94 147 *~ 9;
#X obj 94 187 +~;
#X text 142 177 // http://www.musicdsp.org/showone.php?id=238;
#X text 140 198 // y = x * (27 + x^2) / (27 + 9*x^2);
#X text 144 152 // pade-approximation of tanh function;
#X connect 0 0 1 0;
#X connect 1 0 2 0;
#X connect 1 0 2 1;
#X connect 1 0 7 0;
#X connect 2 0 5 0;
#X connect 2 0 8 0;
#X connect 4 0 5 1;
#X connect 4 0 9 1;
#X connect 5 0 6 0;
#X connect 6 0 7 1;
#X connect 7 0 3 0;
#X connect 8 0 9 0;
#X connect 9 0 6 1;
#X restore 12 361 pd hv-tanh;
#X obj 12 424 throw~ \$0-M;
#X obj 13 12 inlet;
#X obj 12 403 *~ 0.5;
#X obj 68 305 *~ 0.2;
#X obj 12 340 *~ 1.7;
#X connect 0 0 18 0;
#X connect 1 0 27 0;
#X connect 2 0 25 0;
#X connect 3 0 4 0;
#X connect 4 0 5 0;
#X connect 5 0 2 1;
#X connect 5 0 21 1;
#X connect 6 0 7 0;
#X connect 7 0 10 1;
#X connect 8 0 9 0;
#X connect 9 0 10 0;
#X connect 10 0 11 0;
#X connect 11 0 0 0;
#X connect 12 0 13 0;
#X connect 13 0 14 0;
#X connect 13 0 15 0;
#X connect 14 0 12 1;
#X connect 15 0 17 0;
#X connect 16 0 8 0;
#X connect 16 1 6 0;
#X connect 17 0 16 0;
#X connect 18 0 1 0;
#X connect 18 0 20 0;
#X connect 19 0 0 1;
#X connect 20 0 21 0;
#X connect 21 0 26 0;
#X connect 22 0 2 0;
#X connect 24 0 12 0;
#X connect 24 0 19 0;
#X connect 24 0 3 0;
#X connect 25 0 23 0;
#X connect 26 0 1 0;
#X connect 27 0 22 0;
#X restore 547 369 pd bass;
#X obj 322 413 r \$0-clock;
#X text 496 10 EUKLID SONG DEMO;
#X connect 0 0 3 0;
#X connect 1 0 35 0;
#X connect 2 0 3 1;
#X connect 3 0 4 0;
#X connect 4 0 5 0;
#X connect 4 0 32 0;
#X connect 5 0 4 1;
#X connect 6 0 7 0;
#X connect 7 0 8 0;
#X connect 8 0 9 0;
#X connect 9 0 10 0;
#X connect 9 0 10 1;
#X connect 11 0 12 0;
#X connect 12 0 13 0;
#X connect 15 0 18 0;
#X connect 18 0 16 0;
#X connect 19 0 27 0;
#X connect 19 0 29 0;
#X connect 19 1 28 0;
#X connect 19 1 29 0;
#X connect 19 2 39 0;
#X connect 20 0 30 0;
#X connect 21 0 24 0;
#X connect 21 1 24 0;
#X connect 21 1 25 0;
#X connect 22 0 31 1;
#X connect 22 1 31 0;
#X connect 22 2 31 2;
#X connect 23 0 6 0;
#X connect 27 0 26 1;
#X connect 28 0 26 1;
#X connect 29 0 26 0;
#X connect 33 0 38 0;
#X connect 34 0 30 0;
#X connect 35 0 2 0;
#X connect 36 0 22 0;
#X connect 37 0 19 0;
#X connect 38 0 34 0;
#X connect 38 1 20 0;
#X connect 40 0 21 0;
#X coords 0 825 1 824 185 435 0;
