#N canvas 407 324 801 629 12;
#X obj 20 22 vsl 50 45 0 127 0 0 \$0-s-slider \$0-r-slider empty 0
-9 0 10 -262144 -262144 -1 1200 1;
#X obj 20 20 bng 50 1e+09 10 0 \$0-s-circle \$0-r-circle empty 17 7
0 10 -262144 -1 -1;
#X obj 20 20 cnv 50 1 1 empty empty empty 20 12 0 14 -262144 -66577
0;
#X obj 20 80 r \$0-s-slider;
#X obj 130 104 / 127;
#X obj 130 176 t f f;
#X obj 130 344 pack f f;
#X obj 130 248 + 1;
#X obj 130 272 / 2;
#X obj 213 248 + 1;
#X obj 213 272 / 2;
#X obj 130 224 sin;
#X obj 213 224 cos;
#X msg 130 368 pos \$1 \$2;
#X obj 130 200 * -6.28319;
#X obj 213 199 * -6.28319;
#X obj 130 152 + 0.125;
#X obj 130 128 * 0.75;
#X obj 130 80 r \$0-s-slider;
#X obj 130 392 s \$0-r-bang;
#X obj 29 50 bng 10 250 50 0 \$0-s-bang \$0-r-bang empty 17 7 0 10
-262144 -1 -1;
#X obj 29 50 cnv 10 1 1 empty \$0-r-bang empty 20 12 0 14 -262144 -66577
0;
#X obj 213 320 + 25;
#X obj 130 296 * 30;
#X obj 213 296 * 30;
#X obj 130 320 + 25;
#X obj 20 104 / 127;
#X obj 20 128 * 100;
#X obj 20 152 + 0.5;
#X obj 20 176 i;
#X obj 20 200 outlet;
#X obj 44 21 cnv 2 2 4 empty empty empty 20 12 0 14 -1 -66577 0;
#X obj 310 423 savestate;
#X obj 362 458 f;
#X obj 412 416 r \$0-s-slider;
#X obj 305 486 s \$0-r-slider;
#X connect 3 0 26 0;
#X connect 4 0 17 0;
#X connect 5 0 14 0;
#X connect 5 1 15 0;
#X connect 6 0 13 0;
#X connect 7 0 8 0;
#X connect 8 0 23 0;
#X connect 9 0 10 0;
#X connect 10 0 24 0;
#X connect 11 0 7 0;
#X connect 12 0 9 0;
#X connect 13 0 19 0;
#X connect 14 0 11 0;
#X connect 15 0 12 0;
#X connect 16 0 5 0;
#X connect 17 0 16 0;
#X connect 18 0 4 0;
#X connect 22 0 6 1;
#X connect 23 0 25 0;
#X connect 24 0 22 0;
#X connect 25 0 6 0;
#X connect 26 0 27 0;
#X connect 27 0 28 0;
#X connect 28 0 29 0;
#X connect 29 0 30 0;
#X connect 32 0 35 0;
#X connect 32 1 33 0;
#X connect 33 0 32 0;
#X connect 34 0 33 1;
#X coords 0 -1 1 1 50 50 2 20 20;
