#N canvas 407 324 454 265 12;
#X text 76 73 ATTACK;
#X text 141 73 DECAY;
#X text 196 73 SUSTAIN;
#X text 256 73 RELEASE;
#X floatatom 74 147 5 0 0 0 - - -;
#X floatatom 134 147 5 0 0 0 - - -;
#X floatatom 194 147 5 0 0 0 - - -;
#X floatatom 254 147 5 0 0 0 - - -;
#X obj 74 92 gui.knob;
#A saved 43.2955;
#X obj 134 92 gui.knob;
#A saved 0;
#X obj 194 92 gui.knob;
#A saved 37.5227;
#X obj 254 92 gui.knob;
#A saved 95.25;
#X connect 8 0 4 0;
#X connect 9 0 5 0;
#X connect 10 0 6 0;
#X connect 11 0 7 0;
#X coords 0 265 1 264 50 50 0;
