#N canvas 306 22 974 756 10;
#X obj 44 183 cnv 15 450 110 empty empty empty 20 12 0 14 #f0efeb #404040
0;
#X obj 47 203 led \$0-led #f0efeb;
#X obj 69 206 knob \$0-s-tempo \$0-r-tempo #E65792 #ffffff #f0efeb
;
#A saved 0.5;
#X obj 69 263 cnv 15 56 15 empty empty tempo 7 8 0 14 #f0efeb #000000
0;
#X obj 419 206 knob \$0-s-volume \$0-r-volume #696969 #ffffff #f0efeb
;
#A saved 1;
#X obj 419 263 cnv 15 56 15 empty empty volume 4 8 0 14 #f0efeb #000000
0;
#X obj 209 206 knob \$0-s-mutation \$0-r-mutation #E65F50 #ffffff #f0efeb
;
#A saved 0;
#X obj 139 206 knob \$0-s-steps \$0-r-steps #E65792 #ffffff #f0efeb
;
#A saved 1;
#X obj 139 263 cnv 15 56 15 empty empty steps 7 8 0 14 #f0efeb #000000
0;
#X obj 209 263 cnv 15 56 15 empty empty mutate 4 8 0 14 #f0efeb #000000
0;
#N canvas 0 22 1280 756 guts 0;
#X obj 54 169 loadbang;
#X msg 54 190 1;
#X msg 115 106 60000 \$1;
#X obj 115 127 /;
#X obj 115 148 / 4;
#X obj 54 211 metro 150;
#N canvas 0 22 450 300 lpf 0;
#X obj 177 80 samplerate~;
#X obj 229 12 loadbang;
#X obj 45 202 sig~ 1;
#X obj 45 250 -~;
#X obj 177 122 / 2;
#X obj 156 318 outlet~;
#X obj 177 101 t f f;
#X obj 82 123 inlet~;
#X obj 12 123 inlet~;
#X msg 229 33 bang;
#X obj 269 211 inlet;
#X msg 269 232 clear;
#X msg 256 123 1;
#X obj 256 144 atan;
#X obj 229 54 t b b;
#X obj 82 144 clip~ 0 22050;
#X obj 256 165 * -8;
#X obj 189 212 exp~;
#X obj 12 276 *~;
#X obj 60 228 abs~;
#X obj 156 292 rpole~;
#X obj 189 191 *~ -6.28319;
#X obj 159 170 /~ 44100;
#X text 12 13 One-pole Lowpass Filter;
#X text 8 369 https://www.musicdsp.org/en/latest/Filters/237-one-pole-filter-lp-and-hp.html
;
#X text 8 349 Reference:;
#X text 269 191 (I3) Clear internal state;
#X text 206 318 (O1) Output;
#X text 12 103 (I1) Input;
#X text 82 103 (I2) Frequency;
#X connect 0 0 6 0;
#X connect 1 0 9 0;
#X connect 2 0 3 0;
#X connect 3 0 18 1;
#X connect 4 0 15 2;
#X connect 6 0 4 0;
#X connect 6 1 22 1;
#X connect 7 0 15 0;
#X connect 8 0 18 0;
#X connect 9 0 14 0;
#X connect 10 0 11 0;
#X connect 11 0 20 0;
#X connect 12 0 13 0;
#X connect 13 0 16 0;
#X connect 14 0 0 0;
#X connect 14 1 12 0;
#X connect 15 0 22 0;
#X connect 16 0 21 1;
#X connect 17 0 20 1;
#X connect 17 0 19 0;
#X connect 18 0 20 0;
#X connect 19 0 3 1;
#X connect 20 0 5 0;
#X connect 21 0 17 0;
#X connect 22 0 21 0;
#X restore 764 444 pd lpf;
#X obj 820 387 pow~;
#N canvas 0 22 450 300 lpf 0;
#X obj 177 80 samplerate~;
#X obj 229 12 loadbang;
#X obj 45 202 sig~ 1;
#X obj 45 250 -~;
#X obj 177 122 / 2;
#X obj 156 318 outlet~;
#X obj 177 101 t f f;
#X obj 82 123 inlet~;
#X obj 12 123 inlet~;
#X msg 229 33 bang;
#X obj 269 211 inlet;
#X msg 269 232 clear;
#X msg 256 123 1;
#X obj 256 144 atan;
#X obj 229 54 t b b;
#X obj 82 144 clip~ 0 22050;
#X obj 256 165 * -8;
#X obj 189 212 exp~;
#X obj 12 276 *~;
#X obj 60 228 abs~;
#X obj 156 292 rpole~;
#X obj 189 191 *~ -6.28319;
#X obj 159 170 /~ 44100;
#X text 12 13 One-pole Lowpass Filter;
#X text 8 369 https://www.musicdsp.org/en/latest/Filters/237-one-pole-filter-lp-and-hp.html
;
#X text 8 349 Reference:;
#X text 269 191 (I3) Clear internal state;
#X text 206 318 (O1) Output;
#X text 12 103 (I1) Input;
#X text 82 103 (I2) Frequency;
#X connect 0 0 6 0;
#X connect 1 0 9 0;
#X connect 2 0 3 0;
#X connect 3 0 18 1;
#X connect 4 0 15 2;
#X connect 6 0 4 0;
#X connect 6 1 22 1;
#X connect 7 0 15 0;
#X connect 8 0 18 0;
#X connect 9 0 14 0;
#X connect 10 0 11 0;
#X connect 11 0 20 0;
#X connect 12 0 13 0;
#X connect 13 0 16 0;
#X connect 14 0 0 0;
#X connect 14 1 12 0;
#X connect 15 0 22 0;
#X connect 16 0 21 1;
#X connect 17 0 20 1;
#X connect 17 0 19 0;
#X connect 18 0 20 0;
#X connect 19 0 3 1;
#X connect 20 0 5 0;
#X connect 21 0 17 0;
#X connect 22 0 21 0;
#X restore 804 470 pd lpf;
#X obj 882 361 *~ -3;
#X obj 944 294 vline~;
#X obj 882 272 loadbang;
#X msg 882 293 1;
#X obj 882 319 -~;
#X obj 54 232 t b b;
#X obj 625 121 *~;
#X obj 625 142 *~;
#X obj 575 158 +~;
#X obj 54 281 i;
#X obj 92 279 + 1;
#X obj 54 302 % 4;
#X obj 260 240 + 0.5;
#X obj 260 261 i;
#X obj 260 198 r \$0-s-steps;
#N canvas 68 96 421 274 pitch 0;
#X obj 33 89 t f f;
#X obj 33 115 % 5;
#X obj 143 115 div 5;
#X obj 143 136 * 12;
#X obj 128 167 +;
#X obj 33 136 tabread \$0-scale;
#X obj 223 84 tabwrite \$0-pitch;
#X obj 128 209 outlet;
#X obj 33 68 tabread \$0-pitch;
#X obj 33 42 r \$0-read;
#X obj 223 42 r \$0-mutate;
#X obj 227 146 loadbang;
#X obj 227 188 array set \$0-scale;
#X obj 227 209 array define -k \$0-scale 5;
#A 0 0 2 4 7 11;
#X msg 227 167 0 2 4 7 11;
#X obj 322 58 r \$0-write;
#X obj 223 63 random 35;
#X obj 128 188 + 24;
#X obj 223 105 array define -k \$0-pitch 32;
#A 0 0 23 28 19 11 30 27 16 0 23 10 27 30 9 28 2 25 2 11 19 33 29 21
30 25 34 29 25 16 7 28 30;
#X connect 0 0 1 0;
#X connect 0 1 2 0;
#X connect 1 0 5 0;
#X connect 2 0 3 0;
#X connect 3 0 4 1;
#X connect 4 0 17 0;
#X connect 5 0 4 0;
#X connect 8 0 0 0;
#X connect 9 0 8 0;
#X connect 10 0 16 0;
#X connect 11 0 14 0;
#X connect 14 0 12 0;
#X connect 15 0 6 1;
#X connect 16 0 6 0;
#X connect 17 0 7 0;
#X restore 575 32 pd pitch;
#X obj 115 169 t f f;
#X obj 142 190 v \$0-rate;
#X obj 663 126 noise~;
#X obj 102 403 random 100;
#X obj 102 455 sel 1;
#X obj 203 382 r \$0-s-mutation;
#X obj 102 434 <;
#X obj 54 323 t f f;
#X obj 102 345 t b f;
#X obj 102 476 s \$0-mutate;
#X obj 129 366 s \$0-write;
#X obj 54 502 s \$0-read;
#N canvas 68 96 225 237 led 0;
#X obj 12 107 delay;
#X msg 12 128 0;
#X obj 119 154 t f;
#X msg 119 101 1;
#X obj 119 175 s \$0-led;
#X obj 12 13 inlet;
#X obj 39 65 v \$0-rate;
#X obj 12 34 t b b b;
#X obj 39 86 / 3;
#X connect 0 0 1 0;
#X connect 1 0 2 0;
#X connect 2 0 4 0;
#X connect 3 0 2 0;
#X connect 5 0 7 0;
#X connect 6 0 8 0;
#X connect 7 0 0 0;
#X connect 7 1 6 0;
#X connect 7 2 3 0;
#X connect 8 0 0 1;
#X restore 81 253 pd led;
#N canvas 68 96 1127 556 envelope 0;
#X obj 34 322 outlet;
#X obj 39 24 r \$0-read;
#X obj 371 110 r \$0-mutate;
#X obj 476 215 r \$0-write;
#X obj 74 63 t f f;
#X obj 74 84 tabread \$0-attack;
#X obj 74 105 sel 0;
#X msg 74 126 1;
#X obj 101 126 t b f;
#X obj 101 147 v \$0-rate;
#X obj 101 168 /;
#X obj 74 207 t f;
#X obj 228 93 tabread \$0-decay;
#X obj 228 114 t b f;
#X obj 228 135 v \$0-rate;
#X obj 228 156 *;
#X obj 34 275 pack f f;
#X obj 371 131 random 100;
#X obj 371 173 sel 1;
#X obj 371 215 + 1;
#X obj 371 241 tabwrite \$0-attack;
#X obj 575 112 r \$0-mutate;
#X obj 680 317 r \$0-write;
#X obj 575 133 random 100;
#X obj 575 217 + 1;
#X obj 575 175 sel 1 0;
#X obj 635 217 + 2;
#X msg 635 238 1 \$1;
#X obj 635 259 /;
#X obj 575 343 tabwrite \$0-decay;
#X msg 34 296 1 \$1 \, 0 \$2 \$1;
#X obj 371 152 < 10;
#X obj 371 194 random 16;
#X obj 575 154 < 25;
#X obj 769 106 r \$0-mutate;
#X obj 874 311 r \$0-write;
#X obj 769 127 random 100;
#X obj 772 151 < 75;
#X obj 769 337 tabwrite \$0-gate;
#X obj 39 45 t f f;
#X obj 18 183 tabread \$0-gate;
#X obj 18 204 sel 1;
#X obj 18 225 f;
#X obj 575 196 random 4;
#X obj 635 196 random 4;
#X obj 575 364 array define -k \$0-decay 32;
#A 0 0.25 0.333333 0.2 3 2 0.2 0.5 0.25 0.333333 4 0.25 0.5 0.25 0.2
0.5 0.2 0.2 2 0.333333 0.333333 0.25 0.2 0.2 0.25 0.5 0.5 0.5 3 0.5
0.333333 0.2 0.5;
#X obj 371 262 array define -k \$0-attack 32;
#A 0 0 0 0 0 0 0 0 0 0 0 0 0 0 0 12 0 0 0 0 0 0 0 0 0 0 7 0 0 0 0 0
0;
#X obj 769 358 array define -k \$0-gate 32;
#A 0 1 0 0 1 1 1 1 1 0 1 1 1 1 1 0 0 1 1 1 1 0 1 1 1 0 1 1 1 1 1 1
1;
#X connect 1 0 39 0;
#X connect 2 0 17 0;
#X connect 3 0 20 1;
#X connect 4 0 5 0;
#X connect 4 1 12 0;
#X connect 5 0 6 0;
#X connect 6 0 7 0;
#X connect 6 1 8 0;
#X connect 7 0 11 0;
#X connect 8 0 9 0;
#X connect 8 1 10 1;
#X connect 9 0 10 0;
#X connect 10 0 11 0;
#X connect 11 0 42 1;
#X connect 12 0 13 0;
#X connect 13 0 14 0;
#X connect 13 1 15 1;
#X connect 14 0 15 0;
#X connect 15 0 16 1;
#X connect 16 0 30 0;
#X connect 17 0 31 0;
#X connect 18 0 32 0;
#X connect 18 1 20 0;
#X connect 19 0 20 0;
#X connect 21 0 23 0;
#X connect 22 0 29 1;
#X connect 23 0 33 0;
#X connect 24 0 29 0;
#X connect 25 0 43 0;
#X connect 25 1 44 0;
#X connect 26 0 27 0;
#X connect 27 0 28 0;
#X connect 28 0 29 0;
#X connect 30 0 0 0;
#X connect 31 0 18 0;
#X connect 32 0 19 0;
#X connect 33 0 25 0;
#X connect 34 0 36 0;
#X connect 35 0 38 1;
#X connect 36 0 37 0;
#X connect 37 0 38 0;
#X connect 39 0 40 0;
#X connect 39 1 4 0;
#X connect 40 0 41 0;
#X connect 41 0 42 0;
#X connect 42 0 16 0;
#X connect 43 0 24 0;
#X connect 44 0 26 0;
#X restore 944 268 pd envelope;
#N canvas 131 165 825 443 oscillator 0;
#X obj 12 67 phasor~;
#X obj 195 47 *~;
#X obj 12 190 +~;
#N canvas 1329 474 147 163 1/Fs 0;
#X obj 12 54 samplerate~;
#X obj 12 12 loadbang;
#X msg 12 75 1 \$1;
#X obj 12 96 /;
#X msg 12 33 bang;
#X obj 12 117 outlet;
#X connect 0 0 2 0;
#X connect 1 0 4 0;
#X connect 2 0 3 0;
#X connect 3 0 5 0;
#X connect 4 0 0 0;
#X restore 210 21 pd 1/Fs;
#X obj 12 232 outlet~;
#X obj 12 211 *~ -1;
#X text 12 352 http://www.martin-finke.de/blog/articles/audio-plugins-018-polyblep-oscillator/
;
#X text 12 332 https://github.com/enzienaudio/heavylib/tree/master/hv.osc
;
#X obj 12 31 inlet~;
#N canvas 1008 608 416 294 polyblep 0;
#X obj 167 225 -~;
#X obj 230 127 -~;
#X obj 230 12 sig~ 1;
#X obj 177 74 /~;
#X obj 167 252 outlet~;
#X obj 12 173 *~;
#X obj 162 173 *~;
#X obj 12 90 *~;
#X obj 162 147 -~;
#X obj 47 54 inlet~;
#X text 47 34 (I1) Phase;
#X obj 12 147 -~ 1;
#X obj 177 120 -~ 1;
#X text 245 38 (I2) Normalised Frequency;
#X obj 32 199 *~;
#X obj 182 199 *~;
#N canvas 1389 528 164 179 >=~ 0;
#X obj 47 64 -~;
#X obj 47 85 clip~ -1e-37 0;
#X obj 12 12 inlet~;
#X obj 62 12 inlet~;
#X obj 47 148 outlet~;
#X obj 47 127 *~ 1e+37;
#X obj 12 38 min~;
#X obj 47 106 +~ 1e-37;
#X connect 0 0 1 0;
#X connect 1 0 7 0;
#X connect 2 0 6 0;
#X connect 3 0 6 1;
#X connect 3 0 0 1;
#X connect 5 0 4 0;
#X connect 6 0 0 0;
#X connect 7 0 5 0;
#X restore 197 153 pd >=~;
#N canvas 1221 655 166 185 <=~ 0;
#X obj 41 60 -~;
#X obj 41 81 clip~ -1e-37 0;
#X obj 12 12 inlet~;
#X obj 62 12 inlet~;
#X obj 41 144 outlet~;
#X obj 41 123 *~ 1e+37;
#X obj 41 38 min~;
#X obj 41 102 +~ 1e-37;
#X connect 0 0 1 0;
#X connect 1 0 7 0;
#X connect 2 0 6 0;
#X connect 2 0 0 1;
#X connect 3 0 6 1;
#X connect 5 0 4 0;
#X connect 6 0 0 0;
#X connect 7 0 5 0;
#X restore 47 173 pd <=~;
#X obj 245 58 inlet~;
#X connect 0 0 4 0;
#X connect 1 0 16 1;
#X connect 2 0 3 0;
#X connect 2 0 1 0;
#X connect 3 0 7 1;
#X connect 3 0 12 0;
#X connect 5 0 14 0;
#X connect 6 0 15 0;
#X connect 7 0 8 0;
#X connect 7 0 11 0;
#X connect 8 0 6 0;
#X connect 8 0 6 1;
#X connect 9 0 7 0;
#X connect 9 0 17 0;
#X connect 9 0 16 0;
#X connect 11 0 5 0;
#X connect 11 0 5 1;
#X connect 12 0 8 1;
#X connect 14 0 0 0;
#X connect 15 0 0 1;
#X connect 16 0 15 1;
#X connect 17 0 14 1;
#X connect 18 0 1 1;
#X connect 18 0 3 1;
#X connect 18 0 17 1;
#X restore 132 129 pd polyblep;
#N canvas 1412 395 163 124 normalize 0;
#X obj 12 75 outlet~;
#X obj 12 12 inlet~;
#X obj 12 54 -~ 1;
#X obj 12 33 *~ 2;
#X connect 1 0 3 0;
#X connect 2 0 0 0;
#X connect 3 0 2 0;
#X restore 12 129 pd normalize;
#X obj 442 51 inlet;
#X text 12 11 (I1) Frequency;
#X text 12 252 (O1) Sawtooth;
#X text 12 382 https://github.com/cfloisand/pd-externals;
#X obj 172 185 +~;
#X obj 157 269 outlet~;
#N canvas 1008 608 416 294 polyblep 0;
#X obj 167 225 -~;
#X obj 230 127 -~;
#X obj 230 12 sig~ 1;
#X obj 177 74 /~;
#X obj 167 252 outlet~;
#X obj 12 173 *~;
#X obj 162 173 *~;
#X obj 12 90 *~;
#X obj 162 147 -~;
#X obj 47 54 inlet~;
#X text 47 34 (I1) Phase;
#X obj 12 147 -~ 1;
#X obj 177 120 -~ 1;
#X text 245 38 (I2) Normalised Frequency;
#X obj 32 199 *~;
#X obj 182 199 *~;
#N canvas 1389 528 164 179 >=~ 0;
#X obj 47 64 -~;
#X obj 47 85 clip~ -1e-37 0;
#X obj 12 12 inlet~;
#X obj 62 12 inlet~;
#X obj 47 148 outlet~;
#X obj 47 127 *~ 1e+37;
#X obj 12 38 min~;
#X obj 47 106 +~ 1e-37;
#X connect 0 0 1 0;
#X connect 1 0 7 0;
#X connect 2 0 6 0;
#X connect 3 0 6 1;
#X connect 3 0 0 1;
#X connect 5 0 4 0;
#X connect 6 0 0 0;
#X connect 7 0 5 0;
#X restore 197 153 pd >=~;
#N canvas 1221 655 166 185 <=~ 0;
#X obj 41 60 -~;
#X obj 41 81 clip~ -1e-37 0;
#X obj 12 12 inlet~;
#X obj 62 12 inlet~;
#X obj 41 144 outlet~;
#X obj 41 123 *~ 1e+37;
#X obj 41 38 min~;
#X obj 41 102 +~ 1e-37;
#X connect 0 0 1 0;
#X connect 1 0 7 0;
#X connect 2 0 6 0;
#X connect 2 0 0 1;
#X connect 3 0 6 1;
#X connect 5 0 4 0;
#X connect 6 0 0 0;
#X connect 7 0 5 0;
#X restore 47 173 pd <=~;
#X obj 245 58 inlet~;
#X connect 0 0 4 0;
#X connect 1 0 16 1;
#X connect 2 0 3 0;
#X connect 2 0 1 0;
#X connect 3 0 7 1;
#X connect 3 0 12 0;
#X connect 5 0 14 0;
#X connect 6 0 15 0;
#X connect 7 0 8 0;
#X connect 7 0 11 0;
#X connect 8 0 6 0;
#X connect 8 0 6 1;
#X connect 9 0 7 0;
#X connect 9 0 17 0;
#X connect 9 0 16 0;
#X connect 11 0 5 0;
#X connect 11 0 5 1;
#X connect 12 0 8 1;
#X connect 14 0 0 0;
#X connect 15 0 0 1;
#X connect 16 0 15 1;
#X connect 17 0 14 1;
#X connect 18 0 1 1;
#X connect 18 0 3 1;
#X connect 18 0 17 1;
#X restore 172 159 pd polyblep;
#N canvas 1412 395 163 124 normalize 0;
#X obj 12 75 outlet~;
#X obj 12 12 inlet~;
#X obj 12 54 -~ 1;
#X obj 12 33 *~ 2;
#X connect 1 0 3 0;
#X connect 2 0 0 0;
#X connect 3 0 2 0;
#X restore 258 169 pd normalize;
#X obj 258 99 +~;
#X obj 258 125 wrap~;
#X obj 157 206 -~;
#X obj 157 227 +~;
#X obj 344 83 samphold~;
#X obj 344 44 clip~ 0 1;
#X obj 344 211 *~ 2;
#X obj 344 23 inlet~;
#X text 157 289 (O2) Square;
#X text 344 3 (I2) Pulse Width;
#X msg 354 67 reset;
#X text 442 31 (I3) Phase;
#X obj 157 248 -~ 1;
#X text 12 312 References:;
#X obj 416 312 -~ 0.25;
#X obj 416 333 cos~;
#X obj 416 354 outlet~;
#X obj 433 199 -~ 0.25;
#X obj 433 220 cos~;
#X obj 433 241 *~;
#N canvas 68 96 592 269 pulse 0;
#X obj 33 84 outlet;
#X obj 33 42 r \$0-read;
#X obj 223 42 r \$0-mutate;
#X obj 322 58 r \$0-write;
#X obj 223 63 random 100;
#X obj 223 84 < 50;
#X obj 223 105 sel 1;
#X obj 223 126 random 100;
#X obj 223 147 / 100;
#X obj 223 168 * 2;
#X obj 223 194 tabwrite \$0-index;
#X obj 223 215 array define -k \$0-index 16;
#A 0 0 1.74 1.26 0 1.62 1.64 0 1.82 0.36 1.1 0 0 1.9 0.18 0.02 1.82
;
#X obj 33 63 tabread \$0-index;
#X connect 1 0 12 0;
#X connect 2 0 4 0;
#X connect 3 0 10 1;
#X connect 4 0 5 0;
#X connect 5 0 6 0;
#X connect 6 0 7 0;
#X connect 6 1 10 0;
#X connect 7 0 8 0;
#X connect 8 0 9 0;
#X connect 9 0 10 0;
#X connect 12 0 0 0;
#X restore 491 225 pd pulse;
#N canvas 68 96 592 347 pulse 0;
#X obj 33 84 outlet;
#X obj 33 42 r \$0-read;
#X obj 223 42 r \$0-mutate;
#X obj 322 58 r \$0-write;
#X obj 223 63 random 100;
#X obj 223 105 sel 1;
#X obj 223 126 random 100;
#X obj 223 84 < 75;
#X msg 269 152 1;
#X obj 223 274 tabwrite \$0-ratio;
#X obj 223 295 array define -k \$0-ratio 16;
#A 0 1 9 20 1 2 1 1 3 4 15 1 1 16 28 1 10;
#X obj 33 63 tabread \$0-ratio;
#X obj 223 147 / 100;
#X obj 223 168 pow 2;
#X obj 223 210 + 0.5;
#X obj 223 231 i;
#X obj 223 252 + 1;
#X obj 223 189 * 32;
#X connect 1 0 11 0;
#X connect 2 0 4 0;
#X connect 3 0 9 1;
#X connect 4 0 7 0;
#X connect 5 0 6 0;
#X connect 5 1 8 0;
#X connect 6 0 12 0;
#X connect 7 0 5 0;
#X connect 8 0 9 0;
#X connect 11 0 0 0;
#X connect 12 0 13 0;
#X connect 13 0 17 0;
#X connect 14 0 15 0;
#X connect 15 0 16 0;
#X connect 16 0 9 0;
#X connect 17 0 14 0;
#X restore 423 124 pd pulse;
#X obj 410 169 *~;
#X connect 0 0 10 0;
#X connect 0 0 9 0;
#X connect 0 0 19 0;
#X connect 0 0 23 1;
#X connect 0 0 33 0;
#X connect 0 0 41 0;
#X connect 1 0 9 1;
#X connect 1 0 17 1;
#X connect 2 0 5 0;
#X connect 2 0 21 0;
#X connect 3 0 1 1;
#X connect 5 0 4 0;
#X connect 8 0 0 0;
#X connect 8 0 1 0;
#X connect 9 0 2 1;
#X connect 10 0 2 0;
#X connect 11 0 29 0;
#X connect 11 0 0 1;
#X connect 15 0 21 1;
#X connect 17 0 15 0;
#X connect 18 0 15 1;
#X connect 19 0 20 0;
#X connect 20 0 18 0;
#X connect 20 0 17 0;
#X connect 21 0 22 0;
#X connect 22 0 31 0;
#X connect 23 0 19 1;
#X connect 23 0 25 0;
#X connect 24 0 23 0;
#X connect 25 0 22 1;
#X connect 26 0 24 0;
#X connect 29 0 23 0;
#X connect 31 0 16 0;
#X connect 33 0 34 0;
#X connect 34 0 35 0;
#X connect 36 0 37 0;
#X connect 37 0 38 0;
#X connect 38 0 33 0;
#X connect 39 0 38 1;
#X connect 40 0 41 1;
#X connect 41 0 36 0;
#X restore 575 308 pd oscillator;
#X obj 577 388 *~;
#N canvas 68 96 421 274 noise 0;
#X obj 33 89 outlet;
#X obj 33 42 r \$0-read;
#X obj 223 42 r \$0-mutate;
#X obj 322 58 r \$0-write;
#X obj 223 210 tabwrite \$0-noise;
#X obj 223 63 random 100;
#X obj 223 105 sel 1;
#X obj 223 126 random 100;
#X obj 223 147 / 100;
#X obj 33 68 tabread \$0-noise;
#X obj 223 84 < 25;
#X obj 223 168 * 8;
#X obj 223 189 + 4;
#X obj 223 230 array define -k \$0-noise 32;
#A 0 0 10.96 0 0 0 0 0 8.56 0 0 0 0 0 0 0 5.12 0 0 0 0 0 0 9.76 0 8.64
0 7.76 10.16 0 0 7.44 0;
#X connect 1 0 9 0;
#X connect 2 0 5 0;
#X connect 3 0 4 1;
#X connect 5 0 10 0;
#X connect 6 0 7 0;
#X connect 6 1 4 0;
#X connect 7 0 8 0;
#X connect 8 0 11 0;
#X connect 9 0 0 0;
#X connect 10 0 6 0;
#X connect 11 0 12 0;
#X connect 12 0 4 0;
#X restore 640 100 pd noise;
#X obj 635 386 *~;
#X obj 681 432 +~;
#N canvas 68 96 592 269 waveform 0;
#X obj 33 89 outlet;
#X obj 33 42 r \$0-read;
#X obj 223 42 r \$0-mutate;
#X obj 322 58 r \$0-write;
#X obj 223 99 tabwrite \$0-waveform;
#X obj 33 68 tabread \$0-waveform;
#X obj 223 63 random 3;
#X obj 223 119 array define -k \$0-waveform 32;
#A 0 2 0 0 0 0 1 2 2 1 1 2 2 2 0 0 1 2 2 0 1 1 0 2 1 1 1 0 1 1 1 1
1;
#X connect 1 0 5 0;
#X connect 2 0 6 0;
#X connect 3 0 4 1;
#X connect 5 0 0 0;
#X connect 6 0 4 0;
#X restore 714 278 pd waveform;
#X obj 699 388 *~;
#X obj 596 356 == 0;
#X obj 663 363 == 1;
#X obj 727 370 == 2;
#X obj 714 298 t f f f;
#N canvas 68 96 592 269 pulse 0;
#X obj 33 89 outlet;
#X obj 33 42 r \$0-read;
#X obj 223 42 r \$0-mutate;
#X obj 322 58 r \$0-write;
#X obj 223 215 tabwrite \$0-pulse;
#X obj 33 68 tabread \$0-pulse;
#X obj 223 63 random 100;
#X obj 223 84 < 25;
#X obj 223 105 sel 1;
#X obj 223 126 random 100;
#X obj 223 147 / 100;
#X obj 223 168 * 0.4;
#X obj 223 189 + 0.5;
#X msg 268 186 0.5;
#X obj 223 236 array define -k \$0-pulse 32;
#A 0 0.5 0.744 0.5 0.5 0.5 0.792 0.5 0.5 0.5 0.5 0.5 0.5 0.84 0.5 0.5
0.604 0.5 0.5 0.5 0.5 0.684 0.5 0.5 0.5 0.5 0.5 0.588 0.5 0.668 0.656
0.5 0.728;
#X connect 1 0 5 0;
#X connect 2 0 6 0;
#X connect 3 0 4 1;
#X connect 5 0 0 0;
#X connect 6 0 7 0;
#X connect 7 0 8 0;
#X connect 8 0 9 0;
#X connect 8 1 13 0;
#X connect 9 0 10 0;
#X connect 10 0 11 0;
#X connect 11 0 12 0;
#X connect 12 0 4 0;
#X connect 13 0 4 0;
#X restore 612 287 pd pulse;
#X obj 882 340 pow~ 0.5;
#N canvas 206 38 890 450 reverb 0;
#X obj 29 135 inlet~;
#X obj 317 328 outlet~;
#N canvas 564 382 298 213 allpass 0;
#X obj 12 52 inlet~;
#X obj 12 110 +~;
#X obj 27 88 *~;
#X obj 202 72 inlet;
#X obj 202 93 * -1;
#X obj 187 126 *~;
#X obj 172 147 +~;
#X obj 172 168 outlet~;
#X text 12 32 (I1) Input;
#X text 92 -19 (I2) Time;
#X text 202 52 (I3) Gain;
#X text 172 188 (O1) Output;
#X obj 12 168 delwrite~ \$0-ap-1 50;
#X obj 93 22 delread4~ \$0-ap-1;
#X obj 92 1 inlet~;
#X obj 93 43 hip~ 100;
#X obj 92 65 lop~ 6000;
#X connect 0 0 1 0;
#X connect 1 0 5 0;
#X connect 1 0 12 0;
#X connect 2 0 1 1;
#X connect 3 0 2 1;
#X connect 3 0 4 0;
#X connect 4 0 5 1;
#X connect 5 0 6 1;
#X connect 6 0 7 0;
#X connect 13 0 15 0;
#X connect 14 0 13 0;
#X connect 15 0 16 0;
#X connect 16 0 2 0;
#X connect 16 0 6 0;
#X restore 154 155 pd allpass;
#X obj 186 104 unpack f f;
#X obj 186 62 loadbang;
#X text 12 91 allpass dispersion ->;
#X obj 186 125 sig~;
#X obj 162 11 +~;
#X obj 75 377 delwrite~ \$0-spring-2 50;
#X obj 407 9 osc~ 0.36;
#X obj 287 100 osc~ 0.47;
#X msg 186 84 26.64 0.75;
#X obj 158 35 delread4~ \$0-spring-2;
#X obj 163 -11 sig~ 43.14;
#N canvas 564 382 298 213 allpass 0;
#X obj 12 52 inlet~;
#X obj 12 110 +~;
#X obj 27 88 *~;
#X obj 202 72 inlet;
#X obj 202 93 * -1;
#X obj 187 126 *~;
#X obj 172 147 +~;
#X obj 172 168 outlet~;
#X text 12 32 (I1) Input;
#X text 92 -19 (I2) Time;
#X text 202 52 (I3) Gain;
#X text 172 188 (O1) Output;
#X obj 92 1 inlet~;
#X obj 93 43 hip~ 100;
#X obj 12 168 delwrite~ \$0-ap-2 50;
#X obj 93 22 delread4~ \$0-ap-2;
#X obj 92 65 lop~ 6000;
#X connect 0 0 1 0;
#X connect 1 0 5 0;
#X connect 1 0 14 0;
#X connect 2 0 1 1;
#X connect 3 0 2 1;
#X connect 3 0 4 0;
#X connect 4 0 5 1;
#X connect 5 0 6 1;
#X connect 6 0 7 0;
#X connect 12 0 15 0;
#X connect 13 0 16 0;
#X connect 15 0 13 0;
#X connect 16 0 2 0;
#X connect 16 0 6 0;
#X restore 312 235 pd allpass;
#X obj 344 184 unpack f f;
#X obj 344 142 loadbang;
#X obj 344 205 sig~;
#X obj 637 147 bng 15 250 50 0 empty empty empty 17 7 0 10 #fcfcfc
#000000 #000000;
#X obj 637 167 random 1000;
#X obj 637 188 / 1000;
#X obj 637 209 * 30;
#X floatatom 637 230 5 0 0 0 - - - 0;
#X msg 344 164 10.14 0.5;
#X obj 132 256 hip~ 100;
#X obj 132 228 lop~ 6000;
#X obj 445 202 *~ 0.2;
#X obj 411 33 *~ 0.3;
#X obj 287 122 *~ 0.3;
#X obj 445 180 osc~ 1.26;
#X obj 132 276 *~ 0.95;
#X connect 0 0 2 0;
#X connect 2 0 14 0;
#X connect 3 0 6 0;
#X connect 3 1 2 2;
#X connect 4 0 11 0;
#X connect 6 0 2 1;
#X connect 7 0 12 0;
#X connect 9 0 27 0;
#X connect 10 0 28 0;
#X connect 11 0 3 0;
#X connect 12 0 2 0;
#X connect 13 0 7 0;
#X connect 14 0 25 0;
#X connect 15 0 17 0;
#X connect 15 1 14 2;
#X connect 16 0 23 0;
#X connect 17 0 14 1;
#X connect 18 0 19 0;
#X connect 19 0 20 0;
#X connect 20 0 21 0;
#X connect 21 0 22 0;
#X connect 23 0 15 0;
#X connect 24 0 30 0;
#X connect 25 0 24 0;
#X connect 26 0 14 1;
#X connect 27 0 7 1;
#X connect 28 0 2 1;
#X connect 29 0 26 0;
#X connect 30 0 1 0;
#X connect 30 0 8 0;
#X restore 383 497 pd reverb;
#X obj 837 30 line~;
#X obj 837 51 pow~ 6;
#X obj 115 85 + 60;
#X obj 115 64 * 140;
#X obj 115 43 pow 1;
#X obj 575 53 sig~;
#X obj 671 37 *~;
#X obj 575 74 +~;
#X obj 575 95 mtof~;
#X msg 837 9 1 \, 0 50;
#X obj 203 408 * 100;
#X obj 944 386 bang;
#X obj 944 407 v \$0-rate;
#X msg 944 454 1 \, 0 1 \$1;
#X obj 944 475 vline~;
#X obj 635 407 /~ 2;
#X obj 944 428 * 2;
#N canvas 68 96 421 274 pitch 0;
#X obj 33 89 t f f;
#X obj 33 115 % 5;
#X obj 143 115 div 5;
#X obj 143 136 * 12;
#X obj 128 167 +;
#X obj 33 136 tabread \$0-scale;
#X obj 128 209 outlet;
#X obj 33 42 r \$0-read;
#X obj 223 42 r \$0-mutate;
#X obj 322 58 r \$0-write;
#X obj 223 63 random 35;
#X obj 128 188 + 24;
#X obj 223 84 tabwrite \$0-pitch-2;
#X obj 33 69 tabread \$0-pitch-2;
#X obj 223 105 array define -k \$0-pitch-2 32;
#A 0 16 24 12 6 22 23 18 22 0 22 3 15 15 12 1 30 23 25 3 3 18 23 13
18 29 0 12 25 30 8 26 28;
#X connect 0 0 1 0;
#X connect 0 1 2 0;
#X connect 1 0 5 0;
#X connect 2 0 3 0;
#X connect 3 0 4 1;
#X connect 4 0 11 0;
#X connect 5 0 4 0;
#X connect 7 0 13 0;
#X connect 8 0 10 0;
#X connect 9 0 12 1;
#X connect 10 0 12 0;
#X connect 11 0 6 0;
#X connect 13 0 0 0;
#X restore 750 153 pd pitch;
#X obj 750 174 mtof;
#X obj 750 216 osc~;
#X obj 632 211 *~;
#X obj 632 232 *~;
#X obj 576 271 +~;
#X obj 750 195 + 1;
#X obj 820 408 *~ 20000;
#N canvas 68 96 592 269 pole 0;
#X obj 33 42 r \$0-read;
#X obj 223 42 r \$0-mutate;
#X obj 322 58 r \$0-write;
#X obj 223 99 tabwrite \$0-pole;
#X obj 223 63 random 2;
#X obj 33 68 tabread \$0-pole;
#X obj 33 89 t f f;
#X obj 33 110 == 0;
#X obj 73 110 == 1;
#X obj 33 131 outlet;
#X obj 73 131 outlet;
#X obj 223 119 array define -k \$0-pole 32;
#A 0 1 0 0 1 1 0 0 1 1 1 0 0 1 1 1 0 1 0 0 1 0 1 1 0 1 0 0 1 1 1 1
1;
#X connect 0 0 5 0;
#X connect 1 0 4 0;
#X connect 2 0 3 1;
#X connect 4 0 3 0;
#X connect 5 0 6 0;
#X connect 6 0 7 0;
#X connect 6 1 8 0;
#X connect 7 0 9 0;
#X connect 8 0 10 0;
#X restore 888 505 pd pole;
#X obj 764 505 *~;
#X obj 804 491 *~;
#X obj 764 526 +~;
#X obj 888 578 *~;
#X obj 132 307 change -1;
#X obj 132 328 s \$0-steps;
#N canvas 68 96 421 274 pitch 0;
#X obj 33 94 outlet;
#X obj 33 42 r \$0-read;
#X obj 223 42 r \$0-mutate;
#X obj 322 58 r \$0-write;
#X obj 223 63 random 100;
#X obj 223 84 < 25;
#X obj 222 167 tabwrite \$0-kick;
#X obj 33 68 tabread \$0-kick;
#X obj 222 188 array define -k \$0-kick 32;
#A 0 1 0 0 0 0 0 1 0 0 1 0 0 1 0 1 1 0 0 0 0 0 1 0 1 1 0 0 1 0 0 0
1;
#X connect 1 0 7 0;
#X connect 2 0 4 0;
#X connect 3 0 6 1;
#X connect 4 0 5 0;
#X connect 5 0 6 0;
#X connect 7 0 0 0;
#X restore 676 551 pd pitch;
#X obj 549 422 sel 1;
#X obj 528 485 line~;
#X obj 528 506 *~ -1;
#X obj 528 527 +~ 1;
#X obj 538 548 sqrt~;
#X obj 538 569 *~ 10;
#X obj 528 590 -~ 0.25;
#X obj 528 611 cos~;
#X obj 566 652 *~;
#X obj 549 443 v \$0-rate;
#X msg 529 464 1 \, 0 \$1;
#X obj 528 632 *~ 2;
#N canvas 635 171 450 300 tanh 0;
#X obj 12 12 inlet~;
#X obj 12 38 clip~ -3 3;
#X obj 27 64 *~;
#X obj 12 192 outlet~;
#X obj 27 140 /~;
#X obj 12 166 *~;
#X obj 67 90 *~ 9;
#X text 92 42 // http://www.musicdsp.org/showone.php?id=238;
#X text 92 62 // y = x * (27 + x^2) / (27 + 9*x^2);
#X obj 27 90 +~ 27;
#X obj 67 116 +~ 27;
#X text 92 22 // pade-approximation of tanh function;
#X connect 0 0 1 0;
#X connect 1 0 2 0;
#X connect 1 0 2 1;
#X connect 1 0 5 0;
#X connect 2 0 9 0;
#X connect 2 0 6 0;
#X connect 4 0 5 1;
#X connect 5 0 3 0;
#X connect 6 0 10 0;
#X connect 9 0 4 0;
#X connect 10 0 4 1;
#X restore 561 670 pd tanh;
#X obj 260 282 + 1;
#X obj 260 303 t f f;
#X obj 827 603 *~;
#X obj 674 612 *~ -1;
#X obj 674 633 +~ 1;
#X obj 674 591 sqrt~;
#X msg 820 223 1 \$1;
#X obj 820 244 -;
#X obj 820 265 * 9;
#X obj 820 286 + 1;
#N canvas 635 171 450 300 tanh 0;
#X obj 12 12 inlet~;
#X obj 12 38 clip~ -3 3;
#X obj 27 64 *~;
#X obj 12 192 outlet~;
#X obj 27 140 /~;
#X obj 12 166 *~;
#X obj 67 90 *~ 9;
#X text 92 42 // http://www.musicdsp.org/showone.php?id=238;
#X text 92 62 // y = x * (27 + x^2) / (27 + 9*x^2);
#X obj 27 90 +~ 27;
#X obj 67 116 +~ 27;
#X text 92 22 // pade-approximation of tanh function;
#X connect 0 0 1 0;
#X connect 1 0 2 0;
#X connect 1 0 2 1;
#X connect 1 0 5 0;
#X connect 2 0 9 0;
#X connect 2 0 6 0;
#X connect 4 0 5 1;
#X connect 5 0 3 0;
#X connect 6 0 10 0;
#X connect 9 0 4 0;
#X connect 10 0 4 1;
#X restore 872 539 pd tanh;
#X obj 764 547 *~ 1.5;
#X text 217 1 knob \$0-s-tempo-1 \$0-r-tempo-1 #E65792 #ffffff #f0efeb
;
#X text 217 101 knob \$0-s-volume-1 \$0-r-volume-1 #696969 #ffffff
#f0efeb;
#X text 217 41 knob \$0-s-mutation \$0-r-mutation #E65F50 #ffffff #f0efeb
;
#X text 227 21 knob \$0-s-steps \$0-r-steps #E65792 #ffffff #f0efeb
;
#X text 217 60 knob \$0-s-cutoff-1 \$0-r-cutoff-1 #0092CC #ffffff #f0efeb
;
#X text 217 81 knob \$0-s-reverb \$0-r-reverb #2E9970 #ffffff #f0efeb
;
#N canvas 635 171 450 300 tanh 0;
#X obj 12 12 inlet~;
#X obj 12 38 clip~ -3 3;
#X obj 27 64 *~;
#X obj 12 192 outlet~;
#X obj 27 140 /~;
#X obj 12 166 *~;
#X obj 67 90 *~ 9;
#X text 92 42 // http://www.musicdsp.org/showone.php?id=238;
#X text 92 62 // y = x * (27 + x^2) / (27 + 9*x^2);
#X obj 27 90 +~ 27;
#X obj 67 116 +~ 27;
#X text 92 22 // pade-approximation of tanh function;
#X connect 0 0 1 0;
#X connect 1 0 2 0;
#X connect 1 0 2 1;
#X connect 1 0 5 0;
#X connect 2 0 9 0;
#X connect 2 0 6 0;
#X connect 4 0 5 1;
#X connect 5 0 3 0;
#X connect 6 0 10 0;
#X connect 9 0 4 0;
#X connect 10 0 4 1;
#X restore 825 643 pd tanh;
#X obj 437 375 r \$0-s-reverb;
#X obj 437 417 * 0.5;
#X msg 437 438 \$1 20;
#X obj 437 459 line~;
#X obj 384 518 *~;
#X obj 260 219 * 31;
#N canvas 68 96 421 274 fm 0;
#X obj 33 89 outlet;
#X obj 33 42 r \$0-read;
#X obj 223 42 r \$0-mutate;
#X obj 322 58 r \$0-write;
#X obj 223 63 random 100;
#X obj 223 105 sel 1;
#X obj 223 126 random 100;
#X obj 223 147 / 100;
#X obj 223 84 < 25;
#X obj 223 168 * 8;
#X obj 223 210 tabwrite \$0-fm;
#X obj 33 68 tabread \$0-fm;
#X obj 223 230 array define -k \$0-fm 32;
#A 0 0 0 0.96 0 0 0 0 0 0.88 0 7.84 0.72 0 1.6 0 0 7.84 0 0 0 0 0 0
0 0 7.68 0 0 3.44 0 0 0;
#X connect 1 0 11 0;
#X connect 2 0 4 0;
#X connect 3 0 10 1;
#X connect 4 0 8 0;
#X connect 5 0 6 0;
#X connect 5 1 10 0;
#X connect 6 0 7 0;
#X connect 7 0 9 0;
#X connect 8 0 5 0;
#X connect 9 0 10 0;
#X connect 11 0 0 0;
#X restore 647 185 pd fm;
#N canvas 68 96 421 274 bend 0;
#X obj 33 89 outlet;
#X obj 33 42 r \$0-read;
#X obj 223 42 r \$0-mutate;
#X obj 322 58 r \$0-write;
#X obj 223 63 random 100;
#X obj 223 105 sel 1;
#X obj 223 126 random 100;
#X obj 223 147 / 100;
#X obj 223 210 tabwrite \$0-bend;
#X obj 33 68 tabread \$0-bend;
#X obj 223 189 + 12;
#X obj 223 168 * 36;
#X obj 223 84 < 10;
#X obj 223 230 array define -k \$0-bend 32;
#A 0 0 0 0 22.44 0 17.76 0 0 0 0 0 0 0 0 0 28.2 22.08 0 17.04 0 0 0
0 0 0 0 15.6 0 0 0 0 0;
#X connect 1 0 9 0;
#X connect 2 0 4 0;
#X connect 3 0 8 1;
#X connect 4 0 12 0;
#X connect 5 0 6 0;
#X connect 5 1 8 0;
#X connect 6 0 7 0;
#X connect 7 0 11 0;
#X connect 9 0 0 0;
#X connect 10 0 8 0;
#X connect 11 0 10 0;
#X connect 12 0 5 0;
#X restore 671 16 pd bend;
#X obj 959 613 r \$0-s-volume;
#X obj 959 634 pow 2;
#X msg 959 655 \$1 20;
#X obj 959 676 line~;
#X obj 825 664 *~;
#X obj 825 685 dac~ 1 2;
#X obj 115 22 r \$0-s-tempo;
#X obj 820 202 r \$0-s-cutoff;
#X obj 437 396 pow 2;
#X connect 0 0 1 0;
#X connect 1 0 5 0;
#X connect 2 0 3 0;
#X connect 3 0 4 0;
#X connect 4 0 25 0;
#X connect 5 0 14 0;
#X connect 6 0 8 0;
#X connect 6 0 79 0;
#X connect 7 0 77 0;
#X connect 8 0 80 0;
#X connect 9 0 7 1;
#X connect 10 0 13 1;
#X connect 11 0 12 0;
#X connect 12 0 13 0;
#X connect 13 0 51 0;
#X connect 14 0 18 0;
#X connect 14 1 37 0;
#X connect 15 0 16 0;
#X connect 16 0 17 1;
#X connect 17 0 73 0;
#X connect 17 0 75 0;
#X connect 18 0 20 0;
#X connect 19 0 18 1;
#X connect 20 0 19 0;
#X connect 20 0 32 0;
#X connect 21 0 22 0;
#X connect 22 0 99 0;
#X connect 23 0 123 0;
#X connect 24 0 58 0;
#X connect 25 0 5 1;
#X connect 25 1 26 0;
#X connect 27 0 16 1;
#X connect 28 0 31 0;
#X connect 29 0 34 0;
#X connect 30 0 63 0;
#X connect 31 0 29 0;
#X connect 32 0 36 0;
#X connect 32 1 33 0;
#X connect 33 0 28 0;
#X connect 33 1 35 0;
#X connect 38 0 10 0;
#X connect 38 0 62 0;
#X connect 38 0 64 0;
#X connect 39 0 40 0;
#X connect 39 1 42 0;
#X connect 39 2 45 0;
#X connect 40 0 43 0;
#X connect 41 0 15 1;
#X connect 42 0 68 0;
#X connect 43 0 6 0;
#X connect 44 0 49 0;
#X connect 45 0 43 1;
#X connect 46 0 40 1;
#X connect 47 0 42 1;
#X connect 48 0 45 1;
#X connect 49 0 46 0;
#X connect 49 1 47 0;
#X connect 49 2 48 0;
#X connect 50 0 39 1;
#X connect 51 0 9 0;
#X connect 52 0 122 0;
#X connect 53 0 54 0;
#X connect 54 0 59 1;
#X connect 55 0 2 0;
#X connect 56 0 55 0;
#X connect 57 0 56 0;
#X connect 58 0 60 0;
#X connect 59 0 60 1;
#X connect 60 0 61 0;
#X connect 61 0 15 0;
#X connect 61 0 17 0;
#X connect 62 0 53 0;
#X connect 63 0 31 1;
#X connect 64 0 65 0;
#X connect 65 0 69 0;
#X connect 66 0 67 0;
#X connect 67 0 82 1;
#X connect 68 0 43 1;
#X connect 69 0 66 0;
#X connect 70 0 71 0;
#X connect 71 0 76 0;
#X connect 72 0 74 1;
#X connect 73 0 74 0;
#X connect 74 0 75 1;
#X connect 75 0 39 0;
#X connect 76 0 72 0;
#X connect 77 0 6 1;
#X connect 77 0 8 1;
#X connect 78 0 79 1;
#X connect 78 1 80 1;
#X connect 79 0 81 0;
#X connect 80 0 81 1;
#X connect 81 0 110 0;
#X connect 82 0 101 0;
#X connect 83 0 84 0;
#X connect 85 0 86 0;
#X connect 86 0 95 0;
#X connect 87 0 88 0;
#X connect 87 0 94 1;
#X connect 87 0 104 0;
#X connect 88 0 89 0;
#X connect 89 0 90 0;
#X connect 89 0 92 0;
#X connect 90 0 91 0;
#X connect 91 0 92 0;
#X connect 92 0 93 0;
#X connect 93 0 97 0;
#X connect 94 0 98 0;
#X connect 95 0 96 0;
#X connect 96 0 87 0;
#X connect 97 0 94 0;
#X connect 98 0 117 0;
#X connect 99 0 100 0;
#X connect 100 0 20 1;
#X connect 100 1 83 0;
#X connect 101 0 117 0;
#X connect 102 0 103 0;
#X connect 103 0 101 1;
#X connect 104 0 102 0;
#X connect 105 0 106 0;
#X connect 106 0 107 0;
#X connect 107 0 108 0;
#X connect 108 0 7 0;
#X connect 109 0 82 0;
#X connect 109 0 52 0;
#X connect 110 0 109 0;
#X connect 117 0 130 0;
#X connect 118 0 134 0;
#X connect 119 0 120 0;
#X connect 120 0 121 0;
#X connect 121 0 122 1;
#X connect 122 0 101 0;
#X connect 123 0 21 0;
#X connect 124 0 73 1;
#X connect 125 0 59 0;
#X connect 126 0 127 0;
#X connect 127 0 128 0;
#X connect 128 0 129 0;
#X connect 129 0 130 1;
#X connect 130 0 131 0;
#X connect 130 0 131 1;
#X connect 132 0 57 0;
#X connect 133 0 105 0;
#X connect 134 0 119 0;
#X restore 53 320 pd guts;
#X obj 151 191 nbx 2 14 -1e+37 1e+37 0 0 empty \$0-steps empty 0 -8
0 12 #000000 #ffffff #000000 0 256;
#X obj 279 206 knob \$0-s-cutoff \$0-r-cutoff #0092CC #ffffff #f0efeb
;
#A saved 0.22;
#X obj 279 263 cnv 15 56 15 empty empty cutoff 4 8 0 14 #f0efeb #000000
0;
#X obj 349 206 knob \$0-s-reverb \$0-r-reverb #2E9970 #ffffff #f0efeb
;
#A saved 0.26;
#X obj 349 263 cnv 15 56 15 empty empty reverb 4 8 0 14 #f0efeb #000000
0;
#X obj 337 353 pdcontrol;
#X msg 337 332 browse https://linktr.ee/MikeMorenoDSP;
#X text 334 311 By Miguel Moreno 2021;
#X connect 17 0 16 0;
#X coords 0 756 1 755 56 56 0;
