#N canvas 334 34 783 673 10;
#X obj 40 42 vsl 56 51 0 1 0 0 \$0-s-slider \$0-r-slider ❍ 0 18 0
95 #f0efeb #f0efeb #000000 0 1;
#X obj 67 207 t f f;
#X obj 67 312 pack f f;
#X obj 67 249 sin;
#X obj 150 249 cos;
#X obj 67 228 * -6.28319;
#X obj 150 227 * -6.28319;
#X obj 40 123 r \$0-s-slider;
#X obj 347 54 savestate;
#X obj 398 80 f;
#X obj 413 59 r \$0-s-slider;
#X obj 347 184 s \$0-r-slider;
#X msg 67 333 label_pos \$1 \$2;
#X obj 537 56 loadbang;
#X obj 40 144 t f f;
#X obj 40 552 outlet;
#X text 40 572 (O1) Output;
#X obj 392 137 inlet;
#X text 392 117 (I1) Inlet;
#X obj 67 186 + 0.125;
#X obj 67 270 * 13;
#X obj 150 270 * 13;
#X obj 149 291 + 27;
#X obj 67 165 * 0.75;
#X obj 67 291 + 22;
#X obj 392 158 route float;
#X obj 67 354 s \$0-r-front;
#X obj 40 40 cnv 56 1 1 empty \$0-r-fill ● 4 21 0 76 #f0efeb #e65f50
0;
#X obj 40 40 cnv 56 1 1 empty \$0-r-front ● 23 14 0 16 #f0efeb #ffffff
0;
#X obj 40 87 cnv 9 9 9 empty \$0-r-dot ● 2 4 0 10 #f0efeb #000000
0;
#X obj 87 87 cnv 9 9 9 empty \$0-r-dot ● 2 4 0 10 #f0efeb #000000
0;
#X obj 455 229 loadbang;
#X obj 271 400 pack s s;
#X msg 271 421 color \$1 \$1 \$2;
#X obj 271 442 s \$0-r-slider;
#X obj 371 400 pack s s;
#X msg 371 421 color \$1 \$1 \$2;
#X obj 371 442 s \$0-r-dot;
#X obj 471 400 pack s s;
#X msg 471 421 color \$1 \$1 \$2;
#X obj 471 442 s \$0-r-fill;
#X obj 571 400 pack s s;
#X msg 571 421 color \$1 \$1 \$2;
#X obj 571 442 s \$0-r-front;
#X obj 455 250 t b b b b;
#X obj 272 307 sel 0;
#X obj 379 308 sel 0;
#X obj 489 307 sel 0;
#X obj 589 306 sel 0;
#X obj 272 354 t s s s s;
#X obj 389 353 t s s;
#X msg 379 329 symbol #000000;
#X msg 272 328 symbol #FFFFFF;
#X msg 589 327 symbol #000000;
#X obj 40 410 t f f;
#X obj 489 286 list store \$3;
#X obj 589 285 list store \$4;
#X text 97 531 1) Send;
#X obj 272 286 list store \$5;
#X obj 379 287 list store \$6;
#X text 272 246 5) background;
#X text 379 247 6) outline;
#X text 471 462 3) fill;
#X text 571 462 4) front;
#X msg 489 328 symbol #BBBBBB;
#X obj 67 531 s;
#X obj 82 468 sel 0;
#X obj 82 447 list store \$1;
#X msg 82 489 symbol nada;
#X obj 140 39 r \$2;
#X obj 226 70 f;
#X msg 260 132 set \$1;
#X obj 82 510 t s;
#X obj 226 112 t f f f f;
#X obj 537 77 t b b;
#X obj 564 98 s \$0-load-1;
#X obj 537 119 s \$0-load-2;
#X obj 82 426 r \$0-load-1;
#X obj 229 25 r \$0-load-2;
#X obj 140 60 spigot 0;
#X msg 193 49 1;
#X obj 229 46 t b b;
#X connect 1 0 5 0;
#X connect 1 1 6 0;
#X connect 2 0 12 0;
#X connect 3 0 20 0;
#X connect 4 0 21 0;
#X connect 5 0 3 0;
#X connect 6 0 4 0;
#X connect 7 0 14 0;
#X connect 8 0 70 1;
#X connect 8 1 9 0;
#X connect 9 0 8 0;
#X connect 10 0 9 1;
#X connect 12 0 26 0;
#X connect 13 0 74 0;
#X connect 14 0 54 0;
#X connect 14 1 23 0;
#X connect 17 0 25 0;
#X connect 19 0 1 0;
#X connect 20 0 24 0;
#X connect 21 0 22 0;
#X connect 22 0 2 1;
#X connect 23 0 19 0;
#X connect 24 0 2 0;
#X connect 25 0 11 0;
#X connect 31 0 44 0;
#X connect 32 0 33 0;
#X connect 33 0 34 0;
#X connect 35 0 36 0;
#X connect 36 0 37 0;
#X connect 38 0 39 0;
#X connect 39 0 40 0;
#X connect 41 0 42 0;
#X connect 42 0 43 0;
#X connect 44 0 58 0;
#X connect 44 1 59 0;
#X connect 44 2 55 0;
#X connect 44 3 56 0;
#X connect 45 0 52 0;
#X connect 45 1 49 0;
#X connect 46 0 51 0;
#X connect 46 1 50 0;
#X connect 47 0 64 0;
#X connect 47 1 38 1;
#X connect 48 0 53 0;
#X connect 48 1 41 1;
#X connect 49 0 32 0;
#X connect 49 1 35 0;
#X connect 49 2 38 0;
#X connect 49 3 41 0;
#X connect 50 0 32 1;
#X connect 50 1 35 1;
#X connect 51 0 50 0;
#X connect 52 0 49 0;
#X connect 53 0 41 1;
#X connect 54 0 15 0;
#X connect 54 1 65 0;
#X connect 55 0 47 0;
#X connect 56 0 48 0;
#X connect 58 0 45 0;
#X connect 59 0 46 0;
#X connect 64 0 38 1;
#X connect 66 0 68 0;
#X connect 66 1 72 0;
#X connect 67 0 66 0;
#X connect 68 0 72 0;
#X connect 69 0 79 0;
#X connect 70 0 73 0;
#X connect 71 0 11 0;
#X connect 72 0 65 1;
#X connect 73 0 23 0;
#X connect 73 1 54 0;
#X connect 73 2 71 0;
#X connect 73 3 9 1;
#X connect 74 0 76 0;
#X connect 74 1 75 0;
#X connect 77 0 67 0;
#X connect 78 0 81 0;
#X connect 79 0 73 0;
#X connect 80 0 79 1;
#X connect 81 0 80 0;
#X connect 81 1 70 0;
#X coords 0 -1 1 1 56 56 2 40 40;
