#N canvas 4 22 1280 756 10;
#N canvas 0 22 1280 756 guts 0;
#N canvas 0 22 450 300 lpf 0;
#X obj 177 80 samplerate~;
#X obj 229 12 loadbang;
#X obj 45 202 sig~ 1;
#X obj 45 250 -~;
#X obj 177 122 / 2;
#X obj 156 318 outlet~;
#X obj 177 101 t f f;
#X obj 82 123 inlet~;
#X obj 12 123 inlet~;
#X msg 229 33 bang;
#X obj 269 211 inlet;
#X msg 269 232 clear;
#X msg 256 123 1;
#X obj 256 144 atan;
#X obj 229 54 t b b;
#X obj 82 144 clip~ 0 22050;
#X obj 256 165 * -8;
#X obj 189 212 exp~;
#X obj 12 276 *~;
#X obj 60 228 abs~;
#X obj 156 292 rpole~;
#X obj 189 191 *~ -6.28319;
#X obj 159 170 /~ 44100;
#X text 12 13 One-pole Lowpass Filter;
#X text 8 369 https://www.musicdsp.org/en/latest/Filters/237-one-pole-filter-lp-and-hp.html
;
#X text 8 349 Reference:;
#X text 269 191 (I3) Clear internal state;
#X text 206 318 (O1) Output;
#X text 12 103 (I1) Input;
#X text 82 103 (I2) Frequency;
#X connect 0 0 6 0;
#X connect 1 0 9 0;
#X connect 2 0 3 0;
#X connect 3 0 18 1;
#X connect 4 0 15 2;
#X connect 6 0 4 0;
#X connect 6 1 22 1;
#X connect 7 0 15 0;
#X connect 8 0 18 0;
#X connect 9 0 14 0;
#X connect 10 0 11 0;
#X connect 11 0 20 0;
#X connect 12 0 13 0;
#X connect 13 0 16 0;
#X connect 14 0 0 0;
#X connect 14 1 12 0;
#X connect 15 0 22 0;
#X connect 16 0 21 1;
#X connect 17 0 20 1;
#X connect 17 0 19 0;
#X connect 18 0 20 0;
#X connect 19 0 3 1;
#X connect 20 0 5 0;
#X connect 21 0 17 0;
#X connect 22 0 21 0;
#X restore 452 333 pd lpf;
#X obj 508 286 pow~;
#N canvas 0 22 450 300 lpf 0;
#X obj 177 80 samplerate~;
#X obj 229 12 loadbang;
#X obj 45 202 sig~ 1;
#X obj 45 250 -~;
#X obj 177 122 / 2;
#X obj 156 318 outlet~;
#X obj 177 101 t f f;
#X obj 82 123 inlet~;
#X obj 12 123 inlet~;
#X msg 229 33 bang;
#X obj 269 211 inlet;
#X msg 269 232 clear;
#X msg 256 123 1;
#X obj 256 144 atan;
#X obj 229 54 t b b;
#X obj 82 144 clip~ 0 22050;
#X obj 256 165 * -8;
#X obj 189 212 exp~;
#X obj 12 276 *~;
#X obj 60 228 abs~;
#X obj 156 292 rpole~;
#X obj 189 191 *~ -6.28319;
#X obj 159 170 /~ 44100;
#X text 12 13 One-pole Lowpass Filter;
#X text 8 369 https://www.musicdsp.org/en/latest/Filters/237-one-pole-filter-lp-and-hp.html
;
#X text 8 349 Reference:;
#X text 269 191 (I3) Clear internal state;
#X text 206 318 (O1) Output;
#X text 12 103 (I1) Input;
#X text 82 103 (I2) Frequency;
#X connect 0 0 6 0;
#X connect 1 0 9 0;
#X connect 2 0 3 0;
#X connect 3 0 18 1;
#X connect 4 0 15 2;
#X connect 6 0 4 0;
#X connect 6 1 22 1;
#X connect 7 0 15 0;
#X connect 8 0 18 0;
#X connect 9 0 14 0;
#X connect 10 0 11 0;
#X connect 11 0 20 0;
#X connect 12 0 13 0;
#X connect 13 0 16 0;
#X connect 14 0 0 0;
#X connect 14 1 12 0;
#X connect 15 0 22 0;
#X connect 16 0 21 1;
#X connect 17 0 20 1;
#X connect 17 0 19 0;
#X connect 18 0 20 0;
#X connect 19 0 3 1;
#X connect 20 0 5 0;
#X connect 21 0 17 0;
#X connect 22 0 21 0;
#X restore 492 359 pd lpf;
#X obj 600 260 *~ -3;
#X obj 662 202 vline~;
#X obj 600 176 loadbang;
#X msg 600 197 1;
#X obj 600 218 -~;
#X obj 255 261 *~;
#X obj 255 282 *~;
#X obj 205 298 +~;
#N canvas 68 96 421 274 pitch 0;
#X obj 33 89 t f f;
#X obj 33 115 % 5;
#X obj 143 115 div 5;
#X obj 143 136 * 12;
#X obj 128 167 +;
#X obj 33 136 tabread \$0-scale;
#X obj 223 84 tabwrite \$0-pitch;
#X obj 128 209 outlet;
#X obj 33 68 tabread \$0-pitch;
#X obj 33 42 r \$0-read;
#X obj 223 42 r \$0-mutate;
#X obj 227 146 loadbang;
#X obj 227 188 array set \$0-scale;
#X obj 227 209 array define -k \$0-scale 5;
#A 0 0 2 4 7 11;
#X msg 227 167 0 2 4 7 11;
#X obj 322 58 r \$0-write;
#X obj 223 63 random 35;
#X obj 128 188 + 24;
#X obj 223 105 array define -k \$0-pitch 32;
#A 0 18 31 14 26 29 8 33 0 32 33 24 21 16 23 20 16 22 18 22 28 3 7
12 27 29 16 3 3 19 33 19 4;
#X connect 0 0 1 0;
#X connect 0 1 2 0;
#X connect 1 0 5 0;
#X connect 2 0 3 0;
#X connect 3 0 4 1;
#X connect 4 0 17 0;
#X connect 5 0 4 0;
#X connect 8 0 0 0;
#X connect 9 0 8 0;
#X connect 10 0 16 0;
#X connect 11 0 14 0;
#X connect 14 0 12 0;
#X connect 15 0 6 1;
#X connect 16 0 6 0;
#X connect 17 0 7 0;
#X restore 205 172 pd pitch;
#X obj 293 266 noise~;
#N canvas 68 96 995 358 envelope 0;
#X obj 215 306 outlet;
#X obj 39 26 r \$0-read;
#X obj 391 70 r \$0-mutate;
#X obj 496 175 r \$0-write;
#X obj 144 63 t f f;
#X obj 144 84 tabread \$0-attack;
#X obj 144 105 sel 0;
#X msg 144 126 1;
#X obj 171 126 t b f;
#X obj 171 147 v \$0-rate;
#X obj 171 168 /;
#X obj 144 207 t f;
#X obj 260 79 tabread \$0-decay;
#X obj 260 100 t b f;
#X obj 260 121 v \$0-rate;
#X obj 260 142 *;
#X obj 215 259 pack f f;
#X obj 391 91 random 100;
#X obj 391 133 sel 1;
#X obj 391 175 + 1;
#X obj 391 201 tabwrite \$0-attack;
#X obj 595 72 r \$0-mutate;
#X obj 694 219 r \$0-write;
#X obj 595 93 random 100;
#X obj 595 177 + 1;
#X obj 595 135 sel 1 0;
#X obj 655 177 + 2;
#X msg 655 198 1 \$1;
#X obj 655 219 /;
#X obj 595 245 tabwrite \$0-decay;
#X msg 215 280 1 \$1 \, 0 \$2 \$1;
#X obj 391 112 < 10;
#X obj 391 154 random 16;
#X obj 595 114 < 25;
#X obj 772 69 r \$0-mutate;
#X obj 865 111 r \$0-write;
#X obj 772 90 random 100;
#X obj 772 137 tabwrite \$0-gate;
#X obj 39 47 t f f;
#X obj 39 181 tabread \$0-gate;
#X obj 39 202 sel 1;
#X obj 39 233 f;
#X obj 595 156 random 4;
#X obj 655 156 random 4;
#X obj 595 266 array define -k \$0-decay 32;
#A 0 2 0.333333 0.2 0.2 0.25 0.25 0.333333 0.25 0.25 0.2 4 0.2 0.333333
1 3 3 1 0.333333 2 0.2 0.5 0.2 4 0.5 2 0.333333 3 4 0.333333 0.5 0.25
0.333333;
#X obj 391 222 array define -k \$0-attack 32;
#A 0 0 0 0 0 0 0 0 15 16 0 0 0 0 0 0 0 0 0 0 0 2 0 0 0 0 0 0 0 0 0
14 0;
#X obj 772 158 array define -k \$0-gate 32;
#A 0 1 1 1 1 1 1 1 0 1 1 0 1 0 1 1 1 1 1 1 1 1 1 1 0 0 1 1 1 1 1 1
1;
#X obj 772 111 < 75;
#X connect 1 0 38 0;
#X connect 2 0 17 0;
#X connect 3 0 20 1;
#X connect 4 0 5 0;
#X connect 4 1 12 0;
#X connect 5 0 6 0;
#X connect 6 0 7 0;
#X connect 6 1 8 0;
#X connect 7 0 11 0;
#X connect 8 0 9 0;
#X connect 8 1 10 1;
#X connect 9 0 10 0;
#X connect 10 0 11 0;
#X connect 11 0 41 1;
#X connect 12 0 13 0;
#X connect 13 0 14 0;
#X connect 13 1 15 1;
#X connect 14 0 15 0;
#X connect 15 0 16 1;
#X connect 16 0 30 0;
#X connect 17 0 31 0;
#X connect 18 0 32 0;
#X connect 18 1 20 0;
#X connect 19 0 20 0;
#X connect 21 0 23 0;
#X connect 22 0 29 1;
#X connect 23 0 33 0;
#X connect 24 0 29 0;
#X connect 25 0 42 0;
#X connect 25 1 43 0;
#X connect 26 0 27 0;
#X connect 27 0 28 0;
#X connect 28 0 29 0;
#X connect 30 0 0 0;
#X connect 31 0 18 0;
#X connect 32 0 19 0;
#X connect 33 0 25 0;
#X connect 34 0 36 0;
#X connect 35 0 37 1;
#X connect 36 0 47 0;
#X connect 38 0 39 0;
#X connect 38 1 4 0;
#X connect 39 0 40 0;
#X connect 40 0 41 0;
#X connect 41 0 16 0;
#X connect 42 0 24 0;
#X connect 43 0 26 0;
#X connect 47 0 37 0;
#X restore 675 103 pd envelope;
#N canvas 131 165 825 443 oscillator 0;
#X obj 12 67 phasor~;
#X obj 195 47 *~;
#X obj 12 190 +~;
#N canvas 1329 474 147 163 1/Fs 0;
#X obj 12 54 samplerate~;
#X obj 12 12 loadbang;
#X msg 12 75 1 \$1;
#X obj 12 96 /;
#X msg 12 33 bang;
#X obj 12 117 outlet;
#X connect 0 0 2 0;
#X connect 1 0 4 0;
#X connect 2 0 3 0;
#X connect 3 0 5 0;
#X connect 4 0 0 0;
#X restore 210 21 pd 1/Fs;
#X obj 12 232 outlet~;
#X obj 12 211 *~ -1;
#X text 12 352 http://www.martin-finke.de/blog/articles/audio-plugins-018-polyblep-oscillator/
;
#X text 12 332 https://github.com/enzienaudio/heavylib/tree/master/hv.osc
;
#X obj 12 31 inlet~;
#N canvas 1008 608 416 294 polyblep 0;
#X obj 167 225 -~;
#X obj 230 127 -~;
#X obj 230 12 sig~ 1;
#X obj 177 74 /~;
#X obj 167 252 outlet~;
#X obj 12 173 *~;
#X obj 162 173 *~;
#X obj 12 90 *~;
#X obj 162 147 -~;
#X obj 47 54 inlet~;
#X text 47 34 (I1) Phase;
#X obj 12 147 -~ 1;
#X obj 177 120 -~ 1;
#X text 245 38 (I2) Normalised Frequency;
#X obj 32 199 *~;
#X obj 182 199 *~;
#N canvas 1389 528 164 179 >=~ 0;
#X obj 47 64 -~;
#X obj 47 85 clip~ -1e-37 0;
#X obj 12 12 inlet~;
#X obj 62 12 inlet~;
#X obj 47 148 outlet~;
#X obj 47 127 *~ 1e+37;
#X obj 12 38 min~;
#X obj 47 106 +~ 1e-37;
#X connect 0 0 1 0;
#X connect 1 0 7 0;
#X connect 2 0 6 0;
#X connect 3 0 6 1;
#X connect 3 0 0 1;
#X connect 5 0 4 0;
#X connect 6 0 0 0;
#X connect 7 0 5 0;
#X restore 197 153 pd >=~;
#N canvas 1221 655 166 185 <=~ 0;
#X obj 41 60 -~;
#X obj 41 81 clip~ -1e-37 0;
#X obj 12 12 inlet~;
#X obj 62 12 inlet~;
#X obj 41 144 outlet~;
#X obj 41 123 *~ 1e+37;
#X obj 41 38 min~;
#X obj 41 102 +~ 1e-37;
#X connect 0 0 1 0;
#X connect 1 0 7 0;
#X connect 2 0 6 0;
#X connect 2 0 0 1;
#X connect 3 0 6 1;
#X connect 5 0 4 0;
#X connect 6 0 0 0;
#X connect 7 0 5 0;
#X restore 47 173 pd <=~;
#X obj 245 58 inlet~;
#X connect 0 0 4 0;
#X connect 1 0 16 1;
#X connect 2 0 3 0;
#X connect 2 0 1 0;
#X connect 3 0 7 1;
#X connect 3 0 12 0;
#X connect 5 0 14 0;
#X connect 6 0 15 0;
#X connect 7 0 8 0;
#X connect 7 0 11 0;
#X connect 8 0 6 0;
#X connect 8 0 6 1;
#X connect 9 0 7 0;
#X connect 9 0 17 0;
#X connect 9 0 16 0;
#X connect 11 0 5 0;
#X connect 11 0 5 1;
#X connect 12 0 8 1;
#X connect 14 0 0 0;
#X connect 15 0 0 1;
#X connect 16 0 15 1;
#X connect 17 0 14 1;
#X connect 18 0 1 1;
#X connect 18 0 3 1;
#X connect 18 0 17 1;
#X restore 132 129 pd polyblep;
#N canvas 1412 395 163 124 normalize 0;
#X obj 12 75 outlet~;
#X obj 12 12 inlet~;
#X obj 12 54 -~ 1;
#X obj 12 33 *~ 2;
#X connect 1 0 3 0;
#X connect 2 0 0 0;
#X connect 3 0 2 0;
#X restore 12 129 pd normalize;
#X obj 442 51 inlet;
#X text 12 11 (I1) Frequency;
#X text 12 252 (O1) Sawtooth;
#X text 12 382 https://github.com/cfloisand/pd-externals;
#X obj 172 185 +~;
#X obj 157 269 outlet~;
#N canvas 1008 608 416 294 polyblep 0;
#X obj 167 225 -~;
#X obj 230 127 -~;
#X obj 230 12 sig~ 1;
#X obj 177 74 /~;
#X obj 167 252 outlet~;
#X obj 12 173 *~;
#X obj 162 173 *~;
#X obj 12 90 *~;
#X obj 162 147 -~;
#X obj 47 54 inlet~;
#X text 47 34 (I1) Phase;
#X obj 12 147 -~ 1;
#X obj 177 120 -~ 1;
#X text 245 38 (I2) Normalised Frequency;
#X obj 32 199 *~;
#X obj 182 199 *~;
#N canvas 1389 528 164 179 >=~ 0;
#X obj 47 64 -~;
#X obj 47 85 clip~ -1e-37 0;
#X obj 12 12 inlet~;
#X obj 62 12 inlet~;
#X obj 47 148 outlet~;
#X obj 47 127 *~ 1e+37;
#X obj 12 38 min~;
#X obj 47 106 +~ 1e-37;
#X connect 0 0 1 0;
#X connect 1 0 7 0;
#X connect 2 0 6 0;
#X connect 3 0 6 1;
#X connect 3 0 0 1;
#X connect 5 0 4 0;
#X connect 6 0 0 0;
#X connect 7 0 5 0;
#X restore 197 153 pd >=~;
#N canvas 1221 655 166 185 <=~ 0;
#X obj 41 60 -~;
#X obj 41 81 clip~ -1e-37 0;
#X obj 12 12 inlet~;
#X obj 62 12 inlet~;
#X obj 41 144 outlet~;
#X obj 41 123 *~ 1e+37;
#X obj 41 38 min~;
#X obj 41 102 +~ 1e-37;
#X connect 0 0 1 0;
#X connect 1 0 7 0;
#X connect 2 0 6 0;
#X connect 2 0 0 1;
#X connect 3 0 6 1;
#X connect 5 0 4 0;
#X connect 6 0 0 0;
#X connect 7 0 5 0;
#X restore 47 173 pd <=~;
#X obj 245 58 inlet~;
#X connect 0 0 4 0;
#X connect 1 0 16 1;
#X connect 2 0 3 0;
#X connect 2 0 1 0;
#X connect 3 0 7 1;
#X connect 3 0 12 0;
#X connect 5 0 14 0;
#X connect 6 0 15 0;
#X connect 7 0 8 0;
#X connect 7 0 11 0;
#X connect 8 0 6 0;
#X connect 8 0 6 1;
#X connect 9 0 7 0;
#X connect 9 0 17 0;
#X connect 9 0 16 0;
#X connect 11 0 5 0;
#X connect 11 0 5 1;
#X connect 12 0 8 1;
#X connect 14 0 0 0;
#X connect 15 0 0 1;
#X connect 16 0 15 1;
#X connect 17 0 14 1;
#X connect 18 0 1 1;
#X connect 18 0 3 1;
#X connect 18 0 17 1;
#X restore 172 159 pd polyblep;
#N canvas 1412 395 163 124 normalize 0;
#X obj 12 75 outlet~;
#X obj 12 12 inlet~;
#X obj 12 54 -~ 1;
#X obj 12 33 *~ 2;
#X connect 1 0 3 0;
#X connect 2 0 0 0;
#X connect 3 0 2 0;
#X restore 258 169 pd normalize;
#X obj 258 99 +~;
#X obj 258 125 wrap~;
#X obj 157 206 -~;
#X obj 157 227 +~;
#X obj 344 83 samphold~;
#X obj 344 44 clip~ 0 1;
#X obj 344 211 *~ 2;
#X obj 344 23 inlet~;
#X text 157 289 (O2) Square;
#X text 344 3 (I2) Pulse Width;
#X msg 354 67 reset;
#X text 442 31 (I3) Phase;
#X obj 157 248 -~ 1;
#X text 12 312 References:;
#X obj 416 312 -~ 0.25;
#X obj 416 333 cos~;
#X obj 416 354 outlet~;
#X obj 433 199 -~ 0.25;
#X obj 433 220 cos~;
#X obj 433 241 *~;
#N canvas 68 96 592 269 pulse 0;
#X obj 33 84 outlet;
#X obj 33 42 r \$0-read;
#X obj 223 42 r \$0-mutate;
#X obj 322 58 r \$0-write;
#X obj 223 63 random 100;
#X obj 223 84 < 50;
#X obj 223 105 sel 1;
#X obj 223 126 random 100;
#X obj 223 147 / 100;
#X obj 223 168 * 2;
#X obj 223 194 tabwrite \$0-index;
#X obj 223 215 array define -k \$0-index 16;
#A 0 0.18 0 0 0 1.56 0 0.94 0.1 0.72 0 0 0 1.08 0 1.08 0;
#X obj 33 63 tabread \$0-index;
#X connect 1 0 12 0;
#X connect 2 0 4 0;
#X connect 3 0 10 1;
#X connect 4 0 5 0;
#X connect 5 0 6 0;
#X connect 6 0 7 0;
#X connect 6 1 10 0;
#X connect 7 0 8 0;
#X connect 8 0 9 0;
#X connect 9 0 10 0;
#X connect 12 0 0 0;
#X restore 491 225 pd pulse;
#N canvas 68 96 592 347 pulse 0;
#X obj 33 84 outlet;
#X obj 33 42 r \$0-read;
#X obj 223 42 r \$0-mutate;
#X obj 322 58 r \$0-write;
#X obj 223 63 random 100;
#X obj 223 105 sel 1;
#X obj 223 126 random 100;
#X obj 223 84 < 75;
#X msg 269 152 1;
#X obj 223 274 tabwrite \$0-ratio;
#X obj 223 295 array define -k \$0-ratio 16;
#A 0 1 1 6 21 14 1 4 1 1 1 1 23 1 1 1 3;
#X obj 33 63 tabread \$0-ratio;
#X obj 223 147 / 100;
#X obj 223 168 pow 2;
#X obj 223 210 + 0.5;
#X obj 223 231 i;
#X obj 223 252 + 1;
#X obj 223 189 * 32;
#X connect 1 0 11 0;
#X connect 2 0 4 0;
#X connect 3 0 9 1;
#X connect 4 0 7 0;
#X connect 5 0 6 0;
#X connect 5 1 8 0;
#X connect 6 0 12 0;
#X connect 7 0 5 0;
#X connect 8 0 9 0;
#X connect 11 0 0 0;
#X connect 12 0 13 0;
#X connect 13 0 17 0;
#X connect 14 0 15 0;
#X connect 15 0 16 0;
#X connect 16 0 9 0;
#X connect 17 0 14 0;
#X restore 423 124 pd pulse;
#X obj 410 169 *~;
#X connect 0 0 10 0;
#X connect 0 0 9 0;
#X connect 0 0 19 0;
#X connect 0 0 23 1;
#X connect 0 0 33 0;
#X connect 0 0 41 0;
#X connect 1 0 9 1;
#X connect 1 0 17 1;
#X connect 2 0 5 0;
#X connect 2 0 21 0;
#X connect 3 0 1 1;
#X connect 5 0 4 0;
#X connect 8 0 0 0;
#X connect 8 0 1 0;
#X connect 9 0 2 1;
#X connect 10 0 2 0;
#X connect 11 0 29 0;
#X connect 11 0 0 1;
#X connect 15 0 21 1;
#X connect 17 0 15 0;
#X connect 18 0 15 1;
#X connect 19 0 20 0;
#X connect 20 0 18 0;
#X connect 20 0 17 0;
#X connect 21 0 22 0;
#X connect 22 0 31 0;
#X connect 23 0 19 1;
#X connect 23 0 25 0;
#X connect 24 0 23 0;
#X connect 25 0 22 1;
#X connect 26 0 24 0;
#X connect 29 0 23 0;
#X connect 31 0 16 0;
#X connect 33 0 34 0;
#X connect 34 0 35 0;
#X connect 36 0 37 0;
#X connect 37 0 38 0;
#X connect 38 0 33 0;
#X connect 39 0 38 1;
#X connect 40 0 41 1;
#X connect 41 0 36 0;
#X restore 205 413 pd oscillator;
#X obj 205 459 *~;
#N canvas 68 96 421 274 noise 0;
#X obj 33 89 outlet;
#X obj 33 42 r \$0-read;
#X obj 223 42 r \$0-mutate;
#X obj 322 58 r \$0-write;
#X obj 223 210 tabwrite \$0-noise;
#X obj 223 63 random 100;
#X obj 223 105 sel 1;
#X obj 223 126 random 100;
#X obj 223 147 / 100;
#X obj 33 68 tabread \$0-noise;
#X obj 223 84 < 25;
#X obj 223 168 * 8;
#X obj 223 189 + 4;
#X obj 223 230 array define -k \$0-noise 32;
#A 0 0 7.28 0 0 0 6 10.8 0 0 0 11.36 0 11.6 0 0 0 0 0 0 0 0 0 0 0 0
0 0 0 0 0 6.72 9.76;
#X connect 1 0 9 0;
#X connect 2 0 5 0;
#X connect 3 0 4 1;
#X connect 5 0 10 0;
#X connect 6 0 7 0;
#X connect 6 1 4 0;
#X connect 7 0 8 0;
#X connect 8 0 11 0;
#X connect 9 0 0 0;
#X connect 10 0 6 0;
#X connect 11 0 12 0;
#X connect 12 0 4 0;
#X restore 270 240 pd noise;
#X obj 265 459 *~;
#X obj 250 506 +~;
#N canvas 68 96 592 269 waveform 0;
#X obj 33 89 outlet;
#X obj 33 42 r \$0-read;
#X obj 223 42 r \$0-mutate;
#X obj 340 73 r \$0-write;
#X obj 223 99 tabwrite \$0-waveform;
#X obj 33 68 tabread \$0-waveform;
#X obj 223 63 random 3;
#X obj 223 119 array define -k \$0-waveform 32;
#A 0 0 1 1 0 0 1 1 1 2 0 2 0 0 0 1 2 1 1 1 1 2 1 2 1 1 0 0 2 1 1 2
0;
#X connect 1 0 5 0;
#X connect 2 0 6 0;
#X connect 3 0 4 1;
#X connect 5 0 0 0;
#X connect 6 0 4 0;
#X restore 330 377 pd waveform;
#X obj 325 459 *~;
#X obj 330 423 == 0;
#X obj 370 423 == 1;
#X obj 410 423 == 2;
#X obj 330 397 t f f f;
#N canvas 68 96 592 269 pulse 0;
#X obj 33 89 outlet;
#X obj 33 42 r \$0-read;
#X obj 223 42 r \$0-mutate;
#X obj 322 58 r \$0-write;
#X obj 223 215 tabwrite \$0-pulse;
#X obj 33 68 tabread \$0-pulse;
#X obj 223 63 random 100;
#X obj 223 84 < 25;
#X obj 223 105 sel 1;
#X obj 223 126 random 100;
#X obj 223 147 / 100;
#X obj 223 168 * 0.4;
#X obj 223 189 + 0.5;
#X msg 268 186 0.5;
#X obj 223 236 array define -k \$0-pulse 32;
#A 0 0.5 0.5 0.5 0.5 0.5 0.5 0.5 0.5 0.72 0.5 0.5 0.804 0.5 0.5 0.5
0.5 0.5 0.5 0.5 0.5 0.5 0.648 0.5 0.5 0.5 0.5 0.5 0.5 0.5 0.5 0.5 0.5
;
#X connect 1 0 5 0;
#X connect 2 0 6 0;
#X connect 3 0 4 1;
#X connect 5 0 0 0;
#X connect 6 0 7 0;
#X connect 7 0 8 0;
#X connect 8 0 9 0;
#X connect 8 1 13 0;
#X connect 9 0 10 0;
#X connect 10 0 11 0;
#X connect 11 0 12 0;
#X connect 12 0 4 0;
#X connect 13 0 4 0;
#X restore 242 392 pd pulse;
#X obj 600 239 pow~ 0.5;
#N canvas 206 38 331 586 reverb 0;
#X obj 14 196 inlet~;
#X obj 104 512 outlet~;
#N canvas 564 382 298 270 allpass 0;
#X obj 12 72 inlet~;
#X obj 12 130 +~;
#X obj 27 108 *~;
#X obj 202 92 inlet;
#X obj 202 113 * -1;
#X obj 187 146 *~;
#X obj 172 167 +~;
#X obj 172 188 outlet~;
#X text 12 52 (I1) Input;
#X text 92 1 (I2) Time;
#X text 202 72 (I3) Gain;
#X text 172 208 (O1) Output;
#X obj 12 188 delwrite~ \$0-ap-1 50;
#X obj 92 42 delread4~ \$0-ap-1;
#X obj 92 21 inlet~;
#X obj 92 63 hip~ 100;
#X obj 92 85 lop~ 6000;
#X connect 0 0 1 0;
#X connect 1 0 5 0;
#X connect 1 0 12 0;
#X connect 2 0 1 1;
#X connect 3 0 2 1;
#X connect 3 0 4 0;
#X connect 4 0 5 1;
#X connect 5 0 6 1;
#X connect 6 0 7 0;
#X connect 13 0 15 0;
#X connect 14 0 13 0;
#X connect 15 0 16 0;
#X connect 16 0 2 0;
#X connect 16 0 6 0;
#X restore 104 258 pd allpass;
#X obj 132 190 unpack f f;
#X obj 132 148 loadbang;
#X obj 132 211 sig~;
#X obj 104 94 +~;
#X obj 124 482 delwrite~ \$0-spring-2 50;
#X obj 178 57 osc~ 0.36;
#X obj 202 190 osc~ 0.47;
#X msg 132 170 26.64 0.75;
#X obj 104 115 delread4~ \$0-spring-2;
#X obj 104 73 sig~ 43.14;
#N canvas 564 382 298 213 allpass 0;
#X obj 12 52 inlet~;
#X obj 12 110 +~;
#X obj 27 88 *~;
#X obj 202 72 inlet;
#X obj 202 93 * -1;
#X obj 187 126 *~;
#X obj 172 147 +~;
#X obj 172 168 outlet~;
#X text 12 32 (I1) Input;
#X text 92 -19 (I2) Time;
#X text 202 52 (I3) Gain;
#X text 172 188 (O1) Output;
#X obj 92 1 inlet~;
#X obj 92 43 hip~ 100;
#X obj 12 168 delwrite~ \$0-ap-2 50;
#X obj 92 22 delread4~ \$0-ap-2;
#X obj 92 65 lop~ 6000;
#X connect 0 0 1 0;
#X connect 1 0 5 0;
#X connect 1 0 14 0;
#X connect 2 0 1 1;
#X connect 3 0 2 1;
#X connect 3 0 4 0;
#X connect 4 0 5 1;
#X connect 5 0 6 1;
#X connect 6 0 7 0;
#X connect 12 0 15 0;
#X connect 13 0 16 0;
#X connect 15 0 13 0;
#X connect 16 0 2 0;
#X connect 16 0 6 0;
#X restore 104 394 pd allpass;
#X obj 132 326 unpack f f;
#X obj 132 284 loadbang;
#X obj 132 347 sig~;
#X msg 132 306 10.14 0.5;
#X obj 104 436 hip~ 100;
#X obj 104 415 lop~ 6000;
#X obj 212 352 *~ 0.2;
#X obj 178 78 *~ 0.3;
#X obj 202 211 *~ 0.3;
#X obj 212 331 osc~ 1.26;
#X obj 104 456 *~ 0.95;
#X obj 132 368 +~;
#X obj 132 232 +~;
#X obj 89 232 +~;
#X connect 0 0 27 0;
#X connect 2 0 13 0;
#X connect 3 0 5 0;
#X connect 3 1 2 2;
#X connect 4 0 10 0;
#X connect 5 0 26 0;
#X connect 6 0 11 0;
#X connect 8 0 21 0;
#X connect 9 0 22 0;
#X connect 10 0 3 0;
#X connect 11 0 27 1;
#X connect 12 0 6 0;
#X connect 13 0 19 0;
#X connect 14 0 16 0;
#X connect 14 1 13 2;
#X connect 15 0 17 0;
#X connect 16 0 25 0;
#X connect 17 0 14 0;
#X connect 18 0 24 0;
#X connect 19 0 18 0;
#X connect 20 0 25 1;
#X connect 21 0 6 1;
#X connect 22 0 26 1;
#X connect 23 0 20 0;
#X connect 24 0 1 0;
#X connect 24 0 7 0;
#X connect 25 0 13 1;
#X connect 26 0 2 1;
#X connect 27 0 2 0;
#X restore 582 452 pd reverb;
#X obj 323 161 line~;
#X obj 323 182 pow~ 6;
#X obj 205 193 sig~;
#X obj 267 198 *~;
#X obj 205 214 +~;
#X obj 205 235 mtof~;
#X msg 323 140 1 \, 0 50;
#X obj 714 253 bang;
#X obj 714 274 v \$0-rate;
#X msg 714 316 1 \, 0 1 \$1;
#X obj 714 337 vline~;
#X obj 265 480 /~ 2;
#X obj 714 295 * 2;
#N canvas 68 96 484 274 pitch 0;
#X obj 33 89 t f f;
#X obj 33 115 % 5;
#X obj 143 115 div 5;
#X obj 143 136 * 12;
#X obj 128 167 +;
#X obj 33 136 tabread \$0-scale;
#X obj 128 209 outlet;
#X obj 33 42 r \$0-read;
#X obj 223 42 r \$0-mutate;
#X obj 334 58 r \$0-write;
#X obj 223 63 random 35;
#X obj 128 188 + 24;
#X obj 223 84 tabwrite \$0-pitch-2;
#X obj 33 69 tabread \$0-pitch-2;
#X obj 223 105 array define -k \$0-pitch-2 32;
#A 0 9 9 10 16 24 23 5 0 20 15 6 0 22 26 3 21 13 3 9 30 1 33 5 14 32
25 3 17 9 13 8 33;
#X connect 0 0 1 0;
#X connect 0 1 2 0;
#X connect 1 0 5 0;
#X connect 2 0 3 0;
#X connect 3 0 4 1;
#X connect 4 0 11 0;
#X connect 5 0 4 0;
#X connect 7 0 13 0;
#X connect 8 0 10 0;
#X connect 9 0 12 1;
#X connect 10 0 12 0;
#X connect 11 0 6 0;
#X connect 13 0 0 0;
#X restore 343 276 pd pitch;
#X obj 343 297 mtof;
#X obj 343 339 osc~;
#X obj 261 334 *~;
#X obj 261 355 *~;
#X obj 205 371 +~;
#X obj 343 318 + 1;
#X obj 508 307 *~ 20000;
#N canvas 68 96 457 207 pole 0;
#X obj 33 42 r \$0-read;
#X obj 223 42 r \$0-mutate;
#X obj 316 58 r \$0-write;
#X obj 223 99 tabwrite \$0-pole;
#X obj 223 63 random 2;
#X obj 33 68 tabread \$0-pole;
#X obj 33 89 t f f;
#X obj 33 110 == 0;
#X obj 73 110 == 1;
#X obj 33 131 outlet;
#X obj 73 131 outlet;
#X obj 223 119 array define -k \$0-pole 32;
#A 0 1 0 1 0 1 0 1 0 0 1 0 0 0 0 0 1 1 0 1 1 0 0 1 0 0 0 0 1 0 1 1
0;
#X connect 0 0 5 0;
#X connect 1 0 4 0;
#X connect 2 0 3 1;
#X connect 4 0 3 0;
#X connect 5 0 6 0;
#X connect 6 0 7 0;
#X connect 6 1 8 0;
#X connect 7 0 9 0;
#X connect 8 0 10 0;
#X restore 542 364 pd pole;
#X obj 452 400 *~;
#X obj 492 400 *~;
#X obj 452 426 +~;
#X obj 452 473 *~;
#X obj 343 508 sel 1;
#X obj 437 545 *~;
#X msg 508 197 1 \$1;
#X obj 508 218 -;
#N canvas 635 171 450 300 tanh 0;
#X obj 12 12 inlet~;
#X obj 12 38 clip~ -3 3;
#X obj 27 64 *~;
#X obj 12 192 outlet~;
#X obj 27 140 /~;
#X obj 12 166 *~;
#X obj 67 90 *~ 9;
#X text 92 42 // http://www.musicdsp.org/showone.php?id=238;
#X text 92 62 // y = x * (27 + x^2) / (27 + 9*x^2);
#X obj 27 90 +~ 27;
#X obj 67 116 +~ 27;
#X text 92 22 // pade-approximation of tanh function;
#X connect 0 0 1 0;
#X connect 1 0 2 0;
#X connect 1 0 2 1;
#X connect 1 0 5 0;
#X connect 2 0 9 0;
#X connect 2 0 6 0;
#X connect 4 0 5 1;
#X connect 5 0 3 0;
#X connect 6 0 10 0;
#X connect 9 0 4 0;
#X connect 10 0 4 1;
#X restore 422 618 pd tanh;
#X obj 714 383 r \$0-s-reverb;
#X obj 714 425 * 0.5;
#X msg 714 446 \$1 20;
#X obj 714 467 line~;
#X obj 582 483 *~;
#N canvas 68 96 421 274 fm 0;
#X obj 33 89 outlet;
#X obj 33 42 r \$0-read;
#X obj 223 42 r \$0-mutate;
#X obj 322 58 r \$0-write;
#X obj 223 63 random 100;
#X obj 223 105 sel 1;
#X obj 223 126 random 100;
#X obj 223 147 / 100;
#X obj 223 84 < 25;
#X obj 223 168 * 8;
#X obj 223 210 tabwrite \$0-fm;
#X obj 33 68 tabread \$0-fm;
#X obj 223 230 array define -k \$0-fm 32;
#A 0 0 0 4.96 0 0 2 0 0 0 0 4.8 0 2.96 0.16 0 2 0 5.44 0 0 0 0 0 0
0 2.64 0 0 0 0 0 0;
#X connect 1 0 11 0;
#X connect 2 0 4 0;
#X connect 3 0 10 1;
#X connect 4 0 8 0;
#X connect 5 0 6 0;
#X connect 5 1 10 0;
#X connect 6 0 7 0;
#X connect 7 0 9 0;
#X connect 8 0 5 0;
#X connect 9 0 10 0;
#X connect 11 0 0 0;
#X restore 276 308 pd fm;
#N canvas 68 96 329 274 bend 0;
#X obj 12 64 outlet;
#X obj 12 22 r \$0-read;
#X obj 122 22 r \$0-mutate;
#X obj 215 169 r \$0-write;
#X obj 122 43 random 100;
#X obj 122 85 sel 1;
#X obj 122 106 random 100;
#X obj 122 127 / 100;
#X obj 122 190 tabwrite \$0-bend;
#X obj 12 43 tabread \$0-bend;
#X obj 122 169 + 12;
#X obj 122 148 * 36;
#X obj 122 64 < 10;
#X obj 122 210 array define -k \$0-bend 32;
#A 0 0 0 0 0 0 0 0 0 0 0 0 0 31.08 0 0 0 0 0 0 0 0 0 0 0 0 0 0 27.12
0 31.8 0 0;
#X connect 1 0 9 0;
#X connect 2 0 4 0;
#X connect 3 0 8 1;
#X connect 4 0 12 0;
#X connect 5 0 6 0;
#X connect 5 1 8 0;
#X connect 6 0 7 0;
#X connect 7 0 11 0;
#X connect 9 0 0 0;
#X connect 10 0 8 0;
#X connect 11 0 10 0;
#X connect 12 0 5 0;
#X restore 267 177 pd bend;
#X obj 478 564 r \$0-s-volume;
#X obj 478 585 pow 2;
#X msg 478 606 \$1 20;
#X obj 478 627 line~;
#X obj 422 644 *~;
#X obj 422 675 dac~ 1 2;
#X obj 508 176 r \$0-s-cutoff;
#X obj 508 260 + 3;
#X obj 508 239 * 7;
#N canvas 12 22 440 736 clock 0;
#X obj 122 225 loadbang;
#X msg 122 246 1;
#X msg 193 162 60000 \$1;
#X obj 193 183 /;
#X obj 193 204 / 4;
#X obj 122 267 metro 150;
#X obj 122 288 t b b;
#X obj 149 324 i;
#X obj 179 324 + 1;
#X obj 149 355 % 4;
#X obj 298 266 + 0.5;
#X obj 298 287 i;
#X obj 298 224 r \$0-s-steps;
#X obj 193 225 t f f;
#X obj 220 246 v \$0-rate;
#X obj 207 454 random 100;
#X obj 207 598 sel 1;
#X obj 222 495 r \$0-s-mutation;
#X obj 207 577 <;
#X obj 159 381 t f f;
#X obj 207 407 t b f;
#X obj 207 619 s \$0-mutate;
#X obj 234 428 s \$0-write;
#X obj 159 645 s \$0-read;
#X obj 222 516 * 100;
#X obj 325 350 change -1;
#X obj 325 371 s \$0-steps;
#X obj 298 308 + 1;
#X obj 298 329 t f f;
#X obj 298 245 * 31;
#X obj 193 31 r \$0-s-tempo;
#X obj 12 402 delay;
#X msg 12 423 0;
#X obj 101 449 t f;
#X msg 101 340 1;
#X obj 101 470 s \$0-led;
#X obj 39 360 v \$0-rate;
#X obj 12 324 t b b b;
#X text 222 475 // Mutation Chance;
#X text 101 490 // LED;
#X text 298 206 // Steps;
#X text 193 11 // Tempo;
#X obj 193 73 + 0.5;
#X obj 193 94 i;
#X obj 193 115 + 30;
#X obj 193 136 t f f;
#X obj 260 162 change -1;
#X obj 260 183 s \$0-tempo;
#X obj 193 52 * 220;
#X obj 222 537 t f f;
#X obj 269 555 s \$0-chance;
#X obj 39 381 / 2;
#X connect 0 0 1 0;
#X connect 1 0 5 0;
#X connect 2 0 3 0;
#X connect 3 0 4 0;
#X connect 4 0 13 0;
#X connect 5 0 6 0;
#X connect 6 0 37 0;
#X connect 6 1 7 0;
#X connect 7 0 9 0;
#X connect 8 0 7 1;
#X connect 9 0 8 0;
#X connect 9 0 19 0;
#X connect 10 0 11 0;
#X connect 11 0 27 0;
#X connect 12 0 29 0;
#X connect 13 0 5 1;
#X connect 13 1 14 0;
#X connect 15 0 18 0;
#X connect 16 0 21 0;
#X connect 17 0 24 0;
#X connect 18 0 16 0;
#X connect 19 0 23 0;
#X connect 19 1 20 0;
#X connect 20 0 15 0;
#X connect 20 1 22 0;
#X connect 24 0 49 0;
#X connect 25 0 26 0;
#X connect 27 0 28 0;
#X connect 28 0 9 1;
#X connect 28 1 25 0;
#X connect 29 0 10 0;
#X connect 30 0 48 0;
#X connect 31 0 32 0;
#X connect 32 0 33 0;
#X connect 33 0 35 0;
#X connect 34 0 33 0;
#X connect 36 0 51 0;
#X connect 37 0 31 0;
#X connect 37 1 36 0;
#X connect 37 2 34 0;
#X connect 42 0 43 0;
#X connect 43 0 44 0;
#X connect 44 0 45 0;
#X connect 45 0 2 0;
#X connect 45 1 46 0;
#X connect 46 0 47 0;
#X connect 48 0 42 0;
#X connect 49 0 18 1;
#X connect 49 1 50 0;
#X connect 51 0 31 1;
#X restore 75 172 pd clock;
#N canvas 123 127 391 215 knob-codes 0;
#X text 19 81 knob \$0-s-mutation \$0-r-mutation #E65F50 #ffffff #f0efeb
;
#X text 29 61 knob \$0-s-steps \$0-r-steps #E65792 #ffffff #f0efeb
;
#X text 19 121 knob \$0-s-reverb \$0-r-reverb #2E9970 #ffffff #f0efeb
;
#X text 19 141 knob \$0-s-tone \$0-r-tone #696969 #ffffff #f0efeb;
#X text 19 100 knob \$0-s-cutoff \$0-r-cutoff #0092CC #ffffff #f0efeb
;
#X text 29 161 knob \$0-s-volume \$0-r-volume #696969 #ffffff #f0efeb
;
#X text 19 41 knob \$0-s-tempo \$0-r-tempo #E65792 #ffffff #f0efeb
;
#X text 19 21 Knob codes;
#X restore 75 192 pd knob-codes;
#X obj 675 124 t b a b;
#N canvas 155 22 335 461 tone 0;
#X obj 22 83 inlet~;
#X obj 123 52 r \$0-s-tone;
#X obj 61 109 clip 0 0.5;
#X obj 61 130 * 2;
#X obj 127 417 outlet~;
#X msg 44 255 \$1 24;
#X obj 44 276 line~;
#X obj 44 297 mtof~;
#X obj 150 140 clip 0.5 1;
#X obj 150 161 - 0.5;
#X obj 150 182 * 2;
#X msg 150 291 \$1 24;
#X obj 150 312 line~;
#X obj 150 333 mtof~;
#X obj 150 249 sqrt;
#X obj 44 172 pow 2;
#X obj 150 270 * 118;
#X obj 44 234 + 45;
#X obj 44 193 * 91;
#X obj 123 73 t f f;
#N canvas 824 378 450 300 lowpass~ 0;
#N canvas 1006 332 706 367 lowpass.coeffs 0;
#X obj 12 45 inlet~ freq;
#X obj 288 50 inlet~ q;
#X obj 12 67 clip~ 20 20000;
#X obj 273 94 sig~ 1;
#X obj 273 116 /~;
#X obj 273 138 *~;
#X obj 273 160 *~ 0.5;
#X obj 12 261 sig~ 1;
#X obj 12 283 /~;
#X obj 122 297 *~;
#X obj 137 275 *~ 0.5;
#X obj 122 319 outlet~ b0;
#X obj 192 297 *~;
#X obj 192 319 outlet~ b1;
#X obj 262 297 *~;
#X obj 262 319 outlet~ b2;
#X obj 332 297 *~;
#X obj 347 253 *~ -2;
#X obj 332 319 outlet~ a1;
#X obj 417 231 sig~ 1;
#X obj 417 253 -~;
#X obj 402 297 *~;
#X obj 402 319 outlet~ a2;
#X obj 57 266 +~ 1;
#X text 363 162 w0 = 2*pi*f0*Fs;
#X text 363 182 alpha = sin(w0)/(2*Q);
#X text 527 237 a2 = 1 - alpha;
#X text 527 217 a1 = -2*cos(w0);
#X text 392 72 H(z) = -----------------------------------------;
#X text 392 32 Audio-Cookbook:;
#X text 392 112 http://musicdsp.org/files/Audio-EQ-Cookbook.txt;
#X obj 137 231 sig~ 1;
#X obj 137 253 -~;
#X obj 207 231 sig~ 1;
#X obj 207 253 -~;
#X obj 277 275 *~ 0.5;
#X obj 277 231 sig~ 1;
#X obj 277 253 -~;
#X text 434 87 1 + (a1/a0)*z^(-1) + (a2/a0)*z^(-2);
#X text 434 57 (b0/a0) + (b1/a0)*z^(-1) + (b2/a0)*z^(-2);
#X text 527 197 a0 = 1 + alpha;
#X text 527 257 b0 = (1 - cos(w0))/2;
#X text 527 277 b1 = (1 - cos(w0));
#X text 527 297 b2 = (1 - cos(w0))/2;
#X text 517 177 LPF:;
#X obj 12 88 /~ 44100;
#X obj 105 53 loadbang;
#X obj 105 74 samplerate~;
#X obj 12 110 *~ 6.28319;
#X obj 117 124 expr~ sin($v1);
#X obj 12 239 expr~ cos($v1);
#X obj 288 72 max~ 0.1;
#X connect 0 0 2 0;
#X connect 1 0 51 0;
#X connect 2 0 45 0;
#X connect 3 0 4 0;
#X connect 4 0 5 0;
#X connect 5 0 6 0;
#X connect 6 0 20 1;
#X connect 6 0 23 0;
#X connect 7 0 8 0;
#X connect 8 0 9 0;
#X connect 8 0 12 0;
#X connect 8 0 14 0;
#X connect 8 0 16 0;
#X connect 8 0 21 0;
#X connect 9 0 11 0;
#X connect 10 0 9 1;
#X connect 12 0 13 0;
#X connect 14 0 15 0;
#X connect 16 0 18 0;
#X connect 17 0 16 1;
#X connect 19 0 20 0;
#X connect 20 0 21 1;
#X connect 21 0 22 0;
#X connect 23 0 8 1;
#X connect 31 0 32 0;
#X connect 32 0 10 0;
#X connect 33 0 34 0;
#X connect 34 0 12 1;
#X connect 35 0 14 1;
#X connect 36 0 37 0;
#X connect 37 0 35 0;
#X connect 45 0 48 0;
#X connect 46 0 47 0;
#X connect 47 0 45 1;
#X connect 48 0 49 0;
#X connect 48 0 50 0;
#X connect 49 0 5 1;
#X connect 50 0 32 1;
#X connect 50 0 34 1;
#X connect 50 0 37 1;
#X connect 50 0 17 0;
#X connect 51 0 4 1;
#X restore 62 52 pd lowpass.coeffs;
#X obj 46 120 outlet~;
#N canvas 776 547 365 190 @hv_obj 0;
#X obj 12 31 inlet~;
#N canvas 1097 522 303 331 zeros 0;
#X obj 12 217 czero~;
#X obj 12 273 czero~;
#X obj 12 299 outlet~;
#X obj 75 299 outlet~;
#X obj 12 31 inlet~;
#X obj 47 122 *~ -1;
#X obj 47 143 *~ 0.5;
#X obj 132 58 *~;
#X obj 132 92 -~;
#X obj 187 78 *~ 4;
#X obj 187 57 *~;
#X obj 132 113 abs~;
#X obj 132 155 *~ 0.5;
#X obj 132 176 /~;
#N canvas 773 235 262 212 location 0;
#X obj 12 12 inlet~;
#X obj 62 12 inlet~;
#X obj 207 12 inlet~;
#X obj 12 174 outlet~;
#X obj 72 174 outlet~;
#X obj 132 174 outlet~;
#X obj 192 174 outlet~;
#N canvas 725 189 180 137 gte 0;
#X obj 117 12 inlet~;
#X obj 12 12 inlet~;
#X obj 12 100 outlet~;
#N canvas 758 270 144 76 @hv_obj 0;
#X obj 62 12 inlet~;
#X obj 12 12 inlet~;
#X obj 12 34 outlet~;
#X connect 1 0 2 0;
#X restore 12 78 pd @hv_obj __and~f;
#X obj 117 56 sig~ 1;
#N canvas 945 362 136 178 @hv_obj 0;
#X obj 12 56 -~;
#X obj 12 78 clip~ -1e-37 0;
#X obj 12 12 inlet~;
#X obj 62 12 inlet~;
#X obj 12 144 outlet~;
#X obj 12 122 *~ 1e+37;
#X obj 12 34 min~;
#X obj 12 100 +~ 1e-37;
#X connect 0 0 1 0;
#X connect 1 0 7 0;
#X connect 2 0 6 0;
#X connect 3 0 6 1;
#X connect 3 0 0 1;
#X connect 5 0 4 0;
#X connect 6 0 0 0;
#X connect 7 0 5 0;
#X restore 12 34 pd @hv_obj __gte~f;
#X connect 0 0 5 1;
#X connect 1 0 5 0;
#X connect 3 0 2 0;
#X connect 4 0 3 1;
#X connect 5 0 3 0;
#X restore 62 49 pd gte;
#N canvas 845 375 187 138 lte 0;
#X obj 117 12 inlet~;
#X obj 12 12 inlet~;
#X obj 12 100 outlet~;
#N canvas 467 216 140 82 @hv_obj 0;
#X obj 72 12 inlet~;
#X obj 12 12 inlet~;
#X obj 12 39 outlet~;
#X connect 1 0 2 0;
#X restore 12 78 pd @hv_obj __and~f;
#X obj 117 56 sig~ 1;
#N canvas 715 101 137 184 @hv_obj 0;
#X obj 12 56 -~;
#X obj 12 78 clip~ -1e-37 0;
#X obj 12 12 inlet~;
#X obj 62 12 inlet~;
#X obj 12 144 outlet~;
#X obj 12 122 *~ 1e+37;
#X obj 12 34 min~;
#X obj 12 100 +~ 1e-37;
#X connect 0 0 1 0;
#X connect 1 0 7 0;
#X connect 2 0 6 0;
#X connect 2 0 0 1;
#X connect 3 0 6 1;
#X connect 5 0 4 0;
#X connect 6 0 0 0;
#X connect 7 0 5 0;
#X restore 12 34 pd @hv_obj __lte~f;
#X connect 0 0 5 1;
#X connect 1 0 5 0;
#X connect 3 0 2 0;
#X connect 4 0 3 1;
#X connect 5 0 3 0;
#X restore 127 49 pd lte;
#X obj 12 152 +~;
#X obj 160 22 sig~ 0;
#X obj 147 125 *~;
#X obj 192 125 *~;
#X obj 132 152 -~;
#X obj 192 152 *~ -1;
#X connect 0 0 9 0;
#X connect 0 0 13 0;
#X connect 1 0 7 0;
#X connect 1 0 8 0;
#X connect 2 0 11 1;
#X connect 2 0 12 1;
#X connect 7 0 11 0;
#X connect 8 0 12 0;
#X connect 9 0 3 0;
#X connect 10 0 7 1;
#X connect 10 0 8 1;
#X connect 11 0 9 1;
#X connect 11 0 13 1;
#X connect 12 0 4 0;
#X connect 12 0 14 0;
#X connect 13 0 5 0;
#X connect 14 0 6 0;
#X restore 34 190 pd location;
#X obj 132 134 sqrt~;
#X obj 47 164 /~;
#X obj 252 203 inlet;
#X text 62 11 b0;
#X text 132 11 b1;
#X text 202 11 b2;
#X obj 202 31 inlet~;
#X obj 132 31 inlet~;
#X obj 62 31 inlet~;
#X text 252 183 clear;
#X connect 0 0 1 0;
#X connect 0 1 1 1;
#X connect 1 0 2 0;
#X connect 1 1 3 0;
#X connect 4 0 0 0;
#X connect 5 0 6 0;
#X connect 6 0 16 0;
#X connect 7 0 8 0;
#X connect 8 0 11 0;
#X connect 8 0 14 1;
#X connect 9 0 8 1;
#X connect 10 0 9 0;
#X connect 11 0 15 0;
#X connect 12 0 13 0;
#X connect 13 0 14 2;
#X connect 14 0 0 2;
#X connect 14 1 0 3;
#X connect 14 2 1 2;
#X connect 14 3 1 3;
#X connect 15 0 12 0;
#X connect 16 0 14 0;
#X connect 17 0 0 0;
#X connect 17 0 1 0;
#X connect 21 0 10 1;
#X connect 22 0 5 0;
#X connect 22 0 7 1;
#X connect 22 0 7 0;
#X connect 23 0 10 0;
#X connect 23 0 13 1;
#X connect 23 0 16 1;
#X restore 12 89 pd zeros;
#X obj 12 52 *~;
#N canvas 1083 390 288 282 poles 0;
#X obj 12 181 cpole~;
#X obj 12 228 cpole~;
#X obj 12 249 outlet~;
#X obj 12 31 inlet~;
#X obj 62 31 inlet~;
#N canvas 739 258 279 198 location 0;
#X obj 12 12 inlet~;
#X obj 127 12 inlet~;
#X obj 222 49 inlet~;
#X obj 12 155 outlet~;
#X obj 62 155 outlet~;
#X obj 112 155 outlet~;
#X obj 172 155 outlet~;
#N canvas 796 341 183 142 gte 0;
#X obj 117 12 inlet~;
#X obj 12 12 inlet~;
#X obj 12 100 outlet~;
#N canvas 679 326 140 75 @hv_obj 0;
#X obj 72 12 inlet~;
#X obj 12 12 inlet~;
#X obj 12 34 outlet~;
#X connect 1 0 2 0;
#X restore 12 78 pd @hv_obj __and~f;
#X obj 117 56 sig~ 1;
#N canvas 754 439 132 184 @hv_obj 0;
#X obj 12 56 -~;
#X obj 12 78 clip~ -1e-37 0;
#X obj 12 12 inlet~;
#X obj 62 12 inlet~;
#X obj 12 144 outlet~;
#X obj 12 122 *~ 1e+37;
#X obj 12 34 min~;
#X obj 12 100 +~ 1e-37;
#X connect 0 0 1 0;
#X connect 1 0 7 0;
#X connect 2 0 6 0;
#X connect 3 0 6 1;
#X connect 3 0 0 1;
#X connect 5 0 4 0;
#X connect 6 0 0 0;
#X connect 7 0 5 0;
#X restore 12 34 pd @hv_obj __gte~f;
#X connect 0 0 5 1;
#X connect 1 0 5 0;
#X connect 3 0 2 0;
#X connect 4 0 3 1;
#X connect 5 0 3 0;
#X restore 127 39 pd gte;
#N canvas 816 493 187 138 lte 0;
#X obj 117 12 inlet~;
#X obj 12 12 inlet~;
#X obj 12 100 outlet~;
#N canvas 467 216 142 76 @hv_obj 0;
#X obj 72 12 inlet~;
#X obj 12 12 inlet~;
#X obj 12 34 outlet~;
#X connect 1 0 2 0;
#X restore 12 78 pd @hv_obj __and~f;
#X obj 117 56 sig~ 1;
#N canvas 715 101 131 178 @hv_obj 0;
#X obj 12 56 -~;
#X obj 12 78 clip~ -1e-37 0;
#X obj 12 12 inlet~;
#X obj 62 12 inlet~;
#X obj 12 144 outlet~;
#X obj 12 122 *~ 1e+37;
#X obj 12 34 min~;
#X obj 12 100 +~ 1e-37;
#X connect 0 0 1 0;
#X connect 1 0 7 0;
#X connect 2 0 6 0;
#X connect 2 0 0 1;
#X connect 3 0 6 1;
#X connect 5 0 4 0;
#X connect 6 0 0 0;
#X connect 7 0 5 0;
#X restore 12 34 pd @hv_obj __lte~f;
#X connect 0 0 5 1;
#X connect 1 0 5 0;
#X connect 3 0 2 0;
#X connect 4 0 3 1;
#X connect 5 0 3 0;
#X restore 172 39 pd lte;
#X obj 12 83 +~;
#X obj 205 12 sig~ 0;
#X obj 127 66 *~;
#X obj 172 66 *~;
#X obj 112 133 -~;
#X obj 172 133 *~ -1;
#X connect 0 0 9 0;
#X connect 0 0 13 0;
#X connect 1 0 7 0;
#X connect 1 0 8 0;
#X connect 2 0 11 1;
#X connect 2 0 12 1;
#X connect 7 0 11 0;
#X connect 8 0 12 0;
#X connect 9 0 3 0;
#X connect 10 0 7 1;
#X connect 10 0 8 1;
#X connect 11 0 9 1;
#X connect 11 0 13 1;
#X connect 12 0 4 0;
#X connect 12 0 14 0;
#X connect 13 0 5 0;
#X connect 14 0 6 0;
#X restore 34 155 pd location;
#X obj 72 78 *~ 0.5;
#X obj 122 57 *~;
#X obj 122 78 +~;
#X obj 182 64 *~ 4;
#X obj 122 99 abs~;
#X obj 122 141 *~ 0.5;
#X obj 122 120 sqrt~;
#X obj 232 167 inlet;
#X text 182 11 a2;
#X text 122 11 a1;
#X obj 122 31 inlet~;
#X obj 182 31 inlet~;
#X text 232 147 clear;
#X connect 0 0 1 0;
#X connect 0 1 1 1;
#X connect 1 0 2 0;
#X connect 3 0 0 0;
#X connect 4 0 0 1;
#X connect 5 0 0 2;
#X connect 5 1 0 3;
#X connect 5 2 1 2;
#X connect 5 3 1 3;
#X connect 6 0 5 0;
#X connect 7 0 8 0;
#X connect 8 0 5 1;
#X connect 8 0 10 0;
#X connect 9 0 8 1;
#X connect 10 0 12 0;
#X connect 11 0 5 2;
#X connect 12 0 11 0;
#X connect 13 0 0 0;
#X connect 13 0 1 0;
#X connect 16 0 6 0;
#X connect 16 0 7 0;
#X connect 16 0 7 1;
#X connect 17 0 9 0;
#X restore 12 133 pd poles;
#X obj 12 159 outlet~;
#X obj 212 119 *~ -1;
#X obj 262 119 *~ -1;
#X obj 312 75 inlet;
#X obj 62 31 inlet~;
#X obj 112 31 inlet~;
#X obj 162 31 inlet~;
#X obj 212 31 inlet~;
#X obj 262 31 inlet~;
#X text 62 11 b0;
#X text 112 11 b1;
#X text 162 11 b2;
#X text 212 11 a1;
#X text 262 11 a2;
#X text 312 55 clear;
#X connect 0 0 2 0;
#X connect 1 0 3 0;
#X connect 1 1 3 1;
#X connect 2 0 1 0;
#X connect 3 0 4 0;
#X connect 5 0 3 2;
#X connect 6 0 3 3;
#X connect 7 0 1 4;
#X connect 7 0 3 4;
#X connect 8 0 2 1;
#X connect 8 0 1 1;
#X connect 9 0 1 2;
#X connect 10 0 1 3;
#X connect 11 0 5 0;
#X connect 12 0 6 0;
#X restore 46 99 pd @hv_obj biquad;
#X obj 12 31 inlet~;
#X obj 173 31 inlet~;
#X obj 62 31 inlet~;
#X obj 220 64 inlet;
#X msg 220 85 clear;
#X text 62 11 frequency;
#X text 173 11 q;
#X text 220 44 clear;
#X connect 0 0 2 1;
#X connect 0 1 2 2;
#X connect 0 2 2 3;
#X connect 0 3 2 4;
#X connect 0 4 2 5;
#X connect 2 0 1 0;
#X connect 3 0 2 0;
#X connect 4 0 0 1;
#X connect 5 0 0 0;
#X connect 6 0 7 0;
#X connect 7 0 2 6;
#X restore 22 365 pd lowpass~;
#N canvas 803 355 450 300 highpass~ 0;
#N canvas 200 23 682 315 highpass.coeffs 0;
#X obj 12 46 clip~ 20 20000;
#X obj 283 51 clip~ 0.1 100;
#X obj 268 73 sig~ 1;
#X obj 268 95 /~;
#X obj 268 117 *~;
#X obj 268 139 *~ 0.5;
#X obj 12 215 sig~ 1;
#X obj 12 237 /~;
#X obj 122 254 *~;
#X obj 137 200 +~ 1;
#X obj 137 232 *~ 0.5;
#X obj 122 276 outlet~ b0;
#X obj 192 254 *~;
#X obj 207 200 +~ 1;
#X obj 192 276 outlet~ b1;
#X obj 207 232 *~ -1;
#X obj 262 254 *~;
#X obj 277 200 +~ 1;
#X obj 277 232 *~ 0.5;
#X obj 262 276 outlet~ b2;
#X obj 332 254 *~;
#X obj 347 200 *~ -2;
#X obj 332 276 outlet~ a1;
#X obj 417 210 sig~ 1;
#X obj 417 232 -~;
#X obj 402 254 *~;
#X obj 402 276 outlet~ a2;
#X obj 57 220 +~ 1;
#X text 348 141 w0 = 2*pi*f0*Fs;
#X text 348 161 alpha = sin(w0)/(2*Q);
#X text 512 176 a0 = 1 + alpha;
#X text 512 216 a2 = 1 - alpha;
#X text 512 196 a1 = -2*cos(w0);
#X text 512 256 b1 = -(1 + cos(w0));
#X text 512 236 b0 = (1 + cos(w0))/2;
#X text 502 156 HPF:;
#X text 512 276 b2 = (1 + cos(w0))/2;
#X text 419 36 (b0/a0) + (b1/a0)*z^(-1) + (b2/a0)*z^(-2);
#X text 377 51 H(z) = -----------------------------------------;
#X text 419 66 1 + (a1/a0)*z^(-1) + (a2/a0)*z^(-2);
#X text 377 11 Audio-Cookbook:;
#X text 377 91 http://musicdsp.org/files/Audio-EQ-Cookbook.txt;
#X obj 12 24 inlet~;
#X obj 283 29 inlet~;
#X obj 12 89 *~ 6.28319;
#X obj 12 67 /~ 44100;
#X obj 105 32 loadbang;
#X obj 105 53 samplerate~;
#X obj 122 103 expr~ sin($v1);
#X obj 12 186 expr~ cos($v1);
#X connect 0 0 45 0;
#X connect 1 0 3 1;
#X connect 2 0 3 0;
#X connect 3 0 4 0;
#X connect 4 0 5 0;
#X connect 5 0 24 1;
#X connect 5 0 27 0;
#X connect 6 0 7 0;
#X connect 7 0 8 0;
#X connect 7 0 12 0;
#X connect 7 0 16 0;
#X connect 7 0 20 0;
#X connect 7 0 25 0;
#X connect 8 0 11 0;
#X connect 9 0 10 0;
#X connect 10 0 8 1;
#X connect 12 0 14 0;
#X connect 13 0 15 0;
#X connect 15 0 12 1;
#X connect 16 0 19 0;
#X connect 17 0 18 0;
#X connect 18 0 16 1;
#X connect 20 0 22 0;
#X connect 21 0 20 1;
#X connect 23 0 24 0;
#X connect 24 0 25 1;
#X connect 25 0 26 0;
#X connect 27 0 7 1;
#X connect 42 0 0 0;
#X connect 43 0 1 0;
#X connect 44 0 48 0;
#X connect 44 0 49 0;
#X connect 45 0 44 0;
#X connect 46 0 47 0;
#X connect 47 0 45 1;
#X connect 48 0 4 1;
#X connect 49 0 9 0;
#X connect 49 0 13 0;
#X connect 49 0 17 0;
#X connect 49 0 21 0;
#X restore 62 52 pd highpass.coeffs;
#X obj 46 109 outlet~;
#N canvas 776 547 365 190 @hv_obj 0;
#X obj 12 31 inlet~;
#N canvas 1097 522 303 331 zeros 0;
#X obj 12 217 czero~;
#X obj 12 273 czero~;
#X obj 12 299 outlet~;
#X obj 75 299 outlet~;
#X obj 12 31 inlet~;
#X obj 47 122 *~ -1;
#X obj 47 143 *~ 0.5;
#X obj 132 58 *~;
#X obj 132 92 -~;
#X obj 187 78 *~ 4;
#X obj 187 57 *~;
#X obj 132 113 abs~;
#X obj 132 155 *~ 0.5;
#X obj 132 176 /~;
#N canvas 773 235 262 212 location 0;
#X obj 12 12 inlet~;
#X obj 62 12 inlet~;
#X obj 207 12 inlet~;
#X obj 12 174 outlet~;
#X obj 72 174 outlet~;
#X obj 132 174 outlet~;
#X obj 192 174 outlet~;
#N canvas 725 189 180 137 gte 0;
#X obj 117 12 inlet~;
#X obj 12 12 inlet~;
#X obj 12 100 outlet~;
#N canvas 758 270 144 76 @hv_obj 0;
#X obj 62 12 inlet~;
#X obj 12 12 inlet~;
#X obj 12 34 outlet~;
#X connect 1 0 2 0;
#X restore 12 78 pd @hv_obj __and~f;
#X obj 117 56 sig~ 1;
#N canvas 945 362 136 178 @hv_obj 0;
#X obj 12 56 -~;
#X obj 12 78 clip~ -1e-37 0;
#X obj 12 12 inlet~;
#X obj 62 12 inlet~;
#X obj 12 144 outlet~;
#X obj 12 122 *~ 1e+37;
#X obj 12 34 min~;
#X obj 12 100 +~ 1e-37;
#X connect 0 0 1 0;
#X connect 1 0 7 0;
#X connect 2 0 6 0;
#X connect 3 0 6 1;
#X connect 3 0 0 1;
#X connect 5 0 4 0;
#X connect 6 0 0 0;
#X connect 7 0 5 0;
#X restore 12 34 pd @hv_obj __gte~f;
#X connect 0 0 5 1;
#X connect 1 0 5 0;
#X connect 3 0 2 0;
#X connect 4 0 3 1;
#X connect 5 0 3 0;
#X restore 62 49 pd gte;
#N canvas 845 375 187 138 lte 0;
#X obj 117 12 inlet~;
#X obj 12 12 inlet~;
#X obj 12 100 outlet~;
#N canvas 467 216 140 82 @hv_obj 0;
#X obj 72 12 inlet~;
#X obj 12 12 inlet~;
#X obj 12 39 outlet~;
#X connect 1 0 2 0;
#X restore 12 78 pd @hv_obj __and~f;
#X obj 117 56 sig~ 1;
#N canvas 715 101 137 184 @hv_obj 0;
#X obj 12 56 -~;
#X obj 12 78 clip~ -1e-37 0;
#X obj 12 12 inlet~;
#X obj 62 12 inlet~;
#X obj 12 144 outlet~;
#X obj 12 122 *~ 1e+37;
#X obj 12 34 min~;
#X obj 12 100 +~ 1e-37;
#X connect 0 0 1 0;
#X connect 1 0 7 0;
#X connect 2 0 6 0;
#X connect 2 0 0 1;
#X connect 3 0 6 1;
#X connect 5 0 4 0;
#X connect 6 0 0 0;
#X connect 7 0 5 0;
#X restore 12 34 pd @hv_obj __lte~f;
#X connect 0 0 5 1;
#X connect 1 0 5 0;
#X connect 3 0 2 0;
#X connect 4 0 3 1;
#X connect 5 0 3 0;
#X restore 127 49 pd lte;
#X obj 12 152 +~;
#X obj 160 22 sig~ 0;
#X obj 147 125 *~;
#X obj 192 125 *~;
#X obj 132 152 -~;
#X obj 192 152 *~ -1;
#X connect 0 0 9 0;
#X connect 0 0 13 0;
#X connect 1 0 7 0;
#X connect 1 0 8 0;
#X connect 2 0 11 1;
#X connect 2 0 12 1;
#X connect 7 0 11 0;
#X connect 8 0 12 0;
#X connect 9 0 3 0;
#X connect 10 0 7 1;
#X connect 10 0 8 1;
#X connect 11 0 9 1;
#X connect 11 0 13 1;
#X connect 12 0 4 0;
#X connect 12 0 14 0;
#X connect 13 0 5 0;
#X connect 14 0 6 0;
#X restore 34 190 pd location;
#X obj 132 134 sqrt~;
#X obj 47 164 /~;
#X obj 252 203 inlet;
#X text 62 11 b0;
#X text 132 11 b1;
#X text 202 11 b2;
#X obj 202 31 inlet~;
#X obj 132 31 inlet~;
#X obj 62 31 inlet~;
#X text 252 183 clear;
#X connect 0 0 1 0;
#X connect 0 1 1 1;
#X connect 1 0 2 0;
#X connect 1 1 3 0;
#X connect 4 0 0 0;
#X connect 5 0 6 0;
#X connect 6 0 16 0;
#X connect 7 0 8 0;
#X connect 8 0 11 0;
#X connect 8 0 14 1;
#X connect 9 0 8 1;
#X connect 10 0 9 0;
#X connect 11 0 15 0;
#X connect 12 0 13 0;
#X connect 13 0 14 2;
#X connect 14 0 0 2;
#X connect 14 1 0 3;
#X connect 14 2 1 2;
#X connect 14 3 1 3;
#X connect 15 0 12 0;
#X connect 16 0 14 0;
#X connect 17 0 0 0;
#X connect 17 0 1 0;
#X connect 21 0 10 1;
#X connect 22 0 5 0;
#X connect 22 0 7 1;
#X connect 22 0 7 0;
#X connect 23 0 10 0;
#X connect 23 0 13 1;
#X connect 23 0 16 1;
#X restore 12 89 pd zeros;
#X obj 12 52 *~;
#N canvas 1083 390 288 282 poles 0;
#X obj 12 181 cpole~;
#X obj 12 228 cpole~;
#X obj 12 249 outlet~;
#X obj 12 31 inlet~;
#X obj 62 31 inlet~;
#N canvas 739 258 279 198 location 0;
#X obj 12 12 inlet~;
#X obj 127 12 inlet~;
#X obj 222 49 inlet~;
#X obj 12 155 outlet~;
#X obj 62 155 outlet~;
#X obj 112 155 outlet~;
#X obj 172 155 outlet~;
#N canvas 796 341 183 142 gte 0;
#X obj 117 12 inlet~;
#X obj 12 12 inlet~;
#X obj 12 100 outlet~;
#N canvas 679 326 140 75 @hv_obj 0;
#X obj 72 12 inlet~;
#X obj 12 12 inlet~;
#X obj 12 34 outlet~;
#X connect 1 0 2 0;
#X restore 12 78 pd @hv_obj __and~f;
#X obj 117 56 sig~ 1;
#N canvas 754 439 132 184 @hv_obj 0;
#X obj 12 56 -~;
#X obj 12 78 clip~ -1e-37 0;
#X obj 12 12 inlet~;
#X obj 62 12 inlet~;
#X obj 12 144 outlet~;
#X obj 12 122 *~ 1e+37;
#X obj 12 34 min~;
#X obj 12 100 +~ 1e-37;
#X connect 0 0 1 0;
#X connect 1 0 7 0;
#X connect 2 0 6 0;
#X connect 3 0 6 1;
#X connect 3 0 0 1;
#X connect 5 0 4 0;
#X connect 6 0 0 0;
#X connect 7 0 5 0;
#X restore 12 34 pd @hv_obj __gte~f;
#X connect 0 0 5 1;
#X connect 1 0 5 0;
#X connect 3 0 2 0;
#X connect 4 0 3 1;
#X connect 5 0 3 0;
#X restore 127 39 pd gte;
#N canvas 816 493 187 138 lte 0;
#X obj 117 12 inlet~;
#X obj 12 12 inlet~;
#X obj 12 100 outlet~;
#N canvas 467 216 142 76 @hv_obj 0;
#X obj 72 12 inlet~;
#X obj 12 12 inlet~;
#X obj 12 34 outlet~;
#X connect 1 0 2 0;
#X restore 12 78 pd @hv_obj __and~f;
#X obj 117 56 sig~ 1;
#N canvas 715 101 131 178 @hv_obj 0;
#X obj 12 56 -~;
#X obj 12 78 clip~ -1e-37 0;
#X obj 12 12 inlet~;
#X obj 62 12 inlet~;
#X obj 12 144 outlet~;
#X obj 12 122 *~ 1e+37;
#X obj 12 34 min~;
#X obj 12 100 +~ 1e-37;
#X connect 0 0 1 0;
#X connect 1 0 7 0;
#X connect 2 0 6 0;
#X connect 2 0 0 1;
#X connect 3 0 6 1;
#X connect 5 0 4 0;
#X connect 6 0 0 0;
#X connect 7 0 5 0;
#X restore 12 34 pd @hv_obj __lte~f;
#X connect 0 0 5 1;
#X connect 1 0 5 0;
#X connect 3 0 2 0;
#X connect 4 0 3 1;
#X connect 5 0 3 0;
#X restore 172 39 pd lte;
#X obj 12 83 +~;
#X obj 205 12 sig~ 0;
#X obj 127 66 *~;
#X obj 172 66 *~;
#X obj 112 133 -~;
#X obj 172 133 *~ -1;
#X connect 0 0 9 0;
#X connect 0 0 13 0;
#X connect 1 0 7 0;
#X connect 1 0 8 0;
#X connect 2 0 11 1;
#X connect 2 0 12 1;
#X connect 7 0 11 0;
#X connect 8 0 12 0;
#X connect 9 0 3 0;
#X connect 10 0 7 1;
#X connect 10 0 8 1;
#X connect 11 0 9 1;
#X connect 11 0 13 1;
#X connect 12 0 4 0;
#X connect 12 0 14 0;
#X connect 13 0 5 0;
#X connect 14 0 6 0;
#X restore 34 155 pd location;
#X obj 72 78 *~ 0.5;
#X obj 122 57 *~;
#X obj 122 78 +~;
#X obj 182 64 *~ 4;
#X obj 122 99 abs~;
#X obj 122 141 *~ 0.5;
#X obj 122 120 sqrt~;
#X obj 232 167 inlet;
#X text 182 11 a2;
#X text 122 11 a1;
#X obj 122 31 inlet~;
#X obj 182 31 inlet~;
#X text 232 147 clear;
#X connect 0 0 1 0;
#X connect 0 1 1 1;
#X connect 1 0 2 0;
#X connect 3 0 0 0;
#X connect 4 0 0 1;
#X connect 5 0 0 2;
#X connect 5 1 0 3;
#X connect 5 2 1 2;
#X connect 5 3 1 3;
#X connect 6 0 5 0;
#X connect 7 0 8 0;
#X connect 8 0 5 1;
#X connect 8 0 10 0;
#X connect 9 0 8 1;
#X connect 10 0 12 0;
#X connect 11 0 5 2;
#X connect 12 0 11 0;
#X connect 13 0 0 0;
#X connect 13 0 1 0;
#X connect 16 0 6 0;
#X connect 16 0 7 0;
#X connect 16 0 7 1;
#X connect 17 0 9 0;
#X restore 12 133 pd poles;
#X obj 12 159 outlet~;
#X obj 212 119 *~ -1;
#X obj 262 119 *~ -1;
#X obj 312 75 inlet;
#X obj 62 31 inlet~;
#X obj 112 31 inlet~;
#X obj 162 31 inlet~;
#X obj 212 31 inlet~;
#X obj 262 31 inlet~;
#X text 62 11 b0;
#X text 112 11 b1;
#X text 162 11 b2;
#X text 212 11 a1;
#X text 262 11 a2;
#X text 312 55 clear;
#X connect 0 0 2 0;
#X connect 1 0 3 0;
#X connect 1 1 3 1;
#X connect 2 0 1 0;
#X connect 3 0 4 0;
#X connect 5 0 3 2;
#X connect 6 0 3 3;
#X connect 7 0 1 4;
#X connect 7 0 3 4;
#X connect 8 0 2 1;
#X connect 8 0 1 1;
#X connect 9 0 1 2;
#X connect 10 0 1 3;
#X connect 11 0 5 0;
#X connect 12 0 6 0;
#X restore 46 88 pd @hv_obj biquad;
#X obj 12 20 inlet~;
#X obj 167 31 inlet~;
#X obj 62 31 inlet~;
#X obj 217 53 inlet;
#X msg 217 74 clear;
#X text 62 11 frequency;
#X text 217 33 clear;
#X text 167 11 q;
#X connect 0 0 2 1;
#X connect 0 1 2 2;
#X connect 0 2 2 3;
#X connect 0 3 2 4;
#X connect 0 4 2 5;
#X connect 2 0 1 0;
#X connect 3 0 2 0;
#X connect 4 0 0 1;
#X connect 5 0 0 0;
#X connect 6 0 7 0;
#X connect 7 0 2 6;
#X restore 127 391 pd highpass~;
#X msg 88 172 1 \$1;
#X obj 88 193 -;
#X msg 88 255 2 \$1;
#X obj 88 276 pow;
#X obj 88 297 * 0.4;
#X msg 88 318 \$1 24;
#X obj 88 339 line~;
#X msg 200 270 2 \$1;
#X obj 200 291 pow;
#X obj 200 312 * 0.4;
#X msg 200 333 \$1 24;
#X obj 200 354 line~;
#X obj 150 203 t f f;
#X obj 61 151 t f f;
#X text 123 32 // Tone;
#X obj 196 224 pow 0.25;
#X obj 88 214 pow 0.25;
#X obj 88 234 * 3;
#X obj 200 249 * 3;
#X connect 0 0 20 0;
#X connect 1 0 19 0;
#X connect 2 0 3 0;
#X connect 3 0 35 0;
#X connect 5 0 6 0;
#X connect 6 0 7 0;
#X connect 7 0 20 1;
#X connect 8 0 9 0;
#X connect 9 0 10 0;
#X connect 10 0 34 0;
#X connect 11 0 12 0;
#X connect 12 0 13 0;
#X connect 13 0 21 1;
#X connect 14 0 16 0;
#X connect 15 0 18 0;
#X connect 16 0 11 0;
#X connect 17 0 5 0;
#X connect 18 0 17 0;
#X connect 19 0 2 0;
#X connect 19 1 8 0;
#X connect 20 0 21 0;
#X connect 21 0 4 0;
#X connect 22 0 23 0;
#X connect 23 0 38 0;
#X connect 24 0 25 0;
#X connect 25 0 26 0;
#X connect 26 0 27 0;
#X connect 27 0 28 0;
#X connect 28 0 20 2;
#X connect 29 0 30 0;
#X connect 30 0 31 0;
#X connect 31 0 32 0;
#X connect 32 0 33 0;
#X connect 33 0 21 2;
#X connect 34 0 14 0;
#X connect 34 1 37 0;
#X connect 35 0 15 0;
#X connect 35 1 22 0;
#X connect 37 0 40 0;
#X connect 38 0 39 0;
#X connect 39 0 24 0;
#X connect 40 0 29 0;
#X restore 422 597 pd tone;
#X obj 452 499 +~;
#X obj 422 577 +~;
#N canvas 10 136 282 363 kick 0;
#X obj 12 75 line~;
#X obj 12 96 *~ -1;
#X obj 12 117 +~ 1;
#X obj 22 138 sqrt~;
#X obj 12 180 -~ 0.25;
#X obj 12 201 cos~;
#X obj 12 243 *~;
#X obj 13 33 v \$0-rate;
#X msg 13 54 1 \, 0 \$1;
#X obj 12 222 *~ 2;
#N canvas 635 171 450 300 tanh 0;
#X obj 12 12 inlet~;
#X obj 12 38 clip~ -3 3;
#X obj 27 64 *~;
#X obj 12 192 outlet~;
#X obj 27 140 /~;
#X obj 12 166 *~;
#X obj 67 90 *~ 9;
#X text 92 42 // http://www.musicdsp.org/showone.php?id=238;
#X text 92 62 // y = x * (27 + x^2) / (27 + 9*x^2);
#X obj 27 90 +~ 27;
#X obj 67 116 +~ 27;
#X text 92 22 // pade-approximation of tanh function;
#X connect 0 0 1 0;
#X connect 1 0 2 0;
#X connect 1 0 2 1;
#X connect 1 0 5 0;
#X connect 2 0 9 0;
#X connect 2 0 6 0;
#X connect 4 0 5 1;
#X connect 5 0 3 0;
#X connect 6 0 10 0;
#X connect 9 0 4 0;
#X connect 10 0 4 1;
#X restore 12 285 pd tanh;
#X obj 158 112 *~ -1;
#X obj 158 133 +~ 1;
#X obj 158 91 sqrt~;
#X obj 12 264 lop~ 2000;
#X obj 22 159 *~ 5;
#X obj 66 101 r \$0-s-cutoff;
#X obj 66 122 * 10;
#X obj 158 154 outlet~;
#X obj 12 306 outlet~;
#X obj 13 12 inlet;
#X text 66 71 // Cutoff;
#X obj 66 143 + 5;
#X connect 0 0 1 0;
#X connect 0 0 6 1;
#X connect 0 0 13 0;
#X connect 1 0 2 0;
#X connect 2 0 3 0;
#X connect 2 0 4 0;
#X connect 3 0 15 0;
#X connect 4 0 5 0;
#X connect 5 0 9 0;
#X connect 6 0 14 0;
#X connect 7 0 8 0;
#X connect 8 0 0 0;
#X connect 9 0 6 0;
#X connect 10 0 19 0;
#X connect 11 0 12 0;
#X connect 12 0 18 0;
#X connect 13 0 11 0;
#X connect 14 0 10 0;
#X connect 15 0 4 0;
#X connect 16 0 17 0;
#X connect 17 0 22 0;
#X connect 20 0 7 0;
#X connect 22 0 15 1;
#X restore 343 529 pd kick;
#N canvas 68 96 421 274 kick-trigger 0;
#X obj 33 94 outlet;
#X obj 33 42 r \$0-read;
#X obj 223 42 r \$0-mutate;
#X obj 316 81 r \$0-write;
#X obj 223 63 random 100;
#X obj 223 107 tabwrite \$0-kick;
#X obj 33 68 tabread \$0-kick;
#X obj 223 128 array define -k \$0-kick 32;
#A 0 0 0 0 0 0 0 0 0 0 0 0 0 0 0 0 1 0 1 0 1 0 0 1 0 0 1 0 0 0 0 0
0;
#X obj 223 84 < 15;
#X connect 1 0 6 0;
#X connect 2 0 4 0;
#X connect 3 0 5 1;
#X connect 4 0 8 0;
#X connect 6 0 0 0;
#X connect 8 0 5 0;
#X restore 343 487 pd kick-trigger;
#X text 508 156 // Cutoff;
#X text 714 363 // Reverb;
#X text 478 544 // Volume;
#X obj 714 404 pow 2;
#X connect 0 0 2 0;
#X connect 0 0 50 0;
#X connect 1 0 48 0;
#X connect 2 0 51 0;
#X connect 3 0 1 1;
#X connect 4 0 7 1;
#X connect 5 0 6 0;
#X connect 6 0 7 0;
#X connect 7 0 26 0;
#X connect 8 0 9 0;
#X connect 9 0 10 1;
#X connect 10 0 44 0;
#X connect 10 0 46 0;
#X connect 11 0 30 0;
#X connect 12 0 9 1;
#X connect 13 0 77 0;
#X connect 14 0 15 0;
#X connect 14 1 17 0;
#X connect 14 2 20 0;
#X connect 15 0 18 0;
#X connect 16 0 8 1;
#X connect 17 0 39 0;
#X connect 18 0 0 0;
#X connect 19 0 24 0;
#X connect 20 0 18 1;
#X connect 21 0 15 1;
#X connect 22 0 17 1;
#X connect 23 0 20 1;
#X connect 24 0 21 0;
#X connect 24 1 22 0;
#X connect 24 2 23 0;
#X connect 25 0 14 1;
#X connect 26 0 3 0;
#X connect 27 0 63 0;
#X connect 28 0 29 0;
#X connect 29 0 31 1;
#X connect 30 0 32 0;
#X connect 31 0 32 1;
#X connect 32 0 33 0;
#X connect 33 0 8 0;
#X connect 33 0 10 0;
#X connect 34 0 28 0;
#X connect 35 0 36 0;
#X connect 36 0 40 0;
#X connect 37 0 38 0;
#X connect 38 0 53 1;
#X connect 39 0 18 1;
#X connect 40 0 37 0;
#X connect 41 0 42 0;
#X connect 42 0 47 0;
#X connect 43 0 45 1;
#X connect 44 0 45 0;
#X connect 45 0 46 1;
#X connect 46 0 14 0;
#X connect 47 0 43 0;
#X connect 48 0 0 1;
#X connect 48 0 2 1;
#X connect 49 0 50 1;
#X connect 49 1 51 1;
#X connect 50 0 52 0;
#X connect 51 0 52 1;
#X connect 52 0 53 0;
#X connect 52 0 27 0;
#X connect 53 0 79 0;
#X connect 54 0 81 0;
#X connect 55 0 80 1;
#X connect 56 0 57 0;
#X connect 57 0 74 0;
#X connect 58 0 70 0;
#X connect 59 0 86 0;
#X connect 60 0 61 0;
#X connect 61 0 62 0;
#X connect 62 0 63 1;
#X connect 63 0 79 1;
#X connect 64 0 44 1;
#X connect 65 0 31 0;
#X connect 66 0 67 0;
#X connect 67 0 68 0;
#X connect 68 0 69 0;
#X connect 69 0 70 1;
#X connect 70 0 71 0;
#X connect 70 0 71 1;
#X connect 72 0 56 0;
#X connect 73 0 1 0;
#X connect 74 0 73 0;
#X connect 77 0 34 0;
#X connect 77 1 4 0;
#X connect 77 2 35 0;
#X connect 78 0 58 0;
#X connect 79 0 55 1;
#X connect 80 0 78 0;
#X connect 81 0 80 0;
#X connect 81 1 55 0;
#X connect 82 0 54 0;
#X connect 86 0 60 0;
#X restore 661 464 pd guts;
#X obj 661 444 pdcontrol;
#X msg 661 423 browse https://linktr.ee/MikeMorenoDSP;
#X text 648 372 By Miguel Moreno 2021;
#X text 651 514 https://www.modernsounds.co/pluto;
#X text 648 262 Knob Demo;
#X text 658 282 This patch showcases an implementation of the knob
abstraction in a synthesizer.;
#X text 648 312 Controls;
#X text 668 332 Mutate: similar to a turing machine module \, this
parameter controls the chance of randomizing the sequence.;
#X obj 661 403 bng 15 250 50 0 empty empty empty 17 7 0 10 #faff00
#000000 #000000;
#X text 651 494 Design inspired by Pluto from Modern Sounds;
#X obj 327 259 cnv 10 310 221 empty empty empty 20 12 0 14 #000000
#404040 0;
#X obj 329 261 cnv 10 306 217 empty empty empty 20 12 0 14 #f0efeb
#404040 0;
#X obj 366 409 led \$0-led #f0efeb;
#X obj 347 294 knob \$0-s-tempo \$0-r-tempo #E65792 #ffffff #f0efeb
;
#A saved 0.48;
#X obj 347 351 cnv 15 56 15 empty empty tempo 7 8 0 14 #f0efeb #000000
0;
#X obj 563 389 knob \$0-s-volume \$0-r-volume #696969 #ffffff #f0efeb
;
#A saved 1;
#X obj 563 446 cnv 15 56 15 empty empty volume 4 8 0 14 #f0efeb #000000
0;
#X obj 491 294 knob \$0-s-mutation \$0-r-mutation #E65F50 #ffffff #f0efeb
;
#A saved 0;
#X obj 419 294 knob \$0-s-steps \$0-r-steps #E65792 #ffffff #f0efeb
;
#A saved 0.48;
#X obj 419 351 cnv 15 56 15 empty empty steps 7 8 0 14 #f0efeb #000000
0;
#X obj 491 351 cnv 15 56 15 empty empty mutate 4 8 0 14 #f0efeb #000000
0;
#X obj 421 279 nbx 4 14 -1e+37 1e+37 0 0 empty \$0-steps empty 0 -8
0 12 #000000 #ffffff #000000 0 256;
#X obj 563 294 knob \$0-s-cutoff \$0-r-cutoff #0092CC #ffffff #f0efeb
;
#A saved 0.46;
#X obj 563 351 cnv 15 56 15 empty empty cutoff 4 8 0 14 #f0efeb #000000
0;
#X obj 419 389 knob \$0-s-reverb \$0-r-reverb #2E9970 #ffffff #f0efeb
;
#A saved 0.44;
#X obj 419 446 cnv 15 56 15 empty empty reverb 4 8 0 14 #f0efeb #000000
0;
#X obj 491 389 knob \$0-s-tone \$0-r-tone #696969 #ffffff #f0efeb;
#A saved 0.48;
#X obj 491 446 cnv 15 56 15 empty empty tone 10 8 0 14 #f0efeb #000000
0;
#X obj 513 379 cnv 9 9 9 empty \$0-r-dot  2 4 0 10 #f0efeb #000000
0;
#X obj 349 279 nbx 4 14 -1e+37 1e+37 0 0 empty \$0-tempo empty 0 -8
0 12 #000000 #ffffff #000000 0 256;
#X obj 492 279 nbx 4 14 -1e+37 1e+37 0 0 empty \$0-chance empty 0 -8
0 12 #000000 #ffffff #000000 0 256;
#X obj 523 279 cnv 14 14 14 empty empty % 1 8 0 14 #000000 #ffffff
0;
#X obj 624 271 cnv 1 1 196 empty empty empty 20 12 0 14 #cac9c7 #404040
0;
#X obj 339 466 cnv 1 286 1 empty empty empty 20 12 0 14 #cac9c7 #404040
0;
#X obj 555 271 cnv 1 1 196 empty empty empty 20 12 0 14 #cac9c7 #404040
0;
#X obj 483 271 cnv 1 1 196 empty empty empty 20 12 0 14 #cac9c7 #404040
0;
#X obj 411 271 cnv 1 1 196 empty empty empty 20 12 0 14 #cac9c7 #404040
0;
#X obj 339 371 cnv 1 286 1 empty empty empty 20 12 0 14 #cac9c7 #404040
0;
#X obj 339 271 cnv 1 286 1 empty empty empty 20 12 0 14 #cac9c7 #404040
0;
#X obj 339 271 cnv 1 1 196 empty empty empty 20 12 0 14 #cac9c7 #404040
0;
#X connect 2 0 1 0;
#X connect 9 0 2 0;
#X coords 0 756 1 755 56 56 0;
