#N canvas 334 34 405 568 10;
#X obj 40 40 cnv 16 16 16 empty \$0-r-background ● 1 7 0 24 #000000
#000000 0;
#X obj 250 295 loadbang;
#X obj 250 452 pack s s;
#X msg 250 473 color \$1 \$1 \$2;
#X obj 250 337 sel 0;
#X obj 40 40 cnv 16 1 1 empty \$0-r-led ● 2 7 0 20 #000000 #808000
0;
#X obj 208 269 makefilename %02x;
#X obj 134 295 makefilename %02x;
#X obj 61 321 makefilename %02x;
#X msg 61 380 symbol #\$1\$2\$3;
#X obj 61 351 pack symbol symbol symbol;
#X obj 115 196 + 128;
#X msg 208 243 0;
#X obj 115 217 t f f b;
#X obj 250 384 t s;
#X obj 61 401 t b s;
#X obj 250 494 s \$0-r-led;
#X msg 250 358 symbol #FFFFFF;
#X obj 270 426 s \$0-r-background;
#X msg 270 405 color \$1 \$1;
#X obj 115 50 inlet;
#X obj 115 113 + 0.5;
#X obj 115 134 i;
#X obj 115 155 clip 0 1;
#X obj 115 176 * 127;
#X obj 125 71 loadbang;
#X msg 125 92 0;
#X obj 75 50 r \$1;
#X obj 250 316 list store \$2;
#X connect 1 0 28 0;
#X connect 2 0 3 0;
#X connect 3 0 16 0;
#X connect 4 0 17 0;
#X connect 4 1 14 0;
#X connect 6 0 10 2;
#X connect 7 0 10 1;
#X connect 8 0 10 0;
#X connect 9 0 15 0;
#X connect 10 0 9 0;
#X connect 11 0 13 0;
#X connect 12 0 6 0;
#X connect 13 0 8 0;
#X connect 13 1 7 0;
#X connect 13 2 12 0;
#X connect 14 0 2 0;
#X connect 14 0 19 0;
#X connect 15 0 2 0;
#X connect 15 1 2 1;
#X connect 17 0 14 0;
#X connect 19 0 18 0;
#X connect 20 0 21 0;
#X connect 21 0 22 0;
#X connect 22 0 23 0;
#X connect 23 0 24 0;
#X connect 24 0 11 0;
#X connect 25 0 26 0;
#X connect 26 0 21 0;
#X connect 27 0 21 0;
#X connect 28 0 4 0;
#X coords 0 -1 1 1 16 16 2 40 40;
