#N canvas 831 438 663 497 10;
#X obj 10 12 vsl 75 70 0 1 0 0 \$0-s-slider \$0-r-slider ● 4 26 0
113 #ffffff #ffffff #000000 0 1;
#X msg 29 435 donecanvasdialog 1 -1 2 0 -1 1 1 \$1 \$1 10 10;
#X obj 29 354 r \$0-size;
#X obj 10 10 cnv 75 1 1 empty \$0-fill ● 9 29 0 98 #ffffff #bbbbbb
0;
#X obj 10 10 cnv 75 1 1 empty \$0-front ● 18 49 0 21 #ffffff #000000
0;
#X obj 10 10 cnv 75 1 1 empty \$0-dot-1 ● 1 67 0 21 #ffffff #000000
0;
#X obj 10 10 cnv 75 1 1 empty \$0-dot-2 ● 63 67 0 21 #ffffff #000000
0;
#N canvas 1087 317 597 493 Front 0;
#X obj 102 218 t f f;
#X obj 291 407 pack f f;
#X obj 102 275 sin;
#X obj 180 276 cos;
#X obj 102 123 r \$0-s-slider;
#X msg 291 428 label_pos \$1 \$2;
#X obj 203 38 r \$0-size;
#X obj 230 275 t f f;
#X obj 291 381 +;
#X obj 369 381 +;
#X msg 449 324 label_font 0 \$1;
#X obj 449 303 i;
#X obj 449 282 + 0.5;
#X obj 324 246 t f f;
#X obj 324 189 t f f;
#X obj 230 143 t f f;
#X obj 324 220 / 2;
#X obj 399 282 / 15;
#X obj 339 282 / 3.5;
#X obj 102 197 + 0.125;
#X obj 102 176 * 0.75;
#X obj 324 345 -;
#X obj 384 345 -;
#X obj 400 236 t f f f;
#X obj 203 122 t b f;
#X obj 102 321 *;
#X obj 180 321 *;
#X obj 168 176 loadbang;
#X msg 168 197 -6.28319;
#X obj 180 254 *;
#X obj 102 254 *;
#X obj 168 218 t f f;
#X msg 230 80 size \$1;
#X obj 203 59 t f f;
#X obj 230 249 / 4;
#X obj 400 215 / 3.6;
#X obj 291 449 s \$0-front;
#X obj 449 345 s \$0-front;
#X obj 230 101 s \$0-front;
#X text 103 11 Front (Dial) ––––––––––;
#X text 303 31 Front (Dial) ––––––––––;
#X text 240 219 // Rotation \; // Size;
#X text 440 215 <- Dial Size;
#X connect 0 0 30 0;
#X connect 0 1 29 0;
#X connect 1 0 5 0;
#X connect 2 0 25 0;
#X connect 3 0 26 0;
#X connect 4 0 20 0;
#X connect 5 0 36 0;
#X connect 6 0 33 0;
#X connect 7 0 25 1;
#X connect 7 1 26 1;
#X connect 8 0 1 0;
#X connect 9 0 1 1;
#X connect 10 0 37 0;
#X connect 11 0 10 0;
#X connect 12 0 11 0;
#X connect 13 0 21 0;
#X connect 13 1 22 0;
#X connect 14 0 16 0;
#X connect 14 1 35 0;
#X connect 15 0 34 0;
#X connect 15 1 14 0;
#X connect 16 0 13 0;
#X connect 17 0 22 1;
#X connect 18 0 21 1;
#X connect 19 0 0 0;
#X connect 20 0 19 0;
#X connect 21 0 8 1;
#X connect 22 0 9 1;
#X connect 23 0 18 0;
#X connect 23 1 17 0;
#X connect 23 2 12 0;
#X connect 24 0 20 0;
#X connect 24 1 15 0;
#X connect 25 0 8 0;
#X connect 26 0 9 0;
#X connect 27 0 28 0;
#X connect 28 0 31 0;
#X connect 29 0 3 0;
#X connect 30 0 2 0;
#X connect 31 0 30 1;
#X connect 31 1 29 1;
#X connect 32 0 38 0;
#X connect 33 0 24 0;
#X connect 33 1 32 0;
#X connect 34 0 7 0;
#X connect 35 0 23 0;
#X restore 148 319 pd Front;
#N canvas 1136 625 541 356 Dots 0;
#X obj 12 265 pack f f;
#X msg 12 286 label_pos \$1 \$2;
#X msg 137 197 label_font 0 \$1;
#X obj 137 176 i;
#X obj 137 155 + 0.5;
#X obj 12 114 t f f;
#X obj 12 176 -;
#X obj 72 176 -;
#X obj 87 109 t f f f;
#X obj 68 31 r \$0-size;
#X msg 187 68 size \$1;
#X obj 12 88 / 2;
#X obj 12 197 + 0.5;
#X obj 12 218 i;
#X obj 72 197 + 0.5;
#X obj 72 218 i;
#X obj 12 239 max 1;
#X obj 187 88 s \$0-dot-1;
#X obj 137 218 s \$0-dot-1;
#X obj 12 307 s \$0-dot-1;
#X obj 27 150 * 2;
#X obj 87 88 / 3.6;
#X obj 87 150 * -1.4;
#X obj 68 52 t f f f;
#X obj 262 265 pack f f;
#X msg 262 286 label_pos \$1 \$2;
#X msg 387 197 label_font 0 \$1;
#X obj 387 176 i;
#X obj 387 155 + 0.5;
#X obj 262 114 t f f;
#X obj 262 176 -;
#X obj 322 176 -;
#X obj 337 109 t f f f;
#X obj 318 31 r \$0-size;
#X msg 437 68 size \$1;
#X obj 262 88 / 2;
#X obj 262 197 + 0.5;
#X obj 262 218 i;
#X obj 322 197 + 0.5;
#X obj 322 218 i;
#X obj 262 239 max 1;
#X obj 337 88 / 3.6;
#X obj 337 150 * -1.4;
#X obj 318 52 t f f f;
#X obj 277 150 * -1.2;
#X obj 262 307 s \$0-dot-2;
#X obj 387 218 s \$0-dot-2;
#X obj 437 88 s \$0-dot-2;
#X text 68 11 Dot 1 ––––––––––;
#X text 318 11 Dot 2 ––––––––––;
#X text 377 88 <- Size;
#X text 127 88 <- Size;
#X connect 0 0 1 0;
#X connect 1 0 19 0;
#X connect 2 0 18 0;
#X connect 3 0 2 0;
#X connect 4 0 3 0;
#X connect 5 0 6 0;
#X connect 5 1 7 0;
#X connect 6 0 12 0;
#X connect 7 0 14 0;
#X connect 8 0 20 0;
#X connect 8 1 22 0;
#X connect 8 2 4 0;
#X connect 9 0 23 0;
#X connect 10 0 17 0;
#X connect 11 0 5 0;
#X connect 12 0 13 0;
#X connect 13 0 16 0;
#X connect 14 0 15 0;
#X connect 15 0 0 1;
#X connect 16 0 0 0;
#X connect 20 0 6 1;
#X connect 21 0 8 0;
#X connect 22 0 7 1;
#X connect 23 0 11 0;
#X connect 23 1 21 0;
#X connect 23 2 10 0;
#X connect 24 0 25 0;
#X connect 25 0 45 0;
#X connect 26 0 46 0;
#X connect 27 0 26 0;
#X connect 28 0 27 0;
#X connect 29 0 30 0;
#X connect 29 1 31 0;
#X connect 30 0 36 0;
#X connect 31 0 38 0;
#X connect 32 0 44 0;
#X connect 32 1 42 0;
#X connect 32 2 28 0;
#X connect 33 0 43 0;
#X connect 34 0 47 0;
#X connect 35 0 29 0;
#X connect 36 0 37 0;
#X connect 37 0 40 0;
#X connect 38 0 39 0;
#X connect 39 0 24 1;
#X connect 40 0 24 0;
#X connect 41 0 32 0;
#X connect 42 0 31 1;
#X connect 43 0 35 0;
#X connect 43 1 41 0;
#X connect 43 2 34 0;
#X connect 44 0 30 1;
#X restore 148 339 pd Dots;
#N canvas 1163 599 713 356 Fill-&-Line 0;
#X obj 12 275 pack f f;
#X msg 12 296 label_pos \$1 \$2;
#X msg 176 187 label_font 0 \$1;
#X obj 176 166 i;
#X obj 176 145 + 0.5;
#X obj 12 84 t f f;
#X obj 12 186 -;
#X obj 72 186 -;
#X obj 127 109 t f f f;
#X obj 108 31 r \$0-size;
#X msg 227 68 size \$1;
#X obj 12 207 + 0.5;
#X obj 12 228 i;
#X obj 72 207 + 0.5;
#X obj 72 228 i;
#X obj 12 249 max 1;
#X obj 108 52 t f f f;
#X obj 227 88 s \$0-fill;
#X obj 127 88 * 1.3;
#X obj 127 150 / 12;
#X obj 12 135 / 2;
#X obj 27 160 / 3.33;
#X obj 176 208 s \$0-fill;
#X obj 12 317 s \$0-fill;
#X obj 72 126 / 2;
#X obj 302 275 pack f f;
#X msg 302 296 label_pos \$1 \$2;
#X msg 466 187 label_font 0 \$1;
#X obj 466 166 i;
#X obj 466 145 + 0.5;
#X obj 302 84 t f f;
#X obj 302 186 -;
#X obj 362 186 -;
#X obj 417 109 t f f f;
#X obj 398 31 r \$0-size;
#X obj 302 207 + 0.5;
#X obj 302 228 i;
#X obj 362 207 + 0.5;
#X obj 362 228 i;
#X obj 302 249 max 1;
#X obj 398 52 t f f f;
#X obj 417 150 / 12;
#X obj 302 135 / 2;
#X obj 317 160 / 3.33;
#X obj 362 126 / 2;
#X obj 417 88 * 1.5;
#X obj 517 152 s \$0-r-slider;
#X obj 517 68 t f f;
#X obj 562 89 - 5;
#X obj 517 110 pack f f;
#X msg 517 131 size \$1 \$2;
#X text 108 11 Fill ––––––––––;
#X obj 466 208 s \$0-r-slider;
#X obj 302 317 s \$0-r-slider;
#X text 398 11 Line (Slider) ––––––––––;
#X text 165 86 <- Size;
#X text 452 88 <- Size;
#X obj 72 105 - 1;
#X obj 302 105 + 1;
#X obj 12 105 + 1;
#X obj 362 105 - 5;
#X connect 0 0 1 0;
#X connect 1 0 23 0;
#X connect 2 0 22 0;
#X connect 3 0 2 0;
#X connect 4 0 3 0;
#X connect 5 0 59 0;
#X connect 5 1 57 0;
#X connect 6 0 11 0;
#X connect 7 0 13 0;
#X connect 8 0 21 0;
#X connect 8 1 19 0;
#X connect 8 2 4 0;
#X connect 9 0 16 0;
#X connect 10 0 17 0;
#X connect 11 0 12 0;
#X connect 12 0 15 0;
#X connect 13 0 14 0;
#X connect 14 0 0 1;
#X connect 15 0 0 0;
#X connect 16 0 5 0;
#X connect 16 1 18 0;
#X connect 16 2 10 0;
#X connect 18 0 8 0;
#X connect 19 0 7 1;
#X connect 20 0 6 0;
#X connect 21 0 6 1;
#X connect 24 0 7 0;
#X connect 25 0 26 0;
#X connect 26 0 53 0;
#X connect 27 0 52 0;
#X connect 28 0 27 0;
#X connect 29 0 28 0;
#X connect 30 0 58 0;
#X connect 30 1 60 0;
#X connect 31 0 35 0;
#X connect 32 0 37 0;
#X connect 33 0 43 0;
#X connect 33 1 41 0;
#X connect 33 2 29 0;
#X connect 34 0 40 0;
#X connect 35 0 36 0;
#X connect 36 0 39 0;
#X connect 37 0 38 0;
#X connect 38 0 25 1;
#X connect 39 0 25 0;
#X connect 40 0 30 0;
#X connect 40 1 45 0;
#X connect 40 2 47 0;
#X connect 41 0 32 1;
#X connect 42 0 31 0;
#X connect 43 0 31 1;
#X connect 44 0 32 0;
#X connect 45 0 33 0;
#X connect 47 0 49 0;
#X connect 47 1 48 0;
#X connect 48 0 49 1;
#X connect 49 0 50 0;
#X connect 50 0 46 0;
#X connect 57 0 24 0;
#X connect 58 0 42 0;
#X connect 59 0 20 0;
#X connect 60 0 44 0;
#X restore 148 359 pd Fill-&-Line;
#X obj 366 24 loadbang;
#X obj 182 195 pack s s;
#X msg 182 216 color \$1 \$1 \$2;
#X obj 182 237 s \$0-r-slider;
#X obj 282 195 pack s s;
#X msg 282 216 color \$1 \$1 \$2;
#X obj 382 195 pack s s;
#X msg 382 216 color \$1 \$1 \$2;
#X obj 482 195 pack s s;
#X msg 482 216 color \$1 \$1 \$2;
#X obj 366 45 t b b b b;
#X obj 183 102 sel 0;
#X obj 290 103 sel 0;
#X obj 400 102 sel 0;
#X obj 500 101 sel 0;
#X obj 183 149 t s s s s;
#X obj 300 148 t s s;
#X msg 290 124 symbol #000000;
#X msg 183 123 symbol #FFFFFF;
#X msg 500 122 symbol #000000;
#X obj 400 81 list store \$3;
#X obj 500 80 list store \$4;
#X obj 183 81 list store \$5;
#X obj 290 82 list store \$6;
#X text 183 41 5) background;
#X text 290 42 6) outline;
#X text 382 257 3) fill;
#X text 482 257 4) front;
#X msg 400 123 symbol #BBBBBB;
#X obj 282 237 s \$0-dot-1;
#X obj 302 257 s \$0-dot-2;
#X obj 382 237 s \$0-fill;
#X obj 482 237 s \$0-front;
#X obj 63 246 loadbang;
#X obj 63 288 s \$0-size;
#X obj 29 455 send pd-resize-knob.pd;
#X msg 63 267 75;
#X connect 1 0 45 0;
#X connect 2 0 1 0;
#X connect 10 0 20 0;
#X connect 11 0 12 0;
#X connect 12 0 13 0;
#X connect 14 0 15 0;
#X connect 15 0 39 0;
#X connect 15 0 40 0;
#X connect 16 0 17 0;
#X connect 17 0 41 0;
#X connect 18 0 19 0;
#X connect 19 0 42 0;
#X connect 20 0 32 0;
#X connect 20 1 33 0;
#X connect 20 2 30 0;
#X connect 20 3 31 0;
#X connect 21 0 28 0;
#X connect 21 1 25 0;
#X connect 22 0 27 0;
#X connect 22 1 26 0;
#X connect 23 0 38 0;
#X connect 23 1 16 1;
#X connect 24 0 29 0;
#X connect 24 1 18 1;
#X connect 25 0 11 0;
#X connect 25 1 14 0;
#X connect 25 2 16 0;
#X connect 25 3 18 0;
#X connect 26 0 11 1;
#X connect 26 1 14 1;
#X connect 27 0 26 0;
#X connect 28 0 25 0;
#X connect 29 0 18 1;
#X connect 30 0 23 0;
#X connect 31 0 24 0;
#X connect 32 0 21 0;
#X connect 33 0 22 0;
#X connect 38 0 16 1;
#X connect 43 0 46 0;
#X connect 46 0 44 0;
#X coords 0 -1 1 1 75 75 2 10 10;
