#N canvas 334 34 405 568 10;
#X obj 43 40 hsl 128 20 0 127 0 0 \$0-s-slider \$0-r-slider empty -2
-8 0 10 #404040 #c0ff3e #000000 0 1;
#X obj 43 43 cnv 1 92 14 \$0-s-canvas \$0-r-canvas empty 20 12 0 14
#c0ff3e #404040 0;
#X obj 137 308 r \$0-s-slider;
#X obj 137 350 s \$0-r-canvas;
#X obj 135 144 savestate;
#X obj 214 144 r \$0-s-slider;
#X obj 199 167 f;
#X obj 81 167 loadbang;
#X obj 81 188 f;
#X obj 81 209 s \$0-r-slider;
#X msg 137 329 vis_size \$1 14;
#X obj 40 65 outlet;
#X connect 0 0 11 0;
#X connect 2 0 10 0;
#X connect 4 0 8 1;
#X connect 4 1 6 0;
#X connect 5 0 6 1;
#X connect 6 0 4 0;
#X connect 7 0 8 0;
#X connect 8 0 9 0;
#X connect 10 0 3 0;
#X coords 0 -1 1 1 133 20 2 40 40;
