#N canvas 334 34 405 568 10;
#X obj 135 144 savestate;
#X obj 199 167 f;
#X obj 81 167 loadbang;
#X obj 81 188 f;
#X obj 50 385 sel 0 1;
#X msg 50 419 #c0ff3e;
#X msg 120 419 #404040;
#X obj 50 453 symbol;
#X msg 50 477 color \$1 \$1;
#X obj 40 65 outlet;
#X obj 214 144 r \$0-s-toggle;
#X obj 81 209 s \$0-r-toggle;
#X obj 40 40 tgl 20 0 \$0-s-toggle \$0-r-toggle empty 17 7 0 10 #c0ff3e
#c0ff3e #000000 0 1;
#X obj 50 361 r \$0-s-toggle;
#X obj 50 501 s \$0-r-toggle;
#X connect 0 0 3 1;
#X connect 0 1 1 0;
#X connect 1 0 0 0;
#X connect 2 0 3 0;
#X connect 3 0 11 0;
#X connect 4 0 5 0;
#X connect 4 1 6 0;
#X connect 5 0 7 0;
#X connect 6 0 7 0;
#X connect 7 0 8 0;
#X connect 8 0 14 0;
#X connect 10 0 1 1;
#X connect 12 0 9 0;
#X connect 13 0 4 0;
#X coords 0 -1 1 1 20 20 2 40 40;
