#N canvas 540 347 508 318 10;
#X obj 12 31 inlet~;
#X obj 12 103 *~;
#X obj 12 248 -~;
#X obj 12 274 outlet~;
#X obj 212 155 *~;
#X obj 212 176 clip~ -1 1;
#X obj 317 212 *~;
#X obj 332 31 inlet~;
#X obj 72 67 +~ 1;
#X obj 227 108 sig~ 1;
#X obj 227 129 /~;
#X text 12 11 Inlet 1: Input;
#X text 12 294 Outlet 1: Output;
#X obj 122 129 +~;
#X obj 137 31 inlet~;
#X text 332 11 Inlet 3: Exponential factor;
#X text 137 11 Inlet 2: Offset;
#X connect 0 0 1 0;
#X connect 1 0 2 0;
#X connect 1 0 13 0;
#X connect 2 0 3 0;
#X connect 4 0 5 0;
#X connect 5 0 6 0;
#X connect 6 0 2 1;
#X connect 7 0 8 0;
#X connect 7 0 10 1;
#X connect 7 0 6 1;
#X connect 8 0 1 1;
#X connect 9 0 10 0;
#X connect 10 0 4 1;
#X connect 13 0 4 0;
#X connect 14 0 13 1;
