#N canvas 173 504 322 243 10;
#X obj 87 153 -~;
#X obj 12 169 -~;
#X obj 12 195 outlet~;
#X obj 67 31 inlet~;
#X obj 102 117 clip~ \$1 \$2;
#X text 67 11 Inlet 1: Input;
#X text 133 31 Inlet 2: Lower Limit;
#X text 165 71 Inlet 3: Upper Limit;
#X obj 133 51 inlet;
#X obj 165 91 inlet;
#X text 12 215 Outlet 1: Output;
#X connect 0 0 1 1;
#X connect 1 0 2 0;
#X connect 3 0 0 0;
#X connect 3 0 4 0;
#X connect 4 0 0 1;
#X connect 4 0 1 0;
#X connect 8 0 4 1;
#X connect 9 0 4 2;
