#N canvas 173 504 393 361 10;
#X obj 99 160 wrap~;
#X obj 99 113 +~ 1;
#X obj 99 134 /~ 4;
#X obj 99 238 *~ 4;
#X obj 99 259 -~ 1;
#X obj 114 25 inlet~;
#X text 139 123 <- Scale;
#X obj 12 25 inlet~;
#X obj 99 285 outlet~;
#X text 139 248 <- Normalize;
#X obj 99 181 -~ 0.5;
#X obj 99 202 abs~;
#X obj 12 61 *~;
#X obj 99 87 +~;
#X obj 214 25 inlet~;
#X text 12 6 Inlet 1: Input;
#X text 149 160 | \; | \; | <- Triangle Waveshaper \; | \; | \;;
#X text 99 305 Outlet 1: Output;
#X text 114 5 Inlet 2: Offset;
#X text 214 5 Inlet 3: Folds;
#X connect 0 0 10 0;
#X connect 1 0 2 0;
#X connect 2 0 0 0;
#X connect 3 0 4 0;
#X connect 4 0 8 0;
#X connect 5 0 13 1;
#X connect 7 0 12 0;
#X connect 10 0 11 0;
#X connect 11 0 3 0;
#X connect 12 0 13 0;
#X connect 13 0 1 0;
#X connect 14 0 12 1;
