#N canvas 652 192 516 637 10;
#X obj 11 11 cnv 5 5 24 empty empty Linear\ wavefolder 12 12 0 16 #000000
#000000 0;
#N canvas 694 330 450 220 oscilloscope 0;
#N canvas 0 22 450 278 (subpatch) 0;
#X array \$0-scope 256 float 0;
#X coords 0 1 255 -1 100 70 1 0 0;
#X restore 20 45 graph;
#X obj 150 112 tabwrite~ \$0-scope;
#X obj 150 20 inlet~;
#X obj 210 20 loadbang;
#X msg 210 41 1;
#X obj 210 62 metro 200;
#X connect 2 0 1 0;
#X connect 3 0 4 0;
#X connect 4 0 5 0;
#X connect 5 0 1 0;
#X coords 0 -1 1 1 120 115 1 10 10;
#X restore 180 272 pd oscilloscope;
#X obj 57 291 hsl 101 16 0 1 0 0 empty empty VOLUME -2 -6 0 12 #00fc04
#000000 #000000 0 1;
#X obj 54 333 pack f 20;
#X obj 54 354 line~;
#X obj 39 375 *~;
#X obj 39 401 dac~ 1 2;
#X obj 54 312 pow 4;
#X obj 123 188 hsl 101 16 1 10 1 1 empty empty FOLDS -2 -6 0 12 #00faff
#202020 #000000 0 1;
#X obj 120 230 line~;
#X floatatom 182 204 7 0 0 0 - - - 0;
#X msg 120 209 \$1 20;
#X obj 11 431 cnv 5 490 5 empty empty INLETS: 8 18 0 13 #202020 #000000
0;
#X obj 11 591 cnv 5 490 5 empty empty empty 8 18 0 13 #202020 #000000
0;
#X obj 11 517 cnv 2 490 2 empty empty OUTLETS: 8 12 0 13 #202020 #000000
0;
#X text 107 451 1) signal - signal input;
#X obj 11 557 cnv 2 490 2 empty empty ARGUMENTS: 8 12 0 13 #202020
#000000 0;
#X text 107 571 (none);
#N canvas 911 534 387 160 reference 0;
#X restore 17 605 pd reference;
#X text 107 531 1) signal - folded signal;
#X obj 39 256 ws.wavefolder~;
#X text 29 42 [os.wavefolder~] is a wave shaping distortion that "folds"
or inverts the signal back onto itself.;
#X obj 82 120 hsl 101 16 -1 1 0 1 empty empty OFFSET -2 -6 0 12 #00faff
#202020 #000000 5000 1;
#X obj 79 162 line~;
#X floatatom 141 136 7 0 0 0 - - - 0;
#X msg 79 141 \$1 20;
#X obj 39 81 osc~ 220;
#X text 107 491 3) float/signal - amounts of folds (from 1 to n);
#X text 107 470 2) float/signal - offset (from -1 to 1);
#X connect 2 0 7 0;
#X connect 3 0 4 0;
#X connect 4 0 5 1;
#X connect 5 0 6 0;
#X connect 5 0 6 1;
#X connect 7 0 3 0;
#X connect 8 0 10 0;
#X connect 8 0 11 0;
#X connect 9 0 20 2;
#X connect 11 0 9 0;
#X connect 20 0 5 0;
#X connect 20 0 1 0;
#X connect 22 0 24 0;
#X connect 22 0 25 0;
#X connect 23 0 20 1;
#X connect 25 0 23 0;
#X connect 26 0 20 0;
