#N canvas 456 23 696 444 10;
#X obj 12 237 phasor~;
#X obj 12 276 cos~;
#X obj 12 254 *~ 4;
#X obj 72 254 *~ 11;
#X obj 72 276 cos~;
#X obj 202 276 cos~;
#X obj 202 254 *~ 20;
#X obj 262 276 cos~;
#X obj 262 254 *~ 21;
#X obj 302 276 cos~;
#X obj 302 254 *~ 36;
#X obj 12 342 *~;
#X obj 72 342 *~;
#X obj 262 342 *~;
#X obj 474 342 +~ 0.5;
#X obj 12 359 *~;
#X msg 519 281 0;
#X obj 72 298 *~ 0.7;
#X obj 202 342 *~;
#X obj 132 276 cos~;
#X obj 132 254 *~ 16;
#X obj 132 342 *~;
#X obj 262 298 /~ 20;
#X obj 302 298 /~ 32;
#X obj 474 298 osc~;
#X obj 342 276 cos~;
#X obj 342 342 *~;
#X obj 342 254 *~ 96;
#X obj 381 259 /~ 10;
#X obj 27 320 pow~ 1;
#X obj 609 34 - 1;
#X obj 609 56 / 126;
#X msg 609 78 1 \$1;
#X obj 609 100 -;
#X obj 87 320 pow~ 2;
#X obj 609 298 dbtorms;
#X obj 147 320 pow~ 32;
#X obj 132 298 /~ 4;
#X obj 217 320 pow~ 4;
#X obj 202 298 /~ 8;
#X obj 342 298 /~ 20;
#X obj 277 320 pow~ 10;
#X obj 357 320 pow~ 20;
#X obj 474 320 /~ 16;
#X obj 12 403 outlet~;
#N canvas 4 23 507 447 env 0;
#X obj 163 73 unpack f f f;
#X obj 88 386 outlet~;
#X obj 163 259 -~;
#X obj 195 242 sig~ 1;
#X obj 195 264 -~;
#X obj 245 225 *~;
#X obj 163 281 *~;
#X obj 148 325 +~;
#X obj 163 303 /~;
#X obj 280 242 sig~ 1;
#X obj 280 264 -~;
#X obj 280 286 +~;
#X obj 88 198 sig~ 1;
#X obj 88 220 -~;
#X obj 88 242 *~;
#X obj 88 264 +~;
#X obj 131 247 *~;
#N canvas 0 22 234 183 <=~ 0;
#X obj 150 34 inlet~;
#X obj 45 34 inlet~;
#X obj 45 129 outlet~;
#N canvas 467 216 450 300 @hv_obj 0;
#X obj 217 60 inlet~;
#X obj 120 60 inlet~;
#X obj 170 183 outlet~;
#X connect 1 0 2 0;
#X restore 45 105 pd @hv_obj __and~f;
#X obj 150 83 sig~ 1;
#N canvas 715 101 191 233 @hv_obj 0;
#X obj 49 83 -~;
#X obj 50 109 clip~ -1e-37 0;
#X obj 49 32 inlet~;
#X obj 93 33 inlet~;
#X obj 50 174 outlet~;
#X obj 50 151 *~ 1e+37;
#X obj 49 58 min~;
#X obj 50 130 +~ 1e-37;
#X connect 0 0 1 0;
#X connect 1 0 7 0;
#X connect 2 0 6 0;
#X connect 2 0 0 1;
#X connect 3 0 6 1;
#X connect 5 0 4 0;
#X connect 6 0 0 0;
#X connect 7 0 5 0;
#X restore 45 57 pd @hv_obj __lte~f;
#X connect 0 0 5 1;
#X connect 1 0 5 0;
#X connect 3 0 2 0;
#X connect 4 0 3 1;
#X connect 5 0 3 0;
#X restore 363 247 pd <=~;
#N canvas 0 22 255 189 >=~ 0;
#X obj 150 34 inlet~;
#X obj 45 34 inlet~;
#X obj 45 129 outlet~;
#N canvas 467 216 290 220 @hv_obj 0;
#X obj 158 52 inlet~;
#X obj 61 52 inlet~;
#X obj 61 136 outlet~;
#X obj 61 100 *~;
#X connect 0 0 3 1;
#X connect 1 0 3 0;
#X connect 3 0 2 0;
#X restore 45 105 pd @hv_obj __and~f;
#X obj 150 83 sig~ 1;
#N canvas 249 541 148 189 @hv_obj 0;
#X obj 23 69 -~;
#X obj 23 94 clip~ -1e-37 0;
#X obj 23 18 inlet~;
#X obj 67 19 inlet~;
#X obj 23 159 outlet~;
#X obj 23 136 *~ 1e+37;
#X obj 23 44 min~;
#X obj 23 115 +~ 1e-37;
#X connect 0 0 1 0;
#X connect 1 0 7 0;
#X connect 2 0 6 0;
#X connect 3 0 6 1;
#X connect 3 0 0 1;
#X connect 5 0 4 0;
#X connect 6 0 0 0;
#X connect 7 0 5 0;
#X restore 45 57 pd @hv_obj __gte~f;
#X connect 0 0 5 1;
#X connect 1 0 5 0;
#X connect 3 0 2 0;
#X connect 4 0 3 1;
#X connect 5 0 3 0;
#X restore 413 252 pd >=~;
#X obj 446 230 sig~ 0;
#X obj 363 269 *~;
#X obj 348 308 sig~ 1;
#X obj 348 330 -~;
#X obj 88 286 *~;
#X obj 148 347 *~;
#X obj 88 364 +~;
#X obj 163 156 line~;
#X obj 103 161 line~;
#X obj 12 12 inlet list;
#N canvas 349 167 179 187 hv.vline 0;
#X obj 12 34 t a b;
#X msg 75 56 0;
#N canvas 274 138 292 165 dbl-pipe 0;
#X obj 22 22 inlet;
#X obj 82 22 inlet;
#X obj 182 22 inlet;
#X obj 22 64 pipe 0;
#X obj 82 64 pipe 0;
#X obj 22 86 outlet;
#X obj 82 86 outlet;
#X obj 132 64 pipe 0;
#X obj 132 86 outlet;
#X obj 132 22 inlet;
#X connect 0 0 3 0;
#X connect 0 0 4 0;
#X connect 1 0 4 0;
#X connect 2 0 3 1;
#X connect 2 0 4 1;
#X connect 2 0 7 1;
#X connect 3 0 5 0;
#X connect 4 0 6 0;
#X connect 7 0 8 0;
#X connect 9 0 7 0;
#X restore 12 100 pd dbl-pipe;
#X obj 12 78 unpack f f f f;
#X obj 12 122 pack f f f;
#X obj 12 12 inlet;
#X obj 12 144 outlet;
#X connect 0 0 3 0;
#X connect 0 1 1 0;
#X connect 1 0 2 3;
#X connect 2 0 4 0;
#X connect 2 1 4 1;
#X connect 2 2 4 2;
#X connect 3 0 2 0;
#X connect 3 1 2 1;
#X connect 3 2 2 2;
#X connect 3 3 2 3;
#X connect 4 0 6 0;
#X connect 5 0 0 0;
#X restore 12 34 pd hv.vline;
#X obj 12 56 t a b a;
#X obj 325 90 sig~;
#X msg 103 139 0 \, 1 \$1;
#X obj 178 225 samphold~;
#X obj 12 78 unpack f f f;
#X msg 229 110 -1 \, 0 1;
#X obj 229 132 line~;
#X obj 245 247 exp~;
#X obj 325 247 exp~;
#X obj 325 68 inlet curve;
#X obj 144 381 s~ \$0-env-mct;
#X obj 178 203 r~ \$0-env-mct;
#X connect 0 0 26 0;
#X connect 0 2 31 0;
#X connect 2 0 6 0;
#X connect 3 0 4 0;
#X connect 4 0 6 1;
#X connect 5 0 37 0;
#X connect 6 0 8 0;
#X connect 7 0 24 0;
#X connect 8 0 7 1;
#X connect 9 0 10 0;
#X connect 10 0 11 0;
#X connect 11 0 8 1;
#X connect 12 0 13 0;
#X connect 13 0 14 0;
#X connect 14 0 15 0;
#X connect 15 0 23 0;
#X connect 16 0 15 1;
#X connect 17 0 20 0;
#X connect 18 0 20 1;
#X connect 19 0 17 1;
#X connect 19 0 18 1;
#X connect 20 0 11 1;
#X connect 20 0 22 1;
#X connect 20 0 23 1;
#X connect 21 0 22 0;
#X connect 22 0 24 1;
#X connect 23 0 25 0;
#X connect 24 0 25 1;
#X connect 25 0 1 0;
#X connect 25 0 40 0;
#X connect 26 0 2 0;
#X connect 26 0 16 1;
#X connect 27 0 5 0;
#X connect 27 0 13 1;
#X connect 27 0 16 0;
#X connect 28 0 29 0;
#X connect 29 0 30 0;
#X connect 30 0 34 0;
#X connect 30 1 35 0;
#X connect 30 2 0 0;
#X connect 31 0 5 1;
#X connect 31 0 18 0;
#X connect 31 0 17 0;
#X connect 31 0 38 0;
#X connect 32 0 27 0;
#X connect 33 0 2 1;
#X connect 33 0 7 0;
#X connect 33 0 14 1;
#X connect 34 1 32 0;
#X connect 35 0 36 0;
#X connect 36 0 33 1;
#X connect 37 0 4 1;
#X connect 38 0 10 1;
#X connect 39 0 31 0;
#X connect 41 0 33 0;
#X restore 425 281 pd env;
#X obj 12 215 /~ 4;
#X obj 474 209 *~ 4;
#X obj 474 231 /~ 975;
#X obj 609 12 r \$0-vel-mct;
#X obj 160 90 clip 0 127;
#X obj 160 112 sel 0;
#X obj 187 134 t b f;
#X obj 187 178 s \$0-trg-mct;
#X obj 214 156 s \$0-vel-mct;
#X obj 425 95 r \$0-trg-mct;
#X obj 425 303 *~ 1;
#X obj 470 139 - 6;
#X obj 91 176 r \$0-trg-mct;
#X obj 470 117 * -32;
#X obj 91 198 del 3;
#X obj 425 161 pack f f;
#X obj 12 381 *~;
#X msg 609 342 \$1 1;
#X obj 609 320 pipe 2;
#X obj 609 364 line~;
#X msg 91 220 0;
#X msg 425 182 0 1 0 \, 1 1 -12 3 \, 0 5000 \$2 6;
#X obj 12 192 inlet~ freq;
#X obj 160 68 inlet velocity;
#X obj 609 276 + 97;
#X obj 519 237 r \$0-trg-mct;
#X obj 519 259 del 3;
#X obj 609 254 * -18;
#X connect 0 0 2 0;
#X connect 0 0 3 0;
#X connect 0 0 6 0;
#X connect 0 0 8 0;
#X connect 0 0 10 0;
#X connect 0 0 20 0;
#X connect 0 0 27 0;
#X connect 1 0 11 0;
#X connect 2 0 1 0;
#X connect 3 0 4 0;
#X connect 4 0 17 0;
#X connect 5 0 39 0;
#X connect 6 0 5 0;
#X connect 7 0 22 0;
#X connect 8 0 7 0;
#X connect 9 0 23 0;
#X connect 9 0 28 0;
#X connect 10 0 9 0;
#X connect 11 0 15 0;
#X connect 12 0 15 0;
#X connect 13 0 15 0;
#X connect 14 0 15 1;
#X connect 15 0 62 0;
#X connect 16 0 24 1;
#X connect 17 0 12 0;
#X connect 18 0 15 0;
#X connect 19 0 37 0;
#X connect 20 0 19 0;
#X connect 21 0 15 0;
#X connect 22 0 13 0;
#X connect 23 0 13 0;
#X connect 24 0 43 0;
#X connect 25 0 40 0;
#X connect 26 0 15 0;
#X connect 27 0 25 0;
#X connect 28 0 25 0;
#X connect 29 0 11 1;
#X connect 30 0 31 0;
#X connect 31 0 32 0;
#X connect 32 0 33 0;
#X connect 33 0 59 0;
#X connect 33 0 73 0;
#X connect 34 0 12 1;
#X connect 35 0 64 0;
#X connect 36 0 21 1;
#X connect 37 0 21 0;
#X connect 38 0 18 1;
#X connect 39 0 18 0;
#X connect 40 0 26 0;
#X connect 41 0 13 1;
#X connect 42 0 26 1;
#X connect 43 0 14 0;
#X connect 45 0 56 0;
#X connect 46 0 0 0;
#X connect 47 0 48 0;
#X connect 48 0 24 0;
#X connect 49 0 30 0;
#X connect 50 0 51 0;
#X connect 51 1 52 0;
#X connect 52 0 53 0;
#X connect 52 1 54 0;
#X connect 55 0 61 0;
#X connect 56 0 29 0;
#X connect 56 0 34 0;
#X connect 56 0 36 0;
#X connect 56 0 38 0;
#X connect 56 0 41 0;
#X connect 56 0 42 0;
#X connect 57 0 61 1;
#X connect 58 0 60 0;
#X connect 59 0 57 0;
#X connect 60 0 66 0;
#X connect 61 0 67 0;
#X connect 62 0 44 0;
#X connect 63 0 65 0;
#X connect 64 0 63 0;
#X connect 65 0 62 1;
#X connect 66 0 0 1;
#X connect 67 0 45 0;
#X connect 68 0 46 0;
#X connect 68 0 47 0;
#X connect 69 0 50 0;
#X connect 70 0 35 0;
#X connect 71 0 72 0;
#X connect 72 0 16 0;
#X connect 73 0 70 0;
