#N canvas 0 23 834 789 10;
#X msg 224 209 1000 \$1;
#X obj 224 230 /;
#X obj 310 203 noise~;
#X obj 310 320 *~;
#X obj 461 345 vd~ \$0-del;
#X obj 486 581 delwrite~ \$0-del 100;
#X obj 461 303 sig~ 1000;
#X obj 461 324 /~;
#X msg 224 251 0 \, 1 \$1;
#X obj 224 272 vline~;
#X obj 224 293 -~ 0.25;
#X obj 224 314 cos~;
#N canvas 1164 679 371 206 allpass100ms 0;
#X obj 12 31 inlet~;
#X obj 12 92 +~;
#X obj 27 70 *~;
#X obj 202 53 inlet;
#X obj 202 75 * -1;
#X obj 187 109 *~;
#X obj 172 131 +~;
#X obj 172 153 outlet~;
#X text 12 173 0 - 100 mSec allpass;
#X text 202 33 gain;
#X text 102 11 time;
#X text 12 11 sound;
#X obj 12 153 delwrite~ \$0-short-4 100;
#X obj 102 53 vd~ \$0-short-4;
#X obj 248 118 inlet;
#X msg 248 139 clear;
#X obj 102 31 inlet~;
#X connect 0 0 1 0;
#X connect 1 0 5 0;
#X connect 1 0 12 0;
#X connect 2 0 1 1;
#X connect 3 0 2 1;
#X connect 3 0 4 0;
#X connect 4 0 5 1;
#X connect 5 0 6 1;
#X connect 6 0 7 0;
#X connect 13 0 2 0;
#X connect 13 0 6 0;
#X connect 14 0 15 0;
#X connect 15 0 12 0;
#X connect 16 0 13 0;
#X restore 224 525 pd allpass100ms;
#X obj 224 422 +~;
#X obj 224 389 *~;
#X msg 390 291 1 \$1;
#X obj 390 312 -;
#X obj 390 354 + 100;
#X obj 390 375 dbtorms;
#X obj 375 724 *~;
#X obj 375 682 hip~ 100;
#X obj 405 656 pow~ 50;
#N canvas 4 23 162 227 hv.tanh 0;
#X obj 12 12 inlet~;
#X obj 12 38 clip~ -3 3;
#X obj 27 64 *~;
#X obj 12 192 outlet~;
#X obj 27 140 /~;
#X obj 12 166 *~;
#X obj 67 90 *~ 9;
#X obj 27 90 +~ 27;
#X obj 67 116 +~ 27;
#X connect 0 0 1 0;
#X connect 1 0 2 0;
#X connect 1 0 2 1;
#X connect 1 0 5 0;
#X connect 2 0 7 0;
#X connect 2 0 6 0;
#X connect 4 0 5 1;
#X connect 5 0 3 0;
#X connect 6 0 8 0;
#X connect 7 0 4 0;
#X connect 8 0 4 1;
#X restore 224 612 pd hv.tanh;
#N canvas 4 23 162 227 hv.tanh 0;
#X obj 12 12 inlet~;
#X obj 12 38 clip~ -3 3;
#X obj 27 64 *~;
#X obj 12 192 outlet~;
#X obj 27 140 /~;
#X obj 12 166 *~;
#X obj 67 90 *~ 9;
#X obj 27 90 +~ 27;
#X obj 67 116 +~ 27;
#X connect 0 0 1 0;
#X connect 1 0 2 0;
#X connect 1 0 2 1;
#X connect 1 0 5 0;
#X connect 2 0 7 0;
#X connect 2 0 6 0;
#X connect 4 0 5 1;
#X connect 5 0 3 0;
#X connect 6 0 8 0;
#X connect 7 0 4 0;
#X connect 8 0 4 1;
#X restore 461 408 pd hv.tanh;
#X obj 224 356 +~;
#X obj 670 284 vline~;
#X obj 542 289 *~;
#X obj 542 310 *~;
#X obj 375 703 bp~ 3000 1;
#X obj 185 52 inlet;
#X obj 170 73 f;
#X obj 345 52 inlet;
#X obj 330 73 f;
#X obj 330 115 s \$0-dmp-snr;
#X obj 425 52 inlet;
#X obj 410 73 f;
#X obj 505 52 inlet;
#X obj 490 73 f;
#X obj 170 94 clip 0 22050;
#X obj 170 115 s \$0-frq-snr;
#X obj 410 94 clip -1 1;
#X obj 410 115 s \$0-apg-snr;
#X obj 490 94 clip 0 22050;
#X obj 490 115 s \$0-apf-snr;
#X obj 595 52 inlet;
#X obj 580 73 f;
#X obj 580 115 s \$0-nse-snr;
#X obj 580 94 clip 0 1;
#X obj 224 188 r \$0-frq-snr;
#X obj 310 161 r \$0-trg-snr;
#X obj 331 224 r \$0-frq-snr;
#X obj 417 148 r \$0-vel-snr;
#X msg 417 190 2 \$1;
#X obj 417 211 pow;
#X obj 331 246 *;
#X obj 670 242 r \$0-trg-snr;
#X obj 574 254 r \$0-vel-snr;
#X obj 60 31 inlet;
#X obj 60 52 moses 1;
#X obj 99 94 t b f;
#X obj 126 115 - 1;
#X obj 126 136 / 126;
#X obj 126 178 s \$0-vel-snr;
#X obj 99 262 s \$0-trg-snr;
#X obj 170 31 r \$0-trg-snr;
#X obj 330 31 r \$0-trg-snr;
#X obj 410 31 r \$0-trg-snr;
#X obj 490 31 r \$0-trg-snr;
#X obj 580 31 r \$0-trg-snr;
#X obj 390 270 r \$0-vel-snr;
#X obj 282 504 r \$0-apg-snr;
#X obj 268 406 r \$0-apf-snr;
#X obj 330 94 clip 0 1;
#X obj 476 275 sig~;
#X obj 476 254 r \$0-frq-snr;
#X obj 454 434 r \$0-dmp-snr;
#X obj 368 511 r \$0-frq-snr;
#X msg 454 476 2 \$1;
#X obj 454 497 pow;
#X obj 454 518 / 2;
#X obj 368 532 *;
#X obj 224 546 lop~;
#X msg 708 556 0 1;
#X obj 735 535 del 2;
#X msg 735 556 1 0;
#X obj 708 514 t b b;
#X obj 99 199 t b b;
#X obj 99 241 del 2;
#X obj 126 220 s \$0-trg-snr-0;
#X obj 708 493 r \$0-trg-snr-0;
#X obj 126 157 pipe 2;
#X obj 670 553 +~ 1;
#N canvas 956 222 369 509 lowpass~ 0;
#X obj 62 16 inlet;
#X obj 206 16 inlet;
#X obj 131 75 / 2;
#X obj 62 122 * 6.28319;
#X obj 62 143 /;
#X obj 131 12 loadbang;
#X obj 131 33 samplerate~;
#X obj 131 54 t f f;
#X obj 123 152 max 5.96046e-08;
#X obj 155 178 cos;
#X obj 137 320 pack f f f f f f;
#X obj 155 225 * -2;
#X obj 62 232 t f f;
#X msg 89 253 1 \$1;
#X obj 89 274 -;
#X obj 62 274 + 1;
#X obj 62 51 f;
#X obj 206 37 t b f;
#X obj 62 190 sin;
#X obj 62 211 /;
#X obj 123 197 * 2;
#X obj 62 164 t f f;
#X obj 155 199 t f f;
#X msg 137 341 \$2 \$3 \$4 \$5 \$6 \$1;
#X obj 137 362 unpack f f f f f f;
#X obj 137 414 /;
#X obj 167 414 /;
#X obj 197 414 /;
#X obj 227 414 /;
#X obj 257 414 /;
#X obj 137 440 pack f f f f f;
#X obj 137 388 * -1;
#X obj 167 388 * -1;
#X text 247 320 a0 a1 a2 b0 b1 b2;
#X obj 12 454 biquad~;
#X obj 289 419 inlet;
#X msg 289 440 clear;
#X obj 12 428 inlet~;
#X obj 12 475 outlet~;
#X msg 211 213 1 \$1;
#X obj 211 234 -;
#X obj 211 255 t f f;
#X obj 238 276 / 2;
#X obj 238 297 t f f;
#X obj 62 101 clip 20 22050;
#X connect 0 0 16 0;
#X connect 1 0 17 0;
#X connect 2 0 44 2;
#X connect 3 0 4 0;
#X connect 4 0 21 0;
#X connect 5 0 6 0;
#X connect 6 0 7 0;
#X connect 7 0 2 0;
#X connect 7 1 4 1;
#X connect 8 0 20 0;
#X connect 9 0 22 0;
#X connect 10 0 23 0;
#X connect 11 0 10 1;
#X connect 12 0 15 0;
#X connect 12 1 13 0;
#X connect 13 0 14 0;
#X connect 14 0 10 2;
#X connect 15 0 10 0;
#X connect 16 0 44 0;
#X connect 17 0 16 0;
#X connect 17 1 8 0;
#X connect 18 0 19 0;
#X connect 19 0 12 0;
#X connect 20 0 19 1;
#X connect 21 0 18 0;
#X connect 21 1 9 0;
#X connect 22 0 11 0;
#X connect 22 1 39 0;
#X connect 23 0 24 0;
#X connect 24 0 31 0;
#X connect 24 1 32 0;
#X connect 24 2 27 0;
#X connect 24 3 28 0;
#X connect 24 4 29 0;
#X connect 24 5 29 1;
#X connect 24 5 28 1;
#X connect 24 5 27 1;
#X connect 24 5 26 1;
#X connect 24 5 25 1;
#X connect 25 0 30 0;
#X connect 26 0 30 1;
#X connect 27 0 30 2;
#X connect 28 0 30 3;
#X connect 29 0 30 4;
#X connect 30 0 34 0;
#X connect 31 0 25 0;
#X connect 32 0 26 0;
#X connect 34 0 38 0;
#X connect 35 0 36 0;
#X connect 36 0 34 0;
#X connect 37 0 34 0;
#X connect 39 0 40 0;
#X connect 40 0 41 0;
#X connect 41 0 10 4;
#X connect 41 1 42 0;
#X connect 42 0 43 0;
#X connect 43 0 10 3;
#X connect 43 1 10 5;
#X connect 44 0 3 0;
#X restore 310 294 pd lowpass~;
#X obj 670 383 *~;
#X obj 362 252 loadbang;
#X obj 224 335 *~ 0.5;
#X obj 224 591 *~;
#X obj 708 577 line~;
#X obj 693 52 inlet;
#X obj 660 31 r \$0-trg-snr;
#X obj 660 73 spigot;
#X obj 660 94 s \$0-clr-snr;
#X obj 486 511 r \$0-clr-snr;
#X msg 486 532 clear;
#X obj 321 483 r \$0-clr-snr;
#X obj 720 327 r \$0-vel-snr;
#X obj 375 630 noise~;
#X obj 265 52 inlet;
#X obj 250 73 f;
#X obj 250 31 r \$0-trg-snr;
#X obj 250 115 s \$0-fbk-snr;
#X obj 461 387 *~;
#X obj 512 373 r \$0-fbk-snr;
#X obj 535 331 r \$0-clr-snr;
#X msg 535 352 clear;
#X obj 224 659 outlet~;
#X msg 310 182 seed 16;
#X obj 375 750 *~;
#X obj 407 736 r \$0-nse-snr;
#X obj 224 162 vline~;
#X obj 720 348 sqrt;
#X msg 362 273 0.4;
#X msg 670 263 1 \, 0 80;
#X obj 455 626 hip~ 100;
#X obj 670 327 pow~ 2;
#X obj 224 567 *~;
#X obj 455 647 env~;
#X obj 455 668 dbtorms;
#X obj 455 710 line~;
#X msg 455 689 \$1 1;
#X obj 253 455 sig~ 1000;
#X obj 253 476 /~;
#X obj 334 441 *~;
#X obj 334 462 *~;
#X obj 366 406 r \$0-vel-snr;
#X obj 268 427 sig~;
#X obj 461 366 hip~ 20;
#X obj 574 296 + 2;
#X obj 574 275 * 1;
#X obj 366 427 * 1;
#X obj 454 455 * 6;
#X obj 310 342 *~ 2;
#X obj 417 232 / 3;
#X obj 670 306 pow~ 10;
#X obj 417 169 * 3;
#X obj 366 448 + 1;
#X obj 390 333 * -24;
#X obj 720 369 * 0.7;
#X obj 224 633 +~;
#X obj 250 94 clip -1 1;
#X text 375 610 //Noise Layer;
#X text 476 234 //Frequency;
#X text 60 11 Velocity/Trigger;
#X text 170 11 Frequency;
#X text 250 11 Feedback;
#X text 330 11 Damping;
#X text 410 11 APF Gain;
#X text 490 11 APF Frequency;
#X text 580 11 Noise Level;
#X text 660 11 Clear;
#X text 124 314 Sine Impulse ->;
#X text 670 222 //Pitch Bend Env.;
#X text 708 463 //Amplitude Reset;
#X text 708 473 (prevents clicks);
#X text 174 525 APF ->;
#X text 534 434 <- Damping;
#X text 114 546 LPF (Damping) ->;
#X text 134 612 Distortion ->;
#X text 592 373 <- Feedback;
#X text 310 141 //Noise Impulse;
#X obj 310 389 *~;
#X obj 310 363 *~ 2;
#X msg 224 141 1 0.25 \, 0 0.25 \$1;
#X obj 99 73 clip 0 127;
#X obj 614 647 env~;
#X obj 614 668 change;
#X obj 614 689 sel 0;
#X msg 614 710 0;
#X msg 708 712 1;
#X obj 614 731 switch~ 1 1 1;
#X text 616 625 Turns DSP off at silence;
#X text 616 615 //Turns DSP on at trigger;
#X connect 0 0 1 0;
#X connect 1 0 8 0;
#X connect 1 0 172 0;
#X connect 2 0 92 0;
#X connect 3 0 141 0;
#X connect 4 0 136 0;
#X connect 6 0 7 0;
#X connect 7 0 4 0;
#X connect 8 0 9 0;
#X connect 9 0 10 0;
#X connect 10 0 11 0;
#X connect 11 0 95 0;
#X connect 12 0 81 0;
#X connect 13 0 12 0;
#X connect 14 0 13 0;
#X connect 15 0 16 0;
#X connect 16 0 146 0;
#X connect 17 0 18 0;
#X connect 18 0 14 1;
#X connect 18 0 170 1;
#X connect 19 0 117 0;
#X connect 20 0 28 0;
#X connect 21 0 20 0;
#X connect 22 0 123 0;
#X connect 22 0 148 0;
#X connect 23 0 13 1;
#X connect 24 0 14 0;
#X connect 25 0 143 0;
#X connect 26 0 27 0;
#X connect 27 0 7 1;
#X connect 28 0 19 0;
#X connect 29 0 30 1;
#X connect 30 0 38 0;
#X connect 31 0 32 1;
#X connect 32 0 72 0;
#X connect 34 0 35 1;
#X connect 35 0 40 0;
#X connect 36 0 37 1;
#X connect 37 0 42 0;
#X connect 38 0 39 0;
#X connect 40 0 41 0;
#X connect 42 0 43 0;
#X connect 44 0 45 1;
#X connect 45 0 47 0;
#X connect 47 0 46 0;
#X connect 48 0 0 0;
#X connect 49 0 116 0;
#X connect 49 0 92 3;
#X connect 50 0 54 0;
#X connect 51 0 144 0;
#X connect 52 0 53 0;
#X connect 53 0 142 0;
#X connect 54 0 92 1;
#X connect 55 0 122 0;
#X connect 56 0 138 0;
#X connect 57 0 58 0;
#X connect 58 1 173 0;
#X connect 59 0 86 0;
#X connect 59 1 60 0;
#X connect 60 0 61 0;
#X connect 61 0 90 0;
#X connect 64 0 30 0;
#X connect 65 0 32 0;
#X connect 66 0 35 0;
#X connect 67 0 37 0;
#X connect 68 0 45 0;
#X connect 69 0 15 0;
#X connect 70 0 12 2;
#X connect 71 0 135 0;
#X connect 72 0 33 0;
#X connect 73 0 7 1;
#X connect 73 0 26 0;
#X connect 74 0 73 0;
#X connect 75 0 140 0;
#X connect 76 0 80 0;
#X connect 77 0 78 0;
#X connect 78 0 79 0;
#X connect 79 0 80 1;
#X connect 80 0 81 1;
#X connect 81 0 125 0;
#X connect 82 0 97 0;
#X connect 83 0 84 0;
#X connect 84 0 97 0;
#X connect 85 0 82 0;
#X connect 85 1 83 0;
#X connect 86 0 87 0;
#X connect 86 1 88 0;
#X connect 87 0 63 0;
#X connect 89 0 85 0;
#X connect 89 0 178 0;
#X connect 90 0 62 0;
#X connect 91 0 125 1;
#X connect 92 0 3 0;
#X connect 93 0 91 0;
#X connect 94 0 121 0;
#X connect 95 0 24 0;
#X connect 96 0 22 0;
#X connect 97 0 96 1;
#X connect 98 0 100 1;
#X connect 99 0 100 0;
#X connect 100 0 101 0;
#X connect 102 0 103 0;
#X connect 103 0 5 0;
#X connect 103 0 81 0;
#X connect 104 0 12 3;
#X connect 105 0 120 0;
#X connect 106 0 20 0;
#X connect 106 0 21 0;
#X connect 107 0 108 1;
#X connect 108 0 149 0;
#X connect 109 0 108 0;
#X connect 111 0 23 0;
#X connect 112 0 111 1;
#X connect 113 0 114 0;
#X connect 114 0 136 0;
#X connect 116 0 2 0;
#X connect 117 0 148 1;
#X connect 118 0 117 1;
#X connect 119 0 3 1;
#X connect 120 0 147 0;
#X connect 121 0 92 2;
#X connect 122 0 25 0;
#X connect 123 0 126 0;
#X connect 124 0 93 0;
#X connect 124 0 132 1;
#X connect 125 0 5 0;
#X connect 125 0 96 0;
#X connect 126 0 127 0;
#X connect 127 0 129 0;
#X connect 128 0 19 1;
#X connect 129 0 128 0;
#X connect 130 0 131 0;
#X connect 131 0 12 1;
#X connect 132 0 133 0;
#X connect 133 0 131 1;
#X connect 134 0 139 0;
#X connect 135 0 131 1;
#X connect 135 0 132 0;
#X connect 136 0 111 0;
#X connect 137 0 27 1;
#X connect 138 0 137 0;
#X connect 139 0 145 0;
#X connect 140 0 77 0;
#X connect 141 0 24 1;
#X connect 141 0 171 0;
#X connect 142 0 54 1;
#X connect 143 0 26 1;
#X connect 143 0 124 0;
#X connect 144 0 52 0;
#X connect 145 0 133 1;
#X connect 146 0 17 0;
#X connect 147 0 93 1;
#X connect 148 0 115 0;
#X connect 148 0 174 0;
#X connect 149 0 110 0;
#X connect 170 0 96 0;
#X connect 171 0 170 0;
#X connect 172 0 119 0;
#X connect 173 0 59 0;
#X connect 174 0 175 0;
#X connect 175 0 176 0;
#X connect 176 0 177 0;
#X connect 177 0 179 0;
#X connect 178 0 179 0;
