#N canvas 614 318 1386 859 10;
#N canvas 0 23 773 742 osc 1;
#N canvas 1164 679 371 206 allpass100ms 0;
#X obj 12 31 inlet~;
#X obj 12 92 +~;
#X obj 27 70 *~;
#X obj 187 109 *~;
#X obj 172 131 +~;
#X obj 172 153 outlet~;
#X text 12 173 0 - 100 mSec allpass;
#X text 202 33 gain;
#X text 102 11 time;
#X text 12 11 sound;
#X obj 12 153 delwrite~ \$0-short-4 100;
#X obj 102 53 vd~ \$0-short-4;
#X obj 248 118 inlet;
#X msg 248 139 clear;
#X obj 102 31 inlet~;
#X obj 202 53 inlet~;
#X obj 202 75 *~ -1;
#X connect 0 0 1 0;
#X connect 1 0 3 0;
#X connect 1 0 10 0;
#X connect 2 0 1 1;
#X connect 3 0 4 1;
#X connect 4 0 5 0;
#X connect 11 0 2 0;
#X connect 11 0 4 0;
#X connect 12 0 13 0;
#X connect 13 0 10 0;
#X connect 14 0 11 0;
#X connect 15 0 2 1;
#X connect 15 0 16 0;
#X connect 16 0 3 1;
#X restore 288 540 pd allpass100ms;
#X obj 432 208 block~ 1 1 1;
#X obj 280 319 sig~ 1000;
#X obj 280 340 /~;
#X obj 280 361 *~;
#X obj 360 511 *~;
#X obj 332 278 inlet~;
#X obj 420 332 inlet~;
#X obj 344 328 sig~ 1;
#X obj 344 349 -~;
#X obj 537 457 inlet~;
#X obj 646 598 inlet;
#X obj 280 382 delread4~ \$0-kp;
#X obj 180 408 inlet~;
#X obj 184 584 +~;
#X obj 271 622 delwrite~ \$0-kp 100;
#X obj 184 605 outlet~;
#X msg 646 619 clear;
#X obj 280 424 *~ 0.5;
#X obj 280 445 *~ -0.95;
#X obj 205 454 -~;
#X obj 182 485 *~ -0.3;
#X obj 280 403 rzero~ -1;
#X obj 182 506 +~ 0.7;
#X obj 182 548 *~;
#X obj 182 527 clip~ -1 1;
#X connect 0 0 20 0;
#X connect 2 0 3 0;
#X connect 3 0 4 0;
#X connect 3 0 5 0;
#X connect 4 0 12 0;
#X connect 5 0 0 1;
#X connect 6 0 3 1;
#X connect 7 0 9 1;
#X connect 7 0 5 1;
#X connect 8 0 9 0;
#X connect 9 0 4 1;
#X connect 10 0 0 2;
#X connect 11 0 0 3;
#X connect 11 0 17 0;
#X connect 12 0 22 0;
#X connect 13 0 20 1;
#X connect 13 0 14 1;
#X connect 14 0 15 0;
#X connect 14 0 16 0;
#X connect 17 0 15 0;
#X connect 18 0 19 0;
#X connect 19 0 0 0;
#X connect 20 0 21 0;
#X connect 20 0 24 1;
#X connect 21 0 23 0;
#X connect 22 0 18 0;
#X connect 23 0 25 0;
#X connect 24 0 14 0;
#X connect 25 0 24 0;
#X restore 296 596 pd osc;
#X f 19;
#X obj 595 559 tgl 15 0 empty empty empty 17 7 0 10 -262144 -1 -1 1
1;
#X obj 595 579 metro 50;
#X obj 595 600 tabwrite~ \$0-scope;
#N canvas 0 22 450 278 (subpatch) 0;
#X array \$0-scope 100 float 1;
#A 0 0.336229 0.401472 0.377208 0.408328 0.436181 0.459201 0.452265
0.513566 0.468264 0.457895 0.49291 0.511463 0.492763 0.431361 0.492999
0.538733 0.535692 0.541132 0.475356 0.502983 0.53037 0.570257 0.524367
0.584788 0.555728 0.546735 0.565598 0.635555 0.601693 0.581025 0.605671
0.636637 0.609581 0.508523 0.602987 0.606073 0.549446 0.59987 0.579245
0.547247 0.577135 0.611276 0.599579 0.539031 0.609865 0.512787 0.600063
0.6258 0.608406 0.600177 0.619292 0.597488 0.499485 0.569703 0.594563
0.500647 0.59043 0.592585 0.57159 0.482951 0.594104 0.60094 0.489989
0.510749 0.48405 0.510834 0.526637 0.558508 0.504797 0.514372 0.513472
0.496724 0.485956 0.518471 0.464095 0.433242 0.438175 0.461553 0.402015
0.428736 0.495309 0.474613 0.405498 0.359633 0.35414 0.388124 0.355583
0.369332 0.334945 0.355344 0.341213 0.267009 0.305597 0.281414 0.310041
0.288681 0.295138 0.287413 0.274927 0.24828;
#X coords 0 1 99 -1 200 140 1;
#X restore 100 20 graph;
#X obj 358 475 sig~ 440;
#X obj 363 544 sig~ 0.5;
#X obj 251 472 noise~;
#X obj 251 493 *~;
#X obj 289 327 line~;
#X msg 289 306 1 \, 0 10;
#X obj 422 544 sig~ 0.5;
#X obj 344 277 bng 15 250 50 0 empty empty empty 17 7 0 10 -262144
-1 -1;
#X obj 424 331 vsl 15 128 0 127 0 0 empty empty empty 0 -9 0 10 -262144
-1 -1 8600 1;
#X obj 424 467 / 127;
#X obj 519 345 vsl 15 128 0 127 0 0 empty empty empty 0 -9 0 10 -262144
-1 -1 11600 1;
#X obj 519 481 / 127;
#X obj 296 617 *~ 0.5;
#X obj 296 638 clip~ -1 1;
#X obj 296 659 *~ 0.6;
#X obj 296 680 hip~ 3;
#X obj 296 701 dac~ 1 2;
#X obj 393 189 key;
#X obj 393 210 sel 161;
#X obj 519 502 * 2;
#X obj 519 523 - 1;
#X floatatom 519 544 5 0 0 0 - - -;
#X floatatom 339 430 5 0 0 0 - - -;
#X obj 234 535 osc~ 440;
#X obj 174 532 sig~ 1;
#X floatatom 222 522 5 0 0 0 - - -;
#X obj 81 595 *~;
#X obj 103 502 noise~;
#X floatatom 333 382 5 0 0 0 - - -;
#X obj 333 402 mtof;
#X obj 103 523 *~ 0.5;
#X connect 0 0 3 0;
#X connect 0 0 17 0;
#X connect 1 0 2 0;
#X connect 2 0 3 0;
#X connect 5 0 0 1;
#X connect 6 0 0 2;
#X connect 7 0 8 0;
#X connect 9 0 8 1;
#X connect 10 0 9 0;
#X connect 11 0 0 3;
#X connect 12 0 10 0;
#X connect 12 0 0 4;
#X connect 13 0 14 0;
#X connect 14 0 6 0;
#X connect 15 0 16 0;
#X connect 16 0 24 0;
#X connect 17 0 18 0;
#X connect 18 0 19 0;
#X connect 19 0 20 0;
#X connect 20 0 21 0;
#X connect 20 0 21 1;
#X connect 22 0 23 0;
#X connect 23 0 12 0;
#X connect 24 0 25 0;
#X connect 25 0 26 0;
#X connect 26 0 11 0;
#X connect 27 0 5 0;
#X connect 29 0 0 0;
#X connect 29 0 31 0;
#X connect 30 0 29 0;
#X connect 31 0 0 0;
#X connect 32 0 35 0;
#X connect 33 0 34 0;
#X connect 34 0 27 0;
#X connect 35 0 31 1;
