#N canvas 761 85 1043 973 10;
#X obj 112 145 notein;
#X obj 112 187 pack f f f;
#X obj 112 208 s \$0-poly;
#X obj 485 32 r \$0-poly;
#X obj 257 360 expr~ tanh($v1);
#X obj 257 381 hip~ 3;
#X obj 257 339 *~ 0.7;
#X obj 485 53 route 1;
#X msg 73 299 open ./pno.wav \, start;
#X obj 485 74 pvoice 145 1;
#X obj 199 143 tgl 15 0 empty empty empty 17 7 0 10 -262144 -1 -1 1
1;
#X obj 199 163 s pdl;
#X obj 199 100 ctlin 64;
#X obj 199 121 == 127;
#X obj 149 355 env~;
#X obj 149 376 - 100;
#X obj 154 407 vu 15 120 empty empty -1 -8 0 10 -66577 -1 1 0;
#X obj 257 423 dac~ 1;
#X obj 357 360 expr~ tanh($v1);
#X obj 357 381 hip~ 3;
#X obj 357 339 *~ 0.7;
#X obj 257 267 catch~ \$0-L;
#X obj 357 267 catch~ \$0-R;
#X obj 485 95 throw~ \$0-L;
#X obj 485 115 throw~ \$0-R;
#X obj 575 32 r \$0-poly;
#X obj 575 53 route 1;
#X obj 575 95 throw~ \$0-L;
#X obj 575 115 throw~ \$0-R;
#X obj 357 423 dac~ 2;
#X obj 485 142 r \$0-poly;
#X obj 485 184 pvoice 145 1;
#X obj 485 205 throw~ \$0-L;
#X obj 485 225 throw~ \$0-R;
#X obj 575 142 r \$0-poly;
#X obj 575 205 throw~ \$0-L;
#X obj 575 225 throw~ \$0-R;
#X obj 485 163 route 2;
#X obj 575 163 route 2;
#X obj 485 252 r \$0-poly;
#X obj 485 294 pvoice 145 1;
#X obj 485 315 throw~ \$0-L;
#X obj 485 335 throw~ \$0-R;
#X obj 575 252 r \$0-poly;
#X obj 575 315 throw~ \$0-L;
#X obj 575 335 throw~ \$0-R;
#X obj 485 362 r \$0-poly;
#X obj 485 404 pvoice 145 1;
#X obj 485 425 throw~ \$0-L;
#X obj 485 445 throw~ \$0-R;
#X obj 575 362 r \$0-poly;
#X obj 575 425 throw~ \$0-L;
#X obj 575 445 throw~ \$0-R;
#X obj 485 273 route 3;
#X obj 575 273 route 3;
#X obj 485 383 route 4;
#X obj 575 383 route 4;
#X obj 485 472 r \$0-poly;
#X obj 485 514 pvoice 145 1;
#X obj 485 535 throw~ \$0-L;
#X obj 485 555 throw~ \$0-R;
#X obj 575 472 r \$0-poly;
#X obj 575 535 throw~ \$0-L;
#X obj 575 555 throw~ \$0-R;
#X obj 485 582 r \$0-poly;
#X obj 485 624 pvoice 145 1;
#X obj 485 645 throw~ \$0-L;
#X obj 485 665 throw~ \$0-R;
#X obj 575 582 r \$0-poly;
#X obj 575 645 throw~ \$0-L;
#X obj 575 665 throw~ \$0-R;
#X obj 485 692 r \$0-poly;
#X obj 485 734 pvoice 145 1;
#X obj 485 755 throw~ \$0-L;
#X obj 485 775 throw~ \$0-R;
#X obj 575 692 r \$0-poly;
#X obj 575 755 throw~ \$0-L;
#X obj 575 775 throw~ \$0-R;
#X obj 485 802 r \$0-poly;
#X obj 485 844 pvoice 145 1;
#X obj 485 865 throw~ \$0-L;
#X obj 485 885 throw~ \$0-R;
#X obj 575 802 r \$0-poly;
#X obj 575 865 throw~ \$0-L;
#X obj 575 885 throw~ \$0-R;
#X obj 485 493 route 5;
#X obj 575 493 route 5;
#X obj 485 603 route 6;
#X obj 575 603 route 6;
#X obj 485 713 route 7;
#X obj 575 713 route 7;
#X obj 485 823 route 8;
#X obj 575 823 route 8;
#X obj 675 32 r \$0-poly;
#X obj 675 74 pvoice 145 1;
#X obj 675 95 throw~ \$0-L;
#X obj 675 115 throw~ \$0-R;
#X obj 765 32 r \$0-poly;
#X obj 765 95 throw~ \$0-L;
#X obj 765 115 throw~ \$0-R;
#X obj 675 142 r \$0-poly;
#X obj 675 184 pvoice 145 1;
#X obj 675 205 throw~ \$0-L;
#X obj 675 225 throw~ \$0-R;
#X obj 765 142 r \$0-poly;
#X obj 765 205 throw~ \$0-L;
#X obj 765 225 throw~ \$0-R;
#X obj 675 252 r \$0-poly;
#X obj 675 294 pvoice 145 1;
#X obj 675 315 throw~ \$0-L;
#X obj 675 335 throw~ \$0-R;
#X obj 765 252 r \$0-poly;
#X obj 765 315 throw~ \$0-L;
#X obj 765 335 throw~ \$0-R;
#X obj 675 362 r \$0-poly;
#X obj 675 404 pvoice 145 1;
#X obj 675 425 throw~ \$0-L;
#X obj 675 445 throw~ \$0-R;
#X obj 765 362 r \$0-poly;
#X obj 765 425 throw~ \$0-L;
#X obj 765 445 throw~ \$0-R;
#X obj 675 472 r \$0-poly;
#X obj 675 514 pvoice 145 1;
#X obj 675 535 throw~ \$0-L;
#X obj 675 555 throw~ \$0-R;
#X obj 765 472 r \$0-poly;
#X obj 765 535 throw~ \$0-L;
#X obj 765 555 throw~ \$0-R;
#X obj 675 582 r \$0-poly;
#X obj 675 624 pvoice 145 1;
#X obj 675 645 throw~ \$0-L;
#X obj 675 665 throw~ \$0-R;
#X obj 765 582 r \$0-poly;
#X obj 765 645 throw~ \$0-L;
#X obj 765 665 throw~ \$0-R;
#X obj 675 692 r \$0-poly;
#X obj 675 734 pvoice 145 1;
#X obj 675 755 throw~ \$0-L;
#X obj 675 775 throw~ \$0-R;
#X obj 765 692 r \$0-poly;
#X obj 765 755 throw~ \$0-L;
#X obj 765 775 throw~ \$0-R;
#X obj 675 802 r \$0-poly;
#X obj 675 844 pvoice 145 1;
#X obj 675 865 throw~ \$0-L;
#X obj 675 885 throw~ \$0-R;
#X obj 765 802 r \$0-poly;
#X obj 765 865 throw~ \$0-L;
#X obj 765 885 throw~ \$0-R;
#X obj 675 53 route 9;
#X obj 765 53 route 9;
#X obj 675 163 route 10;
#X obj 765 163 route 10;
#X obj 675 273 route 11;
#X obj 765 273 route 11;
#X obj 675 383 route 12;
#X obj 765 383 route 12;
#X obj 675 493 route 13;
#X obj 765 493 route 13;
#X obj 675 603 route 14;
#X obj 765 603 route 14;
#X obj 675 713 route 15;
#X obj 765 713 route 15;
#X obj 675 823 route 16;
#X obj 765 823 route 16;
#X obj 575 74 pvoice 420 2;
#X obj 575 184 pvoice 420 2;
#X obj 575 294 pvoice 420 2;
#X obj 575 404 pvoice 420 2;
#X obj 575 514 pvoice 420 2;
#X obj 575 624 pvoice 420 2;
#X obj 575 734 pvoice 420 2;
#X obj 575 844 pvoice 420 2;
#X obj 765 74 pvoice 420 2;
#X obj 765 184 pvoice 420 2;
#X obj 765 294 pvoice 420 2;
#X obj 765 404 pvoice 420 2;
#X obj 765 514 pvoice 420 2;
#X obj 765 624 pvoice 420 2;
#X obj 765 734 pvoice 420 2;
#X obj 765 844 pvoice 420 2;
#X obj 112 166 poly 16 1;
#X msg 171 249 stop;
#X obj 257 318 /~ 8;
#X obj 357 318 /~ 8;
#X obj 73 320 writesf~ 2;
#X msg 119 106 clear;
#X obj 287 92 loadbang;
#X msg 287 113 0;
#X connect 0 0 181 0;
#X connect 0 1 181 1;
#X connect 1 0 2 0;
#X connect 3 0 7 0;
#X connect 4 0 5 0;
#X connect 4 0 185 0;
#X connect 5 0 17 0;
#X connect 6 0 4 0;
#X connect 6 0 14 0;
#X connect 7 0 9 0;
#X connect 8 0 185 0;
#X connect 9 0 23 0;
#X connect 9 1 24 0;
#X connect 10 0 11 0;
#X connect 12 0 13 0;
#X connect 13 0 10 0;
#X connect 14 0 15 0;
#X connect 15 0 16 0;
#X connect 18 0 19 0;
#X connect 18 0 185 1;
#X connect 19 0 29 0;
#X connect 20 0 18 0;
#X connect 21 0 183 0;
#X connect 22 0 184 0;
#X connect 25 0 26 0;
#X connect 26 0 165 0;
#X connect 30 0 37 0;
#X connect 31 0 32 0;
#X connect 31 1 33 0;
#X connect 34 0 38 0;
#X connect 37 0 31 0;
#X connect 38 0 166 0;
#X connect 39 0 53 0;
#X connect 40 0 41 0;
#X connect 40 1 42 0;
#X connect 43 0 54 0;
#X connect 46 0 55 0;
#X connect 47 0 48 0;
#X connect 47 1 49 0;
#X connect 50 0 56 0;
#X connect 53 0 40 0;
#X connect 54 0 167 0;
#X connect 55 0 47 0;
#X connect 56 0 168 0;
#X connect 57 0 85 0;
#X connect 58 0 59 0;
#X connect 58 1 60 0;
#X connect 61 0 86 0;
#X connect 64 0 87 0;
#X connect 65 0 66 0;
#X connect 65 1 67 0;
#X connect 68 0 88 0;
#X connect 71 0 89 0;
#X connect 72 0 73 0;
#X connect 72 1 74 0;
#X connect 75 0 90 0;
#X connect 78 0 91 0;
#X connect 79 0 80 0;
#X connect 79 1 81 0;
#X connect 82 0 92 0;
#X connect 85 0 58 0;
#X connect 86 0 169 0;
#X connect 87 0 65 0;
#X connect 88 0 170 0;
#X connect 89 0 72 0;
#X connect 90 0 171 0;
#X connect 91 0 79 0;
#X connect 92 0 172 0;
#X connect 93 0 149 0;
#X connect 94 0 95 0;
#X connect 94 1 96 0;
#X connect 97 0 150 0;
#X connect 100 0 151 0;
#X connect 101 0 102 0;
#X connect 101 1 103 0;
#X connect 104 0 152 0;
#X connect 107 0 153 0;
#X connect 108 0 109 0;
#X connect 108 1 110 0;
#X connect 111 0 154 0;
#X connect 114 0 155 0;
#X connect 115 0 116 0;
#X connect 115 1 117 0;
#X connect 118 0 156 0;
#X connect 121 0 157 0;
#X connect 122 0 123 0;
#X connect 122 1 124 0;
#X connect 125 0 158 0;
#X connect 128 0 159 0;
#X connect 129 0 130 0;
#X connect 129 1 131 0;
#X connect 132 0 160 0;
#X connect 135 0 161 0;
#X connect 136 0 137 0;
#X connect 136 1 138 0;
#X connect 139 0 162 0;
#X connect 142 0 163 0;
#X connect 143 0 144 0;
#X connect 143 1 145 0;
#X connect 146 0 164 0;
#X connect 149 0 94 0;
#X connect 150 0 173 0;
#X connect 151 0 101 0;
#X connect 152 0 174 0;
#X connect 153 0 108 0;
#X connect 154 0 175 0;
#X connect 155 0 115 0;
#X connect 156 0 176 0;
#X connect 157 0 122 0;
#X connect 158 0 177 0;
#X connect 159 0 129 0;
#X connect 160 0 178 0;
#X connect 161 0 136 0;
#X connect 162 0 179 0;
#X connect 163 0 143 0;
#X connect 164 0 180 0;
#X connect 165 0 27 0;
#X connect 165 1 28 0;
#X connect 166 0 35 0;
#X connect 166 1 36 0;
#X connect 167 0 44 0;
#X connect 167 1 45 0;
#X connect 168 0 51 0;
#X connect 168 1 52 0;
#X connect 169 0 62 0;
#X connect 169 1 63 0;
#X connect 170 0 69 0;
#X connect 170 1 70 0;
#X connect 171 0 76 0;
#X connect 171 1 77 0;
#X connect 172 0 83 0;
#X connect 172 1 84 0;
#X connect 173 0 98 0;
#X connect 173 1 99 0;
#X connect 174 0 105 0;
#X connect 174 1 106 0;
#X connect 175 0 112 0;
#X connect 175 1 113 0;
#X connect 176 0 119 0;
#X connect 176 1 120 0;
#X connect 177 0 126 0;
#X connect 177 1 127 0;
#X connect 178 0 133 0;
#X connect 178 1 134 0;
#X connect 179 0 140 0;
#X connect 179 1 141 0;
#X connect 180 0 147 0;
#X connect 180 1 148 0;
#X connect 181 0 1 0;
#X connect 181 1 1 1;
#X connect 181 2 1 2;
#X connect 182 0 185 0;
#X connect 183 0 6 0;
#X connect 184 0 20 0;
#X connect 186 0 181 0;
#X connect 187 0 188 0;
#X connect 188 0 11 0;
