#N canvas 484 216 700 628 10;
#X obj 12 12 inlet;
#X obj 586 117 inlet;
#X obj 12 33 list prepend;
#X obj 586 138 > 0;
#X obj 12 54 route 1;
#X obj 124 68 mtof;
#X msg 124 89 1000 \$1;
#X obj 124 110 /;
#X obj 273 511 outlet~;
#X obj 113 564 delwrite~ \$0-z 100;
#X obj 431 72 block~ 1 1 1;
#X obj 446 169 sel 1;
#X msg 113 271 clear;
#X obj 66 433 delread4~ \$0-z;
#X obj 12 167 noise~;
#X obj 12 189 *~;
#X msg 357 408 clear;
#X obj 358 505 delwrite~ \$0-m 100;
#X obj 340 340 delread4~ \$0-m;
#X msg 340 298 1000 \$1;
#X obj 340 319 /;
#X obj 12 476 *~;
#X obj 340 277 mtof;
#X msg 517 408 clear;
#X msg 500 298 1000 \$1;
#X obj 500 319 /;
#X obj 500 277 mtof;
#X obj 500 256 + 0.05;
#X obj 500 340 delread4~ \$0-e;
#X obj 517 510 delwrite~ \$0-e 100;
#X obj 485 362 +~;
#X obj 12 455 +~;
#X obj 325 362 +~;
#N canvas 475 178 275 139 resonator~ 0;
#X obj 12 79 biquad~;
#X msg 211 65 clear;
#X obj 62 54 pack f f f f f;
#N canvas 469 50 627 618 resonator.coeff 0;
#N canvas 270 46 213 261 hz2rad 0;
#X obj 48 74 samplerate~;
#X obj 48 53 loadbang;
#X obj 48 137 atan;
#X msg 48 116 1;
#X text 62 32 w = 2 * pi * f / SR;
#X obj 48 158 * 8;
#X obj 48 95 t b a;
#X obj 48 179 / 44100;
#X text 103 183 2 * pi / SR;
#X obj 13 32 inlet;
#X obj 13 222 outlet;
#X text 59 224 w(rad);
#X text 9 11 freq(Hz);
#X obj 13 193 *;
#X connect 0 0 6 0;
#X connect 1 0 0 0;
#X connect 2 0 5 0;
#X connect 3 0 2 0;
#X connect 5 0 7 0;
#X connect 6 0 3 0;
#X connect 6 1 7 1;
#X connect 7 0 13 1;
#X connect 9 0 13 0;
#X connect 13 0 10 0;
#X restore 60 231 pd hz2rad;
#X obj 60 252 t f f;
#X obj 160 266 sin;
#X obj 60 387 cos;
#X obj 60 210 clip 20 20000;
#X msg 209 271 1 \$1;
#X obj 209 292 /;
#X obj 194 313 *;
#X obj 194 343 * 0.5;
#X text 291 49 (b0/a0) + (b1/a0)*z^(-1) + (b2/a0)*z^(-2);
#X obj 5 408 f;
#X msg 5 429 1 \$1;
#X obj 5 450 /;
#X obj 145 539 *;
#X obj 285 539 *;
#X obj 5 539 *;
#X obj 75 539 *;
#X text 251 206 w0 = 2*pi*f0*Fs;
#X text 251 226 alpha = sin(w0)/(2*Q);
#X obj 197 108 t b f;
#X obj 36 109 loadbang;
#X text 263 276 a0 = 1 + alpha;
#X text 294 86 1 + (a1/a0)*z^(-1) + (a2/a0)*z^(-2);
#X text 250 25 Audio-Cookbook:;
#X text 250 115 http://musicdsp.org/files/Audio-EQ-Cookbook.txt;
#X text 252 67 H(z) = -----------------------------------------;
#X obj 5 174 t b a b;
#X obj 215 581 outlet b1;
#X obj 285 581 outlet b2;
#X obj 5 581 outlet a1;
#X obj 75 581 outlet a2;
#X text -1 1 Bandpass filter with Q - biquad filter coefficient generator
;
#X text 263 356 b1 = 0;
#X obj 5 471 t f f f f;
#X obj 145 581 outlet b0;
#X text -1 23 constant skirt gain \, peak gain = Q;
#X text 250 153 BPF: H(s) = s / (s^2 + s/Q + 1) (constant skirt gain
\, peak gain = Q) b0 = sin(w0)/2 = Q*alpha b1 = 0 b2 = -sin(w0)/2 =
-Q*alpha a0 = 1 + alpha a1 = -2*cos(w0) a2 = 1 - alpha;
#X text 263 316 a2 = 1 - alpha;
#X text 263 296 a1 = -2*cos(w0);
#X text 263 336 b0 = sin(w0)/2 = Q*alpha;
#X text 263 376 b2 = -sin(w0)/2 = -Q*alpha;
#X text 252 256 BPF: (constant skirt gain);
#X obj 5 153 f;
#X obj 209 249 f;
#X obj 5 560 * -1;
#X obj 75 560 * -1;
#X obj 160 518 * 0.5;
#X obj 20 518 * -2;
#X msg 90 497 1 \$1;
#X obj 90 518 -;
#X obj 160 287 t f f;
#X obj 300 518 * -0.5;
#X obj 20 387 + 1;
#X obj 5 88 inlet;
#X obj 197 88 inlet;
#X connect 0 0 1 0;
#X connect 1 0 3 0;
#X connect 1 1 2 0;
#X connect 2 0 50 0;
#X connect 3 0 47 0;
#X connect 4 0 0 0;
#X connect 5 0 6 0;
#X connect 6 0 7 1;
#X connect 7 0 8 0;
#X connect 8 0 48 0;
#X connect 8 0 52 0;
#X connect 10 0 11 0;
#X connect 11 0 12 0;
#X connect 12 0 33 0;
#X connect 13 0 34 0;
#X connect 14 0 28 0;
#X connect 15 0 44 0;
#X connect 16 0 45 0;
#X connect 19 0 42 0;
#X connect 19 1 43 1;
#X connect 20 0 42 0;
#X connect 26 0 10 0;
#X connect 26 1 4 0;
#X connect 26 2 43 0;
#X connect 33 0 15 0;
#X connect 33 1 16 0;
#X connect 33 2 13 0;
#X connect 33 3 14 0;
#X connect 42 0 26 0;
#X connect 43 0 5 0;
#X connect 44 0 29 0;
#X connect 45 0 30 0;
#X connect 46 0 13 1;
#X connect 47 0 15 1;
#X connect 48 0 49 0;
#X connect 49 0 16 1;
#X connect 50 0 46 0;
#X connect 50 0 51 0;
#X connect 50 1 7 0;
#X connect 51 0 14 1;
#X connect 52 0 10 1;
#X connect 53 0 42 0;
#X connect 54 0 19 0;
#X restore 62 33 pd resonator.coeff;
#X obj 12 100 outlet~;
#X obj 211 44 inlet;
#X obj 62 12 inlet;
#X obj 167 12 inlet;
#X obj 12 59 inlet~;
#X connect 0 0 4 0;
#X connect 1 0 0 0;
#X connect 2 0 0 0;
#X connect 3 0 2 0;
#X connect 3 1 2 1;
#X connect 3 2 2 2;
#X connect 3 3 2 3;
#X connect 3 4 2 4;
#X connect 5 0 1 0;
#X connect 6 0 3 0;
#X connect 7 0 3 1;
#X connect 8 0 0 0;
#X restore 12 211 pd resonator~;
#X obj 124 175 vline~;
#X obj 340 256 - 0.05;
#X obj 81 271 * 8;
#X obj 256 110 sel 0;
#X obj 256 131 - 1;
#X obj 256 152 / 126;
#X obj 256 236 pow;
#X msg 256 215 2 \$1;
#X obj 586 159 sel 0;
#X obj 587 242 line~;
#X obj 325 408 *~;
#X obj 485 408 *~;
#N canvas 4 23 162 227 hv.tanh 0;
#X obj 12 12 inlet~;
#X obj 12 38 clip~ -3 3;
#X obj 27 64 *~;
#X obj 12 192 outlet~;
#X obj 27 140 /~;
#X obj 12 166 *~;
#X obj 67 90 *~ 9;
#X obj 27 90 +~ 27;
#X obj 67 116 +~ 27;
#X connect 0 0 1 0;
#X connect 1 0 2 0;
#X connect 1 0 2 1;
#X connect 1 0 5 0;
#X connect 2 0 7 0;
#X connect 2 0 6 0;
#X connect 4 0 5 1;
#X connect 5 0 3 0;
#X connect 6 0 8 0;
#X connect 7 0 4 0;
#X connect 8 0 4 1;
#X restore 12 264 pd hv.tanh;
#N canvas 4 23 162 227 hv.tanh 0;
#X obj 12 12 inlet~;
#X obj 12 38 clip~ -3 3;
#X obj 27 64 *~;
#X obj 12 192 outlet~;
#X obj 27 140 /~;
#X obj 12 166 *~;
#X obj 67 90 *~ 9;
#X obj 27 90 +~ 27;
#X obj 67 116 +~ 27;
#X connect 0 0 1 0;
#X connect 1 0 2 0;
#X connect 1 0 2 1;
#X connect 1 0 5 0;
#X connect 2 0 7 0;
#X connect 2 0 6 0;
#X connect 4 0 5 1;
#X connect 5 0 3 0;
#X connect 6 0 8 0;
#X connect 7 0 4 0;
#X connect 8 0 4 1;
#X restore 93 491 pd hv.tanh;
#N canvas 4 23 162 227 hv.tanh 0;
#X obj 12 12 inlet~;
#X obj 12 38 clip~ -3 3;
#X obj 27 64 *~;
#X obj 12 192 outlet~;
#X obj 27 140 /~;
#X obj 12 166 *~;
#X obj 67 90 *~ 9;
#X obj 27 90 +~ 27;
#X obj 67 116 +~ 27;
#X connect 0 0 1 0;
#X connect 1 0 2 0;
#X connect 1 0 2 1;
#X connect 1 0 5 0;
#X connect 2 0 7 0;
#X connect 2 0 6 0;
#X connect 4 0 5 1;
#X connect 5 0 3 0;
#X connect 6 0 8 0;
#X connect 7 0 4 0;
#X connect 8 0 4 1;
#X restore 325 434 pd hv.tanh;
#N canvas 4 23 162 227 hv.tanh 0;
#X obj 12 12 inlet~;
#X obj 12 38 clip~ -3 3;
#X obj 27 64 *~;
#X obj 12 192 outlet~;
#X obj 27 140 /~;
#X obj 12 166 *~;
#X obj 67 90 *~ 9;
#X obj 27 90 +~ 27;
#X obj 67 116 +~ 27;
#X connect 0 0 1 0;
#X connect 1 0 2 0;
#X connect 1 0 2 1;
#X connect 1 0 5 0;
#X connect 2 0 7 0;
#X connect 2 0 6 0;
#X connect 4 0 5 1;
#X connect 5 0 3 0;
#X connect 6 0 8 0;
#X connect 7 0 4 0;
#X connect 8 0 4 1;
#X restore 485 434 pd hv.tanh;
#X obj 273 490 *~ 0.5;
#X obj 62 169 loadbang;
#X obj 12 285 lop~;
#X msg 62 190 0.1;
#X msg 647 180 1;
#X msg 124 154 1 0 \, 0 0 \$1;
#X msg 200 166 1 \, 0 \$1;
#X obj 200 187 vline~;
#X obj 200 208 +~ 0.25;
#X obj 200 229 cos~;
#X obj 12 232 *~ 8;
#X msg 12 146 seed 12;
#X obj 12 306 lop~;
#X obj 256 257 * 0.125;
#X obj 113 515 biquad~ 0 0 0.5 0.5 0 0;
#X obj 93 538 /~ 2;
#X obj 325 481 /~ 2;
#X obj 485 484 /~ 2;
#X obj 12 348 lop~ 1500;
#X obj 12 327 lop~ 1500;
#X obj 372 75 loadbang;
#X msg 372 96 seed 123;
#X msg 504 110 seed 12;
#X obj 256 173 pow 1;
#X obj 256 194 * 7;
#X obj 368 213 + 0.02;
#X obj 505 223 + 0.02;
#X msg 587 180 0.9 300;
#X obj 517 460 biquad~ 0 0 0.5 0.25 0.25;
#X obj 357 456 biquad~ 0 0 0.5 0.5 0 0;
#X obj 200 250 *~ 0.05;
#X obj 366 141 / 200;
#X obj 366 120 random 201;
#X obj 502 130 random 201;
#X obj 502 151 / 200;
#X obj 240 448 /~ 4;
#X obj 502 172 * 0.05;
#X obj 366 162 * 0.05;
#X connect 0 0 2 0;
#X connect 1 0 3 0;
#X connect 1 0 37 0;
#X connect 2 0 4 0;
#X connect 3 0 2 1;
#X connect 3 0 11 0;
#X connect 3 0 42 0;
#X connect 4 0 5 0;
#X connect 4 0 27 0;
#X connect 4 0 35 0;
#X connect 4 0 61 0;
#X connect 5 0 6 0;
#X connect 5 0 33 1;
#X connect 5 0 36 0;
#X connect 6 0 7 0;
#X connect 7 0 13 0;
#X connect 7 0 56 0;
#X connect 7 0 55 0;
#X connect 11 0 16 0;
#X connect 11 0 12 0;
#X connect 11 0 23 0;
#X connect 11 0 82 0;
#X connect 11 0 83 0;
#X connect 12 0 9 0;
#X connect 12 0 33 3;
#X connect 12 0 52 0;
#X connect 12 0 62 0;
#X connect 12 0 68 0;
#X connect 12 0 69 0;
#X connect 12 0 64 0;
#X connect 13 0 31 1;
#X connect 14 0 15 0;
#X connect 15 0 33 0;
#X connect 16 0 17 0;
#X connect 16 0 79 0;
#X connect 18 0 32 1;
#X connect 19 0 20 0;
#X connect 20 0 18 0;
#X connect 21 0 47 0;
#X connect 21 0 50 0;
#X connect 22 0 19 0;
#X connect 23 0 29 0;
#X connect 23 0 78 0;
#X connect 24 0 25 0;
#X connect 25 0 28 0;
#X connect 26 0 24 0;
#X connect 27 0 26 0;
#X connect 28 0 30 1;
#X connect 30 0 45 0;
#X connect 31 0 21 0;
#X connect 32 0 44 0;
#X connect 33 0 60 0;
#X connect 34 0 15 1;
#X connect 35 0 22 0;
#X connect 36 0 52 1;
#X connect 36 0 62 1;
#X connect 37 1 38 0;
#X connect 38 0 39 0;
#X connect 39 0 73 0;
#X connect 40 0 63 0;
#X connect 41 0 40 0;
#X connect 42 0 77 0;
#X connect 42 1 54 0;
#X connect 43 0 45 1;
#X connect 43 0 44 1;
#X connect 43 0 21 1;
#X connect 44 0 48 0;
#X connect 44 0 50 0;
#X connect 45 0 49 0;
#X connect 45 0 50 0;
#X connect 46 0 52 0;
#X connect 47 0 64 0;
#X connect 47 0 65 0;
#X connect 48 0 66 0;
#X connect 48 0 79 0;
#X connect 49 0 67 0;
#X connect 49 0 78 0;
#X connect 50 0 8 0;
#X connect 51 0 53 0;
#X connect 52 0 62 0;
#X connect 53 0 33 2;
#X connect 54 0 43 0;
#X connect 55 0 34 0;
#X connect 56 0 57 0;
#X connect 57 0 58 0;
#X connect 58 0 59 0;
#X connect 59 0 80 0;
#X connect 60 0 46 0;
#X connect 61 0 14 0;
#X connect 62 0 69 0;
#X connect 63 0 36 1;
#X connect 64 0 65 0;
#X connect 65 0 9 0;
#X connect 66 0 17 0;
#X connect 67 0 29 0;
#X connect 68 0 31 0;
#X connect 68 0 32 0;
#X connect 68 0 30 0;
#X connect 68 0 85 0;
#X connect 69 0 68 0;
#X connect 70 0 71 0;
#X connect 70 0 72 0;
#X connect 71 0 82 0;
#X connect 72 0 83 0;
#X connect 73 0 74 0;
#X connect 74 0 41 0;
#X connect 75 0 35 1;
#X connect 76 0 27 1;
#X connect 77 0 43 0;
#X connect 78 0 67 0;
#X connect 79 0 66 0;
#X connect 80 0 52 0;
#X connect 81 0 87 0;
#X connect 82 0 81 0;
#X connect 83 0 84 0;
#X connect 84 0 86 0;
#X connect 85 0 50 0;
#X connect 86 0 76 0;
#X connect 87 0 75 0;
