#N canvas 741 172 1179 770 10;
#X obj 106 110 notein;
#X obj 106 152 pack f f f;
#X obj 106 173 s \$0-poly;
#X obj 54 595 *~ 0.7;
#X obj 54 616 clip~ -1 1;
#X obj 54 637 hip~ 3;
#X obj 54 658 *~ 0.7;
#X obj 54 679 dac~ 1 2;
#X obj 300 78 r \$0-poly;
#X obj 300 120 unpack f f;
#N canvas 0 23 696 428 pb.tri~ 0;
#X obj 125 13 inlet~ freq;
#X obj 12 69 phasor~;
#X obj 125 140 *~;
#X obj 12 199 +~;
#N canvas 0 22 220 222 saw 0;
#X obj 62 119 -~ 1;
#X obj 62 141 outlet~;
#X obj 62 73 inlet~;
#X obj 62 97 +~;
#X connect 0 0 1 0;
#X connect 2 0 3 0;
#X connect 2 0 3 1;
#X connect 3 0 0 0;
#X restore 12 172 pd saw;
#X obj 372 113 wrap~;
#X obj 312 216 -~;
#X obj 327 189 +~;
#N canvas 0 22 220 222 saw 0;
#X obj 62 119 -~ 1;
#X obj 62 141 outlet~;
#X obj 62 73 inlet~;
#X obj 62 97 +~;
#X connect 0 0 1 0;
#X connect 2 0 3 0;
#X connect 2 0 3 1;
#X connect 3 0 0 0;
#X restore 327 162 pd saw;
#N canvas 0 22 253 235 1/Fs 0;
#X obj 55 77 samplerate~;
#X obj 55 57 loadbang;
#X msg 55 97 1 \$1;
#X obj 55 117 /;
#X obj 55 137 sig~;
#X obj 55 159 outlet~;
#X connect 0 0 2 0;
#X connect 1 0 0 0;
#X connect 2 0 3 0;
#X connect 3 0 4 0;
#X connect 4 0 5 0;
#X restore 140 113 pd 1/Fs;
#N canvas 0 22 532 303 polyblep 0;
#X obj 147 244 -~;
#X obj 372 82 -~;
#X obj 157 12 sig~ 1;
#X obj 177 49 /~;
#X obj 147 271 outlet~;
#X obj 12 12 inlet~ phase;
#X obj 387 12 inlet~ normalisedFreq;
#X obj 12 190 *~;
#X obj 162 190 *~;
#X obj 12 106 *~;
#X obj 162 163 -~;
#N canvas 467 216 175 111 @hv_obj 0;
#X obj 62 22 inlet~;
#X obj 12 12 inlet~;
#X obj 12 66 outlet~;
#X obj 12 39 *~;
#X connect 0 0 3 1;
#X connect 1 0 3 0;
#X connect 3 0 2 0;
#X restore 12 217 pd @hv_obj __and~f;
#N canvas 116 32 191 233 @hv_obj 0;
#X obj 49 83 -~;
#X obj 50 109 clip~ -1e-37 0;
#X obj 49 32 inlet~;
#X obj 93 33 inlet~;
#X obj 50 174 outlet~;
#X obj 50 151 *~ 1e+37;
#X obj 49 58 min~;
#X obj 50 130 +~ 1e-37;
#X connect 0 0 1 0;
#X connect 1 0 7 0;
#X connect 2 0 6 0;
#X connect 2 0 0 1;
#X connect 3 0 6 1;
#X connect 5 0 4 0;
#X connect 6 0 0 0;
#X connect 7 0 5 0;
#X restore 117 109 pd @hv_obj __lte~f;
#N canvas 258 74 144 198 @hv_obj 0;
#X obj 23 69 -~;
#X obj 23 94 clip~ -1e-37 0;
#X obj 23 18 inlet~;
#X obj 67 19 inlet~;
#X obj 23 159 outlet~;
#X obj 23 136 *~ 1e+37;
#X obj 23 44 min~;
#X obj 23 115 +~ 1e-37;
#X connect 0 0 1 0;
#X connect 1 0 7 0;
#X connect 2 0 6 0;
#X connect 3 0 6 1;
#X connect 3 0 0 1;
#X connect 5 0 4 0;
#X connect 6 0 0 0;
#X connect 7 0 5 0;
#X restore 267 109 pd @hv_obj __gte~f;
#X obj 177 136 -~;
#X obj 12 163 -~;
#N canvas 467 216 175 111 @hv_obj 0;
#X obj 62 22 inlet~;
#X obj 12 12 inlet~;
#X obj 12 66 outlet~;
#X obj 12 39 *~;
#X connect 0 0 3 1;
#X connect 1 0 3 0;
#X connect 3 0 2 0;
#X restore 162 217 pd @hv_obj __and~f;
#X connect 0 0 4 0;
#X connect 1 0 13 1;
#X connect 2 0 3 0;
#X connect 2 0 1 0;
#X connect 2 0 14 1;
#X connect 2 0 15 1;
#X connect 3 0 9 1;
#X connect 3 0 14 0;
#X connect 5 0 9 0;
#X connect 5 0 12 0;
#X connect 5 0 13 0;
#X connect 6 0 1 1;
#X connect 6 0 3 1;
#X connect 6 0 12 1;
#X connect 7 0 11 0;
#X connect 8 0 16 0;
#X connect 9 0 10 0;
#X connect 9 0 15 0;
#X connect 10 0 8 0;
#X connect 10 0 8 1;
#X connect 11 0 0 0;
#X connect 12 0 11 1;
#X connect 13 0 16 1;
#X connect 14 0 10 1;
#X connect 15 0 7 0;
#X connect 15 0 7 1;
#X connect 16 0 0 1;
#X restore 62 182 pd polyblep;
#N canvas 0 22 532 303 polyblep 0;
#X obj 147 244 -~;
#X obj 372 82 -~;
#X obj 157 12 sig~ 1;
#X obj 177 49 /~;
#X obj 147 271 outlet~;
#X obj 12 12 inlet~ phase;
#X obj 387 12 inlet~ normalisedFreq;
#X obj 12 190 *~;
#X obj 162 190 *~;
#X obj 12 106 *~;
#X obj 162 163 -~;
#N canvas 467 216 175 111 @hv_obj 0;
#X obj 62 22 inlet~;
#X obj 12 12 inlet~;
#X obj 12 66 outlet~;
#X obj 12 39 *~;
#X connect 0 0 3 1;
#X connect 1 0 3 0;
#X connect 3 0 2 0;
#X restore 12 217 pd @hv_obj __and~f;
#N canvas 116 32 191 233 @hv_obj 0;
#X obj 49 83 -~;
#X obj 50 109 clip~ -1e-37 0;
#X obj 49 32 inlet~;
#X obj 93 33 inlet~;
#X obj 50 174 outlet~;
#X obj 50 151 *~ 1e+37;
#X obj 49 58 min~;
#X obj 50 130 +~ 1e-37;
#X connect 0 0 1 0;
#X connect 1 0 7 0;
#X connect 2 0 6 0;
#X connect 2 0 0 1;
#X connect 3 0 6 1;
#X connect 5 0 4 0;
#X connect 6 0 0 0;
#X connect 7 0 5 0;
#X restore 117 109 pd @hv_obj __lte~f;
#N canvas 258 74 144 198 @hv_obj 0;
#X obj 23 69 -~;
#X obj 23 94 clip~ -1e-37 0;
#X obj 23 18 inlet~;
#X obj 67 19 inlet~;
#X obj 23 159 outlet~;
#X obj 23 136 *~ 1e+37;
#X obj 23 44 min~;
#X obj 23 115 +~ 1e-37;
#X connect 0 0 1 0;
#X connect 1 0 7 0;
#X connect 2 0 6 0;
#X connect 3 0 6 1;
#X connect 3 0 0 1;
#X connect 5 0 4 0;
#X connect 6 0 0 0;
#X connect 7 0 5 0;
#X restore 267 109 pd @hv_obj __gte~f;
#X obj 177 136 -~;
#X obj 12 163 -~;
#N canvas 467 216 175 111 @hv_obj 0;
#X obj 62 22 inlet~;
#X obj 12 12 inlet~;
#X obj 12 66 outlet~;
#X obj 12 39 *~;
#X connect 0 0 3 1;
#X connect 1 0 3 0;
#X connect 3 0 2 0;
#X restore 162 217 pd @hv_obj __and~f;
#X connect 0 0 4 0;
#X connect 1 0 13 1;
#X connect 2 0 3 0;
#X connect 2 0 1 0;
#X connect 2 0 14 1;
#X connect 2 0 15 1;
#X connect 3 0 9 1;
#X connect 3 0 14 0;
#X connect 5 0 9 0;
#X connect 5 0 12 0;
#X connect 5 0 13 0;
#X connect 6 0 1 1;
#X connect 6 0 3 1;
#X connect 6 0 12 1;
#X connect 7 0 11 0;
#X connect 8 0 16 0;
#X connect 9 0 10 0;
#X connect 9 0 15 0;
#X connect 10 0 8 0;
#X connect 10 0 8 1;
#X connect 11 0 0 0;
#X connect 12 0 11 1;
#X connect 13 0 16 1;
#X connect 14 0 10 1;
#X connect 15 0 7 0;
#X connect 15 0 7 1;
#X connect 16 0 0 1;
#X restore 372 157 pd polyblep;
#X obj 565 52 inlet phase;
#X obj 312 329 rpole~;
#X obj 520 168 loadbang;
#X obj 520 190 samplerate~;
#X obj 452 192 /~;
#X obj 377 246 /~;
#X obj 452 170 sig~ 1000;
#X obj 377 268 exp~;
#X obj 312 307 *~;
#X obj 327 285 -~;
#X obj 520 212 / 1000;
#X obj 452 229 *~;
#X obj 377 224 sig~ -0.5;
#X obj 312 351 *~ 8;
#X obj 312 373 clip~ -1 1;
#X obj 157 307 outlet~ square;
#X obj 467 30 abs~;
#X obj 467 52 clip~ 0 44100;
#X obj 312 395 outlet~ triangle;
#X obj 327 263 sig~ 1;
#X obj 222 103 +~;
#X obj 222 130 wrap~;
#X obj 157 226 -~;
#X obj 172 189 +~;
#N canvas 0 22 220 222 saw 0;
#X obj 62 119 -~ 1;
#X obj 62 141 outlet~;
#X obj 62 73 inlet~;
#X obj 62 97 +~;
#X connect 0 0 1 0;
#X connect 2 0 3 0;
#X connect 2 0 3 1;
#X connect 3 0 0 0;
#X restore 172 162 pd saw;
#X obj 157 280 -~ 1;
#X obj 157 253 +~;
#X obj 295 86 samphold~;
#X obj 295 193 +~;
#X obj 295 37 inlet~ width;
#N canvas 0 22 532 303 polyblep 0;
#X obj 147 244 -~;
#X obj 372 82 -~;
#X obj 157 12 sig~ 1;
#X obj 177 49 /~;
#X obj 147 271 outlet~;
#X obj 12 12 inlet~ phase;
#X obj 387 12 inlet~ normalisedFreq;
#X obj 12 190 *~;
#X obj 162 190 *~;
#X obj 12 106 *~;
#X obj 162 163 -~;
#N canvas 467 216 175 111 @hv_obj 0;
#X obj 62 22 inlet~;
#X obj 12 12 inlet~;
#X obj 12 66 outlet~;
#X obj 12 39 *~;
#X connect 0 0 3 1;
#X connect 1 0 3 0;
#X connect 3 0 2 0;
#X restore 12 217 pd @hv_obj __and~f;
#N canvas 116 32 191 233 @hv_obj 0;
#X obj 49 83 -~;
#X obj 50 109 clip~ -1e-37 0;
#X obj 49 32 inlet~;
#X obj 93 33 inlet~;
#X obj 50 174 outlet~;
#X obj 50 151 *~ 1e+37;
#X obj 49 58 min~;
#X obj 50 130 +~ 1e-37;
#X connect 0 0 1 0;
#X connect 1 0 7 0;
#X connect 2 0 6 0;
#X connect 2 0 0 1;
#X connect 3 0 6 1;
#X connect 5 0 4 0;
#X connect 6 0 0 0;
#X connect 7 0 5 0;
#X restore 117 109 pd @hv_obj __lte~f;
#N canvas 258 74 144 198 @hv_obj 0;
#X obj 23 69 -~;
#X obj 23 94 clip~ -1e-37 0;
#X obj 23 18 inlet~;
#X obj 67 19 inlet~;
#X obj 23 159 outlet~;
#X obj 23 136 *~ 1e+37;
#X obj 23 44 min~;
#X obj 23 115 +~ 1e-37;
#X connect 0 0 1 0;
#X connect 1 0 7 0;
#X connect 2 0 6 0;
#X connect 3 0 6 1;
#X connect 3 0 0 1;
#X connect 5 0 4 0;
#X connect 6 0 0 0;
#X connect 7 0 5 0;
#X restore 267 109 pd @hv_obj __gte~f;
#X obj 177 136 -~;
#X obj 12 163 -~;
#N canvas 467 216 175 111 @hv_obj 0;
#X obj 62 22 inlet~;
#X obj 12 12 inlet~;
#X obj 12 66 outlet~;
#X obj 12 39 *~;
#X connect 0 0 3 1;
#X connect 1 0 3 0;
#X connect 3 0 2 0;
#X restore 162 217 pd @hv_obj __and~f;
#X connect 0 0 4 0;
#X connect 1 0 13 1;
#X connect 2 0 3 0;
#X connect 2 0 1 0;
#X connect 2 0 14 1;
#X connect 2 0 15 1;
#X connect 3 0 9 1;
#X connect 3 0 14 0;
#X connect 5 0 9 0;
#X connect 5 0 12 0;
#X connect 5 0 13 0;
#X connect 6 0 1 1;
#X connect 6 0 3 1;
#X connect 6 0 12 1;
#X connect 7 0 11 0;
#X connect 8 0 16 0;
#X connect 9 0 10 0;
#X connect 9 0 15 0;
#X connect 10 0 8 0;
#X connect 10 0 8 1;
#X connect 11 0 0 0;
#X connect 12 0 11 1;
#X connect 13 0 16 1;
#X connect 14 0 10 1;
#X connect 15 0 7 0;
#X connect 15 0 7 1;
#X connect 16 0 0 1;
#X restore 222 157 pd polyblep;
#X obj 295 59 clip~ 0 1;
#X obj 12 278 *~ -1;
#X obj 372 86 +~ 0.5;
#X obj 542 25 / 2;
#X obj 600 83 cos~;
#X obj 600 104 outlet~ sine;
#X obj 12 300 outlet~ saw;
#X connect 0 0 28 0;
#X connect 1 0 4 0;
#X connect 1 0 10 0;
#X connect 1 0 32 0;
#X connect 1 0 39 1;
#X connect 1 0 45 0;
#X connect 1 0 47 0;
#X connect 2 0 10 1;
#X connect 2 0 11 1;
#X connect 2 0 42 1;
#X connect 3 0 6 0;
#X connect 3 0 34 0;
#X connect 3 0 44 0;
#X connect 4 0 3 0;
#X connect 5 0 8 0;
#X connect 5 0 11 0;
#X connect 6 0 20 0;
#X connect 7 0 6 1;
#X connect 8 0 7 0;
#X connect 9 0 2 1;
#X connect 10 0 3 1;
#X connect 11 0 7 1;
#X connect 12 0 1 1;
#X connect 13 0 25 0;
#X connect 14 0 15 0;
#X connect 15 0 22 0;
#X connect 15 0 46 0;
#X connect 16 0 23 0;
#X connect 17 0 19 0;
#X connect 18 0 16 0;
#X connect 19 0 13 1;
#X connect 19 0 21 1;
#X connect 20 0 13 0;
#X connect 21 0 20 1;
#X connect 22 0 23 1;
#X connect 23 0 17 1;
#X connect 24 0 17 0;
#X connect 25 0 26 0;
#X connect 26 0 30 0;
#X connect 28 0 29 0;
#X connect 29 0 16 1;
#X connect 29 0 1 0;
#X connect 29 0 2 0;
#X connect 31 0 21 0;
#X connect 32 0 33 0;
#X connect 33 0 36 0;
#X connect 33 0 42 0;
#X connect 34 0 38 0;
#X connect 35 0 34 1;
#X connect 36 0 35 0;
#X connect 37 0 27 0;
#X connect 38 0 37 0;
#X connect 39 0 32 1;
#X connect 39 0 40 0;
#X connect 39 0 40 1;
#X connect 40 0 38 1;
#X connect 41 0 43 0;
#X connect 42 0 35 1;
#X connect 43 0 39 0;
#X connect 44 0 49 0;
#X connect 45 0 5 0;
#X connect 46 0 29 2;
#X connect 47 0 48 0;
#X restore 300 532 pd pb.tri~;
#X obj 300 141 mtof;
#X obj 328 511 sig~ 0.5;
#X obj 216 519 nbx 4 17 -100 0 0 1 \$0-snd-dbl empty empty 0 -8 0 10
-262144 -1 -1 -24 256;
#X obj 428 286 r \$0-snd-dbl;
#X obj 300 553 *~;
#X obj 386 141 sel 0;
#X obj 413 162 - 1;
#X obj 413 183 / 126;
#X msg 413 204 1 \$1;
#X obj 413 225 -;
#X obj 413 307 *;
#X obj 413 328 + 100;
#X obj 413 349 dbtorms;
#X obj 300 99 route 1;
#X obj 300 574 throw~ \$0-M;
#X obj 54 553 catch~ \$0-M;
#X obj 54 574 /~ 1;
#X obj 106 131 poly 1 1;
#X obj 413 246 pow 2;
#N canvas 843 215 451 384 hv-curve~ 0;
#X obj 106 70 unpack f f f;
#X obj 31 355 outlet~;
#X obj 106 224 -~;
#X obj 138 210 sig~ 1;
#X obj 138 231 -~;
#X obj 188 196 *~;
#X obj 106 245 *~;
#X obj 91 294 +~;
#X obj 106 272 /~;
#X obj 223 200 sig~ 1;
#X obj 223 222 -~;
#X obj 223 258 +~;
#X obj 31 164 sig~ 1;
#X obj 31 185 -~;
#X obj 31 206 *~;
#X obj 31 227 +~;
#X obj 74 213 *~;
#N canvas 0 22 234 183 <=~ 0;
#X obj 150 34 inlet~;
#X obj 45 34 inlet~;
#X obj 45 129 outlet~;
#N canvas 467 216 450 300 @hv_obj 0;
#X obj 217 60 inlet~;
#X obj 120 60 inlet~;
#X obj 170 183 outlet~;
#X connect 1 0 2 0;
#X restore 45 105 pd @hv_obj __and~f;
#X obj 150 83 sig~ 1;
#N canvas 715 101 191 233 @hv_obj 0;
#X obj 49 83 -~;
#X obj 50 109 clip~ -1e-37 0;
#X obj 49 32 inlet~;
#X obj 93 33 inlet~;
#X obj 50 174 outlet~;
#X obj 50 151 *~ 1e+37;
#X obj 49 58 min~;
#X obj 50 130 +~ 1e-37;
#X connect 0 0 1 0;
#X connect 1 0 7 0;
#X connect 2 0 6 0;
#X connect 2 0 0 1;
#X connect 3 0 6 1;
#X connect 5 0 4 0;
#X connect 6 0 0 0;
#X connect 7 0 5 0;
#X restore 45 57 pd @hv_obj __lte~f;
#X connect 0 0 5 1;
#X connect 1 0 5 0;
#X connect 3 0 2 0;
#X connect 4 0 3 1;
#X connect 5 0 3 0;
#X restore 306 212 pd <=~;
#N canvas 0 22 255 189 >=~ 0;
#X obj 150 34 inlet~;
#X obj 45 34 inlet~;
#X obj 45 129 outlet~;
#N canvas 467 216 290 220 @hv_obj 0;
#X obj 158 52 inlet~;
#X obj 61 52 inlet~;
#X obj 61 136 outlet~;
#X obj 61 100 *~;
#X connect 0 0 3 1;
#X connect 1 0 3 0;
#X connect 3 0 2 0;
#X restore 45 105 pd @hv_obj __and~f;
#X obj 150 83 sig~ 1;
#N canvas 249 541 148 189 @hv_obj 0;
#X obj 23 69 -~;
#X obj 23 94 clip~ -1e-37 0;
#X obj 23 18 inlet~;
#X obj 67 19 inlet~;
#X obj 23 159 outlet~;
#X obj 23 136 *~ 1e+37;
#X obj 23 44 min~;
#X obj 23 115 +~ 1e-37;
#X connect 0 0 1 0;
#X connect 1 0 7 0;
#X connect 2 0 6 0;
#X connect 3 0 6 1;
#X connect 3 0 0 1;
#X connect 5 0 4 0;
#X connect 6 0 0 0;
#X connect 7 0 5 0;
#X restore 45 57 pd @hv_obj __gte~f;
#X connect 0 0 5 1;
#X connect 1 0 5 0;
#X connect 3 0 2 0;
#X connect 4 0 3 1;
#X connect 5 0 3 0;
#X restore 356 220 pd >=~;
#X obj 389 198 sig~ 0;
#X obj 306 234 *~;
#X obj 291 279 sig~ 1;
#X obj 291 301 -~;
#X obj 31 248 *~;
#X obj 91 315 *~;
#X obj 31 329 +~;
#X obj 106 121 line~;
#X obj 46 126 line~;
#X obj 12 12 inlet list;
#N canvas 349 167 179 187 hv.vline 0;
#X obj 12 34 t a b;
#X msg 75 56 0;
#N canvas 274 138 292 165 dbl-pipe 0;
#X obj 22 22 inlet;
#X obj 82 22 inlet;
#X obj 182 22 inlet;
#X obj 22 64 pipe 0;
#X obj 82 64 pipe 0;
#X obj 22 86 outlet;
#X obj 82 86 outlet;
#X obj 132 64 pipe 0;
#X obj 132 86 outlet;
#X obj 132 22 inlet;
#X connect 0 0 3 0;
#X connect 0 0 4 0;
#X connect 1 0 4 0;
#X connect 2 0 3 1;
#X connect 2 0 4 1;
#X connect 2 0 7 1;
#X connect 3 0 5 0;
#X connect 4 0 6 0;
#X connect 7 0 8 0;
#X connect 9 0 7 0;
#X restore 12 100 pd dbl-pipe;
#X obj 12 78 unpack f f f f;
#X obj 12 122 pack f f f;
#X obj 12 12 inlet;
#X obj 12 144 outlet;
#X connect 0 0 3 0;
#X connect 0 1 1 0;
#X connect 1 0 2 3;
#X connect 2 0 4 0;
#X connect 2 1 4 1;
#X connect 2 2 4 2;
#X connect 3 0 2 0;
#X connect 3 1 2 1;
#X connect 3 2 2 2;
#X connect 3 3 2 3;
#X connect 4 0 6 0;
#X connect 5 0 0 0;
#X restore 12 34 pd hv.vline;
#X obj 12 56 t a b a;
#X obj 268 84 sig~;
#X msg 46 104 0 \, 1 \$1;
#X obj 121 192 samphold~;
#X obj 12 78 unpack f f f;
#X msg 172 97 -1 \, 0 1;
#X obj 172 119 line~;
#X obj 188 217 exp~;
#X obj 268 208 exp~;
#X obj 268 62 inlet curve;
#X obj 87 343 delwrite~ \$0-env 0;
#X obj 121 146 delread~ \$0-env 0;
#X obj 268 32 block~ 1 1 1;
#X connect 0 0 26 0;
#X connect 0 2 31 0;
#X connect 2 0 6 0;
#X connect 3 0 4 0;
#X connect 4 0 6 1;
#X connect 5 0 37 0;
#X connect 6 0 8 0;
#X connect 7 0 24 0;
#X connect 8 0 7 1;
#X connect 9 0 10 0;
#X connect 10 0 11 0;
#X connect 11 0 8 1;
#X connect 12 0 13 0;
#X connect 13 0 14 0;
#X connect 14 0 15 0;
#X connect 15 0 23 0;
#X connect 16 0 15 1;
#X connect 17 0 20 0;
#X connect 18 0 20 1;
#X connect 19 0 17 1;
#X connect 19 0 18 1;
#X connect 20 0 11 1;
#X connect 20 0 22 1;
#X connect 20 0 23 1;
#X connect 21 0 22 0;
#X connect 22 0 24 1;
#X connect 23 0 25 0;
#X connect 24 0 25 1;
#X connect 25 0 1 0;
#X connect 25 0 40 0;
#X connect 26 0 2 0;
#X connect 26 0 16 1;
#X connect 27 0 5 0;
#X connect 27 0 13 1;
#X connect 27 0 16 0;
#X connect 28 0 29 0;
#X connect 29 0 30 0;
#X connect 30 0 34 0;
#X connect 30 1 35 0;
#X connect 30 2 0 0;
#X connect 31 0 5 1;
#X connect 31 0 18 0;
#X connect 31 0 17 0;
#X connect 31 0 38 0;
#X connect 32 0 27 0;
#X connect 33 0 2 1;
#X connect 33 0 7 0;
#X connect 33 0 14 1;
#X connect 34 1 32 0;
#X connect 35 0 36 0;
#X connect 36 0 33 1;
#X connect 37 0 4 1;
#X connect 38 0 10 1;
#X connect 39 0 31 0;
#X connect 41 0 33 0;
#X restore 386 568 pd hv-curve~;
#X obj 65 283 nbx 5 17 0 10000 0 1 \$0-snd-env-atk-1 empty ATTACK 0
-8 0 10 -262144 -1 -1 100 256;
#X obj 65 318 nbx 5 17 0 10000 0 1 \$0-snd-env-dcy-1 empty DECAY 0
-8 0 10 -262144 -1 -1 100 256;
#X obj 65 353 nbx 5 17 -100 0 0 1 \$0-snd-env-sus-1 empty SUSTAIN 0
-8 0 10 -262144 -1 -1 -31 256;
#X obj 65 388 nbx 5 17 0 10000 0 1 \$0-snd-env-rel-1 empty RELEASE
0 -8 0 10 -262144 -1 -1 1000 256;
#X obj 386 481 pack f f;
#X msg 386 502 0 \$2 -3;
#X obj 586 360 + 2;
#X obj 546 465 pack f f f f f;
#X obj 431 460 r \$0-snd-env-rel-1;
#X obj 566 339 r \$0-snd-env-atk-1;
#X obj 606 381 r \$0-snd-env-dcy-1;
#X obj 627 402 r \$0-snd-env-sus-1;
#X obj 627 423 + 100;
#X obj 627 444 dbtorms;
#X msg 546 486 \$1 \$2 -3 \, \$5 \$4 -3 \$3;
#X msg 402 526 0 1 0;
#X obj 496 213 timer;
#X floatatom 496 234 5 0 0 0 - - -;
#X obj 500 178 bang;
#X connect 0 0 28 0;
#X connect 0 1 28 1;
#X connect 1 0 2 0;
#X connect 3 0 4 0;
#X connect 4 0 5 0;
#X connect 5 0 6 0;
#X connect 6 0 7 0;
#X connect 6 0 7 1;
#X connect 8 0 24 0;
#X connect 9 0 11 0;
#X connect 9 1 16 0;
#X connect 10 0 15 0;
#X connect 11 0 10 0;
#X connect 12 0 10 1;
#X connect 14 0 21 1;
#X connect 16 0 35 0;
#X connect 16 0 46 0;
#X connect 16 0 47 1;
#X connect 16 1 17 0;
#X connect 16 1 49 0;
#X connect 17 0 18 0;
#X connect 18 0 19 0;
#X connect 19 0 20 0;
#X connect 20 0 29 0;
#X connect 21 0 22 0;
#X connect 22 0 23 0;
#X connect 23 0 38 0;
#X connect 24 0 9 0;
#X connect 26 0 27 0;
#X connect 27 0 3 0;
#X connect 28 0 1 0;
#X connect 28 1 1 1;
#X connect 28 2 1 2;
#X connect 29 0 21 0;
#X connect 30 0 15 1;
#X connect 35 0 36 0;
#X connect 37 0 38 2;
#X connect 38 0 45 0;
#X connect 39 0 35 1;
#X connect 40 0 37 0;
#X connect 40 0 38 1;
#X connect 41 0 38 3;
#X connect 42 0 43 0;
#X connect 43 0 44 0;
#X connect 44 0 38 4;
#X connect 45 0 30 0;
#X connect 46 0 30 0;
#X connect 47 0 48 0;
#X connect 49 0 47 0;
