#N canvas 822 196 737 714 10;
#N canvas 422 528 1498 488 sub.karplus 0;
#X obj 2 152 block~ 1 1 1;
#X obj 139 315 inlet~;
#X obj 228 349 delwrite~ \$0-karplus 100;
#X obj 236 253 delread4~ \$0-karplus;
#X obj 216 438 outlet~;
#X obj 236 189 sig~ 1000;
#X obj 236 232 /~;
#X obj 206 333 +~;
#X obj 304 174 r \$0-midi;
#X obj 372 137 - 100;
#X obj 372 116 random 201;
#X obj 372 158 / 100;
#X obj 304 216 mtof;
#X obj 416 189 sig~ 1000;
#X obj 416 232 /~;
#X obj 386 333 +~;
#X obj 484 174 r \$0-midi;
#X obj 552 137 - 100;
#X obj 552 116 random 201;
#X obj 552 158 / 100;
#X obj 484 216 mtof;
#X obj 626 189 sig~ 1000;
#X obj 626 232 /~;
#X obj 596 333 +~;
#X obj 694 174 r \$0-midi;
#X obj 762 137 - 100;
#X obj 762 116 random 201;
#X obj 762 158 / 100;
#X obj 694 216 mtof;
#X obj 408 349 delwrite~ \$0-karplus-2 100;
#X obj 416 253 delread4~ \$0-karplus-2;
#X obj 618 349 delwrite~ \$0-karplus-3 100;
#X obj 626 253 delread4~ \$0-karplus-3;
#X obj 206 384 /~ 3;
#X obj 352 314 inlet~;
#X obj 555 307 inlet~;
#X obj 372 31 r \$0-midi;
#X obj 372 52 t b f;
#X obj 399 73 + 0;
#X msg 399 94 seed \$1;
#X obj 552 31 r \$0-midi;
#X obj 552 52 t b f;
#X msg 579 94 seed \$1;
#X obj 762 31 r \$0-midi;
#X obj 762 52 t b f;
#X msg 789 94 seed \$1;
#X obj 579 73 + 1;
#X obj 789 73 + 2;
#X obj 304 195 + 0;
#X obj 484 195 + 0.1;
#X obj 694 195 + 0.2;
#X obj 140 271 *~ 0.01;
#X obj 331 277 *~ 0.01;
#X obj 541 271 *~ 0.01;
#X obj 236 317 *~ 0.99;
#X obj 416 317 *~ 0.99;
#X obj 626 317 *~ 0.99;
#X msg 1046 236 0.001;
#X obj 1046 257 log;
#X obj 962 124 r \$0-freq;
#X msg 1012 171 1000 \$1;
#X obj 1012 192 /;
#X obj 1012 213 t f b;
#X obj 1012 254 *;
#X obj 1012 296 exp;
#X msg 932 327 1 \$1;
#X obj 932 348 -;
#X obj 932 369 s \$0-sym;
#X obj 1012 317 s \$0-gain;
#X obj 688 301 r \$0-gain;
#X obj 478 301 r \$0-gain;
#X obj 298 301 r \$0-gain;
#X obj 179 247 r \$0-sym;
#X obj 360 240 r \$0-sym;
#X obj 570 240 r \$0-sym;
#X obj 811 254 r \$0-freq;
#X obj 811 275 * 8;
#X obj 811 296 clip 6000 6500;
#X obj 372 180 * 0.1;
#X obj 762 179 * 0.1;
#X obj 236 296 hip~ 50;
#X obj 416 296 hip~ 50;
#X obj 626 295 hip~ 50;
#X obj 553 179 * 0.1;
#X obj 1012 275 / 5000;
#X obj 236 275 lop~ 7000;
#X obj 417 275 lop~ 7000;
#X obj 626 275 lop~ 7000;
#X connect 1 0 7 0;
#X connect 3 0 52 0;
#X connect 3 0 85 0;
#X connect 5 0 6 0;
#X connect 6 0 3 0;
#X connect 7 0 2 0;
#X connect 7 0 33 0;
#X connect 8 0 48 0;
#X connect 9 0 11 0;
#X connect 10 0 9 0;
#X connect 11 0 78 0;
#X connect 12 0 6 1;
#X connect 13 0 14 0;
#X connect 14 0 30 0;
#X connect 15 0 29 0;
#X connect 15 0 33 0;
#X connect 16 0 49 0;
#X connect 17 0 19 0;
#X connect 18 0 17 0;
#X connect 19 0 83 0;
#X connect 20 0 14 1;
#X connect 21 0 22 0;
#X connect 22 0 32 0;
#X connect 23 0 31 0;
#X connect 23 0 33 0;
#X connect 24 0 50 0;
#X connect 25 0 27 0;
#X connect 26 0 25 0;
#X connect 27 0 79 0;
#X connect 28 0 22 1;
#X connect 30 0 53 0;
#X connect 30 0 86 0;
#X connect 32 0 51 0;
#X connect 32 0 87 0;
#X connect 33 0 4 0;
#X connect 34 0 15 0;
#X connect 35 0 23 0;
#X connect 36 0 37 0;
#X connect 37 0 10 0;
#X connect 37 1 38 0;
#X connect 38 0 39 0;
#X connect 40 0 41 0;
#X connect 41 0 18 0;
#X connect 41 1 46 0;
#X connect 43 0 44 0;
#X connect 44 0 26 0;
#X connect 44 1 47 0;
#X connect 46 0 42 0;
#X connect 47 0 45 0;
#X connect 48 0 12 0;
#X connect 49 0 20 0;
#X connect 50 0 28 0;
#X connect 51 0 7 1;
#X connect 52 0 15 1;
#X connect 53 0 23 1;
#X connect 54 0 7 1;
#X connect 55 0 15 1;
#X connect 56 0 23 1;
#X connect 57 0 58 0;
#X connect 58 0 63 1;
#X connect 59 0 60 0;
#X connect 60 0 61 0;
#X connect 61 0 62 0;
#X connect 62 0 63 0;
#X connect 62 1 57 0;
#X connect 63 0 84 0;
#X connect 64 0 65 0;
#X connect 64 0 68 0;
#X connect 65 0 66 0;
#X connect 66 0 67 0;
#X connect 69 0 56 1;
#X connect 70 0 55 1;
#X connect 71 0 54 1;
#X connect 72 0 51 1;
#X connect 73 0 52 1;
#X connect 74 0 53 1;
#X connect 75 0 76 0;
#X connect 76 0 77 0;
#X connect 77 0 85 1;
#X connect 77 0 86 1;
#X connect 77 0 87 1;
#X connect 78 0 48 1;
#X connect 79 0 50 1;
#X connect 80 0 54 0;
#X connect 81 0 55 0;
#X connect 82 0 56 0;
#X connect 83 0 49 1;
#X connect 84 0 64 0;
#X connect 85 0 80 0;
#X connect 86 0 81 0;
#X connect 87 0 82 0;
#X restore 47 518 pd sub.karplus;
#X obj 151 165 > 0;
#X obj 47 693 outlet~;
#X obj 94 12 inlet;
#X obj 94 33 unpack f f;
#X obj 145 617 r \$0-gate;
#X obj 145 638 sel 1;
#X obj 145 683 switch~;
#X msg 145 659 1;
#X obj 12 81 list prepend;
#X obj 12 102 route 1;
#X obj 151 59 clip 0 127;
#X obj 151 80 t f f;
#X obj 151 186 s \$0-gate;
#X obj 12 123 s \$0-midi;
#X obj 12 144 r \$0-midi;
#X obj 12 165 mtof;
#X obj 12 186 s \$0-freq;
#X obj 81 60 r \$0-gate;
#X obj 178 101 sel 0;
#X obj 205 122 - 1;
#X obj 205 143 / 126;
#X obj 205 164 s \$0-vel;
#X obj 47 391 *~;
#X obj 147 366 noise~;
#X obj 68 328 pow~ 12;
#X obj 47 412 lop~ 3000;
#X obj 68 307 vline~;
#X obj 68 183 r \$0-freq;
#X msg 68 204 1000 \$1;
#X obj 68 225 /;
#X obj 157 391 *~;
#X obj 213 375 noise~;
#X obj 157 412 lop~ 3000;
#X obj 257 391 *~;
#X obj 313 375 noise~;
#X obj 257 412 lop~ 3000;
#X obj 433 220 r \$0-vel;
#X msg 430 292 2 \$1;
#X obj 430 313 pow;
#X obj 433 241 pow 2;
#X obj 430 355 s \$0-cut;
#X obj 366 396 r \$0-cut;
#X obj 68 246 t f f;
#X obj 68 267 pack f f;
#X msg 68 286 1 \$1 \, 0 \$2 \$1;
#X obj 123 249 * 64;
#X obj 57 580 env~ 4096;
#X obj 57 601 change;
#X obj 57 622 sel 0;
#X msg 57 643 9;
#X obj 47 475 hip~ 200;
#X obj 47 453 hip~ 200;
#X obj 157 454 hip~ 200;
#X obj 158 475 hip~ 200;
#X obj 257 475 hip~ 200;
#X obj 257 453 hip~ 200;
#X obj 47 559 *~ 0.7;
#X obj 244 207 r \$0-vel;
#X msg 244 228 1 \$1;
#X obj 244 249 -;
#X obj 244 291 + 100;
#X obj 244 312 dbtorms;
#X obj 68 349 *~;
#X obj 430 267 * 5;
#X obj 430 334 * 500;
#X obj 243 269 * -12;
#X connect 0 0 57 0;
#X connect 1 0 13 0;
#X connect 3 0 4 0;
#X connect 4 0 9 0;
#X connect 4 1 11 0;
#X connect 5 0 6 0;
#X connect 6 0 8 0;
#X connect 8 0 7 0;
#X connect 9 0 10 0;
#X connect 10 0 14 0;
#X connect 11 0 12 0;
#X connect 12 0 1 0;
#X connect 12 1 19 0;
#X connect 15 0 16 0;
#X connect 16 0 17 0;
#X connect 18 0 9 1;
#X connect 19 1 20 0;
#X connect 20 0 21 0;
#X connect 21 0 22 0;
#X connect 23 0 26 0;
#X connect 24 0 23 1;
#X connect 25 0 63 0;
#X connect 26 0 52 0;
#X connect 27 0 25 0;
#X connect 28 0 29 0;
#X connect 29 0 30 0;
#X connect 30 0 43 0;
#X connect 31 0 33 0;
#X connect 32 0 31 1;
#X connect 33 0 53 0;
#X connect 34 0 36 0;
#X connect 35 0 34 1;
#X connect 36 0 56 0;
#X connect 37 0 40 0;
#X connect 38 0 39 0;
#X connect 39 0 65 0;
#X connect 40 0 64 0;
#X connect 42 0 36 1;
#X connect 42 0 33 1;
#X connect 42 0 26 1;
#X connect 43 0 44 0;
#X connect 43 1 46 0;
#X connect 44 0 45 0;
#X connect 45 0 27 0;
#X connect 46 0 44 1;
#X connect 47 0 48 0;
#X connect 48 0 49 0;
#X connect 49 0 50 0;
#X connect 50 0 7 0;
#X connect 51 0 0 0;
#X connect 52 0 51 0;
#X connect 53 0 54 0;
#X connect 54 0 0 1;
#X connect 55 0 0 2;
#X connect 56 0 55 0;
#X connect 57 0 2 0;
#X connect 57 0 47 0;
#X connect 58 0 59 0;
#X connect 59 0 60 0;
#X connect 60 0 66 0;
#X connect 61 0 62 0;
#X connect 62 0 63 1;
#X connect 63 0 23 0;
#X connect 63 0 31 0;
#X connect 63 0 34 0;
#X connect 64 0 38 0;
#X connect 65 0 41 0;
#X connect 66 0 61 0;
