#N canvas 446 93 1262 675 10;
#X obj 114 388 *~ 0.7;
#X obj 114 409 hip~ 3;
#X obj 114 430 clip~ -1 1;
#X obj 114 452 dac~ 1 2;
#X obj 194 338 tgl 17 0 empty empty empty 17 7 0 10 -262144 -1 -1 1
1;
#X obj 194 360 metro 50;
#X obj 194 381 tabwrite~ \$0-scope;
#N canvas 0 22 450 278 (subpatch) 0;
#X array \$0-scope 441 float 0;
#X coords 0 1 441 -1 200 140 1;
#X restore 114 482 graph;
#X obj 12 12 noise~;
#X obj 352 97 r \$0-poly;
#X obj 352 118 route 1;
#X obj 352 139 unpack f f;
#X obj 352 160 mtof;
#X obj 341 264 str~;
#X obj 12 33 s~ \$0-nse;
#X obj 341 222 r~ \$0-nse;
#X obj 341 243 *~;
#X obj 341 285 throw~ \$0-M;
#X obj 114 346 catch~ \$0-M;
#X obj 405 159 / 127;
#X obj 80 29 nbx 5 17 1 1e+37 0 1 empty empty ATTACK 0 -8 0 10 -262144
-1 -1 1000 256;
#X obj 260 29 nbx 5 17 1 1e+37 0 1 empty empty RELEASE 0 -8 0 10 -262144
-1 -1 3000 256;
#X obj 405 180 sel 0;
#X obj 260 51 v \$0-rel;
#X obj 405 201 v \$0-rel;
#X msg 405 222 0 \$1;
#X obj 80 51 s \$0-atk;
#X obj 194 257 loadbang;
#X obj 194 299 array set \$0-scale;
#X obj 194 320 array define \$0-scale;
#X obj 269 117 vsl 17 127 1 127 0 1 empty empty VELOCITY 0 -9 0 10
-262144 -1 -1 9900 1;
#X obj 269 252 nbx 3 17 1 127 0 0 empty empty empty 0 -8 0 10 -262144
-1 -1 100 256;
#X obj 12 139 unpack f f;
#X obj 269 274 v \$0-vel;
#X obj 159 174 v \$0-vel;
#X obj 159 153 sel 127;
#X obj 12 202 % 5;
#X obj 12 223 tabread \$0-scale;
#X obj 12 244 +;
#X obj 122 209 div 5;
#X obj 122 230 * 12;
#X obj 12 181 t f f;
#X obj 114 299 pack f f f;
#X obj 114 320 s \$0-poly;
#X obj 12 160 + 5;
#X msg 194 278 0 2 5 7 9;
#X obj 114 252 notein;
#X obj 12 97 r \$0-key;
#N canvas 240 74 187 121 keyboard 0;
#N canvas 4 23 491 309 z-m 0;
#X obj 32 120 t b b;
#X msg 51 142 stop;
#X obj 51 164 del 50;
#X msg 51 186 0;
#X obj 32 208 change;
#X obj 32 32 key;
#X obj 32 76 keyup;
#X obj 32 98 sel 122;
#X obj 32 54 sel 122;
#X obj 92 120 t b b;
#X msg 111 142 stop;
#X obj 111 164 del 50;
#X msg 111 186 0;
#X obj 92 208 change;
#X obj 92 32 key;
#X obj 92 76 keyup;
#X obj 152 120 t b b;
#X msg 171 142 stop;
#X obj 171 164 del 50;
#X msg 171 186 0;
#X obj 152 208 change;
#X obj 152 32 key;
#X obj 152 76 keyup;
#X obj 212 120 t b b;
#X msg 231 142 stop;
#X obj 231 164 del 50;
#X msg 231 186 0;
#X obj 212 208 change;
#X obj 212 32 key;
#X obj 212 76 keyup;
#X obj 92 98 sel 120;
#X obj 92 54 sel 120;
#X obj 152 98 sel 99;
#X obj 152 54 sel 99;
#X obj 212 98 sel 118;
#X obj 212 54 sel 118;
#X msg 32 230 1 \$1;
#X obj 272 120 t b b;
#X msg 291 142 stop;
#X obj 291 164 del 50;
#X msg 291 186 0;
#X obj 272 208 change;
#X obj 272 32 key;
#X obj 272 76 keyup;
#X obj 272 98 sel 98;
#X obj 272 54 sel 98;
#X obj 332 120 t b b;
#X msg 351 142 stop;
#X obj 351 164 del 50;
#X msg 351 186 0;
#X obj 332 208 change;
#X obj 332 32 key;
#X obj 332 76 keyup;
#X obj 332 98 sel 110;
#X obj 332 54 sel 110;
#X obj 392 120 t b b;
#X msg 411 142 stop;
#X obj 411 164 del 50;
#X msg 411 186 0;
#X obj 392 208 change;
#X obj 392 32 key;
#X obj 392 76 keyup;
#X obj 392 98 sel 109;
#X obj 392 54 sel 109;
#X msg 92 230 2 \$1;
#X msg 152 230 3 \$1;
#X msg 212 230 4 \$1;
#X msg 272 230 5 \$1;
#X msg 332 230 6 \$1;
#X msg 392 230 7 \$1;
#X msg 32 186 127;
#X msg 92 186 127;
#X msg 152 186 127;
#X msg 212 186 127;
#X msg 272 186 127;
#X msg 332 186 127;
#X msg 392 186 127;
#X obj 32 252 s \$0-key;
#X obj 92 252 s \$0-key;
#X obj 152 252 s \$0-key;
#X obj 212 252 s \$0-key;
#X obj 272 252 s \$0-key;
#X obj 332 252 s \$0-key;
#X obj 392 252 s \$0-key;
#X connect 0 0 70 0;
#X connect 0 1 1 0;
#X connect 1 0 2 0;
#X connect 2 0 3 0;
#X connect 3 0 4 0;
#X connect 4 0 36 0;
#X connect 5 0 8 0;
#X connect 6 0 7 0;
#X connect 7 0 2 0;
#X connect 8 0 0 0;
#X connect 9 0 71 0;
#X connect 9 1 10 0;
#X connect 10 0 11 0;
#X connect 11 0 12 0;
#X connect 12 0 13 0;
#X connect 13 0 64 0;
#X connect 14 0 31 0;
#X connect 15 0 30 0;
#X connect 16 0 72 0;
#X connect 16 1 17 0;
#X connect 17 0 18 0;
#X connect 18 0 19 0;
#X connect 19 0 20 0;
#X connect 20 0 65 0;
#X connect 21 0 33 0;
#X connect 22 0 32 0;
#X connect 23 0 73 0;
#X connect 23 1 24 0;
#X connect 24 0 25 0;
#X connect 25 0 26 0;
#X connect 26 0 27 0;
#X connect 27 0 66 0;
#X connect 28 0 35 0;
#X connect 29 0 34 0;
#X connect 30 0 11 0;
#X connect 31 0 9 0;
#X connect 32 0 18 0;
#X connect 33 0 16 0;
#X connect 34 0 25 0;
#X connect 35 0 23 0;
#X connect 36 0 77 0;
#X connect 37 0 74 0;
#X connect 37 1 38 0;
#X connect 38 0 39 0;
#X connect 39 0 40 0;
#X connect 40 0 41 0;
#X connect 41 0 67 0;
#X connect 42 0 45 0;
#X connect 43 0 44 0;
#X connect 44 0 39 0;
#X connect 45 0 37 0;
#X connect 46 0 75 0;
#X connect 46 1 47 0;
#X connect 47 0 48 0;
#X connect 48 0 49 0;
#X connect 49 0 50 0;
#X connect 50 0 68 0;
#X connect 51 0 54 0;
#X connect 52 0 53 0;
#X connect 53 0 48 0;
#X connect 54 0 46 0;
#X connect 55 0 76 0;
#X connect 55 1 56 0;
#X connect 56 0 57 0;
#X connect 57 0 58 0;
#X connect 58 0 59 0;
#X connect 59 0 69 0;
#X connect 60 0 63 0;
#X connect 61 0 62 0;
#X connect 62 0 57 0;
#X connect 63 0 55 0;
#X connect 64 0 78 0;
#X connect 65 0 79 0;
#X connect 66 0 80 0;
#X connect 67 0 81 0;
#X connect 68 0 82 0;
#X connect 69 0 83 0;
#X connect 70 0 4 0;
#X connect 71 0 13 0;
#X connect 72 0 20 0;
#X connect 73 0 27 0;
#X connect 74 0 41 0;
#X connect 75 0 50 0;
#X connect 76 0 59 0;
#X restore 12 72 pd z-m;
#N canvas 4 23 718 321 a-ñ 0;
#X obj 32 120 t b b;
#X msg 51 142 stop;
#X obj 51 164 del 50;
#X msg 51 186 0;
#X obj 32 208 change;
#X obj 32 32 key;
#X obj 32 76 keyup;
#X obj 92 120 t b b;
#X msg 111 142 stop;
#X obj 111 164 del 50;
#X msg 111 186 0;
#X obj 92 208 change;
#X obj 92 32 key;
#X obj 92 76 keyup;
#X obj 152 120 t b b;
#X msg 171 142 stop;
#X obj 171 164 del 50;
#X msg 171 186 0;
#X obj 152 208 change;
#X obj 152 32 key;
#X obj 152 76 keyup;
#X obj 212 120 t b b;
#X msg 231 142 stop;
#X obj 231 164 del 50;
#X msg 231 186 0;
#X obj 212 208 change;
#X obj 212 32 key;
#X obj 212 76 keyup;
#X obj 272 120 t b b;
#X msg 291 142 stop;
#X obj 291 164 del 50;
#X msg 291 186 0;
#X obj 272 208 change;
#X obj 272 32 key;
#X obj 272 76 keyup;
#X obj 332 120 t b b;
#X msg 351 142 stop;
#X obj 351 164 del 50;
#X msg 351 186 0;
#X obj 332 208 change;
#X obj 332 32 key;
#X obj 332 76 keyup;
#X obj 392 120 t b b;
#X msg 411 142 stop;
#X obj 411 164 del 50;
#X msg 411 186 0;
#X obj 392 208 change;
#X obj 392 32 key;
#X obj 392 76 keyup;
#X obj 32 54 sel 97;
#X obj 32 98 sel 97;
#X obj 92 54 sel 115;
#X obj 152 54 sel 100;
#X obj 212 54 sel 102;
#X obj 272 54 sel 103;
#X obj 332 54 sel 104;
#X obj 392 54 sel 106;
#X obj 452 120 t b b;
#X msg 471 142 stop;
#X obj 471 164 del 50;
#X msg 471 186 0;
#X obj 452 208 change;
#X obj 452 32 key;
#X obj 452 76 keyup;
#X obj 512 120 t b b;
#X msg 531 142 stop;
#X obj 531 164 del 50;
#X msg 531 186 0;
#X obj 512 208 change;
#X obj 512 32 key;
#X obj 512 76 keyup;
#X obj 512 54 sel 108;
#X obj 452 54 sel 107;
#X obj 572 120 t b b;
#X msg 591 142 stop;
#X obj 591 164 del 50;
#X msg 591 186 0;
#X obj 572 208 change;
#X obj 572 32 key;
#X obj 572 76 keyup;
#X obj 572 54 sel 241;
#X obj 92 98 sel 115;
#X obj 152 98 sel 100;
#X obj 212 98 sel 102;
#X obj 272 98 sel 103;
#X obj 332 98 sel 104;
#X obj 392 98 sel 106;
#X obj 452 98 sel 107;
#X obj 512 98 sel 108;
#X obj 572 98 sel 241;
#X msg 32 230 8 \$1;
#X msg 92 230 9 \$1;
#X msg 152 230 10 \$1;
#X msg 212 230 11 \$1;
#X msg 272 230 12 \$1;
#X msg 332 230 13 \$1;
#X msg 392 230 14 \$1;
#X msg 452 230 15 \$1;
#X msg 512 230 16 \$1;
#X msg 572 230 17 \$1;
#X msg 32 186 127;
#X msg 92 186 127;
#X msg 152 186 127;
#X msg 212 186 127;
#X msg 272 186 127;
#X msg 332 186 127;
#X msg 392 186 127;
#X msg 452 186 127;
#X msg 512 186 127;
#X msg 572 186 127;
#X obj 32 252 s \$0-key;
#X obj 92 252 s \$0-key;
#X obj 152 252 s \$0-key;
#X obj 212 252 s \$0-key;
#X obj 272 252 s \$0-key;
#X obj 332 252 s \$0-key;
#X obj 392 252 s \$0-key;
#X obj 452 252 s \$0-key;
#X obj 512 252 s \$0-key;
#X obj 572 252 s \$0-key;
#X connect 0 0 100 0;
#X connect 0 1 1 0;
#X connect 1 0 2 0;
#X connect 2 0 3 0;
#X connect 3 0 4 0;
#X connect 4 0 90 0;
#X connect 5 0 49 0;
#X connect 6 0 50 0;
#X connect 7 0 101 0;
#X connect 7 1 8 0;
#X connect 8 0 9 0;
#X connect 9 0 10 0;
#X connect 10 0 11 0;
#X connect 11 0 91 0;
#X connect 12 0 51 0;
#X connect 13 0 81 0;
#X connect 14 0 102 0;
#X connect 14 1 15 0;
#X connect 15 0 16 0;
#X connect 16 0 17 0;
#X connect 17 0 18 0;
#X connect 18 0 92 0;
#X connect 19 0 52 0;
#X connect 20 0 82 0;
#X connect 21 0 103 0;
#X connect 21 1 22 0;
#X connect 22 0 23 0;
#X connect 23 0 24 0;
#X connect 24 0 25 0;
#X connect 25 0 93 0;
#X connect 26 0 53 0;
#X connect 27 0 83 0;
#X connect 28 0 104 0;
#X connect 28 1 29 0;
#X connect 29 0 30 0;
#X connect 30 0 31 0;
#X connect 31 0 32 0;
#X connect 32 0 94 0;
#X connect 33 0 54 0;
#X connect 34 0 84 0;
#X connect 35 0 105 0;
#X connect 35 1 36 0;
#X connect 36 0 37 0;
#X connect 37 0 38 0;
#X connect 38 0 39 0;
#X connect 39 0 95 0;
#X connect 40 0 55 0;
#X connect 41 0 85 0;
#X connect 42 0 106 0;
#X connect 42 1 43 0;
#X connect 43 0 44 0;
#X connect 44 0 45 0;
#X connect 45 0 46 0;
#X connect 46 0 96 0;
#X connect 47 0 56 0;
#X connect 48 0 86 0;
#X connect 49 0 0 0;
#X connect 50 0 2 0;
#X connect 51 0 7 0;
#X connect 52 0 14 0;
#X connect 53 0 21 0;
#X connect 54 0 28 0;
#X connect 55 0 35 0;
#X connect 56 0 42 0;
#X connect 57 0 107 0;
#X connect 57 1 58 0;
#X connect 58 0 59 0;
#X connect 59 0 60 0;
#X connect 60 0 61 0;
#X connect 61 0 97 0;
#X connect 62 0 72 0;
#X connect 63 0 87 0;
#X connect 64 0 108 0;
#X connect 64 1 65 0;
#X connect 65 0 66 0;
#X connect 66 0 67 0;
#X connect 67 0 68 0;
#X connect 68 0 98 0;
#X connect 69 0 71 0;
#X connect 70 0 88 0;
#X connect 71 0 64 0;
#X connect 72 0 57 0;
#X connect 73 0 109 0;
#X connect 73 1 74 0;
#X connect 74 0 75 0;
#X connect 75 0 76 0;
#X connect 76 0 77 0;
#X connect 77 0 99 0;
#X connect 78 0 80 0;
#X connect 79 0 89 0;
#X connect 80 0 73 0;
#X connect 81 0 9 0;
#X connect 82 0 16 0;
#X connect 83 0 23 0;
#X connect 84 0 30 0;
#X connect 85 0 37 0;
#X connect 86 0 44 0;
#X connect 87 0 59 0;
#X connect 88 0 66 0;
#X connect 89 0 75 0;
#X connect 90 0 110 0;
#X connect 91 0 111 0;
#X connect 92 0 112 0;
#X connect 93 0 113 0;
#X connect 94 0 114 0;
#X connect 95 0 115 0;
#X connect 96 0 116 0;
#X connect 97 0 117 0;
#X connect 98 0 118 0;
#X connect 99 0 119 0;
#X connect 100 0 4 0;
#X connect 101 0 11 0;
#X connect 102 0 18 0;
#X connect 103 0 25 0;
#X connect 104 0 32 0;
#X connect 105 0 39 0;
#X connect 106 0 46 0;
#X connect 107 0 61 0;
#X connect 108 0 68 0;
#X connect 109 0 77 0;
#X restore 12 52 pd a-ñ;
#N canvas 4 23 718 321 q-p 0;
#X obj 32 120 t b b;
#X msg 51 142 stop;
#X obj 51 164 del 50;
#X msg 51 186 0;
#X obj 32 208 change;
#X obj 32 32 key;
#X obj 32 76 keyup;
#X obj 92 120 t b b;
#X msg 111 142 stop;
#X obj 111 164 del 50;
#X msg 111 186 0;
#X obj 92 208 change;
#X obj 92 32 key;
#X obj 92 76 keyup;
#X obj 152 120 t b b;
#X msg 171 142 stop;
#X obj 171 164 del 50;
#X msg 171 186 0;
#X obj 152 208 change;
#X obj 152 32 key;
#X obj 152 76 keyup;
#X obj 212 120 t b b;
#X msg 231 142 stop;
#X obj 231 164 del 50;
#X msg 231 186 0;
#X obj 212 208 change;
#X obj 212 32 key;
#X obj 212 76 keyup;
#X obj 272 120 t b b;
#X msg 291 142 stop;
#X obj 291 164 del 50;
#X msg 291 186 0;
#X obj 272 208 change;
#X obj 272 32 key;
#X obj 272 76 keyup;
#X obj 332 120 t b b;
#X msg 351 142 stop;
#X obj 351 164 del 50;
#X msg 351 186 0;
#X obj 332 208 change;
#X obj 332 32 key;
#X obj 332 76 keyup;
#X obj 392 120 t b b;
#X msg 411 142 stop;
#X obj 411 164 del 50;
#X msg 411 186 0;
#X obj 392 208 change;
#X obj 392 32 key;
#X obj 392 76 keyup;
#X obj 452 120 t b b;
#X msg 471 142 stop;
#X obj 471 164 del 50;
#X msg 471 186 0;
#X obj 452 208 change;
#X obj 452 32 key;
#X obj 452 76 keyup;
#X obj 512 120 t b b;
#X msg 531 142 stop;
#X obj 531 164 del 50;
#X msg 531 186 0;
#X obj 512 208 change;
#X obj 512 32 key;
#X obj 512 76 keyup;
#X obj 572 120 t b b;
#X msg 591 142 stop;
#X obj 591 164 del 50;
#X msg 591 186 0;
#X obj 572 208 change;
#X obj 572 32 key;
#X obj 572 76 keyup;
#X obj 32 54 sel 113;
#X obj 92 54 sel 119;
#X obj 152 54 sel 101;
#X obj 212 54 sel 114;
#X obj 272 54 sel 116;
#X obj 332 54 sel 121;
#X obj 392 54 sel 117;
#X obj 452 54 sel 105;
#X obj 512 54 sel 111;
#X obj 572 54 sel 112;
#X obj 32 98 sel 113;
#X obj 92 98 sel 119;
#X obj 152 98 sel 101;
#X obj 212 98 sel 114;
#X obj 272 98 sel 116;
#X obj 332 98 sel 121;
#X obj 392 98 sel 117;
#X obj 452 98 sel 105;
#X obj 512 98 sel 111;
#X obj 572 98 sel 112;
#X msg 32 230 18 \$1;
#X msg 92 230 19 \$1;
#X msg 152 230 20 \$1;
#X msg 212 230 21 \$1;
#X msg 272 230 22 \$1;
#X msg 332 230 23 \$1;
#X msg 392 230 24 \$1;
#X msg 452 230 25 \$1;
#X msg 512 230 26 \$1;
#X msg 572 230 27 \$1;
#X msg 32 186 127;
#X msg 92 186 127;
#X msg 152 186 127;
#X msg 212 186 127;
#X msg 272 186 127;
#X msg 332 186 127;
#X msg 392 186 127;
#X msg 452 186 127;
#X msg 512 186 127;
#X msg 572 186 127;
#X obj 32 252 s \$0-key;
#X obj 92 252 s \$0-key;
#X obj 152 252 s \$0-key;
#X obj 212 252 s \$0-key;
#X obj 272 252 s \$0-key;
#X obj 332 252 s \$0-key;
#X obj 392 252 s \$0-key;
#X obj 452 252 s \$0-key;
#X obj 512 252 s \$0-key;
#X obj 572 252 s \$0-key;
#X connect 0 0 100 0;
#X connect 0 1 1 0;
#X connect 1 0 2 0;
#X connect 2 0 3 0;
#X connect 3 0 4 0;
#X connect 4 0 90 0;
#X connect 5 0 70 0;
#X connect 6 0 80 0;
#X connect 7 0 101 0;
#X connect 7 1 8 0;
#X connect 8 0 9 0;
#X connect 9 0 10 0;
#X connect 10 0 11 0;
#X connect 11 0 91 0;
#X connect 12 0 71 0;
#X connect 13 0 81 0;
#X connect 14 0 102 0;
#X connect 14 1 15 0;
#X connect 15 0 16 0;
#X connect 16 0 17 0;
#X connect 17 0 18 0;
#X connect 18 0 92 0;
#X connect 19 0 72 0;
#X connect 20 0 82 0;
#X connect 21 0 103 0;
#X connect 21 1 22 0;
#X connect 22 0 23 0;
#X connect 23 0 24 0;
#X connect 24 0 25 0;
#X connect 25 0 93 0;
#X connect 26 0 73 0;
#X connect 27 0 83 0;
#X connect 28 0 104 0;
#X connect 28 1 29 0;
#X connect 29 0 30 0;
#X connect 30 0 31 0;
#X connect 31 0 32 0;
#X connect 32 0 94 0;
#X connect 33 0 74 0;
#X connect 34 0 84 0;
#X connect 35 0 105 0;
#X connect 35 1 36 0;
#X connect 36 0 37 0;
#X connect 37 0 38 0;
#X connect 38 0 39 0;
#X connect 39 0 95 0;
#X connect 40 0 75 0;
#X connect 41 0 85 0;
#X connect 42 0 106 0;
#X connect 42 1 43 0;
#X connect 43 0 44 0;
#X connect 44 0 45 0;
#X connect 45 0 46 0;
#X connect 46 0 96 0;
#X connect 47 0 76 0;
#X connect 48 0 86 0;
#X connect 49 0 107 0;
#X connect 49 1 50 0;
#X connect 50 0 51 0;
#X connect 51 0 52 0;
#X connect 52 0 53 0;
#X connect 53 0 97 0;
#X connect 54 0 77 0;
#X connect 55 0 87 0;
#X connect 56 0 108 0;
#X connect 56 1 57 0;
#X connect 57 0 58 0;
#X connect 58 0 59 0;
#X connect 59 0 60 0;
#X connect 60 0 98 0;
#X connect 61 0 78 0;
#X connect 62 0 88 0;
#X connect 63 0 109 0;
#X connect 63 1 64 0;
#X connect 64 0 65 0;
#X connect 65 0 66 0;
#X connect 66 0 67 0;
#X connect 67 0 99 0;
#X connect 68 0 79 0;
#X connect 69 0 89 0;
#X connect 70 0 0 0;
#X connect 71 0 7 0;
#X connect 72 0 14 0;
#X connect 73 0 21 0;
#X connect 74 0 28 0;
#X connect 75 0 35 0;
#X connect 76 0 42 0;
#X connect 77 0 49 0;
#X connect 78 0 56 0;
#X connect 79 0 63 0;
#X connect 80 0 2 0;
#X connect 81 0 9 0;
#X connect 82 0 16 0;
#X connect 83 0 23 0;
#X connect 84 0 30 0;
#X connect 85 0 37 0;
#X connect 86 0 44 0;
#X connect 87 0 51 0;
#X connect 88 0 58 0;
#X connect 89 0 65 0;
#X connect 90 0 110 0;
#X connect 91 0 111 0;
#X connect 92 0 112 0;
#X connect 93 0 113 0;
#X connect 94 0 114 0;
#X connect 95 0 115 0;
#X connect 96 0 116 0;
#X connect 97 0 117 0;
#X connect 98 0 118 0;
#X connect 99 0 119 0;
#X connect 100 0 4 0;
#X connect 101 0 11 0;
#X connect 102 0 18 0;
#X connect 103 0 25 0;
#X connect 104 0 32 0;
#X connect 105 0 39 0;
#X connect 106 0 46 0;
#X connect 107 0 53 0;
#X connect 108 0 60 0;
#X connect 109 0 67 0;
#X restore 12 32 pd q-p;
#N canvas 4 23 718 321 1-0 0;
#X obj 32 120 t b b;
#X msg 51 142 stop;
#X obj 51 164 del 50;
#X msg 51 186 0;
#X obj 32 208 change;
#X obj 32 32 key;
#X obj 32 76 keyup;
#X obj 92 120 t b b;
#X msg 111 142 stop;
#X obj 111 164 del 50;
#X msg 111 186 0;
#X obj 92 208 change;
#X obj 92 32 key;
#X obj 92 76 keyup;
#X obj 152 120 t b b;
#X msg 171 142 stop;
#X obj 171 164 del 50;
#X msg 171 186 0;
#X obj 152 208 change;
#X obj 152 32 key;
#X obj 152 76 keyup;
#X obj 212 120 t b b;
#X msg 231 142 stop;
#X obj 231 164 del 50;
#X msg 231 186 0;
#X obj 212 208 change;
#X obj 212 32 key;
#X obj 212 76 keyup;
#X obj 272 120 t b b;
#X msg 291 142 stop;
#X obj 291 164 del 50;
#X msg 291 186 0;
#X obj 272 208 change;
#X obj 272 32 key;
#X obj 272 76 keyup;
#X obj 332 120 t b b;
#X msg 351 142 stop;
#X obj 351 164 del 50;
#X msg 351 186 0;
#X obj 332 208 change;
#X obj 332 32 key;
#X obj 332 76 keyup;
#X obj 392 120 t b b;
#X msg 411 142 stop;
#X obj 411 164 del 50;
#X msg 411 186 0;
#X obj 392 208 change;
#X obj 392 32 key;
#X obj 392 76 keyup;
#X obj 452 120 t b b;
#X msg 471 142 stop;
#X obj 471 164 del 50;
#X msg 471 186 0;
#X obj 452 208 change;
#X obj 452 32 key;
#X obj 452 76 keyup;
#X obj 512 120 t b b;
#X msg 531 142 stop;
#X obj 531 164 del 50;
#X msg 531 186 0;
#X obj 512 208 change;
#X obj 512 32 key;
#X obj 512 76 keyup;
#X obj 572 120 t b b;
#X msg 591 142 stop;
#X obj 591 164 del 50;
#X msg 591 186 0;
#X obj 572 208 change;
#X obj 572 32 key;
#X obj 572 76 keyup;
#X obj 32 54 sel 49;
#X obj 92 54 sel 50;
#X obj 152 54 sel 51;
#X obj 212 54 sel 52;
#X obj 272 54 sel 53;
#X obj 332 54 sel 54;
#X obj 392 54 sel 55;
#X obj 452 54 sel 56;
#X obj 512 54 sel 57;
#X obj 572 54 sel 48;
#X obj 32 98 sel 49;
#X obj 92 98 sel 50;
#X obj 152 98 sel 51;
#X obj 212 98 sel 52;
#X obj 272 98 sel 53;
#X obj 332 98 sel 54;
#X obj 392 98 sel 55;
#X obj 452 98 sel 56;
#X obj 512 98 sel 57;
#X obj 572 98 sel 48;
#X msg 32 230 28 \$1;
#X msg 92 230 29 \$1;
#X msg 152 230 30 \$1;
#X msg 212 230 31 \$1;
#X msg 272 230 32 \$1;
#X msg 332 230 33 \$1;
#X msg 392 230 34 \$1;
#X msg 452 230 35 \$1;
#X msg 512 230 36 \$1;
#X msg 572 230 37 \$1;
#X msg 32 186 127;
#X msg 92 186 127;
#X msg 152 186 127;
#X msg 212 186 127;
#X msg 272 186 127;
#X msg 332 186 127;
#X msg 392 186 127;
#X msg 452 186 127;
#X msg 512 186 127;
#X msg 572 186 127;
#X obj 32 252 s \$0-key;
#X obj 92 252 s \$0-key;
#X obj 152 252 s \$0-key;
#X obj 212 252 s \$0-key;
#X obj 272 252 s \$0-key;
#X obj 332 252 s \$0-key;
#X obj 392 252 s \$0-key;
#X obj 452 252 s \$0-key;
#X obj 512 252 s \$0-key;
#X obj 572 252 s \$0-key;
#X connect 0 0 100 0;
#X connect 0 1 1 0;
#X connect 1 0 2 0;
#X connect 2 0 3 0;
#X connect 3 0 4 0;
#X connect 4 0 90 0;
#X connect 5 0 70 0;
#X connect 6 0 80 0;
#X connect 7 0 101 0;
#X connect 7 1 8 0;
#X connect 8 0 9 0;
#X connect 9 0 10 0;
#X connect 10 0 11 0;
#X connect 11 0 91 0;
#X connect 12 0 71 0;
#X connect 13 0 81 0;
#X connect 14 0 102 0;
#X connect 14 1 15 0;
#X connect 15 0 16 0;
#X connect 16 0 17 0;
#X connect 17 0 18 0;
#X connect 18 0 92 0;
#X connect 19 0 72 0;
#X connect 20 0 82 0;
#X connect 21 0 103 0;
#X connect 21 1 22 0;
#X connect 22 0 23 0;
#X connect 23 0 24 0;
#X connect 24 0 25 0;
#X connect 25 0 93 0;
#X connect 26 0 73 0;
#X connect 27 0 83 0;
#X connect 28 0 104 0;
#X connect 28 1 29 0;
#X connect 29 0 30 0;
#X connect 30 0 31 0;
#X connect 31 0 32 0;
#X connect 32 0 94 0;
#X connect 33 0 74 0;
#X connect 34 0 84 0;
#X connect 35 0 105 0;
#X connect 35 1 36 0;
#X connect 36 0 37 0;
#X connect 37 0 38 0;
#X connect 38 0 39 0;
#X connect 39 0 95 0;
#X connect 40 0 75 0;
#X connect 41 0 85 0;
#X connect 42 0 106 0;
#X connect 42 1 43 0;
#X connect 43 0 44 0;
#X connect 44 0 45 0;
#X connect 45 0 46 0;
#X connect 46 0 96 0;
#X connect 47 0 76 0;
#X connect 48 0 86 0;
#X connect 49 0 107 0;
#X connect 49 1 50 0;
#X connect 50 0 51 0;
#X connect 51 0 52 0;
#X connect 52 0 53 0;
#X connect 53 0 97 0;
#X connect 54 0 77 0;
#X connect 55 0 87 0;
#X connect 56 0 108 0;
#X connect 56 1 57 0;
#X connect 57 0 58 0;
#X connect 58 0 59 0;
#X connect 59 0 60 0;
#X connect 60 0 98 0;
#X connect 61 0 78 0;
#X connect 62 0 88 0;
#X connect 63 0 109 0;
#X connect 63 1 64 0;
#X connect 64 0 65 0;
#X connect 65 0 66 0;
#X connect 66 0 67 0;
#X connect 67 0 99 0;
#X connect 68 0 79 0;
#X connect 69 0 89 0;
#X connect 70 0 0 0;
#X connect 71 0 7 0;
#X connect 72 0 14 0;
#X connect 73 0 21 0;
#X connect 74 0 28 0;
#X connect 75 0 35 0;
#X connect 76 0 42 0;
#X connect 77 0 49 0;
#X connect 78 0 56 0;
#X connect 79 0 63 0;
#X connect 80 0 2 0;
#X connect 81 0 9 0;
#X connect 82 0 16 0;
#X connect 83 0 23 0;
#X connect 84 0 30 0;
#X connect 85 0 37 0;
#X connect 86 0 44 0;
#X connect 87 0 51 0;
#X connect 88 0 58 0;
#X connect 89 0 65 0;
#X connect 90 0 110 0;
#X connect 91 0 111 0;
#X connect 92 0 112 0;
#X connect 93 0 113 0;
#X connect 94 0 114 0;
#X connect 95 0 115 0;
#X connect 96 0 116 0;
#X connect 97 0 117 0;
#X connect 98 0 118 0;
#X connect 99 0 119 0;
#X connect 100 0 4 0;
#X connect 101 0 11 0;
#X connect 102 0 18 0;
#X connect 103 0 25 0;
#X connect 104 0 32 0;
#X connect 105 0 39 0;
#X connect 106 0 46 0;
#X connect 107 0 53 0;
#X connect 108 0 60 0;
#X connect 109 0 67 0;
#X restore 12 12 pd 1-0;
#X restore 12 77 pd keyboard;
#X obj 12 118 spigot;
#X obj 74 103 tgl 17 0 empty empty KEYBOARD 20 8 0 10 -262144 -1 -1
0 1;
#X text 434 11 INLET 1 - IMPULSE (NOISE);
#X text 434 31 INLET 2 - FREQUENCY;
#X obj 457 100 t f f;
#X obj 484 122 *;
#X obj 499 101 r \$0-sus;
#X obj 497 164 r \$0-atk;
#X obj 457 229 pack f f f f f;
#X obj 517 185 + 2;
#X obj 498 208 r \$0-dec;
#X msg 457 250 \$1 \$3 \, \$2 \$5 \$4;
#X obj 140 29 nbx 5 17 1 1e+37 0 1 empty empty DECAY 0 -8 0 10 -262144
-1 -1 5000 256;
#X obj 140 51 s \$0-dec;
#X obj 200 29 nbx 5 17 -100 0 0 1 empty empty SUSTAIN 0 -8 0 10 -262144
-1 -1 -12 256;
#X obj 405 243 vline~;
#X obj 200 51 + 100;
#X obj 200 72 dbtorms;
#X floatatom 200 93 5 0 1 0 - - -;
#X obj 200 113 s \$0-sus;
#X obj 484 143 sqrt;
#X obj 405 264 pow~ 2;
#X obj 572 97 r \$0-poly;
#X obj 572 139 unpack f f;
#X obj 572 160 mtof;
#X obj 561 264 str~;
#X obj 561 222 r~ \$0-nse;
#X obj 561 243 *~;
#X obj 561 285 throw~ \$0-M;
#X obj 625 159 / 127;
#X obj 625 180 sel 0;
#X obj 625 201 v \$0-rel;
#X msg 625 222 0 \$1;
#X obj 677 100 t f f;
#X obj 704 122 *;
#X obj 719 101 r \$0-sus;
#X obj 717 164 r \$0-atk;
#X obj 677 229 pack f f f f f;
#X obj 737 185 + 2;
#X obj 718 208 r \$0-dec;
#X msg 677 250 \$1 \$3 \, \$2 \$5 \$4;
#X obj 625 243 vline~;
#X obj 704 143 sqrt;
#X obj 625 264 pow~ 2;
#X obj 792 97 r \$0-poly;
#X obj 792 139 unpack f f;
#X obj 792 160 mtof;
#X obj 781 264 str~;
#X obj 781 222 r~ \$0-nse;
#X obj 781 243 *~;
#X obj 781 285 throw~ \$0-M;
#X obj 845 159 / 127;
#X obj 845 180 sel 0;
#X obj 845 201 v \$0-rel;
#X msg 845 222 0 \$1;
#X obj 897 100 t f f;
#X obj 924 122 *;
#X obj 939 101 r \$0-sus;
#X obj 937 164 r \$0-atk;
#X obj 897 229 pack f f f f f;
#X obj 957 185 + 2;
#X obj 938 208 r \$0-dec;
#X msg 897 250 \$1 \$3 \, \$2 \$5 \$4;
#X obj 845 243 vline~;
#X obj 924 143 sqrt;
#X obj 845 264 pow~ 2;
#X obj 1012 97 r \$0-poly;
#X obj 1012 139 unpack f f;
#X obj 1012 160 mtof;
#X obj 1001 264 str~;
#X obj 1001 222 r~ \$0-nse;
#X obj 1001 243 *~;
#X obj 1001 285 throw~ \$0-M;
#X obj 1065 159 / 127;
#X obj 1065 180 sel 0;
#X obj 1065 201 v \$0-rel;
#X msg 1065 222 0 \$1;
#X obj 1117 100 t f f;
#X obj 1144 122 *;
#X obj 1159 101 r \$0-sus;
#X obj 1157 164 r \$0-atk;
#X obj 1117 229 pack f f f f f;
#X obj 1177 185 + 2;
#X obj 1158 208 r \$0-dec;
#X msg 1117 250 \$1 \$3 \, \$2 \$5 \$4;
#X obj 1065 243 vline~;
#X obj 1144 143 sqrt;
#X obj 1065 264 pow~ 2;
#X obj 352 307 r \$0-poly;
#X obj 352 349 unpack f f;
#X obj 352 370 mtof;
#X obj 341 474 str~;
#X obj 341 432 r~ \$0-nse;
#X obj 341 453 *~;
#X obj 341 495 throw~ \$0-M;
#X obj 405 369 / 127;
#X obj 405 390 sel 0;
#X obj 405 411 v \$0-rel;
#X msg 405 432 0 \$1;
#X obj 457 310 t f f;
#X obj 484 332 *;
#X obj 499 311 r \$0-sus;
#X obj 497 374 r \$0-atk;
#X obj 457 439 pack f f f f f;
#X obj 517 395 + 2;
#X obj 498 418 r \$0-dec;
#X msg 457 460 \$1 \$3 \, \$2 \$5 \$4;
#X obj 405 453 vline~;
#X obj 484 353 sqrt;
#X obj 405 474 pow~ 2;
#X obj 572 307 r \$0-poly;
#X obj 572 349 unpack f f;
#X obj 572 370 mtof;
#X obj 561 474 str~;
#X obj 561 432 r~ \$0-nse;
#X obj 561 453 *~;
#X obj 561 495 throw~ \$0-M;
#X obj 625 369 / 127;
#X obj 625 390 sel 0;
#X obj 625 411 v \$0-rel;
#X msg 625 432 0 \$1;
#X obj 677 310 t f f;
#X obj 704 332 *;
#X obj 719 311 r \$0-sus;
#X obj 717 374 r \$0-atk;
#X obj 677 439 pack f f f f f;
#X obj 737 395 + 2;
#X obj 718 418 r \$0-dec;
#X msg 677 460 \$1 \$3 \, \$2 \$5 \$4;
#X obj 625 453 vline~;
#X obj 704 353 sqrt;
#X obj 625 474 pow~ 2;
#X obj 792 307 r \$0-poly;
#X obj 792 349 unpack f f;
#X obj 792 370 mtof;
#X obj 781 474 str~;
#X obj 781 432 r~ \$0-nse;
#X obj 781 453 *~;
#X obj 781 495 throw~ \$0-M;
#X obj 845 369 / 127;
#X obj 845 390 sel 0;
#X obj 845 411 v \$0-rel;
#X msg 845 432 0 \$1;
#X obj 897 310 t f f;
#X obj 924 332 *;
#X obj 939 311 r \$0-sus;
#X obj 937 374 r \$0-atk;
#X obj 897 439 pack f f f f f;
#X obj 957 395 + 2;
#X obj 938 418 r \$0-dec;
#X msg 897 460 \$1 \$3 \, \$2 \$5 \$4;
#X obj 845 453 vline~;
#X obj 924 353 sqrt;
#X obj 845 474 pow~ 2;
#X obj 1012 307 r \$0-poly;
#X obj 1012 349 unpack f f;
#X obj 1012 370 mtof;
#X obj 1001 474 str~;
#X obj 1001 432 r~ \$0-nse;
#X obj 1001 453 *~;
#X obj 1001 495 throw~ \$0-M;
#X obj 1065 369 / 127;
#X obj 1065 390 sel 0;
#X obj 1065 411 v \$0-rel;
#X msg 1065 432 0 \$1;
#X obj 1117 310 t f f;
#X obj 1144 332 *;
#X obj 1159 311 r \$0-sus;
#X obj 1157 374 r \$0-atk;
#X obj 1117 439 pack f f f f f;
#X obj 1177 395 + 2;
#X obj 1158 418 r \$0-dec;
#X msg 1117 460 \$1 \$3 \, \$2 \$5 \$4;
#X obj 1065 453 vline~;
#X obj 1144 353 sqrt;
#X obj 1065 474 pow~ 2;
#X obj 572 118 route 2;
#X obj 792 118 route 3;
#X obj 1012 118 route 4;
#X obj 352 328 route 5;
#X obj 572 328 route 6;
#X obj 792 328 route 7;
#X obj 1012 328 route 8;
#X obj 114 278 poly 8 1;
#X obj 114 367 *~ 8;
#X connect 0 0 1 0;
#X connect 1 0 2 0;
#X connect 2 0 3 0;
#X connect 2 0 3 1;
#X connect 4 0 5 0;
#X connect 5 0 6 0;
#X connect 8 0 14 0;
#X connect 9 0 10 0;
#X connect 10 0 11 0;
#X connect 11 0 12 0;
#X connect 11 1 19 0;
#X connect 12 0 13 1;
#X connect 13 0 17 0;
#X connect 15 0 16 0;
#X connect 16 0 13 0;
#X connect 18 0 233 0;
#X connect 19 0 22 0;
#X connect 20 0 26 0;
#X connect 21 0 23 0;
#X connect 22 0 24 0;
#X connect 22 1 53 0;
#X connect 24 0 25 0;
#X connect 25 0 64 0;
#X connect 27 0 45 0;
#X connect 30 0 31 0;
#X connect 31 0 33 0;
#X connect 32 0 44 0;
#X connect 32 1 35 0;
#X connect 34 0 232 1;
#X connect 35 0 34 0;
#X connect 35 1 232 1;
#X connect 36 0 37 0;
#X connect 37 0 38 0;
#X connect 38 0 232 0;
#X connect 39 0 40 0;
#X connect 40 0 38 1;
#X connect 41 0 36 0;
#X connect 41 1 39 0;
#X connect 42 0 43 0;
#X connect 44 0 41 0;
#X connect 45 0 28 0;
#X connect 46 0 232 0;
#X connect 46 1 232 1;
#X connect 47 0 49 0;
#X connect 49 0 32 0;
#X connect 50 0 49 1;
#X connect 53 0 57 0;
#X connect 53 1 54 0;
#X connect 54 0 69 0;
#X connect 55 0 54 1;
#X connect 56 0 58 0;
#X connect 56 0 57 2;
#X connect 57 0 60 0;
#X connect 58 0 57 3;
#X connect 59 0 57 4;
#X connect 60 0 64 0;
#X connect 61 0 62 0;
#X connect 63 0 65 0;
#X connect 64 0 70 0;
#X connect 65 0 66 0;
#X connect 66 0 67 0;
#X connect 67 0 68 0;
#X connect 69 0 57 1;
#X connect 70 0 16 1;
#X connect 71 0 225 0;
#X connect 72 0 73 0;
#X connect 72 1 78 0;
#X connect 73 0 74 1;
#X connect 74 0 77 0;
#X connect 75 0 76 0;
#X connect 76 0 74 0;
#X connect 78 0 79 0;
#X connect 79 0 80 0;
#X connect 79 1 82 0;
#X connect 80 0 81 0;
#X connect 81 0 90 0;
#X connect 82 0 86 0;
#X connect 82 1 83 0;
#X connect 83 0 91 0;
#X connect 84 0 83 1;
#X connect 85 0 87 0;
#X connect 85 0 86 2;
#X connect 86 0 89 0;
#X connect 87 0 86 3;
#X connect 88 0 86 4;
#X connect 89 0 90 0;
#X connect 90 0 92 0;
#X connect 91 0 86 1;
#X connect 92 0 76 1;
#X connect 93 0 226 0;
#X connect 94 0 95 0;
#X connect 94 1 100 0;
#X connect 95 0 96 1;
#X connect 96 0 99 0;
#X connect 97 0 98 0;
#X connect 98 0 96 0;
#X connect 100 0 101 0;
#X connect 101 0 102 0;
#X connect 101 1 104 0;
#X connect 102 0 103 0;
#X connect 103 0 112 0;
#X connect 104 0 108 0;
#X connect 104 1 105 0;
#X connect 105 0 113 0;
#X connect 106 0 105 1;
#X connect 107 0 109 0;
#X connect 107 0 108 2;
#X connect 108 0 111 0;
#X connect 109 0 108 3;
#X connect 110 0 108 4;
#X connect 111 0 112 0;
#X connect 112 0 114 0;
#X connect 113 0 108 1;
#X connect 114 0 98 1;
#X connect 115 0 227 0;
#X connect 116 0 117 0;
#X connect 116 1 122 0;
#X connect 117 0 118 1;
#X connect 118 0 121 0;
#X connect 119 0 120 0;
#X connect 120 0 118 0;
#X connect 122 0 123 0;
#X connect 123 0 124 0;
#X connect 123 1 126 0;
#X connect 124 0 125 0;
#X connect 125 0 134 0;
#X connect 126 0 130 0;
#X connect 126 1 127 0;
#X connect 127 0 135 0;
#X connect 128 0 127 1;
#X connect 129 0 131 0;
#X connect 129 0 130 2;
#X connect 130 0 133 0;
#X connect 131 0 130 3;
#X connect 132 0 130 4;
#X connect 133 0 134 0;
#X connect 134 0 136 0;
#X connect 135 0 130 1;
#X connect 136 0 120 1;
#X connect 137 0 228 0;
#X connect 138 0 139 0;
#X connect 138 1 144 0;
#X connect 139 0 140 1;
#X connect 140 0 143 0;
#X connect 141 0 142 0;
#X connect 142 0 140 0;
#X connect 144 0 145 0;
#X connect 145 0 146 0;
#X connect 145 1 148 0;
#X connect 146 0 147 0;
#X connect 147 0 156 0;
#X connect 148 0 152 0;
#X connect 148 1 149 0;
#X connect 149 0 157 0;
#X connect 150 0 149 1;
#X connect 151 0 153 0;
#X connect 151 0 152 2;
#X connect 152 0 155 0;
#X connect 153 0 152 3;
#X connect 154 0 152 4;
#X connect 155 0 156 0;
#X connect 156 0 158 0;
#X connect 157 0 152 1;
#X connect 158 0 142 1;
#X connect 159 0 229 0;
#X connect 160 0 161 0;
#X connect 160 1 166 0;
#X connect 161 0 162 1;
#X connect 162 0 165 0;
#X connect 163 0 164 0;
#X connect 164 0 162 0;
#X connect 166 0 167 0;
#X connect 167 0 168 0;
#X connect 167 1 170 0;
#X connect 168 0 169 0;
#X connect 169 0 178 0;
#X connect 170 0 174 0;
#X connect 170 1 171 0;
#X connect 171 0 179 0;
#X connect 172 0 171 1;
#X connect 173 0 175 0;
#X connect 173 0 174 2;
#X connect 174 0 177 0;
#X connect 175 0 174 3;
#X connect 176 0 174 4;
#X connect 177 0 178 0;
#X connect 178 0 180 0;
#X connect 179 0 174 1;
#X connect 180 0 164 1;
#X connect 181 0 230 0;
#X connect 182 0 183 0;
#X connect 182 1 188 0;
#X connect 183 0 184 1;
#X connect 184 0 187 0;
#X connect 185 0 186 0;
#X connect 186 0 184 0;
#X connect 188 0 189 0;
#X connect 189 0 190 0;
#X connect 189 1 192 0;
#X connect 190 0 191 0;
#X connect 191 0 200 0;
#X connect 192 0 196 0;
#X connect 192 1 193 0;
#X connect 193 0 201 0;
#X connect 194 0 193 1;
#X connect 195 0 197 0;
#X connect 195 0 196 2;
#X connect 196 0 199 0;
#X connect 197 0 196 3;
#X connect 198 0 196 4;
#X connect 199 0 200 0;
#X connect 200 0 202 0;
#X connect 201 0 196 1;
#X connect 202 0 186 1;
#X connect 203 0 231 0;
#X connect 204 0 205 0;
#X connect 204 1 210 0;
#X connect 205 0 206 1;
#X connect 206 0 209 0;
#X connect 207 0 208 0;
#X connect 208 0 206 0;
#X connect 210 0 211 0;
#X connect 211 0 212 0;
#X connect 211 1 214 0;
#X connect 212 0 213 0;
#X connect 213 0 222 0;
#X connect 214 0 218 0;
#X connect 214 1 215 0;
#X connect 215 0 223 0;
#X connect 216 0 215 1;
#X connect 217 0 219 0;
#X connect 217 0 218 2;
#X connect 218 0 221 0;
#X connect 219 0 218 3;
#X connect 220 0 218 4;
#X connect 221 0 222 0;
#X connect 222 0 224 0;
#X connect 223 0 218 1;
#X connect 224 0 208 1;
#X connect 225 0 72 0;
#X connect 226 0 94 0;
#X connect 227 0 116 0;
#X connect 228 0 138 0;
#X connect 229 0 160 0;
#X connect 230 0 182 0;
#X connect 231 0 204 0;
#X connect 232 0 42 0;
#X connect 232 1 42 1;
#X connect 232 2 42 2;
#X connect 233 0 0 0;
#X connect 233 0 6 0;
