#N canvas 286 271 892 457 10;
#X obj 23 31 bng 19 250 50 0 \$0-s-bng \$0-r-bng TRIGGER 0 -8 0 14
-162280 -4034 -1;
#N canvas 0 22 450 278 (subpatch) 0;
#X array \$0-scope 441 float 0;
#X coords 0 1 440 -1 441 101 1 0 0;
#X restore 23 326 graph;
#X obj 403 302 nbx 4 19 0 1e+37 0 1 \$0-s-siz \$0-r-siz SCOPE-SIZE(ms)
0 -8 0 14 -162280 -262144 -1 10 256;
#N canvas 296 294 701 246 sub.audio_output 0;
#X obj 12 134 *~ 0.9;
#X obj 12 155 clip~ -1 1;
#X obj 12 176 *~ 0.9;
#X obj 12 197 dac~ 1 2;
#X obj 12 113 inlet~;
#X obj 192 24 r \$0-s-bng;
#X obj 192 45 t b b;
#X obj 192 129 writesf~;
#X obj 391 40 r \$0-s-dur;
#X obj 340 61 delay 500;
#X msg 340 113 stop;
#X obj 62 129 tabwrite~ \$0-scope;
#X obj 62 102 r \$0-s-bng;
#X msg 192 108 open ./\$1.wav \, start;
#X obj 192 87 text get \$0-file_name;
#X msg 192 66 0;
#X obj 86 150 s~ spectro;
#X msg 460 97 open ./\$1.wav \, start;
#X msg 460 55 0;
#X obj 460 118 readsf~;
#X obj 460 76 text get \$0-reference;
#X obj 460 34 r \$0-s-ref;
#X connect 0 0 1 0;
#X connect 0 0 16 0;
#X connect 1 0 2 0;
#X connect 2 0 3 0;
#X connect 2 0 3 1;
#X connect 4 0 0 0;
#X connect 4 0 7 0;
#X connect 4 0 11 0;
#X connect 5 0 6 0;
#X connect 6 0 15 0;
#X connect 6 1 9 0;
#X connect 8 0 9 1;
#X connect 9 0 10 0;
#X connect 10 0 7 0;
#X connect 12 0 11 0;
#X connect 13 0 7 0;
#X connect 14 0 13 0;
#X connect 15 0 14 0;
#X connect 17 0 19 0;
#X connect 18 0 20 0;
#X connect 19 0 0 0;
#X connect 20 0 17 0;
#X connect 21 0 18 0;
#X restore 192 297 pd sub.audio_output;
#X obj 22 71 nbx 4 19 0 1e+37 0 1 \$0-s-dur \$0-r-dur DURATION-REC
0 -8 0 14 -162280 -262144 -1 500 256;
#N canvas 0 22 220 123 sub.file_name 0;
#X obj 12 12 inlet;
#X obj 22 80 text define -k \$0-file_name;
#A set kek \;;
#X obj 12 54 text set \$0-file_name;
#X obj 12 33 symbol;
#X connect 0 0 3 0;
#X connect 3 0 2 0;
#X restore 22 140 pd sub.file_name;
#X msg 22 119 rec;
#N canvas 503 265 633 134 sub.other 0;
#X obj 12 12 key;
#X floatatom 12 33 0 0 0 0 - - -;
#X obj 12 54 sel 161;
#X obj 12 75 s \$0-r-bng;
#X obj 212 33 * 44.1;
#X floatatom 212 54 0 0 0 0 - - -;
#X obj 212 12 r \$0-s-siz;
#X obj 212 75 array size \$0-scope;
#X obj 342 12 loadbang;
#X obj 342 54 f \$0;
#X msg 342 75 \; \$1-scope ylabel -1 -1 0 1;
#X msg 342 33 bang;
#X obj 82 12 key;
#X floatatom 82 33 0 0 0 0 - - -;
#X obj 82 54 sel 39;
#X obj 82 75 s \$0-r-ref;
#X connect 0 0 1 0;
#X connect 1 0 2 0;
#X connect 2 0 3 0;
#X connect 4 0 5 0;
#X connect 5 0 7 0;
#X connect 6 0 4 0;
#X connect 8 0 11 0;
#X connect 9 0 10 0;
#X connect 11 0 9 0;
#X connect 12 0 13 0;
#X connect 13 0 14 0;
#X connect 14 0 15 0;
#X restore 22 297 pd sub.other;
#X text 22 99 Nombre de la grabacion;
#X msg 22 229 rec;
#X text 22 209 Nombre de la grabacion;
#X obj 23 181 bng 19 250 50 0 \$0-s-ref \$0-r-ref TRG-REF 0 -8 0 14
-162280 -4034 -1;
#N canvas 0 22 220 123 sub.reference 0;
#X obj 12 12 inlet;
#X obj 12 33 symbol;
#X obj 22 80 text define -k \$0-reference;
#A set;
#X obj 12 54 text set \$0-reference;
#X connect 0 0 1 0;
#X connect 1 0 3 0;
#X restore 22 250 pd sub.reference;
#N canvas 577 147 380 383 spectrolog 0;
#N canvas 556 61 872 789 FFT_Analyse 0;
#X obj 101 102 inlet~;
#X obj 101 332 *~;
#X obj 132 331 *~;
#X obj 101 356 +~;
#X obj 102 377 powtodb~;
#N canvas 0 22 346 535 init_input_window 0;
#X obj 73 217 / 10;
#X obj 55 278 line 0 0.1;
#X msg 119 246 0;
#X obj 54 176 t f f b;
#X obj 54 239 pack;
#X obj 55 301 t f f;
#X obj 54 152 - 1;
#X obj 74 114 t f f;
#X obj 55 359 * 3.14159;
#X obj 55 381 sin;
#X msg 55 401 \$1 \$1;
#X obj 55 423 *;
#X text 119 334 0...0.99;
#X text 128 359 0...pi;
#X text 79 423 hanning;
#X msg 55 88 4096;
#X obj 100 88 f 4096;
#X obj 99 60 bng 15 250 50 0 empty empty empty 0 -6 0 8 -262144 -1
-1;
#X obj 99 39 loadbang;
#X obj 74 333 / 4096;
#X obj 55 448 tabwrite \$0-window;
#X text 86 381 half-sine;
#X connect 0 0 4 1;
#X connect 1 0 5 0;
#X connect 2 0 1 0;
#X connect 3 0 4 0;
#X connect 3 1 0 0;
#X connect 3 2 2 0;
#X connect 4 0 1 0;
#X connect 5 0 19 0;
#X connect 5 1 20 1;
#X connect 6 0 3 0;
#X connect 7 0 6 0;
#X connect 7 1 19 1;
#X connect 8 0 9 0;
#X connect 9 0 10 0;
#X connect 10 0 11 0;
#X connect 11 0 20 0;
#X connect 15 0 7 0;
#X connect 16 0 7 0;
#X connect 17 0 16 0;
#X connect 18 0 17 0;
#X connect 19 0 8 0;
#X restore 161 276 pd init_input_window;
#N canvas 0 22 450 300 (subpatch) 0;
#X array \$0-lin_scope 2048 float 0;
#X coords 0 100 2047 0 200 140 1;
#X restore 110 621 graph;
#N canvas 0 22 822 328 init_norm 0;
#X obj 43 230 outlet;
#X obj 43 187 - 100;
#X floatatom 43 208 9 0 0 0 - - -;
#X text 108 169 leistung - techn. dB;
#X msg 43 69 4096;
#X obj 80 68 f 4096;
#X obj 80 47 bng 15 250 50 0 empty empty empty 0 -6 0 8 -262144 -1
-1;
#X obj 80 26 loadbang;
#X obj 43 167 rmstodb;
#X obj 43 110 / 4;
#X text 74 103 faktor 2 wegen hanning;
#X text 74 114 weiterer faktor 2 \, weil wir nur die;
#X text 73 124 erste haelfte des konjungiert komplexen spektrum sehen
;
#X text 108 135 bzw. bearbeiten \, somit nur die haelfte der spektralen
energie;
#X connect 1 0 2 0;
#X connect 2 0 0 0;
#X connect 4 0 9 0;
#X connect 5 0 9 0;
#X connect 6 0 5 0;
#X connect 7 0 6 0;
#X connect 8 0 1 0;
#X connect 9 0 8 0;
#X restore 153 421 pd init_norm;
#X obj 100 231 *~;
#X obj 102 443 -~ 60.206;
#X obj 113 517 *~ 0.98;
#X obj 100 539 +~;
#X obj 101 471 *~ 0.02;
#X msg 314 481 1 \$1;
#X obj 314 502 -;
#X obj 314 458 clip 0 1;
#X obj 314 437 / 100;
#X floatatom 314 413 5 0.5 100 0 - - -;
#X obj 333 366 loadbang;
#X obj 100 277 fft~;
#X obj 463 557 line 0 0.1;
#X obj 463 602 / 2;
#X obj 463 622 mtof;
#X msg 463 536 6 \, 273 26.7;
#X obj 463 580 t f f;
#X obj 494 602 - 6;
#X obj 463 642 / 44100;
#X obj 463 663 * 4096;
#X msg 656 633 6;
#X obj 656 653 / 2;
#X obj 656 673 mtof;
#X floatatom 656 693 9 0 0 0 - - -;
#X text 723 694 Hz;
#X obj 754 654 / 2;
#X obj 754 673 mtof;
#X floatatom 754 693 9 0 0 0 - - -;
#X text 822 693 Hz;
#X msg 754 634 273;
#X obj 656 612 t b b;
#X obj 463 498 tgl 15 0 empty empty empty 0 -6 0 8 -262144 -1 -1 1
1;
#X obj 463 458 loadbang;
#X msg 463 478 1;
#X obj 656 592 loadbang;
#X obj 468 245 loadbang;
#X obj 703 102 inlet;
#X obj 130 253 table \$0-window 4096;
#X obj 137 214 tabreceive~ \$0-window;
#X text 353 403 temporal lowpass;
#X text 355 415 parameter between 0 .. 100 %;
#X text 23 23 spectrum~;
#X text 120 23 draws the power of a spectrum in a logarithmic scale
;
#X text 118 36 (by Thomas Musil);
#X obj 113 496 tabreceive~ \$0-lin_scope;
#X obj 100 564 tabsend~ \$0-lin_scope;
#X obj 463 685 tabread4 \$0-lin_scope;
#X obj 468 267 f \$0;
#X text 553 536 transformation to log scale;
#X msg 333 385 100;
#X obj 314 341 max 0.5;
#X obj 314 319 min 100;
#X obj 440 107 inlet;
#X text 96 81 audio sig;
#X text 700 81 ON/OFF;
#X text 427 86 (0 .. 100);
#X text 408 72 temporal lowpass;
#X obj 533 244 bng 15 250 50 0 empty empty empty 0 -6 0 8 -262144 -1
-1;
#X obj 463 735 tabwrite \$0-s;
#X msg 468 296 \; \$1-s xticks 0 12 2;
#X msg 491 330 \; \$1-s yticks 0 5 2;
#X obj 462 516 metro 100;
#X obj 704 166 switch~ 4096 2;
#X obj 463 711 clip 0 100;
#X obj 773 101 loadbang;
#X msg 773 123 1;
#X connect 0 0 8 0;
#X connect 1 0 3 0;
#X connect 2 0 3 1;
#X connect 3 0 4 0;
#X connect 4 0 9 0;
#X connect 7 0 9 1;
#X connect 8 0 19 0;
#X connect 9 0 12 0;
#X connect 10 0 11 1;
#X connect 11 0 53 0;
#X connect 12 0 11 0;
#X connect 13 0 14 0;
#X connect 14 0 10 1;
#X connect 15 0 13 0;
#X connect 15 0 12 1;
#X connect 16 0 15 0;
#X connect 17 0 16 0;
#X connect 18 0 57 0;
#X connect 19 0 1 0;
#X connect 19 0 1 1;
#X connect 19 1 2 0;
#X connect 19 1 2 1;
#X connect 20 0 24 0;
#X connect 21 0 22 0;
#X connect 22 0 26 0;
#X connect 23 0 20 0;
#X connect 24 0 21 0;
#X connect 24 1 25 0;
#X connect 25 0 66 1;
#X connect 26 0 27 0;
#X connect 27 0 54 0;
#X connect 28 0 29 0;
#X connect 29 0 30 0;
#X connect 30 0 31 0;
#X connect 33 0 34 0;
#X connect 34 0 35 0;
#X connect 37 0 33 0;
#X connect 38 0 28 0;
#X connect 38 1 37 0;
#X connect 39 0 69 0;
#X connect 40 0 41 0;
#X connect 41 0 39 0;
#X connect 42 0 38 0;
#X connect 43 0 55 0;
#X connect 44 0 70 0;
#X connect 46 0 8 1;
#X connect 52 0 10 0;
#X connect 54 0 71 0;
#X connect 55 0 67 0;
#X connect 55 0 68 0;
#X connect 57 0 17 0;
#X connect 58 0 17 0;
#X connect 59 0 58 0;
#X connect 60 0 59 0;
#X connect 65 0 55 0;
#X connect 69 0 23 0;
#X connect 71 0 66 0;
#X connect 72 0 73 0;
#X connect 73 0 70 0;
#X restore 17 330 pd FFT_Analyse;
#N canvas 0 22 450 300 (subpatch) 0;
#X array \$0-s 268 float 0;
#X coords 0 100 267 0 267 140 1;
#X restore 23 37 graph;
#X obj 297 52 cnv 15 1 1 empty empty -10 0 0 0 10 -262144 -1 0;
#X obj 297 164 cnv 15 1 1 empty empty -90 0 0 0 10 -262144 -1 0;
#X obj 297 108 cnv 15 1 1 empty empty -50 0 0 0 10 -262144 -1 0;
#X obj 297 80 cnv 15 1 1 empty empty -30 0 0 0 10 -262144 -1 0;
#X obj 297 136 cnv 15 1 1 empty empty -70 0 0 0 10 -262144 -1 0;
#X obj 18 181 cnv 15 1 1 empty empty 10 0 5 0 10 -262144 -1 0;
#X obj 66 181 cnv 15 1 1 empty empty 40 0 5 0 10 -262144 -1 0;
#X obj 115 181 cnv 15 1 1 empty empty 160 0 5 0 10 -262144 -1 0;
#X obj 162 181 cnv 15 1 1 empty empty 640 0 5 0 10 -262144 -1 0;
#X obj 210 181 cnv 15 1 1 empty empty 2k56 0 5 0 10 -262144 -1 0;
#X obj 258 181 cnv 15 1 1 empty empty 10k2 0 5 0 10 -262144 -1 0;
#X obj 138 194 cnv 15 1 1 empty empty 320 0 5 0 10 -262144 -1 0;
#X obj 282 194 cnv 15 1 1 empty empty 20k5 0 5 0 10 -262144 -1 0;
#X obj 42 191 cnv 15 1 1 empty empty 20 0 9 0 10 -262144 -1 0;
#X obj 90 194 cnv 15 1 1 empty empty 80 0 5 0 10 -262144 -1 0;
#X obj 186 194 cnv 15 1 1 empty empty 1k28 0 5 0 10 -262144 -1 0;
#X obj 234 194 cnv 15 1 1 empty empty 5k12 0 5 0 10 -262144 -1 0;
#X obj 46 178 cnv 15 1 1 empty empty | 0 7 0 10 -262144 -1 0;
#X obj 94 178 cnv 15 1 1 empty empty | 0 7 0 10 -262144 -1 0;
#X obj 142 178 cnv 15 1 1 empty empty | 0 7 0 10 -262144 -1 0;
#X obj 190 178 cnv 15 1 1 empty empty | 0 7 0 10 -262144 -1 0;
#X obj 238 178 cnv 15 1 1 empty empty | 0 7 0 10 -262144 -1 0;
#X obj 286 178 cnv 15 1 1 empty empty | 0 7 0 10 -262144 -1 0;
#X obj 17 309 r~ spectro;
#X connect 25 0 0 0;
#X coords 0 -1 1 1 330 210 1 0 0;
#X restore 524 217 pd spectrolog;
#X connect 6 0 5 0;
#X connect 9 0 12 0;
