#N canvas 30 79 706 152 10;
#N canvas 781 176 499 244 saw 0;
#X obj 12 163 +~;
#X obj 12 184 outlet~;
#X obj 12 12 inlet~;
#X obj 182 12 inlet~;
#X obj 182 33 *~ 0.5;
#X obj 382 33 == 0;
#X obj 382 54 switch~;
#X obj 121 26 sig~ 0.5;
#X obj 121 47 -~;
#X obj 121 68 clip~ 0.01 0.5;
#X obj 59 61 sig~ 0.5;
#X obj 59 82 -~;
#X obj 59 103 /~;
#X obj 44 128 *~;
#X obj 44 149 min~;
#X obj 221 103 +~ 1;
#X obj 221 134 *~;
#X obj 271 61 sig~ 0.5;
#X obj 271 82 -~;
#X obj 331 61 sig~ 1;
#X obj 331 82 -~;
#X obj 271 103 /~;
#X obj 221 61 *~ -1;
#X obj 382 12 inlet;
#X connect 0 0 1 0;
#X connect 2 0 0 0;
#X connect 2 0 13 0;
#X connect 2 0 22 0;
#X connect 3 0 4 0;
#X connect 4 0 8 1;
#X connect 5 0 6 0;
#X connect 7 0 8 0;
#X connect 8 0 9 0;
#X connect 9 0 11 1;
#X connect 9 0 12 1;
#X connect 9 0 18 1;
#X connect 9 0 20 1;
#X connect 10 0 11 0;
#X connect 11 0 12 0;
#X connect 12 0 13 1;
#X connect 13 0 14 0;
#X connect 14 0 0 1;
#X connect 15 0 16 0;
#X connect 16 0 14 1;
#X connect 17 0 18 0;
#X connect 18 0 21 0;
#X connect 19 0 20 0;
#X connect 20 0 21 1;
#X connect 21 0 16 1;
#X connect 22 0 15 0;
#X connect 23 0 5 0;
#X restore 12 26 pd saw;
#N canvas 810 411 410 314 square 0;
#X obj 127 123 wrap~;
#X obj 127 81 *~ 2;
#X obj 82 207 -~;
#X obj 127 102 +~ 1;
#X obj 12 242 *~ 0.5;
#X obj 202 38 clip~ 0 0.99;
#X obj 12 12 inlet~;
#X obj 202 12 inlet~;
#X obj 12 262 outlet~;
#X obj 292 54 switch~;
#X obj 292 33 == 1;
#N canvas 0 23 450 300 >= 0;
#X obj 45 34 inlet~;
#X obj 45 129 outlet~;
#N canvas 467 216 290 220 @hv_obj 0;
#X obj 158 52 inlet~;
#X obj 61 52 inlet~;
#X obj 61 136 outlet~;
#X obj 61 100 *~;
#X connect 0 0 3 1;
#X connect 1 0 3 0;
#X connect 3 0 2 0;
#X restore 45 105 pd @hv_obj __and~f;
#X obj 150 83 sig~ 1;
#N canvas 249 541 148 189 @hv_obj 0;
#X obj 23 69 -~;
#X obj 23 94 clip~ -1e-37 0;
#X obj 23 18 inlet~;
#X obj 67 19 inlet~;
#X obj 23 159 outlet~;
#X obj 23 136 *~ 1e+37;
#X obj 23 44 min~;
#X obj 23 115 +~ 1e-37;
#X connect 0 0 1 0;
#X connect 1 0 7 0;
#X connect 2 0 6 0;
#X connect 3 0 6 1;
#X connect 3 0 0 1;
#X connect 5 0 4 0;
#X connect 6 0 0 0;
#X connect 7 0 5 0;
#X restore 45 57 pd @hv_obj __gte~f;
#X obj 150 34 sig~ 0.5;
#X connect 0 0 4 0;
#X connect 2 0 1 0;
#X connect 3 0 2 1;
#X connect 4 0 2 0;
#X connect 5 0 4 1;
#X restore 12 200 pd >= 0.5;
#X obj 127 193 min~;
#X obj 187 137 *~ -1;
#X obj 187 158 +~ 1;
#X obj 187 179 *~;
#X obj 217 64 sig~ 1;
#X obj 217 85 -~;
#X obj 202 111 /~;
#X obj 12 221 +~;
#X obj 292 12 inlet;
#X connect 0 0 2 0;
#X connect 0 0 12 0;
#X connect 0 0 13 0;
#X connect 1 0 3 0;
#X connect 2 0 19 1;
#X connect 3 0 0 0;
#X connect 4 0 8 0;
#X connect 5 0 17 1;
#X connect 5 0 18 0;
#X connect 6 0 1 0;
#X connect 6 0 11 0;
#X connect 7 0 5 0;
#X connect 10 0 9 0;
#X connect 11 0 19 0;
#X connect 12 0 2 1;
#X connect 13 0 14 0;
#X connect 14 0 15 0;
#X connect 15 0 12 1;
#X connect 16 0 17 0;
#X connect 17 0 18 1;
#X connect 18 0 15 1;
#X connect 19 0 4 0;
#X connect 20 0 10 0;
#X restore 62 26 pd square;
#N canvas 914 259 366 213 pulse 0;
#X obj 12 145 -~;
#X obj 12 12 inlet~;
#X obj 152 33 clip~ 0 0.99;
#X obj 152 12 inlet~;
#X obj 12 166 outlet~;
#X obj 242 54 switch~;
#X obj 242 33 == 2;
#X obj 84 68 *~ -1;
#X obj 84 89 +~ 1;
#X obj 84 110 *~;
#X obj 137 54 sig~ 1;
#X obj 137 75 -~;
#X obj 122 96 /~;
#X obj 63 131 min~;
#X obj 242 12 inlet;
#X connect 0 0 4 0;
#X connect 1 0 0 0;
#X connect 1 0 13 0;
#X connect 1 0 7 0;
#X connect 2 0 11 1;
#X connect 2 0 12 0;
#X connect 3 0 2 0;
#X connect 6 0 5 0;
#X connect 7 0 8 0;
#X connect 8 0 9 0;
#X connect 9 0 13 1;
#X connect 10 0 11 0;
#X connect 11 0 12 1;
#X connect 12 0 9 1;
#X connect 13 0 0 1;
#X connect 14 0 6 0;
#X restore 122 26 pd pulse;
#N canvas 212 43 234 284 res.saw 0;
#X obj 62 117 cos~;
#X obj 62 96 wrap~;
#X obj 62 75 +~ 1;
#X obj 62 159 +~ 0.5;
#X obj 12 173 *~;
#X obj 62 138 *~ -0.5;
#X obj 62 54 *~;
#X obj 27 12 inlet~;
#X obj 77 12 inlet~;
#X obj 12 236 outlet~;
#X obj 77 33 max~ 1;
#X obj 127 54 switch~;
#X obj 127 33 == 5;
#X obj 12 65 sig~ 1;
#X obj 12 86 -~;
#X obj 12 107 *~ -1;
#X obj 12 194 +~ 0.5;
#X obj 12 215 *~ 2;
#X obj 127 12 inlet;
#X connect 0 0 5 0;
#X connect 1 0 0 0;
#X connect 2 0 1 0;
#X connect 3 0 4 1;
#X connect 4 0 16 0;
#X connect 5 0 3 0;
#X connect 6 0 2 0;
#X connect 7 0 6 0;
#X connect 7 0 14 1;
#X connect 8 0 10 0;
#X connect 10 0 6 1;
#X connect 12 0 11 0;
#X connect 13 0 14 0;
#X connect 14 0 15 0;
#X connect 15 0 4 0;
#X connect 16 0 17 0;
#X connect 17 0 9 0;
#X connect 18 0 12 0;
#X restore 362 26 pd res.saw;
#N canvas 4 26 296 311 res.tri 0;
#X obj 147 148 cos~;
#X obj 147 127 wrap~;
#X obj 147 105 +~ 1;
#X obj 147 190 +~ 0.5;
#X obj 12 204 *~;
#X obj 147 84 *~;
#X obj 12 12 inlet~;
#X obj 162 12 inlet~;
#X obj 162 33 max~ 1;
#X obj 12 267 outlet~;
#X obj 147 169 *~ -0.5;
#X obj 12 33 *~ 2;
#X obj 212 54 switch~;
#X obj 212 33 == 6;
#X obj 212 12 inlet;
#N canvas 4 23 450 300 <~ 0;
#X obj 31 31 inlet~;
#X obj 31 126 outlet~;
#N canvas 467 216 450 300 @hv_obj 0;
#X obj 217 60 inlet~;
#X obj 120 60 inlet~;
#X obj 170 183 outlet~;
#X connect 1 0 2 0;
#X restore 31 102 pd @hv_obj __and~f;
#X obj 136 80 sig~ 1;
#N canvas 350 241 223 209 @hv_obj 0;
#X obj 46 22 inlet~;
#X obj 46 147 outlet~;
#X obj 46 124 *~;
#X obj 129 22 inlet~;
#X obj 61 80 sig~ 1;
#X obj 61 102 -~;
#N canvas 0 23 450 300 hv.lte 0;
#X obj 150 34 inlet~;
#X obj 45 34 inlet~;
#X obj 45 129 outlet~;
#N canvas 467 216 450 300 @hv_obj 0;
#X obj 217 60 inlet~;
#X obj 120 60 inlet~;
#X obj 170 183 outlet~;
#X connect 1 0 2 0;
#X restore 45 105 pd @hv_obj __and~f;
#X obj 150 83 sig~ 1;
#N canvas 715 101 191 233 @hv_obj 0;
#X obj 49 83 -~;
#X obj 50 109 clip~ -1e-37 0;
#X obj 49 32 inlet~;
#X obj 93 33 inlet~;
#X obj 50 174 outlet~;
#X obj 50 151 *~ 1e+37;
#X obj 49 58 min~;
#X obj 50 130 +~ 1e-37;
#X connect 0 0 1 0;
#X connect 1 0 7 0;
#X connect 2 0 6 0;
#X connect 2 0 0 1;
#X connect 3 0 6 1;
#X connect 5 0 4 0;
#X connect 6 0 0 0;
#X connect 7 0 5 0;
#X restore 45 57 pd @hv_obj __lte~f;
#X connect 0 0 5 1;
#X connect 1 0 5 0;
#X connect 3 0 2 0;
#X connect 4 0 3 1;
#X connect 5 0 3 0;
#X restore 46 54 pd hv.lte;
#N canvas 0 23 238 193 hv.gte 0;
#X obj 150 34 inlet~;
#X obj 45 34 inlet~;
#X obj 45 129 outlet~;
#N canvas 467 216 290 220 @hv_obj 0;
#X obj 158 52 inlet~;
#X obj 61 52 inlet~;
#X obj 61 136 outlet~;
#X obj 61 100 *~;
#X connect 0 0 3 1;
#X connect 1 0 3 0;
#X connect 3 0 2 0;
#X restore 45 105 pd @hv_obj __and~f;
#X obj 150 83 sig~ 1;
#N canvas 249 541 148 189 @hv_obj 0;
#X obj 23 69 -~;
#X obj 23 94 clip~ -1e-37 0;
#X obj 23 18 inlet~;
#X obj 67 19 inlet~;
#X obj 23 159 outlet~;
#X obj 23 136 *~ 1e+37;
#X obj 23 44 min~;
#X obj 23 115 +~ 1e-37;
#X connect 0 0 1 0;
#X connect 1 0 7 0;
#X connect 2 0 6 0;
#X connect 3 0 6 1;
#X connect 3 0 0 1;
#X connect 5 0 4 0;
#X connect 6 0 0 0;
#X connect 7 0 5 0;
#X restore 45 57 pd @hv_obj __gte~f;
#X connect 0 0 5 1;
#X connect 1 0 5 0;
#X connect 3 0 2 0;
#X connect 4 0 3 1;
#X connect 5 0 3 0;
#X restore 116 54 pd hv.gte;
#X connect 0 0 6 0;
#X connect 0 0 7 0;
#X connect 2 0 1 0;
#X connect 3 0 6 1;
#X connect 3 0 7 1;
#X connect 4 0 5 0;
#X connect 5 0 2 1;
#X connect 6 0 2 0;
#X connect 7 0 5 1;
#X restore 31 54 pd @hv_obj __lt~f;
#X obj 130 31 sig~ 1;
#X connect 0 0 4 0;
#X connect 2 0 1 0;
#X connect 3 0 2 1;
#X connect 4 0 2 0;
#X connect 5 0 4 1;
#X restore 69 80 pd <~ 1;
#X obj 12 162 *~;
#X obj 54 101 sig~ 1;
#X obj 54 122 -~;
#X obj 39 162 *~;
#X obj 39 59 sig~ 2;
#X obj 39 80 -~;
#X obj 12 183 +~;
#X obj 12 246 *~ -2;
#X obj 12 225 -~ 0.5;
#X connect 0 0 10 0;
#X connect 1 0 0 0;
#X connect 2 0 1 0;
#X connect 3 0 4 1;
#X connect 4 0 24 0;
#X connect 5 0 2 0;
#X connect 6 0 5 0;
#X connect 6 0 11 0;
#X connect 7 0 8 0;
#X connect 8 0 5 1;
#X connect 10 0 3 0;
#X connect 11 0 15 0;
#X connect 11 0 21 1;
#X connect 11 0 16 0;
#X connect 13 0 12 0;
#X connect 14 0 13 0;
#X connect 15 0 16 1;
#X connect 15 0 18 1;
#X connect 16 0 22 0;
#X connect 17 0 18 0;
#X connect 18 0 19 1;
#X connect 19 0 22 1;
#X connect 20 0 21 0;
#X connect 21 0 19 0;
#X connect 22 0 4 0;
#X connect 23 0 9 0;
#X connect 24 0 23 0;
#X restore 432 26 pd res.tri;
#N canvas 4 23 265 271 res.trap 0;
#X obj 112 117 cos~;
#X obj 112 96 wrap~;
#X obj 112 75 +~ 1;
#X obj 112 159 +~ 0.5;
#X obj 12 173 *~;
#X obj 112 138 *~ -0.5;
#X obj 112 54 *~;
#X obj 27 12 inlet~;
#X obj 127 12 inlet~;
#X obj 12 236 outlet~;
#X obj 127 33 max~ 1;
#X obj 12 117 clip~ -0.5 0.5;
#X obj 12 138 *~ 2;
#X obj 177 54 switch~;
#X obj 177 33 == 7;
#X obj 177 12 inlet;
#X obj 12 54 sig~ 1;
#X obj 12 75 -~;
#X obj 12 96 *~ -1;
#X obj 12 194 +~ 0.5;
#X obj 12 215 *~ 2;
#X connect 0 0 5 0;
#X connect 1 0 0 0;
#X connect 2 0 1 0;
#X connect 3 0 4 1;
#X connect 4 0 19 0;
#X connect 5 0 3 0;
#X connect 6 0 2 0;
#X connect 7 0 6 0;
#X connect 7 0 17 1;
#X connect 8 0 10 0;
#X connect 10 0 6 1;
#X connect 11 0 12 0;
#X connect 12 0 4 0;
#X connect 14 0 13 0;
#X connect 15 0 14 0;
#X connect 16 0 17 0;
#X connect 17 0 18 0;
#X connect 18 0 11 0;
#X connect 19 0 20 0;
#X connect 20 0 9 0;
#X restore 502 26 pd res.trap;
#N canvas 933 44 347 319 half.sine 0;
#X obj 12 278 outlet~;
#X obj 12 12 inlet~;
#X obj 172 12 inlet~;
#X obj 157 96 clip~ 0.01 0.5;
#X obj 172 33 *~ 0.5;
#X obj 12 257 min~ 1;
#X obj 222 54 switch~;
#X obj 222 33 == 4;
#X obj 12 215 *~;
#X obj 67 173 sig~ 1;
#X obj 67 194 -~;
#X obj 52 215 *~;
#N canvas 0 23 450 300 <~ 0;
#X obj 31 31 inlet~;
#X obj 31 126 outlet~;
#N canvas 467 216 450 300 @hv_obj 0;
#X obj 217 60 inlet~;
#X obj 120 60 inlet~;
#X obj 170 183 outlet~;
#X connect 1 0 2 0;
#X restore 31 102 pd @hv_obj __and~f;
#X obj 136 80 sig~ 1;
#N canvas 350 241 223 209 @hv_obj 0;
#X obj 46 22 inlet~;
#X obj 46 147 outlet~;
#X obj 46 124 *~;
#X obj 129 22 inlet~;
#X obj 61 80 sig~ 1;
#X obj 61 102 -~;
#N canvas 0 23 450 300 hv.lte 0;
#X obj 150 34 inlet~;
#X obj 45 34 inlet~;
#X obj 45 129 outlet~;
#N canvas 467 216 450 300 @hv_obj 0;
#X obj 217 60 inlet~;
#X obj 120 60 inlet~;
#X obj 170 183 outlet~;
#X connect 1 0 2 0;
#X restore 45 105 pd @hv_obj __and~f;
#X obj 150 83 sig~ 1;
#N canvas 715 101 191 233 @hv_obj 0;
#X obj 49 83 -~;
#X obj 50 109 clip~ -1e-37 0;
#X obj 49 32 inlet~;
#X obj 93 33 inlet~;
#X obj 50 174 outlet~;
#X obj 50 151 *~ 1e+37;
#X obj 49 58 min~;
#X obj 50 130 +~ 1e-37;
#X connect 0 0 1 0;
#X connect 1 0 7 0;
#X connect 2 0 6 0;
#X connect 2 0 0 1;
#X connect 3 0 6 1;
#X connect 5 0 4 0;
#X connect 6 0 0 0;
#X connect 7 0 5 0;
#X restore 45 57 pd @hv_obj __lte~f;
#X connect 0 0 5 1;
#X connect 1 0 5 0;
#X connect 3 0 2 0;
#X connect 4 0 3 1;
#X connect 5 0 3 0;
#X restore 46 54 pd hv.lte;
#N canvas 0 23 238 193 hv.gte 0;
#X obj 150 34 inlet~;
#X obj 45 34 inlet~;
#X obj 45 129 outlet~;
#N canvas 467 216 290 220 @hv_obj 0;
#X obj 158 52 inlet~;
#X obj 61 52 inlet~;
#X obj 61 136 outlet~;
#X obj 61 100 *~;
#X connect 0 0 3 1;
#X connect 1 0 3 0;
#X connect 3 0 2 0;
#X restore 45 105 pd @hv_obj __and~f;
#X obj 150 83 sig~ 1;
#N canvas 249 541 148 189 @hv_obj 0;
#X obj 23 69 -~;
#X obj 23 94 clip~ -1e-37 0;
#X obj 23 18 inlet~;
#X obj 67 19 inlet~;
#X obj 23 159 outlet~;
#X obj 23 136 *~ 1e+37;
#X obj 23 44 min~;
#X obj 23 115 +~ 1e-37;
#X connect 0 0 1 0;
#X connect 1 0 7 0;
#X connect 2 0 6 0;
#X connect 3 0 6 1;
#X connect 3 0 0 1;
#X connect 5 0 4 0;
#X connect 6 0 0 0;
#X connect 7 0 5 0;
#X restore 45 57 pd @hv_obj __gte~f;
#X connect 0 0 5 1;
#X connect 1 0 5 0;
#X connect 3 0 2 0;
#X connect 4 0 3 1;
#X connect 5 0 3 0;
#X restore 116 54 pd hv.gte;
#X connect 0 0 6 0;
#X connect 0 0 7 0;
#X connect 2 0 1 0;
#X connect 3 0 6 1;
#X connect 3 0 7 1;
#X connect 4 0 5 0;
#X connect 5 0 2 1;
#X connect 6 0 2 0;
#X connect 7 0 5 1;
#X restore 31 54 pd @hv_obj __lt~f;
#X obj 130 31 sig~ 0.5;
#X connect 0 0 4 0;
#X connect 2 0 1 0;
#X connect 3 0 2 1;
#X connect 4 0 2 0;
#X connect 5 0 4 1;
#X restore 82 51 pd <~ 0.5;
#X obj 157 54 sig~ 0.5;
#X obj 157 75 -~;
#X obj 52 89 -~ 0.5;
#X obj 12 236 +~;
#X obj 52 110 /~;
#X obj 52 131 *~ 0.5;
#X obj 52 152 +~ 0.5;
#X obj 222 12 inlet;
#X connect 1 0 8 0;
#X connect 1 0 12 0;
#X connect 1 0 15 0;
#X connect 2 0 4 0;
#X connect 3 0 17 1;
#X connect 4 0 14 1;
#X connect 5 0 0 0;
#X connect 7 0 6 0;
#X connect 8 0 16 0;
#X connect 9 0 10 0;
#X connect 10 0 11 1;
#X connect 11 0 16 1;
#X connect 12 0 8 1;
#X connect 12 0 10 1;
#X connect 13 0 14 0;
#X connect 14 0 3 0;
#X connect 15 0 17 0;
#X connect 16 0 5 0;
#X connect 17 0 18 0;
#X connect 18 0 19 0;
#X connect 19 0 11 0;
#X connect 20 0 7 0;
#X restore 272 26 pd half.sine;
#X obj 12 12 inlet~;
#X obj 339 12 inlet~;
#X obj 12 102 outlet~;
#X obj 612 12 inlet;
#N canvas 967 318 313 288 sine.pulse 0;
#X obj 12 12 inlet~;
#X obj 82 12 inlet~;
#X obj 12 265 outlet~;
#X obj 12 223 +~;
#X obj 82 75 clip~ 0.01 0.5;
#X obj 12 244 *~ 2;
#X obj 182 54 switch~;
#X obj 182 33 == 3;
#X obj 67 111 sig~ 0.5;
#X obj 67 132 -~;
#X obj 67 153 /~;
#X obj 52 174 *~;
#X obj 117 153 /~;
#X obj 132 132 -~;
#X obj 132 111 sig~ 1;
#X obj 117 195 *~;
#X obj 149 160 *~ -1;
#X obj 149 181 +~ 1;
#X obj 52 209 min~;
#X obj 82 54 +~ 0.5;
#X obj 82 33 *~ -0.5;
#X obj 182 12 inlet;
#X connect 0 0 3 0;
#X connect 0 0 11 0;
#X connect 0 0 16 0;
#X connect 1 0 20 0;
#X connect 3 0 5 0;
#X connect 4 0 9 1;
#X connect 4 0 10 1;
#X connect 4 0 13 1;
#X connect 5 0 2 0;
#X connect 7 0 6 0;
#X connect 8 0 9 0;
#X connect 9 0 10 0;
#X connect 9 0 12 0;
#X connect 10 0 11 1;
#X connect 11 0 18 0;
#X connect 12 0 15 0;
#X connect 13 0 12 1;
#X connect 14 0 13 0;
#X connect 15 0 18 1;
#X connect 16 0 17 0;
#X connect 17 0 15 1;
#X connect 18 0 3 1;
#X connect 19 0 4 0;
#X connect 20 0 19 0;
#X connect 21 0 7 0;
#X restore 182 26 pd sine.pulse;
#X obj 12 88 *~;
#X obj 362 88 *~;
#X obj 432 88 *~;
#X obj 502 88 *~;
#X obj 377 67 == 5;
#X obj 447 67 == 6;
#X obj 517 67 == 7;
#X obj 12 47 cos~;
#X obj 27 67 < 5;
#X connect 0 0 19 0;
#X connect 1 0 19 0;
#X connect 2 0 19 0;
#X connect 3 0 13 0;
#X connect 4 0 14 0;
#X connect 5 0 15 0;
#X connect 6 0 19 0;
#X connect 7 0 0 0;
#X connect 7 0 1 0;
#X connect 7 0 2 0;
#X connect 7 0 3 0;
#X connect 7 0 4 0;
#X connect 7 0 11 0;
#X connect 7 0 5 0;
#X connect 7 0 6 0;
#X connect 8 0 0 1;
#X connect 8 0 1 1;
#X connect 8 0 2 1;
#X connect 8 0 3 1;
#X connect 8 0 4 1;
#X connect 8 0 11 1;
#X connect 8 0 5 1;
#X connect 8 0 6 1;
#X connect 10 0 18 0;
#X connect 10 0 17 0;
#X connect 10 0 16 0;
#X connect 10 0 0 2;
#X connect 10 0 11 2;
#X connect 10 0 6 2;
#X connect 10 0 2 2;
#X connect 10 0 1 2;
#X connect 10 0 20 0;
#X connect 10 0 3 2;
#X connect 10 0 5 2;
#X connect 10 0 4 2;
#X connect 11 0 19 0;
#X connect 12 0 9 0;
#X connect 13 0 9 0;
#X connect 14 0 9 0;
#X connect 15 0 9 0;
#X connect 16 0 13 1;
#X connect 17 0 14 1;
#X connect 18 0 15 1;
#X connect 19 0 12 0;
#X connect 20 0 12 1;
