#N canvas 749 546 1171 512 10;
#N canvas 1042 176 499 244 saw 0;
#X obj 12 163 +~;
#X obj 12 184 outlet~;
#X obj 12 12 inlet~;
#X obj 182 12 inlet~;
#X obj 182 33 *~ 0.5;
#X obj 382 33 == 0;
#X obj 382 54 switch~;
#X obj 121 26 sig~ 0.5;
#X obj 121 47 -~;
#X obj 121 68 clip~ 0.01 0.5;
#X obj 59 61 sig~ 0.5;
#X obj 59 82 -~;
#X obj 59 103 /~;
#X obj 44 128 *~;
#X obj 44 149 min~;
#X obj 221 103 +~ 1;
#X obj 221 134 *~;
#X obj 271 61 sig~ 0.5;
#X obj 271 82 -~;
#X obj 331 61 sig~ 1;
#X obj 331 82 -~;
#X obj 271 103 /~;
#X obj 221 61 *~ -1;
#X obj 382 12 inlet;
#X connect 0 0 1 0;
#X connect 2 0 0 0;
#X connect 2 0 13 0;
#X connect 2 0 22 0;
#X connect 3 0 4 0;
#X connect 4 0 8 1;
#X connect 5 0 6 0;
#X connect 7 0 8 0;
#X connect 8 0 9 0;
#X connect 9 0 11 1;
#X connect 9 0 12 1;
#X connect 9 0 18 1;
#X connect 9 0 20 1;
#X connect 10 0 11 0;
#X connect 11 0 12 0;
#X connect 12 0 13 1;
#X connect 13 0 14 0;
#X connect 14 0 0 1;
#X connect 15 0 16 0;
#X connect 16 0 14 1;
#X connect 17 0 18 0;
#X connect 18 0 21 0;
#X connect 19 0 20 0;
#X connect 20 0 21 1;
#X connect 21 0 16 1;
#X connect 22 0 15 0;
#X connect 23 0 5 0;
#X restore 54 212 pd saw;
#N canvas 810 411 410 314 square 0;
#X obj 127 123 wrap~;
#X obj 127 81 *~ 2;
#X obj 82 207 -~;
#X obj 127 102 +~ 1;
#X obj 12 242 *~ 0.5;
#X obj 202 38 clip~ 0 0.99;
#X obj 12 12 inlet~;
#X obj 202 12 inlet~;
#X obj 12 262 outlet~;
#X obj 292 54 switch~;
#X obj 292 33 == 1;
#N canvas 0 23 450 300 >= 0;
#X obj 45 34 inlet~;
#X obj 45 129 outlet~;
#N canvas 467 216 290 220 @hv_obj 0;
#X obj 158 52 inlet~;
#X obj 61 52 inlet~;
#X obj 61 136 outlet~;
#X obj 61 100 *~;
#X connect 0 0 3 1;
#X connect 1 0 3 0;
#X connect 3 0 2 0;
#X restore 45 105 pd @hv_obj __and~f;
#X obj 150 83 sig~ 1;
#N canvas 249 541 148 189 @hv_obj 0;
#X obj 23 69 -~;
#X obj 23 94 clip~ -1e-37 0;
#X obj 23 18 inlet~;
#X obj 67 19 inlet~;
#X obj 23 159 outlet~;
#X obj 23 136 *~ 1e+37;
#X obj 23 44 min~;
#X obj 23 115 +~ 1e-37;
#X connect 0 0 1 0;
#X connect 1 0 7 0;
#X connect 2 0 6 0;
#X connect 3 0 6 1;
#X connect 3 0 0 1;
#X connect 5 0 4 0;
#X connect 6 0 0 0;
#X connect 7 0 5 0;
#X restore 45 57 pd @hv_obj __gte~f;
#X obj 150 34 sig~ 0.5;
#X connect 0 0 4 0;
#X connect 2 0 1 0;
#X connect 3 0 2 1;
#X connect 4 0 2 0;
#X connect 5 0 4 1;
#X restore 12 200 pd >= 0.5;
#X obj 127 193 min~;
#X obj 187 137 *~ -1;
#X obj 187 158 +~ 1;
#X obj 187 179 *~;
#X obj 217 64 sig~ 1;
#X obj 217 85 -~;
#X obj 202 111 /~;
#X obj 12 221 +~;
#X obj 292 12 inlet;
#X connect 0 0 2 0;
#X connect 0 0 12 0;
#X connect 0 0 13 0;
#X connect 1 0 3 0;
#X connect 2 0 19 1;
#X connect 3 0 0 0;
#X connect 4 0 8 0;
#X connect 5 0 17 1;
#X connect 5 0 18 0;
#X connect 6 0 1 0;
#X connect 6 0 11 0;
#X connect 7 0 5 0;
#X connect 10 0 9 0;
#X connect 11 0 19 0;
#X connect 12 0 2 1;
#X connect 13 0 14 0;
#X connect 14 0 15 0;
#X connect 15 0 12 1;
#X connect 16 0 17 0;
#X connect 17 0 18 1;
#X connect 18 0 15 1;
#X connect 19 0 4 0;
#X connect 20 0 10 0;
#X restore 164 212 pd square;
#N canvas 1063 259 366 213 pulse 0;
#X obj 12 145 -~;
#X obj 12 12 inlet~;
#X obj 152 33 clip~ 0 0.99;
#X obj 152 12 inlet~;
#X obj 12 166 outlet~;
#X obj 242 54 switch~;
#X obj 242 33 == 2;
#X obj 84 68 *~ -1;
#X obj 84 89 +~ 1;
#X obj 84 110 *~;
#X obj 137 54 sig~ 1;
#X obj 137 75 -~;
#X obj 122 96 /~;
#X obj 63 131 min~;
#X obj 242 12 inlet;
#X connect 0 0 4 0;
#X connect 1 0 0 0;
#X connect 1 0 13 0;
#X connect 1 0 7 0;
#X connect 2 0 11 1;
#X connect 2 0 12 0;
#X connect 3 0 2 0;
#X connect 6 0 5 0;
#X connect 7 0 8 0;
#X connect 8 0 9 0;
#X connect 9 0 13 1;
#X connect 10 0 11 0;
#X connect 11 0 12 1;
#X connect 12 0 9 1;
#X connect 13 0 0 1;
#X connect 14 0 6 0;
#X restore 274 212 pd pulse;
#N canvas 212 43 624 509 res.saw 0;
#X obj 237 274 cos~;
#X obj 237 220 wrap~;
#X obj 235 196 +~ 1;
#X obj 237 326 +~ 0.5;
#X obj 168 382 *~;
#X obj 237 300 *~ -0.5;
#X obj 235 170 *~;
#X obj 114 96 inlet~;
#X obj 250 96 inlet~;
#X obj 163 474 outlet~;
#X obj 250 124 max~ 1;
#X obj 379 169 switch~;
#X obj 379 142 == 5;
#X obj 131 187 sig~ 1;
#X obj 131 208 -~;
#X obj 131 229 *~ -1;
#X obj 168 403 +~ 0.5;
#X obj 168 424 *~ 2;
#X obj 379 116 inlet;
#X connect 0 0 5 0;
#X connect 1 0 0 0;
#X connect 2 0 1 0;
#X connect 3 0 4 1;
#X connect 4 0 16 0;
#X connect 5 0 3 0;
#X connect 6 0 2 0;
#X connect 7 0 6 0;
#X connect 7 0 14 1;
#X connect 8 0 10 0;
#X connect 10 0 6 1;
#X connect 12 0 11 0;
#X connect 13 0 14 0;
#X connect 14 0 15 0;
#X connect 15 0 4 0;
#X connect 16 0 17 0;
#X connect 17 0 9 0;
#X connect 18 0 12 0;
#X restore 604 212 pd res.saw;
#N canvas 4 26 626 544 res.tri 0;
#X obj 283 294 cos~;
#X obj 283 263 wrap~;
#X obj 283 239 +~ 1;
#X obj 283 346 +~ 0.5;
#X obj 168 427 *~;
#X obj 283 210 *~;
#X obj 141 96 inlet~;
#X obj 298 96 inlet~;
#X obj 298 132 max~ 1;
#X obj 168 505 outlet~;
#X obj 283 320 *~ -0.5;
#X obj 168 479 *~ -1;
#X obj 97 303 expr~ if($v1<1 \, $v1 \, 2-$v1);
#X obj 97 276 *~ 2;
#X obj 449 189 switch~;
#X obj 449 162 == 6;
#X obj 449 136 inlet;
#X connect 0 0 10 0;
#X connect 1 0 0 0;
#X connect 2 0 1 0;
#X connect 3 0 4 1;
#X connect 4 0 11 0;
#X connect 5 0 2 0;
#X connect 6 0 5 0;
#X connect 6 0 13 0;
#X connect 7 0 8 0;
#X connect 8 0 5 1;
#X connect 10 0 3 0;
#X connect 11 0 9 0;
#X connect 12 0 4 0;
#X connect 13 0 12 0;
#X connect 15 0 14 0;
#X connect 16 0 15 0;
#X restore 714 212 pd res.tri;
#N canvas 0 23 534 435 res.trap 0;
#X obj 187 229 cos~;
#X obj 187 170 wrap~;
#X obj 187 146 +~ 1;
#X obj 187 281 +~ 0.5;
#X obj 118 331 *~;
#X obj 187 255 *~ -0.5;
#X obj 187 117 *~;
#X obj 66 53 inlet~;
#X obj 202 53 inlet~;
#X obj 118 384 outlet~;
#X obj 202 84 max~ 1;
#X obj 66 222 clip~ -0.5 0.5;
#X obj 66 193 expr~ -1*(1-$v1);
#X obj 66 256 *~ 2;
#X obj 399 89 switch~;
#X obj 399 62 == 7;
#X obj 399 36 inlet;
#X connect 0 0 5 0;
#X connect 1 0 0 0;
#X connect 2 0 1 0;
#X connect 3 0 4 1;
#X connect 4 0 9 0;
#X connect 5 0 3 0;
#X connect 6 0 2 0;
#X connect 7 0 6 0;
#X connect 7 0 12 0;
#X connect 8 0 10 0;
#X connect 10 0 6 1;
#X connect 11 0 13 0;
#X connect 12 0 11 0;
#X connect 13 0 4 0;
#X connect 15 0 14 0;
#X connect 16 0 15 0;
#X restore 824 212 pd res.trap;
#N canvas 1128 44 347 319 half.sine 0;
#X obj 12 278 outlet~;
#X obj 12 12 inlet~;
#X obj 172 12 inlet~;
#X obj 157 96 clip~ 0.01 0.5;
#X obj 172 33 *~ 0.5;
#X obj 12 257 min~ 1;
#X obj 222 54 switch~;
#X obj 222 33 == 4;
#X obj 12 215 *~;
#X obj 67 173 sig~ 1;
#X obj 67 194 -~;
#X obj 52 215 *~;
#N canvas 0 23 450 300 <~ 0;
#X obj 31 31 inlet~;
#X obj 31 126 outlet~;
#N canvas 467 216 450 300 @hv_obj 0;
#X obj 217 60 inlet~;
#X obj 120 60 inlet~;
#X obj 170 183 outlet~;
#X connect 1 0 2 0;
#X restore 31 102 pd @hv_obj __and~f;
#X obj 136 80 sig~ 1;
#N canvas 350 241 223 209 @hv_obj 0;
#X obj 46 22 inlet~;
#X obj 46 147 outlet~;
#X obj 46 124 *~;
#X obj 129 22 inlet~;
#X obj 61 80 sig~ 1;
#X obj 61 102 -~;
#N canvas 0 23 450 300 hv.lte 0;
#X obj 150 34 inlet~;
#X obj 45 34 inlet~;
#X obj 45 129 outlet~;
#N canvas 467 216 450 300 @hv_obj 0;
#X obj 217 60 inlet~;
#X obj 120 60 inlet~;
#X obj 170 183 outlet~;
#X connect 1 0 2 0;
#X restore 45 105 pd @hv_obj __and~f;
#X obj 150 83 sig~ 1;
#N canvas 715 101 191 233 @hv_obj 0;
#X obj 49 83 -~;
#X obj 50 109 clip~ -1e-37 0;
#X obj 49 32 inlet~;
#X obj 93 33 inlet~;
#X obj 50 174 outlet~;
#X obj 50 151 *~ 1e+37;
#X obj 49 58 min~;
#X obj 50 130 +~ 1e-37;
#X connect 0 0 1 0;
#X connect 1 0 7 0;
#X connect 2 0 6 0;
#X connect 2 0 0 1;
#X connect 3 0 6 1;
#X connect 5 0 4 0;
#X connect 6 0 0 0;
#X connect 7 0 5 0;
#X restore 45 57 pd @hv_obj __lte~f;
#X connect 0 0 5 1;
#X connect 1 0 5 0;
#X connect 3 0 2 0;
#X connect 4 0 3 1;
#X connect 5 0 3 0;
#X restore 46 54 pd hv.lte;
#N canvas 0 23 238 193 hv.gte 0;
#X obj 150 34 inlet~;
#X obj 45 34 inlet~;
#X obj 45 129 outlet~;
#N canvas 467 216 290 220 @hv_obj 0;
#X obj 158 52 inlet~;
#X obj 61 52 inlet~;
#X obj 61 136 outlet~;
#X obj 61 100 *~;
#X connect 0 0 3 1;
#X connect 1 0 3 0;
#X connect 3 0 2 0;
#X restore 45 105 pd @hv_obj __and~f;
#X obj 150 83 sig~ 1;
#N canvas 249 541 148 189 @hv_obj 0;
#X obj 23 69 -~;
#X obj 23 94 clip~ -1e-37 0;
#X obj 23 18 inlet~;
#X obj 67 19 inlet~;
#X obj 23 159 outlet~;
#X obj 23 136 *~ 1e+37;
#X obj 23 44 min~;
#X obj 23 115 +~ 1e-37;
#X connect 0 0 1 0;
#X connect 1 0 7 0;
#X connect 2 0 6 0;
#X connect 3 0 6 1;
#X connect 3 0 0 1;
#X connect 5 0 4 0;
#X connect 6 0 0 0;
#X connect 7 0 5 0;
#X restore 45 57 pd @hv_obj __gte~f;
#X connect 0 0 5 1;
#X connect 1 0 5 0;
#X connect 3 0 2 0;
#X connect 4 0 3 1;
#X connect 5 0 3 0;
#X restore 116 54 pd hv.gte;
#X connect 0 0 6 0;
#X connect 0 0 7 0;
#X connect 2 0 1 0;
#X connect 3 0 6 1;
#X connect 3 0 7 1;
#X connect 4 0 5 0;
#X connect 5 0 2 1;
#X connect 6 0 2 0;
#X connect 7 0 5 1;
#X restore 31 54 pd @hv_obj __lt~f;
#X obj 130 31 sig~ 0.5;
#X connect 0 0 4 0;
#X connect 2 0 1 0;
#X connect 3 0 2 1;
#X connect 4 0 2 0;
#X connect 5 0 4 1;
#X restore 82 51 pd <~ 0.5;
#X obj 157 54 sig~ 0.5;
#X obj 157 75 -~;
#X obj 52 89 -~ 0.5;
#X obj 12 236 +~;
#X obj 52 110 /~;
#X obj 52 131 *~ 0.5;
#X obj 52 152 +~ 0.5;
#X obj 222 12 inlet;
#X connect 1 0 8 0;
#X connect 1 0 12 0;
#X connect 1 0 15 0;
#X connect 2 0 4 0;
#X connect 3 0 17 1;
#X connect 4 0 14 1;
#X connect 5 0 0 0;
#X connect 7 0 6 0;
#X connect 8 0 16 0;
#X connect 9 0 10 0;
#X connect 10 0 11 1;
#X connect 11 0 16 1;
#X connect 12 0 8 1;
#X connect 12 0 10 1;
#X connect 13 0 14 0;
#X connect 14 0 3 0;
#X connect 15 0 17 0;
#X connect 16 0 5 0;
#X connect 17 0 18 0;
#X connect 18 0 19 0;
#X connect 19 0 11 0;
#X connect 20 0 7 0;
#X restore 494 212 pd half.sine;
#X obj 267 59 inlet~;
#X obj 541 59 inlet~;
#X obj 54 303 outlet~;
#X obj 914 224 inlet;
#N canvas 1071 318 313 288 sine.pulse 0;
#X obj 12 12 inlet~;
#X obj 82 12 inlet~;
#X obj 12 265 outlet~;
#X obj 12 223 +~;
#X obj 82 75 clip~ 0.01 0.5;
#X obj 12 244 *~ 2;
#X obj 182 54 switch~;
#X obj 182 33 == 3;
#X obj 67 111 sig~ 0.5;
#X obj 67 132 -~;
#X obj 67 153 /~;
#X obj 52 174 *~;
#X obj 117 153 /~;
#X obj 132 132 -~;
#X obj 132 111 sig~ 1;
#X obj 117 195 *~;
#X obj 149 160 *~ -1;
#X obj 149 181 +~ 1;
#X obj 52 209 min~;
#X obj 82 54 +~ 0.5;
#X obj 82 33 *~ -0.5;
#X obj 182 12 inlet;
#X connect 0 0 3 0;
#X connect 0 0 11 0;
#X connect 0 0 16 0;
#X connect 1 0 20 0;
#X connect 3 0 5 0;
#X connect 4 0 9 1;
#X connect 4 0 10 1;
#X connect 4 0 13 1;
#X connect 5 0 2 0;
#X connect 7 0 6 0;
#X connect 8 0 9 0;
#X connect 9 0 10 0;
#X connect 9 0 12 0;
#X connect 10 0 11 1;
#X connect 11 0 18 0;
#X connect 12 0 15 0;
#X connect 13 0 12 1;
#X connect 14 0 13 0;
#X connect 15 0 18 1;
#X connect 16 0 17 0;
#X connect 17 0 15 1;
#X connect 18 0 3 1;
#X connect 19 0 4 0;
#X connect 20 0 19 0;
#X connect 21 0 7 0;
#X restore 384 212 pd sine.pulse;
#X text 803 429 .mmb;
#X obj 69 238 == 0;
#X obj 54 259 *~;
#X obj 164 259 *~;
#X obj 274 259 *~;
#X obj 384 259 *~;
#X obj 494 259 *~;
#X obj 604 259 *~;
#X obj 714 259 *~;
#X obj 824 259 *~;
#X obj 179 238 == 1;
#X obj 289 238 == 2;
#X obj 399 238 == 3;
#X obj 509 238 == 4;
#X obj 619 238 == 5;
#X obj 729 238 == 6;
#X obj 839 238 == 7;
#X connect 3 0 19 0;
#X connect 4 0 20 0;
#X connect 5 0 21 0;
#X connect 7 0 0 0;
#X connect 7 0 1 0;
#X connect 7 0 2 0;
#X connect 7 0 3 0;
#X connect 7 0 4 0;
#X connect 7 0 11 0;
#X connect 7 0 5 0;
#X connect 7 0 6 0;
#X connect 8 0 0 1;
#X connect 8 0 1 1;
#X connect 8 0 2 1;
#X connect 8 0 3 1;
#X connect 8 0 4 1;
#X connect 8 0 11 1;
#X connect 8 0 5 1;
#X connect 8 0 6 1;
#X connect 10 0 13 0;
#X connect 10 0 28 0;
#X connect 10 0 27 0;
#X connect 10 0 26 0;
#X connect 10 0 25 0;
#X connect 10 0 24 0;
#X connect 10 0 23 0;
#X connect 10 0 22 0;
#X connect 13 0 14 1;
#X connect 14 0 9 0;
#X connect 15 0 9 0;
#X connect 16 0 9 0;
#X connect 17 0 9 0;
#X connect 18 0 9 0;
#X connect 19 0 9 0;
#X connect 20 0 9 0;
#X connect 21 0 9 0;
#X connect 22 0 15 1;
#X connect 23 0 16 1;
#X connect 24 0 17 1;
#X connect 25 0 18 1;
#X connect 26 0 19 1;
#X connect 27 0 20 1;
#X connect 28 0 21 1;
