#N canvas 30 79 931 459 10;
#N canvas 334 322 499 244 saw 0;
#X obj 12 163 +~;
#X obj 12 12 inlet~;
#X obj 182 12 inlet~;
#X obj 182 33 *~ 0.5;
#X obj 382 138 switch~;
#X obj 121 26 sig~ 0.5;
#X obj 121 47 -~;
#X obj 121 68 clip~ 0.01 0.5;
#X obj 59 61 sig~ 0.5;
#X obj 59 82 -~;
#X obj 59 103 /~;
#X obj 44 128 *~;
#X obj 44 149 min~;
#X obj 221 103 +~ 1;
#X obj 221 134 *~;
#X obj 271 61 sig~ 0.5;
#X obj 271 82 -~;
#X obj 331 61 sig~ 1;
#X obj 331 82 -~;
#X obj 271 103 /~;
#X obj 221 61 *~ -1;
#X obj 382 12 inlet;
#X obj 382 33 unpack f f;
#X obj 382 54 == 0;
#X obj 439 54 == 0;
#X obj 382 75 +;
#X obj 382 96 > 0;
#X obj 382 117 change;
#X obj 12 184 cos~;
#X obj 12 205 outlet~;
#X connect 0 0 28 0;
#X connect 1 0 0 0;
#X connect 1 0 11 0;
#X connect 1 0 20 0;
#X connect 2 0 3 0;
#X connect 3 0 6 1;
#X connect 5 0 6 0;
#X connect 6 0 7 0;
#X connect 7 0 9 1;
#X connect 7 0 10 1;
#X connect 7 0 16 1;
#X connect 7 0 18 1;
#X connect 8 0 9 0;
#X connect 9 0 10 0;
#X connect 10 0 11 1;
#X connect 11 0 12 0;
#X connect 12 0 0 1;
#X connect 13 0 14 0;
#X connect 14 0 12 1;
#X connect 15 0 16 0;
#X connect 16 0 19 0;
#X connect 17 0 18 0;
#X connect 18 0 19 1;
#X connect 19 0 14 1;
#X connect 20 0 13 0;
#X connect 21 0 22 0;
#X connect 22 0 23 0;
#X connect 22 1 24 0;
#X connect 23 0 25 0;
#X connect 24 0 25 1;
#X connect 25 0 26 0;
#X connect 26 0 27 0;
#X connect 27 0 4 0;
#X connect 28 0 29 0;
#X restore 68 303 pd saw;
#N canvas 810 411 410 314 square 0;
#X obj 127 123 wrap~;
#X obj 127 81 *~ 2;
#X obj 82 207 -~;
#X obj 127 102 +~ 1;
#X obj 12 242 *~ 0.5;
#X obj 202 38 clip~ 0 0.99;
#X obj 12 12 inlet~;
#X obj 202 12 inlet~;
#N canvas 0 23 450 300 >= 0;
#X obj 45 34 inlet~;
#X obj 45 129 outlet~;
#N canvas 467 216 290 220 @hv_obj 0;
#X obj 158 52 inlet~;
#X obj 61 52 inlet~;
#X obj 61 136 outlet~;
#X obj 61 100 *~;
#X connect 0 0 3 1;
#X connect 1 0 3 0;
#X connect 3 0 2 0;
#X restore 45 105 pd @hv_obj __and~f;
#X obj 150 83 sig~ 1;
#N canvas 249 541 148 189 @hv_obj 0;
#X obj 23 69 -~;
#X obj 23 94 clip~ -1e-37 0;
#X obj 23 18 inlet~;
#X obj 67 19 inlet~;
#X obj 23 159 outlet~;
#X obj 23 136 *~ 1e+37;
#X obj 23 44 min~;
#X obj 23 115 +~ 1e-37;
#X connect 0 0 1 0;
#X connect 1 0 7 0;
#X connect 2 0 6 0;
#X connect 3 0 6 1;
#X connect 3 0 0 1;
#X connect 5 0 4 0;
#X connect 6 0 0 0;
#X connect 7 0 5 0;
#X restore 45 57 pd @hv_obj __gte~f;
#X obj 150 34 sig~ 0.5;
#X connect 0 0 4 0;
#X connect 2 0 1 0;
#X connect 3 0 2 1;
#X connect 4 0 2 0;
#X connect 5 0 4 1;
#X restore 12 200 pd >= 0.5;
#X obj 127 193 min~;
#X obj 187 137 *~ -1;
#X obj 187 158 +~ 1;
#X obj 187 179 *~;
#X obj 217 64 sig~ 1;
#X obj 217 85 -~;
#X obj 202 111 /~;
#X obj 12 221 +~;
#X obj 12 263 cos~;
#X obj 12 284 outlet~;
#X obj 282 138 switch~;
#X obj 282 12 inlet;
#X obj 282 33 unpack f f;
#X obj 282 75 +;
#X obj 282 96 > 0;
#X obj 282 117 change;
#X obj 282 54 == 1;
#X obj 339 54 == 1;
#X connect 0 0 2 0;
#X connect 0 0 9 0;
#X connect 0 0 10 0;
#X connect 1 0 3 0;
#X connect 2 0 16 1;
#X connect 3 0 0 0;
#X connect 4 0 17 0;
#X connect 5 0 14 1;
#X connect 5 0 15 0;
#X connect 6 0 1 0;
#X connect 6 0 8 0;
#X connect 7 0 5 0;
#X connect 8 0 16 0;
#X connect 9 0 2 1;
#X connect 10 0 11 0;
#X connect 11 0 12 0;
#X connect 12 0 9 1;
#X connect 13 0 14 0;
#X connect 14 0 15 1;
#X connect 15 0 12 1;
#X connect 16 0 4 0;
#X connect 17 0 18 0;
#X connect 20 0 21 0;
#X connect 21 0 25 0;
#X connect 21 1 26 0;
#X connect 22 0 23 0;
#X connect 23 0 24 0;
#X connect 24 0 19 0;
#X connect 25 0 22 0;
#X connect 26 0 22 1;
#X restore 118 303 pd square;
#N canvas 914 259 366 213 pulse 0;
#X obj 12 145 -~;
#X obj 12 12 inlet~;
#X obj 152 33 clip~ 0 0.99;
#X obj 152 12 inlet~;
#X obj 84 68 *~ -1;
#X obj 84 89 +~ 1;
#X obj 84 110 *~;
#X obj 137 54 sig~ 1;
#X obj 137 75 -~;
#X obj 122 96 /~;
#X obj 63 131 min~;
#X obj 12 166 cos~;
#X obj 12 187 outlet~;
#X obj 232 138 switch~;
#X obj 232 12 inlet;
#X obj 232 33 unpack f f;
#X obj 232 75 +;
#X obj 232 96 > 0;
#X obj 232 117 change;
#X obj 232 54 == 2;
#X obj 289 54 == 2;
#X connect 0 0 11 0;
#X connect 1 0 0 0;
#X connect 1 0 10 0;
#X connect 1 0 4 0;
#X connect 2 0 8 1;
#X connect 2 0 9 0;
#X connect 3 0 2 0;
#X connect 4 0 5 0;
#X connect 5 0 6 0;
#X connect 6 0 10 1;
#X connect 7 0 8 0;
#X connect 8 0 9 1;
#X connect 9 0 6 1;
#X connect 10 0 0 1;
#X connect 11 0 12 0;
#X connect 14 0 15 0;
#X connect 15 0 19 0;
#X connect 15 1 20 0;
#X connect 16 0 17 0;
#X connect 17 0 18 0;
#X connect 18 0 13 0;
#X connect 19 0 16 0;
#X connect 20 0 16 1;
#X restore 178 303 pd pulse;
#N canvas 212 43 234 284 res.saw 0;
#X obj 62 137 cos~;
#X obj 62 116 wrap~;
#X obj 62 95 +~ 1;
#X obj 62 179 +~ 0.5;
#X obj 12 193 *~;
#X obj 62 158 *~ -0.5;
#X obj 62 74 *~;
#X obj 27 12 inlet~;
#X obj 77 12 inlet~;
#X obj 12 256 outlet~;
#X obj 77 53 max~ 1;
#X obj 12 85 sig~ 1;
#X obj 12 106 -~;
#X obj 12 127 *~ -1;
#X obj 12 214 +~ 0.5;
#X obj 12 235 *~ 2;
#X obj 132 158 switch~;
#X obj 132 12 inlet;
#X obj 132 53 unpack f f;
#X obj 132 95 +;
#X obj 132 116 > 0;
#X obj 132 137 change;
#X obj 132 74 == 5;
#X obj 189 74 == 5;
#X obj 77 33 *~ 32;
#X connect 0 0 5 0;
#X connect 1 0 0 0;
#X connect 2 0 1 0;
#X connect 3 0 4 1;
#X connect 4 0 14 0;
#X connect 5 0 3 0;
#X connect 6 0 2 0;
#X connect 7 0 6 0;
#X connect 7 0 12 1;
#X connect 8 0 24 0;
#X connect 10 0 6 1;
#X connect 11 0 12 0;
#X connect 12 0 13 0;
#X connect 13 0 4 0;
#X connect 14 0 15 0;
#X connect 15 0 9 0;
#X connect 17 0 18 0;
#X connect 18 0 22 0;
#X connect 18 1 23 0;
#X connect 19 0 20 0;
#X connect 20 0 21 0;
#X connect 21 0 16 0;
#X connect 22 0 19 0;
#X connect 23 0 19 1;
#X connect 24 0 10 0;
#X restore 418 303 pd res.saw;
#N canvas 4 26 321 311 res.tri 0;
#X obj 147 148 cos~;
#X obj 147 127 wrap~;
#X obj 147 105 +~ 1;
#X obj 147 190 +~ 0.5;
#X obj 12 204 *~;
#X obj 147 84 *~;
#X obj 12 12 inlet~;
#X obj 162 12 inlet~;
#X obj 162 53 max~ 1;
#X obj 12 267 outlet~;
#X obj 147 169 *~ -0.5;
#X obj 12 33 *~ 2;
#N canvas 4 23 450 300 <~ 0;
#X obj 31 31 inlet~;
#X obj 31 126 outlet~;
#N canvas 467 216 450 300 @hv_obj 0;
#X obj 217 60 inlet~;
#X obj 120 60 inlet~;
#X obj 170 183 outlet~;
#X connect 1 0 2 0;
#X restore 31 102 pd @hv_obj __and~f;
#X obj 136 80 sig~ 1;
#N canvas 350 241 223 209 @hv_obj 0;
#X obj 46 22 inlet~;
#X obj 46 147 outlet~;
#X obj 46 124 *~;
#X obj 129 22 inlet~;
#X obj 61 80 sig~ 1;
#X obj 61 102 -~;
#N canvas 0 23 450 300 hv.lte 0;
#X obj 150 34 inlet~;
#X obj 45 34 inlet~;
#X obj 45 129 outlet~;
#N canvas 467 216 450 300 @hv_obj 0;
#X obj 217 60 inlet~;
#X obj 120 60 inlet~;
#X obj 170 183 outlet~;
#X connect 1 0 2 0;
#X restore 45 105 pd @hv_obj __and~f;
#X obj 150 83 sig~ 1;
#N canvas 715 101 191 233 @hv_obj 0;
#X obj 49 83 -~;
#X obj 50 109 clip~ -1e-37 0;
#X obj 49 32 inlet~;
#X obj 93 33 inlet~;
#X obj 50 174 outlet~;
#X obj 50 151 *~ 1e+37;
#X obj 49 58 min~;
#X obj 50 130 +~ 1e-37;
#X connect 0 0 1 0;
#X connect 1 0 7 0;
#X connect 2 0 6 0;
#X connect 2 0 0 1;
#X connect 3 0 6 1;
#X connect 5 0 4 0;
#X connect 6 0 0 0;
#X connect 7 0 5 0;
#X restore 45 57 pd @hv_obj __lte~f;
#X connect 0 0 5 1;
#X connect 1 0 5 0;
#X connect 3 0 2 0;
#X connect 4 0 3 1;
#X connect 5 0 3 0;
#X restore 46 54 pd hv.lte;
#N canvas 0 23 238 193 hv.gte 0;
#X obj 150 34 inlet~;
#X obj 45 34 inlet~;
#X obj 45 129 outlet~;
#N canvas 467 216 290 220 @hv_obj 0;
#X obj 158 52 inlet~;
#X obj 61 52 inlet~;
#X obj 61 136 outlet~;
#X obj 61 100 *~;
#X connect 0 0 3 1;
#X connect 1 0 3 0;
#X connect 3 0 2 0;
#X restore 45 105 pd @hv_obj __and~f;
#X obj 150 83 sig~ 1;
#N canvas 249 541 148 189 @hv_obj 0;
#X obj 23 69 -~;
#X obj 23 94 clip~ -1e-37 0;
#X obj 23 18 inlet~;
#X obj 67 19 inlet~;
#X obj 23 159 outlet~;
#X obj 23 136 *~ 1e+37;
#X obj 23 44 min~;
#X obj 23 115 +~ 1e-37;
#X connect 0 0 1 0;
#X connect 1 0 7 0;
#X connect 2 0 6 0;
#X connect 3 0 6 1;
#X connect 3 0 0 1;
#X connect 5 0 4 0;
#X connect 6 0 0 0;
#X connect 7 0 5 0;
#X restore 45 57 pd @hv_obj __gte~f;
#X connect 0 0 5 1;
#X connect 1 0 5 0;
#X connect 3 0 2 0;
#X connect 4 0 3 1;
#X connect 5 0 3 0;
#X restore 116 54 pd hv.gte;
#X connect 0 0 6 0;
#X connect 0 0 7 0;
#X connect 2 0 1 0;
#X connect 3 0 6 1;
#X connect 3 0 7 1;
#X connect 4 0 5 0;
#X connect 5 0 2 1;
#X connect 6 0 2 0;
#X connect 7 0 5 1;
#X restore 31 54 pd @hv_obj __lt~f;
#X obj 130 31 sig~ 1;
#X connect 0 0 4 0;
#X connect 2 0 1 0;
#X connect 3 0 2 1;
#X connect 4 0 2 0;
#X connect 5 0 4 1;
#X restore 69 80 pd <~ 1;
#X obj 12 162 *~;
#X obj 54 101 sig~ 1;
#X obj 54 122 -~;
#X obj 39 162 *~;
#X obj 39 59 sig~ 2;
#X obj 39 80 -~;
#X obj 12 183 +~;
#X obj 12 246 *~ -2;
#X obj 12 225 -~ 0.5;
#X obj 212 138 switch~;
#X obj 212 12 inlet;
#X obj 212 33 unpack f f;
#X obj 212 75 +;
#X obj 212 96 > 0;
#X obj 212 117 change;
#X obj 212 54 == 6;
#X obj 269 54 == 6;
#X obj 162 33 *~ 32;
#X connect 0 0 10 0;
#X connect 1 0 0 0;
#X connect 2 0 1 0;
#X connect 3 0 4 1;
#X connect 4 0 21 0;
#X connect 5 0 2 0;
#X connect 6 0 5 0;
#X connect 6 0 11 0;
#X connect 7 0 30 0;
#X connect 8 0 5 1;
#X connect 10 0 3 0;
#X connect 11 0 12 0;
#X connect 11 0 18 1;
#X connect 11 0 13 0;
#X connect 12 0 13 1;
#X connect 12 0 15 1;
#X connect 13 0 19 0;
#X connect 14 0 15 0;
#X connect 15 0 16 1;
#X connect 16 0 19 1;
#X connect 17 0 18 0;
#X connect 18 0 16 0;
#X connect 19 0 4 0;
#X connect 20 0 9 0;
#X connect 21 0 20 0;
#X connect 23 0 24 0;
#X connect 24 0 28 0;
#X connect 24 1 29 0;
#X connect 25 0 26 0;
#X connect 26 0 27 0;
#X connect 27 0 22 0;
#X connect 28 0 25 0;
#X connect 29 0 25 1;
#X connect 30 0 8 0;
#X restore 488 303 pd res.tri;
#N canvas 4 23 289 283 res.trap 0;
#X obj 112 138 cos~;
#X obj 112 117 wrap~;
#X obj 112 96 +~ 1;
#X obj 112 180 +~ 0.5;
#X obj 12 194 *~;
#X obj 112 159 *~ -0.5;
#X obj 112 75 *~;
#X obj 27 12 inlet~;
#X obj 127 12 inlet~;
#X obj 12 257 outlet~;
#X obj 127 54 max~ 1;
#X obj 12 138 clip~ -0.5 0.5;
#X obj 12 159 *~ 2;
#X obj 12 75 sig~ 1;
#X obj 12 96 -~;
#X obj 12 117 *~ -1;
#X obj 12 215 +~ 0.5;
#X obj 12 236 *~ 2;
#X obj 182 138 switch~;
#X obj 182 12 inlet;
#X obj 182 33 unpack f f;
#X obj 182 75 +;
#X obj 182 96 > 0;
#X obj 182 117 change;
#X obj 182 54 == 7;
#X obj 239 54 == 7;
#X obj 127 33 *~ 32;
#X connect 0 0 5 0;
#X connect 1 0 0 0;
#X connect 2 0 1 0;
#X connect 3 0 4 1;
#X connect 4 0 16 0;
#X connect 5 0 3 0;
#X connect 6 0 2 0;
#X connect 7 0 6 0;
#X connect 7 0 14 1;
#X connect 8 0 26 0;
#X connect 10 0 6 1;
#X connect 11 0 12 0;
#X connect 12 0 4 0;
#X connect 13 0 14 0;
#X connect 14 0 15 0;
#X connect 15 0 11 0;
#X connect 16 0 17 0;
#X connect 17 0 9 0;
#X connect 19 0 20 0;
#X connect 20 0 24 0;
#X connect 20 1 25 0;
#X connect 21 0 22 0;
#X connect 22 0 23 0;
#X connect 23 0 18 0;
#X connect 24 0 21 0;
#X connect 25 0 21 1;
#X connect 26 0 10 0;
#X restore 558 303 pd res.trap;
#N canvas 336 108 366 319 half.sine 0;
#X obj 12 12 inlet~;
#X obj 172 12 inlet~;
#X obj 157 96 clip~ 0.01 0.5;
#X obj 172 33 *~ 0.5;
#X obj 12 257 min~ 1;
#X obj 12 215 *~;
#X obj 67 173 sig~ 1;
#X obj 67 194 -~;
#X obj 52 215 *~;
#N canvas 0 23 450 300 <~ 0;
#X obj 31 31 inlet~;
#X obj 31 126 outlet~;
#N canvas 467 216 450 300 @hv_obj 0;
#X obj 217 60 inlet~;
#X obj 120 60 inlet~;
#X obj 170 183 outlet~;
#X connect 1 0 2 0;
#X restore 31 102 pd @hv_obj __and~f;
#X obj 136 80 sig~ 1;
#N canvas 350 241 223 209 @hv_obj 0;
#X obj 46 22 inlet~;
#X obj 46 147 outlet~;
#X obj 46 124 *~;
#X obj 129 22 inlet~;
#X obj 61 80 sig~ 1;
#X obj 61 102 -~;
#N canvas 0 23 450 300 hv.lte 0;
#X obj 150 34 inlet~;
#X obj 45 34 inlet~;
#X obj 45 129 outlet~;
#N canvas 467 216 450 300 @hv_obj 0;
#X obj 217 60 inlet~;
#X obj 120 60 inlet~;
#X obj 170 183 outlet~;
#X connect 1 0 2 0;
#X restore 45 105 pd @hv_obj __and~f;
#X obj 150 83 sig~ 1;
#N canvas 715 101 191 233 @hv_obj 0;
#X obj 49 83 -~;
#X obj 50 109 clip~ -1e-37 0;
#X obj 49 32 inlet~;
#X obj 93 33 inlet~;
#X obj 50 174 outlet~;
#X obj 50 151 *~ 1e+37;
#X obj 49 58 min~;
#X obj 50 130 +~ 1e-37;
#X connect 0 0 1 0;
#X connect 1 0 7 0;
#X connect 2 0 6 0;
#X connect 2 0 0 1;
#X connect 3 0 6 1;
#X connect 5 0 4 0;
#X connect 6 0 0 0;
#X connect 7 0 5 0;
#X restore 45 57 pd @hv_obj __lte~f;
#X connect 0 0 5 1;
#X connect 1 0 5 0;
#X connect 3 0 2 0;
#X connect 4 0 3 1;
#X connect 5 0 3 0;
#X restore 46 54 pd hv.lte;
#N canvas 0 23 238 193 hv.gte 0;
#X obj 150 34 inlet~;
#X obj 45 34 inlet~;
#X obj 45 129 outlet~;
#N canvas 467 216 290 220 @hv_obj 0;
#X obj 158 52 inlet~;
#X obj 61 52 inlet~;
#X obj 61 136 outlet~;
#X obj 61 100 *~;
#X connect 0 0 3 1;
#X connect 1 0 3 0;
#X connect 3 0 2 0;
#X restore 45 105 pd @hv_obj __and~f;
#X obj 150 83 sig~ 1;
#N canvas 249 541 148 189 @hv_obj 0;
#X obj 23 69 -~;
#X obj 23 94 clip~ -1e-37 0;
#X obj 23 18 inlet~;
#X obj 67 19 inlet~;
#X obj 23 159 outlet~;
#X obj 23 136 *~ 1e+37;
#X obj 23 44 min~;
#X obj 23 115 +~ 1e-37;
#X connect 0 0 1 0;
#X connect 1 0 7 0;
#X connect 2 0 6 0;
#X connect 3 0 6 1;
#X connect 3 0 0 1;
#X connect 5 0 4 0;
#X connect 6 0 0 0;
#X connect 7 0 5 0;
#X restore 45 57 pd @hv_obj __gte~f;
#X connect 0 0 5 1;
#X connect 1 0 5 0;
#X connect 3 0 2 0;
#X connect 4 0 3 1;
#X connect 5 0 3 0;
#X restore 116 54 pd hv.gte;
#X connect 0 0 6 0;
#X connect 0 0 7 0;
#X connect 2 0 1 0;
#X connect 3 0 6 1;
#X connect 3 0 7 1;
#X connect 4 0 5 0;
#X connect 5 0 2 1;
#X connect 6 0 2 0;
#X connect 7 0 5 1;
#X restore 31 54 pd @hv_obj __lt~f;
#X obj 130 31 sig~ 0.5;
#X connect 0 0 4 0;
#X connect 2 0 1 0;
#X connect 3 0 2 1;
#X connect 4 0 2 0;
#X connect 5 0 4 1;
#X restore 82 51 pd <~ 0.5;
#X obj 157 54 sig~ 0.5;
#X obj 157 75 -~;
#X obj 52 89 -~ 0.5;
#X obj 12 236 +~;
#X obj 52 110 /~;
#X obj 52 131 *~ 0.5;
#X obj 52 152 +~ 0.5;
#X obj 12 278 cos~;
#X obj 12 299 outlet~;
#X obj 252 138 switch~;
#X obj 252 12 inlet;
#X obj 252 33 unpack f f;
#X obj 252 75 +;
#X obj 252 96 > 0;
#X obj 252 117 change;
#X obj 252 54 == 4;
#X obj 309 54 == 4;
#X connect 0 0 5 0;
#X connect 0 0 9 0;
#X connect 0 0 12 0;
#X connect 1 0 3 0;
#X connect 2 0 14 1;
#X connect 3 0 11 1;
#X connect 4 0 17 0;
#X connect 5 0 13 0;
#X connect 6 0 7 0;
#X connect 7 0 8 1;
#X connect 8 0 13 1;
#X connect 9 0 5 1;
#X connect 9 0 7 1;
#X connect 10 0 11 0;
#X connect 11 0 2 0;
#X connect 12 0 14 0;
#X connect 13 0 4 0;
#X connect 14 0 15 0;
#X connect 15 0 16 0;
#X connect 16 0 8 0;
#X connect 17 0 18 0;
#X connect 20 0 21 0;
#X connect 21 0 25 0;
#X connect 21 1 26 0;
#X connect 22 0 23 0;
#X connect 23 0 24 0;
#X connect 24 0 19 0;
#X connect 25 0 22 0;
#X connect 26 0 22 1;
#X restore 328 303 pd half.sine;
#X obj 585 229 inlet~;
#X obj 68 409 outlet~;
#X obj 668 200 inlet;
#N canvas 204 224 313 316 sine.pulse 0;
#X obj 12 12 inlet~;
#X obj 82 12 inlet~;
#X obj 12 223 +~;
#X obj 82 75 clip~ 0.01 0.5;
#X obj 12 244 *~ 2;
#X obj 67 111 sig~ 0.5;
#X obj 67 132 -~;
#X obj 67 153 /~;
#X obj 52 174 *~;
#X obj 117 153 /~;
#X obj 132 132 -~;
#X obj 132 111 sig~ 1;
#X obj 117 195 *~;
#X obj 149 160 *~ -1;
#X obj 149 181 +~ 1;
#X obj 52 209 min~;
#X obj 82 54 +~ 0.5;
#X obj 82 33 *~ -0.5;
#X obj 12 265 cos~;
#X obj 12 286 outlet~;
#X obj 192 138 switch~;
#X obj 192 12 inlet;
#X obj 192 33 unpack f f;
#X obj 192 75 +;
#X obj 192 96 > 0;
#X obj 192 117 change;
#X obj 192 54 == 3;
#X obj 249 54 == 3;
#X connect 0 0 2 0;
#X connect 0 0 8 0;
#X connect 0 0 13 0;
#X connect 1 0 17 0;
#X connect 2 0 4 0;
#X connect 3 0 6 1;
#X connect 3 0 7 1;
#X connect 3 0 10 1;
#X connect 4 0 18 0;
#X connect 5 0 6 0;
#X connect 6 0 7 0;
#X connect 6 0 9 0;
#X connect 7 0 8 1;
#X connect 8 0 15 0;
#X connect 9 0 12 0;
#X connect 10 0 9 1;
#X connect 11 0 10 0;
#X connect 12 0 15 1;
#X connect 13 0 14 0;
#X connect 14 0 12 1;
#X connect 15 0 2 1;
#X connect 16 0 3 0;
#X connect 17 0 16 0;
#X connect 18 0 19 0;
#X connect 21 0 22 0;
#X connect 22 0 26 0;
#X connect 22 1 27 0;
#X connect 23 0 24 0;
#X connect 24 0 25 0;
#X connect 25 0 20 0;
#X connect 26 0 23 0;
#X connect 27 0 23 1;
#X restore 238 303 pd sine.pulse;
#X obj 68 55 phasor~;
#X obj 133 116 sig~ 1;
#X obj 133 137 -~;
#X obj 118 158 *~;
#X obj 68 158 *~;
#X obj 68 13 inlet~;
#X obj 68 34 /~ 2;
#N canvas 4 23 450 300 <= 0;
#X obj 45 34 inlet~;
#X obj 45 129 outlet~;
#N canvas 467 216 450 300 @hv_obj 0;
#X obj 217 60 inlet~;
#X obj 120 60 inlet~;
#X obj 170 183 outlet~;
#X connect 1 0 2 0;
#X restore 45 105 pd @hv_obj __and~f;
#X obj 150 83 sig~ 1;
#N canvas 715 101 191 233 @hv_obj 0;
#X obj 49 83 -~;
#X obj 50 109 clip~ -1e-37 0;
#X obj 49 32 inlet~;
#X obj 93 33 inlet~;
#X obj 50 174 outlet~;
#X obj 50 151 *~ 1e+37;
#X obj 49 58 min~;
#X obj 50 130 +~ 1e-37;
#X connect 0 0 1 0;
#X connect 1 0 7 0;
#X connect 2 0 6 0;
#X connect 2 0 0 1;
#X connect 3 0 6 1;
#X connect 5 0 4 0;
#X connect 6 0 0 0;
#X connect 7 0 5 0;
#X restore 45 57 pd @hv_obj __lte~f;
#X obj 150 34 sig~ 0.5;
#X connect 0 0 4 0;
#X connect 2 0 1 0;
#X connect 3 0 2 1;
#X connect 4 0 2 0;
#X connect 5 0 4 1;
#X restore 148 69 pd <= 0.5;
#X obj 118 95 -~ 0.5;
#N canvas 245 129 501 98 demultiplexer 0;
#X obj 47 47 *~;
#X obj 62 26 == 0;
#X obj 97 47 *~;
#X obj 112 26 == 1;
#X obj 147 47 *~;
#X obj 197 47 *~;
#X obj 247 47 *~;
#X obj 297 47 *~;
#X obj 347 47 *~;
#X obj 397 47 *~;
#X obj 162 26 == 2;
#X obj 212 26 == 3;
#X obj 262 26 == 4;
#X obj 312 26 == 5;
#X obj 362 26 == 6;
#X obj 412 26 == 7;
#X obj 12 33 inlet~;
#X obj 450 12 inlet;
#X obj 47 68 outlet~;
#X obj 97 68 outlet~;
#X obj 147 68 outlet~;
#X obj 197 68 outlet~;
#X obj 247 68 outlet~;
#X obj 297 68 outlet~;
#X obj 347 68 outlet~;
#X obj 397 68 outlet~;
#X connect 0 0 18 0;
#X connect 1 0 0 1;
#X connect 2 0 19 0;
#X connect 3 0 2 1;
#X connect 4 0 20 0;
#X connect 5 0 21 0;
#X connect 6 0 22 0;
#X connect 7 0 23 0;
#X connect 8 0 24 0;
#X connect 9 0 25 0;
#X connect 10 0 4 1;
#X connect 11 0 5 1;
#X connect 12 0 6 1;
#X connect 13 0 7 1;
#X connect 14 0 8 1;
#X connect 15 0 9 1;
#X connect 16 0 0 0;
#X connect 16 0 9 0;
#X connect 16 0 8 0;
#X connect 16 0 7 0;
#X connect 16 0 6 0;
#X connect 16 0 5 0;
#X connect 16 0 4 0;
#X connect 16 0 2 0;
#X connect 17 0 1 0;
#X connect 17 0 15 0;
#X connect 17 0 14 0;
#X connect 17 0 13 0;
#X connect 17 0 12 0;
#X connect 17 0 11 0;
#X connect 17 0 10 0;
#X connect 17 0 3 0;
#X restore 68 214 pd demultiplexer;
#N canvas 245 129 501 98 demultiplexer 0;
#X obj 47 47 *~;
#X obj 62 26 == 0;
#X obj 97 47 *~;
#X obj 112 26 == 1;
#X obj 147 47 *~;
#X obj 197 47 *~;
#X obj 247 47 *~;
#X obj 297 47 *~;
#X obj 347 47 *~;
#X obj 397 47 *~;
#X obj 162 26 == 2;
#X obj 212 26 == 3;
#X obj 262 26 == 4;
#X obj 312 26 == 5;
#X obj 362 26 == 6;
#X obj 412 26 == 7;
#X obj 12 33 inlet~;
#X obj 450 12 inlet;
#X obj 47 68 outlet~;
#X obj 97 68 outlet~;
#X obj 147 68 outlet~;
#X obj 197 68 outlet~;
#X obj 247 68 outlet~;
#X obj 297 68 outlet~;
#X obj 347 68 outlet~;
#X obj 397 68 outlet~;
#X connect 0 0 18 0;
#X connect 1 0 0 1;
#X connect 2 0 19 0;
#X connect 3 0 2 1;
#X connect 4 0 20 0;
#X connect 5 0 21 0;
#X connect 6 0 22 0;
#X connect 7 0 23 0;
#X connect 8 0 24 0;
#X connect 9 0 25 0;
#X connect 10 0 4 1;
#X connect 11 0 5 1;
#X connect 12 0 6 1;
#X connect 13 0 7 1;
#X connect 14 0 8 1;
#X connect 15 0 9 1;
#X connect 16 0 0 0;
#X connect 16 0 9 0;
#X connect 16 0 8 0;
#X connect 16 0 7 0;
#X connect 16 0 6 0;
#X connect 16 0 5 0;
#X connect 16 0 4 0;
#X connect 16 0 2 0;
#X connect 17 0 1 0;
#X connect 17 0 15 0;
#X connect 17 0 14 0;
#X connect 17 0 13 0;
#X connect 17 0 12 0;
#X connect 17 0 11 0;
#X connect 17 0 10 0;
#X connect 17 0 3 0;
#X restore 218 214 pd demultiplexer;
#X obj 738 200 inlet;
#X obj 668 289 pack f f;
#X obj 738 275 t b f;
#X obj 68 179 *~ 2;
#X obj 118 179 *~ 2;
#X obj 668 310 unpack f f;
#X obj 668 331 !=;
#X obj 68 366 -~;
#X connect 0 0 29 0;
#X connect 1 0 29 0;
#X connect 2 0 29 0;
#X connect 3 0 29 0;
#X connect 4 0 29 0;
#X connect 5 0 29 0;
#X connect 6 0 29 0;
#X connect 7 0 0 1;
#X connect 7 0 1 1;
#X connect 7 0 2 1;
#X connect 7 0 4 1;
#X connect 7 0 10 1;
#X connect 7 0 5 1;
#X connect 7 0 6 1;
#X connect 7 0 3 1;
#X connect 9 0 20 1;
#X connect 9 0 23 0;
#X connect 10 0 29 0;
#X connect 11 0 18 0;
#X connect 11 0 15 0;
#X connect 11 0 19 0;
#X connect 12 0 13 0;
#X connect 13 0 14 1;
#X connect 14 0 26 0;
#X connect 15 0 25 0;
#X connect 16 0 17 0;
#X connect 17 0 11 0;
#X connect 18 0 15 1;
#X connect 18 0 13 1;
#X connect 19 0 14 0;
#X connect 20 0 0 0;
#X connect 20 1 1 0;
#X connect 20 2 2 0;
#X connect 20 3 10 0;
#X connect 20 4 6 0;
#X connect 20 5 3 0;
#X connect 20 6 4 0;
#X connect 20 7 5 0;
#X connect 21 0 0 0;
#X connect 21 1 1 0;
#X connect 21 2 2 0;
#X connect 21 3 10 0;
#X connect 21 4 6 0;
#X connect 21 5 3 0;
#X connect 21 6 4 0;
#X connect 21 7 5 0;
#X connect 22 0 24 0;
#X connect 22 0 21 1;
#X connect 23 0 5 2;
#X connect 23 0 10 2;
#X connect 23 0 6 2;
#X connect 23 0 4 2;
#X connect 23 0 3 2;
#X connect 23 0 2 2;
#X connect 23 0 1 2;
#X connect 23 0 0 2;
#X connect 23 0 27 0;
#X connect 24 0 23 0;
#X connect 24 1 23 1;
#X connect 25 0 20 0;
#X connect 26 0 21 0;
#X connect 27 0 28 0;
#X connect 27 1 28 1;
#X connect 28 0 29 1;
#X connect 29 0 8 0;
