#N canvas 450 292 624 419 10;
#X obj 168 62 inlet~;
#X obj 183 83 wrap~;
#X obj 168 114 -~;
#X obj 168 175 tabread~ \$1;
#X obj 273 155 +~ 1;
#X obj 273 176 tabread~ \$1;
#X obj 91 57 loadbang;
#X msg 91 78 1;
#X obj 91 99 -~;
#X obj 258 197 *~;
#X obj 91 191 *~;
#X obj 91 213 +~;
#X obj 91 234 outlet~;
#X text 101 344 https://github.com/porres/pd-else;
#X text 101 329 Live-Electronics-Tutorial > Vol 2 > Part 6 > 24 > 3
> 1;
#X text 101 314 1.Linear.Interpolation;
#X text 168 42 (I1) Index;
#X text 91 294 References:;
#X text 91 254 (O1) Linear interpolation;
#X obj 375 91 inlet;
#X msg 375 112 set \$1;
#X connect 0 0 1 0;
#X connect 0 0 2 0;
#X connect 1 0 2 1;
#X connect 1 0 8 1;
#X connect 1 0 9 0;
#X connect 2 0 3 0;
#X connect 2 0 4 0;
#X connect 3 0 10 1;
#X connect 4 0 5 0;
#X connect 5 0 9 1;
#X connect 6 0 7 0;
#X connect 7 0 8 0;
#X connect 8 0 10 0;
#X connect 9 0 11 1;
#X connect 10 0 11 0;
#X connect 11 0 12 0;
#X connect 19 0 20 0;
#X connect 20 0 5 0;
#X connect 20 0 3 0;
