#N canvas 789 372 722 486 10;
#X obj 27 226 -~;
#X obj 209 225 -~;
#X obj 12 268 +~;
#X obj 194 268 +~;
#X obj 12 50 inlet~;
#X obj 370 31 inlet~;
#X obj 27 320 loadbang;
#X msg 27 341 1;
#X obj 27 362 -~;
#X obj 12 383 *~;
#X obj 194 383 *~;
#X obj 224 162 loadbang;
#X msg 224 183 1;
#X obj 224 204 -~;
#X obj 370 57 /~ 2;
#X obj 370 78 wrap~;
#X obj 370 99 *~ 2;
#X obj 355 220 *~;
#X obj 319 140 loadbang;
#X obj 319 182 -~;
#X msg 319 161 2;
#X obj 304 220 *~;
#X obj 304 346 +~;
#X obj 12 409 +~;
#X obj 12 430 outlet~;
#X text 12 30 (I1) Phasor;
#X text 370 11 (I2) Wavetable Position;
#X text 12 450 (O1) Wavetable Output;
#X obj 430 51 inlet;
#X obj 12 91 *~ \$2;
#X obj 27 247 *~ \$2;
#X obj 209 247 *~ \$2;
#X obj 12 294 tabread4~ \$1;
#X obj 194 294 tabread4~ \$1;
#X obj 430 72 list prepend set;
#X obj 42 268 r \$0-set;
#X obj 224 268 r \$0-set;
#X obj 590 51 inlet;
#X text 590 31 (I4) Set Size;
#X text 430 31 (I3) Set Wavetable Array;
#X obj 590 72 s \$0-size;
#X obj 54 227 r \$0-size;
#X obj 236 227 r \$0-size;
#X obj 39 71 r \$0-size;
#X obj 430 93 list trim;
#X obj 430 114 s \$0-set;
#N canvas 780 468 320 123 int~ 0;
#X obj 12 12 inlet~;
#X obj 27 38 wrap~;
#X obj 12 59 -~;
#X obj 12 80 outlet~;
#X connect 0 0 1 0;
#X connect 0 0 2 0;
#X connect 1 0 2 1;
#X connect 2 0 3 0;
#X restore 209 71 pd int~;
#N canvas 598 540 190 209 ma.<~ 0;
#X obj 37 5 inlet~;
#X obj 22 181 outlet~;
#X obj 22 96 loadbang;
#X msg 22 117 1;
#X obj 22 138 -~;
#X obj 22 159 max~ 0;
#X obj 37 66 -~;
#X obj 52 26 wrap~;
#X connect 0 0 6 0;
#X connect 0 0 7 0;
#X connect 2 0 3 0;
#X connect 3 0 4 0;
#X connect 4 0 5 0;
#X connect 5 0 1 0;
#X connect 6 0 4 1;
#X connect 7 0 6 1;
#X restore 239 135 pd ma.<~ 1;
#X connect 0 0 30 0;
#X connect 1 0 31 0;
#X connect 2 0 32 0;
#X connect 3 0 33 0;
#X connect 4 0 29 0;
#X connect 5 0 14 0;
#X connect 5 0 46 0;
#X connect 6 0 7 0;
#X connect 7 0 8 0;
#X connect 8 0 9 1;
#X connect 9 0 23 0;
#X connect 10 0 23 1;
#X connect 11 0 12 0;
#X connect 12 0 13 0;
#X connect 13 0 1 1;
#X connect 13 0 21 0;
#X connect 14 0 15 0;
#X connect 15 0 16 0;
#X connect 16 0 17 1;
#X connect 16 0 19 1;
#X connect 16 0 47 0;
#X connect 17 0 22 1;
#X connect 18 0 20 0;
#X connect 19 0 21 1;
#X connect 20 0 19 0;
#X connect 21 0 22 0;
#X connect 22 0 10 1;
#X connect 22 0 8 1;
#X connect 23 0 24 0;
#X connect 28 0 34 0;
#X connect 29 0 2 0;
#X connect 29 0 3 0;
#X connect 30 0 2 1;
#X connect 31 0 3 1;
#X connect 32 0 9 0;
#X connect 33 0 10 0;
#X connect 34 0 44 0;
#X connect 35 0 32 0;
#X connect 36 0 33 0;
#X connect 37 0 40 0;
#X connect 41 0 30 1;
#X connect 42 0 31 1;
#X connect 43 0 29 1;
#X connect 44 0 45 0;
#X connect 46 0 1 0;
#X connect 46 0 0 0;
#X connect 47 0 13 1;
#X connect 47 0 0 1;
#X connect 47 0 17 0;
