#N canvas 847 217 847 335 10;
#N canvas 829 466 271 432 integrator 1;
#X obj 12 251 inlet~;
#X obj 12 293 *~;
#X obj 12 221 block~ 1 1 1;
#X obj 12 413 outlet~;
#X obj 181 69 loadbang;
#X msg 181 132 1;
#X obj 181 153 atan;
#X obj 181 174 * 4;
#X obj 181 195 / 44100;
#X obj 181 90 samplerate~;
#X obj 181 111 t b a;
#X obj 166 216 *~;
#X obj 166 237 /~ 6.28319;
#X obj 166 258 -~ 0.25;
#X obj 166 279 cos~;
#X obj 223 216 * 2;
#X obj 166 22 inlet~ freq;
#X obj 166 43 clip~ 0 20000;
#X obj 12 314 +~;
#X obj 12 272 -~;
#X obj 57 328 clip~ -1 1;
#X obj 57 300 clip~ -1 1;
#X obj 12 371 *~ 1.25893;
#X obj 12 392 clip~ -1 1;
#X obj 57 350 delwrite~ \$0-tri 0;
#X obj 96 227 delread~ \$0-tri 0;
#X obj 57 258 *~ 0.0625;
#X connect 0 0 19 0;
#X connect 1 0 18 0;
#X connect 4 0 9 0;
#X connect 5 0 6 0;
#X connect 6 0 7 0;
#X connect 7 0 8 0;
#X connect 7 0 15 0;
#X connect 8 0 11 1;
#X connect 9 0 10 0;
#X connect 10 0 5 0;
#X connect 10 1 8 1;
#X connect 11 0 12 0;
#X connect 12 0 13 0;
#X connect 13 0 14 0;
#X connect 14 0 1 1;
#X connect 15 0 12 1;
#X connect 16 0 17 0;
#X connect 17 0 11 0;
#X connect 18 0 20 0;
#X connect 18 0 22 0;
#X connect 19 0 1 0;
#X connect 20 0 24 0;
#X connect 21 0 18 1;
#X connect 22 0 23 0;
#X connect 23 0 3 0;
#X connect 25 0 21 0;
#X connect 25 0 26 0;
#X connect 26 0 19 1;
#X restore 322 242 pd integrator;
#X obj 125 54 inlet~ freq;
#X obj 12 89 phasor~;
#X obj 125 148 *~;
#X obj 12 207 +~;
#N canvas 0 22 220 222 saw 0;
#X obj 62 119 -~ 1;
#X obj 62 141 outlet~;
#X obj 62 73 inlet~;
#X obj 62 97 +~;
#X connect 0 0 1 0;
#X connect 2 0 3 0;
#X connect 2 0 3 1;
#X connect 3 0 0 0;
#X restore 12 180 pd saw;
#X obj 382 130 wrap~;
#X obj 322 221 -~;
#X obj 337 197 +~;
#N canvas 0 22 220 222 saw 0;
#X obj 62 119 -~ 1;
#X obj 62 141 outlet~;
#X obj 62 73 inlet~;
#X obj 62 97 +~;
#X connect 0 0 1 0;
#X connect 2 0 3 0;
#X connect 2 0 3 1;
#X connect 3 0 0 0;
#X restore 337 170 pd saw;
#N canvas 0 22 253 235 1/Fs 0;
#X obj 55 77 samplerate~;
#X obj 55 57 loadbang;
#X msg 55 97 1 \$1;
#X obj 55 117 /;
#X obj 55 137 sig~;
#X obj 55 159 outlet~;
#X connect 0 0 2 0;
#X connect 1 0 0 0;
#X connect 2 0 3 0;
#X connect 3 0 4 0;
#X connect 4 0 5 0;
#X restore 140 121 pd 1/Fs;
#N canvas 0 22 532 303 polyblep 0;
#X obj 147 244 -~;
#X obj 372 82 -~;
#X obj 157 12 sig~ 1;
#X obj 177 49 /~;
#X obj 147 271 outlet~;
#X obj 12 12 inlet~ phase;
#X obj 387 12 inlet~ normalisedFreq;
#X obj 12 190 *~;
#X obj 162 190 *~;
#X obj 12 106 *~;
#X obj 162 163 -~;
#N canvas 467 216 175 111 @hv_obj 0;
#X obj 62 22 inlet~;
#X obj 12 12 inlet~;
#X obj 12 66 outlet~;
#X obj 12 39 *~;
#X connect 0 0 3 1;
#X connect 1 0 3 0;
#X connect 3 0 2 0;
#X restore 12 217 pd @hv_obj __and~f;
#N canvas 116 32 191 233 @hv_obj 0;
#X obj 49 83 -~;
#X obj 50 109 clip~ -1e-37 0;
#X obj 49 32 inlet~;
#X obj 93 33 inlet~;
#X obj 50 174 outlet~;
#X obj 50 151 *~ 1e+37;
#X obj 49 58 min~;
#X obj 50 130 +~ 1e-37;
#X connect 0 0 1 0;
#X connect 1 0 7 0;
#X connect 2 0 6 0;
#X connect 2 0 0 1;
#X connect 3 0 6 1;
#X connect 5 0 4 0;
#X connect 6 0 0 0;
#X connect 7 0 5 0;
#X restore 117 109 pd @hv_obj __lte~f;
#N canvas 258 74 144 198 @hv_obj 0;
#X obj 23 69 -~;
#X obj 23 94 clip~ -1e-37 0;
#X obj 23 18 inlet~;
#X obj 67 19 inlet~;
#X obj 23 159 outlet~;
#X obj 23 136 *~ 1e+37;
#X obj 23 44 min~;
#X obj 23 115 +~ 1e-37;
#X connect 0 0 1 0;
#X connect 1 0 7 0;
#X connect 2 0 6 0;
#X connect 3 0 6 1;
#X connect 3 0 0 1;
#X connect 5 0 4 0;
#X connect 6 0 0 0;
#X connect 7 0 5 0;
#X restore 267 109 pd @hv_obj __gte~f;
#X obj 177 136 -~;
#X obj 12 163 -~;
#N canvas 467 216 175 111 @hv_obj 0;
#X obj 62 22 inlet~;
#X obj 12 12 inlet~;
#X obj 12 66 outlet~;
#X obj 12 39 *~;
#X connect 0 0 3 1;
#X connect 1 0 3 0;
#X connect 3 0 2 0;
#X restore 162 217 pd @hv_obj __and~f;
#X connect 0 0 4 0;
#X connect 1 0 13 1;
#X connect 2 0 3 0;
#X connect 2 0 1 0;
#X connect 2 0 14 1;
#X connect 2 0 15 1;
#X connect 3 0 9 1;
#X connect 3 0 14 0;
#X connect 5 0 9 0;
#X connect 5 0 12 0;
#X connect 5 0 13 0;
#X connect 6 0 1 1;
#X connect 6 0 3 1;
#X connect 6 0 12 1;
#X connect 7 0 11 0;
#X connect 8 0 16 0;
#X connect 9 0 10 0;
#X connect 9 0 15 0;
#X connect 10 0 8 0;
#X connect 10 0 8 1;
#X connect 11 0 0 0;
#X connect 12 0 11 1;
#X connect 13 0 16 1;
#X connect 14 0 10 1;
#X connect 15 0 7 0;
#X connect 15 0 7 1;
#X connect 16 0 0 1;
#X restore 62 190 pd polyblep;
#N canvas 0 22 532 303 polyblep 0;
#X obj 147 244 -~;
#X obj 372 82 -~;
#X obj 157 12 sig~ 1;
#X obj 177 49 /~;
#X obj 147 271 outlet~;
#X obj 12 12 inlet~ phase;
#X obj 387 12 inlet~ normalisedFreq;
#X obj 12 190 *~;
#X obj 162 190 *~;
#X obj 12 106 *~;
#X obj 162 163 -~;
#N canvas 467 216 175 111 @hv_obj 0;
#X obj 62 22 inlet~;
#X obj 12 12 inlet~;
#X obj 12 66 outlet~;
#X obj 12 39 *~;
#X connect 0 0 3 1;
#X connect 1 0 3 0;
#X connect 3 0 2 0;
#X restore 12 217 pd @hv_obj __and~f;
#N canvas 116 32 191 233 @hv_obj 0;
#X obj 49 83 -~;
#X obj 50 109 clip~ -1e-37 0;
#X obj 49 32 inlet~;
#X obj 93 33 inlet~;
#X obj 50 174 outlet~;
#X obj 50 151 *~ 1e+37;
#X obj 49 58 min~;
#X obj 50 130 +~ 1e-37;
#X connect 0 0 1 0;
#X connect 1 0 7 0;
#X connect 2 0 6 0;
#X connect 2 0 0 1;
#X connect 3 0 6 1;
#X connect 5 0 4 0;
#X connect 6 0 0 0;
#X connect 7 0 5 0;
#X restore 117 109 pd @hv_obj __lte~f;
#N canvas 258 74 144 198 @hv_obj 0;
#X obj 23 69 -~;
#X obj 23 94 clip~ -1e-37 0;
#X obj 23 18 inlet~;
#X obj 67 19 inlet~;
#X obj 23 159 outlet~;
#X obj 23 136 *~ 1e+37;
#X obj 23 44 min~;
#X obj 23 115 +~ 1e-37;
#X connect 0 0 1 0;
#X connect 1 0 7 0;
#X connect 2 0 6 0;
#X connect 3 0 6 1;
#X connect 3 0 0 1;
#X connect 5 0 4 0;
#X connect 6 0 0 0;
#X connect 7 0 5 0;
#X restore 267 109 pd @hv_obj __gte~f;
#X obj 177 136 -~;
#X obj 12 163 -~;
#N canvas 467 216 175 111 @hv_obj 0;
#X obj 62 22 inlet~;
#X obj 12 12 inlet~;
#X obj 12 66 outlet~;
#X obj 12 39 *~;
#X connect 0 0 3 1;
#X connect 1 0 3 0;
#X connect 3 0 2 0;
#X restore 162 217 pd @hv_obj __and~f;
#X connect 0 0 4 0;
#X connect 1 0 13 1;
#X connect 2 0 3 0;
#X connect 2 0 1 0;
#X connect 2 0 14 1;
#X connect 2 0 15 1;
#X connect 3 0 9 1;
#X connect 3 0 14 0;
#X connect 5 0 9 0;
#X connect 5 0 12 0;
#X connect 5 0 13 0;
#X connect 6 0 1 1;
#X connect 6 0 3 1;
#X connect 6 0 12 1;
#X connect 7 0 11 0;
#X connect 8 0 16 0;
#X connect 9 0 10 0;
#X connect 9 0 15 0;
#X connect 10 0 8 0;
#X connect 10 0 8 1;
#X connect 11 0 0 0;
#X connect 12 0 11 1;
#X connect 13 0 16 1;
#X connect 14 0 10 1;
#X connect 15 0 7 0;
#X connect 15 0 7 1;
#X connect 16 0 0 1;
#X restore 382 162 pd polyblep;
#X obj 422 75 inlet phase;
#X obj 157 294 outlet~ square;
#X obj 125 75 clip~ 0 44100;
#X obj 322 263 outlet~ triangle;
#X obj 222 117 +~;
#X obj 222 138 wrap~;
#X obj 157 231 -~;
#X obj 172 197 +~;
#N canvas 0 22 220 222 saw 0;
#X obj 62 119 -~ 1;
#X obj 62 141 outlet~;
#X obj 62 73 inlet~;
#X obj 62 97 +~;
#X connect 0 0 1 0;
#X connect 2 0 3 0;
#X connect 2 0 3 1;
#X connect 3 0 0 0;
#X restore 172 170 pd saw;
#X obj 157 273 -~ 1;
#X obj 157 252 +~;
#X obj 295 103 samphold~;
#X obj 295 201 +~;
#X obj 295 57 inlet~ width;
#N canvas 0 22 532 303 polyblep 0;
#X obj 147 244 -~;
#X obj 372 82 -~;
#X obj 157 12 sig~ 1;
#X obj 177 49 /~;
#X obj 147 271 outlet~;
#X obj 12 12 inlet~ phase;
#X obj 387 12 inlet~ normalisedFreq;
#X obj 12 190 *~;
#X obj 162 190 *~;
#X obj 12 106 *~;
#X obj 162 163 -~;
#N canvas 467 216 175 111 @hv_obj 0;
#X obj 62 22 inlet~;
#X obj 12 12 inlet~;
#X obj 12 66 outlet~;
#X obj 12 39 *~;
#X connect 0 0 3 1;
#X connect 1 0 3 0;
#X connect 3 0 2 0;
#X restore 12 217 pd @hv_obj __and~f;
#N canvas 116 32 191 233 @hv_obj 0;
#X obj 49 83 -~;
#X obj 50 109 clip~ -1e-37 0;
#X obj 49 32 inlet~;
#X obj 93 33 inlet~;
#X obj 50 174 outlet~;
#X obj 50 151 *~ 1e+37;
#X obj 49 58 min~;
#X obj 50 130 +~ 1e-37;
#X connect 0 0 1 0;
#X connect 1 0 7 0;
#X connect 2 0 6 0;
#X connect 2 0 0 1;
#X connect 3 0 6 1;
#X connect 5 0 4 0;
#X connect 6 0 0 0;
#X connect 7 0 5 0;
#X restore 117 109 pd @hv_obj __lte~f;
#N canvas 258 74 144 198 @hv_obj 0;
#X obj 23 69 -~;
#X obj 23 94 clip~ -1e-37 0;
#X obj 23 18 inlet~;
#X obj 67 19 inlet~;
#X obj 23 159 outlet~;
#X obj 23 136 *~ 1e+37;
#X obj 23 44 min~;
#X obj 23 115 +~ 1e-37;
#X connect 0 0 1 0;
#X connect 1 0 7 0;
#X connect 2 0 6 0;
#X connect 3 0 6 1;
#X connect 3 0 0 1;
#X connect 5 0 4 0;
#X connect 6 0 0 0;
#X connect 7 0 5 0;
#X restore 267 109 pd @hv_obj __gte~f;
#X obj 177 136 -~;
#X obj 12 163 -~;
#N canvas 467 216 175 111 @hv_obj 0;
#X obj 62 22 inlet~;
#X obj 12 12 inlet~;
#X obj 12 66 outlet~;
#X obj 12 39 *~;
#X connect 0 0 3 1;
#X connect 1 0 3 0;
#X connect 3 0 2 0;
#X restore 162 217 pd @hv_obj __and~f;
#X connect 0 0 4 0;
#X connect 1 0 13 1;
#X connect 2 0 3 0;
#X connect 2 0 1 0;
#X connect 2 0 14 1;
#X connect 2 0 15 1;
#X connect 3 0 9 1;
#X connect 3 0 14 0;
#X connect 5 0 9 0;
#X connect 5 0 12 0;
#X connect 5 0 13 0;
#X connect 6 0 1 1;
#X connect 6 0 3 1;
#X connect 6 0 12 1;
#X connect 7 0 11 0;
#X connect 8 0 16 0;
#X connect 9 0 10 0;
#X connect 9 0 15 0;
#X connect 10 0 8 0;
#X connect 10 0 8 1;
#X connect 11 0 0 0;
#X connect 12 0 11 1;
#X connect 13 0 16 1;
#X connect 14 0 10 1;
#X connect 15 0 7 0;
#X connect 15 0 7 1;
#X connect 16 0 0 1;
#X restore 222 162 pd polyblep;
#X obj 295 79 clip~ 0 1;
#X obj 12 273 *~ -1;
#X obj 372 103 +~ 0.5;
#X obj 200 54 / 2;
#X text 460 226 http://musicdsp.org/files/bandlimited.pdf;
#X text 460 246 http://www.martin-finke.de/blog/articles/audio-plugins-018-polyblep-oscillator/
;
#X text 460 206 https://github.com/cfloisand/pd-externals/tree/master/Source
;
#X text 460 186 References:;
#X text 460 276 https://github.com/enzienaudio/heavylib/tree/master/hv.osc
;
#X text 461 143 Mike Moreno;
#X text 461 163 https://github.com/MikeMorenoAudio;
#X obj 422 103 cos~;
#X obj 422 124 outlet~ sine;
#X obj 12 294 outlet~ saw;
#X obj 200 33 samplerate~;
#X obj 200 12 loadbang;
#X text 460 296 http://www.discodsp.net/VAFilterDesign_1.1.1.pdf;
#X connect 0 0 16 0;
#X connect 1 0 15 0;
#X connect 2 0 5 0;
#X connect 2 0 11 0;
#X connect 2 0 17 0;
#X connect 2 0 24 1;
#X connect 2 0 30 0;
#X connect 2 0 39 0;
#X connect 3 0 11 1;
#X connect 3 0 12 1;
#X connect 3 0 27 1;
#X connect 4 0 7 0;
#X connect 4 0 19 0;
#X connect 4 0 29 0;
#X connect 5 0 4 0;
#X connect 6 0 9 0;
#X connect 6 0 12 0;
#X connect 7 0 0 0;
#X connect 8 0 7 1;
#X connect 9 0 8 0;
#X connect 10 0 3 1;
#X connect 11 0 4 1;
#X connect 12 0 8 1;
#X connect 13 0 2 1;
#X connect 15 0 2 0;
#X connect 15 0 3 0;
#X connect 15 0 0 1;
#X connect 17 0 18 0;
#X connect 18 0 21 0;
#X connect 18 0 27 0;
#X connect 19 0 23 0;
#X connect 20 0 19 1;
#X connect 21 0 20 0;
#X connect 22 0 14 0;
#X connect 23 0 22 0;
#X connect 24 0 17 1;
#X connect 24 0 25 0;
#X connect 24 0 25 1;
#X connect 25 0 23 1;
#X connect 26 0 28 0;
#X connect 27 0 20 1;
#X connect 28 0 24 0;
#X connect 29 0 41 0;
#X connect 30 0 6 0;
#X connect 31 0 15 2;
#X connect 39 0 40 0;
#X connect 42 0 31 0;
#X connect 43 0 42 0;
