#N canvas 205 180 549 279 10;
#X obj 12 12 inlet~ freq;
#X obj 12 38 phasor~;
#X obj 125 109 *~;
#X obj 12 168 +~;
#N canvas 0 22 220 222 saw 0;
#X obj 62 119 -~ 1;
#X obj 62 141 outlet~;
#X obj 62 73 inlet~;
#X obj 62 97 +~;
#X connect 0 0 1 0;
#X connect 2 0 3 0;
#X connect 2 0 3 1;
#X connect 3 0 0 0;
#X restore 12 141 pd saw;
#N canvas 0 22 253 235 1/Fs 0;
#X obj 55 77 samplerate~;
#X obj 55 57 loadbang;
#X msg 55 97 1 \$1;
#X obj 55 117 /;
#X obj 55 137 sig~;
#X obj 55 159 outlet~;
#X connect 0 0 2 0;
#X connect 1 0 0 0;
#X connect 2 0 3 0;
#X connect 3 0 4 0;
#X connect 4 0 5 0;
#X restore 140 82 pd 1/Fs;
#N canvas 0 22 532 303 polyblep 0;
#X obj 147 244 -~;
#X obj 372 82 -~;
#X obj 157 12 sig~ 1;
#X obj 177 49 /~;
#X obj 147 271 outlet~;
#X obj 12 12 inlet~ phase;
#X obj 387 12 inlet~ normalisedFreq;
#X obj 12 190 *~;
#X obj 162 190 *~;
#X obj 12 106 *~;
#X obj 162 163 -~;
#N canvas 467 216 175 111 @hv_obj 0;
#X obj 62 22 inlet~;
#X obj 12 12 inlet~;
#X obj 12 66 outlet~;
#X obj 12 39 *~;
#X connect 0 0 3 1;
#X connect 1 0 3 0;
#X connect 3 0 2 0;
#X restore 12 217 pd @hv_obj __and~f;
#N canvas 116 32 191 233 @hv_obj 0;
#X obj 49 83 -~;
#X obj 50 109 clip~ -1e-37 0;
#X obj 49 32 inlet~;
#X obj 93 33 inlet~;
#X obj 50 174 outlet~;
#X obj 50 151 *~ 1e+37;
#X obj 49 58 min~;
#X obj 50 130 +~ 1e-37;
#X connect 0 0 1 0;
#X connect 1 0 7 0;
#X connect 2 0 6 0;
#X connect 2 0 0 1;
#X connect 3 0 6 1;
#X connect 5 0 4 0;
#X connect 6 0 0 0;
#X connect 7 0 5 0;
#X restore 117 109 pd @hv_obj __lte~f;
#N canvas 258 74 144 198 @hv_obj 0;
#X obj 23 69 -~;
#X obj 23 94 clip~ -1e-37 0;
#X obj 23 18 inlet~;
#X obj 67 19 inlet~;
#X obj 23 159 outlet~;
#X obj 23 136 *~ 1e+37;
#X obj 23 44 min~;
#X obj 23 115 +~ 1e-37;
#X connect 0 0 1 0;
#X connect 1 0 7 0;
#X connect 2 0 6 0;
#X connect 3 0 6 1;
#X connect 3 0 0 1;
#X connect 5 0 4 0;
#X connect 6 0 0 0;
#X connect 7 0 5 0;
#X restore 267 109 pd @hv_obj __gte~f;
#X obj 177 136 -~;
#X obj 12 163 -~;
#N canvas 467 216 175 111 @hv_obj 0;
#X obj 62 22 inlet~;
#X obj 12 12 inlet~;
#X obj 12 66 outlet~;
#X obj 12 39 *~;
#X connect 0 0 3 1;
#X connect 1 0 3 0;
#X connect 3 0 2 0;
#X restore 162 217 pd @hv_obj __and~f;
#X connect 0 0 4 0;
#X connect 1 0 13 1;
#X connect 2 0 3 0;
#X connect 2 0 1 0;
#X connect 2 0 14 1;
#X connect 2 0 15 1;
#X connect 3 0 9 1;
#X connect 3 0 14 0;
#X connect 5 0 9 0;
#X connect 5 0 12 0;
#X connect 5 0 13 0;
#X connect 6 0 1 1;
#X connect 6 0 3 1;
#X connect 6 0 12 1;
#X connect 7 0 11 0;
#X connect 8 0 16 0;
#X connect 9 0 10 0;
#X connect 9 0 15 0;
#X connect 10 0 8 0;
#X connect 10 0 8 1;
#X connect 11 0 0 0;
#X connect 12 0 11 1;
#X connect 13 0 16 1;
#X connect 14 0 10 1;
#X connect 15 0 7 0;
#X connect 15 0 7 1;
#X connect 16 0 0 1;
#X restore 62 151 pd polyblep;
#X obj 12 211 outlet~;
#X obj 12 189 *~ -1;
#X text 153 172 http://musicdsp.org/files/bandlimited.pdf;
#X text 153 192 http://www.martin-finke.de/blog/articles/audio-plugins-018-polyblep-oscillator/
;
#X text 153 152 https://github.com/cfloisand/pd-externals/tree/master/Source
;
#X text 153 132 References:;
#X text 153 222 https://github.com/enzienaudio/heavylib/tree/master/hv.osc
;
#X text 254 79 Mike Moreno;
#X text 254 99 https://github.com/MikeMorenoAudio;
#X obj 196 52 cos~;
#X obj 196 73 outlet~;
#X obj 270 24 inlet phase;
#X connect 0 0 1 0;
#X connect 0 0 2 0;
#X connect 1 0 4 0;
#X connect 1 0 6 0;
#X connect 1 0 16 0;
#X connect 2 0 6 1;
#X connect 3 0 8 0;
#X connect 4 0 3 0;
#X connect 5 0 2 1;
#X connect 6 0 3 1;
#X connect 8 0 7 0;
#X connect 16 0 17 0;
#X connect 18 0 1 1;
