#N canvas 606 211 486 390 10;
#X obj 12 46 phasor~;
#X obj 125 107 *~;
#X obj 12 163 +~;
#N canvas 638 238 147 105 saw 0;
#X obj 12 54 -~ 1;
#X obj 12 75 outlet~;
#X obj 12 12 inlet~;
#X obj 12 33 +~;
#X connect 0 0 1 0;
#X connect 2 0 3 0;
#X connect 2 0 3 1;
#X connect 3 0 0 0;
#X restore 12 137 pd saw;
#N canvas 852 212 141 148 1/Fs 0;
#X obj 12 33 samplerate~;
#X obj 12 12 loadbang;
#X msg 12 54 1 \$1;
#X obj 12 75 /;
#X obj 12 96 sig~;
#X obj 12 117 outlet~;
#X connect 0 0 2 0;
#X connect 1 0 0 0;
#X connect 2 0 3 0;
#X connect 3 0 4 0;
#X connect 4 0 5 0;
#X restore 140 86 pd 1/Fs;
#N canvas 614 197 372 216 polyblep 0;
#X obj 164 166 -~;
#X obj 316 88 -~;
#X obj 316 22 sig~ 1;
#X obj 104 36 /~;
#X obj 164 192 outlet~;
#X obj 44 12 inlet~ phase;
#X obj 149 12 inlet~ normalisedFreq;
#X obj 12 126 *~;
#X obj 179 114 *~;
#X obj 12 74 *~;
#X obj 179 88 -~;
#N canvas 598 211 167 81 @hv_obj 0;
#X obj 62 19 inlet~;
#X obj 12 12 inlet~;
#X obj 12 54 outlet~;
#X obj 12 33 *~;
#X connect 0 0 3 1;
#X connect 1 0 3 0;
#X connect 3 0 2 0;
#X restore 12 152 pd @hv_obj __and~f;
#N canvas 735 240 164 174 @hv_obj 0;
#X obj 12 54 -~;
#X obj 12 75 clip~ -1e-37 0;
#X obj 12 12 inlet~;
#X obj 62 19 inlet~;
#X obj 12 138 outlet~;
#X obj 12 117 *~ 1e+37;
#X obj 12 33 min~;
#X obj 12 96 +~ 1e-37;
#X connect 0 0 1 0;
#X connect 1 0 7 0;
#X connect 2 0 6 0;
#X connect 2 0 0 1;
#X connect 3 0 6 1;
#X connect 5 0 4 0;
#X connect 6 0 0 0;
#X connect 7 0 5 0;
#X restore 44 126 pd @hv_obj __lte~f;
#N canvas 258 74 164 168 @hv_obj 0;
#X obj 12 54 -~;
#X obj 12 75 clip~ -1e-37 0;
#X obj 12 12 inlet~;
#X obj 62 19 inlet~;
#X obj 12 138 outlet~;
#X obj 12 117 *~ 1e+37;
#X obj 12 33 min~;
#X obj 12 96 +~ 1e-37;
#X connect 0 0 1 0;
#X connect 1 0 7 0;
#X connect 2 0 6 0;
#X connect 3 0 6 1;
#X connect 3 0 0 1;
#X connect 5 0 4 0;
#X connect 6 0 0 0;
#X connect 7 0 5 0;
#X restore 211 114 pd @hv_obj __gte~f;
#X obj 194 62 -~;
#X obj 12 100 -~;
#N canvas 467 216 167 83 @hv_obj 0;
#X obj 62 19 inlet~;
#X obj 12 12 inlet~;
#X obj 12 54 outlet~;
#X obj 12 33 *~;
#X connect 0 0 3 1;
#X connect 1 0 3 0;
#X connect 3 0 2 0;
#X restore 179 140 pd @hv_obj __and~f;
#X connect 0 0 4 0;
#X connect 1 0 13 1;
#X connect 2 0 3 0;
#X connect 2 0 1 0;
#X connect 2 0 14 1;
#X connect 2 0 15 1;
#X connect 3 0 9 1;
#X connect 3 0 14 0;
#X connect 5 0 9 0;
#X connect 5 0 12 0;
#X connect 5 0 13 0;
#X connect 6 0 3 1;
#X connect 6 0 12 1;
#X connect 6 0 1 1;
#X connect 7 0 11 0;
#X connect 8 0 16 0;
#X connect 9 0 10 0;
#X connect 9 0 15 0;
#X connect 10 0 8 0;
#X connect 10 0 8 1;
#X connect 11 0 0 0;
#X connect 12 0 11 1;
#X connect 13 0 16 1;
#X connect 14 0 10 1;
#X connect 15 0 7 0;
#X connect 15 0 7 1;
#X connect 16 0 0 1;
#X restore 62 149 pd polyblep;
#X obj 381 32 inlet phase;
#X obj 157 240 outlet~ square;
#X obj 222 74 +~;
#X obj 222 95 wrap~;
#X obj 157 177 -~;
#X obj 172 156 +~;
#N canvas 4 23 220 222 saw 0;
#X obj 62 119 -~ 1;
#X obj 62 141 outlet~;
#X obj 62 73 inlet~;
#X obj 62 97 +~;
#X connect 0 0 1 0;
#X connect 2 0 3 0;
#X connect 2 0 3 1;
#X connect 3 0 0 0;
#X restore 172 130 pd saw;
#X obj 157 219 -~ 1;
#X obj 157 198 +~;
#X obj 295 60 samphold~;
#X obj 295 184 +~;
#X obj 295 12 inlet~ width;
#X obj 295 34 clip~ 0 1;
#X obj 12 221 *~ -1;
#X text 22 303 http://musicdsp.org/files/bandlimited.pdf;
#X text 22 323 http://www.martin-finke.de/blog/articles/audio-plugins-018-polyblep-oscillator/
;
#X text 22 283 https://github.com/cfloisand/pd-externals/tree/master/Source
;
#X text 22 353 https://github.com/enzienaudio/heavylib/tree/master/hv.osc
;
#X text 247 220 Mike Moreno;
#X obj 363 60 cos~;
#X obj 363 81 outlet~ sine;
#X obj 12 243 outlet~ saw;
#X obj 125 12 inlet~ freq;
#N canvas 614 197 372 216 polyblep 0;
#X obj 164 166 -~;
#X obj 316 88 -~;
#X obj 316 22 sig~ 1;
#X obj 104 36 /~;
#X obj 164 192 outlet~;
#X obj 44 12 inlet~ phase;
#X obj 149 12 inlet~ normalisedFreq;
#X obj 12 126 *~;
#X obj 179 114 *~;
#X obj 12 74 *~;
#X obj 179 88 -~;
#N canvas 598 211 167 81 @hv_obj 0;
#X obj 62 19 inlet~;
#X obj 12 12 inlet~;
#X obj 12 54 outlet~;
#X obj 12 33 *~;
#X connect 0 0 3 1;
#X connect 1 0 3 0;
#X connect 3 0 2 0;
#X restore 12 152 pd @hv_obj __and~f;
#N canvas 735 240 164 174 @hv_obj 0;
#X obj 12 54 -~;
#X obj 12 75 clip~ -1e-37 0;
#X obj 12 12 inlet~;
#X obj 62 19 inlet~;
#X obj 12 138 outlet~;
#X obj 12 117 *~ 1e+37;
#X obj 12 33 min~;
#X obj 12 96 +~ 1e-37;
#X connect 0 0 1 0;
#X connect 1 0 7 0;
#X connect 2 0 6 0;
#X connect 2 0 0 1;
#X connect 3 0 6 1;
#X connect 5 0 4 0;
#X connect 6 0 0 0;
#X connect 7 0 5 0;
#X restore 44 126 pd @hv_obj __lte~f;
#N canvas 258 74 164 168 @hv_obj 0;
#X obj 12 54 -~;
#X obj 12 75 clip~ -1e-37 0;
#X obj 12 12 inlet~;
#X obj 62 19 inlet~;
#X obj 12 138 outlet~;
#X obj 12 117 *~ 1e+37;
#X obj 12 33 min~;
#X obj 12 96 +~ 1e-37;
#X connect 0 0 1 0;
#X connect 1 0 7 0;
#X connect 2 0 6 0;
#X connect 3 0 6 1;
#X connect 3 0 0 1;
#X connect 5 0 4 0;
#X connect 6 0 0 0;
#X connect 7 0 5 0;
#X restore 211 114 pd @hv_obj __gte~f;
#X obj 194 62 -~;
#X obj 12 100 -~;
#N canvas 467 216 167 83 @hv_obj 0;
#X obj 62 19 inlet~;
#X obj 12 12 inlet~;
#X obj 12 54 outlet~;
#X obj 12 33 *~;
#X connect 0 0 3 1;
#X connect 1 0 3 0;
#X connect 3 0 2 0;
#X restore 179 140 pd @hv_obj __and~f;
#X connect 0 0 4 0;
#X connect 1 0 13 1;
#X connect 2 0 3 0;
#X connect 2 0 1 0;
#X connect 2 0 14 1;
#X connect 2 0 15 1;
#X connect 3 0 9 1;
#X connect 3 0 14 0;
#X connect 5 0 9 0;
#X connect 5 0 12 0;
#X connect 5 0 13 0;
#X connect 6 0 3 1;
#X connect 6 0 12 1;
#X connect 6 0 1 1;
#X connect 7 0 11 0;
#X connect 8 0 16 0;
#X connect 9 0 10 0;
#X connect 9 0 15 0;
#X connect 10 0 8 0;
#X connect 10 0 8 1;
#X connect 11 0 0 0;
#X connect 12 0 11 1;
#X connect 13 0 16 1;
#X connect 14 0 10 1;
#X connect 15 0 7 0;
#X connect 15 0 7 1;
#X connect 16 0 0 1;
#X restore 222 121 pd polyblep;
#X text 247 240 https://github.com/MikeMorenoAudio;
#X text 12 263 References:;
#X connect 0 0 3 0;
#X connect 0 0 5 0;
#X connect 0 0 8 0;
#X connect 0 0 15 1;
#X connect 0 0 25 0;
#X connect 1 0 5 1;
#X connect 1 0 29 1;
#X connect 2 0 10 0;
#X connect 2 0 19 0;
#X connect 3 0 2 0;
#X connect 4 0 1 1;
#X connect 5 0 2 1;
#X connect 6 0 0 1;
#X connect 8 0 9 0;
#X connect 9 0 12 0;
#X connect 9 0 29 0;
#X connect 10 0 14 0;
#X connect 11 0 10 1;
#X connect 12 0 11 0;
#X connect 13 0 7 0;
#X connect 14 0 13 0;
#X connect 15 0 8 1;
#X connect 15 0 16 0;
#X connect 15 0 16 1;
#X connect 16 0 14 1;
#X connect 17 0 18 0;
#X connect 18 0 15 0;
#X connect 19 0 27 0;
#X connect 25 0 26 0;
#X connect 28 0 0 0;
#X connect 28 0 1 0;
#X connect 29 0 11 1;
