#N canvas 838 255 1055 592 10;
#X obj 12 69 phasor~;
#X obj 125 140 *~;
#X obj 12 199 +~;
#N canvas 0 22 220 222 saw 0;
#X obj 62 119 -~ 1;
#X obj 62 141 outlet~;
#X obj 62 73 inlet~;
#X obj 62 97 +~;
#X connect 0 0 1 0;
#X connect 2 0 3 0;
#X connect 2 0 3 1;
#X connect 3 0 0 0;
#X restore 12 172 pd saw;
#X obj 372 113 wrap~;
#X obj 312 216 -~;
#X obj 327 189 +~;
#N canvas 0 22 220 222 saw 0;
#X obj 62 119 -~ 1;
#X obj 62 141 outlet~;
#X obj 62 73 inlet~;
#X obj 62 97 +~;
#X connect 0 0 1 0;
#X connect 2 0 3 0;
#X connect 2 0 3 1;
#X connect 3 0 0 0;
#X restore 327 162 pd saw;
#N canvas 0 22 253 235 1/Fs 0;
#X obj 55 77 samplerate~;
#X obj 55 57 loadbang;
#X msg 55 97 1 \$1;
#X obj 55 117 /;
#X obj 55 137 sig~;
#X obj 55 159 outlet~;
#X connect 0 0 2 0;
#X connect 1 0 0 0;
#X connect 2 0 3 0;
#X connect 3 0 4 0;
#X connect 4 0 5 0;
#X restore 140 113 pd 1/Fs;
#N canvas 0 22 532 303 polyblep 0;
#X obj 147 244 -~;
#X obj 372 82 -~;
#X obj 157 12 sig~ 1;
#X obj 177 49 /~;
#X obj 147 271 outlet~;
#X obj 12 12 inlet~ phase;
#X obj 387 12 inlet~ normalisedFreq;
#X obj 12 190 *~;
#X obj 162 190 *~;
#X obj 12 106 *~;
#X obj 162 163 -~;
#N canvas 467 216 175 111 @hv_obj 0;
#X obj 62 22 inlet~;
#X obj 12 12 inlet~;
#X obj 12 66 outlet~;
#X obj 12 39 *~;
#X connect 0 0 3 1;
#X connect 1 0 3 0;
#X connect 3 0 2 0;
#X restore 12 217 pd @hv_obj __and~f;
#N canvas 116 32 191 233 @hv_obj 0;
#X obj 49 83 -~;
#X obj 50 109 clip~ -1e-37 0;
#X obj 49 32 inlet~;
#X obj 93 33 inlet~;
#X obj 50 174 outlet~;
#X obj 50 151 *~ 1e+37;
#X obj 49 58 min~;
#X obj 50 130 +~ 1e-37;
#X connect 0 0 1 0;
#X connect 1 0 7 0;
#X connect 2 0 6 0;
#X connect 2 0 0 1;
#X connect 3 0 6 1;
#X connect 5 0 4 0;
#X connect 6 0 0 0;
#X connect 7 0 5 0;
#X restore 117 109 pd @hv_obj __lte~f;
#N canvas 258 74 144 198 @hv_obj 0;
#X obj 23 69 -~;
#X obj 23 94 clip~ -1e-37 0;
#X obj 23 18 inlet~;
#X obj 67 19 inlet~;
#X obj 23 159 outlet~;
#X obj 23 136 *~ 1e+37;
#X obj 23 44 min~;
#X obj 23 115 +~ 1e-37;
#X connect 0 0 1 0;
#X connect 1 0 7 0;
#X connect 2 0 6 0;
#X connect 3 0 6 1;
#X connect 3 0 0 1;
#X connect 5 0 4 0;
#X connect 6 0 0 0;
#X connect 7 0 5 0;
#X restore 267 109 pd @hv_obj __gte~f;
#X obj 177 136 -~;
#X obj 12 163 -~;
#N canvas 467 216 175 111 @hv_obj 0;
#X obj 62 22 inlet~;
#X obj 12 12 inlet~;
#X obj 12 66 outlet~;
#X obj 12 39 *~;
#X connect 0 0 3 1;
#X connect 1 0 3 0;
#X connect 3 0 2 0;
#X restore 162 217 pd @hv_obj __and~f;
#X connect 0 0 4 0;
#X connect 1 0 13 1;
#X connect 2 0 3 0;
#X connect 2 0 1 0;
#X connect 2 0 14 1;
#X connect 2 0 15 1;
#X connect 3 0 9 1;
#X connect 3 0 14 0;
#X connect 5 0 9 0;
#X connect 5 0 12 0;
#X connect 5 0 13 0;
#X connect 6 0 1 1;
#X connect 6 0 3 1;
#X connect 6 0 12 1;
#X connect 7 0 11 0;
#X connect 8 0 16 0;
#X connect 9 0 10 0;
#X connect 9 0 15 0;
#X connect 10 0 8 0;
#X connect 10 0 8 1;
#X connect 11 0 0 0;
#X connect 12 0 11 1;
#X connect 13 0 16 1;
#X connect 14 0 10 1;
#X connect 15 0 7 0;
#X connect 15 0 7 1;
#X connect 16 0 0 1;
#X restore 62 182 pd polyblep;
#N canvas 0 23 532 303 polyblep 0;
#X obj 147 244 -~;
#X obj 372 82 -~;
#X obj 157 12 sig~ 1;
#X obj 177 49 /~;
#X obj 147 271 outlet~;
#X obj 12 12 inlet~ phase;
#X obj 387 12 inlet~ normalisedFreq;
#X obj 12 190 *~;
#X obj 162 190 *~;
#X obj 12 106 *~;
#X obj 162 163 -~;
#N canvas 467 216 175 111 @hv_obj 0;
#X obj 62 22 inlet~;
#X obj 12 12 inlet~;
#X obj 12 66 outlet~;
#X obj 12 39 *~;
#X connect 0 0 3 1;
#X connect 1 0 3 0;
#X connect 3 0 2 0;
#X restore 12 217 pd @hv_obj __and~f;
#N canvas 116 32 191 233 @hv_obj 0;
#X obj 49 83 -~;
#X obj 50 109 clip~ -1e-37 0;
#X obj 49 32 inlet~;
#X obj 93 33 inlet~;
#X obj 50 174 outlet~;
#X obj 50 151 *~ 1e+37;
#X obj 49 58 min~;
#X obj 50 130 +~ 1e-37;
#X connect 0 0 1 0;
#X connect 1 0 7 0;
#X connect 2 0 6 0;
#X connect 2 0 0 1;
#X connect 3 0 6 1;
#X connect 5 0 4 0;
#X connect 6 0 0 0;
#X connect 7 0 5 0;
#X restore 117 109 pd @hv_obj __lte~f;
#N canvas 258 74 144 198 @hv_obj 0;
#X obj 23 69 -~;
#X obj 23 94 clip~ -1e-37 0;
#X obj 23 18 inlet~;
#X obj 67 19 inlet~;
#X obj 23 159 outlet~;
#X obj 23 136 *~ 1e+37;
#X obj 23 44 min~;
#X obj 23 115 +~ 1e-37;
#X connect 0 0 1 0;
#X connect 1 0 7 0;
#X connect 2 0 6 0;
#X connect 3 0 6 1;
#X connect 3 0 0 1;
#X connect 5 0 4 0;
#X connect 6 0 0 0;
#X connect 7 0 5 0;
#X restore 267 109 pd @hv_obj __gte~f;
#X obj 177 136 -~;
#X obj 12 163 -~;
#N canvas 467 216 175 111 @hv_obj 0;
#X obj 62 22 inlet~;
#X obj 12 12 inlet~;
#X obj 12 66 outlet~;
#X obj 12 39 *~;
#X connect 0 0 3 1;
#X connect 1 0 3 0;
#X connect 3 0 2 0;
#X restore 162 217 pd @hv_obj __and~f;
#X connect 0 0 4 0;
#X connect 1 0 13 1;
#X connect 2 0 3 0;
#X connect 2 0 1 0;
#X connect 2 0 14 1;
#X connect 2 0 15 1;
#X connect 3 0 9 1;
#X connect 3 0 14 0;
#X connect 5 0 9 0;
#X connect 5 0 12 0;
#X connect 5 0 13 0;
#X connect 6 0 1 1;
#X connect 6 0 3 1;
#X connect 6 0 12 1;
#X connect 7 0 11 0;
#X connect 8 0 16 0;
#X connect 9 0 10 0;
#X connect 9 0 15 0;
#X connect 10 0 8 0;
#X connect 10 0 8 1;
#X connect 11 0 0 0;
#X connect 12 0 11 1;
#X connect 13 0 16 1;
#X connect 14 0 10 1;
#X connect 15 0 7 0;
#X connect 15 0 7 1;
#X connect 16 0 0 1;
#X restore 372 157 pd polyblep;
#X obj 157 307 outlet~ square;
#X obj 467 30 abs~;
#X obj 312 393 outlet~ triangle;
#X obj 222 103 +~;
#X obj 222 130 wrap~;
#X obj 157 226 -~;
#X obj 172 189 +~;
#N canvas 0 22 220 222 saw 0;
#X obj 62 119 -~ 1;
#X obj 62 141 outlet~;
#X obj 62 73 inlet~;
#X obj 62 97 +~;
#X connect 0 0 1 0;
#X connect 2 0 3 0;
#X connect 2 0 3 1;
#X connect 3 0 0 0;
#X restore 172 162 pd saw;
#X obj 157 280 -~ 1;
#X obj 157 253 +~;
#X obj 295 86 samphold~;
#X obj 295 193 +~;
#X obj 295 37 inlet~ width;
#N canvas 0 22 532 303 polyblep 0;
#X obj 147 244 -~;
#X obj 372 82 -~;
#X obj 157 12 sig~ 1;
#X obj 177 49 /~;
#X obj 147 271 outlet~;
#X obj 12 12 inlet~ phase;
#X obj 387 12 inlet~ normalisedFreq;
#X obj 12 190 *~;
#X obj 162 190 *~;
#X obj 12 106 *~;
#X obj 162 163 -~;
#N canvas 467 216 175 111 @hv_obj 0;
#X obj 62 22 inlet~;
#X obj 12 12 inlet~;
#X obj 12 66 outlet~;
#X obj 12 39 *~;
#X connect 0 0 3 1;
#X connect 1 0 3 0;
#X connect 3 0 2 0;
#X restore 12 217 pd @hv_obj __and~f;
#N canvas 116 32 191 233 @hv_obj 0;
#X obj 49 83 -~;
#X obj 50 109 clip~ -1e-37 0;
#X obj 49 32 inlet~;
#X obj 93 33 inlet~;
#X obj 50 174 outlet~;
#X obj 50 151 *~ 1e+37;
#X obj 49 58 min~;
#X obj 50 130 +~ 1e-37;
#X connect 0 0 1 0;
#X connect 1 0 7 0;
#X connect 2 0 6 0;
#X connect 2 0 0 1;
#X connect 3 0 6 1;
#X connect 5 0 4 0;
#X connect 6 0 0 0;
#X connect 7 0 5 0;
#X restore 117 109 pd @hv_obj __lte~f;
#N canvas 258 74 144 198 @hv_obj 0;
#X obj 23 69 -~;
#X obj 23 94 clip~ -1e-37 0;
#X obj 23 18 inlet~;
#X obj 67 19 inlet~;
#X obj 23 159 outlet~;
#X obj 23 136 *~ 1e+37;
#X obj 23 44 min~;
#X obj 23 115 +~ 1e-37;
#X connect 0 0 1 0;
#X connect 1 0 7 0;
#X connect 2 0 6 0;
#X connect 3 0 6 1;
#X connect 3 0 0 1;
#X connect 5 0 4 0;
#X connect 6 0 0 0;
#X connect 7 0 5 0;
#X restore 267 109 pd @hv_obj __gte~f;
#X obj 177 136 -~;
#X obj 12 163 -~;
#N canvas 467 216 175 111 @hv_obj 0;
#X obj 62 22 inlet~;
#X obj 12 12 inlet~;
#X obj 12 66 outlet~;
#X obj 12 39 *~;
#X connect 0 0 3 1;
#X connect 1 0 3 0;
#X connect 3 0 2 0;
#X restore 162 217 pd @hv_obj __and~f;
#X connect 0 0 4 0;
#X connect 1 0 13 1;
#X connect 2 0 3 0;
#X connect 2 0 1 0;
#X connect 2 0 14 1;
#X connect 2 0 15 1;
#X connect 3 0 9 1;
#X connect 3 0 14 0;
#X connect 5 0 9 0;
#X connect 5 0 12 0;
#X connect 5 0 13 0;
#X connect 6 0 1 1;
#X connect 6 0 3 1;
#X connect 6 0 12 1;
#X connect 7 0 11 0;
#X connect 8 0 16 0;
#X connect 9 0 10 0;
#X connect 9 0 15 0;
#X connect 10 0 8 0;
#X connect 10 0 8 1;
#X connect 11 0 0 0;
#X connect 12 0 11 1;
#X connect 13 0 16 1;
#X connect 14 0 10 1;
#X connect 15 0 7 0;
#X connect 15 0 7 1;
#X connect 16 0 0 1;
#X restore 222 157 pd polyblep;
#X obj 295 59 clip~ 0 1;
#X obj 12 278 *~ -1;
#X obj 372 86 +~ 0.5;
#X obj 542 25 / 2;
#X text 653 343 http://musicdsp.org/files/bandlimited.pdf;
#X text 653 363 http://www.martin-finke.de/blog/articles/audio-plugins-018-polyblep-oscillator/
;
#X text 653 323 https://github.com/cfloisand/pd-externals/tree/master/Source
;
#X text 653 303 References:;
#X text 653 393 https://github.com/enzienaudio/heavylib/tree/master/hv.osc
;
#X obj 600 83 cos~;
#X obj 600 104 outlet~ sine;
#X obj 12 300 outlet~ saw;
#X obj 565 52 inlet;
#X obj 125 13 inlet~;
#X obj 467 52 clip~ 0 20000;
#N canvas 0 22 450 300 rlpf 0;
#X obj 177 80 samplerate~;
#X obj 229 12 loadbang;
#X obj 45 202 sig~ 1;
#X obj 45 250 -~;
#X obj 177 122 / 2;
#X obj 156 318 outlet~;
#X obj 177 101 t f f;
#X obj 82 123 inlet~;
#X obj 12 123 inlet~;
#X msg 229 33 bang;
#X obj 269 211 inlet;
#X msg 269 232 clear;
#X msg 256 123 1;
#X obj 256 144 atan;
#X obj 229 54 t b b;
#X obj 82 144 clip~ 0 22050;
#X obj 256 165 * -8;
#X obj 189 212 exp~;
#X obj 12 276 *~;
#X obj 60 228 abs~;
#X obj 156 292 rpole~;
#X obj 189 191 *~ -6.28319;
#X obj 159 170 /~ 44100;
#X text 12 13 One-pole Lowpass Filter;
#X text 8 369 https://www.musicdsp.org/en/latest/Filters/237-one-pole-filter-lp-and-hp.html
;
#X text 8 349 Reference:;
#X text 269 191 (I3) Clear internal state;
#X text 206 318 (O1) Output;
#X text 12 103 (I1) Input;
#X text 82 103 (I2) Frequency;
#X connect 0 0 6 0;
#X connect 1 0 9 0;
#X connect 2 0 3 0;
#X connect 3 0 18 1;
#X connect 4 0 15 2;
#X connect 6 0 4 0;
#X connect 6 1 22 1;
#X connect 7 0 15 0;
#X connect 8 0 18 0;
#X connect 9 0 14 0;
#X connect 10 0 11 0;
#X connect 11 0 20 0;
#X connect 12 0 13 0;
#X connect 13 0 16 0;
#X connect 14 0 0 0;
#X connect 14 1 12 0;
#X connect 15 0 22 0;
#X connect 16 0 21 1;
#X connect 17 0 20 1;
#X connect 17 0 19 0;
#X connect 18 0 20 0;
#X connect 19 0 3 1;
#X connect 20 0 5 0;
#X connect 21 0 17 0;
#X connect 22 0 21 0;
#X restore 326 308 pd rlpf;
#X connect 0 0 3 0;
#X connect 0 0 9 0;
#X connect 0 0 14 0;
#X connect 0 0 21 1;
#X connect 0 0 27 0;
#X connect 0 0 34 0;
#X connect 1 0 9 1;
#X connect 1 0 10 1;
#X connect 1 0 24 1;
#X connect 2 0 5 0;
#X connect 2 0 16 0;
#X connect 2 0 26 0;
#X connect 3 0 2 0;
#X connect 4 0 7 0;
#X connect 4 0 10 0;
#X connect 5 0 40 0;
#X connect 6 0 5 1;
#X connect 7 0 6 0;
#X connect 8 0 1 1;
#X connect 9 0 2 1;
#X connect 10 0 6 1;
#X connect 12 0 39 0;
#X connect 14 0 15 0;
#X connect 15 0 18 0;
#X connect 15 0 24 0;
#X connect 16 0 20 0;
#X connect 17 0 16 1;
#X connect 18 0 17 0;
#X connect 19 0 11 0;
#X connect 20 0 19 0;
#X connect 21 0 14 1;
#X connect 21 0 22 0;
#X connect 21 0 22 1;
#X connect 22 0 20 1;
#X connect 23 0 25 0;
#X connect 24 0 17 1;
#X connect 25 0 21 0;
#X connect 26 0 36 0;
#X connect 27 0 4 0;
#X connect 28 0 39 2;
#X connect 34 0 35 0;
#X connect 37 0 0 1;
#X connect 38 0 12 0;
#X connect 39 0 0 0;
#X connect 39 0 1 0;
#X connect 39 0 40 1;
#X connect 40 0 13 0;
