#N canvas 838 255 819 456 10;
#X obj 12 69 phasor~;
#X obj 125 140 *~;
#X obj 12 199 +~;
#N canvas 0 22 220 222 saw 0;
#X obj 62 119 -~ 1;
#X obj 62 141 outlet~;
#X obj 62 73 inlet~;
#X obj 62 97 +~;
#X connect 0 0 1 0;
#X connect 2 0 3 0;
#X connect 2 0 3 1;
#X connect 3 0 0 0;
#X restore 12 172 pd saw;
#X obj 372 113 wrap~;
#X obj 312 216 -~;
#X obj 327 189 +~;
#N canvas 0 22 220 222 saw 0;
#X obj 62 119 -~ 1;
#X obj 62 141 outlet~;
#X obj 62 73 inlet~;
#X obj 62 97 +~;
#X connect 0 0 1 0;
#X connect 2 0 3 0;
#X connect 2 0 3 1;
#X connect 3 0 0 0;
#X restore 327 162 pd saw;
#N canvas 0 22 253 235 1/Fs 0;
#X obj 55 77 samplerate~;
#X obj 55 57 loadbang;
#X msg 55 97 1 \$1;
#X obj 55 117 /;
#X obj 55 137 sig~;
#X obj 55 159 outlet~;
#X connect 0 0 2 0;
#X connect 1 0 0 0;
#X connect 2 0 3 0;
#X connect 3 0 4 0;
#X connect 4 0 5 0;
#X restore 140 113 pd 1/Fs;
#N canvas 0 22 532 303 polyblep 0;
#X obj 147 244 -~;
#X obj 372 82 -~;
#X obj 157 12 sig~ 1;
#X obj 177 49 /~;
#X obj 147 271 outlet~;
#X obj 12 12 inlet~ phase;
#X obj 387 12 inlet~ normalisedFreq;
#X obj 12 190 *~;
#X obj 162 190 *~;
#X obj 12 106 *~;
#X obj 162 163 -~;
#N canvas 467 216 175 111 @hv_obj 0;
#X obj 62 22 inlet~;
#X obj 12 12 inlet~;
#X obj 12 66 outlet~;
#X obj 12 39 *~;
#X connect 0 0 3 1;
#X connect 1 0 3 0;
#X connect 3 0 2 0;
#X restore 12 217 pd @hv_obj __and~f;
#N canvas 116 32 191 233 @hv_obj 0;
#X obj 49 83 -~;
#X obj 50 109 clip~ -1e-37 0;
#X obj 49 32 inlet~;
#X obj 93 33 inlet~;
#X obj 50 174 outlet~;
#X obj 50 151 *~ 1e+37;
#X obj 49 58 min~;
#X obj 50 130 +~ 1e-37;
#X connect 0 0 1 0;
#X connect 1 0 7 0;
#X connect 2 0 6 0;
#X connect 2 0 0 1;
#X connect 3 0 6 1;
#X connect 5 0 4 0;
#X connect 6 0 0 0;
#X connect 7 0 5 0;
#X restore 117 109 pd @hv_obj __lte~f;
#N canvas 258 74 144 198 @hv_obj 0;
#X obj 23 69 -~;
#X obj 23 94 clip~ -1e-37 0;
#X obj 23 18 inlet~;
#X obj 67 19 inlet~;
#X obj 23 159 outlet~;
#X obj 23 136 *~ 1e+37;
#X obj 23 44 min~;
#X obj 23 115 +~ 1e-37;
#X connect 0 0 1 0;
#X connect 1 0 7 0;
#X connect 2 0 6 0;
#X connect 3 0 6 1;
#X connect 3 0 0 1;
#X connect 5 0 4 0;
#X connect 6 0 0 0;
#X connect 7 0 5 0;
#X restore 267 109 pd @hv_obj __gte~f;
#X obj 177 136 -~;
#X obj 12 163 -~;
#N canvas 467 216 175 111 @hv_obj 0;
#X obj 62 22 inlet~;
#X obj 12 12 inlet~;
#X obj 12 66 outlet~;
#X obj 12 39 *~;
#X connect 0 0 3 1;
#X connect 1 0 3 0;
#X connect 3 0 2 0;
#X restore 162 217 pd @hv_obj __and~f;
#X connect 0 0 4 0;
#X connect 1 0 13 1;
#X connect 2 0 3 0;
#X connect 2 0 1 0;
#X connect 2 0 14 1;
#X connect 2 0 15 1;
#X connect 3 0 9 1;
#X connect 3 0 14 0;
#X connect 5 0 9 0;
#X connect 5 0 12 0;
#X connect 5 0 13 0;
#X connect 6 0 1 1;
#X connect 6 0 3 1;
#X connect 6 0 12 1;
#X connect 7 0 11 0;
#X connect 8 0 16 0;
#X connect 9 0 10 0;
#X connect 9 0 15 0;
#X connect 10 0 8 0;
#X connect 10 0 8 1;
#X connect 11 0 0 0;
#X connect 12 0 11 1;
#X connect 13 0 16 1;
#X connect 14 0 10 1;
#X connect 15 0 7 0;
#X connect 15 0 7 1;
#X connect 16 0 0 1;
#X restore 62 182 pd polyblep;
#N canvas 0 23 532 303 polyblep 0;
#X obj 147 244 -~;
#X obj 372 82 -~;
#X obj 157 12 sig~ 1;
#X obj 177 49 /~;
#X obj 147 271 outlet~;
#X obj 12 12 inlet~ phase;
#X obj 387 12 inlet~ normalisedFreq;
#X obj 12 190 *~;
#X obj 162 190 *~;
#X obj 12 106 *~;
#X obj 162 163 -~;
#N canvas 467 216 175 111 @hv_obj 0;
#X obj 62 22 inlet~;
#X obj 12 12 inlet~;
#X obj 12 66 outlet~;
#X obj 12 39 *~;
#X connect 0 0 3 1;
#X connect 1 0 3 0;
#X connect 3 0 2 0;
#X restore 12 217 pd @hv_obj __and~f;
#N canvas 116 32 191 233 @hv_obj 0;
#X obj 49 83 -~;
#X obj 50 109 clip~ -1e-37 0;
#X obj 49 32 inlet~;
#X obj 93 33 inlet~;
#X obj 50 174 outlet~;
#X obj 50 151 *~ 1e+37;
#X obj 49 58 min~;
#X obj 50 130 +~ 1e-37;
#X connect 0 0 1 0;
#X connect 1 0 7 0;
#X connect 2 0 6 0;
#X connect 2 0 0 1;
#X connect 3 0 6 1;
#X connect 5 0 4 0;
#X connect 6 0 0 0;
#X connect 7 0 5 0;
#X restore 117 109 pd @hv_obj __lte~f;
#N canvas 258 74 144 198 @hv_obj 0;
#X obj 23 69 -~;
#X obj 23 94 clip~ -1e-37 0;
#X obj 23 18 inlet~;
#X obj 67 19 inlet~;
#X obj 23 159 outlet~;
#X obj 23 136 *~ 1e+37;
#X obj 23 44 min~;
#X obj 23 115 +~ 1e-37;
#X connect 0 0 1 0;
#X connect 1 0 7 0;
#X connect 2 0 6 0;
#X connect 3 0 6 1;
#X connect 3 0 0 1;
#X connect 5 0 4 0;
#X connect 6 0 0 0;
#X connect 7 0 5 0;
#X restore 267 109 pd @hv_obj __gte~f;
#X obj 177 136 -~;
#X obj 12 163 -~;
#N canvas 467 216 175 111 @hv_obj 0;
#X obj 62 22 inlet~;
#X obj 12 12 inlet~;
#X obj 12 66 outlet~;
#X obj 12 39 *~;
#X connect 0 0 3 1;
#X connect 1 0 3 0;
#X connect 3 0 2 0;
#X restore 162 217 pd @hv_obj __and~f;
#X connect 0 0 4 0;
#X connect 1 0 13 1;
#X connect 2 0 3 0;
#X connect 2 0 1 0;
#X connect 2 0 14 1;
#X connect 2 0 15 1;
#X connect 3 0 9 1;
#X connect 3 0 14 0;
#X connect 5 0 9 0;
#X connect 5 0 12 0;
#X connect 5 0 13 0;
#X connect 6 0 1 1;
#X connect 6 0 3 1;
#X connect 6 0 12 1;
#X connect 7 0 11 0;
#X connect 8 0 16 0;
#X connect 9 0 10 0;
#X connect 9 0 15 0;
#X connect 10 0 8 0;
#X connect 10 0 8 1;
#X connect 11 0 0 0;
#X connect 12 0 11 1;
#X connect 13 0 16 1;
#X connect 14 0 10 1;
#X connect 15 0 7 0;
#X connect 15 0 7 1;
#X connect 16 0 0 1;
#X restore 372 157 pd polyblep;
#X obj 312 329 rpole~;
#X obj 520 173 loadbang;
#X obj 520 194 samplerate~;
#X obj 452 192 /~;
#X obj 377 246 /~;
#X obj 452 170 sig~ 1000;
#X obj 377 268 exp~;
#X obj 312 307 *~;
#X obj 327 285 -~;
#X obj 520 215 / 1000;
#X obj 452 229 *~;
#X obj 377 224 sig~ -0.5;
#X obj 312 351 *~ 8;
#X obj 312 372 clip~ -1 1;
#X obj 157 307 outlet~ square;
#X obj 467 30 abs~;
#X obj 312 393 outlet~ triangle;
#X obj 327 263 sig~ 1;
#X obj 222 103 +~;
#X obj 222 130 wrap~;
#X obj 157 226 -~;
#X obj 172 189 +~;
#N canvas 0 22 220 222 saw 0;
#X obj 62 119 -~ 1;
#X obj 62 141 outlet~;
#X obj 62 73 inlet~;
#X obj 62 97 +~;
#X connect 0 0 1 0;
#X connect 2 0 3 0;
#X connect 2 0 3 1;
#X connect 3 0 0 0;
#X restore 172 162 pd saw;
#X obj 157 280 -~ 1;
#X obj 157 253 +~;
#X obj 295 86 samphold~;
#X obj 295 193 +~;
#X obj 295 37 inlet~ width;
#N canvas 0 22 532 303 polyblep 0;
#X obj 147 244 -~;
#X obj 372 82 -~;
#X obj 157 12 sig~ 1;
#X obj 177 49 /~;
#X obj 147 271 outlet~;
#X obj 12 12 inlet~ phase;
#X obj 387 12 inlet~ normalisedFreq;
#X obj 12 190 *~;
#X obj 162 190 *~;
#X obj 12 106 *~;
#X obj 162 163 -~;
#N canvas 467 216 175 111 @hv_obj 0;
#X obj 62 22 inlet~;
#X obj 12 12 inlet~;
#X obj 12 66 outlet~;
#X obj 12 39 *~;
#X connect 0 0 3 1;
#X connect 1 0 3 0;
#X connect 3 0 2 0;
#X restore 12 217 pd @hv_obj __and~f;
#N canvas 116 32 191 233 @hv_obj 0;
#X obj 49 83 -~;
#X obj 50 109 clip~ -1e-37 0;
#X obj 49 32 inlet~;
#X obj 93 33 inlet~;
#X obj 50 174 outlet~;
#X obj 50 151 *~ 1e+37;
#X obj 49 58 min~;
#X obj 50 130 +~ 1e-37;
#X connect 0 0 1 0;
#X connect 1 0 7 0;
#X connect 2 0 6 0;
#X connect 2 0 0 1;
#X connect 3 0 6 1;
#X connect 5 0 4 0;
#X connect 6 0 0 0;
#X connect 7 0 5 0;
#X restore 117 109 pd @hv_obj __lte~f;
#N canvas 258 74 144 198 @hv_obj 0;
#X obj 23 69 -~;
#X obj 23 94 clip~ -1e-37 0;
#X obj 23 18 inlet~;
#X obj 67 19 inlet~;
#X obj 23 159 outlet~;
#X obj 23 136 *~ 1e+37;
#X obj 23 44 min~;
#X obj 23 115 +~ 1e-37;
#X connect 0 0 1 0;
#X connect 1 0 7 0;
#X connect 2 0 6 0;
#X connect 3 0 6 1;
#X connect 3 0 0 1;
#X connect 5 0 4 0;
#X connect 6 0 0 0;
#X connect 7 0 5 0;
#X restore 267 109 pd @hv_obj __gte~f;
#X obj 177 136 -~;
#X obj 12 163 -~;
#N canvas 467 216 175 111 @hv_obj 0;
#X obj 62 22 inlet~;
#X obj 12 12 inlet~;
#X obj 12 66 outlet~;
#X obj 12 39 *~;
#X connect 0 0 3 1;
#X connect 1 0 3 0;
#X connect 3 0 2 0;
#X restore 162 217 pd @hv_obj __and~f;
#X connect 0 0 4 0;
#X connect 1 0 13 1;
#X connect 2 0 3 0;
#X connect 2 0 1 0;
#X connect 2 0 14 1;
#X connect 2 0 15 1;
#X connect 3 0 9 1;
#X connect 3 0 14 0;
#X connect 5 0 9 0;
#X connect 5 0 12 0;
#X connect 5 0 13 0;
#X connect 6 0 1 1;
#X connect 6 0 3 1;
#X connect 6 0 12 1;
#X connect 7 0 11 0;
#X connect 8 0 16 0;
#X connect 9 0 10 0;
#X connect 9 0 15 0;
#X connect 10 0 8 0;
#X connect 10 0 8 1;
#X connect 11 0 0 0;
#X connect 12 0 11 1;
#X connect 13 0 16 1;
#X connect 14 0 10 1;
#X connect 15 0 7 0;
#X connect 15 0 7 1;
#X connect 16 0 0 1;
#X restore 222 157 pd polyblep;
#X obj 295 59 clip~ 0 1;
#X obj 12 278 *~ -1;
#X obj 372 86 +~ 0.5;
#X obj 542 25 / 2;
#X text 433 343 http://musicdsp.org/files/bandlimited.pdf;
#X text 433 363 http://www.martin-finke.de/blog/articles/audio-plugins-018-polyblep-oscillator/
;
#X text 433 323 https://github.com/cfloisand/pd-externals/tree/master/Source
;
#X text 433 303 References:;
#X text 433 393 https://github.com/enzienaudio/heavylib/tree/master/hv.osc
;
#X text 524 250 Mike Moreno;
#X text 524 270 https://github.com/MikeMorenoAudio;
#X obj 600 83 cos~;
#X obj 600 104 outlet~ sine;
#X obj 12 300 outlet~ saw;
#X obj 565 52 inlet;
#X obj 125 13 inlet~;
#X msg 565 133 clear;
#X obj 467 52 clip~ 0 20000;
#X connect 0 0 3 0;
#X connect 0 0 9 0;
#X connect 0 0 29 0;
#X connect 0 0 36 1;
#X connect 0 0 42 0;
#X connect 0 0 51 0;
#X connect 1 0 9 1;
#X connect 1 0 10 1;
#X connect 1 0 39 1;
#X connect 2 0 5 0;
#X connect 2 0 31 0;
#X connect 2 0 41 0;
#X connect 3 0 2 0;
#X connect 4 0 7 0;
#X connect 4 0 10 0;
#X connect 5 0 18 0;
#X connect 6 0 5 1;
#X connect 7 0 6 0;
#X connect 8 0 1 1;
#X connect 9 0 2 1;
#X connect 10 0 6 1;
#X connect 11 0 23 0;
#X connect 12 0 13 0;
#X connect 13 0 20 0;
#X connect 13 0 43 0;
#X connect 14 0 21 0;
#X connect 15 0 17 0;
#X connect 16 0 14 0;
#X connect 17 0 11 1;
#X connect 17 0 19 1;
#X connect 18 0 11 0;
#X connect 19 0 18 1;
#X connect 20 0 21 1;
#X connect 21 0 15 1;
#X connect 22 0 15 0;
#X connect 23 0 24 0;
#X connect 24 0 27 0;
#X connect 26 0 57 0;
#X connect 28 0 19 0;
#X connect 29 0 30 0;
#X connect 30 0 33 0;
#X connect 30 0 39 0;
#X connect 31 0 35 0;
#X connect 32 0 31 1;
#X connect 33 0 32 0;
#X connect 34 0 25 0;
#X connect 35 0 34 0;
#X connect 36 0 29 1;
#X connect 36 0 37 0;
#X connect 36 0 37 1;
#X connect 37 0 35 1;
#X connect 38 0 40 0;
#X connect 39 0 32 1;
#X connect 40 0 36 0;
#X connect 41 0 53 0;
#X connect 42 0 4 0;
#X connect 43 0 57 2;
#X connect 51 0 52 0;
#X connect 54 0 0 1;
#X connect 54 0 56 0;
#X connect 55 0 26 0;
#X connect 56 0 11 0;
#X connect 57 0 14 1;
#X connect 57 0 0 0;
#X connect 57 0 1 0;
