#N canvas 0 23 624 300 10;
#X obj 12 92 inlet;
#X obj 12 212 abs~;
#X obj 12 186 rzero~ 1;
#X obj 123 259 outlet~;
#X obj 12 259 outlet~;
#X obj 12 233 cpole~, f 19;
#X msg 41 160 clear;
#X obj 12 113 t b b;
#X obj 299 52 max~ 0.0001;
#X obj 299 93 *~ 44.1;
#X obj 374 59 samplerate~;
#X obj 374 39 loadbang;
#X obj 374 79 * 0.001;
#X obj 284 114 sig~ 0.5;
#X obj 284 135 log~;
#X obj 284 156 /~;
#X obj 284 177 exp~;
#X obj 284 198 clip~ 0 1;
#X obj 299 31 inlet~;
#X obj 186 31 inlet~;
#X obj 186 52 max~ 0.0001;
#X obj 186 73 /~;
#X obj 186 170 *~ 6.28319;
#X obj 186 191 expr~ sin($v1);
#X obj 86 191 expr~ cos($v1);
#X obj 86 212 *~;
#X obj 186 212 *~;
#X text 351 127 By YT User Domo Remos;
#X text 351 142 https://youtu.be/zW7y5yb0YWQ;
#X text 351 167 Made audio-rate compatible by Mike Moreno;
#X msg 12 134 1;
#X text 186 11 frequency;
#X text 299 11 decay;
#X text 12 72 bang impulse;
#X connect 0 0 7 0;
#X connect 1 0 5 0;
#X connect 2 0 1 0;
#X connect 5 0 4 0;
#X connect 5 1 3 0;
#X connect 6 0 2 0;
#X connect 6 0 5 0;
#X connect 7 0 30 0;
#X connect 7 1 6 0;
#X connect 8 0 9 0;
#X connect 9 0 15 1;
#X connect 10 0 12 0;
#X connect 10 0 21 1;
#X connect 11 0 10 0;
#X connect 12 0 9 1;
#X connect 13 0 14 0;
#X connect 14 0 15 0;
#X connect 15 0 16 0;
#X connect 16 0 17 0;
#X connect 17 0 25 1;
#X connect 17 0 26 1;
#X connect 18 0 8 0;
#X connect 19 0 20 0;
#X connect 20 0 21 0;
#X connect 21 0 22 0;
#X connect 22 0 23 0;
#X connect 22 0 24 0;
#X connect 23 0 26 0;
#X connect 24 0 25 0;
#X connect 25 0 5 2;
#X connect 26 0 5 3;
#X connect 30 0 2 0;
