#N canvas 1284 353 471 422 10;
#X obj 143 51 pack f f f;
#X obj 143 135 clip~ -1 1;
#X obj 143 156 hip~ 3;
#X obj 143 203 dac~ 1 2;
#X obj 21 63 tgl 15 1 empty empty empty 17 7 0 10 -262144 -1 -1 1 1
;
#X obj 21 83 metro 50;
#X obj 21 109 tabwrite~ \$0-scope;
#N canvas 0 22 450 278 (subpatch) 0;
#X array \$0-scope 441 float 0;
#X coords 0 1 441 -1 200 140 1;
#X restore 19 246 graph;
#X obj 143 114 *~ 1;
#X msg 227 109 open ./blah.wav \, start;
#X obj 227 130 writesf~;
#X msg 377 114 stop;
#X obj 143 93 clone -s 1 cello 6;
#X obj 143 31 poly 6 1;
#X obj 143 177 *~ 1;
#X obj 143 9 notein;
#X connect 0 0 12 0;
#X connect 1 0 2 0;
#X connect 2 0 14 0;
#X connect 4 0 5 0;
#X connect 5 0 6 0;
#X connect 8 0 1 0;
#X connect 8 0 10 0;
#X connect 9 0 10 0;
#X connect 11 0 10 0;
#X connect 12 0 6 0;
#X connect 12 0 8 0;
#X connect 13 0 0 0;
#X connect 13 1 0 1;
#X connect 13 2 0 2;
#X connect 14 0 3 0;
#X connect 14 0 3 1;
#X connect 15 0 13 0;
#X connect 15 1 13 1;
