#N canvas 882 199 688 655 10;
#X obj 430 31 inlet;
#X obj 371 627 outlet~;
#X obj 386 113 loadbang;
#X obj 386 155 /;
#N canvas 1164 679 371 206 allpass100ms 0;
#X obj 12 31 inlet~;
#X obj 12 92 +~;
#X obj 27 70 *~;
#X obj 232 53 inlet;
#X obj 232 75 * -1;
#X obj 187 109 *~;
#X obj 172 131 +~;
#X obj 172 153 outlet~;
#X text 12 173 0 - 100 mSec allpass;
#X text 232 33 gain;
#X text 102 11 time;
#X text 12 11 sound;
#X obj 12 153 delwrite~ \$0-short-4 100;
#X obj 248 118 inlet;
#X msg 248 139 clear;
#X obj 102 31 inlet;
#X obj 102 53 delread~ \$0-short-4;
#X connect 0 0 1 0;
#X connect 1 0 5 0;
#X connect 1 0 12 0;
#X connect 2 0 1 1;
#X connect 3 0 2 1;
#X connect 3 0 4 0;
#X connect 4 0 5 1;
#X connect 5 0 6 1;
#X connect 6 0 7 0;
#X connect 13 0 14 0;
#X connect 14 0 12 0;
#X connect 15 0 16 0;
#X connect 16 0 2 0;
#X connect 16 0 6 0;
#X restore 371 304 pd allpass100ms;
#X obj 128 164 vline~;
#X obj 457 136 s \$0-hht-trg;
#X obj 128 59 r \$0-hht-trg;
#X obj 214 135 r \$0-hht-trg;
#X msg 214 156 seed 1234;
#X obj 214 178 noise~;
#X obj 128 206 *~;
#X obj 458 283 r \$0-hht-trg;
#X msg 471 545 clear;
#X obj 400 218 loadbang;
#X msg 400 261 1000 \$1;
#X obj 400 282 /;
#X obj 471 523 r \$0-hht-trg;
#N canvas 1164 679 371 206 allpass100ms 0;
#X obj 12 31 inlet~;
#X obj 12 92 +~;
#X obj 27 70 *~;
#X obj 232 53 inlet;
#X obj 232 75 * -1;
#X obj 187 109 *~;
#X obj 172 131 +~;
#X obj 172 153 outlet~;
#X text 12 173 0 - 100 mSec allpass;
#X text 232 33 gain;
#X text 102 11 time;
#X text 12 11 sound;
#X obj 248 118 inlet;
#X msg 248 139 clear;
#X obj 102 31 inlet;
#X obj 12 153 delwrite~ \$0-short-3 100;
#X obj 102 53 delread~ \$0-short-3;
#X connect 0 0 1 0;
#X connect 1 0 5 0;
#X connect 1 0 15 0;
#X connect 2 0 1 1;
#X connect 3 0 2 1;
#X connect 3 0 4 0;
#X connect 4 0 5 1;
#X connect 5 0 6 1;
#X connect 6 0 7 0;
#X connect 12 0 13 0;
#X connect 13 0 15 0;
#X connect 14 0 16 0;
#X connect 16 0 2 0;
#X connect 16 0 6 0;
#X restore 371 411 pd allpass100ms;
#X obj 400 325 loadbang;
#X msg 400 368 1000 \$1;
#X obj 400 389 /;
#N canvas 1164 679 371 206 allpass100ms 0;
#X obj 12 31 inlet~;
#X obj 12 92 +~;
#X obj 27 70 *~;
#X obj 232 53 inlet;
#X obj 232 75 * -1;
#X obj 187 109 *~;
#X obj 172 131 +~;
#X obj 172 153 outlet~;
#X text 12 173 0 - 100 mSec allpass;
#X text 232 33 gain;
#X text 102 11 time;
#X text 12 11 sound;
#X obj 248 118 inlet;
#X msg 248 139 clear;
#X obj 102 31 inlet;
#X obj 12 153 delwrite~ \$0-short-2 100;
#X obj 102 53 delread~ \$0-short-2;
#X connect 0 0 1 0;
#X connect 1 0 5 0;
#X connect 1 0 15 0;
#X connect 2 0 1 1;
#X connect 3 0 2 1;
#X connect 3 0 4 0;
#X connect 4 0 5 1;
#X connect 5 0 6 1;
#X connect 6 0 7 0;
#X connect 12 0 13 0;
#X connect 13 0 15 0;
#X connect 14 0 16 0;
#X connect 16 0 2 0;
#X connect 16 0 6 0;
#X restore 371 518 pd allpass100ms;
#X obj 400 432 loadbang;
#X msg 400 475 1000 \$1;
#X obj 400 496 /;
#X msg 386 134 1000 1142;
#X obj 12 144 vline~;
#X obj 12 206 *~;
#X msg 400 346 647;
#X obj 371 283 +~;
#X msg 400 453 806;
#X obj 457 94 t b f;
#X obj 484 115 s \$0-hht-vel;
#X obj 300 108 r \$0-hht-vel;
#X obj 12 269 *~;
#X obj 300 129 - 1;
#X obj 300 150 / 126;
#X msg 300 171 1 \$1;
#X obj 300 192 -;
#X obj 300 234 + 100;
#X obj 300 255 dbtorms;
#X obj 567 94 t b f;
#X obj 594 115 s \$0-hht-vel;
#X obj 567 136 s \$0-ohh-trg;
#X obj 386 197 *~ 0.5;
#X obj 498 162 r \$0-ohh-trg;
#X obj 12 80 r \$0-ohh-trg;
#X msg 429 453 -0.5;
#X msg 429 346 0.55;
#X obj 12 165 pow~ 6;
#X msg 498 183 0.9;
#X msg 578 183 0.7;
#X msg 12 101 1 10 \, 0 2500 10;
#X obj 557 503 env~;
#X obj 557 524 change;
#X obj 557 545 sel 0;
#X msg 557 566 0;
#X msg 491 568 1;
#X obj 557 587 switch~ 1 1 1;
#X obj 578 162 r \$0-hht-trg;
#X obj 458 263 r \$0-ohh-trg;
#X obj 471 503 r \$0-ohh-trg;
#X msg 128 101 0.95 4 \, 0 50 4;
#X obj 386 176 delread~ \$0-hih-1;
#X obj 471 615 delwrite~ \$0-hih-1;
#X obj 128 185 pow~ 6;
#X msg 400 239 1531;
#X msg 71 159 clear;
#X msg 12 123 1 10 \, 0 150 10;
#X obj 12 186 lop~ 5;
#X msg 224 72 2 \$1;
#X obj 224 93 pow;
#X msg 128 143 1 1 \, 0 \$2 1;
#X obj 128 80 pack f f;
#X obj 224 51 * 2;
#X obj 224 114 * 20;
#X msg 429 239 0.5;
#X obj 12 227 hip~ 11025;
#X obj 128 227 hip~ 8820;
#X obj 72 192 pow~ 60;
#X obj 13 248 hip~ 4410;
#X obj 371 559 lop~ 6500;
#X obj 371 580 hip~ 200;
#X obj 371 601 hip~ 100;
#X obj 300 213 * -18;
#X obj 430 52 clip 0 127;
#X obj 430 73 sel 0;
#X obj 540 31 inlet;
#X obj 540 52 clip 0 127;
#X obj 540 73 sel 0;
#X text 430 11 Closed Hihat;
#X text 540 11 Open Hihat;
#X connect 0 0 86 0;
#X connect 2 0 26 0;
#X connect 3 0 64 0;
#X connect 4 0 18 0;
#X connect 5 0 66 0;
#X connect 7 0 69 0;
#X connect 7 0 68 0;
#X connect 7 0 74 0;
#X connect 8 0 9 0;
#X connect 9 0 10 0;
#X connect 10 0 11 1;
#X connect 10 0 80 0;
#X connect 11 0 79 0;
#X connect 12 0 4 3;
#X connect 12 0 18 3;
#X connect 12 0 22 3;
#X connect 13 0 58 0;
#X connect 13 0 65 0;
#X connect 13 0 82 0;
#X connect 13 0 83 0;
#X connect 13 0 84 0;
#X connect 14 0 67 0;
#X connect 14 0 77 0;
#X connect 15 0 16 0;
#X connect 16 0 4 1;
#X connect 17 0 13 0;
#X connect 18 0 22 0;
#X connect 19 0 29 0;
#X connect 19 0 49 0;
#X connect 20 0 21 0;
#X connect 21 0 18 1;
#X connect 22 0 82 0;
#X connect 23 0 31 0;
#X connect 23 0 48 0;
#X connect 24 0 25 0;
#X connect 25 0 22 1;
#X connect 26 0 3 0;
#X connect 27 0 50 0;
#X connect 28 0 78 0;
#X connect 29 0 20 0;
#X connect 30 0 4 0;
#X connect 31 0 24 0;
#X connect 32 0 6 0;
#X connect 32 1 33 0;
#X connect 34 0 36 0;
#X connect 35 0 30 0;
#X connect 36 0 37 0;
#X connect 37 0 38 0;
#X connect 37 0 75 0;
#X connect 38 0 39 0;
#X connect 39 0 85 0;
#X connect 40 0 41 0;
#X connect 41 0 35 1;
#X connect 42 0 44 0;
#X connect 42 1 43 0;
#X connect 45 0 30 1;
#X connect 46 0 51 0;
#X connect 47 0 53 0;
#X connect 47 0 63 0;
#X connect 47 0 68 0;
#X connect 48 0 22 2;
#X connect 49 0 18 2;
#X connect 50 0 70 0;
#X connect 51 0 45 1;
#X connect 52 0 45 1;
#X connect 53 0 27 0;
#X connect 54 0 55 0;
#X connect 55 0 56 0;
#X connect 56 0 57 0;
#X connect 57 0 59 0;
#X connect 58 0 59 0;
#X connect 60 0 52 0;
#X connect 61 0 4 3;
#X connect 61 0 22 3;
#X connect 61 0 18 3;
#X connect 62 0 13 0;
#X connect 63 0 5 0;
#X connect 64 0 45 0;
#X connect 66 0 11 0;
#X connect 67 0 15 0;
#X connect 68 0 70 0;
#X connect 69 0 27 0;
#X connect 70 0 28 0;
#X connect 71 0 72 0;
#X connect 72 0 76 0;
#X connect 73 0 5 0;
#X connect 74 0 73 0;
#X connect 75 0 71 0;
#X connect 76 0 74 1;
#X connect 77 0 4 2;
#X connect 78 0 81 0;
#X connect 79 0 81 0;
#X connect 80 0 28 1;
#X connect 81 0 35 0;
#X connect 82 0 83 0;
#X connect 83 0 84 0;
#X connect 84 0 54 0;
#X connect 84 0 65 0;
#X connect 84 0 1 0;
#X connect 85 0 40 0;
#X connect 86 0 87 0;
#X connect 87 1 32 0;
#X connect 88 0 89 0;
#X connect 89 0 90 0;
#X connect 90 1 42 0;
