#N canvas 403 23 941 841 10;
#X obj 722 283 inlet;
#X obj 722 304 unpack f f;
#X obj 722 375 mtof;
#X obj 722 396 list prepend;
#X obj 809 370 > 0;
#X obj 722 417 route 1;
#X obj 455 208 r \$0-frq;
#X obj 809 320 t f f;
#X obj 836 362 s \$0-vel;
#X obj 722 459 s \$0-frq;
#X obj 440 526 +~;
#X obj 596 558 delwrite~ \$0-del 100;
#X obj 596 516 r \$0-frq;
#X msg 596 537 clear;
#X obj 12 204 noise~;
#N canvas 0 23 450 300 lowpass 0;
#X obj 62 16 inlet;
#X obj 206 16 inlet;
#X obj 131 75 / 2;
#X obj 62 122 * 6.28319;
#X obj 62 143 /;
#X obj 131 12 loadbang;
#X obj 131 33 samplerate~;
#X obj 131 54 t f f;
#X obj 123 152 max 5.96046e-08;
#X obj 155 178 cos;
#X obj 137 320 pack f f f f f f;
#X obj 155 225 * -2;
#X obj 62 232 t f f;
#X msg 89 253 1 \$1;
#X obj 89 274 -;
#X obj 62 274 + 1;
#X obj 62 51 f;
#X obj 206 37 t b f;
#X obj 62 190 sin;
#X obj 62 211 /;
#X obj 123 197 * 2;
#X obj 62 164 t f f;
#X obj 155 199 t f f;
#X msg 137 341 \$2 \$3 \$4 \$5 \$6 \$1;
#X obj 137 362 unpack f f f f f f;
#X obj 137 414 /;
#X obj 167 414 /;
#X obj 197 414 /;
#X obj 227 414 /;
#X obj 257 414 /;
#X obj 137 440 pack f f f f f;
#X obj 137 388 * -1;
#X obj 167 388 * -1;
#X text 247 320 a0 a1 a2 b0 b1 b2;
#X obj 12 454 biquad~;
#X obj 289 419 inlet;
#X msg 289 440 clear;
#X obj 12 428 inlet~;
#X obj 12 475 outlet~;
#X msg 211 213 1 \$1;
#X obj 211 234 -;
#X obj 211 255 t f f;
#X obj 238 276 / 2;
#X obj 238 297 t f f;
#X obj 62 101 clip 20 22050;
#X connect 0 0 16 0;
#X connect 1 0 17 0;
#X connect 2 0 44 2;
#X connect 3 0 4 0;
#X connect 4 0 21 0;
#X connect 5 0 6 0;
#X connect 6 0 7 0;
#X connect 7 0 2 0;
#X connect 7 1 4 1;
#X connect 8 0 20 0;
#X connect 9 0 22 0;
#X connect 10 0 23 0;
#X connect 11 0 10 1;
#X connect 12 0 15 0;
#X connect 12 1 13 0;
#X connect 13 0 14 0;
#X connect 14 0 10 2;
#X connect 15 0 10 0;
#X connect 16 0 44 0;
#X connect 17 0 16 0;
#X connect 17 1 8 0;
#X connect 18 0 19 0;
#X connect 19 0 12 0;
#X connect 20 0 19 1;
#X connect 21 0 18 0;
#X connect 21 1 9 0;
#X connect 22 0 11 0;
#X connect 22 1 39 0;
#X connect 23 0 24 0;
#X connect 24 0 31 0;
#X connect 24 1 32 0;
#X connect 24 2 27 0;
#X connect 24 3 28 0;
#X connect 24 4 29 0;
#X connect 24 5 29 1;
#X connect 24 5 28 1;
#X connect 24 5 27 1;
#X connect 24 5 26 1;
#X connect 24 5 25 1;
#X connect 25 0 30 0;
#X connect 26 0 30 1;
#X connect 27 0 30 2;
#X connect 28 0 30 3;
#X connect 29 0 30 4;
#X connect 30 0 34 0;
#X connect 31 0 25 0;
#X connect 32 0 26 0;
#X connect 34 0 38 0;
#X connect 35 0 36 0;
#X connect 36 0 34 0;
#X connect 37 0 34 0;
#X connect 39 0 40 0;
#X connect 40 0 41 0;
#X connect 41 0 10 4;
#X connect 41 1 42 0;
#X connect 42 0 43 0;
#X connect 43 0 10 3;
#X connect 43 1 10 5;
#X connect 44 0 3 0;
#X restore 12 454 pd lowpass;
#X obj 42 370 r \$0-frq;
#X obj 226 12 r \$0-frq;
#X msg 226 33 1000 \$1;
#X obj 226 54 /;
#X msg 226 96 0 \, 1 \$1;
#X obj 226 117 vline~;
#X obj 226 159 wrap~;
#X obj 42 391 t b b;
#X obj 42 433 unpack f f;
#X obj 12 247 *~;
#X obj 465 426 r \$0-frq;
#X msg 465 447 clear;
#X obj 565 151 r \$0-vel;
#X obj 455 293 *~;
#X obj 361 236 loadbang;
#X obj 361 278 + 100;
#X obj 361 299 dbtorms;
#X obj 226 315 *~;
#X obj 390 73 r \$0-vel;
#X obj 390 94 sel 0;
#X obj 417 115 - 1;
#X obj 417 136 / 126;
#X obj 417 284 mtof;
#X msg 182 152 1 \$1;
#X obj 182 173 -;
#X obj 476 315 r \$0-frq;
#X obj 476 336 t f b;
#X msg 503 378 clear;
#X obj 455 404 lop~;
#X obj 737 157 sel 1;
#X obj 737 178 random 101;
#X obj 737 199 / 100;
#X obj 737 220 * 2;
#X obj 737 241 - 1;
#X obj 722 325 +;
#X obj 12 160 f \$1;
#X obj 12 117 r \$0-frq;
#X obj 12 138 bang;
#X msg 12 182 seed \$1;
#X obj 794 115 loadbang;
#X obj 794 136 f \$2;
#X msg 794 157 seed \$1;
#X obj 226 180 *~ -2;
#X obj 226 201 +~ 1;
#X obj 740 558 env~;
#X obj 740 579 change;
#X obj 740 600 sel 0;
#X msg 740 621 0;
#X obj 740 642 switch~ 1 1 1;
#X obj 565 172 > 0;
#X obj 565 193 sel 0 1;
#X obj 565 277 line~;
#X obj 266 159 -~ 0.25;
#X obj 266 180 cos~;
#X obj 627 156 r pdl;
#X obj 836 341 pipe 2;
#X obj 722 438 pipe 2;
#X msg 589 645 0 1;
#X msg 619 645 1 0;
#X obj 589 666 line~;
#X obj 506 682 *~;
#X obj 589 601 sel 1;
#X obj 619 624 del 2;
#X obj 565 214 spigot;
#X msg 627 177 1 \$1;
#X obj 627 198 -;
#X obj 662 177 sel 0;
#X obj 662 219 spigot;
#X obj 695 198 == 0;
#X msg 455 229 1000 \$1;
#X obj 455 250 /;
#N canvas 0 23 450 300 lowpass 0;
#X obj 62 16 inlet;
#X obj 206 16 inlet;
#X obj 131 75 / 2;
#X obj 62 122 * 6.28319;
#X obj 62 143 /;
#X obj 131 12 loadbang;
#X obj 131 33 samplerate~;
#X obj 131 54 t f f;
#X obj 123 152 max 5.96046e-08;
#X obj 155 178 cos;
#X obj 137 320 pack f f f f f f;
#X obj 155 225 * -2;
#X obj 62 232 t f f;
#X msg 89 253 1 \$1;
#X obj 89 274 -;
#X obj 62 274 + 1;
#X obj 62 51 f;
#X obj 206 37 t b f;
#X obj 62 190 sin;
#X obj 62 211 /;
#X obj 123 197 * 2;
#X obj 62 164 t f f;
#X obj 155 199 t f f;
#X msg 137 341 \$2 \$3 \$4 \$5 \$6 \$1;
#X obj 137 362 unpack f f f f f f;
#X obj 137 414 /;
#X obj 167 414 /;
#X obj 197 414 /;
#X obj 227 414 /;
#X obj 257 414 /;
#X obj 137 440 pack f f f f f;
#X obj 137 388 * -1;
#X obj 167 388 * -1;
#X text 247 320 a0 a1 a2 b0 b1 b2;
#X obj 12 454 biquad~;
#X obj 289 419 inlet;
#X msg 289 440 clear;
#X obj 12 428 inlet~;
#X obj 12 475 outlet~;
#X msg 211 213 1 \$1;
#X obj 211 234 -;
#X obj 211 255 t f f;
#X obj 238 276 / 2;
#X obj 238 297 t f f;
#X obj 62 101 clip 20 20000;
#X connect 0 0 16 0;
#X connect 1 0 17 0;
#X connect 3 0 4 0;
#X connect 4 0 21 0;
#X connect 5 0 6 0;
#X connect 6 0 7 0;
#X connect 7 0 2 0;
#X connect 7 1 4 1;
#X connect 8 0 20 0;
#X connect 9 0 22 0;
#X connect 10 0 23 0;
#X connect 11 0 10 1;
#X connect 12 0 15 0;
#X connect 12 1 13 0;
#X connect 13 0 14 0;
#X connect 14 0 10 2;
#X connect 15 0 10 0;
#X connect 16 0 44 0;
#X connect 17 0 16 0;
#X connect 17 1 8 0;
#X connect 18 0 19 0;
#X connect 19 0 12 0;
#X connect 20 0 19 1;
#X connect 21 0 18 0;
#X connect 21 1 9 0;
#X connect 22 0 11 0;
#X connect 22 1 39 0;
#X connect 23 0 24 0;
#X connect 24 0 31 0;
#X connect 24 1 32 0;
#X connect 24 2 27 0;
#X connect 24 3 28 0;
#X connect 24 4 29 0;
#X connect 24 5 29 1;
#X connect 24 5 28 1;
#X connect 24 5 27 1;
#X connect 24 5 26 1;
#X connect 24 5 25 1;
#X connect 25 0 30 0;
#X connect 26 0 30 1;
#X connect 27 0 30 2;
#X connect 28 0 30 3;
#X connect 29 0 30 4;
#X connect 30 0 34 0;
#X connect 31 0 25 0;
#X connect 32 0 26 0;
#X connect 34 0 38 0;
#X connect 35 0 36 0;
#X connect 36 0 34 0;
#X connect 37 0 34 0;
#X connect 39 0 40 0;
#X connect 40 0 41 0;
#X connect 41 0 10 4;
#X connect 41 1 42 0;
#X connect 42 0 43 0;
#X connect 43 0 10 3;
#X connect 43 1 10 5;
#X connect 44 0 3 0;
#X restore 12 342 pd lowpass;
#X obj 42 321 unpack f f;
#X msg 42 300 \$1 0.404;
#X obj 226 293 *~;
#X obj 261 256 vline~;
#X obj 12 225 *~ 2;
#X obj 663 608 r \$0-frq;
#X obj 663 629 ftom;
#X obj 663 713 sqrt;
#X msg 521 708 1 \$1;
#X obj 521 729 -;
#X obj 521 750 sqrt;
#X obj 506 771 *~;
#X obj 556 771 *~;
#X obj 506 792 outlet~;
#X obj 556 792 outlet~;
#X obj 663 650 clip 20 110;
#X obj 663 671 - 20;
#X obj 663 692 / 90;
#X msg 584 256 1 0;
#X obj 506 500 r \$0-frq;
#X msg 506 521 clear;
#N canvas 0 23 450 300 lowpass 0;
#X obj 62 16 inlet;
#X obj 206 16 inlet;
#X obj 131 75 / 2;
#X obj 62 122 * 6.28319;
#X obj 62 143 /;
#X obj 131 12 loadbang;
#X obj 131 33 samplerate~;
#X obj 131 54 t f f;
#X obj 123 152 max 5.96046e-08;
#X obj 155 178 cos;
#X obj 137 320 pack f f f f f f;
#X obj 155 225 * -2;
#X obj 62 232 t f f;
#X msg 89 253 1 \$1;
#X obj 89 274 -;
#X obj 62 274 + 1;
#X obj 62 51 f;
#X obj 206 37 t b f;
#X obj 62 190 sin;
#X obj 62 211 /;
#X obj 123 197 * 2;
#X obj 62 164 t f f;
#X obj 155 199 t f f;
#X msg 137 341 \$2 \$3 \$4 \$5 \$6 \$1;
#X obj 137 362 unpack f f f f f f;
#X obj 137 414 /;
#X obj 167 414 /;
#X obj 197 414 /;
#X obj 227 414 /;
#X obj 257 414 /;
#X obj 137 440 pack f f f f f;
#X obj 137 388 * -1;
#X obj 167 388 * -1;
#X text 247 320 a0 a1 a2 b0 b1 b2;
#X obj 12 454 biquad~;
#X obj 289 419 inlet;
#X msg 289 440 clear;
#X obj 12 428 inlet~;
#X obj 12 475 outlet~;
#X msg 211 213 1 \$1;
#X obj 211 234 -;
#X obj 211 255 t f f;
#X obj 238 276 / 2;
#X obj 238 297 t f f;
#X obj 62 101 clip 20 22050;
#X connect 0 0 16 0;
#X connect 1 0 17 0;
#X connect 2 0 44 2;
#X connect 3 0 4 0;
#X connect 4 0 21 0;
#X connect 5 0 6 0;
#X connect 6 0 7 0;
#X connect 7 0 2 0;
#X connect 7 1 4 1;
#X connect 8 0 20 0;
#X connect 9 0 22 0;
#X connect 10 0 23 0;
#X connect 11 0 10 1;
#X connect 12 0 15 0;
#X connect 12 1 13 0;
#X connect 13 0 14 0;
#X connect 14 0 10 2;
#X connect 15 0 10 0;
#X connect 16 0 44 0;
#X connect 17 0 16 0;
#X connect 17 1 8 0;
#X connect 18 0 19 0;
#X connect 19 0 12 0;
#X connect 20 0 19 1;
#X connect 21 0 18 0;
#X connect 21 1 9 0;
#X connect 22 0 11 0;
#X connect 22 1 39 0;
#X connect 23 0 24 0;
#X connect 24 0 31 0;
#X connect 24 1 32 0;
#X connect 24 2 27 0;
#X connect 24 3 28 0;
#X connect 24 4 29 0;
#X connect 24 5 29 1;
#X connect 24 5 28 1;
#X connect 24 5 27 1;
#X connect 24 5 26 1;
#X connect 24 5 25 1;
#X connect 25 0 30 0;
#X connect 26 0 30 1;
#X connect 27 0 30 2;
#X connect 28 0 30 3;
#X connect 29 0 30 4;
#X connect 30 0 34 0;
#X connect 31 0 25 0;
#X connect 32 0 26 0;
#X connect 34 0 38 0;
#X connect 35 0 36 0;
#X connect 36 0 34 0;
#X connect 37 0 34 0;
#X connect 39 0 40 0;
#X connect 40 0 41 0;
#X connect 41 0 10 4;
#X connect 41 1 42 0;
#X connect 42 0 43 0;
#X connect 43 0 10 3;
#X connect 43 1 10 5;
#X connect 44 0 3 0;
#X restore 12 474 pd lowpass;
#X obj 809 391 s \$0-trg;
#X obj 589 580 r \$0-trg;
#X obj 790 579 r \$0-trg;
#X obj 790 600 sel 1;
#X msg 790 621 1;
#X obj 737 136 r \$0-trg;
#N canvas 0 23 450 300 lowpass 0;
#X obj 62 16 inlet;
#X obj 206 16 inlet;
#X obj 131 75 / 2;
#X obj 62 122 * 6.28319;
#X obj 62 143 /;
#X obj 131 12 loadbang;
#X obj 131 33 samplerate~;
#X obj 131 54 t f f;
#X obj 123 152 max 5.96046e-08;
#X obj 155 178 cos;
#X obj 137 320 pack f f f f f f;
#X obj 155 225 * -2;
#X obj 62 232 t f f;
#X msg 89 253 1 \$1;
#X obj 89 274 -;
#X obj 62 274 + 1;
#X obj 62 51 f;
#X obj 206 37 t b f;
#X obj 62 190 sin;
#X obj 62 211 /;
#X obj 123 197 * 2;
#X obj 62 164 t f f;
#X obj 155 199 t f f;
#X msg 137 341 \$2 \$3 \$4 \$5 \$6 \$1;
#X obj 137 362 unpack f f f f f f;
#X obj 137 414 /;
#X obj 167 414 /;
#X obj 197 414 /;
#X obj 227 414 /;
#X obj 257 414 /;
#X obj 137 440 pack f f f f f;
#X obj 137 388 * -1;
#X obj 167 388 * -1;
#X text 247 320 a0 a1 a2 b0 b1 b2;
#X obj 12 454 biquad~;
#X obj 289 419 inlet;
#X msg 289 440 clear;
#X obj 12 428 inlet~;
#X obj 12 475 outlet~;
#X msg 211 213 1 \$1;
#X obj 211 234 -;
#X obj 211 255 t f f;
#X obj 238 276 / 2;
#X obj 238 297 t f f;
#X obj 62 101 clip 20 20000;
#X connect 0 0 16 0;
#X connect 1 0 17 0;
#X connect 3 0 4 0;
#X connect 4 0 21 0;
#X connect 5 0 6 0;
#X connect 6 0 7 0;
#X connect 7 0 2 0;
#X connect 7 1 4 1;
#X connect 8 0 20 0;
#X connect 9 0 22 0;
#X connect 10 0 23 0;
#X connect 11 0 10 1;
#X connect 12 0 15 0;
#X connect 12 1 13 0;
#X connect 13 0 14 0;
#X connect 14 0 10 2;
#X connect 15 0 10 0;
#X connect 16 0 44 0;
#X connect 17 0 16 0;
#X connect 17 1 8 0;
#X connect 18 0 19 0;
#X connect 19 0 12 0;
#X connect 20 0 19 1;
#X connect 21 0 18 0;
#X connect 21 1 9 0;
#X connect 22 0 11 0;
#X connect 22 1 39 0;
#X connect 23 0 24 0;
#X connect 24 0 31 0;
#X connect 24 1 32 0;
#X connect 24 2 27 0;
#X connect 24 3 28 0;
#X connect 24 4 29 0;
#X connect 24 5 29 1;
#X connect 24 5 28 1;
#X connect 24 5 27 1;
#X connect 24 5 26 1;
#X connect 24 5 25 1;
#X connect 25 0 30 0;
#X connect 26 0 30 1;
#X connect 27 0 30 2;
#X connect 28 0 30 3;
#X connect 29 0 30 4;
#X connect 30 0 34 0;
#X connect 31 0 25 0;
#X connect 32 0 26 0;
#X connect 34 0 38 0;
#X connect 35 0 36 0;
#X connect 36 0 34 0;
#X connect 37 0 34 0;
#X connect 39 0 40 0;
#X connect 40 0 41 0;
#X connect 41 0 10 4;
#X connect 41 1 42 0;
#X connect 42 0 43 0;
#X connect 43 0 10 3;
#X connect 43 1 10 5;
#X connect 44 0 3 0;
#X restore 226 405 pd lowpass;
#X obj 256 298 r \$0-frq;
#X obj 256 384 unpack f f;
#X obj 256 319 t f b;
#X msg 256 362 \$1 0.404;
#X obj 455 272 delread4~ \$0-del;
#X obj 627 114 loadbang;
#X msg 627 135 0;
#X obj 261 277 pow~ 1;
#X msg 565 235 0.95 10;
#X obj 455 467 lop~ 6000;
#X obj 185 217 + 1;
#X obj 69 47 r \$0-frq;
#X obj 69 110 del 2;
#X obj 69 68 t b b b;
#X msg 69 131 0 240;
#X obj 69 152 unpack f f;
#X obj 69 210 lop~;
#X obj 69 231 pow~ 1;
#X msg 126 173 1000 \$1;
#X obj 126 194 /;
#X msg 108 131 clear;
#N canvas 0 23 450 300 lowpass 0;
#X obj 62 16 inlet;
#X obj 206 16 inlet;
#X obj 131 75 / 2;
#X obj 62 122 * 6.28319;
#X obj 62 143 /;
#X obj 131 12 loadbang;
#X obj 131 33 samplerate~;
#X obj 131 54 t f f;
#X obj 123 152 max 5.96046e-08;
#X obj 155 178 cos;
#X obj 137 320 pack f f f f f f;
#X obj 155 225 * -2;
#X obj 62 232 t f f;
#X msg 89 253 1 \$1;
#X obj 89 274 -;
#X obj 62 274 + 1;
#X obj 62 51 f;
#X obj 206 37 t b f;
#X obj 62 190 sin;
#X obj 62 211 /;
#X obj 123 197 * 2;
#X obj 62 164 t f f;
#X obj 155 199 t f f;
#X msg 137 341 \$2 \$3 \$4 \$5 \$6 \$1;
#X obj 137 362 unpack f f f f f f;
#X obj 137 414 /;
#X obj 167 414 /;
#X obj 197 414 /;
#X obj 227 414 /;
#X obj 257 414 /;
#X obj 137 440 pack f f f f f;
#X obj 137 388 * -1;
#X obj 167 388 * -1;
#X text 247 320 a0 a1 a2 b0 b1 b2;
#X obj 12 454 biquad~;
#X obj 289 419 inlet;
#X msg 289 440 clear;
#X obj 12 428 inlet~;
#X obj 12 475 outlet~;
#X msg 211 213 1 \$1;
#X obj 211 234 -;
#X obj 211 255 t f f;
#X obj 238 276 / 2;
#X obj 238 297 t f f;
#X obj 62 101 clip 20 22050;
#X connect 0 0 16 0;
#X connect 1 0 17 0;
#X connect 2 0 44 2;
#X connect 3 0 4 0;
#X connect 4 0 21 0;
#X connect 5 0 6 0;
#X connect 6 0 7 0;
#X connect 7 0 2 0;
#X connect 7 1 4 1;
#X connect 8 0 20 0;
#X connect 9 0 22 0;
#X connect 10 0 23 0;
#X connect 11 0 10 1;
#X connect 12 0 15 0;
#X connect 12 1 13 0;
#X connect 13 0 14 0;
#X connect 14 0 10 2;
#X connect 15 0 10 0;
#X connect 16 0 44 0;
#X connect 17 0 16 0;
#X connect 17 1 8 0;
#X connect 18 0 19 0;
#X connect 19 0 12 0;
#X connect 20 0 19 1;
#X connect 21 0 18 0;
#X connect 21 1 9 0;
#X connect 22 0 11 0;
#X connect 22 1 39 0;
#X connect 23 0 24 0;
#X connect 24 0 31 0;
#X connect 24 1 32 0;
#X connect 24 2 27 0;
#X connect 24 3 28 0;
#X connect 24 4 29 0;
#X connect 24 5 29 1;
#X connect 24 5 28 1;
#X connect 24 5 27 1;
#X connect 24 5 26 1;
#X connect 24 5 25 1;
#X connect 25 0 30 0;
#X connect 26 0 30 1;
#X connect 27 0 30 2;
#X connect 28 0 30 3;
#X connect 29 0 30 4;
#X connect 30 0 34 0;
#X connect 31 0 25 0;
#X connect 32 0 26 0;
#X connect 34 0 38 0;
#X connect 35 0 36 0;
#X connect 36 0 34 0;
#X connect 37 0 34 0;
#X connect 39 0 40 0;
#X connect 40 0 41 0;
#X connect 41 0 10 4;
#X connect 41 1 42 0;
#X connect 42 0 43 0;
#X connect 43 0 10 3;
#X connect 43 1 10 5;
#X connect 44 0 3 0;
#X restore 12 494 pd lowpass;
#X obj 476 357 * 56;
#X msg 261 235 1 2 \, 0 \$1 2;
#X obj 126 436 r \$0-frq;
#X obj 105 510 hip~;
#X obj 126 457 t f b;
#X msg 153 494 clear;
#X obj 506 542 hip~ 20;
#X msg 88 89 1 2;
#X obj 737 262 * 0.01;
#X obj 126 478 / 2;
#X msg 361 257 -9;
#X obj 226 138 *~ 8;
#X obj 226 75 * 8;
#X obj 266 201 /~ 4;
#X obj 417 263 + 70;
#X obj 417 242 * 50;
#X obj 417 221 pow 1.25;
#X msg 42 411 3500 0.45;
#X obj 256 340 * 16;
#X connect 0 0 1 0;
#X connect 1 0 50 0;
#X connect 1 1 7 0;
#X connect 2 0 3 0;
#X connect 3 0 5 0;
#X connect 4 0 3 1;
#X connect 4 0 110 0;
#X connect 5 0 72 0;
#X connect 6 0 85 0;
#X connect 7 0 4 0;
#X connect 7 1 71 0;
#X connect 10 0 145 0;
#X connect 12 0 13 0;
#X connect 13 0 11 0;
#X connect 14 0 92 0;
#X connect 15 0 109 0;
#X connect 16 0 23 0;
#X connect 17 0 18 0;
#X connect 18 0 19 0;
#X connect 19 0 151 0;
#X connect 20 0 21 0;
#X connect 21 0 150 0;
#X connect 22 0 58 0;
#X connect 23 0 156 0;
#X connect 23 1 15 3;
#X connect 23 1 87 3;
#X connect 23 1 109 3;
#X connect 23 1 138 3;
#X connect 24 0 15 1;
#X connect 24 0 109 1;
#X connect 24 0 138 1;
#X connect 24 1 15 2;
#X connect 24 1 109 2;
#X connect 24 1 138 2;
#X connect 25 0 87 0;
#X connect 26 0 27 0;
#X connect 27 0 126 0;
#X connect 28 0 65 0;
#X connect 28 0 84 0;
#X connect 29 0 44 0;
#X connect 30 0 149 0;
#X connect 31 0 32 0;
#X connect 32 0 33 1;
#X connect 33 0 116 0;
#X connect 34 0 35 0;
#X connect 35 1 36 0;
#X connect 36 0 37 0;
#X connect 37 0 39 0;
#X connect 37 0 155 0;
#X connect 38 0 89 0;
#X connect 39 0 40 0;
#X connect 40 0 127 0;
#X connect 41 0 42 0;
#X connect 42 0 139 0;
#X connect 42 1 43 0;
#X connect 43 0 44 0;
#X connect 44 0 126 0;
#X connect 45 0 46 0;
#X connect 46 0 47 0;
#X connect 47 0 48 0;
#X connect 48 0 49 0;
#X connect 49 0 147 0;
#X connect 50 0 2 0;
#X connect 51 0 54 0;
#X connect 52 0 53 0;
#X connect 53 0 51 0;
#X connect 54 0 14 0;
#X connect 55 0 56 0;
#X connect 56 0 57 0;
#X connect 57 0 46 0;
#X connect 58 0 59 0;
#X connect 59 0 90 0;
#X connect 60 0 61 0;
#X connect 61 0 62 0;
#X connect 62 0 63 0;
#X connect 63 0 64 0;
#X connect 65 0 66 0;
#X connect 66 0 79 0;
#X connect 66 1 106 0;
#X connect 67 0 29 1;
#X connect 68 0 69 0;
#X connect 69 0 152 0;
#X connect 70 0 80 0;
#X connect 70 0 82 0;
#X connect 71 0 8 0;
#X connect 72 0 9 0;
#X connect 73 0 75 0;
#X connect 74 0 75 0;
#X connect 75 0 76 1;
#X connect 76 0 99 0;
#X connect 76 0 100 0;
#X connect 77 0 73 0;
#X connect 77 0 78 0;
#X connect 78 0 74 0;
#X connect 79 0 125 0;
#X connect 80 0 81 0;
#X connect 81 0 79 1;
#X connect 82 0 83 0;
#X connect 83 0 125 0;
#X connect 84 0 83 1;
#X connect 85 0 86 0;
#X connect 86 0 121 0;
#X connect 87 0 15 0;
#X connect 88 0 87 1;
#X connect 88 1 87 2;
#X connect 89 0 88 0;
#X connect 90 0 33 0;
#X connect 91 0 124 0;
#X connect 92 0 25 0;
#X connect 93 0 94 0;
#X connect 94 0 103 0;
#X connect 95 0 100 1;
#X connect 96 0 97 0;
#X connect 97 0 98 0;
#X connect 98 0 99 1;
#X connect 99 0 101 0;
#X connect 100 0 102 0;
#X connect 103 0 104 0;
#X connect 104 0 105 0;
#X connect 105 0 95 0;
#X connect 105 0 96 0;
#X connect 106 0 67 0;
#X connect 107 0 108 0;
#X connect 108 0 145 0;
#X connect 109 0 138 0;
#X connect 111 0 77 0;
#X connect 112 0 113 0;
#X connect 113 0 114 0;
#X connect 114 0 64 0;
#X connect 115 0 45 0;
#X connect 116 0 87 0;
#X connect 117 0 119 0;
#X connect 118 0 116 1;
#X connect 118 1 116 2;
#X connect 119 0 157 0;
#X connect 119 1 116 3;
#X connect 120 0 118 0;
#X connect 121 0 29 0;
#X connect 122 0 123 0;
#X connect 123 0 80 0;
#X connect 123 0 82 0;
#X connect 124 0 90 1;
#X connect 125 0 67 0;
#X connect 126 0 10 1;
#X connect 127 0 134 1;
#X connect 127 0 124 1;
#X connect 128 0 130 0;
#X connect 129 0 131 0;
#X connect 130 0 129 0;
#X connect 130 1 146 0;
#X connect 130 2 137 0;
#X connect 131 0 132 0;
#X connect 132 0 133 0;
#X connect 132 1 135 0;
#X connect 133 0 134 0;
#X connect 134 0 25 1;
#X connect 135 0 136 0;
#X connect 136 0 133 1;
#X connect 137 0 133 0;
#X connect 138 0 142 0;
#X connect 139 0 44 1;
#X connect 140 0 91 0;
#X connect 141 0 143 0;
#X connect 142 0 10 0;
#X connect 143 0 148 0;
#X connect 143 1 144 0;
#X connect 144 0 142 0;
#X connect 145 0 11 0;
#X connect 145 0 76 0;
#X connect 145 0 60 0;
#X connect 146 0 132 0;
#X connect 147 0 50 1;
#X connect 148 0 142 1;
#X connect 149 0 31 0;
#X connect 150 0 22 0;
#X connect 150 0 68 0;
#X connect 151 0 20 0;
#X connect 151 0 140 0;
#X connect 152 0 90 0;
#X connect 153 0 38 0;
#X connect 154 0 153 0;
#X connect 155 0 154 0;
#X connect 156 0 24 0;
#X connect 157 0 120 0;
