#N canvas 645 250 1267 797 10;
#X obj 641 462 pack f f f;
#X obj 641 525 clip~ -1 1;
#X obj 641 546 hip~ 3;
#X obj 641 588 dac~ 1 2;
#X obj 867 312 tgl 15 1 empty empty empty 17 7 0 10 -262144 -1 -1 1
1;
#X obj 867 332 metro 50;
#X obj 852 391 tabwrite~ \$0-scope;
#N canvas 0 22 450 278 (subpatch) 0;
#X array \$0-scope 441 float 0;
#X coords 0 1 441 -1 200 140 1;
#X restore 30 463 graph;
#X obj 641 483 clone -s 1 santur 24;
#X obj 641 442 poly 24 1;
#X obj 642 568 *~ 0.25;
#X obj 641 504 *~ 0.5;
#X obj 641 330 notein;
#X connect 0 0 8 0;
#X connect 1 0 2 0;
#X connect 2 0 10 0;
#X connect 4 0 5 0;
#X connect 5 0 6 0;
#X connect 8 0 6 0;
#X connect 8 0 11 0;
#X connect 9 0 0 0;
#X connect 9 1 0 1;
#X connect 9 2 0 2;
#X connect 10 0 3 0;
#X connect 10 0 3 1;
#X connect 11 0 1 0;
#X connect 12 0 9 0;
#X connect 12 1 9 1;
