#N canvas 855 553 249 197 10;
#X obj 143 46 inlet~;
#X obj 44 46 inlet~;
#X obj 44 141 outlet~;
#N canvas 467 216 450 300 @hv_obj 0;
#X obj 217 60 inlet~;
#X obj 120 60 inlet~;
#X obj 170 183 outlet~;
#X connect 1 0 2 0;
#X restore 44 117 pd @hv_obj __and~f;
#X obj 149 95 sig~ 1;
#N canvas 715 101 223 209 @hv_obj 0;
#X obj 46 22 inlet~;
#X obj 46 147 outlet~;
#X obj 46 54 hv.gte;
#X obj 46 124 *~;
#X obj 96 54 hv.lte;
#X obj 129 22 inlet~;
#X obj 61 80 sig~ 1;
#X obj 61 102 -~;
#X connect 0 0 2 0;
#X connect 0 0 4 0;
#X connect 2 0 3 0;
#X connect 3 0 1 0;
#X connect 4 0 7 1;
#X connect 5 0 2 1;
#X connect 5 0 4 1;
#X connect 6 0 7 0;
#X connect 7 0 3 1;
#X restore 44 69 pd @hv_obj __gt~f;
#X connect 0 0 5 1;
#X connect 1 0 5 0;
#X connect 3 0 2 0;
#X connect 4 0 3 1;
#X connect 5 0 3 0;
