#N canvas 608 484 391 249 10;
#X obj 31 172 env~;
#X floatatom 31 217 5 0 0 0 - - -, f 5;
#X text 23 14 Signal rate <=~ (less-then-or-equal-to) operation.;
#X text 23 30 Outputs 1 if left input is less than or equal to the
right input \, 0 otherwise.;
#X floatatom 31 71 5 0 0 0 - - -, f 5;
#X obj 64 117 sig~ 0;
#X obj 31 91 sig~ 0;
#X obj 31 147 hv.lte;
#X obj 31 194 dbtorms;
#X connect 0 0 8 0;
#X connect 4 0 6 0;
#X connect 5 0 7 1;
#X connect 6 0 7 0;
#X connect 7 0 0 0;
#X connect 8 0 1 0;
