#N canvas 668 363 712 615 10;
#X obj 179 155 phasor~ 220;
#X obj 179 201 -~ 0.25;
#X obj 179 222 cos~;
#X obj 235 180 *~ 2;
#X obj 235 201 -~ 0.25;
#X obj 235 222 cos~;
#X obj 295 201 -~ 0.25;
#X obj 295 222 cos~;
#X obj 355 201 -~ 0.25;
#X obj 355 222 cos~;
#X obj 295 180 *~ 3;
#X obj 355 179 *~ 4;
#X obj 264 343 hsl 128 16 0 0.5 0 0 empty empty VOLUME -2 -6 0 12 -4034
-1 -1 8300 1;
#X obj 261 364 pack f 20;
#X obj 261 385 line~;
#X obj 195 411 *~;
#X obj 195 442 dac~ 1 2;
#X obj 179 273 ma.4crossfade~;
#X obj 365 270 hsl 128 16 0 3 0 0 empty \$0-crossfade CROSSFADE -2
-6 0 12 -128992 -262144 -1 0 1;
#X obj 362 312 line~;
#X floatatom 477 286 0 0 0 0 - - -;
#X msg 362 291 \$1 20;
#X obj 610 88 loadbang;
#X obj 610 130 f \$0;
#X msg 610 151 \; \$1-drywet 0.5;
#X msg 610 109 bang;
#X connect 0 0 1 0;
#X connect 0 0 3 0;
#X connect 0 0 10 0;
#X connect 0 0 11 0;
#X connect 1 0 2 0;
#X connect 2 0 17 0;
#X connect 3 0 4 0;
#X connect 4 0 5 0;
#X connect 5 0 17 1;
#X connect 6 0 7 0;
#X connect 7 0 17 2;
#X connect 8 0 9 0;
#X connect 9 0 17 3;
#X connect 10 0 6 0;
#X connect 11 0 8 0;
#X connect 12 0 13 0;
#X connect 13 0 14 0;
#X connect 14 0 15 1;
#X connect 15 0 16 0;
#X connect 15 0 16 1;
#X connect 17 0 15 0;
#X connect 18 0 20 0;
#X connect 18 0 21 0;
#X connect 19 0 17 4;
#X connect 21 0 19 0;
#X connect 22 0 25 0;
#X connect 23 0 24 0;
#X connect 25 0 23 0;
