#N canvas 817 539 230 207 10;
#X obj 12 78 -~;
#X obj 12 99 clip~ -1e-37 0;
#X obj 12 31 inlet~;
#X obj 82 31 inlet~;
#X obj 12 162 outlet~;
#X obj 12 141 *~ 1e+37;
#X obj 12 57 min~;
#X obj 12 120 +~ 1e-37;
#X text 82 11 (I2);
#X text 12 182 (O1);
#X text 12 11 (I1);
#X connect 0 0 1 0;
#X connect 1 0 7 0;
#X connect 2 0 6 0;
#X connect 2 0 0 1;
#X connect 3 0 6 1;
#X connect 5 0 4 0;
#X connect 6 0 0 0;
#X connect 7 0 5 0;
