#N canvas 433 473 249 187 10;
#X obj 130 31 inlet~;
#X obj 31 31 inlet~;
#X obj 31 75 outlet~;
#N canvas 350 241 223 209 @hv_obj 0;
#X obj 46 22 inlet~;
#X obj 46 147 outlet~;
#X obj 46 124 *~;
#X obj 129 22 inlet~;
#X obj 61 80 sig~ 1;
#X obj 61 102 -~;
#N canvas 0 23 450 300 <=~ 0;
#X obj 12 78 -~;
#X obj 12 99 clip~ -1e-37 0;
#X obj 12 31 inlet~;
#X obj 82 31 inlet~;
#X obj 12 162 outlet~;
#X obj 12 141 *~ 1e+37;
#X obj 12 57 min~;
#X obj 12 120 +~ 1e-37;
#X text 82 11 (I2);
#X text 12 182 (O1);
#X text 12 11 (I1);
#X connect 0 0 1 0;
#X connect 1 0 7 0;
#X connect 2 0 6 0;
#X connect 2 0 0 1;
#X connect 3 0 6 1;
#X connect 5 0 4 0;
#X connect 6 0 0 0;
#X connect 7 0 5 0;
#X restore 46 54 pd <=~;
#N canvas 0 23 238 193 >=~ 0;
#X obj 23 69 -~;
#X obj 23 94 clip~ -1e-37 0;
#X obj 23 18 inlet~;
#X obj 67 19 inlet~;
#X obj 23 159 outlet~;
#X obj 23 136 *~ 1e+37;
#X obj 23 44 min~;
#X obj 23 115 +~ 1e-37;
#X connect 0 0 1 0;
#X connect 1 0 7 0;
#X connect 2 0 6 0;
#X connect 3 0 6 1;
#X connect 3 0 0 1;
#X connect 5 0 4 0;
#X connect 6 0 0 0;
#X connect 7 0 5 0;
#X restore 116 54 pd >=~;
#X connect 0 0 6 0;
#X connect 0 0 7 0;
#X connect 2 0 1 0;
#X connect 3 0 6 1;
#X connect 3 0 7 1;
#X connect 4 0 5 0;
#X connect 5 0 2 1;
#X connect 6 0 2 0;
#X connect 7 0 5 1;
#X restore 31 54 pd @hv_obj __lt~f;
#X connect 0 0 3 1;
#X connect 1 0 3 0;
#X connect 3 0 2 0;
