#N canvas 929 23 398 607 10;
#X obj 12 52 list prepend;
#X obj 52 154 unpack f f;
#X obj 52 175 > 0;
#X obj 79 217 +;
#X obj 109 217 i;
#X obj 52 196 sel 0;
#X msg 52 217 0;
#X obj 12 73 t b l;
#X obj 111 280 outlet;
#X obj 94 108 sel 0;
#X msg 94 129 0;
#X obj 12 285 t b b;
#X msg 12 306 127;
#X obj 12 327 until;
#X obj 12 348 i;
#X obj 42 348 + 1;
#X msg 123 299 0;
#X obj 221 460 list prepend;
#X obj 221 481 route 1;
#X obj 221 362 t f f;
#X obj 290 397 > 0;
#X obj 317 439 +;
#X obj 347 439 i;
#X obj 290 418 sel 0;
#X msg 290 439 0;
#X msg 12 369 127 \$1;
#X obj 12 390 -;
#X obj 12 509 list prepend;
#X obj 12 530 route 1;
#X obj 12 411 t f f;
#X obj 81 446 > 0;
#X obj 108 488 +;
#X obj 138 488 i;
#X obj 81 467 sel 0;
#X msg 81 488 0;
#X obj 12 551 outlet;
#X obj 221 502 outlet;
#X obj 98 52 array define -yrange 0 127 \$0-mono 127;
#X obj 94 87 array sum \$0-mono;
#X obj 52 238 array set \$0-mono;
#X obj 12 259 array max \$0-mono;
#X obj 81 425 tabread \$0-mono;
#X obj 290 376 tabread \$0-mono;
#X obj 12 31 inlet;
#X obj 81 31 inlet;
#X text 151 280 <- last note;
#X text 12 571 high note;
#X text 221 522 low note;
#X text 12 11 note;
#X text 81 11 velocity;
#X connect 0 0 7 0;
#X connect 1 0 2 0;
#X connect 1 1 39 1;
#X connect 2 0 5 0;
#X connect 3 0 4 0;
#X connect 3 0 39 0;
#X connect 4 0 3 1;
#X connect 5 0 6 0;
#X connect 5 1 3 0;
#X connect 6 0 39 0;
#X connect 7 0 11 0;
#X connect 7 0 38 0;
#X connect 7 0 40 0;
#X connect 7 1 1 0;
#X connect 9 0 10 0;
#X connect 10 0 3 1;
#X connect 11 0 12 0;
#X connect 11 1 16 0;
#X connect 12 0 13 0;
#X connect 13 0 14 0;
#X connect 14 0 15 0;
#X connect 14 0 19 0;
#X connect 14 0 25 0;
#X connect 15 0 14 1;
#X connect 16 0 14 1;
#X connect 16 0 21 1;
#X connect 16 0 31 1;
#X connect 17 0 18 0;
#X connect 18 0 36 0;
#X connect 19 0 17 0;
#X connect 19 1 42 0;
#X connect 20 0 23 0;
#X connect 21 0 22 0;
#X connect 21 0 17 1;
#X connect 22 0 21 1;
#X connect 23 0 24 0;
#X connect 23 1 21 0;
#X connect 24 0 17 1;
#X connect 25 0 26 0;
#X connect 26 0 29 0;
#X connect 27 0 28 0;
#X connect 28 0 35 0;
#X connect 29 0 27 0;
#X connect 29 1 41 0;
#X connect 30 0 33 0;
#X connect 31 0 32 0;
#X connect 31 0 27 1;
#X connect 32 0 31 1;
#X connect 33 0 34 0;
#X connect 33 1 31 0;
#X connect 34 0 27 1;
#X connect 38 0 9 0;
#X connect 40 1 8 0;
#X connect 41 0 30 0;
#X connect 42 0 20 0;
#X connect 43 0 0 0;
#X connect 44 0 0 1;
