#N canvas 789 372 722 486 10;
#X obj 12 30 inlet~;
#X obj 270 35 inlet~;
#X obj 27 255 loadbang;
#X msg 27 276 1;
#X obj 27 297 -~;
#X obj 12 323 *~;
#X obj 154 323 *~;
#X obj 270 260 wrap~;
#X obj 154 349 outlet~;
#X obj 380 115 inlet;
#X obj 12 182 *~ \$2;
#X obj 154 181 *~ \$2;
#X obj 12 229 tabread4~ \$1;
#X obj 154 228 tabread4~ \$1;
#X obj 380 136 list prepend set;
#X obj 42 203 r \$0-set;
#X obj 184 202 r \$0-set;
#X obj 570 115 inlet;
#X obj 570 136 s \$0-size;
#X obj 69 156 r \$0-size;
#X obj 201 155 r \$0-size;
#X obj 380 157 list trim;
#X obj 380 178 s \$0-set;
#X obj 12 51 wrap~;
#X text 154 369 Outlet 1: Wavetable output;
#X text 12 10 Inlet 1: Phasor;
#X obj 154 155 +~ 1;
#X text 270 15 Inlet 2: Wavetable Position;
#X text 380 95 Inlet 3: Set Wavetable Array;
#X text 570 95 Inlet 4: Set Size;
#X obj 154 99 -~;
#X connect 0 0 23 0;
#X connect 1 0 7 0;
#X connect 1 0 30 0;
#X connect 2 0 3 0;
#X connect 3 0 4 0;
#X connect 4 0 5 1;
#X connect 5 0 8 0;
#X connect 6 0 8 0;
#X connect 7 0 6 1;
#X connect 7 0 4 1;
#X connect 7 0 30 1;
#X connect 9 0 14 0;
#X connect 10 0 12 0;
#X connect 11 0 13 0;
#X connect 12 0 5 0;
#X connect 13 0 6 0;
#X connect 14 0 21 0;
#X connect 15 0 12 0;
#X connect 16 0 13 0;
#X connect 17 0 18 0;
#X connect 19 0 10 1;
#X connect 20 0 11 1;
#X connect 21 0 22 0;
#X connect 23 0 10 0;
#X connect 23 0 11 0;
#X connect 26 0 11 0;
#X connect 30 0 26 0;
#X connect 30 0 10 0;
