#N canvas 152 167 933 611 10;
#X obj 12 31 inlet~;
#X obj 132 31 inlet~;
#X obj 297 218 loadbang;
#X msg 297 239 1;
#X obj 297 260 -~;
#X obj 282 353 *~;
#X obj 372 353 *~;
#X obj 387 62 wrap~;
#X obj 416 565 outlet~;
#X obj 681 31 inlet;
#X obj 72 224 r \$0-set;
#X obj 701 111 inlet;
#X obj 701 246 s \$0-size;
#X obj 681 73 s \$0-set;
#X text 416 585 Outlet 1: Wavetable output;
#X text 12 11 Inlet 1: Phasor;
#X obj 212 104 +~ 1;
#X obj 92 78 -~;
#X obj 52 317 tabread4~ \$1;
#X obj 172 317 tabread4~ \$1;
#X obj 147 123 r \$0-size;
#X obj 227 161 + 3;
#X obj 92 187 *~;
#X obj 212 187 *~;
#X obj 132 159 *~;
#X obj 12 159 *~;
#X text 122 78 <- truncate;
#X obj 201 232 loadbang;
#X msg 201 252 1;
#X text 201 212 // onset;
#X obj 721 137 loadbang;
#X obj 721 158 f \$2;
#X obj 721 179 select 0;
#X msg 721 200 256;
#X text 751 200 <- default waveform size;
#X msg 681 52 set \$1;
#X text 132 11 Inlet 2: X Position;
#X obj 431 31 inlet~;
#X obj 621 62 wrap~;
#X obj 431 78 -~;
#X obj 731 286 inlet;
#X obj 751 312 loadbang;
#X obj 751 354 select 0;
#X msg 751 375 8;
#X obj 751 333 f \$3;
#X text 781 375 <- default rows;
#X text 431 11 Inlet 3: Y Position;
#X text 681 11 Inlet 4: Set Array;
#X text 701 91 Inlet 5: waveform size in samples;
#X text 731 266 Inlet 6: number of rows;
#X obj 12 223 +~;
#X obj 132 223 +~;
#X obj 282 493 *~;
#X obj 372 493 *~;
#X obj 52 457 tabread4~ \$1;
#X obj 172 457 tabread4~ \$1;
#X obj 491 124 +~ 1;
#X obj 431 261 *~;
#X obj 731 421 s \$0-rows;
#X obj 506 170 r \$0-rows;
#X obj 526 202 t b f;
#X obj 506 225 *;
#X obj 416 389 *~;
#X obj 606 529 *~;
#X obj 491 401 *~;
#X text 536 225 <- row size in samples;
#X obj 556 321 loadbang;
#X msg 556 342 1;
#X obj 556 363 -~;
#X text 257 161 <- account guard points;
#X text 242 104 <- next frame;
#X connect 0 0 24 0;
#X connect 0 0 25 0;
#X connect 1 0 7 0;
#X connect 1 0 17 0;
#X connect 2 0 3 0;
#X connect 3 0 4 0;
#X connect 4 0 5 1;
#X connect 4 0 52 1;
#X connect 5 0 62 0;
#X connect 6 0 62 0;
#X connect 7 0 17 1;
#X connect 7 0 6 1;
#X connect 7 0 4 1;
#X connect 7 0 53 1;
#X connect 9 0 35 0;
#X connect 10 0 18 0;
#X connect 10 0 19 0;
#X connect 10 0 54 0;
#X connect 10 0 55 0;
#X connect 11 0 12 0;
#X connect 16 0 23 0;
#X connect 17 0 16 0;
#X connect 17 0 22 0;
#X connect 18 0 5 0;
#X connect 19 0 6 0;
#X connect 20 0 24 1;
#X connect 20 0 25 1;
#X connect 20 0 21 0;
#X connect 21 0 23 1;
#X connect 21 0 22 1;
#X connect 21 0 60 0;
#X connect 22 0 50 1;
#X connect 23 0 51 1;
#X connect 24 0 51 0;
#X connect 25 0 50 0;
#X connect 27 0 28 0;
#X connect 28 0 19 1;
#X connect 28 0 18 1;
#X connect 28 0 55 1;
#X connect 28 0 54 1;
#X connect 30 0 31 0;
#X connect 31 0 32 0;
#X connect 32 0 33 0;
#X connect 32 1 12 0;
#X connect 33 0 12 0;
#X connect 35 0 13 0;
#X connect 37 0 38 0;
#X connect 37 0 39 0;
#X connect 38 0 39 1;
#X connect 38 0 68 1;
#X connect 38 0 63 1;
#X connect 39 0 56 0;
#X connect 39 0 57 0;
#X connect 40 0 58 0;
#X connect 41 0 44 0;
#X connect 42 0 43 0;
#X connect 42 1 58 0;
#X connect 43 0 58 0;
#X connect 44 0 42 0;
#X connect 50 0 18 0;
#X connect 50 0 54 0;
#X connect 51 0 19 0;
#X connect 51 0 55 0;
#X connect 52 0 63 0;
#X connect 53 0 63 0;
#X connect 54 0 52 0;
#X connect 55 0 53 0;
#X connect 56 0 64 0;
#X connect 57 0 19 0;
#X connect 57 0 18 0;
#X connect 59 0 61 0;
#X connect 60 0 61 0;
#X connect 60 1 61 1;
#X connect 61 0 57 1;
#X connect 61 0 64 1;
#X connect 62 0 8 0;
#X connect 63 0 8 0;
#X connect 64 0 55 0;
#X connect 64 0 54 0;
#X connect 66 0 67 0;
#X connect 67 0 68 0;
#X connect 68 0 62 1;
