#N canvas 415 60 1505 850 10;
#X obj 12 31 inlet~;
#X obj 132 31 inlet~;
#X obj 297 200 loadbang;
#X msg 297 221 1;
#X obj 297 242 -~;
#X obj 282 351 *~;
#X obj 372 351 *~;
#X obj 387 62 wrap~;
#X obj 766 795 outlet~;
#X obj 1001 31 inlet;
#X obj 102 299 r \$0-set;
#X obj 1021 111 inlet;
#X obj 1021 246 s \$0-size;
#X obj 1001 73 s \$0-set;
#X text 766 815 Outlet 1: Wavetable output;
#X text 12 11 Inlet 1: Phasor;
#X obj 212 104 +~ 1;
#X obj 92 78 -~;
#X obj 52 325 tabread4~ \$1;
#X obj 172 325 tabread4~ \$1;
#X obj 147 123 r \$0-size;
#X obj 227 161 + 3;
#X obj 92 187 *~;
#X obj 212 187 *~;
#X obj 132 159 *~;
#X obj 12 159 *~;
#X text 122 78 <- truncate;
#X obj 241 279 loadbang;
#X msg 241 299 1;
#X obj 1041 137 loadbang;
#X obj 1041 158 f \$2;
#X obj 1041 179 select 0;
#X msg 1041 200 256;
#X text 1071 200 <- default waveform size;
#X msg 1001 52 set \$1;
#X text 132 11 Inlet 2: X Position;
#X obj 431 31 inlet~;
#X obj 591 62 wrap~;
#X obj 431 78 -~;
#X obj 1051 286 inlet;
#X obj 1071 312 loadbang;
#X obj 1071 354 select 0;
#X msg 1071 375 8;
#X obj 1071 333 f \$3;
#X text 1101 375 <- default rows;
#X text 431 11 Inlet 3: Y Position;
#X obj 12 223 +~;
#X obj 132 223 +~;
#X obj 282 485 *~;
#X obj 372 485 *~;
#X obj 52 459 tabread4~ \$1;
#X obj 172 459 tabread4~ \$1;
#X obj 471 124 +~ 1;
#X obj 431 253 *~;
#X obj 1051 421 s \$0-rows;
#X obj 486 180 r \$0-rows;
#X obj 506 212 t b f;
#X obj 486 235 *;
#X obj 511 377 *~;
#X obj 576 511 *~;
#X obj 471 387 *~;
#X text 516 235 <- row size in samples;
#X obj 526 299 loadbang;
#X msg 526 320 1;
#X obj 526 341 -~;
#X text 257 161 <- account guard points;
#X text 242 104 <- next frame;
#X obj 1081 466 inlet;
#X obj 1101 492 loadbang;
#X obj 1101 534 select 0;
#X obj 691 31 inlet~;
#X obj 851 62 wrap~;
#X obj 691 78 -~;
#X obj 731 124 +~ 1;
#X obj 691 261 *~;
#X obj 766 202 t b f;
#X obj 746 225 *;
#X obj 766 479 *~;
#X obj 836 567 *~;
#X obj 731 432 *~;
#X obj 796 401 loadbang;
#X msg 796 422 1;
#X obj 796 443 -~;
#X text 691 11 Inlet 4: Z Position;
#X text 1001 11 Inlet 5: Set Array;
#X text 1021 91 Inlet 6: waveform size in samples;
#X text 1051 266 Inlet 7: number of rows;
#X obj 746 170 r \$0-columns;
#X obj 172 403 +~;
#X obj 52 403 +~;
#X obj 52 269 +~;
#X obj 172 269 +~;
#X obj 241 413 loadbang;
#X msg 241 433 1;
#X obj 102 433 r \$0-set;
#X obj 282 591 *~;
#X obj 372 591 *~;
#X obj 122 539 r \$0-set;
#X obj 72 565 tabread4~ \$1;
#X obj 192 565 tabread4~ \$1;
#X obj 261 519 loadbang;
#X msg 261 539 1;
#X obj 282 695 *~;
#X obj 372 695 *~;
#X obj 52 669 tabread4~ \$1;
#X obj 172 669 tabread4~ \$1;
#X obj 511 617 *~;
#X obj 576 721 *~;
#X obj 241 623 loadbang;
#X msg 241 643 1;
#X obj 102 643 r \$0-set;
#X text 1081 446 Inlet 8: number of columns;
#X text 776 225 <- column size in samples;
#X text 1131 555 <- default columns;
#X obj 1081 601 s \$0-columns;
#X obj 1101 513 f \$4;
#X msg 1101 555 2;
#X connect 0 0 24 0;
#X connect 0 0 25 0;
#X connect 1 0 7 0;
#X connect 1 0 17 0;
#X connect 2 0 3 0;
#X connect 3 0 4 0;
#X connect 4 0 5 1;
#X connect 4 0 48 1;
#X connect 4 0 95 1;
#X connect 4 0 102 1;
#X connect 5 0 58 0;
#X connect 6 0 58 0;
#X connect 7 0 17 1;
#X connect 7 0 6 1;
#X connect 7 0 4 1;
#X connect 7 0 49 1;
#X connect 7 0 96 1;
#X connect 7 0 103 1;
#X connect 9 0 34 0;
#X connect 10 0 18 0;
#X connect 10 0 19 0;
#X connect 11 0 12 0;
#X connect 16 0 23 0;
#X connect 17 0 16 0;
#X connect 17 0 22 0;
#X connect 18 0 5 0;
#X connect 19 0 6 0;
#X connect 20 0 24 1;
#X connect 20 0 25 1;
#X connect 20 0 21 0;
#X connect 21 0 23 1;
#X connect 21 0 22 1;
#X connect 21 0 56 0;
#X connect 22 0 46 1;
#X connect 23 0 47 1;
#X connect 24 0 47 0;
#X connect 25 0 46 0;
#X connect 27 0 28 0;
#X connect 28 0 19 1;
#X connect 28 0 18 1;
#X connect 29 0 30 0;
#X connect 30 0 31 0;
#X connect 31 0 32 0;
#X connect 31 1 12 0;
#X connect 32 0 12 0;
#X connect 34 0 13 0;
#X connect 36 0 37 0;
#X connect 36 0 38 0;
#X connect 37 0 38 1;
#X connect 37 0 64 1;
#X connect 37 0 59 1;
#X connect 37 0 107 1;
#X connect 38 0 52 0;
#X connect 38 0 53 0;
#X connect 39 0 54 0;
#X connect 40 0 43 0;
#X connect 41 0 42 0;
#X connect 41 1 54 0;
#X connect 42 0 54 0;
#X connect 43 0 41 0;
#X connect 46 0 90 0;
#X connect 46 0 89 0;
#X connect 47 0 91 0;
#X connect 47 0 88 0;
#X connect 48 0 59 0;
#X connect 49 0 59 0;
#X connect 50 0 48 0;
#X connect 51 0 49 0;
#X connect 52 0 60 0;
#X connect 53 0 90 1;
#X connect 53 0 91 1;
#X connect 55 0 57 0;
#X connect 56 0 57 0;
#X connect 56 1 57 1;
#X connect 57 0 53 1;
#X connect 57 0 60 1;
#X connect 57 0 75 0;
#X connect 58 0 77 0;
#X connect 59 0 77 0;
#X connect 60 0 88 1;
#X connect 60 0 89 1;
#X connect 62 0 63 0;
#X connect 63 0 64 0;
#X connect 64 0 58 1;
#X connect 64 0 106 1;
#X connect 67 0 114 0;
#X connect 68 0 115 0;
#X connect 69 0 116 0;
#X connect 69 1 114 0;
#X connect 70 0 71 0;
#X connect 70 0 72 0;
#X connect 71 0 72 1;
#X connect 71 0 82 1;
#X connect 71 0 78 1;
#X connect 72 0 73 0;
#X connect 72 0 74 0;
#X connect 73 0 79 0;
#X connect 74 0 19 0;
#X connect 74 0 18 0;
#X connect 74 0 51 0;
#X connect 74 0 50 0;
#X connect 75 0 76 0;
#X connect 75 1 76 1;
#X connect 76 0 74 1;
#X connect 76 0 79 1;
#X connect 77 0 8 0;
#X connect 78 0 8 0;
#X connect 79 0 99 0;
#X connect 79 0 98 0;
#X connect 79 0 105 0;
#X connect 79 0 104 0;
#X connect 80 0 81 0;
#X connect 81 0 82 0;
#X connect 82 0 77 1;
#X connect 87 0 76 0;
#X connect 88 0 51 0;
#X connect 88 0 105 0;
#X connect 89 0 50 0;
#X connect 89 0 104 0;
#X connect 90 0 18 0;
#X connect 90 0 98 0;
#X connect 91 0 19 0;
#X connect 91 0 99 0;
#X connect 92 0 93 0;
#X connect 93 0 51 1;
#X connect 93 0 50 1;
#X connect 94 0 50 0;
#X connect 94 0 51 0;
#X connect 95 0 106 0;
#X connect 96 0 106 0;
#X connect 97 0 98 0;
#X connect 97 0 99 0;
#X connect 98 0 95 0;
#X connect 99 0 96 0;
#X connect 100 0 101 0;
#X connect 101 0 99 1;
#X connect 101 0 98 1;
#X connect 102 0 107 0;
#X connect 103 0 107 0;
#X connect 104 0 102 0;
#X connect 105 0 103 0;
#X connect 106 0 78 0;
#X connect 107 0 78 0;
#X connect 108 0 109 0;
#X connect 109 0 105 1;
#X connect 109 0 104 1;
#X connect 110 0 104 0;
#X connect 110 0 105 0;
#X connect 115 0 69 0;
#X connect 116 0 114 0;
