#N canvas 416 466 837 433 10;
#X obj 12 31 inlet~;
#X obj 132 31 inlet~;
#X obj 297 238 loadbang;
#X msg 297 259 1;
#X obj 297 280 -~;
#X obj 282 345 *~;
#X obj 372 345 *~;
#X obj 312 62 wrap~;
#X obj 372 381 outlet~;
#X obj 412 31 inlet;
#X obj 72 244 r \$0-set;
#X obj 602 31 inlet;
#X obj 602 166 s \$0-size;
#X obj 412 73 s \$0-set;
#X text 372 401 Outlet 1: Wavetable output;
#X text 12 11 Inlet 1: Phasor;
#X obj 212 104 +~ 1;
#X obj 92 78 -~;
#X obj 12 309 tabread4~ \$1;
#X obj 132 309 tabread4~ \$1;
#X obj 147 123 r \$0-size;
#X obj 227 161 + 3;
#X obj 92 197 *~;
#X obj 212 197 *~;
#X obj 132 159 *~;
#X obj 12 159 *~;
#X text 122 78 <- truncate;
#X obj 201 252 loadbang;
#X msg 201 272 1;
#X text 201 232 // onset;
#X text 257 161 <- account guard points in position;
#X text 242 104 <- next frame loaded;
#X obj 622 57 loadbang;
#X obj 622 78 f \$2;
#X obj 622 99 select 0;
#X msg 622 120 256;
#X text 652 120 <- default waveform size;
#X msg 412 52 set \$1;
#X text 132 11 Inlet 2: Position;
#X text 412 11 Inlet 3: Set Array;
#X text 602 11 Inlet 4: waveform size in samples;
#X text 402 345 <- ping pong crossfader;
#X connect 0 0 24 0;
#X connect 0 0 25 0;
#X connect 1 0 7 0;
#X connect 1 0 17 0;
#X connect 2 0 3 0;
#X connect 3 0 4 0;
#X connect 4 0 5 1;
#X connect 5 0 8 0;
#X connect 6 0 8 0;
#X connect 7 0 6 1;
#X connect 7 0 4 1;
#X connect 7 0 17 1;
#X connect 9 0 37 0;
#X connect 10 0 18 0;
#X connect 10 0 19 0;
#X connect 11 0 12 0;
#X connect 16 0 23 0;
#X connect 17 0 16 0;
#X connect 17 0 22 0;
#X connect 18 0 5 0;
#X connect 19 0 6 0;
#X connect 20 0 24 1;
#X connect 20 0 25 1;
#X connect 20 0 21 0;
#X connect 21 0 23 1;
#X connect 21 0 22 1;
#X connect 22 0 18 0;
#X connect 23 0 19 0;
#X connect 24 0 19 0;
#X connect 25 0 18 0;
#X connect 27 0 28 0;
#X connect 28 0 19 1;
#X connect 28 0 18 1;
#X connect 32 0 33 0;
#X connect 33 0 34 0;
#X connect 34 0 35 0;
#X connect 34 1 12 0;
#X connect 35 0 12 0;
#X connect 37 0 13 0;
