#N canvas 0 22 1280 756 10;
#X obj 367 453 hsl 101 16 0 1 0 0 empty empty VOLUME 0 9 0 12 #00fc04
#000000 #000000 0 1;
#X obj 349 542 *~;
#X obj 349 578 dac~ 1 2;
#X obj 364 474 pow 4;
#X obj 364 516 line~;
#X obj 89 320 phasor~;
#X obj 364 495 pack f 20;
#N canvas 694 330 450 220 oscilloscope 0;
#N canvas 0 22 450 278 (subpatch) 0;
#X array \$0-scope 441 float 0;
#X coords 0 1 440 -1 100 70 1 0 0;
#X restore 20 45 graph;
#X obj 150 112 tabwrite~ \$0-scope;
#X obj 150 20 inlet~;
#X obj 210 20 loadbang;
#X msg 210 41 1;
#X obj 210 62 metro 100;
#X connect 2 0 1 0;
#X connect 3 0 4 0;
#X connect 4 0 5 0;
#X connect 5 0 1 0;
#X coords 0 -1 1 1 120 115 1 10 10;
#X restore 491 443 pd oscilloscope;
#X obj 349 386 os.wavetable2d~ \$0-wavetable 256 8;
#X obj 617 29 tgl 16 1 empty empty PLAY 17 7 0 10 #00faff #000000 #000000
0 1;
#X obj 266 73 random 100;
#X obj 266 115 sel 1;
#X obj 266 141 bng 15 100 50 0 empty empty empty 17 7 0 10 #00ff04
#000000 #000000;
#X obj 349 224 *~;
#X obj 349 271 +~;
#X obj 349 292 clip~ 0 7;
#X obj 533 235 -~ 0.5;
#X obj 533 256 abs~;
#X obj 533 277 *~ 2;
#X obj 533 298 *~ 7;
#X obj 349 203 vline~;
#X msg 349 182 1 1 \, 0 150 1;
#X obj 637 458 loadbang;
#X obj 677 479 array define \$0-wavetable;
#X obj 637 479 f \$0;
#X obj 637 521 soundfiler;
#X floatatom 637 542 5 0 0 0 - - - 0;
#X msg 637 500 read -resize ./2d-phase-modulation.wav \$1-wavetable
;
#X obj 393 209 random 7;
#X obj 89 256 sig~;
#X obj 89 277 +~;
#X obj 89 298 mtof~;
#X obj 159 115 random 100;
#X obj 159 157 sel 1;
#X obj 159 178 bng 15 100 50 0 empty empty empty 17 7 0 10 #00ff04
#000000 #000000;
#X obj 159 219 line~;
#X obj 159 240 pow~ 6;
#X obj 349 427 *~;
#X msg 617 390 1 1 \, 0 250 1;
#X obj 617 411 vline~;
#X obj 159 261 *~ 12;
#X obj 266 370 wrap~;
#X obj 617 365 bng 15 100 50 0 empty empty empty 17 7 0 10 #00ff04
#000000 #000000;
#X obj 349 245 *~;
#X obj 463 193 random 7;
#X msg 463 234 \$1 1;
#X obj 463 255 line~;
#X obj 89 214 + 24;
#X obj 89 193 random 24;
#X obj 266 285 mtof;
#X obj 266 326 osc~;
#X obj 266 347 *~ 0.01;
#X obj 266 264 random 69;
#X obj 424 156 t b b b;
#X obj 533 148 * 0.1;
#X obj 533 127 random 11;
#X text 637 438 // Load Adapted pd wavetable at startup;
#X text 266 244 // Phase mod.;
#X text 424 136 // ENV->X Pos.;
#X text 543 194 Triangle LFO scanning Y;
#X obj 533 214 phasor~;
#X floatatom 533 169 5 0 0 0 - - - 0;
#X floatatom 393 230 5 0 0 0 - - - 0;
#X floatatom 463 214 5 0 0 0 - - - 0;
#X floatatom 266 306 5 0 0 0 - - - 0;
#X obj 39 85 random 100;
#X obj 39 127 select 0 1;
#X obj 39 148 bng 15 250 50 0 empty empty empty 17 7 0 10 #00ff04 #000000
#000000;
#X obj 159 136 > 50;
#X obj 69 148 bng 15 250 50 0 empty empty empty 17 7 0 10 #00ff04 #000000
#000000;
#X obj 39 168 random 200;
#X msg 159 198 1 \, 0 50;
#X obj 39 106 > 30;
#X floatatom 89 235 5 0 0 0 - - - 0;
#X text 159 95 // Pitch Bend;
#X text 31 41 In this demo \, we are using several modulation sources
to scan X and Y with a Pd ready phase modulation wavetable.;
#X obj 617 55 metro 100;
#X obj 266 94 < 50;
#X connect 0 0 3 0;
#X connect 1 0 2 0;
#X connect 1 0 2 1;
#X connect 3 0 6 0;
#X connect 4 0 1 1;
#X connect 5 0 41 0;
#X connect 6 0 4 0;
#X connect 8 0 37 0;
#X connect 9 0 76 0;
#X connect 10 0 77 0;
#X connect 11 0 12 0;
#X connect 12 0 32 0;
#X connect 12 0 53 0;
#X connect 12 0 52 0;
#X connect 12 0 55 0;
#X connect 12 0 65 0;
#X connect 13 0 43 0;
#X connect 14 0 15 0;
#X connect 15 0 8 1;
#X connect 16 0 17 0;
#X connect 17 0 18 0;
#X connect 18 0 19 0;
#X connect 19 0 8 2;
#X connect 20 0 13 0;
#X connect 20 0 13 1;
#X connect 21 0 20 0;
#X connect 22 0 24 0;
#X connect 24 0 27 0;
#X connect 25 0 26 0;
#X connect 27 0 25 0;
#X connect 28 0 62 0;
#X connect 29 0 30 0;
#X connect 30 0 31 0;
#X connect 31 0 5 0;
#X connect 32 0 68 0;
#X connect 33 0 34 0;
#X connect 34 0 71 0;
#X connect 35 0 36 0;
#X connect 36 0 40 0;
#X connect 37 0 7 0;
#X connect 37 0 1 0;
#X connect 38 0 39 0;
#X connect 39 0 37 1;
#X connect 40 0 30 1;
#X connect 41 0 8 0;
#X connect 42 0 38 0;
#X connect 43 0 14 0;
#X connect 44 0 63 0;
#X connect 45 0 46 0;
#X connect 46 0 14 1;
#X connect 47 0 73 0;
#X connect 48 0 47 0;
#X connect 49 0 64 0;
#X connect 50 0 51 0;
#X connect 51 0 41 0;
#X connect 52 0 49 0;
#X connect 53 0 21 0;
#X connect 53 1 28 0;
#X connect 53 2 44 0;
#X connect 54 0 61 0;
#X connect 55 0 54 0;
#X connect 60 0 16 0;
#X connect 61 0 60 0;
#X connect 62 0 43 1;
#X connect 63 0 45 0;
#X connect 64 0 50 0;
#X connect 65 0 72 0;
#X connect 66 0 67 0;
#X connect 66 1 69 0;
#X connect 67 0 70 0;
#X connect 68 0 33 0;
#X connect 69 0 48 0;
#X connect 70 0 47 0;
#X connect 71 0 35 0;
#X connect 72 0 66 0;
#X connect 73 0 29 0;
#X connect 76 0 10 0;
#X connect 76 0 42 0;
#X connect 77 0 11 0;
