#N canvas 526 22 527 718 10;
#X obj 91 168 hsl 64 16 0 63 0 1 empty empty WAVETABLE-POSITION -2
-6 0 12 #00faff #000000 #000000 0 1;
#X obj 88 230 line~;
#X obj 47 322 hsl 101 16 0 1 0 0 empty empty VOLUME -2 -6 0 12 #00fc04
#000000 #000000 0 1;
#X obj 29 411 *~;
#X obj 29 447 dac~ 1 2;
#X obj 44 343 pow 4;
#X obj 44 385 line~;
#X obj 29 124 mtof;
#X floatatom 29 145 5 0 0 0 - - - 0;
#X floatatom 88 189 5 0 0 0 - - - 0;
#X obj 206 230 r \$0-size;
#X obj 99 103 nbx 4 16 2 4096 0 1 empty empty Waveform\\\ size\\\ in\\\ samples
0 -8 0 10 #00faff #000000 #000000 256 256;
#X obj 29 170 phasor~;
#X obj 29 103 nbx 4 16 0 127 0 1 empty empty MIDI 0 -8 0 10 #00faff
#000000 #000000 69 256;
#X msg 88 209 \$1 250;
#X obj 259 103 bng 16 250 50 0 empty empty Open\\\ File 0 -8 0 10 #00faff
#000000 #000000;
#X obj 44 364 pack f 20;
#N canvas 694 330 450 220 oscilloscope 0;
#N canvas 0 22 450 278 (subpatch) 0;
#X array \$0-scope 441 float 0;
#X coords 0 1 440 -1 100 70 1 0 0;
#X restore 20 45 graph;
#X obj 150 112 tabwrite~ \$0-scope;
#X obj 150 20 inlet~;
#X obj 210 20 loadbang;
#X msg 210 41 1;
#X obj 210 62 metro 100;
#X connect 2 0 1 0;
#X connect 3 0 4 0;
#X connect 4 0 5 0;
#X connect 5 0 1 0;
#X coords 0 -1 1 1 120 115 1 10 10;
#X restore 211 292 pd oscilloscope;
#X text 27 46 [os.wavetable~] is a wavetable scanner for one dimensional
wavetable files.;
#X obj 259 124 s \$0-open;
#X obj 29 256 os.wavetable~ \$0-wavetable 256;
#X obj 99 124 s \$0-size;
#X obj 11 11 cnv 5 5 24 empty empty One\\\ dimensional\\\ wavetable\\\ scanner
12 12 0 16 #000000 #000000 0;
#X obj 11 481 cnv 5 490 5 empty empty INLETS: 8 18 0 13 #202020 #000000
0;
#X obj 11 681 cnv 5 490 5 empty empty empty 8 18 0 13 #202020 #000000
0;
#X obj 11 587 cnv 2 490 2 empty empty OUTLETS: 8 12 0 13 #202020 #000000
0;
#X text 107 501 1) signal - signal input;
#X obj 11 627 cnv 2 490 2 empty empty ARGUMENTS: 8 12 0 13 #202020
#000000 0;
#N canvas 893 534 387 201 reference 0;
#X text 9 41 https://github.com/dotmmb/mmb;
#X text 9 11 Taken from Mike Moser-Booth's bl-oscillator abstractions
from the mmb library.;
#X restore 17 695 pd reference;
#X text 107 521 2) float/signal - wavetable position (from 0 to n)
;
#X text 107 541 3) symbol - set wavetable array;
#X text 107 601 1) signal - wavetable output;
#X text 107 641 1) wavetable array;
#X text 107 661 2) frame size in samples (default 256);
#X text 107 561 4) float - set frame size in samples (default 256)
;
#N canvas 290 22 753 736 how-to-import-external-wavetables 0;
#X obj 454 386 soundfiler;
#X floatatom 454 407 7 0 0 0 - - - 0;
#X obj 70 352 t b b;
#X obj 12 399 until;
#X obj 82 420 i;
#X obj 112 420 + 1;
#X msg 97 385 0;
#X obj 82 591 array get \$0-buffer;
#X obj 434 599 array size \$0-wavetable;
#X obj 82 461 t f f;
#X obj 171 690 array set \$0-wavetable;
#X obj 454 344 list append \$0;
#X obj 82 612 t l l;
#X obj 82 664 list append;
#X obj 250 476 + 3;
#X obj 250 455 r \$0-size;
#X obj 82 565 pack f f;
#X msg 145 638 \$1 \$2 \$3;
#X obj 434 573 *;
#X obj 454 448 /;
#X obj 454 489 v \$0-frames;
#X obj 12 378 v \$0-frames;
#X obj 434 547 v \$0-frames;
#X obj 82 544 *;
#X obj 100 497 r \$0-size;
#X obj 100 518 t f f;
#X obj 235 497 *;
#X obj 469 427 r \$0-size;
#X floatatom 454 469 5 0 0 0 - - - 0;
#X obj 415 318 t b b s;
#X text 494 469 <- number of frames in file;
#X text 474 324 // load file to buffer array;
#X text 162 664 <- append last three samples from waveform;
#X obj 514 557 + 3;
#X obj 514 536 r \$0-size;
#X text 444 516 Resize array considering the guard points;
#X text 210 435 Onset to write to (next frame);
#X text 142 354 | \; | \; | \; | <- Count number of frames \; | \;
| \; | \;;
#X obj 242 256 loadbang;
#X msg 454 365 read -resize \$1 \$2-buffer;
#X msg 242 297 symbol ./PLAITS01.WAV;
#X text 202 524 | \; | \; | \; | <- get waveform from buffer array
\; | \; | \; | \;;
#X text 321 690 <- write adapted waveforms to wavetable array;
#X obj 415 271 r \$0-open;
#X obj 415 292 openpanel;
#X text 12 44 Usually the frames of a wavetable have a size of 2^n
samples (256 \, 512 \, 1024). In order to reproduce them correctly
\, the size should be 2^n + 3 to account for the 4 point interpolation
used by [tabread4~]. These three extra points \, which are also called
"guard points" \, can be injected by appending the last three samples
of the waveform into each frame.;
#X text 475 292 <- get file directory;
#X obj 405 71 array define \$0-wavetable;
#X obj 405 31 array define \$0-buffer;
#X text 405 11 Original wavetable goes here;
#X text 405 51 Adapted wavetable goes here;
#X text 504 405 <- number of samples;
#X obj 12 258 pdcontrol;
#X msg 32 232 browse https://www.kimurataro.com/free-wavetables.html
;
#X msg 12 212 browse https://waveeditonline.com/;
#X text 12 192 Free \, open-source wavetables;
#X text 12 12 To import an external wavetable it must be adapted for
Pd using the following code:;
#X obj 242 277 del 0;
#X text 12 134 To avoid doing this process everytime \, export the
adapted pd wavetable version into a wave file and load it into an array.
;
#X symbolatom 438 147 20 0 0 0 - - - 0;
#X obj 405 121 bng 16 250 50 0 empty empty Write\\\ Pd\\\ wavetable\\\ to\\\ wav
0 -8 0 10 #ff0400 #000000 #000000;
#X obj 405 230 soundfiler;
#X obj 405 188 pack s \$0;
#X obj 405 167 symbol;
#X text 438 127 Wavetable name;
#X msg 405 209 write -wave ./\$1 \$2-wavetable;
#X obj 581 112 loadbang;
#X msg 581 132 symbol pd-wavetable;
#X connect 0 0 1 0;
#X connect 1 0 19 0;
#X connect 2 0 21 0;
#X connect 2 1 6 0;
#X connect 3 0 4 0;
#X connect 4 0 5 0;
#X connect 4 0 9 0;
#X connect 5 0 4 1;
#X connect 6 0 4 1;
#X connect 7 0 12 0;
#X connect 9 0 23 0;
#X connect 9 1 26 0;
#X connect 11 0 39 0;
#X connect 12 0 13 0;
#X connect 12 1 17 0;
#X connect 13 0 10 0;
#X connect 14 0 26 1;
#X connect 15 0 14 0;
#X connect 16 0 7 0;
#X connect 17 0 13 1;
#X connect 18 0 8 0;
#X connect 19 0 28 0;
#X connect 21 0 3 0;
#X connect 22 0 18 0;
#X connect 23 0 16 0;
#X connect 24 0 25 0;
#X connect 25 0 23 1;
#X connect 25 1 16 1;
#X connect 26 0 10 1;
#X connect 27 0 19 1;
#X connect 28 0 20 0;
#X connect 29 0 2 0;
#X connect 29 1 22 0;
#X connect 29 2 11 0;
#X connect 33 0 18 1;
#X connect 34 0 33 0;
#X connect 38 0 57 0;
#X connect 39 0 0 0;
#X connect 40 0 29 0;
#X connect 43 0 44 0;
#X connect 44 0 29 0;
#X connect 53 0 52 0;
#X connect 54 0 52 0;
#X connect 57 0 40 0;
#X connect 59 0 63 1;
#X connect 60 0 63 0;
#X connect 62 0 65 0;
#X connect 63 0 62 0;
#X connect 65 0 61 0;
#X connect 66 0 67 0;
#X connect 67 0 59 0;
#X restore 279 431 pd how-to-import-external-wavetables;
#N canvas 105 82 969 530 how-to-generate-wavetables 0;
#X obj 53 199 cnv 15 450 90 empty empty empty 20 12 0 14 #dfdfdf #404040
0;
#X obj 62 221 bng 16 250 50 0 \$0-generate-s \$0-generate-r Generate
0 -8 0 10 #00ff04 #000000 #000000;
#X obj 122 221 nbx 5 16 3 13 0 1 \$0-genSize-s \$0-genSize-r Size: 256 samples
0 -8 0 10 #000000 #ffffff #000000 8 256;
#X msg 746 103 2 \$1;
#X obj 746 124 pow;
#X obj 332 221 bng 16 250 50 0 \$0-writeWavetable-s \$0-writeWavetable-r
Write\\\ wavetable\\\ to\\\ wav 0 -8 0 10 #ff0400 #000000 #000000;
#X obj 122 256 nbx 5 16 1 127 0 1 \$0-frames-s \$0-frames-r Frames
0 -8 0 10 #000000 #ffffff #000000 64 256;
#X msg 773 166 label Size: \$1 samples;
#X text 746 62 GUI:Size:nbx;
#X obj 621 214 r \$0-frames-s;
#X obj 621 307 *;
#X obj 646 281 t b f;
#X obj 183 256 cnv 16 130 16 empty \$0-displayTotal Total: 16576 samples
2 8 0 10 #000000 #00ff04 0;
#X obj 583 418 s \$0-displayTotal;
#X msg 583 397 label Total: \$1 samples;
#X obj 60 152 tgl 16 0 empty empty empty 17 7 0 10 #00faff #000000
#000000 0 1;
#X obj 556 449 array size \$0-wavetable;
#N canvas 315 22 772 756 HarmonicSeries 0;
#X obj 312 341 until;
#X obj 430 367 + 1;
#X msg 415 289 0;
#X obj 344 393 t f f;
#X obj 368 186 until;
#X obj 500 212 + 1;
#X msg 485 160 0;
#X obj 458 134 t b b;
#X obj 470 212 i;
#X obj 332 289 v \$0-size;
#X obj 400 367 i;
#X obj 368 160 v \$0-frames-s;
#X text 128 10 GUI:Generate:bang;
#X obj 509 554 +;
#X obj 386 543 sin;
#X obj 524 528 *;
#X obj 332 315 t f f;
#X obj 344 445 /;
#X obj 128 97 spigot;
#X obj 161 76 inlet;
#X obj 401 451 + 1;
#X obj 388 263 t b b;
#X obj 470 237 t b f;
#X obj 497 413 t f f;
#X text 161 56 Inlet 1: Render: on/off;
#X text 554 538 <- onset to next frame;
#X text 530 212 <- counter for frames;
#X text 460 367 <- counter for waveform size in samples;
#X text 236 477 frame # = harmonic # ->;
#X text 164 425 linear phase from 0 to 1 ->;
#X text 256 543 sinewave function ->;
#X text 188 160 Retrieve number of frames ->;
#X text 142 288 Retrieve number of samples ->;
#X text 445 289 <- Reset counter;
#X text 515 160 <- Reset counter;
#X obj 359 419 - 0;
#X obj 386 477 * 1;
#X obj 551 502 r \$0-size;
#X obj 128 30 r \$0-generate;
#X obj 386 503 * 6.28319;
#X text 326 503 two pi ->;
#X obj 128 118 t b b;
#X obj 56 483 t b b;
#X obj 56 525 until;
#X obj 86 576 i;
#X obj 116 576 + 1;
#X msg 101 541 0;
#X obj 36 669 array get \$0-buffer;
#X obj 36 597 t f f;
#X obj 56 781 array set \$0-wavetable;
#X obj 36 690 t l l;
#X obj 36 751 list append;
#X msg 77 716 \$1 \$2 \$3;
#X obj 128 457 t b b;
#X obj 56 504 v \$0-frames-s;
#X obj 36 648 pack f f;
#X obj 36 627 *;
#X obj 155 564 v \$0-size;
#X obj 189 610 + 3;
#X obj 174 748 *;
#X obj 155 585 t f f;
#X obj 117 611 t f f;
#X text 225 738 <- Append the first three samples to the end of each
frame = proper interpolation reading of each frame without clicks.
;
#X obj 386 580 tabwrite \$0-buffer;
#X connect 0 0 10 0;
#X connect 1 0 10 1;
#X connect 2 0 10 1;
#X connect 3 0 17 0;
#X connect 3 1 13 0;
#X connect 4 0 8 0;
#X connect 5 0 8 1;
#X connect 6 0 8 1;
#X connect 7 0 11 0;
#X connect 7 1 6 0;
#X connect 8 0 5 0;
#X connect 8 0 22 0;
#X connect 9 0 16 0;
#X connect 10 0 1 0;
#X connect 10 0 3 0;
#X connect 11 0 4 0;
#X connect 13 0 63 1;
#X connect 14 0 63 0;
#X connect 15 0 13 1;
#X connect 16 0 0 0;
#X connect 16 1 35 0;
#X connect 17 0 36 0;
#X connect 18 0 41 0;
#X connect 19 0 18 1;
#X connect 20 0 36 1;
#X connect 21 0 9 0;
#X connect 21 1 2 0;
#X connect 22 0 21 0;
#X connect 22 1 23 0;
#X connect 23 0 20 0;
#X connect 23 1 15 0;
#X connect 35 0 17 1;
#X connect 36 0 39 0;
#X connect 37 0 15 1;
#X connect 38 0 18 0;
#X connect 39 0 14 0;
#X connect 41 0 53 0;
#X connect 41 1 7 0;
#X connect 42 0 54 0;
#X connect 42 1 46 0;
#X connect 43 0 44 0;
#X connect 44 0 45 0;
#X connect 44 0 48 0;
#X connect 45 0 44 1;
#X connect 46 0 44 1;
#X connect 47 0 50 0;
#X connect 48 0 56 0;
#X connect 48 1 59 0;
#X connect 50 0 51 0;
#X connect 50 1 52 0;
#X connect 51 0 49 0;
#X connect 52 0 51 1;
#X connect 53 0 42 0;
#X connect 53 1 57 0;
#X connect 54 0 43 0;
#X connect 55 0 47 0;
#X connect 56 0 55 0;
#X connect 57 0 60 0;
#X connect 58 0 59 1;
#X connect 59 0 49 1;
#X connect 60 0 61 0;
#X connect 60 1 58 0;
#X connect 61 0 56 1;
#X connect 61 1 55 1;
#X restore 60 174 pd HarmonicSeries;
#X obj 180 152 tgl 16 0 empty empty empty 17 7 0 10 #00faff #000000
#000000 0 1;
#N canvas 425 91 770 891 PhaseModulation 0;
#X obj 312 341 until;
#X obj 430 367 + 1;
#X msg 415 289 0;
#X obj 344 393 t f f;
#X obj 368 186 until;
#X obj 500 212 + 1;
#X msg 485 160 0;
#X obj 458 134 t b b;
#X obj 470 212 i;
#X obj 332 289 v \$0-size;
#X obj 400 367 i;
#X obj 368 160 v \$0-frames-s;
#X obj 509 654 +;
#X obj 344 643 sin;
#X obj 524 628 *;
#X obj 332 315 t f f;
#X obj 344 445 /;
#X obj 344 617 * 6.28319;
#X obj 388 263 t b b;
#X obj 470 237 t b f;
#X text 554 638 <- onset to next frame;
#X text 530 212 <- counter for frames;
#X text 460 367 <- counter for waveform size in samples;
#X text 164 425 linear phase from 0 to 1 ->;
#X text 214 643 sinewave function ->;
#X text 188 160 Retrieve number of frames ->;
#X text 142 288 Retrieve number of samples ->;
#X text 445 289 <- Reset counter;
#X text 515 160 <- Reset counter;
#X obj 359 419 - 0;
#X text 274 617 two pi ->;
#X obj 344 466 t f f;
#X obj 389 539 sin;
#X obj 389 513 * 6.28319;
#X obj 344 591 +;
#X obj 389 565 *;
#X text 419 487 <- Ratio;
#X text 274 587 Carrier ––;
#X text 389 467 Modulator ––;
#X obj 497 414 t f f;
#X text 527 539 <- Modulation sweep amount;
#X obj 524 586 t f b;
#X obj 551 607 v \$0-size;
#X obj 497 476 t f b;
#X obj 524 497 v \$0-frames-s;
#X obj 497 518 /;
#X text 128 10 GUI:Generate:bang;
#X obj 128 97 spigot;
#X obj 161 76 inlet;
#X text 161 56 Inlet 1: Render: on/off;
#X obj 128 30 r \$0-generate;
#X obj 128 118 t b b;
#X obj 386 680 tabwrite \$0-buffer;
#X obj 56 483 t b b;
#X obj 56 525 until;
#X obj 86 576 i;
#X obj 116 576 + 1;
#X msg 101 541 0;
#X obj 36 669 array get \$0-buffer;
#X obj 36 597 t f f;
#X obj 56 781 array set \$0-wavetable;
#X obj 36 690 t l l;
#X obj 36 751 list append;
#X msg 77 716 \$1 \$2 \$3;
#X obj 497 539 * 2;
#X obj 128 457 t b b;
#X obj 56 504 v \$0-frames-s;
#X obj 36 648 pack f f;
#X obj 36 627 *;
#X obj 155 564 v \$0-size;
#X obj 189 610 + 3;
#X obj 174 748 *;
#X obj 155 585 t f f;
#X obj 117 611 t f f;
#X text 225 738 <- Append the first three samples to the end of each
frame = proper interpolation reading of each frame without clicks.
;
#X obj 389 487 * 3;
#X connect 0 0 10 0;
#X connect 1 0 10 1;
#X connect 2 0 10 1;
#X connect 3 0 16 0;
#X connect 3 1 12 0;
#X connect 4 0 8 0;
#X connect 5 0 8 1;
#X connect 6 0 8 1;
#X connect 7 0 11 0;
#X connect 7 1 6 0;
#X connect 8 0 5 0;
#X connect 8 0 19 0;
#X connect 9 0 15 0;
#X connect 10 0 1 0;
#X connect 10 0 3 0;
#X connect 11 0 4 0;
#X connect 12 0 52 1;
#X connect 13 0 52 0;
#X connect 14 0 12 1;
#X connect 15 0 0 0;
#X connect 15 1 29 0;
#X connect 16 0 31 0;
#X connect 17 0 13 0;
#X connect 18 0 9 0;
#X connect 18 1 2 0;
#X connect 19 0 18 0;
#X connect 19 1 39 0;
#X connect 29 0 16 1;
#X connect 31 0 34 0;
#X connect 31 1 75 0;
#X connect 32 0 35 0;
#X connect 33 0 32 0;
#X connect 34 0 17 0;
#X connect 35 0 34 1;
#X connect 39 0 43 0;
#X connect 39 1 41 0;
#X connect 41 0 14 0;
#X connect 41 1 42 0;
#X connect 42 0 14 1;
#X connect 43 0 45 0;
#X connect 43 1 44 0;
#X connect 44 0 45 1;
#X connect 45 0 64 0;
#X connect 47 0 51 0;
#X connect 48 0 47 1;
#X connect 50 0 47 0;
#X connect 51 0 65 0;
#X connect 51 1 7 0;
#X connect 53 0 66 0;
#X connect 53 1 57 0;
#X connect 54 0 55 0;
#X connect 55 0 56 0;
#X connect 55 0 59 0;
#X connect 56 0 55 1;
#X connect 57 0 55 1;
#X connect 58 0 61 0;
#X connect 59 0 68 0;
#X connect 59 1 71 0;
#X connect 61 0 62 0;
#X connect 61 1 63 0;
#X connect 62 0 60 0;
#X connect 63 0 62 1;
#X connect 64 0 35 1;
#X connect 65 0 53 0;
#X connect 65 1 69 0;
#X connect 66 0 54 0;
#X connect 67 0 58 0;
#X connect 68 0 67 0;
#X connect 69 0 72 0;
#X connect 70 0 71 1;
#X connect 71 0 60 1;
#X connect 72 0 73 0;
#X connect 72 1 70 0;
#X connect 73 0 68 1;
#X connect 73 1 67 1;
#X connect 75 0 33 0;
#X restore 180 174 pd PhaseModulation;
#X obj 537 155 r \$0-generate-s;
#X text 537 135 GUI:Generate:bang;
#X obj 539 475 s \$0-generate;
#X obj 646 260 + 3;
#X obj 300 152 tgl 16 0 empty empty empty 17 7 0 10 #00faff #000000
#000000 0 1;
#X obj 556 364 f;
#X obj 776 291 r \$0-size;
#X obj 751 265 r \$0-frames-s;
#X obj 751 338 *;
#X obj 776 312 t b f;
#X obj 746 385 array size \$0-buffer;
#N canvas 275 22 1005 756 AdditiveSinesum 0;
#X text 128 10 GUI:Generate:bang;
#X obj 128 97 spigot;
#X obj 161 76 inlet;
#X text 161 56 Inlet 1: Render: on/off;
#X obj 128 30 r \$0-generate;
#X obj 128 118 t b b;
#X obj 372 196 until;
#X obj 426 380 list prepend;
#X obj 512 380 t l;
#X msg 426 333 1 \$1;
#X obj 426 354 /;
#X obj 372 219 i;
#X obj 402 219 + 1;
#X msg 417 197 0;
#X obj 426 312 + 1;
#X obj 372 245 t f f;
#X obj 426 469 list trim;
#X obj 399 271 t b f;
#X msg 399 495 normalize 1;
#X obj 372 170 v \$0-frames-s;
#X text 462 170 <- render number of frames;
#X text 462 150 GUI:Frames:nbx;
#X obj 372 134 t b b b;
#X text 536 380 <- concatenate amplitudes into list;
#X text 456 312 <- harmonic number;
#X text 466 343 <- sawtooth formula: harmonic amplitude = 1/harmonic
;
#X obj 426 448 list prepend;
#X obj 495 427 list prepend sinesum;
#X text 479 495 <- normalize waveform from -1 to 1;
#X text 625 427 <- Use sinesum function;
#X obj 247 396 *;
#X obj 495 406 r \$0-size;
#X text 277 396 <- onset to next frame;
#X text 432 219 <- Count up to number of frames;
#X text 456 292 Use this section to change your wavetable formula ––––
;
#X text 456 362 –––––––––––––––––––––––––––––––––––––––––––––––––––––
;
#X obj 262 370 v \$0-size;
#X obj 183 298 t b f b;
#X obj 183 422 array set \$0-buffer;
#X text 193 344 // Output list from additive array;
#X obj 387 87 array define \$0-additive;
#X obj 183 324 array get \$0-additive;
#X obj 128 497 t b b;
#X obj 70 544 until;
#X obj 140 565 i;
#X obj 170 565 + 1;
#X msg 155 530 0;
#X obj 140 736 array get \$0-buffer;
#X obj 140 606 t f f;
#X obj 229 835 array set \$0-wavetable;
#X obj 140 757 t l l;
#X obj 140 809 list append;
#X obj 308 621 + 3;
#X obj 308 600 r \$0-size;
#X obj 140 710 pack f f;
#X msg 203 783 \$1 \$2 \$3;
#X obj 140 689 *;
#X obj 158 642 r \$0-size;
#X obj 158 663 t f f;
#X obj 293 642 *;
#X text 220 809 <- append last three samples from waveform;
#X text 268 580 Onset to write to (next frame);
#X text 200 499 | \; | \; | \; | <- Count number of frames \; | \;
| \; | \;;
#X text 260 669 | \; | \; | \; | <- get waveform from buffer array
\; | \; | \; | \;;
#X text 379 835 <- write adapted waveforms to wavetable array;
#X text 183 442 // write waveform to buffer;
#X obj 70 523 v \$0-frames-s;
#X obj 399 516 s \$0-additive;
#X connect 1 0 5 0;
#X connect 2 0 1 1;
#X connect 4 0 1 0;
#X connect 5 0 42 0;
#X connect 5 1 22 0;
#X connect 6 0 11 0;
#X connect 7 0 8 0;
#X connect 7 0 26 0;
#X connect 8 0 7 1;
#X connect 9 0 10 0;
#X connect 10 0 7 0;
#X connect 11 0 12 0;
#X connect 11 0 15 0;
#X connect 12 0 11 1;
#X connect 13 0 11 1;
#X connect 14 0 9 0;
#X connect 15 0 37 0;
#X connect 15 1 17 0;
#X connect 16 0 67 0;
#X connect 17 0 18 0;
#X connect 17 1 14 0;
#X connect 18 0 67 0;
#X connect 19 0 6 0;
#X connect 22 0 19 0;
#X connect 22 1 13 0;
#X connect 22 2 7 1;
#X connect 26 0 16 0;
#X connect 27 0 26 1;
#X connect 30 0 38 1;
#X connect 31 0 27 0;
#X connect 36 0 30 1;
#X connect 37 0 41 0;
#X connect 37 1 30 0;
#X connect 37 2 36 0;
#X connect 41 0 38 0;
#X connect 42 0 66 0;
#X connect 42 1 46 0;
#X connect 43 0 44 0;
#X connect 44 0 45 0;
#X connect 44 0 48 0;
#X connect 45 0 44 1;
#X connect 46 0 44 1;
#X connect 47 0 50 0;
#X connect 48 0 56 0;
#X connect 48 1 59 0;
#X connect 50 0 51 0;
#X connect 50 1 55 0;
#X connect 51 0 49 0;
#X connect 52 0 59 1;
#X connect 53 0 52 0;
#X connect 54 0 47 0;
#X connect 55 0 51 1;
#X connect 56 0 54 0;
#X connect 57 0 58 0;
#X connect 58 0 56 1;
#X connect 58 1 54 1;
#X connect 59 0 49 1;
#X connect 66 0 43 0;
#X restore 300 174 pd AdditiveSinesum;
#X obj 746 82 r \$0-genSize-s;
#X obj 773 187 s \$0-genSize-r;
#X obj 646 239 r \$0-size;
#X obj 746 364 f;
#X obj 332 256 bng 16 250 50 0 \$0-writePdWavetable-s \$0-writePdWavetable-r
Write\\\ Pd\\\ wavetable\\\ to\\\ wav 0 -8 0 10 #ff0400 #000000 #000000
;
#X obj 537 176 t b b b;
#X obj 746 145 t f f;
#X obj 731 192 f;
#X obj 731 213 s \$0-size;
#X obj 556 338 t b b;
#X text 537 25 Change frame size \, resize buffer and wavetable arrays
and send a bang to generate the waveforms;
#X text 621 194 GUI:Frames:nbx;
#X text 751 245 GUI:Frames:nbx;
#X obj 621 328 t f f;
#X obj 53 456 soundfiler;
#X msg 53 362 write -wave ./pd-wavetable \$1-wavetable;
#X obj 53 320 r \$0-writePdWavetable-s;
#X obj 53 341 f \$0;
#X obj 83 409 f \$0;
#X obj 83 388 r \$0-writeWavetable-s;
#X msg 83 430 write -wave ./wavetable \$1-buffer;
#X text 53 300 GUI:writeWavetables:bang;
#X text 60 14 This subpatch shows how to generate our own wavetables
in both Pd format (with guard points) and external format (without
guard points).;
#X text 60 64 First select enable only one of the following toggles.
Then click on the "Generate" bang to generate the selected wavetable.
;
#X text 60 114 Open each subpatch to see how to generate each wavetable.
;
#X connect 3 0 4 0;
#X connect 4 0 38 0;
#X connect 7 0 33 0;
#X connect 9 0 10 0;
#X connect 10 0 45 0;
#X connect 11 0 10 0;
#X connect 11 1 10 1;
#X connect 14 0 13 0;
#X connect 15 0 17 0;
#X connect 18 0 19 0;
#X connect 20 0 37 0;
#X connect 23 0 11 0;
#X connect 24 0 31 0;
#X connect 25 0 16 0;
#X connect 26 0 29 0;
#X connect 27 0 28 0;
#X connect 28 0 35 1;
#X connect 29 0 28 0;
#X connect 29 1 28 1;
#X connect 32 0 3 0;
#X connect 34 0 23 0;
#X connect 35 0 30 0;
#X connect 37 0 22 0;
#X connect 37 1 41 0;
#X connect 37 2 39 0;
#X connect 38 0 39 1;
#X connect 38 1 7 0;
#X connect 39 0 40 0;
#X connect 41 0 25 0;
#X connect 41 1 35 0;
#X connect 45 0 25 1;
#X connect 45 1 14 0;
#X connect 47 0 46 0;
#X connect 48 0 49 0;
#X connect 49 0 47 0;
#X connect 50 0 52 0;
#X connect 51 0 50 0;
#X connect 52 0 46 0;
#X restore 279 452 pd how-to-generate-wavetables;
#X connect 0 0 9 0;
#X connect 1 0 20 1;
#X connect 2 0 5 0;
#X connect 3 0 4 0;
#X connect 3 0 4 1;
#X connect 5 0 16 0;
#X connect 6 0 3 1;
#X connect 7 0 8 0;
#X connect 8 0 12 0;
#X connect 9 0 14 0;
#X connect 10 0 20 3;
#X connect 11 0 21 0;
#X connect 12 0 20 0;
#X connect 13 0 7 0;
#X connect 14 0 1 0;
#X connect 15 0 19 0;
#X connect 16 0 6 0;
#X connect 20 0 3 0;
#X connect 20 0 17 0;
