#N canvas 52 216 1137 616 10;
#X obj 336 22 key;
#X floatatom 336 43 5 0 0 0 - - -;
#X obj 336 63 sel 161;
#X obj 336 84 bng 17 250 50 0 empty empty TRIGGER-BARK 20 8 0 12 -4034
-1 -1;
#X obj 336 106 s \$0-trg-brk;
#X msg 590 538 open ./brk.wav \, start;
#X obj 590 559 writesf~;
#X msg 730 538 stop;
#X obj 37 591 dac~ 1 2;
#X obj 900 232 r \$0-trg-brk;
#X obj 37 475 *~;
#X obj 900 356 vline~;
#X obj 52 204 vcf~ 115;
#N canvas 4 23 162 227 hv.tanh 0;
#X obj 12 12 inlet~;
#X obj 12 38 clip~ -3 3;
#X obj 27 64 *~;
#X obj 12 192 outlet~;
#X obj 27 140 /~;
#X obj 12 166 *~;
#X obj 67 90 *~ 9;
#X obj 27 90 +~ 27;
#X obj 67 116 +~ 27;
#X connect 0 0 1 0;
#X connect 1 0 2 0;
#X connect 1 0 2 1;
#X connect 1 0 5 0;
#X connect 2 0 7 0;
#X connect 2 0 6 0;
#X connect 4 0 5 1;
#X connect 5 0 3 0;
#X connect 6 0 8 0;
#X connect 7 0 4 0;
#X connect 8 0 4 1;
#X restore 174 316 pd hv.tanh;
#X obj 74 121 sig~ 2;
#X obj 74 183 *~ 430;
#X obj 112 204 vcf~ 115;
#X obj 172 204 vcf~ 115;
#X obj 232 204 vcf~ 115;
#X obj 292 204 vcf~ 115;
#X obj 352 204 vcf~ 115;
#X obj 412 204 vcf~ 115;
#X obj 472 204 vcf~ 115;
#X obj 532 204 vcf~ 115;
#X obj 592 204 vcf~ 115;
#X obj 652 204 vcf~ 115;
#X obj 712 204 vcf~ 115;
#X obj 772 204 vcf~ 115;
#X obj 832 204 vcf~ 115;
#X obj 196 23 r \$0-trg-brk;
#X obj 196 128 vline~;
#X obj 134 183 *~ 470;
#X obj 194 183 *~ 520;
#X obj 254 183 *~ 555;
#X obj 314 183 *~ 601;
#X obj 374 183 *~ 670;
#X obj 434 183 *~ 740;
#X obj 494 183 *~ 790;
#X obj 554 183 *~ 866;
#X obj 614 183 *~ 924;
#X obj 674 183 *~ 982;
#X obj 734 183 *~ 1052;
#X obj 794 183 *~ 1150;
#X obj 854 183 *~ 1220;
#X obj 74 461 +~;
#X obj 174 358 hip~ 5512;
#X obj 174 447 hip~ 5512;
#N canvas 4 23 162 227 hv.tanh 0;
#X obj 12 12 inlet~;
#X obj 12 38 clip~ -3 3;
#X obj 27 64 *~;
#X obj 12 192 outlet~;
#X obj 27 140 /~;
#X obj 12 166 *~;
#X obj 67 90 *~ 9;
#X obj 27 90 +~ 27;
#X obj 67 116 +~ 27;
#X connect 0 0 1 0;
#X connect 1 0 2 0;
#X connect 1 0 2 1;
#X connect 1 0 5 0;
#X connect 2 0 7 0;
#X connect 2 0 6 0;
#X connect 4 0 5 1;
#X connect 5 0 3 0;
#X connect 6 0 8 0;
#X connect 7 0 4 0;
#X connect 8 0 4 1;
#X restore 37 545 pd hv.tanh;
#X obj 196 86 / -1000;
#X obj 196 44 random 126;
#X obj 196 65 + 125;
#X obj 174 337 hip~ 5512;
#X obj 454 423 *~ 16;
#X obj 1010 250 r \$0-trg-brk;
#X obj 1010 271 t b b;
#X obj 1010 355 unpack f f;
#X obj 1010 426 lop~;
#X obj 1067 397 /;
#X msg 1067 376 1000 \$1;
#X obj 1010 313 del 50;
#X msg 1037 292 1 75;
#X obj 52 225 vcf~ 14.1;
#X obj 112 225 vcf~ 14.1;
#X obj 172 225 vcf~ 14.1;
#X obj 232 225 vcf~ 14.1;
#X obj 292 225 vcf~ 14.1;
#X obj 352 225 vcf~ 14.1;
#X obj 412 225 vcf~ 14.1;
#X obj 472 225 vcf~ 14.1;
#X obj 532 225 vcf~ 14.1;
#X obj 592 225 vcf~ 14.1;
#X obj 652 225 vcf~ 14.1;
#X obj 712 225 vcf~ 14.1;
#X obj 772 225 vcf~ 14.1;
#X obj 832 225 vcf~ 14.1;
#X obj 174 489 *~;
#X obj 426 475 +~;
#X obj 730 517 del 1000;
#X obj 364 381 bp~ 5000 5.76;
#X obj 364 402 bp~ 5000 5.76;
#X obj 454 381 bp~ 3400 5.76;
#X obj 454 402 bp~ 3400 5.76;
#X obj 274 381 bp~ 7000 5.76;
#X obj 274 402 bp~ 7000 5.76;
#X obj 364 423 *~ -8;
#X obj 900 377 pow~ 1.25;
#X obj 503 440 pow~ 0.75;
#X obj 900 314 pack f f;
#X obj 900 253 t b b;
#X obj 943 288 + 30;
#X obj 943 267 random 41;
#X obj 274 423 *~ 16;
#X obj 174 402 bp~ 10000 5.76;
#X obj 174 381 bp~ 10000 5.76;
#X obj 174 423 *~ 4;
#X obj 900 398 *~ 0.7;
#X obj 1010 447 *~ 0.3;
#X msg 1010 334 0 400;
#X obj 52 302 *~ 4;
#X obj 37 454 +~;
#X obj 32 148 /~ 10;
#X msg 900 335 1 \$2 \, 0 100 \$2;
#X obj 12 190 *~ 10;
#X obj 12 169 pow~ 500;
#X obj 52 276 hip~ 1220;
#X obj 52 246 *~ 0.3;
#X obj 112 246 *~ 0.3;
#X obj 172 246 *~ 0.4;
#X obj 292 246 *~ 1;
#X obj 232 246 *~ 1;
#X obj 352 246 *~ 1;
#X obj 412 246 *~ 1;
#X obj 472 246 *~ 1;
#X obj 532 246 *~ 1;
#X obj 592 246 *~ 1;
#X obj 652 246 *~ 1;
#X obj 712 246 *~ 1;
#X obj 772 246 *~ 1;
#X obj 832 246 *~ 1;
#X msg 196 107 \$1 \, 0 20 \, \$1 100 20;
#N canvas 4 23 162 227 hv.tanh 0;
#X obj 12 12 inlet~;
#X obj 12 38 clip~ -3 3;
#X obj 27 64 *~;
#X obj 12 192 outlet~;
#X obj 27 140 /~;
#X obj 12 166 *~;
#X obj 67 90 *~ 9;
#X obj 27 90 +~ 27;
#X obj 67 116 +~ 27;
#X connect 0 0 1 0;
#X connect 1 0 2 0;
#X connect 1 0 2 1;
#X connect 1 0 5 0;
#X connect 2 0 7 0;
#X connect 2 0 6 0;
#X connect 4 0 5 1;
#X connect 5 0 3 0;
#X connect 6 0 8 0;
#X connect 7 0 4 0;
#X connect 8 0 4 1;
#X restore 12 101 pd hv.tanh;
#X obj 12 122 *~ 1;
#X obj 12 59 noise~;
#X obj 12 80 *~ 2;
#X obj 52 364 *~ 1;
#X obj 17 391 bp~ 470 1.414;
#X obj 248 295 r \$0-trg-brk;
#X obj 248 316 random 100;
#X obj 248 337 + 400;
#X obj 52 343 bp~ 900 0.667;
#X obj 52 323 bp~ 900 0.667;
#X obj 17 433 *~ 4;
#X obj 17 412 bp~ 470 0.667;
#X obj 106 481 tgl 17 1 empty empty LAYER-1 0 -8 0 10 -4034 -1 -1 1
1;
#X obj 37 496 *~;
#X obj 456 495 tgl 17 1 empty empty LAYER-2 0 -8 0 10 -4034 -1 -1 1
1;
#X obj 174 510 *~;
#X obj 174 468 *~ 1.4;
#X obj 503 461 *~ 0.5;
#X text 900 212 //MAIN ENVELOPE;
#X text 1010 230 //TAIL;
#X text 590 477 //RECORD;
#X text 196 3 //PICH BEND;
#X text 82 302 //FORMANTS;
#X text 494 163 //DETERMINISTIC SIGNAL;
#X obj 590 517 spigot;
#X obj 590 496 r \$0-trg-brk;
#X obj 676 502 tgl 17 0 empty empty RECORD 0 -8 0 10 -262144 -1 -1
0 1;
#X text 492 86 Reference;
#X text 492 96 https://freesound.org/people/crazymonke9/sounds/418105/
;
#X text 492 116 https://patchstorage.com/dogbarking/;
#X text 364 361 //STOCHASTIC SIGNAL (air);
#X text 95 31 ░░░/░__ \; ░░(░░░░@___ \; ░░/░░░░░░░░░O
\; ░/░░░(_____/ \; /_____/░░░U \;;
#X text 149 18 WOOF!;
#X obj 37 566 *~ 0.7;
#X obj 37 524 *~ 0.7;
#X text 492 66 Formants at the end.;
#X text 492 46 White noise through 14 bandpass filters with high q.
;
#X obj 668 313 r \$0-trg-brk;
#X obj 357 301 cnv 10 1 1 empty \$0-cnv-lbl empty 20 12 1 40 -255580
-66577 0;
#X obj 668 397 s \$0-cnv-lbl;
#X msg 668 355 label WOOF;
#X msg 748 355 label;
#X obj 748 334 del 500;
#X obj 74 142 pow~;
#X obj 74 162 *~ 2;
#X obj 857 107 hsl 128 15 -1 1 0 1 empty empty PITCH -2 -8 0 10 -262144
-1 -1 6600 1;
#X msg 854 127 2 \$1;
#X obj 854 148 pow;
#X obj 975 30 notein;
#X obj 975 51 poly 1 1;
#X obj 1066 65 > 0;
#X obj 997 85 list prepend;
#X obj 997 106 route 1;
#X obj 997 127 mtof;
#X obj 997 148 / 440;
#X obj 1037 127 bang;
#X obj 1037 148 s \$0-trg-brk;
#X connect 0 0 1 0;
#X connect 1 0 2 0;
#X connect 2 0 3 0;
#X connect 3 0 4 0;
#X connect 5 0 6 0;
#X connect 7 0 6 0;
#X connect 9 0 88 0;
#X connect 10 0 134 0;
#X connect 11 0 85 0;
#X connect 12 0 61 0;
#X connect 13 0 51 0;
#X connect 14 0 164 0;
#X connect 15 0 12 1;
#X connect 15 0 61 1;
#X connect 16 0 62 0;
#X connect 17 0 63 0;
#X connect 18 0 64 0;
#X connect 19 0 65 0;
#X connect 20 0 66 0;
#X connect 21 0 67 0;
#X connect 22 0 68 0;
#X connect 23 0 69 0;
#X connect 24 0 70 0;
#X connect 25 0 71 0;
#X connect 26 0 72 0;
#X connect 27 0 73 0;
#X connect 28 0 74 0;
#X connect 29 0 49 0;
#X connect 30 0 164 1;
#X connect 31 0 16 1;
#X connect 31 0 62 1;
#X connect 32 0 17 1;
#X connect 32 0 63 1;
#X connect 33 0 18 1;
#X connect 33 0 64 1;
#X connect 34 0 19 1;
#X connect 34 0 65 1;
#X connect 35 0 20 1;
#X connect 35 0 66 1;
#X connect 36 0 21 1;
#X connect 36 0 67 1;
#X connect 37 0 22 1;
#X connect 37 0 68 1;
#X connect 38 0 23 1;
#X connect 38 0 69 1;
#X connect 39 0 24 1;
#X connect 39 0 70 1;
#X connect 40 0 25 1;
#X connect 40 0 71 1;
#X connect 41 0 26 1;
#X connect 41 0 72 1;
#X connect 42 0 27 1;
#X connect 42 0 73 1;
#X connect 43 0 28 1;
#X connect 43 0 74 1;
#X connect 44 0 10 1;
#X connect 45 0 78 0;
#X connect 45 0 82 0;
#X connect 45 0 80 0;
#X connect 45 0 93 0;
#X connect 46 0 137 0;
#X connect 47 0 6 0;
#X connect 47 0 154 0;
#X connect 48 0 119 0;
#X connect 49 0 50 0;
#X connect 50 0 48 0;
#X connect 51 0 45 0;
#X connect 52 0 46 0;
#X connect 53 0 54 0;
#X connect 54 0 59 0;
#X connect 54 1 60 0;
#X connect 55 0 56 0;
#X connect 55 1 58 0;
#X connect 56 0 86 0;
#X connect 56 0 96 0;
#X connect 57 0 56 1;
#X connect 58 0 57 0;
#X connect 59 0 97 0;
#X connect 60 0 55 0;
#X connect 61 0 105 0;
#X connect 62 0 106 0;
#X connect 63 0 107 0;
#X connect 64 0 109 0;
#X connect 65 0 108 0;
#X connect 66 0 110 0;
#X connect 67 0 111 0;
#X connect 68 0 112 0;
#X connect 69 0 113 0;
#X connect 70 0 114 0;
#X connect 71 0 115 0;
#X connect 72 0 116 0;
#X connect 73 0 117 0;
#X connect 74 0 118 0;
#X connect 75 0 136 0;
#X connect 76 0 75 1;
#X connect 77 0 7 0;
#X connect 78 0 79 0;
#X connect 79 0 84 0;
#X connect 80 0 81 0;
#X connect 81 0 52 0;
#X connect 82 0 83 0;
#X connect 83 0 91 0;
#X connect 84 0 46 0;
#X connect 85 0 95 0;
#X connect 86 0 138 0;
#X connect 87 0 101 0;
#X connect 88 0 87 0;
#X connect 88 1 90 0;
#X connect 89 0 87 1;
#X connect 90 0 89 0;
#X connect 91 0 46 0;
#X connect 92 0 94 0;
#X connect 93 0 92 0;
#X connect 94 0 46 0;
#X connect 95 0 44 0;
#X connect 95 0 76 0;
#X connect 96 0 44 1;
#X connect 97 0 55 0;
#X connect 98 0 13 0;
#X connect 98 0 130 0;
#X connect 98 0 125 0;
#X connect 99 0 10 0;
#X connect 100 0 102 0;
#X connect 101 0 11 0;
#X connect 102 0 12 0;
#X connect 102 0 16 0;
#X connect 102 0 28 0;
#X connect 102 0 27 0;
#X connect 102 0 26 0;
#X connect 102 0 25 0;
#X connect 102 0 24 0;
#X connect 102 0 23 0;
#X connect 102 0 22 0;
#X connect 102 0 21 0;
#X connect 102 0 20 0;
#X connect 102 0 19 0;
#X connect 102 0 18 0;
#X connect 102 0 17 0;
#X connect 103 0 102 0;
#X connect 104 0 98 0;
#X connect 105 0 104 0;
#X connect 106 0 104 0;
#X connect 107 0 104 0;
#X connect 108 0 104 0;
#X connect 109 0 104 0;
#X connect 110 0 104 0;
#X connect 111 0 104 0;
#X connect 112 0 104 0;
#X connect 113 0 104 0;
#X connect 114 0 104 0;
#X connect 115 0 104 0;
#X connect 116 0 104 0;
#X connect 117 0 104 0;
#X connect 118 0 104 0;
#X connect 119 0 30 0;
#X connect 120 0 121 0;
#X connect 121 0 100 0;
#X connect 121 0 103 0;
#X connect 122 0 123 0;
#X connect 123 0 120 0;
#X connect 124 0 99 1;
#X connect 125 0 132 0;
#X connect 126 0 127 0;
#X connect 127 0 128 0;
#X connect 128 0 132 1;
#X connect 128 0 125 1;
#X connect 129 0 124 0;
#X connect 130 0 129 0;
#X connect 131 0 99 0;
#X connect 132 0 131 0;
#X connect 133 0 134 1;
#X connect 134 0 155 0;
#X connect 135 0 136 1;
#X connect 136 0 155 0;
#X connect 137 0 75 0;
#X connect 138 0 76 1;
#X connect 145 0 5 0;
#X connect 145 0 77 0;
#X connect 146 0 145 0;
#X connect 147 0 145 1;
#X connect 154 0 8 0;
#X connect 154 0 8 1;
#X connect 155 0 47 0;
#X connect 158 0 161 0;
#X connect 158 0 163 0;
#X connect 161 0 160 0;
#X connect 162 0 160 0;
#X connect 163 0 162 0;
#X connect 164 0 165 0;
#X connect 165 0 15 0;
#X connect 165 0 31 0;
#X connect 165 0 32 0;
#X connect 165 0 33 0;
#X connect 165 0 34 0;
#X connect 165 0 35 0;
#X connect 165 0 36 0;
#X connect 165 0 37 0;
#X connect 165 0 38 0;
#X connect 165 0 39 0;
#X connect 165 0 40 0;
#X connect 165 0 41 0;
#X connect 165 0 42 0;
#X connect 165 0 43 0;
#X connect 166 0 167 0;
#X connect 167 0 168 0;
#X connect 168 0 165 1;
#X connect 169 0 170 0;
#X connect 169 1 170 1;
#X connect 170 1 172 0;
#X connect 170 2 171 0;
#X connect 171 0 172 1;
#X connect 172 0 173 0;
#X connect 173 0 174 0;
#X connect 173 0 176 0;
#X connect 174 0 175 0;
#X connect 175 0 165 1;
#X connect 176 0 177 0;
