#N canvas 576 155 1081 520 10;
#X obj 47 12 noise~;
#X obj 62 76 bp~ 4000 10;
#X obj 47 103 *~;
#X obj 62 130 lop~ 500;
#X obj 47 157 *~;
#X obj 67 211 delwrite~ \$0-noise1 500;
#X obj 27 236 delread~ \$0-noise1 500;
#X obj 12 263 *~;
#X obj 12 66 *~;
#X obj 12 93 +~;
#X obj 47 184 lop~ 500;
#X obj 47 263 *~ 0.5;
#X obj 97 280 +~;
#X obj 12 307 +~;
#X obj 151 275 hip~;
#X obj 136 302 +~;
#X obj 136 356 *~;
#X obj 12 329 *~;
#X obj 12 351 clip~ -1 1;
#X obj 12 373 +~;
#X obj 44 312 r~ \$0-drp-gan;
#X obj 172 253 r \$0-hip;
#X obj 107 108 r \$0-drp-amt;
#X obj 92 162 r \$0-drp-sze;
#X obj 151 329 r~ \$0-wnd;
#X obj 27 39 r~ \$0-crk;
#X obj 93 49 r \$0-sze;
#X obj 155 59 r \$0-int;
#X obj 267 12 noise~;
#X obj 282 76 bp~ 4000 10;
#X obj 267 103 *~;
#X obj 282 130 lop~ 500;
#X obj 267 157 *~;
#X obj 232 263 *~;
#X obj 232 66 *~;
#X obj 232 93 +~;
#X obj 267 184 lop~ 500;
#X obj 267 263 *~ 0.5;
#X obj 232 307 +~;
#X obj 371 275 hip~;
#X obj 356 302 +~;
#X obj 356 356 *~;
#X obj 232 329 *~;
#X obj 232 351 clip~ -1 1;
#X obj 232 373 +~;
#X obj 264 312 r~ \$0-drp-gan;
#X obj 392 253 r \$0-hip;
#X obj 327 108 r \$0-drp-amt;
#X obj 312 162 r \$0-drp-sze;
#X obj 371 329 r~ \$0-wnd;
#X obj 247 39 r~ \$0-crk;
#X obj 313 49 r \$0-sze;
#X obj 375 59 r \$0-int;
#X obj 287 211 delwrite~ \$0-noise2 500;
#X obj 247 236 delread~ \$0-noise2 500;
#X obj 462 45 hsl 128 17 0 127 0 1 empty empty CRACKLES -2 -8 0 10
-262144 -1 -1 8800 1;
#X obj 459 67 / 127;
#X msg 459 111 \$1 20;
#X obj 459 133 line~;
#X obj 459 155 s~ \$0-crk;
#X obj 612 45 hsl 128 17 0 127 0 1 empty empty HIPASS -2 -8 0 10 -262144
-1 -1 10700 1;
#X obj 609 67 / 127;
#X floatatom 459 89 0 0 1 0 - - -;
#X msg 609 111 2 \$1;
#X obj 609 133 pow;
#X obj 609 89 * 14;
#X floatatom 609 155 0 0 0 1 Hz - -;
#X obj 609 177 s \$0-hip;
#X obj 462 289 hsl 128 17 0 127 0 1 empty empty WINDINESS -2 -8 0 10
-262144 -1 -1 8600 1;
#X obj 459 311 / 127;
#X msg 459 377 \$1 20;
#X obj 459 399 line~;
#X floatatom 459 355 0 0 1 0 - - -;
#X obj 459 421 s~ \$0-wnd;
#X obj 602 289 hsl 128 17 0 127 0 1 empty empty DROP-GAIN -2 -8 0 10
-262144 -1 -1 4300 1;
#X obj 599 311 / 127;
#X msg 599 355 \$1 20;
#X obj 599 377 line~;
#X floatatom 599 333 0 0 1 0 - - -;
#X obj 599 399 s~ \$0-drp-gan;
#X obj 12 439 clip~ -1 1;
#X obj 232 439 clip~ -1 1;
#X obj 752 45 hsl 128 17 0 127 0 1 empty empty DROP-AMOUNT -2 -8 0
10 -262144 -1 -1 5700 1;
#X obj 749 67 / 127;
#X obj 752 289 hsl 128 17 0 127 0 1 empty empty DROP-SIZE -2 -8 0 10
-262144 -1 -1 8600 1;
#X obj 749 311 / 127;
#X msg 749 355 2 \$1;
#X obj 749 377 pow;
#X obj 892 45 hsl 128 17 0 127 0 1 empty empty INTENSITY -2 -8 0 10
-262144 -1 -1 7500 1;
#X obj 889 67 / 127;
#X obj 892 289 hsl 128 17 0 127 0 1 empty empty SIZE -2 -8 0 10 -262144
-1 -1 4600 1;
#X obj 889 311 / 127;
#X msg 889 355 2 \$1;
#X obj 889 377 pow;
#X msg 889 155 2 \$1;
#X obj 889 177 pow;
#X obj 889 199 * 0.7;
#X floatatom 889 221 0 0 0 0 - - -;
#X obj 889 243 s \$0-int;
#X obj 889 133 * 5;
#X msg 889 89 1 \$1;
#X obj 889 111 -;
#X obj 749 399 * 250;
#X obj 889 399 * 250;
#X floatatom 749 421 0 0 0 1 - - -;
#X obj 749 333 * 6;
#X obj 749 443 s \$0-drp-sze;
#X obj 889 333 * 6;
#X floatatom 889 421 0 0 0 1 - - -;
#X obj 889 443 s \$0-sze;
#X msg 749 111 2 \$1;
#X obj 749 133 pow;
#X obj 749 155 * 250;
#X obj 749 89 * 6;
#X floatatom 749 177 0 0 0 1 - - -;
#X obj 749 199 s \$0-drp-amt;
#X obj 12 395 hip~ 3;
#X obj 232 395 hip~ 3;
#X obj 12 417 *~ 0.7;
#X obj 232 417 *~ 0.7;
#X obj 12 483 dac~ 1;
#X obj 232 483 dac~ 2;
#X obj 459 333 pow 4;
#X obj 232 461 *~ 0.25;
#X obj 12 461 *~ 0.25;
#X text 462 208 source: https://youtu.be/ZXwk8sDts0Y;
#X text 462 228 By Taavi Viikman;
#X connect 0 0 1 0;
#X connect 0 0 2 0;
#X connect 0 0 8 0;
#X connect 1 0 2 1;
#X connect 1 0 9 1;
#X connect 1 0 14 0;
#X connect 2 0 3 0;
#X connect 2 0 4 0;
#X connect 3 0 4 1;
#X connect 4 0 10 0;
#X connect 6 0 7 1;
#X connect 7 0 13 0;
#X connect 8 0 9 0;
#X connect 9 0 7 0;
#X connect 10 0 5 0;
#X connect 10 0 11 0;
#X connect 10 0 15 0;
#X connect 11 0 12 0;
#X connect 12 0 13 1;
#X connect 12 0 38 1;
#X connect 13 0 17 0;
#X connect 14 0 15 1;
#X connect 15 0 16 0;
#X connect 16 0 19 1;
#X connect 17 0 18 0;
#X connect 18 0 19 0;
#X connect 19 0 116 0;
#X connect 20 0 17 1;
#X connect 21 0 14 1;
#X connect 22 0 3 1;
#X connect 23 0 10 1;
#X connect 24 0 16 1;
#X connect 25 0 8 1;
#X connect 26 0 1 1;
#X connect 27 0 1 2;
#X connect 28 0 29 0;
#X connect 28 0 30 0;
#X connect 28 0 34 0;
#X connect 29 0 30 1;
#X connect 29 0 35 1;
#X connect 29 0 39 0;
#X connect 30 0 31 0;
#X connect 30 0 32 0;
#X connect 31 0 32 1;
#X connect 32 0 36 0;
#X connect 33 0 38 0;
#X connect 34 0 35 0;
#X connect 35 0 33 0;
#X connect 36 0 37 0;
#X connect 36 0 40 0;
#X connect 36 0 53 0;
#X connect 37 0 12 1;
#X connect 38 0 42 0;
#X connect 39 0 40 1;
#X connect 40 0 41 0;
#X connect 41 0 44 1;
#X connect 42 0 43 0;
#X connect 43 0 44 0;
#X connect 44 0 117 0;
#X connect 45 0 42 1;
#X connect 46 0 39 1;
#X connect 47 0 31 1;
#X connect 48 0 36 1;
#X connect 49 0 41 1;
#X connect 50 0 34 1;
#X connect 51 0 29 1;
#X connect 52 0 29 2;
#X connect 54 0 33 1;
#X connect 55 0 56 0;
#X connect 56 0 62 0;
#X connect 57 0 58 0;
#X connect 58 0 59 0;
#X connect 60 0 61 0;
#X connect 61 0 65 0;
#X connect 62 0 57 0;
#X connect 63 0 64 0;
#X connect 64 0 66 0;
#X connect 65 0 63 0;
#X connect 66 0 67 0;
#X connect 68 0 69 0;
#X connect 69 0 122 0;
#X connect 70 0 71 0;
#X connect 71 0 73 0;
#X connect 72 0 70 0;
#X connect 74 0 75 0;
#X connect 75 0 78 0;
#X connect 76 0 77 0;
#X connect 77 0 79 0;
#X connect 78 0 76 0;
#X connect 80 0 124 0;
#X connect 81 0 123 0;
#X connect 82 0 83 0;
#X connect 83 0 113 0;
#X connect 84 0 85 0;
#X connect 85 0 105 0;
#X connect 86 0 87 0;
#X connect 87 0 102 0;
#X connect 88 0 89 0;
#X connect 89 0 100 0;
#X connect 90 0 91 0;
#X connect 91 0 107 0;
#X connect 92 0 93 0;
#X connect 93 0 103 0;
#X connect 94 0 95 0;
#X connect 95 0 96 0;
#X connect 96 0 97 0;
#X connect 97 0 98 0;
#X connect 99 0 94 0;
#X connect 100 0 101 0;
#X connect 101 0 99 0;
#X connect 102 0 104 0;
#X connect 103 0 108 0;
#X connect 104 0 106 0;
#X connect 105 0 86 0;
#X connect 107 0 92 0;
#X connect 108 0 109 0;
#X connect 110 0 111 0;
#X connect 111 0 112 0;
#X connect 112 0 114 0;
#X connect 113 0 110 0;
#X connect 114 0 115 0;
#X connect 116 0 118 0;
#X connect 117 0 119 0;
#X connect 118 0 80 0;
#X connect 119 0 81 0;
#X connect 122 0 72 0;
#X connect 123 0 121 0;
#X connect 124 0 120 0;
