#N canvas 574 162 412 327 10;
#X obj 12 136 samphold~;
#X obj 12 167 *~;
#X obj 214 136 samphold~;
#X obj 184 172 *~;
#X obj 282 89 +~ 0.5;
#X obj 282 110 wrap~;
#X obj 12 188 +~;
#X obj 106 120 wrap~;
#X obj 12 31 inlet~;
#X obj 282 21 inlet~;
#X obj 282 63 phasor~;
#X obj 12 209 outlet~;
#X obj 282 42 /~ 2;
#X text 12 11 (I1) Input;
#X text 282 1 (I2) Samplerate;
#X text 12 229 (O1) Interpolated Output;
#X obj 199 212 +~;
#X obj 199 233 /~ 2;
#X obj 199 254 outlet~;
#N canvas 682 479 408 206 tri 0;
#X obj 33 68 *~ -1;
#X obj 33 89 +~ 1;
#X obj 12 110 min~;
#X obj 12 131 *~ 2;
#X obj 12 152 outlet~;
#X obj 12 42 inlet~;
#X text 12 22 (I1) Phasor Input;
#X text 12 172 (I2) Triangle Output;
#X text 12 2 // Waveshape a phasor into a triangle waveform for windowing
;
#X connect 0 0 1 0;
#X connect 1 0 2 1;
#X connect 2 0 3 0;
#X connect 3 0 4 0;
#X connect 5 0 2 0;
#X connect 5 0 0 0;
#X restore 106 151 pd tri;
#N canvas 682 479 408 206 tri 0;
#X obj 33 68 *~ -1;
#X obj 33 89 +~ 1;
#X obj 12 110 min~;
#X obj 12 131 *~ 2;
#X obj 12 152 outlet~;
#X obj 12 42 inlet~;
#X text 12 22 (I1) Phasor Input;
#X text 12 172 (I2) Triangle Output;
#X text 12 2 // Waveshape a phasor into a triangle waveform for windowing
;
#X connect 0 0 1 0;
#X connect 1 0 2 1;
#X connect 2 0 3 0;
#X connect 3 0 4 0;
#X connect 5 0 2 0;
#X connect 5 0 0 0;
#X restore 282 156 pd tri;
#X text 199 274 (O2) Sample and Hold Output;
#X connect 0 0 1 0;
#X connect 0 0 16 0;
#X connect 1 0 6 0;
#X connect 2 0 3 0;
#X connect 2 0 16 1;
#X connect 3 0 6 1;
#X connect 4 0 5 0;
#X connect 5 0 2 1;
#X connect 5 0 20 0;
#X connect 6 0 11 0;
#X connect 7 0 0 1;
#X connect 7 0 19 0;
#X connect 8 0 0 0;
#X connect 8 0 2 0;
#X connect 9 0 12 0;
#X connect 10 0 4 0;
#X connect 10 0 7 0;
#X connect 12 0 10 0;
#X connect 16 0 17 0;
#X connect 17 0 18 0;
#X connect 19 0 1 1;
#X connect 20 0 3 1;
