#N canvas 55 402 812 268 10;
#X obj 483 31 loadbang;
#X obj 443 99 pdcontrol;
#X msg 443 78 args 0;
#X obj 483 52 t b b;
#X obj 443 149 select samphold linear cosine cubic;
#X msg 443 180 0;
#X msg 494 180 1;
#X msg 546 180 2;
#X msg 598 180 3;
#X obj 443 226 send \$0-type;
#N canvas 47 137 582 610 cubic 0;
#X obj 433 201 *~;
#X obj 390 217 *~;
#X obj 353 265 *~ 3;
#X obj 433 285 *~ 4;
#X obj 393 265 *~ 5;
#X obj 353 311 -~;
#X obj 353 337 +~ 2;
#X obj 92 392 *~;
#X obj 122 448 *~ 0.5;
#X obj 172 392 *~;
#X obj 252 392 *~;
#X obj 12 392 *~;
#X obj 293 217 *~ 2;
#X obj 293 251 -~;
#X obj 293 277 -~;
#X obj 433 311 -~;
#X obj 433 337 +~;
#X obj 483 337 -~;
#X obj 12 75 samphold~;
#X obj 12 151 samphold~;
#X obj 223 39 wrap~;
#X obj 223 13 +~ 0.5;
#X obj 252 95 inlet~;
#X obj 122 474 outlet~;
#X obj 448 95 inlet~;
#X obj 92 75 samphold~;
#X obj 92 151 samphold~;
#X obj 172 75 samphold~;
#X obj 172 151 samphold~;
#X obj 252 151 samphold~;
#X text 448 75 Inlet 2: phasor~;
#X text 22 543 https://mathr.co.uk/blog/2015-02-12_bandlimited_wavetables.html
;
#X text 122 494 Outlet 1: Output;
#X text 252 75 Inlet 1: Input;
#X text 12 524 Taken from [tabread4c~] by Claude Heiland-Allen;
#X obj 342 432 r \$0-type;
#X obj 342 474 switch~;
#X text 342 412 // DSP switch;
#X obj 342 453 == 3;
#X connect 0 0 1 0;
#X connect 0 0 4 0;
#X connect 0 0 12 0;
#X connect 0 0 3 0;
#X connect 0 0 17 1;
#X connect 1 0 2 0;
#X connect 1 0 13 1;
#X connect 1 0 17 0;
#X connect 2 0 5 0;
#X connect 2 0 15 1;
#X connect 3 0 15 0;
#X connect 4 0 5 1;
#X connect 5 0 6 0;
#X connect 6 0 7 1;
#X connect 7 0 8 0;
#X connect 8 0 23 0;
#X connect 9 0 8 0;
#X connect 10 0 8 0;
#X connect 11 0 8 0;
#X connect 12 0 13 0;
#X connect 13 0 14 0;
#X connect 14 0 11 1;
#X connect 15 0 16 0;
#X connect 16 0 9 1;
#X connect 17 0 10 1;
#X connect 18 0 19 0;
#X connect 19 0 11 0;
#X connect 20 0 18 1;
#X connect 20 0 25 1;
#X connect 20 0 27 1;
#X connect 21 0 20 0;
#X connect 22 0 29 0;
#X connect 24 0 0 0;
#X connect 24 0 0 1;
#X connect 24 0 1 1;
#X connect 24 0 14 1;
#X connect 24 0 16 1;
#X connect 24 0 19 1;
#X connect 24 0 21 0;
#X connect 24 0 29 1;
#X connect 24 0 28 1;
#X connect 24 0 26 1;
#X connect 25 0 26 0;
#X connect 26 0 18 0;
#X connect 26 0 7 0;
#X connect 27 0 28 0;
#X connect 28 0 25 0;
#X connect 28 0 9 0;
#X connect 29 0 27 0;
#X connect 29 0 10 0;
#X connect 35 0 38 0;
#X connect 38 0 36 0;
#X restore 262 133 pd cubic;
#X obj 93 67 inlet~;
#X obj 233 67 phasor~;
#X obj 233 31 inlet~;
#N canvas 524 398 475 342 linear 0;
#X obj 12 120 samphold~;
#X obj 123 84 wrap~;
#X obj 12 31 inlet~;
#X obj 92 270 outlet~;
#X obj 263 31 inlet~;
#X text 12 11 Inlet 1: Input;
#X obj 182 146 samphold~;
#X obj 248 214 *~;
#X obj 123 63 +~ 0.5;
#X text 92 290 Outlet 1: Output;
#X text 263 12 Inlet 2: phasor~;
#X obj 312 228 r \$0-type;
#X obj 312 249 == 1;
#X obj 312 270 switch~;
#X text 173 63 <- phase shift;
#X text 312 208 // DSP switch;
#X obj 12 146 samphold~;
#X obj 88 163 sig~ 1;
#X obj 88 184 -~;
#X obj 12 214 *~;
#X text 12 100 // delayed sample;
#X connect 0 0 16 0;
#X connect 1 0 0 1;
#X connect 2 0 6 0;
#X connect 4 0 6 1;
#X connect 4 0 8 0;
#X connect 4 0 16 1;
#X connect 4 0 18 1;
#X connect 4 0 7 1;
#X connect 6 0 7 0;
#X connect 6 0 0 0;
#X connect 7 0 3 0;
#X connect 8 0 1 0;
#X connect 11 0 12 0;
#X connect 12 0 13 0;
#X connect 16 0 19 0;
#X connect 17 0 18 0;
#X connect 18 0 19 1;
#X connect 19 0 3 0;
#X restore 102 133 pd linear;
#X obj 152 189 outlet~;
#N canvas 524 398 434 307 samphold 0;
#X obj 12 146 samphold~;
#X obj 12 31 inlet~;
#X obj 92 228 outlet~;
#X obj 263 31 inlet~;
#X text 12 11 Inlet 1: Input;
#X text 92 248 Outlet 1: Output;
#X text 263 12 Inlet 2: phasor~;
#X obj 292 186 r \$0-type;
#X obj 292 228 switch~;
#X text 292 166 // DSP switch;
#X obj 292 207 == 0;
#X connect 0 0 2 0;
#X connect 1 0 0 0;
#X connect 3 0 0 1;
#X connect 7 0 10 0;
#X connect 10 0 8 0;
#X restore 12 133 pd samphold;
#X text 93 47 Inlet 1: Input;
#X text 233 11 Inlet 2: Downsample rate in Hz;
#X msg 510 108 symbol samphold;
#X text 152 209 Outlet 1: Output;
#X obj 623 102 inlet;
#N canvas 609 430 475 342 cosine 0;
#X obj 12 120 samphold~;
#X obj 123 84 wrap~;
#X obj 12 31 inlet~;
#X obj 92 270 outlet~;
#X obj 263 31 inlet~;
#X text 12 11 Inlet 1: Input;
#X obj 182 146 samphold~;
#X obj 248 214 *~;
#X obj 123 63 +~ 0.5;
#X text 92 290 Outlet 1: Output;
#X text 263 12 Inlet 2: phasor~;
#X obj 312 228 r \$0-type;
#X obj 312 270 switch~;
#X text 173 63 <- phase shift;
#X text 312 208 // DSP switch;
#X obj 12 146 samphold~;
#X obj 88 163 sig~ 1;
#X obj 88 184 -~;
#X obj 12 214 *~;
#X obj 312 249 == 2;
#X obj 263 116 cos~;
#X obj 263 95 *~ 0.5;
#X obj 263 137 *~ -0.5;
#X obj 263 158 +~ 0.5;
#X text 12 100 // delayed sample;
#X text 293 116 <- cosine waveshaper;
#X connect 0 0 15 0;
#X connect 1 0 0 1;
#X connect 2 0 6 0;
#X connect 4 0 6 1;
#X connect 4 0 8 0;
#X connect 4 0 15 1;
#X connect 4 0 21 0;
#X connect 6 0 7 0;
#X connect 6 0 0 0;
#X connect 7 0 3 0;
#X connect 8 0 1 0;
#X connect 11 0 19 0;
#X connect 15 0 18 0;
#X connect 16 0 17 0;
#X connect 17 0 18 1;
#X connect 18 0 3 0;
#X connect 19 0 12 0;
#X connect 20 0 22 0;
#X connect 21 0 20 0;
#X connect 22 0 23 0;
#X connect 23 0 7 1;
#X connect 23 0 17 1;
#X restore 182 133 pd cosine;
#X text 623 82 Inlet 3: Interpolation method;
#X text 483 11 // Load default interpolation method and arguments;
#X connect 0 0 3 0;
#X connect 1 0 4 0;
#X connect 2 0 1 0;
#X connect 3 0 2 0;
#X connect 3 1 19 0;
#X connect 4 0 5 0;
#X connect 4 1 6 0;
#X connect 4 2 7 0;
#X connect 4 3 8 0;
#X connect 5 0 9 0;
#X connect 6 0 9 0;
#X connect 7 0 9 0;
#X connect 8 0 9 0;
#X connect 10 0 15 0;
#X connect 11 0 14 0;
#X connect 11 0 16 0;
#X connect 11 0 10 0;
#X connect 11 0 22 0;
#X connect 12 0 14 1;
#X connect 12 0 16 1;
#X connect 12 0 10 1;
#X connect 12 0 22 1;
#X connect 13 0 12 0;
#X connect 14 0 15 0;
#X connect 16 0 15 0;
#X connect 19 0 4 0;
#X connect 21 0 9 0;
#X connect 22 0 15 0;
