#N canvas 282 22 347 721 10;
#X obj 102 248 rzero_rev~;
#X obj 126 269 rpole~;
#X obj 102 295 rzero_rev~;
#X obj 126 316 rpole~;
#X obj 102 342 rzero_rev~;
#X obj 126 363 rpole~;
#X obj 102 389 rzero_rev~;
#X obj 126 410 rpole~;
#X obj 102 436 rzero_rev~;
#X obj 126 457 rpole~;
#X obj 102 483 rzero_rev~;
#X obj 126 504 rpole~;
#X obj 102 530 rzero_rev~;
#X obj 126 551 rpole~;
#X obj 102 577 rzero_rev~;
#X obj 126 598 rpole~;
#X obj 143 80 samplerate~;
#X obj 195 12 loadbang;
#X obj 143 122 / 2;
#X obj 143 101 t f f;
#X msg 195 33 bang;
#X msg 222 123 1;
#X obj 222 144 atan;
#X obj 195 54 t b b;
#X obj 48 144 clip~ 0 22050;
#X obj 222 165 * -8;
#X obj 159 212 exp~;
#X obj 159 191 *~ -6.28319;
#X obj 125 170 /~ 44100;
#X obj 48 113 inlet~;
#X obj 12 645 *~ 0.5;
#X obj 12 624 +~;
#X obj 12 666 outlet~;
#X obj 12 221 inlet~;
#X connect 0 0 1 0;
#X connect 1 0 2 0;
#X connect 2 0 3 0;
#X connect 3 0 4 0;
#X connect 4 0 5 0;
#X connect 5 0 6 0;
#X connect 6 0 7 0;
#X connect 7 0 8 0;
#X connect 8 0 9 0;
#X connect 9 0 10 0;
#X connect 10 0 11 0;
#X connect 11 0 12 0;
#X connect 12 0 13 0;
#X connect 13 0 14 0;
#X connect 14 0 15 0;
#X connect 15 0 31 1;
#X connect 16 0 19 0;
#X connect 17 0 20 0;
#X connect 18 0 24 2;
#X connect 19 0 18 0;
#X connect 19 1 28 1;
#X connect 20 0 23 0;
#X connect 21 0 22 0;
#X connect 22 0 25 0;
#X connect 23 0 16 0;
#X connect 23 1 21 0;
#X connect 24 0 28 0;
#X connect 25 0 27 1;
#X connect 26 0 12 1;
#X connect 26 0 15 1;
#X connect 26 0 14 1;
#X connect 26 0 13 1;
#X connect 26 0 11 1;
#X connect 26 0 10 1;
#X connect 26 0 9 1;
#X connect 26 0 8 1;
#X connect 26 0 7 1;
#X connect 26 0 6 1;
#X connect 26 0 5 1;
#X connect 26 0 4 1;
#X connect 26 0 3 1;
#X connect 26 0 2 1;
#X connect 26 0 1 1;
#X connect 26 0 0 1;
#X connect 27 0 26 0;
#X connect 28 0 27 0;
#X connect 29 0 24 0;
#X connect 30 0 32 0;
#X connect 31 0 30 0;
#X connect 33 0 0 0;
#X connect 33 0 31 0;
