#N canvas 238 261 612 672 10;
#X msg 111 172 0;
#X obj 12 156 unpack f f;
#X obj 96 266 +;
#X obj 126 266 f;
#X obj 69 177 t f f;
#X obj 96 245 f;
#X obj 96 198 t f b;
#X obj 12 290 pack f f f f;
#X obj 96 219 + 1;
#X obj 106 347 unpack f f f;
#X obj 31 634 outlet~;
#X obj 133 501 -~;
#X obj 165 485 sig~ 1;
#X obj 165 506 -~;
#X obj 215 469 *~;
#X obj 133 522 *~;
#X obj 118 571 +~;
#X obj 133 549 /~;
#X obj 31 441 sig~ 1;
#X obj 31 462 -~;
#X obj 31 483 *~;
#X obj 31 504 +~;
#X obj 74 488 *~;
#X obj 31 525 *~;
#X obj 118 592 *~;
#X obj 31 608 +~;
#N canvas 349 167 179 187 hv.vline 0;
#X obj 12 34 t a b;
#X msg 75 56 0;
#N canvas 274 138 292 165 dbl-pipe 0;
#X obj 22 22 inlet;
#X obj 82 22 inlet;
#X obj 182 22 inlet;
#X obj 22 64 pipe 0;
#X obj 82 64 pipe 0;
#X obj 22 86 outlet;
#X obj 82 86 outlet;
#X obj 132 64 pipe 0;
#X obj 132 86 outlet;
#X obj 132 22 inlet;
#X obj 239 29 inlet;
#X msg 239 50 clear;
#X connect 0 0 3 0;
#X connect 0 0 4 0;
#X connect 1 0 4 0;
#X connect 2 0 3 1;
#X connect 2 0 4 1;
#X connect 2 0 7 1;
#X connect 3 0 5 0;
#X connect 4 0 6 0;
#X connect 7 0 8 0;
#X connect 9 0 7 0;
#X connect 10 0 11 0;
#X connect 11 0 7 0;
#X connect 11 0 4 0;
#X connect 11 0 3 0;
#X restore 12 100 pd dbl-pipe;
#X obj 12 78 unpack f f f f;
#X obj 12 122 pack f f f;
#X obj 12 12 inlet;
#X obj 12 144 outlet;
#X obj 110 86 inlet;
#X connect 0 0 3 0;
#X connect 0 1 1 0;
#X connect 1 0 2 3;
#X connect 2 0 4 0;
#X connect 2 1 4 1;
#X connect 2 2 4 2;
#X connect 3 0 2 0;
#X connect 3 1 2 1;
#X connect 3 2 2 2;
#X connect 3 3 2 3;
#X connect 4 0 6 0;
#X connect 5 0 0 0;
#X connect 7 0 2 4;
#X restore 12 311 pd hv.vline;
#X msg 46 381 0 \, 1 \$1;
#X obj 12 355 unpack f f f;
#X obj 215 490 exp~;
#X text 177 261 https://github.com/dotmmb/mmb;
#X text 167 241 Mike Moser-Booth;
#X text 177 331 https://github.com/enzienaudio/heavylib;
#X text 167 311 from the heavylib;
#X text 177 191 https://github.com/MikeMorenoAudio;
#X text 167 221 Based on the [curve.mmb~] object from the mmb library
;
#X obj 322 509 == 0;
#X msg 322 555 1 \$1;
#X obj 322 576 -;
#X obj 179 389 snapshot~;
#X obj 250 533 +;
#X obj 295 453 t f f;
#X obj 250 467 exp;
#X msg 250 488 1 \$1;
#X obj 250 509 -;
#X text 167 291 Used [hv.vline] as subpatches;
#X text 167 171 Made by Mike Moreno;
#X obj 12 333 t a a b;
#X obj 12 41 inlet;
#X obj 268 363 t f f;
#X obj 106 398 t f f;
#X obj 179 410 t f f f;
#X obj 46 403 line~;
#X text 12 21 Note On;
#X obj 187 88 inlet;
#X obj 142 109 pack f f;
#X obj 142 73 f;
#X obj 157 52 inlet;
#X obj 277 88 inlet;
#X obj 232 109 pack f f;
#X obj 232 73 f;
#X obj 247 52 inlet;
#X obj 12 62 t b b b;
#X obj 72 41 inlet;
#X text 72 21 Note Off;
#X obj 72 62 t b b;
#X obj 332 68 f;
#X obj 347 47 inlet;
#X text 347 27 Release;
#X obj 407 47 inlet;
#X text 407 27 Curve;
#X text 157 32 Attack;
#X text 187 68 Peak;
#X text 247 32 Decay;
#X text 277 68 Sustain;
#X msg 332 109 \$1 0;
#X msg 142 130 \$2 \$1;
#X obj 450 15 loadbang;
#X obj 450 36 pack \$1 \$2 \$3 \$4 \$5 \$6;
#X obj 450 57 unpack f f f f f f;
#X connect 0 0 5 1;
#X connect 0 0 2 1;
#X connect 1 0 7 0;
#X connect 1 1 4 0;
#X connect 2 0 3 0;
#X connect 2 0 7 3;
#X connect 3 0 2 1;
#X connect 4 0 7 1;
#X connect 4 1 6 0;
#X connect 5 0 2 0;
#X connect 6 0 8 0;
#X connect 6 1 5 0;
#X connect 7 0 26 0;
#X connect 8 0 5 1;
#X connect 9 0 50 0;
#X connect 9 2 49 0;
#X connect 11 0 15 0;
#X connect 12 0 13 0;
#X connect 13 0 15 1;
#X connect 14 0 29 0;
#X connect 15 0 17 0;
#X connect 16 0 24 0;
#X connect 17 0 16 1;
#X connect 18 0 19 0;
#X connect 19 0 20 0;
#X connect 20 0 21 0;
#X connect 21 0 23 0;
#X connect 22 0 21 1;
#X connect 23 0 25 0;
#X connect 24 0 25 1;
#X connect 25 0 10 0;
#X connect 25 0 39 0;
#X connect 26 0 47 0;
#X connect 27 0 52 0;
#X connect 28 1 27 0;
#X connect 29 0 13 1;
#X connect 36 0 23 1;
#X connect 36 0 37 0;
#X connect 36 0 40 1;
#X connect 37 0 38 0;
#X connect 38 0 24 1;
#X connect 39 0 51 0;
#X connect 40 0 17 1;
#X connect 41 0 42 0;
#X connect 41 1 36 0;
#X connect 42 0 43 0;
#X connect 43 0 44 0;
#X connect 44 0 40 0;
#X connect 47 0 28 0;
#X connect 47 1 9 0;
#X connect 47 2 39 0;
#X connect 48 0 62 0;
#X connect 49 0 14 1;
#X connect 49 1 41 0;
#X connect 50 0 22 1;
#X connect 50 1 11 0;
#X connect 51 0 20 1;
#X connect 51 1 16 0;
#X connect 51 2 11 1;
#X connect 52 0 14 0;
#X connect 52 0 19 1;
#X connect 52 0 22 0;
#X connect 54 0 55 1;
#X connect 55 0 76 0;
#X connect 56 0 55 0;
#X connect 57 0 56 1;
#X connect 58 0 59 1;
#X connect 59 0 76 0;
#X connect 60 0 59 0;
#X connect 61 0 60 1;
#X connect 62 0 60 0;
#X connect 62 1 56 0;
#X connect 62 2 26 1;
#X connect 62 2 0 0;
#X connect 63 0 65 0;
#X connect 65 0 66 0;
#X connect 65 1 26 1;
#X connect 65 1 0 0;
#X connect 66 0 75 0;
#X connect 67 0 66 1;
#X connect 69 0 7 2;
#X connect 75 0 76 0;
#X connect 76 0 1 0;
#X connect 77 0 78 0;
#X connect 78 0 79 0;
#X connect 79 0 56 1;
#X connect 79 1 55 1;
#X connect 79 2 60 1;
#X connect 79 3 59 1;
#X connect 79 4 66 1;
#X connect 79 5 7 2;
