#N canvas 846 118 914 605 10;
#X msg 12 345 1 \$1;
#X obj 12 366 -;
#X obj 12 387 *;
#X obj 12 408 +;
#X obj 12 429 *;
#X obj 12 530 +;
#X obj 173 352 f;
#X obj 54 394 *;
#X obj 197 495 +;
#X obj 197 516 *;
#X obj 156 474 /;
#X msg 322 481 1 \$1;
#X obj 322 502 -;
#X obj 151 544 t f f;
#X obj 146 432 -;
#X obj 156 453 *;
#X msg 250 418 1 \$1;
#X obj 250 439 -;
#X obj 250 397 exp;
#X msg 290 418 1 \$1;
#X obj 290 439 -;
#X obj 290 397 exp;
#X obj 290 460 +;
#X obj 332 415 t f f f;
#X obj 129 380 t f f;
#X obj 250 333 *;
#X obj 104 181 until;
#X obj 134 73 unpack f f f;
#X obj 104 160 t f f b;
#X obj 104 253 i;
#X obj 134 253 + 1;
#X msg 143 232 0;
#X obj 104 295 /;
#X obj 198 216 i;
#X obj 228 216 + 1;
#X msg 188 149 0;
#X obj 173 373 t f f f;
#X obj 332 394 == 0;
#X obj 104 202 t b b;
#X obj 293 319 t f f f;
#X obj 123 274 - 1;
#X obj 37 319 t f f b f;
#X obj 134 11 inlet;
#X msg 134 52 \$2 \$1 \$3;
#X obj 151 565 outlet;
#X obj 198 279 outlet;
#X text 198 299 //x value;
#X text 201 565 //y value;
#X text 134 -9 //List (value \, time \, curve);
#X obj 542 84 inlet;
#X obj 542 105 unpack f f f;
#X obj 542 196 s \$0-value;
#X obj 576 175 s \$0-time;
#X obj 611 126 s \$0-curve;
#X obj 134 32 t a b;
#X obj 183 116 del 0;
#X connect 0 0 1 0;
#X connect 1 0 2 0;
#X connect 2 0 3 0;
#X connect 3 0 4 0;
#X connect 4 0 5 0;
#X connect 5 0 13 0;
#X connect 6 0 36 0;
#X connect 7 0 3 1;
#X connect 8 0 9 0;
#X connect 9 0 5 1;
#X connect 10 0 8 0;
#X connect 11 0 12 0;
#X connect 12 0 9 1;
#X connect 13 0 44 0;
#X connect 13 1 6 1;
#X connect 14 0 15 0;
#X connect 15 0 10 0;
#X connect 16 0 17 0;
#X connect 17 0 15 1;
#X connect 18 0 16 0;
#X connect 19 0 20 0;
#X connect 20 0 22 0;
#X connect 21 0 19 0;
#X connect 22 0 10 1;
#X connect 23 0 4 1;
#X connect 23 1 22 1;
#X connect 23 2 11 0;
#X connect 24 0 7 1;
#X connect 24 1 14 0;
#X connect 25 0 18 0;
#X connect 26 0 38 0;
#X connect 27 0 28 0;
#X connect 27 1 24 0;
#X connect 27 2 39 0;
#X connect 28 0 26 0;
#X connect 28 1 40 0;
#X connect 28 2 31 0;
#X connect 28 2 6 0;
#X connect 29 0 30 0;
#X connect 29 0 32 0;
#X connect 30 0 29 1;
#X connect 31 0 29 1;
#X connect 32 0 41 0;
#X connect 33 0 34 0;
#X connect 33 0 45 0;
#X connect 34 0 33 1;
#X connect 35 0 33 1;
#X connect 35 0 6 1;
#X connect 36 0 2 1;
#X connect 36 1 14 1;
#X connect 36 2 8 1;
#X connect 37 0 23 0;
#X connect 38 0 29 0;
#X connect 38 1 33 0;
#X connect 39 0 25 1;
#X connect 39 1 21 0;
#X connect 39 2 37 0;
#X connect 40 0 32 1;
#X connect 41 0 0 0;
#X connect 41 1 7 0;
#X connect 41 2 14 0;
#X connect 41 3 25 0;
#X connect 42 0 54 0;
#X connect 43 0 27 0;
#X connect 49 0 50 0;
#X connect 50 0 51 0;
#X connect 50 1 52 0;
#X connect 50 2 53 0;
#X connect 54 0 43 0;
#X connect 54 1 55 0;
#X connect 55 0 35 0;
#X coords 0 605 1 604 220 101 0;
