#N canvas 931 265 425 393 10;
#X obj 12 49 inlet;
#X obj 142 49 inlet;
#X obj 222 49 inlet;
#X text 12 29 (I1) Note On/Off;
#X text 142 29 (I2) Attack;
#X text 222 29 (I5) Release;
#X obj 12 306 lop~;
#X obj 12 118 t b b;
#X obj 12 327 outlet~;
#X obj 308 12 loadbang;
#X text 12 347 (O1) Exponential Envelope;
#X obj 12 71 s \$0-trigger;
#X obj 12 97 r \$0-trigger;
#X obj 12 185 del 2;
#X obj 308 33 pack \$1 \$2;
#X msg 12 227 0 \$1;
#X obj 142 91 v \$0-attack;
#X obj 222 121 v \$0-release;
#X obj 12 206 v \$0-release;
#X obj 39 138 v \$0-attack;
#X obj 12 248 unpack f f;
#X msg 69 269 1000 \$1;
#X obj 69 290 /;
#X msg 39 159 1 \$1;
#X obj 142 70 max 0.01;
#X obj 222 100 max 0.01;
#X floatatom 83 234 5 0 0 0 - - -;
#X floatatom 118 193 5 0 0 0 - - -;
#X obj 308 54 unpack f f;
#X connect 0 0 11 0;
#X connect 1 0 24 0;
#X connect 2 0 25 0;
#X connect 6 0 8 0;
#X connect 7 0 13 0;
#X connect 7 1 19 0;
#X connect 9 0 14 0;
#X connect 12 0 7 0;
#X connect 13 0 18 0;
#X connect 14 0 28 0;
#X connect 15 0 20 0;
#X connect 18 0 15 0;
#X connect 18 0 26 0;
#X connect 19 0 23 0;
#X connect 19 0 27 0;
#X connect 20 0 6 0;
#X connect 20 1 21 0;
#X connect 21 0 22 0;
#X connect 22 0 6 1;
#X connect 23 0 20 0;
#X connect 24 0 16 0;
#X connect 25 0 17 0;
#X connect 28 0 24 0;
#X connect 28 1 25 0;
