#N canvas 958 196 698 406 10;
#X obj 106 72 unpack f f f;
#X obj 31 357 outlet~;
#X obj 133 226 -~;
#X obj 165 212 sig~ 1;
#X obj 165 233 -~;
#X obj 215 198 *~;
#X obj 133 247 *~;
#X obj 118 296 +~;
#X obj 133 274 /~;
#X obj 31 166 sig~ 1;
#X obj 31 187 -~;
#X obj 31 208 *~;
#X obj 31 229 +~;
#X obj 74 215 *~;
#X obj 31 250 *~;
#X obj 118 317 *~;
#X obj 31 331 +~;
#N canvas 349 167 179 187 hv.vline 0;
#X obj 12 34 t a b;
#X msg 75 56 0;
#N canvas 274 138 292 165 dbl-pipe 0;
#X obj 22 22 inlet;
#X obj 82 22 inlet;
#X obj 182 22 inlet;
#X obj 22 64 pipe 0;
#X obj 82 64 pipe 0;
#X obj 22 86 outlet;
#X obj 82 86 outlet;
#X obj 132 64 pipe 0;
#X obj 132 86 outlet;
#X obj 132 22 inlet;
#X obj 239 29 inlet;
#X msg 239 50 clear;
#X connect 0 0 3 0;
#X connect 0 0 4 0;
#X connect 1 0 4 0;
#X connect 2 0 3 1;
#X connect 2 0 4 1;
#X connect 2 0 7 1;
#X connect 3 0 5 0;
#X connect 4 0 6 0;
#X connect 7 0 8 0;
#X connect 9 0 7 0;
#X connect 10 0 11 0;
#X connect 11 0 7 0;
#X connect 11 0 4 0;
#X connect 11 0 3 0;
#X restore 12 100 pd dbl-pipe;
#X obj 12 78 unpack f f f f;
#X obj 12 122 pack f f f;
#X obj 12 12 inlet;
#X obj 12 144 outlet;
#X obj 110 86 inlet;
#X connect 0 0 3 0;
#X connect 0 1 1 0;
#X connect 1 0 2 3;
#X connect 2 0 4 0;
#X connect 2 1 4 1;
#X connect 2 2 4 2;
#X connect 3 0 2 0;
#X connect 3 1 2 1;
#X connect 3 2 2 2;
#X connect 3 3 2 3;
#X connect 4 0 6 0;
#X connect 5 0 0 0;
#X connect 7 0 2 4;
#X restore 12 36 pd hv.vline;
#X msg 46 106 0 \, 1 \$1;
#X obj 12 80 unpack f f f;
#X obj 215 219 exp~;
#X text 355 101 https://github.com/dotmmb/mmb;
#X text 345 81 Mike Moser-Booth;
#X text 355 171 https://github.com/enzienaudio/heavylib;
#X text 345 151 from the heavylib;
#X text 355 31 https://github.com/MikeMorenoAudio;
#X text 345 61 Based on the [curve.mmb~] object from the mmb library
;
#X obj 322 236 == 0;
#X msg 322 282 1 \$1;
#X obj 322 303 -;
#X obj 179 114 snapshot~;
#X obj 250 260 +;
#X obj 295 178 t f f;
#X obj 250 192 exp;
#X msg 250 213 1 \$1;
#X obj 250 234 -;
#X text 345 131 Used [hv.vline] as subpatches;
#X text 345 11 Made by Mike Moreno;
#X obj 12 58 t a a b;
#X obj 12 14 inlet;
#X obj 75 15 inlet;
#X obj 268 86 t f f;
#X obj 106 123 t f f;
#X obj 179 135 t f f f;
#X obj 46 128 line~;
#X connect 0 0 42 0;
#X connect 0 2 41 0;
#X connect 2 0 6 0;
#X connect 3 0 4 0;
#X connect 4 0 6 1;
#X connect 5 0 20 0;
#X connect 6 0 8 0;
#X connect 7 0 15 0;
#X connect 8 0 7 1;
#X connect 9 0 10 0;
#X connect 10 0 11 0;
#X connect 11 0 12 0;
#X connect 12 0 14 0;
#X connect 13 0 12 1;
#X connect 14 0 16 0;
#X connect 15 0 16 1;
#X connect 16 0 1 0;
#X connect 16 0 30 0;
#X connect 17 0 38 0;
#X connect 18 0 44 0;
#X connect 19 1 18 0;
#X connect 20 0 4 1;
#X connect 27 0 14 1;
#X connect 27 0 28 0;
#X connect 27 0 31 1;
#X connect 28 0 29 0;
#X connect 29 0 15 1;
#X connect 30 0 43 0;
#X connect 31 0 8 1;
#X connect 32 0 33 0;
#X connect 32 1 27 0;
#X connect 33 0 34 0;
#X connect 34 0 35 0;
#X connect 35 0 31 0;
#X connect 38 0 19 0;
#X connect 38 1 0 0;
#X connect 38 2 30 0;
#X connect 39 0 17 0;
#X connect 40 0 17 1;
#X connect 41 0 5 1;
#X connect 41 1 32 0;
#X connect 42 0 13 1;
#X connect 42 1 2 0;
#X connect 43 0 11 1;
#X connect 43 1 7 0;
#X connect 43 2 2 1;
#X connect 44 0 5 0;
#X connect 44 0 10 1;
#X connect 44 0 13 0;
