#N canvas 931 265 629 603 10;
#X obj 12 49 inlet;
#X obj 182 411 unpack f f f;
#N canvas 1209 617 252 151 dbl-pipe 0;
#X obj 12 41 inlet;
#X obj 72 41 inlet;
#X obj 132 41 inlet;
#X obj 12 83 pipe 0;
#X obj 72 83 pipe 0;
#X obj 12 109 outlet;
#X obj 72 109 outlet;
#X text 12 21 Value 1;
#X text 72 21 Value 2;
#X text 132 21 Delay;
#X connect 0 0 3 0;
#X connect 1 0 4 0;
#X connect 2 0 3 1;
#X connect 2 0 4 1;
#X connect 3 0 5 0;
#X connect 4 0 6 0;
#X restore 182 432 pd dbl-pipe;
#X obj 182 453 pack f f;
#X obj 142 49 inlet;
#X obj 232 49 inlet;
#X obj 312 49 inlet;
#X obj 402 49 inlet;
#X text 12 29 (I1) Note On/Off;
#X obj 12 70 sel 1 0;
#X text 142 29 (I2) Attack;
#X text 232 29 (I3) Decay;
#X text 312 29 (I4) Sustain;
#X text 402 29 (I5) Release;
#X obj 182 474 unpack f f;
#X msg 239 495 1000 \$1;
#X obj 239 516 /;
#X obj 182 532 lop~;
#X obj 142 70 max 1;
#X obj 232 70 max 1;
#X obj 402 70 max 1;
#X obj 12 112 s \$0-note-on;
#X obj 31 91 s \$0-note-off;
#X obj 12 138 r \$0-note-on;
#X obj 142 91 s \$0-attack;
#X obj 232 91 s \$0-decay;
#X obj 312 70 clip 0 1;
#X obj 312 91 s \$0-sustain;
#X obj 402 91 s \$0-release;
#X obj 32 202 r \$0-attack;
#X obj 72 270 r \$0-decay;
#X obj 93 291 r \$0-sustain;
#X obj 12 312 pack f f f f f;
#X obj 32 223 t f f;
#X obj 59 244 + 1;
#X obj 182 181 r \$0-note-off;
#X obj 182 268 f;
#X obj 197 246 r \$0-release;
#X msg 182 289 0 \$1;
#X obj 12 159 t b b;
#X obj 39 180 s \$0-clear;
#X obj 182 203 t b b;
#X obj 209 224 s \$0-clear;
#X obj 182 553 outlet~;
#X obj 488 12 loadbang;
#X obj 488 33 pack \$1 \$2 \$3 \$4;
#X obj 488 54 unpack f f f f;
#X msg 12 333 1 \$2 0 \, \$5 \$4 \$3;
#X msg 209 390 0;
#X obj 182 369 t a b;
#X obj 268 395 r \$0-clear;
#X msg 268 416 clear;
#X text 182 573 (O1) Exponential Envelope;
#X connect 0 0 9 0;
#X connect 1 0 2 0;
#X connect 1 1 2 1;
#X connect 1 2 2 2;
#X connect 2 0 3 0;
#X connect 2 1 3 1;
#X connect 3 0 14 0;
#X connect 4 0 18 0;
#X connect 5 0 19 0;
#X connect 6 0 26 0;
#X connect 7 0 20 0;
#X connect 9 0 21 0;
#X connect 9 1 22 0;
#X connect 14 0 17 0;
#X connect 14 1 15 0;
#X connect 15 0 16 0;
#X connect 16 0 17 1;
#X connect 17 0 43 0;
#X connect 18 0 24 0;
#X connect 19 0 25 0;
#X connect 20 0 28 0;
#X connect 23 0 39 0;
#X connect 26 0 27 0;
#X connect 29 0 33 0;
#X connect 30 0 32 3;
#X connect 31 0 32 4;
#X connect 32 0 47 0;
#X connect 33 0 32 1;
#X connect 33 1 34 0;
#X connect 34 0 32 2;
#X connect 35 0 41 0;
#X connect 36 0 38 0;
#X connect 37 0 36 1;
#X connect 38 0 49 0;
#X connect 39 0 32 0;
#X connect 39 1 40 0;
#X connect 41 0 36 0;
#X connect 41 1 42 0;
#X connect 44 0 45 0;
#X connect 45 0 46 0;
#X connect 46 0 18 0;
#X connect 46 1 19 0;
#X connect 46 2 26 0;
#X connect 46 3 20 0;
#X connect 47 0 49 0;
#X connect 48 0 2 2;
#X connect 49 0 1 0;
#X connect 49 1 48 0;
#X connect 50 0 51 0;
#X connect 51 0 2 1;
#X connect 51 0 2 0;
