#N canvas 1070 472 633 540 10;
#X declare -path ../07-Math;
#X obj 91 132 notein;
#X obj 229 98 declare -path ../07-Math;
#X obj 100 192 mtof;
#X obj 100 213 osc~;
#X obj 100 234 *~;
#X obj 100 255 *~ 0.1;
#X obj 100 276 clip~ -1 1;
#X obj 100 297 dac~ 1 2;
#N canvas 0 22 450 278 (subpatch) 0;
#X array \$0-scope 44100 float 0;
#X coords 0 1 44100 -1 200 140 1;
#X restore 208 356 graph;
#X obj 176 211 en.eadsr~ 100 100 0.5 1000;
#X obj 100 171 mono last 1;
#X connect 0 0 10 0;
#X connect 0 1 10 1;
#X connect 2 0 3 0;
#X connect 3 0 4 0;
#X connect 4 0 5 0;
#X connect 5 0 6 0;
#X connect 6 0 7 0;
#X connect 6 0 7 1;
#X connect 9 0 4 1;
#X connect 10 0 2 0;
#X connect 10 1 9 0;
