#N canvas 835 417 301 359 10;
#X obj 2 31 inlet;
#X obj 2 305 s camomile;
#X obj 2 257 pack f \$1;
#X obj 2 173 t f b;
#X obj 29 195 f \$1;
#X obj 29 217 s camo.param.change;
#X msg 2 281 param set \$2 \$1;
#X obj 122 76 symbol \$2;
#X obj 77 143 spigot 0;
#X obj 122 99 sel \$2;
#X obj 122 53 loadbang;
#X obj 122 121 f 1;
#X obj 77 31 receive \$2;
#X obj 2 52 spigot \$1;
#X text 77 11 // Receive values from GUI;
#X text 29 237 // Notify parameter change;
#X text 2 325 // Set parameter;
#X connect 0 0 13 0;
#X connect 2 0 6 0;
#X connect 3 0 2 0;
#X connect 3 1 4 0;
#X connect 4 0 5 0;
#X connect 6 0 1 0;
#X connect 7 0 9 0;
#X connect 8 0 3 0;
#X connect 9 0 11 0;
#X connect 10 0 7 0;
#X connect 11 0 8 1;
#X connect 12 0 8 0;
#X connect 13 0 3 0;
