#N canvas 786 362 261 316 10;
#X obj 12 53 route \$1;
#X obj 39 120 outlet;
#X obj 12 229 spigot 0;
#X obj 12 97 t f f;
#X obj 57 182 loadbang;
#X obj 12 31 receive param;
#X obj 12 75 change -1e+37;
#X msg 57 203 1;
#X obj 12 252 send \$2;
#X text 12 272 // Send to variable;
#X text 39 140 (O1) Output for setting GUI;
#X text 12 11 // Receive parameter from Camomile;
#X connect 0 0 6 0;
#X connect 2 0 8 0;
#X connect 3 0 2 0;
#X connect 3 1 1 0;
#X connect 4 0 7 0;
#X connect 5 0 0 0;
#X connect 6 0 3 0;
#X connect 7 0 2 1;
