#N canvas 755 276 660 317 10;
#X obj 12 12 notein;
#X obj 12 54 pack f f f;
#X obj 12 75 s \$0-poly;
#X obj 12 96 r \$0-poly;
#X obj 12 117 route 1;
#X obj 12 138 unpack f f;
#X obj 12 230 hip~ 3;
#X obj 12 272 dac~ 1 2;
#X obj 92 96 r \$0-poly;
#X obj 92 138 unpack f f;
#X obj 162 96 r \$0-poly;
#X obj 162 138 unpack f f;
#X obj 242 96 r \$0-poly;
#X obj 242 138 unpack f f;
#X obj 312 96 r \$0-poly;
#X obj 312 138 unpack f f;
#X obj 392 96 r \$0-poly;
#X obj 392 138 unpack f f;
#X obj 92 117 route 2;
#X obj 162 117 route 3;
#X obj 242 117 route 4;
#X obj 312 117 route 5;
#X obj 392 117 route 6;
#X obj 12 33 poly 6 1;
#N canvas 4 23 162 227 hv.tanh 0;
#X obj 12 12 inlet~;
#X obj 12 38 clip~ -3 3;
#X obj 27 64 *~;
#X obj 12 192 outlet~;
#X obj 27 140 /~;
#X obj 12 166 *~;
#X obj 67 90 *~ 9;
#X obj 27 90 +~ 27;
#X obj 67 116 +~ 27;
#X connect 0 0 1 0;
#X connect 1 0 2 0;
#X connect 1 0 2 1;
#X connect 1 0 5 0;
#X connect 2 0 7 0;
#X connect 2 0 6 0;
#X connect 4 0 5 1;
#X connect 5 0 3 0;
#X connect 6 0 8 0;
#X connect 7 0 4 0;
#X connect 8 0 4 1;
#X restore 12 204 pd hv.tanh;
#X obj 12 251 *~ 1;
#X obj 462 96 r \$0-poly;
#X obj 462 138 unpack f f;
#X obj 542 96 r \$0-poly;
#X obj 542 138 unpack f f;
#X obj 462 117 route 7;
#X obj 542 117 route 8;
#X obj 12 183 /~ 2;
#X obj 12 159 piano~;
#X obj 92 159 piano~;
#X obj 162 159 piano~;
#X obj 242 159 piano~;
#X obj 312 159 piano~;
#X obj 392 159 piano~;
#X obj 462 159 piano~;
#X obj 542 159 piano~;
#X msg 124 235 open ./piano.wav \, start;
#X obj 124 256 writesf~;
#X msg 327 236 stop;
#X connect 0 0 23 0;
#X connect 0 1 23 1;
#X connect 1 0 2 0;
#X connect 3 0 4 0;
#X connect 4 0 5 0;
#X connect 5 0 33 0;
#X connect 5 1 33 1;
#X connect 6 0 25 0;
#X connect 8 0 18 0;
#X connect 9 0 34 0;
#X connect 9 1 34 1;
#X connect 10 0 19 0;
#X connect 11 0 35 0;
#X connect 11 1 35 1;
#X connect 12 0 20 0;
#X connect 13 0 36 0;
#X connect 13 1 36 1;
#X connect 14 0 21 0;
#X connect 15 0 37 0;
#X connect 15 1 37 1;
#X connect 16 0 22 0;
#X connect 17 0 38 0;
#X connect 17 1 38 1;
#X connect 18 0 9 0;
#X connect 19 0 11 0;
#X connect 20 0 13 0;
#X connect 21 0 15 0;
#X connect 22 0 17 0;
#X connect 23 0 1 0;
#X connect 23 1 1 1;
#X connect 23 2 1 2;
#X connect 24 0 6 0;
#X connect 24 0 42 0;
#X connect 25 0 7 0;
#X connect 25 0 7 1;
#X connect 26 0 30 0;
#X connect 27 0 39 0;
#X connect 27 1 39 1;
#X connect 28 0 31 0;
#X connect 29 0 40 0;
#X connect 29 1 40 1;
#X connect 30 0 27 0;
#X connect 31 0 29 0;
#X connect 32 0 24 0;
#X connect 33 0 32 0;
#X connect 34 0 32 0;
#X connect 35 0 32 0;
#X connect 36 0 32 0;
#X connect 37 0 32 0;
#X connect 38 0 32 0;
#X connect 39 0 32 0;
#X connect 40 0 32 0;
#X connect 41 0 42 0;
#X connect 43 0 42 0;
