#N canvas 536 23 919 584 10;
#N canvas 0 22 450 278 (subpatch) 0;
#X array \$0-scope 128 float 0;
#X coords 0 1 128 -1 200 140 1;
#X restore 650 407 graph;
#X obj 341 200 vsl 15 128 100 6000 1 1 empty empty Min-Freq 0 -9 0
10 -262144 -1 -1 8400 1;
#X floatatom 341 337 5 0 0 1 Hz - -;
#X msg 341 357 1 \$1;
#X obj 411 200 vsl 15 128 0 12 0 1 empty empty Multiplier 0 -9 0 10
-262144 -1 -1 11642 1;
#X floatatom 411 337 5 0 0 1 - - -;
#X msg 411 357 2 \$1;
#X obj 481 200 vsl 15 128 0.1 100 1 1 empty empty Slew 0 -9 0 10 -262144
-1 -1 12700 1;
#X obj 551 200 vsl 15 128 1 100 1 1 empty empty Decay-1 0 -9 0 10 -262144
-1 -1 10788 1;
#X floatatom 551 337 5 0 0 1 ms - -;
#X floatatom 481 337 5 0 0 1 ms - -;
#X msg 481 357 3 \$1;
#X msg 551 357 4 \$1;
#X obj 621 200 vsl 15 128 1 100 1 1 empty empty Decay-2 0 -9 0 10 -262144
-1 -1 7813 1;
#X floatatom 621 337 5 0 0 1 ms - -;
#X msg 621 357 5 \$1;
#X obj 691 200 vsl 15 128 100 10000 1 1 empty empty Trig-Rate 0 -9
0 10 -262144 -1 -1 12700 1;
#X floatatom 691 337 5 0 0 1 - - -;
#X msg 691 357 6 \$1;
#X obj 761 200 vsl 15 128 100 10000 1 1 empty empty Freq-Rate 0 -9
0 10 -262144 -1 -1 7468 1;
#X floatatom 761 337 5 0 0 1 - - -;
#X msg 761 357 7 \$1;
#X obj 831 200 vsl 15 128 6 24 1 1 empty empty Volume 0 -9 0 10 -262144
-1 -1 12700 1;
#X floatatom 831 337 5 0 0 1 dB - -;
#X msg 831 357 8 \$1;
#X obj 169 182 unpack f f f f f f f f;
#X obj 122 464 clip~ -1 1;
#X obj 122 485 hip~ 3;
#X obj 122 506 *~ 0.7;
#X obj 122 527 dac~ 1 2;
#X obj 195 320 noise~;
#X obj 195 278 loadbang;
#X obj 272 320 noise~;
#X obj 272 278 loadbang;
#X obj 195 341 /~ 2;
#X obj 195 362 +~ 0.5;
#X obj 272 341 /~ 2;
#X obj 272 362 +~ 0.5;
#X obj 137 418 tgl 16 0 empty empty LISTEN 0 -7 0 10 -262144 -1 -1
1 1;
#X obj 122 439 *~;
#N canvas 909 34 338 345 presets 0;
#X msg 82 174 1600 8 2 1 4 200 100 12;
#X msg 112 112 1500 9 0.5 0.75 0.1 10000 1000 12;
#X msg 132 71 1500 11 100 50 17 10000 1500 36;
#X msg 42 237 350 3 10 20 10 300 900 24;
#X msg 92 154 1500 9 1 5 5 10000 5000 30;
#X msg 13 279 100 12 40 25 25 1100 3000 36;
#X msg 72 195 1000 9 1 8 1 100 100 12;
#X msg 52 216 500 6 4 10 10 1000 1500 24;
#X msg 102 133 440 4 0.1 100 100 100 10000 12;
#X obj 12 300 outlet;
#X obj 13 12 inlet;
#X obj 13 33 sel 0 1 2 3 4 5 6 7 8 9 10;
#X msg 122 91 1700 2 100 100 2431 1094 1500 30;
#X msg 22 258 100 9 37 50 17 4500 1500 30;
#X connect 0 0 9 0;
#X connect 1 0 9 0;
#X connect 2 0 9 0;
#X connect 3 0 9 0;
#X connect 4 0 9 0;
#X connect 5 0 9 0;
#X connect 6 0 9 0;
#X connect 7 0 9 0;
#X connect 8 0 9 0;
#X connect 10 0 11 0;
#X connect 11 0 5 0;
#X connect 11 1 13 0;
#X connect 11 2 3 0;
#X connect 11 3 7 0;
#X connect 11 4 6 0;
#X connect 11 5 0 0;
#X connect 11 6 4 0;
#X connect 11 7 8 0;
#X connect 11 8 1 0;
#X connect 11 9 12 0;
#X connect 11 10 2 0;
#X connect 12 0 9 0;
#X connect 13 0 9 0;
#X restore 169 160 pd presets;
#X obj 169 34 vradio 11 1 0 11 empty empty empty 0 -8 0 10 -262144
-1 -1 10;
#X text 186 31 1 Fast Low Bubbles \; 2 Slow Low Bubbles \; 3 Fast Mid
Bubbles \; 4 Mid Bubbles \; 5 Fast Stream \; 6 Fast High Stream \;
7 Droplets \; 8 Sample And Hold \; 9 Crackle \; 10 Boiling Teapot \;
11 Birds Chirping \;;
#X text 186 11 PRESETS;
#X msg 195 299 seed 410;
#X msg 272 299 seed 414;
#X obj 122 383 running-water~ 2120 9 2 1 5 1000 500 6;
#N canvas 531 39 539 602 water-stream 0;
#X obj 12 484 hip~ 500;
#X obj 12 505 hip~ 500;
#X obj 12 526 hip~ 500;
#X obj 12 463 lop~ 150;
#X obj 12 442 lop~ 100;
#X obj 90 55 noise~;
#X obj 90 13 loadbang;
#X obj 170 55 noise~;
#X obj 170 13 loadbang;
#X obj 90 76 /~ 2;
#X obj 90 97 +~ 0.5;
#X obj 170 76 /~ 2;
#X obj 170 97 +~ 0.5;
#X msg 90 34 seed 210;
#X msg 170 34 seed 214;
#X obj 349 55 noise~;
#X obj 349 13 loadbang;
#X obj 426 55 noise~;
#X obj 426 13 loadbang;
#X obj 349 76 /~ 2;
#X obj 349 97 +~ 0.5;
#X obj 426 76 /~ 2;
#X obj 426 97 +~ 0.5;
#X msg 349 34 seed 310;
#X msg 426 34 seed 314;
#X obj 12 420 hip~ 4000;
#X obj 134 217 noise~;
#X obj 254 238 pow~ 11;
#X obj 254 280 lop~ 500;
#X obj 134 238 pow~ 2;
#X obj 134 383 hip~ 3000;
#X obj 134 362 hip~ 3000;
#X obj 134 341 bp~ 6000 0.7;
#X obj 254 259 lop~ 1500;
#X obj 149 280 r \$0-s-mid-tgl-4;
#X obj 269 301 r \$0-s-low-tgl-4;
#X obj 134 259 *~ 0.08;
#X obj 134 301 *~ 1;
#X obj 254 322 *~ 1;
#X obj 134 404 *~ 0.25;
#X obj 12 547 *~ 4000;
#X obj 12 120 running-water~ 500 3 1 20 20 3000 6000 12;
#X obj 12 146 running-water~ 500 6 2 10 20 2500 5000 6;
#X obj 12 172 running-water~ 3000 6 1 1 10 1000 2000 12;
#X obj 272 120 running-water~ 530 3 2 20 40 1250 2500 6;
#X obj 272 146 running-water~ 530 6 2 10 20 1500 3000 6;
#X obj 272 172 running-water~ 2120 9 2 2 10 1750 7000 3;
#X obj 272 212 running-water~ 2120 9 2 1 5 1000 500 6;
#X obj 457 381 inlet;
#X obj 457 402 switch~;
#X obj 12 568 outlet~;
#X connect 0 0 1 0;
#X connect 1 0 2 0;
#X connect 2 0 40 0;
#X connect 3 0 0 0;
#X connect 4 0 3 0;
#X connect 5 0 9 0;
#X connect 6 0 13 0;
#X connect 7 0 11 0;
#X connect 8 0 14 0;
#X connect 9 0 10 0;
#X connect 10 0 41 1;
#X connect 11 0 12 0;
#X connect 12 0 41 2;
#X connect 13 0 5 0;
#X connect 14 0 7 0;
#X connect 15 0 19 0;
#X connect 16 0 23 0;
#X connect 17 0 21 0;
#X connect 18 0 24 0;
#X connect 19 0 20 0;
#X connect 20 0 44 1;
#X connect 21 0 22 0;
#X connect 22 0 44 2;
#X connect 23 0 15 0;
#X connect 24 0 17 0;
#X connect 25 0 4 0;
#X connect 26 0 29 0;
#X connect 26 0 27 0;
#X connect 27 0 33 0;
#X connect 28 0 38 0;
#X connect 29 0 36 0;
#X connect 30 0 39 0;
#X connect 31 0 30 0;
#X connect 32 0 31 0;
#X connect 33 0 28 0;
#X connect 34 0 37 1;
#X connect 35 0 38 1;
#X connect 36 0 37 0;
#X connect 37 0 32 0;
#X connect 38 0 32 0;
#X connect 39 0 25 0;
#X connect 40 0 50 0;
#X connect 41 0 42 0;
#X connect 41 1 42 1;
#X connect 41 2 42 2;
#X connect 42 0 43 0;
#X connect 42 1 43 1;
#X connect 42 2 43 2;
#X connect 43 0 25 0;
#X connect 44 0 45 0;
#X connect 44 1 45 1;
#X connect 44 2 45 2;
#X connect 45 0 46 0;
#X connect 45 1 46 1;
#X connect 45 2 46 2;
#X connect 46 0 47 0;
#X connect 46 1 47 1;
#X connect 46 2 47 2;
#X connect 47 0 25 0;
#X connect 48 0 49 0;
#X restore 12 383 pd water-stream;
#X obj 12 362 tgl 16 0 empty empty LISTEN-WATER-STREAM 0 -7 0 10 -262144
-1 -1 1 1;
#X obj 196 438 tgl 16 0 empty empty LISTEN 0 -7 0 10 -262144 -1 -1
1 1;
#X obj 196 459 metro 50;
#X obj 196 480 tabwrite~ \$0-scope;
#X connect 1 0 2 0;
#X connect 2 0 3 0;
#X connect 3 0 46 3;
#X connect 4 0 5 0;
#X connect 5 0 6 0;
#X connect 6 0 46 3;
#X connect 7 0 10 0;
#X connect 8 0 9 0;
#X connect 9 0 12 0;
#X connect 10 0 11 0;
#X connect 11 0 46 3;
#X connect 12 0 46 3;
#X connect 13 0 14 0;
#X connect 14 0 15 0;
#X connect 15 0 46 3;
#X connect 16 0 17 0;
#X connect 17 0 18 0;
#X connect 18 0 46 3;
#X connect 19 0 20 0;
#X connect 20 0 21 0;
#X connect 21 0 46 3;
#X connect 22 0 23 0;
#X connect 23 0 24 0;
#X connect 24 0 46 3;
#X connect 25 0 1 0;
#X connect 25 1 4 0;
#X connect 25 2 7 0;
#X connect 25 3 8 0;
#X connect 25 4 13 0;
#X connect 25 5 16 0;
#X connect 25 6 19 0;
#X connect 25 7 22 0;
#X connect 26 0 27 0;
#X connect 26 0 51 0;
#X connect 27 0 28 0;
#X connect 28 0 29 0;
#X connect 28 0 29 1;
#X connect 30 0 34 0;
#X connect 31 0 44 0;
#X connect 32 0 36 0;
#X connect 33 0 45 0;
#X connect 34 0 35 0;
#X connect 35 0 46 1;
#X connect 36 0 37 0;
#X connect 37 0 46 2;
#X connect 38 0 39 1;
#X connect 39 0 26 0;
#X connect 40 0 25 0;
#X connect 41 0 40 0;
#X connect 44 0 30 0;
#X connect 45 0 32 0;
#X connect 46 0 39 0;
#X connect 47 0 26 0;
#X connect 48 0 47 0;
#X connect 49 0 50 0;
#X connect 50 0 51 0;
