#N canvas 179 331 646 532 10;
#X obj 83 412 osc~;
#X obj 83 236 samphold~;
#X obj 83 433 *~;
#X obj 83 370 pow~;
#X obj 134 138 sig~ 1;
#X obj 134 159 -~;
#X obj 283 297 lop~ 50;
#X obj 83 287 lop~ 1000;
#X obj 12 470 outlet~;
#X obj 83 36 inlet~;
#X obj 283 45 inlet~;
#X obj 103 67 outlet~;
#X obj 303 76 outlet~;
#X obj 83 328 loadbang;
#X obj 151 208 loadbang;
#X msg 151 250 1000 \$1;
#X obj 151 271 /;
#X obj 389 124 loadbang;
#X obj 332 213 loadbang;
#X msg 332 255 1000 \$1;
#X obj 332 276 /;
#X obj 153 354 loadbang;
#X obj 153 375 f \$1;
#X obj 83 349 f \$2;
#X text 83 308 //(2) Multiplier;
#X obj 151 229 f \$3;
#X obj 332 234 f \$4;
#X obj 83 391 *~ 500;
#X obj 283 161 pow~ 500;
#X text 293 106 //Trigger Thru;
#X text 103 107 //Frequency Thru;
#X obj 402 375 loadbang;
#X obj 402 417 + 100;
#X obj 402 438 dbtorms;
#X obj 216 31 loadbang;
#X obj 519 96 inlet;
#X text 153 334 //(1) Min. Frq. (Hz);
#X obj 193 375 r \$0-1;
#X obj 38 349 r \$0-2;
#X obj 191 229 r \$0-3;
#X obj 287 234 r \$0-4;
#X obj 546 201 pack f \$0;
#X msg 546 222 symbol \$2-\$1;
#X obj 519 241 s;
#X text 83 16 //Frequency Signal;
#X text 283 25 //Trigger Signal;
#X text 12 490 //Audio Out / Thru;
#X obj 12 444 inlet~;
#X text 12 424 //Audio In;
#X obj 283 417 lop~ 50;
#X obj 332 333 loadbang;
#X msg 332 375 1000 \$1;
#X obj 332 396 /;
#X obj 287 354 r \$0-5;
#X obj 332 354 f \$5;
#X text 332 313 //(5) Decay Time 2 (ms);
#X text 332 193 //(4) Decay Time 1 (ms);
#X text 389 104 //(6) Trigger Rate;
#X obj 389 145 f \$6;
#X obj 419 145 r \$0-6;
#X obj 216 52 f \$7;
#X obj 171 52 r \$0-7;
#X text 216 11 //(7) Frq Trigger Rate;
#X obj 402 396 f \$8;
#X obj 442 396 r \$0-8;
#X obj 183 143 pow~ 2;
#X obj 283 140 clip~ 0 1;
#X obj 83 214 clip~ 0 1;
#X obj 519 138 unpack f f;
#X obj 546 159 i;
#X obj 546 180 moses 9;
#X msg 519 117 \$2 \$1;
#X obj 83 454 *~;
#X text 402 355 //(8) Volume (dB);
#X text 519 76 //I: Parameters;
#X text 151 188 //(3) Slew (ms);
#X connect 0 0 2 0;
#X connect 1 0 7 0;
#X connect 2 0 72 0;
#X connect 3 0 27 0;
#X connect 4 0 5 0;
#X connect 5 0 1 1;
#X connect 6 0 49 0;
#X connect 7 0 3 1;
#X connect 9 0 11 0;
#X connect 9 0 67 0;
#X connect 10 0 12 0;
#X connect 10 0 65 0;
#X connect 10 0 66 0;
#X connect 13 0 23 0;
#X connect 14 0 25 0;
#X connect 15 0 16 0;
#X connect 16 0 7 1;
#X connect 17 0 58 0;
#X connect 18 0 26 0;
#X connect 19 0 20 0;
#X connect 20 0 6 1;
#X connect 21 0 22 0;
#X connect 22 0 27 1;
#X connect 23 0 3 0;
#X connect 25 0 15 0;
#X connect 26 0 19 0;
#X connect 27 0 0 0;
#X connect 28 0 6 0;
#X connect 31 0 63 0;
#X connect 32 0 33 0;
#X connect 33 0 72 1;
#X connect 34 0 60 0;
#X connect 35 0 71 0;
#X connect 37 0 27 1;
#X connect 38 0 3 0;
#X connect 39 0 15 0;
#X connect 40 0 19 0;
#X connect 41 0 42 0;
#X connect 42 0 43 1;
#X connect 47 0 8 0;
#X connect 49 0 2 1;
#X connect 50 0 54 0;
#X connect 51 0 52 0;
#X connect 52 0 49 1;
#X connect 53 0 51 0;
#X connect 54 0 51 0;
#X connect 58 0 28 1;
#X connect 59 0 28 1;
#X connect 60 0 65 1;
#X connect 61 0 65 1;
#X connect 63 0 32 0;
#X connect 64 0 32 0;
#X connect 65 0 5 1;
#X connect 66 0 28 0;
#X connect 67 0 1 0;
#X connect 68 0 43 0;
#X connect 68 1 69 0;
#X connect 69 0 70 0;
#X connect 70 0 41 0;
#X connect 71 0 68 0;
#X connect 72 0 8 0;
