#N canvas 976 671 366 374 10;
#X msg 92 234 open ./water.wav \, start;
#X obj 92 255 writesf~;
#X msg 242 234 stop;
#X obj 92 199 t b b;
#X obj 242 213 del 8000;
#X obj 242 255 print;
#X obj 92 178 bng 16 250 50 0 empty empty empty 17 7 0 10 -262144 -1
-1;
#X obj 12 262 clip~ -1 1;
#X obj 12 283 hip~ 3;
#X obj 12 325 dac~ 1 2;
#X obj 12 241 *~ 0.7;
#X obj 12 304 *~ 0.7;
#X obj 162 12 noise~;
#N canvas 890 151 636 330 steam-1 0;
#X obj 12 75 noise~;
#X obj 12 96 /~ 2;
#X obj 12 117 +~ 0.5;
#X obj 12 245 osc~;
#X obj 12 138 samphold~;
#X obj 12 266 *~;
#X obj 12 202 pow~;
#X obj 63 96 sig~ 1;
#X obj 63 117 -~;
#X obj 12 33 loadbang;
#X obj 112 126 loadbang;
#X obj 182 75 noise~;
#X obj 182 96 /~ 2;
#X obj 182 117 +~ 0.5;
#X obj 182 245 osc~;
#X obj 182 138 samphold~;
#X obj 182 266 *~;
#X obj 182 202 pow~;
#X obj 233 96 sig~ 1;
#X obj 233 117 -~;
#X obj 182 33 loadbang;
#X obj 352 75 noise~;
#X obj 352 96 /~ 2;
#X obj 352 117 +~ 0.5;
#X obj 352 245 osc~;
#X obj 352 138 samphold~;
#X obj 352 266 *~;
#X obj 352 202 pow~;
#X obj 403 96 sig~ 1;
#X obj 403 117 -~;
#X obj 352 33 loadbang;
#X obj 452 231 lop~ 100;
#X obj 352 181 sig~ 9;
#X obj 452 210 lop~ 500;
#X obj 282 210 lop~ 100;
#X obj 282 231 lop~ 50;
#X obj 282 103 pow~ 2;
#X obj 452 189 pow~ 1750;
#X obj 282 189 pow~ 1500;
#X obj 112 168 noise~;
#X obj 182 159 lop~ 1000;
#X obj 12 159 lop~ 1000;
#X obj 352 159 lop~ 1000;
#X obj 182 181 sig~ 6;
#X obj 12 181 sig~ 2;
#X obj 112 231 lop~ 75;
#X obj 112 210 lop~ 100;
#X msg 12 54 seed 110;
#X msg 182 54 seed 111;
#X msg 352 54 seed 112;
#X msg 112 147 seed 114;
#X obj 452 103 pow~ 0.5;
#X obj 12 308 outlet~;
#X obj 12 287 hip~ 2000;
#X obj 452 252 *~ 10;
#X obj 282 252 *~ 10;
#X obj 112 252 *~ 10;
#X obj 113 189 pow~ 500;
#X obj 113 103 pow~ 4;
#X obj 182 223 *~ 800;
#X obj 352 223 *~ 3200;
#X obj 12 223 *~ 450;
#X connect 0 0 1 0;
#X connect 1 0 2 0;
#X connect 2 0 4 0;
#X connect 3 0 5 0;
#X connect 4 0 41 0;
#X connect 5 0 53 0;
#X connect 6 0 61 0;
#X connect 7 0 8 0;
#X connect 8 0 4 1;
#X connect 9 0 47 0;
#X connect 10 0 50 0;
#X connect 11 0 12 0;
#X connect 12 0 13 0;
#X connect 13 0 15 0;
#X connect 14 0 16 0;
#X connect 15 0 40 0;
#X connect 16 0 53 0;
#X connect 17 0 59 0;
#X connect 18 0 19 0;
#X connect 19 0 15 1;
#X connect 20 0 48 0;
#X connect 21 0 22 0;
#X connect 22 0 23 0;
#X connect 23 0 25 0;
#X connect 24 0 26 0;
#X connect 25 0 42 0;
#X connect 26 0 53 0;
#X connect 27 0 60 0;
#X connect 28 0 29 0;
#X connect 29 0 25 1;
#X connect 30 0 49 0;
#X connect 31 0 54 0;
#X connect 32 0 27 0;
#X connect 33 0 31 0;
#X connect 34 0 35 0;
#X connect 35 0 55 0;
#X connect 36 0 19 1;
#X connect 37 0 33 0;
#X connect 37 0 51 0;
#X connect 38 0 34 0;
#X connect 38 0 36 0;
#X connect 39 0 38 0;
#X connect 39 0 37 0;
#X connect 39 0 57 0;
#X connect 40 0 17 1;
#X connect 41 0 6 1;
#X connect 42 0 27 1;
#X connect 43 0 17 0;
#X connect 44 0 6 0;
#X connect 45 0 56 0;
#X connect 46 0 45 0;
#X connect 47 0 0 0;
#X connect 48 0 11 0;
#X connect 49 0 21 0;
#X connect 50 0 39 0;
#X connect 51 0 29 1;
#X connect 53 0 52 0;
#X connect 54 0 26 1;
#X connect 55 0 16 1;
#X connect 56 0 5 1;
#X connect 57 0 46 0;
#X connect 57 0 58 0;
#X connect 58 0 8 1;
#X connect 59 0 14 0;
#X connect 60 0 24 0;
#X connect 61 0 3 0;
#X restore 12 127 pd steam-1;
#N canvas 502 51 1148 327 stream-2 0;
#X obj 12 54 noise~;
#X obj 12 75 /~ 2;
#X obj 12 96 +~ 0.5;
#X obj 12 224 osc~;
#X obj 12 117 samphold~;
#X obj 12 245 *~;
#X obj 12 181 pow~;
#X obj 12 202 *~ 500;
#X obj 12 160 sig~ 3;
#X obj 63 75 sig~ 1;
#X obj 63 96 -~;
#X obj 12 12 loadbang;
#X obj 112 82 pow~ 2;
#X obj 112 105 loadbang;
#X obj 182 54 noise~;
#X obj 182 75 /~ 2;
#X obj 182 96 +~ 0.5;
#X obj 182 224 osc~;
#X obj 182 117 samphold~;
#X obj 182 245 *~;
#X obj 182 181 pow~;
#X obj 233 75 sig~ 1;
#X obj 233 96 -~;
#X obj 182 12 loadbang;
#X obj 282 82 pow~ 2;
#X obj 282 189 lop~ 100;
#X obj 112 210 lop~ 50;
#X obj 112 189 lop~ 50;
#X obj 12 138 lop~ 1000;
#X obj 352 54 noise~;
#X obj 352 75 /~ 2;
#X obj 352 96 +~ 0.5;
#X obj 352 224 osc~;
#X obj 352 117 samphold~;
#X obj 352 245 *~;
#X obj 352 181 pow~;
#X obj 403 75 sig~ 1;
#X obj 403 96 -~;
#X obj 352 12 loadbang;
#X obj 352 138 lop~ 1000;
#X obj 352 202 *~ 3000;
#X obj 352 160 sig~ 6;
#X obj 112 231 *~ 25;
#X msg 12 33 seed 210;
#X msg 182 33 seed 211;
#X msg 352 33 seed 212;
#X msg 112 126 seed 213;
#X obj 452 210 lop~ 100;
#X obj 452 189 lop~ 1000;
#X obj 612 54 noise~;
#X obj 612 75 /~ 2;
#X obj 612 96 +~ 0.5;
#X obj 612 224 osc~;
#X obj 612 117 samphold~;
#X obj 612 245 *~;
#X obj 612 181 pow~;
#X obj 612 160 sig~ 3;
#X obj 663 75 sig~ 1;
#X obj 663 96 -~;
#X obj 612 12 loadbang;
#X obj 712 82 pow~ 2;
#X obj 712 103 loadbang;
#X obj 782 54 noise~;
#X obj 782 75 /~ 2;
#X obj 782 96 +~ 0.5;
#X obj 782 224 osc~;
#X obj 782 117 samphold~;
#X obj 782 245 *~;
#X obj 782 181 pow~;
#X obj 833 75 sig~ 1;
#X obj 833 96 -~;
#X obj 782 12 loadbang;
#X obj 712 189 lop~ 50;
#X obj 952 54 noise~;
#X obj 952 75 /~ 2;
#X obj 952 96 +~ 0.5;
#X obj 952 224 osc~;
#X obj 952 117 samphold~;
#X obj 952 245 *~;
#X obj 952 181 pow~;
#X obj 1003 75 sig~ 1;
#X obj 1003 96 -~;
#X obj 952 12 loadbang;
#X obj 1052 210 lop~ 100;
#X obj 952 160 sig~ 9;
#X obj 1052 189 lop~ 500;
#X obj 882 189 lop~ 100;
#X msg 712 124 seed 314;
#X msg 612 33 seed 310;
#X msg 782 33 seed 311;
#X msg 952 33 seed 312;
#X obj 882 210 lop~ 50;
#X obj 782 160 sig~ 6;
#X obj 712 210 lop~ 25;
#X obj 452 82 pow~ 2;
#X obj 1052 82 pow~ 4;
#X obj 882 82 pow~ 2;
#X obj 952 138 lop~ 500;
#X obj 782 138 lop~ 500;
#X obj 612 138 lop~ 500;
#X obj 1052 168 pow~ 1750;
#X obj 882 168 pow~ 1500;
#X obj 612 202 *~ 530;
#X obj 782 202 *~ 530;
#X obj 952 202 *~ 2120;
#X obj 182 202 *~ 500;
#X obj 182 160 sig~ 6;
#X obj 182 138 lop~ 500;
#X obj 282 210 lop~ 50;
#X obj 112 147 noise~;
#X obj 712 145 noise~;
#X obj 712 168 pow~ 1250;
#X obj 522 280 outlet~;
#X obj 282 231 *~ 15;
#X obj 522 259 hip~ 4000;
#X obj 712 231 *~ 10;
#X obj 882 231 *~ 10;
#X obj 1052 231 *~ 5;
#X obj 112 168 pow~ 3000;
#X obj 282 168 pow~ 2500;
#X obj 452 168 pow~ 1000;
#X obj 452 231 *~ 5;
#X connect 0 0 1 0;
#X connect 1 0 2 0;
#X connect 2 0 4 0;
#X connect 3 0 5 0;
#X connect 4 0 28 0;
#X connect 5 0 114 0;
#X connect 6 0 7 0;
#X connect 7 0 3 0;
#X connect 8 0 6 0;
#X connect 9 0 10 0;
#X connect 10 0 4 1;
#X connect 11 0 43 0;
#X connect 12 0 10 1;
#X connect 13 0 46 0;
#X connect 14 0 15 0;
#X connect 15 0 16 0;
#X connect 16 0 18 0;
#X connect 17 0 19 0;
#X connect 18 0 107 0;
#X connect 19 0 114 0;
#X connect 20 0 105 0;
#X connect 21 0 22 0;
#X connect 22 0 18 1;
#X connect 23 0 44 0;
#X connect 24 0 22 1;
#X connect 25 0 108 0;
#X connect 26 0 42 0;
#X connect 27 0 26 0;
#X connect 28 0 6 1;
#X connect 29 0 30 0;
#X connect 30 0 31 0;
#X connect 31 0 33 0;
#X connect 32 0 34 0;
#X connect 33 0 39 0;
#X connect 34 0 114 0;
#X connect 35 0 40 0;
#X connect 36 0 37 0;
#X connect 37 0 33 1;
#X connect 38 0 45 0;
#X connect 39 0 35 1;
#X connect 40 0 32 0;
#X connect 41 0 35 0;
#X connect 42 0 5 1;
#X connect 43 0 0 0;
#X connect 44 0 14 0;
#X connect 45 0 29 0;
#X connect 46 0 109 0;
#X connect 47 0 121 0;
#X connect 48 0 47 0;
#X connect 49 0 50 0;
#X connect 50 0 51 0;
#X connect 51 0 53 0;
#X connect 52 0 54 0;
#X connect 53 0 99 0;
#X connect 54 0 114 0;
#X connect 55 0 102 0;
#X connect 56 0 55 0;
#X connect 57 0 58 0;
#X connect 58 0 53 1;
#X connect 59 0 88 0;
#X connect 60 0 58 1;
#X connect 61 0 87 0;
#X connect 62 0 63 0;
#X connect 63 0 64 0;
#X connect 64 0 66 0;
#X connect 65 0 67 0;
#X connect 66 0 98 0;
#X connect 67 0 114 0;
#X connect 68 0 103 0;
#X connect 69 0 70 0;
#X connect 70 0 66 1;
#X connect 71 0 89 0;
#X connect 72 0 93 0;
#X connect 73 0 74 0;
#X connect 74 0 75 0;
#X connect 75 0 77 0;
#X connect 76 0 78 0;
#X connect 77 0 97 0;
#X connect 78 0 114 0;
#X connect 79 0 104 0;
#X connect 80 0 81 0;
#X connect 81 0 77 1;
#X connect 82 0 90 0;
#X connect 83 0 117 0;
#X connect 84 0 79 0;
#X connect 85 0 83 0;
#X connect 86 0 91 0;
#X connect 87 0 110 0;
#X connect 88 0 49 0;
#X connect 89 0 62 0;
#X connect 90 0 73 0;
#X connect 91 0 116 0;
#X connect 92 0 68 0;
#X connect 93 0 115 0;
#X connect 94 0 37 1;
#X connect 95 0 81 1;
#X connect 96 0 70 1;
#X connect 97 0 79 1;
#X connect 98 0 68 1;
#X connect 99 0 55 1;
#X connect 100 0 85 0;
#X connect 100 0 95 0;
#X connect 101 0 86 0;
#X connect 101 0 96 0;
#X connect 102 0 52 0;
#X connect 103 0 65 0;
#X connect 104 0 76 0;
#X connect 105 0 17 0;
#X connect 106 0 20 0;
#X connect 107 0 20 1;
#X connect 108 0 113 0;
#X connect 109 0 118 0;
#X connect 109 0 119 0;
#X connect 109 0 120 0;
#X connect 110 0 111 0;
#X connect 110 0 101 0;
#X connect 110 0 100 0;
#X connect 111 0 72 0;
#X connect 111 0 60 0;
#X connect 113 0 19 1;
#X connect 114 0 112 0;
#X connect 115 0 54 1;
#X connect 116 0 67 1;
#X connect 117 0 78 1;
#X connect 118 0 12 0;
#X connect 118 0 27 0;
#X connect 119 0 24 0;
#X connect 119 0 25 0;
#X connect 120 0 48 0;
#X connect 120 0 94 0;
#X connect 121 0 34 1;
#X restore 82 127 pd stream-2;
#X obj 12 194 hip~ 500;
#X obj 12 173 lop~ 100;
#X obj 12 215 *~ 16;
#X obj 212 33 pow~ 11;
#X obj 212 75 lop~ 500;
#X obj 162 33 pow~ 2;
#X obj 12 148 *~ 0.25;
#X obj 162 138 hip~ 3000;
#X obj 162 117 hip~ 3000;
#X obj 162 96 bp~ 6000 0.7;
#X obj 212 54 lop~ 1500;
#X obj 162 54 *~ 0.04;
#X obj 162 159 *~ 0.6;
#X connect 0 0 1 0;
#X connect 2 0 1 0;
#X connect 2 0 5 0;
#X connect 3 0 0 0;
#X connect 3 1 4 0;
#X connect 4 0 2 0;
#X connect 6 0 3 0;
#X connect 7 0 8 0;
#X connect 8 0 11 0;
#X connect 10 0 7 0;
#X connect 10 0 1 0;
#X connect 11 0 9 0;
#X connect 11 0 9 1;
#X connect 12 0 20 0;
#X connect 12 0 18 0;
#X connect 13 0 21 0;
#X connect 14 0 16 0;
#X connect 15 0 17 0;
#X connect 16 0 15 0;
#X connect 17 0 10 0;
#X connect 18 0 25 0;
#X connect 19 0 24 0;
#X connect 20 0 26 0;
#X connect 21 0 16 0;
#X connect 22 0 27 0;
#X connect 23 0 22 0;
#X connect 24 0 23 0;
#X connect 25 0 19 0;
#X connect 26 0 24 0;
#X connect 27 0 16 0;
