#N canvas 742 393 648 488 10;
#X obj 12 385 clip~ -1 1;
#X obj 12 406 hip~ 3;
#X obj 12 448 dac~ 1 2;
#X obj 12 427 *~ 0.7;
#X obj 382 36 noise~;
#N canvas 890 151 544 401 steam-1 0;
#X obj 12 75 noise~;
#X obj 12 96 /~ 2;
#X obj 12 117 +~ 0.5;
#X obj 12 245 osc~;
#X obj 12 138 samphold~;
#X obj 12 266 *~;
#X obj 12 202 pow~;
#X obj 63 96 sig~ 1;
#X obj 63 117 -~;
#X obj 12 33 loadbang;
#X obj 112 126 loadbang;
#X obj 182 75 noise~;
#X obj 182 96 /~ 2;
#X obj 182 117 +~ 0.5;
#X obj 182 245 osc~;
#X obj 182 138 samphold~;
#X obj 182 266 *~;
#X obj 182 202 pow~;
#X obj 233 96 sig~ 1;
#X obj 233 117 -~;
#X obj 182 33 loadbang;
#X obj 352 75 noise~;
#X obj 352 96 /~ 2;
#X obj 352 117 +~ 0.5;
#X obj 352 245 osc~;
#X obj 352 138 samphold~;
#X obj 352 266 *~;
#X obj 352 202 pow~;
#X obj 403 96 sig~ 1;
#X obj 403 117 -~;
#X obj 352 33 loadbang;
#X obj 452 231 lop~ 100;
#X obj 352 181 sig~ 9;
#X obj 452 210 lop~ 500;
#X obj 282 210 lop~ 100;
#X obj 282 231 lop~ 50;
#X obj 282 103 pow~ 2;
#X obj 452 189 pow~ 1750;
#X obj 282 189 pow~ 1500;
#X obj 112 168 noise~;
#X obj 182 159 lop~ 1000;
#X obj 12 159 lop~ 1000;
#X obj 352 159 lop~ 1000;
#X obj 182 181 sig~ 6;
#X obj 12 181 sig~ 2;
#X obj 112 231 lop~ 75;
#X obj 112 210 lop~ 100;
#X msg 12 54 seed 110;
#X msg 182 54 seed 111;
#X msg 352 54 seed 112;
#X msg 112 147 seed 114;
#X obj 452 103 pow~ 0.5;
#X obj 12 350 outlet~;
#X obj 12 329 hip~ 2000;
#X obj 113 189 pow~ 500;
#X obj 113 103 pow~ 4;
#X obj 182 223 *~ 800;
#X obj 352 223 *~ 3200;
#X obj 12 223 *~ 450;
#X obj 12 308 *~;
#X obj 182 308 *~;
#X obj 352 308 *~;
#X obj 27 287 r \$0-s-low-tgl-1;
#X obj 197 287 r \$0-s-mid-tgl-1;
#X obj 367 287 r \$0-s-hig-tgl-1;
#X obj 112 252 *~ 3;
#X obj 282 252 *~ 3;
#X obj 452 252 *~ 3;
#X connect 0 0 1 0;
#X connect 1 0 2 0;
#X connect 2 0 4 0;
#X connect 3 0 5 0;
#X connect 4 0 41 0;
#X connect 5 0 59 0;
#X connect 6 0 58 0;
#X connect 7 0 8 0;
#X connect 8 0 4 1;
#X connect 9 0 47 0;
#X connect 10 0 50 0;
#X connect 11 0 12 0;
#X connect 12 0 13 0;
#X connect 13 0 15 0;
#X connect 14 0 16 0;
#X connect 15 0 40 0;
#X connect 16 0 60 0;
#X connect 17 0 56 0;
#X connect 18 0 19 0;
#X connect 19 0 15 1;
#X connect 20 0 48 0;
#X connect 21 0 22 0;
#X connect 22 0 23 0;
#X connect 23 0 25 0;
#X connect 24 0 26 0;
#X connect 25 0 42 0;
#X connect 26 0 61 0;
#X connect 27 0 57 0;
#X connect 28 0 29 0;
#X connect 29 0 25 1;
#X connect 30 0 49 0;
#X connect 31 0 67 0;
#X connect 32 0 27 0;
#X connect 33 0 31 0;
#X connect 34 0 35 0;
#X connect 35 0 66 0;
#X connect 36 0 19 1;
#X connect 37 0 33 0;
#X connect 37 0 51 0;
#X connect 38 0 34 0;
#X connect 38 0 36 0;
#X connect 39 0 38 0;
#X connect 39 0 37 0;
#X connect 39 0 54 0;
#X connect 40 0 17 1;
#X connect 41 0 6 1;
#X connect 42 0 27 1;
#X connect 43 0 17 0;
#X connect 44 0 6 0;
#X connect 45 0 65 0;
#X connect 46 0 45 0;
#X connect 47 0 0 0;
#X connect 48 0 11 0;
#X connect 49 0 21 0;
#X connect 50 0 39 0;
#X connect 51 0 29 1;
#X connect 53 0 52 0;
#X connect 54 0 46 0;
#X connect 54 0 55 0;
#X connect 55 0 8 1;
#X connect 56 0 14 0;
#X connect 57 0 24 0;
#X connect 58 0 3 0;
#X connect 59 0 53 0;
#X connect 60 0 53 0;
#X connect 61 0 53 0;
#X connect 62 0 59 1;
#X connect 63 0 60 1;
#X connect 64 0 61 1;
#X connect 65 0 5 1;
#X connect 66 0 16 1;
#X connect 67 0 26 1;
#X restore 12 172 pd steam-1;
#N canvas 502 51 556 366 stream-2 0;
#X obj 12 54 noise~;
#X obj 12 75 /~ 2;
#X obj 12 96 +~ 0.5;
#X obj 12 224 osc~;
#X obj 12 117 samphold~;
#X obj 12 245 *~;
#X obj 12 181 pow~;
#X obj 12 202 *~ 500;
#X obj 12 160 sig~ 3;
#X obj 63 75 sig~ 1;
#X obj 63 96 -~;
#X obj 12 12 loadbang;
#X obj 112 82 pow~ 2;
#X obj 112 105 loadbang;
#X obj 182 54 noise~;
#X obj 182 75 /~ 2;
#X obj 182 96 +~ 0.5;
#X obj 182 224 osc~;
#X obj 182 117 samphold~;
#X obj 182 245 *~;
#X obj 182 181 pow~;
#X obj 233 75 sig~ 1;
#X obj 233 96 -~;
#X obj 182 12 loadbang;
#X obj 282 82 pow~ 2;
#X obj 282 189 lop~ 100;
#X obj 112 210 lop~ 50;
#X obj 112 189 lop~ 50;
#X obj 12 138 lop~ 1000;
#X obj 352 54 noise~;
#X obj 352 75 /~ 2;
#X obj 352 96 +~ 0.5;
#X obj 352 224 osc~;
#X obj 352 117 samphold~;
#X obj 352 245 *~;
#X obj 352 181 pow~;
#X obj 403 75 sig~ 1;
#X obj 403 96 -~;
#X obj 352 12 loadbang;
#X obj 352 138 lop~ 1000;
#X obj 352 202 *~ 3000;
#X obj 352 160 sig~ 6;
#X obj 112 231 *~ 25;
#X msg 12 33 seed 210;
#X msg 182 33 seed 211;
#X msg 352 33 seed 212;
#X msg 112 126 seed 213;
#X obj 452 210 lop~ 100;
#X obj 452 189 lop~ 1000;
#X obj 452 82 pow~ 2;
#X obj 182 202 *~ 500;
#X obj 182 160 sig~ 6;
#X obj 182 138 lop~ 500;
#X obj 282 210 lop~ 50;
#X obj 112 147 noise~;
#X obj 12 332 outlet~;
#X obj 282 231 *~ 15;
#X obj 12 311 hip~ 4000;
#X obj 112 168 pow~ 3000;
#X obj 282 168 pow~ 2500;
#X obj 452 168 pow~ 1000;
#X obj 452 231 *~ 5;
#X obj 12 287 *~;
#X obj 182 287 *~;
#X obj 352 287 *~;
#X obj 27 266 r \$0-s-low-tgl-2;
#X obj 197 266 r \$0-s-mid-tgl-2;
#X obj 367 266 r \$0-s-hig-tgl-2;
#X connect 0 0 1 0;
#X connect 1 0 2 0;
#X connect 2 0 4 0;
#X connect 3 0 5 0;
#X connect 4 0 28 0;
#X connect 5 0 62 0;
#X connect 6 0 7 0;
#X connect 7 0 3 0;
#X connect 8 0 6 0;
#X connect 9 0 10 0;
#X connect 10 0 4 1;
#X connect 11 0 43 0;
#X connect 12 0 10 1;
#X connect 13 0 46 0;
#X connect 14 0 15 0;
#X connect 15 0 16 0;
#X connect 16 0 18 0;
#X connect 17 0 19 0;
#X connect 18 0 52 0;
#X connect 19 0 63 0;
#X connect 20 0 50 0;
#X connect 21 0 22 0;
#X connect 22 0 18 1;
#X connect 23 0 44 0;
#X connect 24 0 22 1;
#X connect 25 0 53 0;
#X connect 26 0 42 0;
#X connect 27 0 26 0;
#X connect 28 0 6 1;
#X connect 29 0 30 0;
#X connect 30 0 31 0;
#X connect 31 0 33 0;
#X connect 32 0 34 0;
#X connect 33 0 39 0;
#X connect 34 0 64 0;
#X connect 35 0 40 0;
#X connect 36 0 37 0;
#X connect 37 0 33 1;
#X connect 38 0 45 0;
#X connect 39 0 35 1;
#X connect 40 0 32 0;
#X connect 41 0 35 0;
#X connect 42 0 5 1;
#X connect 43 0 0 0;
#X connect 44 0 14 0;
#X connect 45 0 29 0;
#X connect 46 0 54 0;
#X connect 47 0 61 0;
#X connect 48 0 47 0;
#X connect 49 0 37 1;
#X connect 50 0 17 0;
#X connect 51 0 20 0;
#X connect 52 0 20 1;
#X connect 53 0 56 0;
#X connect 54 0 58 0;
#X connect 54 0 59 0;
#X connect 54 0 60 0;
#X connect 56 0 19 1;
#X connect 57 0 55 0;
#X connect 58 0 12 0;
#X connect 58 0 27 0;
#X connect 59 0 24 0;
#X connect 59 0 25 0;
#X connect 60 0 48 0;
#X connect 60 0 49 0;
#X connect 61 0 34 1;
#X connect 62 0 57 0;
#X connect 63 0 57 0;
#X connect 64 0 57 0;
#X connect 65 0 62 1;
#X connect 66 0 63 1;
#X connect 67 0 64 1;
#X restore 132 172 pd stream-2;
#X obj 12 258 lop~ 100;
#X obj 502 57 pow~ 11;
#X obj 502 99 lop~ 500;
#X obj 382 57 pow~ 2;
#X obj 382 202 hip~ 3000;
#X obj 382 181 hip~ 3000;
#X obj 382 160 bp~ 6000 0.7;
#X obj 502 78 lop~ 1500;
#X obj 153 141 tgl 16 1 \$0-s-nse-tgl empty FILTERED NOISE LAYER
-130 8 0 10 -262144 -1 -1 1 1;
#X obj 432 230 r \$0-s-nse-tgl;
#X obj 382 244 *~;
#N canvas 270 144 529 361 stream-3 0;
#X obj 12 54 noise~;
#X obj 12 75 /~ 2;
#X obj 12 96 +~ 0.5;
#X obj 12 224 osc~;
#X obj 12 117 samphold~;
#X obj 12 245 *~;
#X obj 12 181 pow~;
#X obj 12 160 sig~ 3;
#X obj 63 75 sig~ 1;
#X obj 63 96 -~;
#X obj 12 12 loadbang;
#X obj 112 82 pow~ 2;
#X obj 112 103 loadbang;
#X obj 182 54 noise~;
#X obj 182 75 /~ 2;
#X obj 182 96 +~ 0.5;
#X obj 182 224 osc~;
#X obj 182 117 samphold~;
#X obj 182 245 *~;
#X obj 182 181 pow~;
#X obj 233 75 sig~ 1;
#X obj 233 96 -~;
#X obj 182 12 loadbang;
#X obj 112 189 lop~ 50;
#X obj 352 54 noise~;
#X obj 352 75 /~ 2;
#X obj 352 96 +~ 0.5;
#X obj 352 224 osc~;
#X obj 352 117 samphold~;
#X obj 352 245 *~;
#X obj 352 181 pow~;
#X obj 403 75 sig~ 1;
#X obj 403 96 -~;
#X obj 352 12 loadbang;
#X obj 452 210 lop~ 100;
#X obj 352 160 sig~ 9;
#X obj 452 189 lop~ 500;
#X obj 282 189 lop~ 100;
#X msg 112 124 seed 314;
#X msg 12 33 seed 310;
#X msg 182 33 seed 311;
#X msg 352 33 seed 312;
#X obj 282 210 lop~ 50;
#X obj 182 160 sig~ 6;
#X obj 112 210 lop~ 25;
#X obj 452 82 pow~ 4;
#X obj 282 82 pow~ 2;
#X obj 352 138 lop~ 500;
#X obj 182 138 lop~ 500;
#X obj 12 138 lop~ 500;
#X obj 452 168 pow~ 1750;
#X obj 282 168 pow~ 1500;
#X obj 12 202 *~ 530;
#X obj 182 202 *~ 530;
#X obj 352 202 *~ 2120;
#X obj 112 145 noise~;
#X obj 112 168 pow~ 1250;
#X obj 112 231 *~ 10;
#X obj 282 231 *~ 10;
#X obj 452 231 *~ 5;
#X obj 12 311 hip~ 4000;
#X obj 12 332 outlet~;
#X obj 12 287 *~;
#X obj 182 287 *~;
#X obj 352 287 *~;
#X obj 27 266 r \$0-s-low-tgl-3;
#X obj 197 266 r \$0-s-mid-tgl-3;
#X obj 367 266 r \$0-s-hig-tgl-3;
#X connect 0 0 1 0;
#X connect 1 0 2 0;
#X connect 2 0 4 0;
#X connect 3 0 5 0;
#X connect 4 0 49 0;
#X connect 5 0 62 0;
#X connect 6 0 52 0;
#X connect 7 0 6 0;
#X connect 8 0 9 0;
#X connect 9 0 4 1;
#X connect 10 0 39 0;
#X connect 11 0 9 1;
#X connect 12 0 38 0;
#X connect 13 0 14 0;
#X connect 14 0 15 0;
#X connect 15 0 17 0;
#X connect 16 0 18 0;
#X connect 17 0 48 0;
#X connect 18 0 63 0;
#X connect 19 0 53 0;
#X connect 20 0 21 0;
#X connect 21 0 17 1;
#X connect 22 0 40 0;
#X connect 23 0 44 0;
#X connect 24 0 25 0;
#X connect 25 0 26 0;
#X connect 26 0 28 0;
#X connect 27 0 29 0;
#X connect 28 0 47 0;
#X connect 29 0 64 0;
#X connect 30 0 54 0;
#X connect 31 0 32 0;
#X connect 32 0 28 1;
#X connect 33 0 41 0;
#X connect 34 0 59 0;
#X connect 35 0 30 0;
#X connect 36 0 34 0;
#X connect 37 0 42 0;
#X connect 38 0 55 0;
#X connect 39 0 0 0;
#X connect 40 0 13 0;
#X connect 41 0 24 0;
#X connect 42 0 58 0;
#X connect 43 0 19 0;
#X connect 44 0 57 0;
#X connect 45 0 32 1;
#X connect 46 0 21 1;
#X connect 47 0 30 1;
#X connect 48 0 19 1;
#X connect 49 0 6 1;
#X connect 50 0 36 0;
#X connect 50 0 45 0;
#X connect 51 0 37 0;
#X connect 51 0 46 0;
#X connect 52 0 3 0;
#X connect 53 0 16 0;
#X connect 54 0 27 0;
#X connect 55 0 56 0;
#X connect 55 0 51 0;
#X connect 55 0 50 0;
#X connect 56 0 23 0;
#X connect 56 0 11 0;
#X connect 57 0 5 1;
#X connect 58 0 18 1;
#X connect 59 0 29 1;
#X connect 60 0 61 0;
#X connect 62 0 60 0;
#X connect 63 0 60 0;
#X connect 64 0 60 0;
#X connect 65 0 62 1;
#X connect 66 0 63 1;
#X connect 67 0 64 1;
#X restore 252 172 pd stream-3;
#X obj 153 81 tgl 16 1 \$0-s-str-tgl-1 empty WATER STREAM 1 -130
8 0 10 -262144 -1 -1 1 1;
#X obj 183 81 tgl 16 1 \$0-s-low-tgl-1 empty LOW 0 -9 0 10 -262144
-1 -1 1 1;
#X obj 213 81 tgl 16 1 \$0-s-mid-tgl-1 empty MID 0 -9 0 10 -262144
-1 -1 1 1;
#X obj 243 81 tgl 16 1 \$0-s-hig-tgl-1 empty HIGH 0 -9 0 10 -262144
-1 -1 1 1;
#X obj 153 101 tgl 16 1 \$0-s-str-tgl-2 empty WATER STREAM 2 -130
8 0 10 -262144 -1 -1 1 1;
#X obj 183 101 tgl 16 1 \$0-s-low-tgl-2 empty empty 0 -9 0 10 -262144
-1 -1 1 1;
#X obj 213 101 tgl 16 1 \$0-s-mid-tgl-2 empty empty 0 -9 0 10 -262144
-1 -1 1 1;
#X obj 243 101 tgl 16 1 \$0-s-hig-tgl-2 empty empty 0 -9 0 10 -262144
-1 -1 1 1;
#X obj 153 121 tgl 16 1 \$0-s-str-tgl-3 empty WATER STREAM 3 -130
8 0 10 -262144 -1 -1 1 1;
#X obj 183 121 tgl 16 1 \$0-s-low-tgl-3 empty empty 0 -9 0 10 -262144
-1 -1 1 1;
#X obj 213 121 tgl 16 1 \$0-s-mid-tgl-3 empty empty 0 -9 0 10 -262144
-1 -1 1 1;
#X obj 243 121 tgl 16 1 \$0-s-hig-tgl-3 empty empty 0 -9 0 10 -262144
-1 -1 1 1;
#X obj 12 219 *~;
#X obj 27 198 r \$0-s-str-tgl-1;
#X obj 132 219 *~;
#X obj 252 219 *~;
#X obj 147 198 r \$0-s-str-tgl-2;
#X obj 267 198 r \$0-s-str-tgl-3;
#X obj 183 141 tgl 16 1 \$0-s-low-tgl-4 empty empty 0 -9 0 10 -262144
-1 -1 1 1;
#X obj 213 141 tgl 16 1 \$0-s-mid-tgl-4 empty empty 0 -9 0 10 -262144
-1 -1 1 1;
#X obj 502 141 *~;
#X obj 382 120 *~;
#X obj 397 99 r \$0-s-mid-tgl-4;
#X obj 517 120 r \$0-s-low-tgl-4;
#X obj 12 279 lop~ 150;
#X obj 12 300 hip~ 500;
#X obj 12 321 hip~ 500;
#X obj 12 342 hip~ 500;
#X obj 12 363 *~ 500;
#X obj 382 223 *~ 0.7;
#X obj 382 78 *~ 0.08;
#X text 21 11 [water-stream~];
#X text 21 31 Synthesized water stream made of 3 sinewave oscillator
layers being modulated by sampled white noise.;
#X text 21 61 TOGGLE LAYERS:;
#X text 141 332 Email: mianmogra94@gmail.com;
#X text 141 347 GitHub: github.com/MikeMorenoAudio;
#X text 141 372 Facebook: fb.com/MikeMorenoAudio;
#X text 141 402 WordPress: mikemorenoaudio.wordpress.com;
#X text 141 417 PatchStorage: patchstorage.com/author/mianmogra;
#X text 141 317 Miguel Moreno 2019;
#X text 141 387 Youtube: youtube.com/c/mikemorenoaudio;
#X text 141 297 [water-stream~] version 1;
#X connect 0 0 1 0;
#X connect 1 0 3 0;
#X connect 3 0 2 0;
#X connect 3 0 2 1;
#X connect 4 0 10 0;
#X connect 4 0 8 0;
#X connect 5 0 31 0;
#X connect 6 0 33 0;
#X connect 7 0 43 0;
#X connect 8 0 14 0;
#X connect 9 0 39 0;
#X connect 10 0 49 0;
#X connect 11 0 48 0;
#X connect 12 0 11 0;
#X connect 13 0 12 0;
#X connect 14 0 9 0;
#X connect 16 0 17 1;
#X connect 17 0 7 0;
#X connect 18 0 34 0;
#X connect 31 0 7 0;
#X connect 32 0 31 1;
#X connect 33 0 7 0;
#X connect 34 0 7 0;
#X connect 35 0 33 1;
#X connect 36 0 34 1;
#X connect 39 0 13 0;
#X connect 40 0 13 0;
#X connect 41 0 40 1;
#X connect 42 0 39 1;
#X connect 43 0 44 0;
#X connect 44 0 45 0;
#X connect 45 0 46 0;
#X connect 46 0 47 0;
#X connect 47 0 0 0;
#X connect 48 0 17 0;
#X connect 49 0 40 0;
