#N canvas 119 23 1039 719 10;
#N canvas 577 147 380 383 spectrolog 0;
#N canvas 556 61 872 789 FFT_Analyse 0;
#X obj 101 102 inlet~;
#X obj 101 332 *~;
#X obj 132 331 *~;
#X obj 101 356 +~;
#X obj 102 377 powtodb~;
#N canvas 0 22 346 535 init_input_window 0;
#X obj 73 217 / 10;
#X obj 55 278 line 0 0.1;
#X msg 119 246 0;
#X obj 54 176 t f f b;
#X obj 54 239 pack;
#X obj 55 301 t f f;
#X obj 54 152 - 1;
#X obj 74 114 t f f;
#X obj 55 359 * 3.14159;
#X obj 55 381 sin;
#X msg 55 401 \$1 \$1;
#X obj 55 423 *;
#X text 119 334 0...0.99;
#X text 128 359 0...pi;
#X text 79 423 hanning;
#X msg 55 88 4096;
#X obj 100 88 f 4096;
#X obj 99 60 bng 15 250 50 0 empty empty empty 0 -6 0 8 -262144 -1
-1;
#X obj 99 39 loadbang;
#X obj 74 333 / 4096;
#X obj 55 448 tabwrite \$0-window;
#X text 86 381 half-sine;
#X connect 0 0 4 1;
#X connect 1 0 5 0;
#X connect 2 0 1 0;
#X connect 3 0 4 0;
#X connect 3 1 0 0;
#X connect 3 2 2 0;
#X connect 4 0 1 0;
#X connect 5 0 19 0;
#X connect 5 1 20 1;
#X connect 6 0 3 0;
#X connect 7 0 6 0;
#X connect 7 1 19 1;
#X connect 8 0 9 0;
#X connect 9 0 10 0;
#X connect 10 0 11 0;
#X connect 11 0 20 0;
#X connect 15 0 7 0;
#X connect 16 0 7 0;
#X connect 17 0 16 0;
#X connect 18 0 17 0;
#X connect 19 0 8 0;
#X restore 161 276 pd init_input_window;
#N canvas 0 22 450 300 (subpatch) 0;
#X array \$0-lin_scope 2048 float 0;
#X coords 0 100 2047 0 200 140 1;
#X restore 110 621 graph;
#N canvas 0 22 822 328 init_norm 0;
#X obj 43 230 outlet;
#X obj 43 187 - 100;
#X floatatom 43 208 9 0 0 0 - - -;
#X text 108 169 leistung - techn. dB;
#X msg 43 69 4096;
#X obj 80 68 f 4096;
#X obj 80 47 bng 15 250 50 0 empty empty empty 0 -6 0 8 -262144 -1
-1;
#X obj 80 26 loadbang;
#X obj 43 167 rmstodb;
#X obj 43 110 / 4;
#X text 74 103 faktor 2 wegen hanning;
#X text 74 114 weiterer faktor 2 \, weil wir nur die;
#X text 73 124 erste haelfte des konjungiert komplexen spektrum sehen
;
#X text 108 135 bzw. bearbeiten \, somit nur die haelfte der spektralen
energie;
#X connect 1 0 2 0;
#X connect 2 0 0 0;
#X connect 4 0 9 0;
#X connect 5 0 9 0;
#X connect 6 0 5 0;
#X connect 7 0 6 0;
#X connect 8 0 1 0;
#X connect 9 0 8 0;
#X restore 153 421 pd init_norm;
#X obj 100 231 *~;
#X obj 102 443 -~ 60.206;
#X obj 113 517 *~ 0.98;
#X obj 100 539 +~;
#X obj 101 471 *~ 0.02;
#X msg 314 481 1 \$1;
#X obj 314 502 -;
#X obj 314 458 clip 0 1;
#X obj 314 437 / 100;
#X floatatom 314 413 5 0.5 100 0 - - -;
#X obj 333 366 loadbang;
#X obj 100 277 fft~;
#X obj 463 557 line 0 0.1;
#X obj 463 602 / 2;
#X obj 463 622 mtof;
#X msg 463 536 6 \, 273 26.7;
#X obj 463 580 t f f;
#X obj 494 602 - 6;
#X obj 463 642 / 44100;
#X obj 463 663 * 4096;
#X msg 656 633 6;
#X obj 656 653 / 2;
#X obj 656 673 mtof;
#X floatatom 656 693 9 0 0 0 - - -;
#X text 723 694 Hz;
#X obj 754 654 / 2;
#X obj 754 673 mtof;
#X floatatom 754 693 9 0 0 0 - - -;
#X text 822 693 Hz;
#X msg 754 634 273;
#X obj 656 612 t b b;
#X obj 463 498 tgl 15 0 empty empty empty 0 -6 0 8 -262144 -1 -1 1
1;
#X obj 463 458 loadbang;
#X msg 463 478 1;
#X obj 656 592 loadbang;
#X obj 468 245 loadbang;
#X obj 703 102 inlet;
#X obj 130 253 table \$0-window 4096;
#X obj 137 214 tabreceive~ \$0-window;
#X text 353 403 temporal lowpass;
#X text 355 415 parameter between 0 .. 100 %;
#X text 23 23 spectrum~;
#X text 120 23 draws the power of a spectrum in a logarithmic scale
;
#X text 118 36 (by Thomas Musil);
#X obj 113 496 tabreceive~ \$0-lin_scope;
#X obj 100 564 tabsend~ \$0-lin_scope;
#X obj 463 685 tabread4 \$0-lin_scope;
#X obj 468 267 f \$0;
#X text 553 536 transformation to log scale;
#X msg 333 385 100;
#X obj 314 341 max 0.5;
#X obj 314 319 min 100;
#X obj 440 107 inlet;
#X text 96 81 audio sig;
#X text 700 81 ON/OFF;
#X text 427 86 (0 .. 100);
#X text 408 72 temporal lowpass;
#X obj 533 244 bng 15 250 50 0 empty empty empty 0 -6 0 8 -262144 -1
-1;
#X obj 463 735 tabwrite \$0-s;
#X msg 468 296 \; \$1-s xticks 0 12 2;
#X msg 491 330 \; \$1-s yticks 0 5 2;
#X obj 462 516 metro 100;
#X obj 704 166 switch~ 4096 2;
#X obj 463 711 clip 0 100;
#X obj 773 101 loadbang;
#X msg 773 123 1;
#X connect 0 0 8 0;
#X connect 1 0 3 0;
#X connect 2 0 3 1;
#X connect 3 0 4 0;
#X connect 4 0 9 0;
#X connect 7 0 9 1;
#X connect 8 0 19 0;
#X connect 9 0 12 0;
#X connect 10 0 11 1;
#X connect 11 0 53 0;
#X connect 12 0 11 0;
#X connect 13 0 14 0;
#X connect 14 0 10 1;
#X connect 15 0 13 0;
#X connect 15 0 12 1;
#X connect 16 0 15 0;
#X connect 17 0 16 0;
#X connect 18 0 57 0;
#X connect 19 0 1 0;
#X connect 19 0 1 1;
#X connect 19 1 2 0;
#X connect 19 1 2 1;
#X connect 20 0 24 0;
#X connect 21 0 22 0;
#X connect 22 0 26 0;
#X connect 23 0 20 0;
#X connect 24 0 21 0;
#X connect 24 1 25 0;
#X connect 25 0 66 1;
#X connect 26 0 27 0;
#X connect 27 0 54 0;
#X connect 28 0 29 0;
#X connect 29 0 30 0;
#X connect 30 0 31 0;
#X connect 33 0 34 0;
#X connect 34 0 35 0;
#X connect 37 0 33 0;
#X connect 38 0 28 0;
#X connect 38 1 37 0;
#X connect 39 0 69 0;
#X connect 40 0 41 0;
#X connect 41 0 39 0;
#X connect 42 0 38 0;
#X connect 43 0 55 0;
#X connect 44 0 70 0;
#X connect 46 0 8 1;
#X connect 52 0 10 0;
#X connect 54 0 71 0;
#X connect 55 0 67 0;
#X connect 55 0 68 0;
#X connect 57 0 17 0;
#X connect 58 0 17 0;
#X connect 59 0 58 0;
#X connect 60 0 59 0;
#X connect 65 0 55 0;
#X connect 69 0 23 0;
#X connect 71 0 66 0;
#X connect 72 0 73 0;
#X connect 73 0 70 0;
#X restore 17 330 pd FFT_Analyse;
#X obj 63 309 inlet;
#X obj 17 309 inlet~;
#X obj 110 309 inlet;
#N canvas 0 22 450 300 (subpatch) 0;
#X array \$0-s 268 float 0;
#X coords 0 100 267 0 267 140 1;
#X restore 23 37 graph;
#X obj 297 52 cnv 15 1 1 empty empty -10 0 0 0 10 -262144 -1 0;
#X obj 297 164 cnv 15 1 1 empty empty -90 0 0 0 10 -262144 -1 0;
#X obj 297 108 cnv 15 1 1 empty empty -50 0 0 0 10 -262144 -1 0;
#X obj 297 80 cnv 15 1 1 empty empty -30 0 0 0 10 -262144 -1 0;
#X obj 297 136 cnv 15 1 1 empty empty -70 0 0 0 10 -262144 -1 0;
#X obj 18 181 cnv 15 1 1 empty empty 10 0 5 0 10 -262144 -1 0;
#X obj 66 181 cnv 15 1 1 empty empty 40 0 5 0 10 -262144 -1 0;
#X obj 115 181 cnv 15 1 1 empty empty 160 0 5 0 10 -262144 -1 0;
#X obj 162 181 cnv 15 1 1 empty empty 640 0 5 0 10 -262144 -1 0;
#X obj 210 181 cnv 15 1 1 empty empty 2k56 0 5 0 10 -262144 -1 0;
#X obj 258 181 cnv 15 1 1 empty empty 10k2 0 5 0 10 -262144 -1 0;
#X obj 138 194 cnv 15 1 1 empty empty 320 0 5 0 10 -262144 -1 0;
#X obj 282 194 cnv 15 1 1 empty empty 20k5 0 5 0 10 -262144 -1 0;
#X obj 42 191 cnv 15 1 1 empty empty 20 0 9 0 10 -262144 -1 0;
#X obj 90 194 cnv 15 1 1 empty empty 80 0 5 0 10 -262144 -1 0;
#X obj 186 194 cnv 15 1 1 empty empty 1k28 0 5 0 10 -262144 -1 0;
#X obj 234 194 cnv 15 1 1 empty empty 5k12 0 5 0 10 -262144 -1 0;
#X obj 46 178 cnv 15 1 1 empty empty | 0 7 0 10 -262144 -1 0;
#X obj 94 178 cnv 15 1 1 empty empty | 0 7 0 10 -262144 -1 0;
#X obj 142 178 cnv 15 1 1 empty empty | 0 7 0 10 -262144 -1 0;
#X obj 190 178 cnv 15 1 1 empty empty | 0 7 0 10 -262144 -1 0;
#X obj 238 178 cnv 15 1 1 empty empty | 0 7 0 10 -262144 -1 0;
#X obj 286 178 cnv 15 1 1 empty empty | 0 7 0 10 -262144 -1 0;
#X connect 1 0 0 1;
#X connect 2 0 0 0;
#X connect 3 0 0 2;
#X coords 0 -1 1 1 330 210 1 0 0;
#X restore 12 390 pd spectrolog;
#X obj 865 179 hsl 128 17 0 127 0 1 empty empty Q-(RESONANCE) -2 -8
0 10 -262144 -1 -1 0 1;
#X obj 725 179 hsl 128 17 0 127 0 1 empty empty CUTOFF-FREQUENCY -2
-8 0 10 -262144 -1 -1 9200 1;
#X obj 862 201 / 127;
#X msg 862 243 2 \$1;
#X obj 862 264 pow;
#X obj 862 285 * 0.7;
#X obj 862 222 * 7;
#X msg 862 306 \$1 20;
#X obj 862 327 line~;
#X obj 722 201 / 127;
#X msg 722 243 2 \$1;
#X obj 722 264 pow;
#X obj 722 285 * 20;
#X obj 722 222 * 10;
#X msg 722 306 \$1 20;
#X obj 722 327 line~;
#X obj 722 348 s~ \$0-ctf;
#X obj 862 348 s~ \$0-rsn;
#X obj 27 184 r~ \$0-ctf;
#X obj 42 205 r~ \$0-rsn;
#X obj 12 297 *~;
#X obj 27 255 r \$0-flt;
#X obj 27 276 == 0;
#X obj 12 163 r~ \$0-noise;
#X obj 12 45 noise~;
#X obj 12 66 *~ 0.1;
#X obj 12 87 s~ \$0-noise;
#X obj 12 318 throw~ \$0-filter;
#X obj 12 369 catch~ \$0-filter;
#X obj 139 184 r~ \$0-ctf;
#X obj 156 205 r~ \$0-rsn;
#X obj 122 297 *~;
#X obj 137 255 r \$0-flt;
#X obj 122 163 r~ \$0-noise;
#X obj 122 318 throw~ \$0-filter;
#X text 12 119 Resonant Low Pass Filter;
#X obj 137 276 == 1;
#X obj 359 184 r~ \$0-ctf;
#X obj 376 205 r~ \$0-rsn;
#X obj 342 297 *~;
#X obj 357 255 r \$0-flt;
#X obj 342 163 r~ \$0-noise;
#X obj 342 318 throw~ \$0-filter;
#X text 342 139 Resonant High Pass Filter;
#X text 654 470 http://musicdsp.org/files/Audio-EQ-Cookbook.txt;
#X obj 473 204 r~ \$0-ctf;
#X obj 452 297 *~;
#X obj 467 255 r \$0-flt;
#X obj 452 183 r~ \$0-noise;
#X obj 452 318 throw~ \$0-filter;
#X obj 452 229 lpf~;
#X obj 583 204 r~ \$0-ctf;
#X obj 562 297 *~;
#X obj 577 255 r \$0-flt;
#X obj 562 183 r~ \$0-noise;
#X obj 562 318 throw~ \$0-filter;
#X obj 562 229 hpf~;
#X text 654 442 Generic resonant filter modules with a signal-controlled
cutoff and Q settings.;
#X text 452 159 1 Pole Low Pass Filter;
#X text 562 139 1 Pole High Pass Filter;
#X text 654 602 A variant of [hpf~] that has a signal-controlled cutoff.
Like [hpf~] \, the highest cutoff frequency is SR/(2pi).;
#X text 654 582 [hpf~] one-pole high pass filter;
#X text 654 542 A variant of [lpf~] that has a signal-controlled cutoff.
Like [lpf~] \, the filter has no effect when the cutoff is above SR/(2pi).
;
#X text 644 522 [lpf~] one-pole low pass filter;
#X floatatom 770 301 0 0 0 2 Hz - -;
#X floatatom 910 301 0 0 0 2 Q - -;
#X obj 722 23 vradio 17 1 1 6 empty empty FILTER 0 -8 0 10 -262144
-1 -1 0;
#X text 746 24 rlpf~;
#X obj 722 143 s \$0-flt;
#X text 644 422 [rlpf~] \, [rbpf~] \, [rhpf~];
#X text 664 632 Based on [lop~.mmb] & [hip~.mmb] from Moser-Booth's
mmb library.;
#X text 664 490 Based on [hv.filter] from enzienaudio's heavylib library.
;
#X text 11 630 https://github.com/MikeMorenoAudio;
#X text 11 610 Made heavy compatible by Mike Moreno;
#X text 654 392 bandpass2 (constant 0 dB peak gain);
#X obj 249 184 r~ \$0-ctf;
#X obj 266 205 r~ \$0-rsn;
#X obj 232 297 *~;
#X obj 247 255 r \$0-flt;
#X obj 232 163 r~ \$0-noise;
#X obj 232 318 throw~ \$0-filter;
#X text 232 119 Resonant Band Pass Filter 2;
#X text 122 139 Resonant Band Pass Filter 1;
#X text 654 372 bandpass1 (constant skirt gain \, peak gain = Q);
#X obj 247 276 == 2;
#X obj 357 276 == 3;
#X obj 467 276 == 4;
#X obj 577 276 == 5;
#X text 746 75 rhpf~;
#X text 746 92 lpf~;
#X text 746 109 hpf~;
#X text 746 41 rbpf1~;
#X text 746 58 rbpf2~;
#X obj 12 229 lowpass~;
#X obj 122 229 bandpass~;
#X obj 232 229 resonant~;
#X obj 342 229 highpass~;
#X obj 352 385 *~;
#X obj 366 363 tgl 17 0 empty empty LISTEN 0 -8 0 10 -262144 -1 -1
1 1;
#X obj 352 406 clip~ -1 1;
#X obj 352 427 hip~ 3;
#X obj 352 448 dac~ 1 2;
#X connect 1 0 3 0;
#X connect 2 0 10 0;
#X connect 3 0 7 0;
#X connect 4 0 5 0;
#X connect 5 0 6 0;
#X connect 6 0 8 0;
#X connect 6 0 66 0;
#X connect 7 0 4 0;
#X connect 8 0 9 0;
#X connect 9 0 18 0;
#X connect 10 0 14 0;
#X connect 11 0 12 0;
#X connect 12 0 13 0;
#X connect 13 0 15 0;
#X connect 13 0 65 0;
#X connect 14 0 11 0;
#X connect 15 0 16 0;
#X connect 16 0 17 0;
#X connect 19 0 94 1;
#X connect 20 0 94 2;
#X connect 21 0 28 0;
#X connect 22 0 23 0;
#X connect 23 0 21 1;
#X connect 24 0 94 0;
#X connect 25 0 26 0;
#X connect 26 0 27 0;
#X connect 29 0 0 0;
#X connect 29 0 98 0;
#X connect 30 0 95 1;
#X connect 31 0 95 2;
#X connect 32 0 35 0;
#X connect 33 0 37 0;
#X connect 34 0 95 0;
#X connect 37 0 32 1;
#X connect 38 0 97 1;
#X connect 39 0 97 2;
#X connect 40 0 43 0;
#X connect 41 0 86 0;
#X connect 42 0 97 0;
#X connect 46 0 51 1;
#X connect 47 0 50 0;
#X connect 48 0 87 0;
#X connect 49 0 51 0;
#X connect 51 0 47 0;
#X connect 52 0 57 1;
#X connect 53 0 56 0;
#X connect 54 0 88 0;
#X connect 55 0 57 0;
#X connect 57 0 53 0;
#X connect 67 0 69 0;
#X connect 76 0 96 1;
#X connect 77 0 96 2;
#X connect 78 0 81 0;
#X connect 79 0 85 0;
#X connect 80 0 96 0;
#X connect 85 0 78 1;
#X connect 86 0 40 1;
#X connect 87 0 47 1;
#X connect 88 0 53 1;
#X connect 94 0 21 0;
#X connect 95 0 32 0;
#X connect 96 0 78 0;
#X connect 97 0 40 0;
#X connect 98 0 100 0;
#X connect 99 0 98 1;
#X connect 100 0 101 0;
#X connect 101 0 102 0;
#X connect 101 0 102 1;
