#N canvas 586 336 481 312 10;
#X obj 12 31 inlet~;
#X obj 12 192 +~;
#X obj 27 170 *~;
#X obj 136 32 inlet;
#X obj 342 51 inlet;
#X obj 202 196 * -1;
#X obj 187 222 *~;
#X obj 172 244 +~;
#X obj 172 266 outlet~;
#X obj 172 154 delread4~ \$0-allpass;
#X obj 12 253 delwrite~ \$0-allpass 100;
#X obj 146 53 loadbang;
#X obj 146 74 f \$1;
#X obj 352 72 loadbang;
#X obj 342 114 clip -1 1;
#X obj 352 93 f \$2;
#X obj 342 135 s \$0-gain;
#X obj 202 175 r \$0-gain;
#X obj 27 144 r \$0-gain;
#X obj 172 133 r \$0-delay-time;
#X obj 136 95 s \$0-delay-time;
#X text 12 11 (I1) Audio Input;
#X text 172 286 (O1) Audio Output;
#X text 342 31 (I3) Allpass Gain;
#X text 136 12 (I2) Delay Time;
#X connect 0 0 1 0;
#X connect 1 0 6 0;
#X connect 1 0 10 0;
#X connect 2 0 1 1;
#X connect 3 0 20 0;
#X connect 4 0 14 0;
#X connect 5 0 6 1;
#X connect 6 0 7 1;
#X connect 7 0 8 0;
#X connect 9 0 7 0;
#X connect 9 0 2 1;
#X connect 11 0 12 0;
#X connect 12 0 20 0;
#X connect 13 0 15 0;
#X connect 14 0 16 0;
#X connect 15 0 14 0;
#X connect 17 0 5 0;
#X connect 18 0 2 0;
#X connect 19 0 9 0;
