#N canvas 497 158 479 535 10;
#X obj 62 31 inlet;
#X obj 156 31 inlet;
#X obj 62 131 * 6.28319;
#X obj 62 152 /;
#X obj 242 15 loadbang;
#X obj 269 136 samplerate~;
#X obj 123 161 max 5.96046e-08;
#X obj 155 189 cos;
#X obj 137 331 pack f f f f f f;
#X obj 226 284 / 2;
#X obj 155 236 * -2;
#X obj 62 243 t f f;
#X msg 89 264 1 \$1;
#X obj 89 285 -;
#X obj 62 285 + 1;
#X obj 188 237 + 1;
#X obj 188 284 * -1;
#X obj 62 89 f;
#X obj 156 73 t b f;
#X obj 62 201 sin;
#X obj 62 222 /;
#X obj 123 206 * 2;
#X obj 62 173 t f f;
#X obj 188 258 t f f;
#X obj 226 305 t f f;
#X obj 155 210 t f f;
#X msg 137 352 \$2 \$3 \$4 \$5 \$6 \$1;
#X obj 137 373 unpack f f f f f f;
#X obj 137 425 /;
#X obj 167 425 /;
#X obj 197 425 /;
#X obj 227 425 /;
#X obj 257 425 /;
#X obj 137 451 pack f f f f f;
#X obj 137 399 * -1;
#X obj 167 399 * -1;
#X text 247 331 a0 a1 a2 b0 b1 b2;
#X obj 12 467 biquad~;
#X obj 289 430 inlet;
#X msg 289 451 clear;
#X obj 12 446 inlet~;
#X obj 12 488 outlet~;
#X obj 62 110 clip 20 20000;
#X text 289 410 Reinitialize internal state;
#X text 12 508 Output;
#X text 12 426 Input;
#X text 62 11 Frequency(Hz);
#X text 156 11 Resonance(Q);
#X obj 62 52 f \$1;
#X obj 156 52 f \$2;
#X obj 242 36 t b b;
#X connect 0 0 48 0;
#X connect 1 0 49 0;
#X connect 2 0 3 0;
#X connect 3 0 22 0;
#X connect 4 0 50 0;
#X connect 5 0 3 1;
#X connect 6 0 21 0;
#X connect 7 0 25 0;
#X connect 8 0 26 0;
#X connect 9 0 24 0;
#X connect 10 0 8 1;
#X connect 11 0 14 0;
#X connect 11 1 12 0;
#X connect 12 0 13 0;
#X connect 13 0 8 2;
#X connect 14 0 8 0;
#X connect 15 0 23 0;
#X connect 16 0 8 4;
#X connect 17 0 42 0;
#X connect 18 0 17 0;
#X connect 18 1 6 0;
#X connect 19 0 20 0;
#X connect 20 0 11 0;
#X connect 21 0 20 1;
#X connect 22 0 19 0;
#X connect 22 1 7 0;
#X connect 23 0 16 0;
#X connect 23 1 9 0;
#X connect 24 0 8 3;
#X connect 24 1 8 5;
#X connect 25 0 10 0;
#X connect 25 1 15 0;
#X connect 26 0 27 0;
#X connect 27 0 34 0;
#X connect 27 1 35 0;
#X connect 27 2 30 0;
#X connect 27 3 31 0;
#X connect 27 4 32 0;
#X connect 27 5 32 1;
#X connect 27 5 31 1;
#X connect 27 5 30 1;
#X connect 27 5 29 1;
#X connect 27 5 28 1;
#X connect 28 0 33 0;
#X connect 29 0 33 1;
#X connect 30 0 33 2;
#X connect 31 0 33 3;
#X connect 32 0 33 4;
#X connect 33 0 37 0;
#X connect 34 0 28 0;
#X connect 35 0 29 0;
#X connect 37 0 41 0;
#X connect 38 0 39 0;
#X connect 39 0 37 0;
#X connect 40 0 37 0;
#X connect 42 0 2 0;
#X connect 48 0 17 0;
#X connect 49 0 18 0;
#X connect 50 0 49 0;
#X connect 50 0 48 0;
#X connect 50 1 5 0;
