#N canvas 662 150 252 405 10;
#X obj 97 114 /~;
#X obj 97 202 *~;
#X obj 112 53 samplerate~;
#X obj 112 31 loadbang;
#X msg 112 136 1;
#X obj 112 158 atan;
#X obj 112 180 * 8;
#X obj 97 224 clip~ 0 1;
#X obj 82 246 sig~ 1;
#X obj 82 268 -~;
#X obj 11 285 rpole~;
#X obj 11 307 *~;
#X obj 178 70 / 2;
#X obj 97 92 clip~ 20 22050;
#X obj 11 9 inlet~ audio;
#X obj 97 9 inlet~ frequency;
#X obj 11 333 outlet~ output;
#X connect 0 0 1 0;
#X connect 1 0 7 0;
#X connect 2 0 0 1;
#X connect 2 0 12 0;
#X connect 3 0 2 0;
#X connect 3 0 4 0;
#X connect 4 0 5 0;
#X connect 5 0 6 0;
#X connect 6 0 1 1;
#X connect 7 0 9 1;
#X connect 7 0 11 1;
#X connect 8 0 9 0;
#X connect 9 0 10 1;
#X connect 10 0 11 0;
#X connect 11 0 16 0;
#X connect 12 0 13 2;
#X connect 13 0 0 0;
#X connect 14 0 10 0;
#X connect 15 0 13 0;
