#N canvas 1236 349 418 353 10;
#X obj 175 170 /~;
#X obj 163 80 samplerate~;
#X obj 215 12 loadbang;
#X obj 175 212 clip~ 0 1;
#X obj 45 202 sig~ 1;
#X obj 45 228 -~;
#X obj 12 254 rpole~;
#X obj 100 290 *~;
#X obj 163 122 / 2;
#X obj 82 144 clip~ 20 22050;
#X obj 100 311 outlet~;
#X obj 175 191 *~ 6.28319;
#X obj 163 101 t f f;
#X obj 82 123 inlet~;
#X obj 12 123 inlet~;
#X msg 215 33 bang;
#X text 12 103 0: Input;
#X text 82 103 1: Frequency;
#X obj 249 217 inlet;
#X msg 249 238 clear;
#X msg 242 123 1;
#X obj 242 144 atan;
#X obj 242 165 * 8;
#X obj 215 54 t b b;
#X text 249 197 2: Clear internal state;
#X text 150 311 <- Output;
#X connect 0 0 11 0;
#X connect 1 0 12 0;
#X connect 2 0 15 0;
#X connect 3 0 5 1;
#X connect 3 0 7 1;
#X connect 4 0 5 0;
#X connect 5 0 6 1;
#X connect 6 0 7 0;
#X connect 7 0 10 0;
#X connect 8 0 9 2;
#X connect 9 0 0 0;
#X connect 11 0 3 0;
#X connect 12 0 8 0;
#X connect 12 1 0 1;
#X connect 13 0 9 0;
#X connect 14 0 6 0;
#X connect 15 0 23 0;
#X connect 18 0 19 0;
#X connect 19 0 6 0;
#X connect 20 0 21 0;
#X connect 21 0 22 0;
#X connect 22 0 11 1;
#X connect 23 0 1 0;
#X connect 23 1 20 0;
