#N canvas 946 561 434 419 10;
#X obj 177 80 samplerate~;
#X obj 229 12 loadbang;
#X obj 45 202 sig~ 1;
#X obj 45 250 -~;
#X obj 177 122 / 2;
#X obj 156 318 outlet~;
#X obj 177 101 t f f;
#X obj 82 123 inlet~;
#X obj 12 123 inlet~;
#X msg 229 33 bang;
#X obj 269 211 inlet;
#X msg 269 232 clear;
#X msg 256 123 1;
#X obj 256 144 atan;
#X obj 229 54 t b b;
#X obj 82 144 clip~ 0 22050;
#X obj 256 165 * -8;
#X obj 189 212 exp~;
#X obj 12 276 *~;
#X obj 60 228 abs~;
#X obj 156 292 rpole~;
#X obj 189 191 *~ -6.28319;
#X obj 159 170 /~ 44100;
#X text 12 13 One-pole Lowpass Filter;
#X text 8 369 https://www.musicdsp.org/en/latest/Filters/237-one-pole-filter-lp-and-hp.html
;
#X text 8 349 Reference:;
#X text 269 191 (I3) Clear internal state;
#X text 206 318 (O1) Output;
#X text 12 103 (I1) Input;
#X text 82 103 (I2) Frequency;
#X connect 0 0 6 0;
#X connect 1 0 9 0;
#X connect 2 0 3 0;
#X connect 3 0 18 1;
#X connect 4 0 15 2;
#X connect 6 0 4 0;
#X connect 6 1 22 1;
#X connect 7 0 15 0;
#X connect 8 0 18 0;
#X connect 9 0 14 0;
#X connect 10 0 11 0;
#X connect 11 0 20 0;
#X connect 12 0 13 0;
#X connect 13 0 16 0;
#X connect 14 0 0 0;
#X connect 14 1 12 0;
#X connect 15 0 22 0;
#X connect 16 0 21 1;
#X connect 17 0 20 1;
#X connect 17 0 19 0;
#X connect 18 0 20 0;
#X connect 19 0 3 1;
#X connect 20 0 5 0;
#X connect 21 0 17 0;
#X connect 22 0 21 0;
