#N canvas 0 23 323 446 10;
#X obj 12 251 inlet~;
#X obj 12 293 *~;
#X obj 12 314 +~;
#X obj 12 272 -~;
#X obj 12 221 block~ 1 1 1;
#X obj 72 348 delwrite~ \$0-z 0;
#X obj 62 258 delread~ \$0-z 0;
#X obj 12 350 outlet~;
#X obj 181 69 loadbang;
#X msg 181 132 1;
#X obj 181 153 atan;
#X obj 181 174 * 4;
#X obj 181 195 / 44100;
#X obj 181 90 samplerate~;
#X obj 181 111 t b a;
#X obj 166 216 *~;
#X obj 166 237 /~ 6.28319;
#X obj 166 258 -~ 0.25;
#X obj 166 279 cos~;
#X obj 223 216 * 2;
#X obj 166 43 clip~ 0 20000;
#X text 12 390 Based on The Art of VA Filter Design;
#X text 12 410 http://www.discodsp.net/VAFilterDesign_1.1.1.pdf;
#X text 12 370 Naive 1-pole lowpass filter;
#X obj 166 22 inlet~;
#X connect 0 0 3 0;
#X connect 1 0 2 0;
#X connect 2 0 5 0;
#X connect 2 0 7 0;
#X connect 3 0 1 0;
#X connect 6 0 3 1;
#X connect 6 0 2 1;
#X connect 8 0 13 0;
#X connect 9 0 10 0;
#X connect 10 0 11 0;
#X connect 11 0 12 0;
#X connect 11 0 19 0;
#X connect 12 0 15 1;
#X connect 13 0 14 0;
#X connect 14 0 9 0;
#X connect 14 1 12 1;
#X connect 15 0 16 0;
#X connect 16 0 17 0;
#X connect 17 0 18 0;
#X connect 18 0 1 1;
#X connect 19 0 16 1;
#X connect 20 0 15 0;
#X connect 24 0 20 0;
