#N canvas 1130 276 507 486 10;
#X obj 12 70 +~;
#X obj 12 93 *~;
#X obj 12 133 *~;
#X obj 12 246 +~;
#X obj 12 304 *~;
#X obj 12 397 +~;
#X obj 47 167 +~;
#X obj 47 190 delwrite~ \$0-del1 0;
#X obj 142 232 delread~ \$0-del1 0;
#X obj 142 255 *~;
#X obj 142 278 +~;
#X obj 142 301 *~ -1;
#X obj 27 338 +~;
#X obj 27 361 delwrite~ \$0-del2 0;
#X obj 157 383 delread~ \$0-del2 0;
#X obj 12 453 block~ 1 1 1;
#X obj 12 423 outlet~ lp;
#X obj 56 260 outlet~ bp;
#X obj 44 107 outlet~ hp;
#X obj 12 47 inlet~;
#X obj 279 59 loadbang;
#X msg 279 122 1;
#X obj 279 143 atan;
#X obj 279 164 * 4;
#X obj 279 185 / 44100;
#X obj 279 80 samplerate~;
#X obj 279 101 t b a;
#X obj 264 206 *~;
#X obj 264 227 /~ 6.28319;
#X obj 264 248 -~ 0.25;
#X obj 264 269 cos~;
#X obj 264 290 /~;
#X obj 302 276 cos~;
#X obj 321 206 * 2;
#X obj 404 199 sig~ 1;
#X obj 404 220 /~;
#X obj 389 241 +~;
#X obj 374 304 *~;
#X obj 359 58 sig~ 1;
#X obj 359 79 /~;
#X obj 374 325 +~ 1;
#X obj 264 33 min~ 20000;
#X obj 264 12 inlet~ freq;
#X obj 419 157 inlet~ q;
#X obj 419 178 clip~ 0.1 100;
#X text 299 400 by Kegan Simpson 2018;
#X text 120 417 Reference;
#X text 120 437 https://dsp.stackexchange.com/questions/41113/deriving-frequency-response-for-2-pole-zero-delay-feedback-state-variable-filter
;
#X connect 0 0 1 0;
#X connect 1 0 2 0;
#X connect 1 0 18 0;
#X connect 2 0 3 0;
#X connect 2 0 6 0;
#X connect 3 0 4 0;
#X connect 3 0 17 0;
#X connect 3 0 6 1;
#X connect 4 0 5 0;
#X connect 4 0 12 0;
#X connect 5 0 16 0;
#X connect 5 0 12 1;
#X connect 6 0 7 0;
#X connect 8 0 9 0;
#X connect 8 0 3 1;
#X connect 9 0 10 0;
#X connect 10 0 11 0;
#X connect 11 0 0 1;
#X connect 12 0 13 0;
#X connect 14 0 10 1;
#X connect 14 0 5 1;
#X connect 19 0 0 0;
#X connect 20 0 25 0;
#X connect 21 0 22 0;
#X connect 22 0 23 0;
#X connect 23 0 24 0;
#X connect 23 0 33 0;
#X connect 24 0 27 1;
#X connect 25 0 26 0;
#X connect 26 0 21 0;
#X connect 26 1 24 1;
#X connect 27 0 28 0;
#X connect 28 0 29 0;
#X connect 28 0 32 0;
#X connect 29 0 30 0;
#X connect 30 0 31 0;
#X connect 31 0 4 1;
#X connect 31 0 2 1;
#X connect 31 0 37 0;
#X connect 31 0 36 0;
#X connect 32 0 31 1;
#X connect 33 0 28 1;
#X connect 34 0 35 0;
#X connect 35 0 36 1;
#X connect 36 0 37 1;
#X connect 36 0 9 1;
#X connect 37 0 40 0;
#X connect 38 0 39 0;
#X connect 39 0 1 1;
#X connect 40 0 39 1;
#X connect 41 0 27 0;
#X connect 42 0 41 0;
#X connect 43 0 44 0;
#X connect 44 0 35 1;
