#N canvas 1112 432 566 570 10;
#X obj 335 380 tgl 17 1 empty empty empty 17 7 0 10 -262144 -1 -1 1
1;
#X obj 335 423 tabwrite~ \$0-scope;
#X obj 335 402 metro 50;
#X obj 152 24 vsl 15 128 0 127 0 1 empty empty CUTOFF 0 -9 0 10 -262144
-1 -1 12700 1;
#N canvas 0 22 450 278 (subpatch) 0;
#X array \$0-scope 441 float 0;
#X coords 0 1 441 -1 200 140 1;
#X restore 293 186 graph;
#X obj 127 451 hip~ 3;
#X obj 127 472 clip~ -1 1;
#X obj 127 517 dac~ 1 2;
#X obj 152 160 nbx 3 17 0 127 0 0 empty empty empty 0 -8 0 10 -262144
-1 -1 127 256;
#X obj 152 182 / 127;
#X obj 152 203 pow 3;
#X obj 152 224 * 20000;
#X msg 152 265 \$1 20;
#X obj 152 286 line~;
#X obj 222 24 vsl 15 128 0 127 0 1 empty empty Q 0 -9 0 10 -262144
-1 -1 0 1;
#X obj 222 160 nbx 3 17 0 127 0 0 empty empty empty 0 -8 0 10 -262144
-1 -1 0 256;
#X obj 222 182 / 127;
#X obj 222 203 pow 3;
#X msg 222 265 \$1 20;
#X obj 222 286 line~;
#X floatatom 152 245 0 0 0 0 - - -;
#X floatatom 222 245 0 0 0 0 - - -;
#X obj 278 92 hradio 17 1 1 3 \$0-typ empty FILTER-TYPE 0 -8 0 10 -262144
-1 -1 0;
#X text 279 108 LP;
#X text 296 108 HP;
#X text 313 108 BP;
#X obj 12 187 noise~;
#X obj 142 346 r \$0-typ;
#X obj 142 367 == 0;
#X obj 127 388 *~;
#X obj 202 346 r \$0-typ;
#X obj 187 388 *~;
#X obj 262 346 r \$0-typ;
#X obj 247 388 *~;
#X obj 202 367 == 1;
#X obj 262 367 == 2;
#X obj 127 409 *~ 1;
#X obj 127 430 *~ 0.5;
#X obj 127 493 *~ 0.25;
#X obj 358 92 hradio 17 1 1 3 \$0-src empty SOURCE 0 -8 0 10 -262144
-1 -1 0;
#X obj 12 255 *~;
#X obj 82 255 *~;
#X obj 82 104 mtof;
#X floatatom 82 125 5 0 0 0 - - -;
#X obj 82 145 phasor~;
#X obj 82 166 *~ 2;
#X obj 82 187 -~ 1;
#X obj 12 276 +~;
#X obj 82 82 nbx 3 17 0 127 0 1 empty empty empty 0 -8 0 10 -262144
-1 -1 55 256;
#X obj 27 213 r \$0-src;
#X obj 97 213 r \$0-src;
#X obj 27 234 == 1;
#X obj 97 234 == 2;
#X text 359 108 MT;
#X text 376 108 NS;
#X text 393 108 SW;
#X text 371 468 by Kegan Simpson 2018;
#X text 192 485 Reference;
#X text 192 505 https://dsp.stackexchange.com/questions/41113/deriving-frequency-response-for-2-pole-zero-delay-feedback-state-variable-filter
;
#X obj 127 320 stvar~;
#X obj 222 224 * 7;
#X connect 0 0 2 0;
#X connect 2 0 1 0;
#X connect 3 0 8 0;
#X connect 5 0 6 0;
#X connect 6 0 38 0;
#X connect 8 0 9 0;
#X connect 9 0 10 0;
#X connect 10 0 11 0;
#X connect 11 0 20 0;
#X connect 12 0 13 0;
#X connect 13 0 59 1;
#X connect 14 0 15 0;
#X connect 15 0 16 0;
#X connect 16 0 17 0;
#X connect 17 0 60 0;
#X connect 18 0 19 0;
#X connect 19 0 59 2;
#X connect 20 0 12 0;
#X connect 21 0 18 0;
#X connect 26 0 40 0;
#X connect 27 0 28 0;
#X connect 28 0 29 1;
#X connect 29 0 36 0;
#X connect 30 0 34 0;
#X connect 31 0 36 0;
#X connect 32 0 35 0;
#X connect 33 0 36 0;
#X connect 34 0 31 1;
#X connect 35 0 33 1;
#X connect 36 0 37 0;
#X connect 36 0 1 0;
#X connect 37 0 5 0;
#X connect 38 0 7 0;
#X connect 38 0 7 1;
#X connect 40 0 47 0;
#X connect 41 0 47 1;
#X connect 42 0 43 0;
#X connect 43 0 44 0;
#X connect 44 0 45 0;
#X connect 45 0 46 0;
#X connect 46 0 41 0;
#X connect 47 0 59 0;
#X connect 48 0 42 0;
#X connect 49 0 51 0;
#X connect 50 0 52 0;
#X connect 51 0 40 1;
#X connect 52 0 41 1;
#X connect 59 0 29 0;
#X connect 59 1 31 0;
#X connect 59 2 33 0;
#X connect 60 0 21 0;
