#N canvas 161 78 828 795 10;
#X obj 12 31 inlet;
#X obj 122 31 inlet;
#X text 12 11 (I1) MIDI Note;
#X text 122 11 (I2) Velocity;
#X obj 12 392 r \$0-gate;
#X obj 274 297 >;
#X obj 274 318 sel 1;
#X obj 274 360 v \$0-int;
#X obj 212 325 + 1;
#X obj 212 346 v \$0-int;
#X obj 185 283 v \$0-int;
#X msg 274 339 0;
#X obj 185 561 t f f;
#X obj 331 603 div;
#X obj 185 587 %;
#X obj 319 550 r \$0-size;
#X obj 319 571 t f f;
#X obj 185 650 unpack f f;
#X obj 185 671 +;
#X obj 331 624 * 12;
#X obj 185 692 pack f f;
#X obj 222 31 inlet;
#X obj 222 52 + 1;
#X obj 535 239 v \$0-int;
#X obj 594 323 sel 1;
#X obj 539 390 + 1;
#X obj 539 411 v \$0-int;
#X obj 535 260 t b f f;
#X obj 497 286 v \$0-int;
#X msg 594 344 -1;
#X obj 554 323 sel 0;
#X msg 554 344 1;
#X obj 594 302 >=;
#X obj 497 349 min;
#X obj 335 383 list prepend;
#X obj 335 404 -;
#X text 222 11 (I3) Octave;
#X obj 312 31 inlet;
#X text 312 11 (I4) Direction;
#X obj 12 455 v \$0-direction;
#X obj 312 73 s \$0-direction;
#X obj 312 94 v \$0-direction;
#X obj 237 389 r \$0-direction;
#X obj 204 431 spigot;
#X obj 237 410 == 0;
#X obj 335 446 spigot;
#X obj 368 404 r \$0-direction;
#X obj 368 425 == 1;
#X obj 12 434 metro 150;
#X obj 412 31 inlet;
#X obj 412 53 s \$0-tempo;
#X obj 63 413 r \$0-tempo;
#X obj 185 304 t f f;
#X obj 497 307 t f f;
#X obj 602 260 t f f;
#X obj 497 370 s \$0-counter;
#X obj 335 467 s \$0-counter;
#X text 412 11 (I5) Tempo;
#X obj 352 30 loadbang;
#X msg 352 51 0;
#X obj 405 728 makenote \$2 100;
#X obj 405 749 outlet;
#X obj 492 749 outlet;
#X obj 274 255 v \$0-int;
#X obj 185 239 t b b;
#X obj 12 52 list prepend;
#N canvas 907 118 449 504 register-&-sort 0;
#X obj 39 54 tabwrite \$0-velocity;
#X obj 12 33 t b l;
#X obj 31 160 t b b;
#X msg 31 181 127;
#X obj 31 202 until;
#X obj 56 223 i;
#X obj 86 223 + 1;
#X msg 71 181 0;
#X obj 56 244 t f f;
#X obj 101 265 tabread \$0-velocity;
#X obj 12 96 t b b b;
#X obj 51 138 text define \$0-note-on;
#X msg 51 117 clear;
#X obj 12 405 text size \$0-note-on;
#X obj 12 426 s \$0-size;
#X text 56 369 [3] Read notes with velocity greater than zero and insert
them on the note-on text array.;
#X text 91 117 [2] Clear note-on text array.;
#X text 49 34 [1] Register velocity of all notes.;
#X text 12 466 [4] Get size of note-on: number of active notes;
#X obj 12 446 v \$0-size;
#X obj 56 349 text insert \$0-note-on 127;
#X obj 12 12 inlet;
#X obj 39 74 array define -yrange 0 127 \$0-velocity 127;
#X obj 101 286 t f f;
#X obj 128 312 > 0;
#X obj 56 328 spigot;
#X obj 56 307 pack f f;
#X connect 1 0 10 0;
#X connect 1 1 0 0;
#X connect 2 0 3 0;
#X connect 2 1 7 0;
#X connect 3 0 4 0;
#X connect 4 0 5 0;
#X connect 5 0 6 0;
#X connect 5 0 8 0;
#X connect 6 0 5 1;
#X connect 7 0 5 1;
#X connect 8 0 26 0;
#X connect 8 1 9 0;
#X connect 9 0 23 0;
#X connect 10 0 13 0;
#X connect 10 1 2 0;
#X connect 10 2 12 0;
#X connect 12 0 11 0;
#X connect 13 0 14 0;
#X connect 21 0 1 0;
#X connect 23 0 26 1;
#X connect 23 1 24 0;
#X connect 24 0 25 1;
#X connect 25 0 20 0;
#X connect 26 0 25 0;
#X restore 66 114 pd register-&-sort;
#X obj 39 93 t l l;
#X obj 185 608 text get \$0-note-order;
#X obj 12 73 t b l;
#X obj 12 177 > 0;
#X obj 12 198 change;
#X obj 12 219 t f f;
#X obj 39 240 sel 1;
#X obj 39 261 s \$0-on;
#X obj 89 261 r \$0-on;
#X obj 89 303 v \$0-int;
#X msg 89 282 0;
#X obj 12 282 s \$0-gate;
#X obj 12 156 v \$0-size;
#X msg 185 629 \$2 \$3;
#X obj 212 94 r \$0-size;
#X obj 222 136 - 1;
#X obj 222 73 t b f;
#X obj 222 115 * 1;
#X obj 222 157 s \$0-t-size;
#X obj 289 276 r \$0-t-size;
#X obj 602 239 r \$0-t-size;
#X obj 404 362 r \$0-t-size;
#N canvas 571 257 551 403 note-order 0;
#X obj 176 75 > 0;
#X msg 206 167 1;
#X obj 221 188 +;
#X obj 251 188 i;
#X obj 236 75 r \$0-size;
#X obj 236 96 sel 0;
#X msg 236 167 0;
#X obj 236 117 t b b;
#X obj 176 209 tabwrite \$0-note-order;
#X obj 176 146 sel 0 1;
#X msg 176 167 0;
#X obj 248 49 unpack f f;
#X msg 263 138 const 0;
#X obj 12 33 t l l;
#X obj 31 138 t b b;
#X msg 31 159 127;
#X obj 31 180 until;
#X obj 56 201 i;
#X obj 86 201 + 1;
#X msg 71 159 0;
#X msg 51 96 clear;
#X obj 12 117 text define \$0-note-order;
#X obj 263 159 array define -yrange 0 127 \$0-note-order 127;
#X obj 56 222 t f f;
#X obj 194 269 tabread \$0-note-order;
#X obj 194 290 t f f;
#X obj 221 311 > 0;
#X obj 56 243 t f f;
#X obj 56 285 pack f f;
#X obj 66 264 tabread \$0-velocity;
#X obj 56 306 list prepend;
#X obj 56 327 spigot;
#X obj 56 348 text insert \$0-note-order 0;
#X msg 12 80 sort;
#X obj 12 59 t b b b;
#X obj 12 12 inlet;
#X text 176 229 [1] Assign note order to each note;
#X text 16 369 [2] Sort note order into a text object;
#X connect 0 0 9 0;
#X connect 1 0 2 0;
#X connect 2 0 3 0;
#X connect 2 0 8 0;
#X connect 3 0 2 1;
#X connect 4 0 5 0;
#X connect 5 0 7 0;
#X connect 6 0 2 1;
#X connect 7 0 6 0;
#X connect 7 1 12 0;
#X connect 9 0 10 0;
#X connect 9 1 1 0;
#X connect 10 0 8 0;
#X connect 11 0 0 0;
#X connect 11 1 8 1;
#X connect 12 0 22 0;
#X connect 13 0 34 0;
#X connect 13 1 11 0;
#X connect 14 0 15 0;
#X connect 14 1 19 0;
#X connect 15 0 16 0;
#X connect 16 0 17 0;
#X connect 17 0 18 0;
#X connect 17 0 23 0;
#X connect 18 0 17 1;
#X connect 19 0 17 1;
#X connect 20 0 21 0;
#X connect 23 0 27 0;
#X connect 23 1 24 0;
#X connect 24 0 25 0;
#X connect 25 0 30 1;
#X connect 25 1 26 0;
#X connect 26 0 31 1;
#X connect 27 0 28 0;
#X connect 27 1 29 0;
#X connect 28 0 30 0;
#X connect 29 0 28 1;
#X connect 30 0 31 0;
#X connect 31 0 32 0;
#X connect 33 0 21 0;
#X connect 34 0 33 0;
#X connect 34 1 14 0;
#X connect 34 2 20 0;
#X connect 35 0 13 0;
#X restore 39 135 pd note-order;
#X obj 12 476 s \$0-dir;
#X obj 185 197 r \$0-dir;
#X obj 535 197 r \$0-dir;
#X obj 535 218 sel 2;
#X obj 685 197 r \$0-dir;
#X obj 695 239 random;
#X obj 728 218 r \$0-t-size;
#X obj 695 260 s \$0-counter;
#X obj 185 218 sel 0 1 3;
#X obj 218 498 r \$0-direction;
#X obj 185 540 spigot;
#X obj 218 519 == 3;
#X obj 405 582 t f f;
#X obj 551 634 div;
#X obj 405 608 %;
#X obj 539 571 r \$0-size;
#X obj 539 592 t f f;
#X obj 405 650 unpack f f;
#X obj 405 671 +;
#X obj 551 655 * 12;
#X obj 405 692 pack f f;
#X obj 405 629 text get \$0-note-on;
#X obj 204 452 s \$0-counter;
#X obj 405 561 r \$0-counter;
#X obj 685 218 sel 4;
#X obj 185 367 t f f f;
#X text 12 374 // Clock;
#X text 204 472 // Up;
#X text 335 487 // Down;
#X text 497 430 // Up and Down;
#X text 695 280 // Random;
#X text 245 692 // Note order;
#X text 405 541 // Up \, Down \, Up/Down & Counter;
#X obj 492 707 r \$0-tempo;
#X text 405 769 (O1) Note;
#X text 492 769 (O2) Velocity;
#X connect 0 0 65 0;
#X connect 1 0 65 1;
#X connect 4 0 48 0;
#X connect 5 0 6 0;
#X connect 6 0 11 0;
#X connect 8 0 9 0;
#X connect 10 0 52 0;
#X connect 11 0 7 0;
#X connect 12 0 14 0;
#X connect 12 1 13 0;
#X connect 13 0 19 0;
#X connect 14 0 68 0;
#X connect 15 0 16 0;
#X connect 16 0 14 1;
#X connect 16 1 13 1;
#X connect 17 0 18 0;
#X connect 17 1 20 1;
#X connect 18 0 20 0;
#X connect 19 0 18 1;
#X connect 20 0 60 0;
#X connect 21 0 22 0;
#X connect 22 0 83 0;
#X connect 23 0 27 0;
#X connect 24 0 29 0;
#X connect 25 0 26 0;
#X connect 27 0 28 0;
#X connect 27 1 30 0;
#X connect 27 2 32 0;
#X connect 28 0 53 0;
#X connect 29 0 25 1;
#X connect 30 0 31 0;
#X connect 31 0 25 1;
#X connect 32 0 24 0;
#X connect 33 0 55 0;
#X connect 34 0 35 0;
#X connect 35 0 45 0;
#X connect 37 0 40 0;
#X connect 39 0 90 0;
#X connect 42 0 44 0;
#X connect 43 0 112 0;
#X connect 44 0 43 1;
#X connect 45 0 56 0;
#X connect 46 0 47 0;
#X connect 47 0 45 1;
#X connect 48 0 39 0;
#X connect 49 0 50 0;
#X connect 51 0 48 1;
#X connect 52 0 115 0;
#X connect 52 1 8 0;
#X connect 53 0 33 0;
#X connect 53 1 25 0;
#X connect 54 0 33 1;
#X connect 54 1 32 1;
#X connect 58 0 59 0;
#X connect 59 0 40 0;
#X connect 60 0 61 0;
#X connect 60 1 62 0;
#X connect 63 0 5 0;
#X connect 64 0 10 0;
#X connect 64 1 63 0;
#X connect 65 0 69 0;
#X connect 67 0 89 0;
#X connect 67 1 66 0;
#X connect 68 0 80 0;
#X connect 69 0 79 0;
#X connect 69 1 67 0;
#X connect 70 0 71 0;
#X connect 71 0 72 0;
#X connect 72 0 78 0;
#X connect 72 1 73 0;
#X connect 73 0 74 0;
#X connect 75 0 77 0;
#X connect 77 0 76 0;
#X connect 79 0 70 0;
#X connect 80 0 17 0;
#X connect 81 0 84 0;
#X connect 82 0 85 0;
#X connect 83 0 84 0;
#X connect 83 1 84 1;
#X connect 84 0 82 0;
#X connect 86 0 5 1;
#X connect 87 0 54 0;
#X connect 88 0 34 1;
#X connect 91 0 98 0;
#X connect 92 0 93 0;
#X connect 93 0 23 0;
#X connect 94 0 114 0;
#X connect 95 0 97 0;
#X connect 96 0 95 1;
#X connect 98 0 64 0;
#X connect 98 1 64 0;
#X connect 98 2 64 0;
#X connect 99 0 101 0;
#X connect 100 0 12 0;
#X connect 101 0 100 1;
#X connect 102 0 104 0;
#X connect 102 1 103 0;
#X connect 103 0 109 0;
#X connect 104 0 111 0;
#X connect 105 0 106 0;
#X connect 106 0 104 1;
#X connect 106 1 103 1;
#X connect 107 0 108 0;
#X connect 107 1 110 1;
#X connect 108 0 110 0;
#X connect 109 0 108 1;
#X connect 110 0 60 0;
#X connect 111 0 107 0;
#X connect 113 0 102 0;
#X connect 114 0 95 0;
#X connect 115 0 100 0;
#X connect 115 1 34 0;
#X connect 115 1 43 0;
#X connect 123 0 60 2;
