#N canvas 0 22 1132 466 10;
#X obj 195 32 tgl 17 0 \$0-snd-tgl \$0-rcv-tgl ON/OFF 0 -8 0 10 #fcfcfc #000000 #000000 0 1;
#X obj 195 67 nbx 2 17 0 32 0 0 \$0-snd-stp \$0-rcv-stp STEPS 0 -8 0 10 #fcfcfc #000000 #000000 0 256;
#X obj 195 102 nbx 2 17 0 16 0 0 \$0-snd-hts \$0-rcv-hts HITS 0 -8 0 10 #fcfcfc #000000 #000000 0 256;
#X obj 245 102 nbx 2 17 0 16 0 0 \$0-snd-rtt \$0-rcv-rtt ROTATION 0 -8 0 10 #fcfcfc #000000 #000000 0 256;
#X obj 195 137 nbx 2 17 0 4 0 0 \$0-snd-acc \$0-rcv-acc ACCENTS 0 -8 0 10 #fcfcfc #000000 #000000 0 256;
#X obj 245 137 nbx 2 17 0 4 0 0 \$0-snd-art \$0-rcv-art ACC-ROT 0 -8 0 10 #fcfcfc #000000 #000000 0 256;
#N canvas 645 23 488 466 parameters 0;
#X obj 12 85 t b f;
#X obj 12 106 /;
#X obj 12 59 t f f;
#X obj 39 131 *;
#X obj 56 92 r \$0-snd-hts;
#X obj 39 194 s \$0-rcv-hts;
#X obj 123 33 t f f f;
#X obj 142 85 t b f;
#X obj 142 106 /;
#X obj 142 59 t f f;
#X obj 169 131 *;
#X obj 186 92 r \$0-snd-rtt;
#X obj 169 194 s \$0-rcv-rtt;
#X obj 275 47 pack f \$0;
#X obj 123 12 r \$0-snd-stp;
#X obj 12 295 t b f;
#X obj 12 316 /;
#X obj 12 269 t f f;
#X obj 39 341 *;
#X obj 123 243 t f f f;
#X obj 142 295 t b f;
#X obj 142 316 /;
#X obj 142 269 t f f;
#X obj 169 341 *;
#X obj 275 257 pack f \$0;
#X obj 123 222 r \$0-snd-hts;
#X obj 56 302 r \$0-snd-acc;
#X obj 186 302 r \$0-snd-art;
#X msg 275 318 \; \$2-rcv-art range 0 \$1;
#X msg 275 278 \; \$2-rcv-acc range 0 \$1;
#X msg 275 108 \; \$2-rcv-rtt range 0 \$1;
#X msg 275 68 \; \$2-rcv-hts range 0 \$1;
#X obj 39 173 i;
#X obj 169 173 i;
#X obj 39 152 + 0.5;
#X obj 169 152 + 0.5;
#X obj 39 383 i;
#X obj 169 383 i;
#X obj 39 362 + 0.5;
#X obj 169 362 + 0.5;
#X obj 39 404 s \$0-rcv-acc;
#X obj 169 404 s \$0-rcv-art;
#X connect 0 0 1 0;
#X connect 0 1 1 1;
#X connect 1 0 3 1;
#X connect 2 0 0 0;
#X connect 2 1 3 0;
#X connect 3 0 34 0;
#X connect 4 0 1 0;
#X connect 6 0 2 0;
#X connect 6 1 9 0;
#X connect 6 2 13 0;
#X connect 7 0 8 0;
#X connect 7 1 8 1;
#X connect 8 0 10 1;
#X connect 9 0 7 0;
#X connect 9 1 10 0;
#X connect 10 0 35 0;
#X connect 11 0 8 0;
#X connect 13 0 31 0;
#X connect 13 0 30 0;
#X connect 14 0 6 0;
#X connect 15 0 16 0;
#X connect 15 1 16 1;
#X connect 16 0 18 1;
#X connect 17 0 15 0;
#X connect 17 1 18 0;
#X connect 18 0 38 0;
#X connect 19 0 17 0;
#X connect 19 1 22 0;
#X connect 19 2 24 0;
#X connect 20 0 21 0;
#X connect 20 1 21 1;
#X connect 21 0 23 1;
#X connect 22 0 20 0;
#X connect 22 1 23 0;
#X connect 23 0 39 0;
#X connect 24 0 29 0;
#X connect 24 0 28 0;
#X connect 25 0 19 0;
#X connect 26 0 16 0;
#X connect 27 0 21 0;
#X connect 32 0 5 0;
#X connect 33 0 12 0;
#X connect 34 0 32 0;
#X connect 35 0 33 0;
#X connect 36 0 40 0;
#X connect 37 0 41 0;
#X connect 38 0 36 0;
#X connect 39 0 37 0;
#X restore 5 230 pd parameters;
#X obj 307 110 %;
#X obj 307 266 t f f;
#X obj 435 280 pack f \$0;
#X msg 435 374 symbol \$2-tgl\$1;
#X obj 307 410 s;
#X obj 307 310 sel 0 1 2;
#X msg 307 332 color 0 0;
#X obj 307 244 i;
#X obj 307 132 t f b b f;
#X msg 351 266 color 10 10;
#X obj 307 68 spigot;
#X obj 322 89 r \$0-snd-stp;
#X obj 340 47 r \$0-snd-tgl;
#X obj 503 167 sel 1 2 0;
#X obj 307 288 tabread \$0-euc;
#X obj 503 146 tabread \$0-euc;
#N canvas 4 23 450 300 \$0-circle 0;
#X obj 180 97 r 1011-tgl0;
#X obj 208 103 r 1011-tgl1;
#X obj 233 119 r 1011-tgl2;
#X obj 249 144 r 1011-tgl3;
#X obj 255 172 r 1011-tgl4;
#X obj 249 200 r 1011-tgl5;
#X obj 233 225 r 1011-tgl6;
#X obj 208 241 r 1011-tgl7;
#X obj 180 247 r 1011-tgl8;
#X obj 152 241 r 1011-tgl9;
#X obj 127 225 r 1011-tgl10;
#X obj 111 200 r 1011-tgl11;
#X obj 105 172 r 1011-tgl12;
#X obj 111 144 r 1011-tgl13;
#X obj 127 119 r 1011-tgl14;
#X obj 152 103 r 1011-tgl15;
#X obj 180 105 tgl 16 0 empty empty empty 0 -8 0 10 #fc2828 #fc2828 #000000 0 1;
#X obj 208 111 tgl 16 0 empty empty empty 0 -8 0 10 #fcfcfc #fcfcfc #000000 0 1;
#X obj 233 127 tgl 16 0 empty empty empty 0 -8 0 10 #fcfcfc #fcfcfc #000000 0 1;
#X obj 249 152 tgl 16 0 empty empty empty 0 -8 0 10 #fcfcfc #fcfcfc #000000 0 1;
#X obj 255 180 tgl 16 0 empty empty empty 0 -8 0 10 #7c7c7c #7c7c7c #000000 0 1;
#X obj 249 208 tgl 16 0 empty empty empty 0 -8 0 10 #fcfcfc #fcfcfc #000000 0 1;
#X obj 233 233 tgl 16 0 empty empty empty 0 -8 0 10 #fcfcfc #fcfcfc #000000 0 1;
#X obj 208 249 tgl 16 0 empty empty empty 0 -8 0 10 #fcfcfc #fcfcfc #000000 0 1;
#X obj 180 255 tgl 16 0 empty empty empty 0 -8 0 10 #fc2828 #fc2828 #000000 0 1;
#X obj 152 249 tgl 16 0 empty empty empty 0 -8 0 10 #fcfcfc #fcfcfc #000000 0 1;
#X obj 127 233 tgl 16 0 empty empty empty 0 -8 0 10 #fcfcfc #fcfcfc #000000 0 1;
#X obj 111 208 tgl 16 0 empty empty empty 0 -8 0 10 #fcfcfc #fcfcfc #000000 0 1;
#X obj 105 180 tgl 16 0 empty empty empty 0 -8 0 10 #7c7c7c #7c7c7c #000000 0 1;
#X obj 111 152 tgl 16 0 empty empty empty 0 -8 0 10 #fcfcfc #fcfcfc #000000 0 1;
#X obj 127 127 tgl 16 0 empty empty empty 0 -8 0 10 #fcfcfc #fcfcfc #000000 0 1;
#X obj 152 111 tgl 16 0 empty empty empty 0 -8 0 10 #fcfcfc #fcfcfc #000000 0 1;
#X connect 0 0 16 0;
#X connect 1 0 17 0;
#X connect 2 0 18 0;
#X connect 3 0 19 0;
#X connect 4 0 20 0;
#X connect 5 0 21 0;
#X connect 6 0 22 0;
#X connect 7 0 23 0;
#X connect 8 0 24 0;
#X connect 9 0 25 0;
#X connect 10 0 26 0;
#X connect 11 0 27 0;
#X connect 12 0 28 0;
#X connect 13 0 29 0;
#X connect 14 0 30 0;
#X connect 15 0 31 0;
#X coords 0 -1 1 1 175 175 2 100 100;
#X restore 10 20 pd \$0-circle;
#X msg 341 374 color 13 13;
#X msg 324 353 color 11 11;
#X obj 245 32 tgl 17 0 \$0-snd-mrr \$0-rcv-mrr Mirror 0 -8 0 10 #fcfcfc #000000 #000000 0 1;
#N canvas 130 43 1149 677 euclidean-and-gui 0;
#X obj 646 45 r \$0-snd-stp;
#X msg 715 212 0;
#X obj 673 191 until;
#X obj 673 238 i;
#X obj 703 238 + 1;
#X obj 732 31 r \$0-snd-hts;
#X obj 646 66 i;
#X obj 732 52 t b f;
#X obj 673 352 *;
#X obj 673 373 %;
#X obj 673 170 t f b f;
#X obj 673 394 <;
#X obj 673 331 t f f;
#X obj 812 52 t b f;
#X obj 812 31 r \$0-snd-rtt;
#X obj 700 457 i;
#X obj 730 457 + 1;
#X obj 892 52 t b f;
#X obj 972 52 t b f;
#X obj 892 31 r \$0-snd-acc;
#X obj 972 31 r \$0-snd-art;
#X obj 700 499 *;
#X obj 700 541 <;
#X obj 700 520 %;
#X obj 673 575 +;
#X obj 673 415 t f f;
#X obj 700 436 sel 1;
#X obj 673 601 tabwrite \$0-euc;
#X msg 727 561 0;
#X obj 760 559 +;
#X obj 760 580 %;
#X obj 700 478 +;
#X obj 673 289 list prepend;
#X obj 673 310 -;
#X obj 673 621 array define -yrange 0 2 \$0-euc 32;
#X obj 575 563 s pd-\$0-circle;
#X obj 335 417 cos;
#X obj 379 417 sin;
#X obj 335 395 t f f;
#X obj 335 461 i;
#X obj 379 461 i;
#X obj 335 505 pack f f;
#X msg 335 549 obj \$1 \$2 tgl;
#X msg 575 335 clear;
#X obj 335 373 - 1.57079;
#X obj 335 351 * 6.28319;
#X msg 205 549 connect \$1 0 \$2 0;
#X obj 245 330 t f f;
#X obj 282 352 +;
#X obj 245 369 pack;
#X msg 437 549 obj \$1 \$2 r \$4-tgl\$3;
#X obj 437 527 pack f f f \$0;
#X obj 440 439 cos;
#X obj 484 439 sin;
#X obj 499 338 /;
#X obj 440 352 *;
#X obj 440 417 t f f;
#X obj 440 483 i;
#X obj 484 483 i;
#X obj 440 395 - 1.57079;
#X obj 440 373 * 6.28319;
#X msg 499 316 1 \$1;
#X obj 335 482 + 180;
#X obj 379 483 + 180;
#X obj 335 439 * 75;
#X obj 379 439 * 75;
#X obj 440 461 * 75;
#X obj 484 461 * 75;
#X obj 440 505 + 180;
#X obj 393 171 t f f f f b;
#X obj 12 312 sel 0 1 2;
#X msg 12 334 color 0 0;
#X obj 12 432 s;
#X obj 129 396 pack f \$0;
#X msg 129 418 symbol \$2-tgl\$1;
#X obj 440 330 t f f;
#X obj 102 269 t f f;
#X obj 440 267 until;
#X obj 440 309 i;
#X obj 470 309 + 1;
#X msg 455 288 0;
#X obj 394 316 /;
#X obj 335 330 *;
#X msg 394 294 1 \$1;
#X obj 335 267 until;
#X obj 335 309 i;
#X obj 365 309 + 1;
#X msg 350 288 0;
#X obj 335 246 t f b f;
#X obj 440 246 t f b f;
#X obj 245 267 until;
#X obj 245 309 i;
#X obj 275 309 + 1;
#X msg 260 288 0;
#X obj 245 246 t f b f;
#X obj 646 87 t f f;
#X obj 12 290 tabread \$0-euc;
#X obj 102 206 until;
#X obj 102 248 i;
#X obj 132 248 + 1;
#X msg 129 227 0;
#X obj 102 185 t f b;
#X msg 46 374 color 13 13;
#X msg 29 354 color 11 11;
#X obj 1052 52 t b f;
#X obj 1052 31 r \$0-snd-mrr;
#X obj 484 505 + 172;
#X text 437 569 Create Receive objects;
#X text 335 569 Create Toggles;
#X text 205 569 connect [r] & [tgl];
#X text 12 452 Color Toggles;
#X msg 955 212 0;
#X obj 913 191 until;
#X obj 913 238 i;
#X obj 943 238 + 1;
#X obj 913 331 *;
#X obj 913 352 %;
#X obj 913 170 t f b f;
#X obj 913 373 <;
#X obj 940 436 i;
#X obj 970 436 + 1;
#X obj 940 520 *;
#X obj 940 562 <;
#X obj 940 541 %;
#X obj 913 596 +;
#X obj 913 394 t f f;
#X obj 940 415 sel 1;
#X obj 913 622 tabwrite \$0-euc;
#X msg 967 582 0;
#X obj 1000 580 +;
#X obj 1000 601 %;
#X obj 913 289 list prepend;
#X obj 913 310 -;
#X obj 913 259 t f f;
#X obj 940 499 +;
#X obj 673 113 list prepend;
#X obj 673 134 route 0 1;
#X obj 1030 464 list prepend;
#X obj 1030 485 -;
#X text 673 641 Euclidean Algorithm 1;
#X text 913 641 Euclidean Algorithm Mirror 1;
#X text 646 25 STEPS;
#X text 732 11 HITS;
#X text 812 11 ROTATE;
#X text 1052 11 MIRROR;
#X text 972 11 ACC-ROTATE;
#X text 892 11 ACCENT;
#X text 393 111 DRAW GUI CIRCLE;
#X connect 0 0 6 0;
#X connect 1 0 3 1;
#X connect 1 0 15 1;
#X connect 2 0 3 0;
#X connect 3 0 4 0;
#X connect 3 0 32 0;
#X connect 4 0 3 1;
#X connect 5 0 7 0;
#X connect 6 0 95 0;
#X connect 7 0 6 0;
#X connect 7 1 8 1;
#X connect 7 1 11 1;
#X connect 7 1 23 1;
#X connect 7 1 123 1;
#X connect 7 1 118 1;
#X connect 7 1 115 1;
#X connect 7 1 137 1;
#X connect 8 0 9 0;
#X connect 9 0 11 0;
#X connect 10 0 2 0;
#X connect 10 1 1 0;
#X connect 10 2 9 1;
#X connect 10 2 30 1;
#X connect 10 2 32 1;
#X connect 11 0 25 0;
#X connect 12 0 8 0;
#X connect 12 1 29 0;
#X connect 13 0 6 0;
#X connect 13 1 29 1;
#X connect 13 1 129 1;
#X connect 14 0 13 0;
#X connect 15 0 16 0;
#X connect 15 0 31 0;
#X connect 16 0 15 1;
#X connect 17 0 6 0;
#X connect 17 1 21 1;
#X connect 17 1 22 1;
#X connect 17 1 121 1;
#X connect 17 1 122 1;
#X connect 18 0 6 0;
#X connect 18 1 31 1;
#X connect 18 1 137 0;
#X connect 19 0 17 0;
#X connect 20 0 18 0;
#X connect 21 0 23 0;
#X connect 22 0 24 1;
#X connect 23 0 22 0;
#X connect 24 0 27 0;
#X connect 25 0 24 0;
#X connect 25 1 26 0;
#X connect 26 0 15 0;
#X connect 26 1 28 0;
#X connect 28 0 24 1;
#X connect 29 0 30 0;
#X connect 30 0 27 1;
#X connect 31 0 21 0;
#X connect 32 0 33 0;
#X connect 33 0 12 0;
#X connect 36 0 64 0;
#X connect 37 0 65 0;
#X connect 38 0 36 0;
#X connect 38 1 37 0;
#X connect 39 0 62 0;
#X connect 40 0 63 0;
#X connect 41 0 42 0;
#X connect 42 0 35 0;
#X connect 43 0 35 0;
#X connect 44 0 38 0;
#X connect 45 0 44 0;
#X connect 46 0 35 0;
#X connect 47 0 49 0;
#X connect 47 1 48 0;
#X connect 48 0 49 1;
#X connect 49 0 46 0;
#X connect 50 0 35 0;
#X connect 51 0 50 0;
#X connect 52 0 66 0;
#X connect 53 0 67 0;
#X connect 54 0 55 1;
#X connect 55 0 60 0;
#X connect 56 0 52 0;
#X connect 56 1 53 0;
#X connect 57 0 68 0;
#X connect 58 0 106 0;
#X connect 59 0 56 0;
#X connect 60 0 59 0;
#X connect 61 0 54 0;
#X connect 62 0 41 0;
#X connect 63 0 41 1;
#X connect 64 0 39 0;
#X connect 65 0 40 0;
#X connect 66 0 57 0;
#X connect 67 0 58 0;
#X connect 68 0 51 0;
#X connect 69 0 101 0;
#X connect 69 1 94 0;
#X connect 69 2 88 0;
#X connect 69 3 89 0;
#X connect 69 4 43 0;
#X connect 70 0 71 0;
#X connect 70 1 103 0;
#X connect 70 2 102 0;
#X connect 71 0 72 0;
#X connect 73 0 74 0;
#X connect 74 0 72 1;
#X connect 75 0 55 0;
#X connect 75 1 51 2;
#X connect 76 0 96 0;
#X connect 76 1 73 0;
#X connect 77 0 78 0;
#X connect 78 0 79 0;
#X connect 78 0 75 0;
#X connect 79 0 78 1;
#X connect 80 0 78 1;
#X connect 81 0 82 1;
#X connect 82 0 45 0;
#X connect 83 0 81 0;
#X connect 84 0 85 0;
#X connect 85 0 86 0;
#X connect 85 0 82 0;
#X connect 86 0 85 1;
#X connect 87 0 85 1;
#X connect 88 0 84 0;
#X connect 88 1 87 0;
#X connect 88 2 83 0;
#X connect 89 0 77 0;
#X connect 89 1 80 0;
#X connect 89 2 61 0;
#X connect 90 0 91 0;
#X connect 91 0 92 0;
#X connect 91 0 47 0;
#X connect 92 0 91 1;
#X connect 93 0 91 1;
#X connect 94 0 90 0;
#X connect 94 1 93 0;
#X connect 94 2 48 1;
#X connect 95 0 69 0;
#X connect 95 1 135 0;
#X connect 96 0 70 0;
#X connect 97 0 98 0;
#X connect 98 0 99 0;
#X connect 98 0 76 0;
#X connect 99 0 98 1;
#X connect 100 0 98 1;
#X connect 101 0 97 0;
#X connect 101 1 100 0;
#X connect 102 0 72 0;
#X connect 103 0 72 0;
#X connect 104 0 6 0;
#X connect 104 1 135 1;
#X connect 105 0 104 0;
#X connect 106 0 51 1;
#X connect 111 0 113 1;
#X connect 111 0 119 1;
#X connect 112 0 113 0;
#X connect 113 0 114 0;
#X connect 113 0 133 0;
#X connect 114 0 113 1;
#X connect 115 0 116 0;
#X connect 116 0 118 0;
#X connect 117 0 112 0;
#X connect 117 1 111 0;
#X connect 117 2 116 1;
#X connect 117 2 130 1;
#X connect 117 2 131 1;
#X connect 118 0 125 0;
#X connect 119 0 120 0;
#X connect 119 0 134 0;
#X connect 120 0 119 1;
#X connect 121 0 123 0;
#X connect 122 0 124 1;
#X connect 123 0 122 0;
#X connect 124 0 127 0;
#X connect 125 0 124 0;
#X connect 125 1 126 0;
#X connect 126 0 119 0;
#X connect 126 1 128 0;
#X connect 128 0 124 1;
#X connect 129 0 130 0;
#X connect 130 0 127 1;
#X connect 131 0 132 0;
#X connect 132 0 115 0;
#X connect 133 0 131 0;
#X connect 133 1 129 0;
#X connect 134 0 121 0;
#X connect 135 0 136 0;
#X connect 136 0 10 0;
#X connect 136 1 117 0;
#X connect 137 0 138 0;
#X connect 138 0 134 1;
#X restore 5 250 pd euclidean-and-gui;
#X text 5 210 SUBPATCHES;
#X text 5 300 By Mike Moreno 2018;
#X obj 767 163 s \$0-rcv-stp;
#X obj 817 143 s \$0-rcv-hts;
#X obj 867 123 s \$0-rcv-rtt;
#X obj 917 103 s \$0-rcv-acc;
#X obj 967 83 s \$0-rcv-art;
#X obj 717 183 s \$0-rcv-mrr;
#X obj 667 203 s \$0-rcv-tgl;
#X obj 503 273 outlet;
#X text 503 293 Outlet 1: Hits;
#X obj 520 233 outlet;
#X text 520 253 Outlet 2: Accents;
#X obj 537 193 outlet;
#X text 537 213 Outlet 3: Silence;
#X obj 307 26 inlet;
#X text 307 6 Inlet 1: Clock;
#N canvas 110 142 532 435 savestate 0;
#X obj 283 83 f;
#X obj 152 57 savestate;
#X obj 87 37 loadbang;
#X obj 44 167 list store;
#X msg 74 115 1;
#X obj 87 58 t b b;
#X obj 74 94 t b a;
#X obj 21 141 spigot 0;
#X obj 124 171 spigot 1;
#X obj 152 108 t a b;
#X msg 179 145 0;
#X obj 205 301 s \$0-rcv-stp;
#X obj 185 321 s \$0-rcv-hts;
#X obj 165 341 s \$0-rcv-rtt;
#X obj 145 361 s \$0-rcv-acc;
#X obj 125 381 s \$0-rcv-art;
#X obj 225 281 s \$0-rcv-mrr;
#X obj 245 261 s \$0-rcv-tgl;
#X obj 125 225 unpack f f f f f f f;
#X obj 378 103 r \$0-snd-stp;
#X obj 358 83 r \$0-snd-hts;
#X obj 338 63 r \$0-snd-rtt;
#X obj 318 43 r \$0-snd-acc;
#X obj 298 23 r \$0-snd-art;
#X obj 398 123 r \$0-snd-mrr;
#X obj 418 143 r \$0-snd-tgl;
#X msg 124 197 0 2 0 4 16 0 1;
#X obj 283 179 pack f f f f f f f;
#X connect 0 0 27 0;
#X connect 1 0 9 0;
#X connect 1 1 0 0;
#X connect 2 0 5 0;
#X connect 3 0 18 0;
#X connect 4 0 7 1;
#X connect 5 0 7 0;
#X connect 5 1 8 0;
#X connect 6 0 4 0;
#X connect 6 1 3 1;
#X connect 7 0 3 0;
#X connect 8 0 26 0;
#X connect 9 0 6 0;
#X connect 9 1 10 0;
#X connect 10 0 8 1;
#X connect 18 0 15 0;
#X connect 18 1 14 0;
#X connect 18 2 13 0;
#X connect 18 3 12 0;
#X connect 18 4 11 0;
#X connect 18 5 16 0;
#X connect 18 6 17 0;
#X connect 19 0 27 4;
#X connect 20 0 27 3;
#X connect 21 0 27 2;
#X connect 22 0 27 1;
#X connect 23 0 0 1;
#X connect 24 0 27 5;
#X connect 25 0 27 6;
#X connect 26 0 18 0;
#X connect 27 0 1 0;
#X restore 5 270 pd savestate;
#X obj 667 26 inlet;
#X obj 667 47 route toggle mirror steps hits rotation accents acc-rot;
#X text 667 6 Inlet 2: External control;
#X connect 7 0 15 0;
#X connect 8 0 21 0;
#X connect 8 1 9 0;
#X connect 9 0 10 0;
#X connect 10 0 11 1;
#X connect 12 0 13 0;
#X connect 12 1 25 0;
#X connect 12 2 24 0;
#X connect 13 0 11 0;
#X connect 14 0 8 0;
#X connect 15 0 14 1;
#X connect 15 1 14 0;
#X connect 15 2 16 0;
#X connect 15 3 9 0;
#X connect 15 3 22 0;
#X connect 16 0 11 0;
#X connect 17 0 7 0;
#X connect 18 0 7 1;
#X connect 19 0 17 1;
#X connect 20 0 37 0;
#X connect 20 1 39 0;
#X connect 20 2 41 0;
#X connect 21 0 12 0;
#X connect 22 0 20 0;
#X connect 24 0 11 0;
#X connect 25 0 11 0;
#X connect 43 0 17 0;
#X connect 46 0 47 0;
#X connect 47 0 36 0;
#X connect 47 1 35 0;
#X connect 47 2 30 0;
#X connect 47 3 31 0;
#X connect 47 4 32 0;
#X connect 47 5 33 0;
#X connect 47 6 34 0;
#X coords 0 -1 1 1 292 195 1 5 5;
