#N canvas 478 201 646 731 10;
#X obj 12 52 list prepend;
#X obj 39 166 unpack f f;
#X obj 39 187 > 0;
#X obj 66 229 +;
#X obj 96 229 i;
#X obj 39 208 sel 0;
#X msg 39 229 0;
#X obj 12 73 t b l;
#X obj 81 120 sel 0;
#X msg 81 141 0;
#X obj 12 325 t b b;
#X msg 12 346 127;
#X obj 12 367 until;
#X obj 12 388 i;
#X obj 42 388 + 1;
#X msg 123 341 0;
#X obj 221 509 list prepend;
#X obj 221 530 route 1;
#X obj 221 404 t f f;
#X obj 290 441 > 0;
#X obj 317 483 +;
#X obj 347 483 i;
#X obj 290 462 sel 0;
#X msg 290 483 0;
#X msg 12 409 127 \$1;
#X obj 12 430 -;
#X obj 12 549 list prepend;
#X obj 12 570 route 1;
#X obj 12 451 t f f;
#X obj 81 486 > 0;
#X obj 108 528 +;
#X obj 138 528 i;
#X obj 81 507 sel 0;
#X msg 81 528 0;
#X obj 39 270 array define -yrange 0 127 \$0-mono 127;
#X obj 81 99 array sum \$0-mono;
#X obj 39 250 array set \$0-mono;
#X obj 12 299 array max \$0-mono;
#X obj 81 465 tabread \$0-mono;
#X obj 290 420 tabread \$0-mono;
#X obj 12 31 inlet;
#X obj 121 31 inlet;
#X obj 193 117 > 0;
#X obj 193 227 outlet;
#X msg 196 358 2 \$1;
#X obj 265 553 loadbang;
#X obj 265 595 sel low high last;
#X msg 265 616 0;
#X msg 298 616 1;
#X msg 331 616 2;
#X obj 221 31 inlet;
#X text 121 11 (I2) Velocity;
#X obj 12 653 outlet;
#X text 12 673 (O1) MIDI Note;
#X text 12 11 (I1) MIDI Note;
#X msg 12 591 1 \$1;
#X msg 221 551 0 \$1;
#X obj 265 574 symbol \$1;
#X text 221 11 (I3) Note priority;
#X obj 121 314 sel 0;
#X obj 221 52 s \$0-priority;
#X obj 335 574 r \$0-priority;
#X obj 341 31 inlet;
#X text 341 11 (I4) Legato On/off;
#X obj 341 52 s \$0-legato;
#X obj 280 190 r \$0-legato;
#X obj 232 91 loadbang;
#X obj 232 112 f \$2;
#X obj 193 138 t f f;
#X obj 230 159 change;
#X msg 230 180 1 \$1;
#X msg 193 159 0 \$1;
#X text 193 247 (O2) Note On/Off;
#X obj 193 206 route 0;
#X obj 12 632 route 2;
#X connect 0 0 7 0;
#X connect 1 0 2 0;
#X connect 1 1 36 1;
#X connect 2 0 5 0;
#X connect 3 0 4 0;
#X connect 3 0 36 0;
#X connect 4 0 3 1;
#X connect 5 0 6 0;
#X connect 5 1 3 0;
#X connect 6 0 36 0;
#X connect 7 0 10 0;
#X connect 7 0 35 0;
#X connect 7 0 37 0;
#X connect 7 1 1 0;
#X connect 8 0 9 0;
#X connect 9 0 3 1;
#X connect 10 0 11 0;
#X connect 10 1 15 0;
#X connect 11 0 12 0;
#X connect 12 0 13 0;
#X connect 13 0 14 0;
#X connect 13 0 18 0;
#X connect 13 0 24 0;
#X connect 14 0 13 1;
#X connect 15 0 13 1;
#X connect 15 0 20 1;
#X connect 15 0 30 1;
#X connect 16 0 17 0;
#X connect 17 0 56 0;
#X connect 18 0 16 0;
#X connect 18 1 39 0;
#X connect 19 0 22 0;
#X connect 20 0 21 0;
#X connect 20 0 16 1;
#X connect 21 0 20 1;
#X connect 22 0 23 0;
#X connect 22 1 20 0;
#X connect 23 0 16 1;
#X connect 24 0 25 0;
#X connect 25 0 28 0;
#X connect 26 0 27 0;
#X connect 27 0 55 0;
#X connect 28 0 26 0;
#X connect 28 1 38 0;
#X connect 29 0 32 0;
#X connect 30 0 31 0;
#X connect 30 0 26 1;
#X connect 31 0 30 1;
#X connect 32 0 33 0;
#X connect 32 1 30 0;
#X connect 33 0 26 1;
#X connect 35 0 8 0;
#X connect 35 0 42 0;
#X connect 37 1 59 0;
#X connect 38 0 29 0;
#X connect 39 0 19 0;
#X connect 40 0 0 0;
#X connect 41 0 0 1;
#X connect 42 0 68 0;
#X connect 44 0 74 0;
#X connect 45 0 57 0;
#X connect 46 0 47 0;
#X connect 46 1 48 0;
#X connect 46 2 49 0;
#X connect 47 0 74 1;
#X connect 48 0 74 1;
#X connect 49 0 74 1;
#X connect 50 0 60 0;
#X connect 55 0 74 0;
#X connect 56 0 74 0;
#X connect 57 0 46 0;
#X connect 59 1 44 0;
#X connect 61 0 46 0;
#X connect 62 0 64 0;
#X connect 65 0 73 1;
#X connect 66 0 67 0;
#X connect 67 0 73 1;
#X connect 68 0 71 0;
#X connect 68 1 69 0;
#X connect 69 0 70 0;
#X connect 70 0 73 0;
#X connect 71 0 73 0;
#X connect 73 0 43 0;
#X connect 74 0 52 0;
