#N canvas 857 578 536 172 10;
#X obj 12 130 outlet~;
#N canvas 776 547 365 190 @hv_obj 0;
#X obj 12 31 inlet~;
#N canvas 1097 522 303 331 zeros 0;
#X obj 12 217 czero~;
#X obj 12 273 czero~;
#X obj 12 299 outlet~;
#X obj 75 299 outlet~;
#X obj 12 31 inlet~;
#X obj 47 122 *~ -1;
#X obj 47 143 *~ 0.5;
#X obj 132 58 *~;
#X obj 132 92 -~;
#X obj 187 78 *~ 4;
#X obj 187 57 *~;
#X obj 132 113 abs~;
#X obj 132 155 *~ 0.5;
#X obj 132 176 /~;
#N canvas 773 235 262 212 location 0;
#X obj 12 12 inlet~;
#X obj 62 12 inlet~;
#X obj 207 12 inlet~;
#X obj 12 174 outlet~;
#X obj 72 174 outlet~;
#X obj 132 174 outlet~;
#X obj 192 174 outlet~;
#N canvas 725 189 180 137 gte 0;
#X obj 117 12 inlet~;
#X obj 12 12 inlet~;
#X obj 12 100 outlet~;
#N canvas 945 362 136 178 @hv_obj 0;
#X obj 12 56 -~;
#X obj 12 78 clip~ -1e-37 0;
#X obj 12 12 inlet~;
#X obj 62 12 inlet~;
#X obj 12 144 outlet~;
#X obj 12 122 *~ 1e+37;
#X obj 12 34 min~;
#X obj 12 100 +~ 1e-37;
#X connect 0 0 1 0;
#X connect 1 0 7 0;
#X connect 2 0 6 0;
#X connect 3 0 6 1;
#X connect 3 0 0 1;
#X connect 5 0 4 0;
#X connect 6 0 0 0;
#X connect 7 0 5 0;
#X restore 12 34 pd @hv_obj __gte~f;
#X connect 0 0 3 1;
#X connect 1 0 3 0;
#X connect 3 0 2 0;
#X restore 62 49 pd gte;
#N canvas 845 375 187 138 lte 0;
#X obj 117 12 inlet~;
#X obj 12 12 inlet~;
#X obj 12 100 outlet~;
#N canvas 715 101 137 184 @hv_obj 0;
#X obj 12 56 -~;
#X obj 12 78 clip~ -1e-37 0;
#X obj 12 12 inlet~;
#X obj 62 12 inlet~;
#X obj 12 144 outlet~;
#X obj 12 122 *~ 1e+37;
#X obj 12 34 min~;
#X obj 12 100 +~ 1e-37;
#X connect 0 0 1 0;
#X connect 1 0 7 0;
#X connect 2 0 6 0;
#X connect 2 0 0 1;
#X connect 3 0 6 1;
#X connect 5 0 4 0;
#X connect 6 0 0 0;
#X connect 7 0 5 0;
#X restore 12 34 pd @hv_obj __lte~f;
#X connect 0 0 3 1;
#X connect 1 0 3 0;
#X connect 3 0 2 0;
#X restore 127 49 pd lte;
#X obj 12 152 +~;
#X obj 160 22 sig~ 0;
#X obj 147 125 *~;
#X obj 192 125 *~;
#X obj 132 152 -~;
#X obj 192 152 *~ -1;
#X connect 0 0 9 0;
#X connect 0 0 13 0;
#X connect 1 0 7 0;
#X connect 1 0 8 0;
#X connect 2 0 11 1;
#X connect 2 0 12 1;
#X connect 7 0 11 0;
#X connect 8 0 12 0;
#X connect 9 0 3 0;
#X connect 10 0 7 1;
#X connect 10 0 8 1;
#X connect 11 0 9 1;
#X connect 11 0 13 1;
#X connect 12 0 4 0;
#X connect 12 0 14 0;
#X connect 13 0 5 0;
#X connect 14 0 6 0;
#X restore 34 190 pd location;
#X obj 132 134 sqrt~;
#X obj 47 164 /~;
#X obj 252 203 inlet;
#X text 62 11 b0;
#X text 132 11 b1;
#X text 202 11 b2;
#X obj 202 31 inlet~;
#X obj 132 31 inlet~;
#X obj 62 31 inlet~;
#X text 252 183 clear;
#X connect 0 0 1 0;
#X connect 0 1 1 1;
#X connect 1 0 2 0;
#X connect 1 1 3 0;
#X connect 4 0 0 0;
#X connect 5 0 6 0;
#X connect 6 0 16 0;
#X connect 7 0 8 0;
#X connect 8 0 11 0;
#X connect 8 0 14 1;
#X connect 9 0 8 1;
#X connect 10 0 9 0;
#X connect 11 0 15 0;
#X connect 12 0 13 0;
#X connect 13 0 14 2;
#X connect 14 0 0 2;
#X connect 14 1 0 3;
#X connect 14 2 1 2;
#X connect 14 3 1 3;
#X connect 15 0 12 0;
#X connect 16 0 14 0;
#X connect 17 0 0 0;
#X connect 17 0 1 0;
#X connect 21 0 10 1;
#X connect 22 0 5 0;
#X connect 22 0 7 1;
#X connect 22 0 7 0;
#X connect 23 0 10 0;
#X connect 23 0 13 1;
#X connect 23 0 16 1;
#X restore 12 89 pd zeros;
#X obj 12 52 *~;
#N canvas 1083 390 288 282 poles 0;
#X obj 12 181 cpole~;
#X obj 12 228 cpole~;
#X obj 12 249 outlet~;
#X obj 12 31 inlet~;
#X obj 62 31 inlet~;
#N canvas 739 258 279 198 location 0;
#X obj 12 12 inlet~;
#X obj 127 12 inlet~;
#X obj 222 49 inlet~;
#X obj 12 155 outlet~;
#X obj 62 155 outlet~;
#X obj 112 155 outlet~;
#X obj 172 155 outlet~;
#N canvas 796 341 183 142 gte 0;
#X obj 117 12 inlet~;
#X obj 12 12 inlet~;
#X obj 12 100 outlet~;
#N canvas 754 439 132 184 @hv_obj 0;
#X obj 12 56 -~;
#X obj 12 78 clip~ -1e-37 0;
#X obj 12 12 inlet~;
#X obj 62 12 inlet~;
#X obj 12 144 outlet~;
#X obj 12 122 *~ 1e+37;
#X obj 12 34 min~;
#X obj 12 100 +~ 1e-37;
#X connect 0 0 1 0;
#X connect 1 0 7 0;
#X connect 2 0 6 0;
#X connect 3 0 6 1;
#X connect 3 0 0 1;
#X connect 5 0 4 0;
#X connect 6 0 0 0;
#X connect 7 0 5 0;
#X restore 12 34 pd @hv_obj __gte~f;
#X connect 0 0 3 1;
#X connect 1 0 3 0;
#X connect 3 0 2 0;
#X restore 127 39 pd gte;
#N canvas 816 493 187 138 lte 0;
#X obj 117 12 inlet~;
#X obj 12 12 inlet~;
#X obj 12 100 outlet~;
#N canvas 715 101 131 178 @hv_obj 0;
#X obj 12 56 -~;
#X obj 12 78 clip~ -1e-37 0;
#X obj 12 12 inlet~;
#X obj 62 12 inlet~;
#X obj 12 144 outlet~;
#X obj 12 122 *~ 1e+37;
#X obj 12 34 min~;
#X obj 12 100 +~ 1e-37;
#X connect 0 0 1 0;
#X connect 1 0 7 0;
#X connect 2 0 6 0;
#X connect 2 0 0 1;
#X connect 3 0 6 1;
#X connect 5 0 4 0;
#X connect 6 0 0 0;
#X connect 7 0 5 0;
#X restore 12 34 pd @hv_obj __lte~f;
#X connect 0 0 3 1;
#X connect 1 0 3 0;
#X connect 3 0 2 0;
#X restore 172 39 pd lte;
#X obj 12 83 +~;
#X obj 205 12 sig~ 0;
#X obj 127 66 *~;
#X obj 172 66 *~;
#X obj 112 133 -~;
#X obj 172 133 *~ -1;
#X connect 0 0 9 0;
#X connect 0 0 13 0;
#X connect 1 0 7 0;
#X connect 1 0 8 0;
#X connect 2 0 11 1;
#X connect 2 0 12 1;
#X connect 7 0 11 0;
#X connect 8 0 12 0;
#X connect 9 0 3 0;
#X connect 10 0 7 1;
#X connect 10 0 8 1;
#X connect 11 0 9 1;
#X connect 11 0 13 1;
#X connect 12 0 4 0;
#X connect 12 0 14 0;
#X connect 13 0 5 0;
#X connect 14 0 6 0;
#X restore 34 155 pd location;
#X obj 72 78 *~ 0.5;
#X obj 122 57 *~;
#X obj 122 78 +~;
#X obj 182 64 *~ 4;
#X obj 122 99 abs~;
#X obj 122 141 *~ 0.5;
#X obj 122 120 sqrt~;
#X obj 232 167 inlet;
#X text 182 11 a2;
#X text 122 11 a1;
#X obj 122 31 inlet~;
#X obj 182 31 inlet~;
#X text 232 147 clear;
#X connect 0 0 1 0;
#X connect 0 1 1 1;
#X connect 1 0 2 0;
#X connect 3 0 0 0;
#X connect 4 0 0 1;
#X connect 5 0 0 2;
#X connect 5 1 0 3;
#X connect 5 2 1 2;
#X connect 5 3 1 3;
#X connect 6 0 5 0;
#X connect 7 0 8 0;
#X connect 8 0 5 1;
#X connect 8 0 10 0;
#X connect 9 0 8 1;
#X connect 10 0 12 0;
#X connect 11 0 5 2;
#X connect 12 0 11 0;
#X connect 13 0 0 0;
#X connect 13 0 1 0;
#X connect 16 0 6 0;
#X connect 16 0 7 0;
#X connect 16 0 7 1;
#X connect 17 0 9 0;
#X restore 12 133 pd poles;
#X obj 12 159 outlet~;
#X obj 212 117 *~ -1;
#X obj 262 117 *~ -1;
#X obj 312 73 inlet;
#X obj 62 31 inlet~;
#X obj 112 31 inlet~;
#X obj 162 31 inlet~;
#X obj 212 31 inlet~;
#X obj 262 31 inlet~;
#X text 62 11 b0;
#X text 112 11 b1;
#X text 162 11 b2;
#X text 212 11 a1;
#X text 262 11 a2;
#X text 312 53 clear;
#X connect 0 0 2 0;
#X connect 1 0 3 0;
#X connect 1 1 3 1;
#X connect 2 0 1 0;
#X connect 3 0 4 0;
#X connect 5 0 3 2;
#X connect 6 0 3 3;
#X connect 7 0 1 4;
#X connect 7 0 3 4;
#X connect 8 0 2 1;
#X connect 8 0 1 1;
#X connect 9 0 1 2;
#X connect 10 0 1 3;
#X connect 11 0 5 0;
#X connect 12 0 6 0;
#X restore 12 109 pd @hv_obj biquad;
#X obj 12 31 inlet~;
#X obj 177 32 inlet~;
#X obj 78 31 inlet~;
#X obj 347 72 inlet;
#X msg 347 93 clear;
#X text 78 11 (I2) Frequency;
#X text 177 12 (I3) Q Factor;
#X text 12 11 (I1) Input;
#X text 12 150 (O1) Output;
#X obj 267 32 inlet~;
#X text 347 52 (I5) Clear internal state;
#X text 267 12 (I4) Mode(LP/BP/HP);
#N canvas 619 260 604 424 filter_coefficients 0;
#X obj 484 86 sig~ 1;
#X obj 484 107 /~;
#X obj 469 128 *~;
#X obj 469 154 *~ 0.5;
#X obj 79 308 sig~ 1;
#X obj 79 330 /~;
#X obj 199 346 *~;
#X obj 259 346 *~;
#X obj 319 346 *~;
#X obj 379 346 *~;
#X obj 394 242 *~ -2;
#X obj 454 180 sig~ 1;
#X obj 454 202 -~;
#X obj 439 346 *~;
#X obj 124 314 +~ 1;
#X obj 89 75 /~ 44100;
#X obj 134 12 loadbang;
#X obj 134 54 samplerate~;
#X obj 499 65 max~ 0.1;
#X obj 12 33 inlet~;
#X obj 499 44 inlet~;
#X msg 134 33 bang;
#X obj 199 367 outlet~;
#X obj 259 367 outlet~;
#X obj 319 367 outlet~;
#X obj 379 367 outlet~;
#X obj 439 367 outlet~;
#X text 199 387 (O1) b0;
#X text 259 387 (O2) b1;
#X text 319 387 (O3) b2;
#X text 379 387 (O4) a1;
#X text 439 387 (O5) a2;
#X text 12 13 (I1) Frequency;
#X obj 89 96 cos~;
#X obj 182 91 -~ 0.25;
#X obj 182 112 cos~;
#X obj 99 163 inlet~;
#N canvas 673 516 366 221 lowpass 0;
#X obj 12 101 -~;
#X obj 182 143 /~ 2;
#X obj 12 127 *~;
#X obj 87 59 clip~ 0 0.5;
#X obj 87 80 /~ 2;
#X obj 87 101 cos~;
#X obj 27 12 inlet~;
#X obj 87 12 inlet~;
#X obj 12 59 loadbang;
#X msg 12 80 1;
#X obj 182 184 outlet~;
#X obj 242 184 outlet~;
#X obj 302 184 outlet~;
#X obj 37 33 outlet~;
#X obj 97 33 outlet~;
#X connect 0 0 2 0;
#X connect 1 0 10 0;
#X connect 1 0 12 0;
#X connect 2 0 1 0;
#X connect 2 0 11 0;
#X connect 3 0 4 0;
#X connect 4 0 5 0;
#X connect 5 0 2 1;
#X connect 6 0 0 1;
#X connect 6 0 13 0;
#X connect 7 0 3 0;
#X connect 7 0 14 0;
#X connect 8 0 9 0;
#X connect 9 0 0 0;
#X restore 89 199 pd lowpass;
#N canvas 721 361 349 288 highpass 0;
#X obj 12 12 inlet~;
#X obj 72 12 inlet~;
#X obj 57 80 loadbang;
#X msg 57 101 1;
#X obj 57 122 -~;
#X obj 72 59 clip~ 0.5 1;
#X obj 57 143 *~ 0.5;
#X obj 57 164 cos~;
#X obj 12 59 +~ 1;
#X obj 12 180 *~;
#X obj 152 12 inlet~;
#X obj 212 12 inlet~;
#X obj 272 12 inlet~;
#X obj 122 196 /~ 2;
#X obj 152 252 outlet~;
#X obj 22 33 outlet~;
#X obj 82 33 outlet~;
#X obj 212 252 outlet~;
#X obj 272 252 outlet~;
#X obj 172 196 *~ -1;
#X connect 0 0 8 0;
#X connect 0 0 15 0;
#X connect 1 0 5 0;
#X connect 1 0 16 0;
#X connect 2 0 3 0;
#X connect 3 0 4 0;
#X connect 4 0 6 0;
#X connect 5 0 4 1;
#X connect 6 0 7 0;
#X connect 7 0 9 1;
#X connect 8 0 9 0;
#X connect 9 0 13 0;
#X connect 9 0 19 0;
#X connect 10 0 14 0;
#X connect 11 0 17 0;
#X connect 12 0 18 0;
#X connect 13 0 14 0;
#X connect 13 0 18 0;
#X connect 19 0 17 0;
#X restore 89 230 pd highpass;
#N canvas 495 642 302 220 resonant 0;
#X obj 72 12 inlet~;
#X obj 72 180 outlet~;
#X obj 132 12 inlet~;
#X obj 132 180 outlet~;
#X obj 192 12 inlet~;
#X obj 192 180 outlet~;
#X obj 12 12 inlet~;
#X obj 12 33 /~ 2;
#X obj 12 54 -~ 0.25;
#X obj 12 75 cos~;
#X obj 12 96 *~;
#X obj 242 80 inlet~;
#X obj 12 154 /~ 2;
#X obj 152 112 /~ -2;
#X connect 0 0 1 0;
#X connect 2 0 3 0;
#X connect 4 0 5 0;
#X connect 6 0 7 0;
#X connect 7 0 8 0;
#X connect 8 0 9 0;
#X connect 9 0 10 0;
#X connect 10 0 12 0;
#X connect 10 0 13 0;
#X connect 11 0 10 1;
#X connect 12 0 1 0;
#X connect 13 0 5 0;
#X restore 119 261 pd resonant;
#X obj 12 54 clip~ 20 20000;
#X text 99 143 (I2) Mode;
#X text 499 24 (I3) Q factor;
#X connect 0 0 1 0;
#X connect 1 0 2 1;
#X connect 2 0 3 0;
#X connect 3 0 12 1;
#X connect 3 0 14 0;
#X connect 4 0 5 0;
#X connect 5 0 6 0;
#X connect 5 0 7 0;
#X connect 5 0 8 0;
#X connect 5 0 9 0;
#X connect 5 0 13 0;
#X connect 6 0 22 0;
#X connect 7 0 23 0;
#X connect 8 0 24 0;
#X connect 9 0 25 0;
#X connect 10 0 9 1;
#X connect 11 0 12 0;
#X connect 12 0 13 1;
#X connect 13 0 26 0;
#X connect 14 0 5 1;
#X connect 15 0 33 0;
#X connect 15 0 34 0;
#X connect 16 0 21 0;
#X connect 17 0 15 1;
#X connect 18 0 1 1;
#X connect 19 0 40 0;
#X connect 20 0 18 0;
#X connect 21 0 17 0;
#X connect 33 0 37 0;
#X connect 33 0 10 0;
#X connect 34 0 35 0;
#X connect 35 0 2 0;
#X connect 35 0 39 4;
#X connect 36 0 37 1;
#X connect 37 0 38 0;
#X connect 37 1 38 1;
#X connect 37 2 38 2;
#X connect 37 3 38 3;
#X connect 37 4 38 4;
#X connect 38 1 39 0;
#X connect 38 2 39 1;
#X connect 38 3 39 2;
#X connect 38 4 39 3;
#X connect 39 0 6 1;
#X connect 39 1 7 1;
#X connect 39 2 8 1;
#X connect 40 0 15 0;
#X restore 78 73 pd filter_coefficients;
#X connect 1 0 0 0;
#X connect 2 0 1 0;
#X connect 3 0 14 2;
#X connect 4 0 14 0;
#X connect 5 0 6 0;
#X connect 6 0 1 6;
#X connect 11 0 14 1;
#X connect 14 0 1 1;
#X connect 14 1 1 2;
#X connect 14 2 1 3;
#X connect 14 3 1 4;
#X connect 14 4 1 5;
