#N canvas 674 23 290 118 10;
#X obj 12 93 outlet~;
#N canvas 674 187 405 205 @hv_obj 0;
#X obj 62 12 inlet~ b0;
#X obj 132 12 inlet~ b1;
#X obj 202 12 inlet~ b2;
#X obj 272 12 inlet~ a1;
#X obj 332 12 inlet~ a2;
#X obj 12 12 inlet~;
#N canvas 677 380 306 397 zeros 0;
#X obj 12 282 czero~;
#X obj 12 329 czero~;
#X obj 12 356 outlet~;
#X obj 75 356 outlet~;
#X obj 62 12 inlet~ b0;
#X obj 132 12 inlet~ b1;
#X obj 202 12 inlet~ b2;
#X obj 12 12 inlet~;
#X obj 47 89 *~ -1;
#X obj 47 111 *~ 0.5;
#X obj 132 117 *~;
#X obj 132 155 -~;
#X obj 187 138 *~ 4;
#X obj 187 116 *~;
#X obj 228 172 abs~;
#X obj 228 216 *~ 0.5;
#X obj 228 238 /~;
#N canvas 773 235 262 212 location 0;
#X obj 12 12 inlet~;
#X obj 62 12 inlet~;
#X obj 207 12 inlet~;
#X obj 12 174 outlet~;
#X obj 72 174 outlet~;
#X obj 132 174 outlet~;
#X obj 192 174 outlet~;
#N canvas 725 189 180 137 gte 0;
#X obj 117 12 inlet~;
#X obj 12 12 inlet~;
#X obj 12 100 outlet~;
#N canvas 758 270 144 76 @hv_obj 0;
#X obj 62 12 inlet~;
#X obj 12 12 inlet~;
#X obj 12 34 outlet~;
#X connect 1 0 2 0;
#X restore 12 78 pd @hv_obj __and~f;
#X obj 117 56 sig~ 1;
#N canvas 945 362 136 178 @hv_obj 0;
#X obj 12 56 -~;
#X obj 12 78 clip~ -1e-37 0;
#X obj 12 12 inlet~;
#X obj 62 12 inlet~;
#X obj 12 144 outlet~;
#X obj 12 122 *~ 1e+37;
#X obj 12 34 min~;
#X obj 12 100 +~ 1e-37;
#X connect 0 0 1 0;
#X connect 1 0 7 0;
#X connect 2 0 6 0;
#X connect 3 0 6 1;
#X connect 3 0 0 1;
#X connect 5 0 4 0;
#X connect 6 0 0 0;
#X connect 7 0 5 0;
#X restore 12 34 pd @hv_obj __gte~f;
#X connect 0 0 5 1;
#X connect 1 0 5 0;
#X connect 3 0 2 0;
#X connect 4 0 3 1;
#X connect 5 0 3 0;
#X restore 62 49 pd gte;
#N canvas 845 375 187 138 lte 0;
#X obj 117 12 inlet~;
#X obj 12 12 inlet~;
#X obj 12 100 outlet~;
#N canvas 467 216 140 82 @hv_obj 0;
#X obj 72 12 inlet~;
#X obj 12 12 inlet~;
#X obj 12 39 outlet~;
#X connect 1 0 2 0;
#X restore 12 78 pd @hv_obj __and~f;
#X obj 117 56 sig~ 1;
#N canvas 715 101 137 184 @hv_obj 0;
#X obj 12 56 -~;
#X obj 12 78 clip~ -1e-37 0;
#X obj 12 12 inlet~;
#X obj 62 12 inlet~;
#X obj 12 144 outlet~;
#X obj 12 122 *~ 1e+37;
#X obj 12 34 min~;
#X obj 12 100 +~ 1e-37;
#X connect 0 0 1 0;
#X connect 1 0 7 0;
#X connect 2 0 6 0;
#X connect 2 0 0 1;
#X connect 3 0 6 1;
#X connect 5 0 4 0;
#X connect 6 0 0 0;
#X connect 7 0 5 0;
#X restore 12 34 pd @hv_obj __lte~f;
#X connect 0 0 5 1;
#X connect 1 0 5 0;
#X connect 3 0 2 0;
#X connect 4 0 3 1;
#X connect 5 0 3 0;
#X restore 127 49 pd lte;
#X obj 12 152 +~;
#X obj 160 22 sig~ 0;
#X obj 147 125 *~;
#X obj 192 125 *~;
#X obj 132 152 -~;
#X obj 192 152 *~ -1;
#X connect 0 0 9 0;
#X connect 0 0 13 0;
#X connect 1 0 7 0;
#X connect 1 0 8 0;
#X connect 2 0 11 1;
#X connect 2 0 12 1;
#X connect 7 0 11 0;
#X connect 8 0 12 0;
#X connect 9 0 3 0;
#X connect 10 0 7 1;
#X connect 10 0 8 1;
#X connect 11 0 9 1;
#X connect 11 0 13 1;
#X connect 12 0 4 0;
#X connect 12 0 14 0;
#X connect 13 0 5 0;
#X connect 14 0 6 0;
#X restore 34 255 pd location;
#X obj 228 194 sqrt~;
#X obj 47 133 /~;
#X connect 0 0 1 0;
#X connect 0 1 1 1;
#X connect 1 0 2 0;
#X connect 1 1 3 0;
#X connect 4 0 13 0;
#X connect 4 0 16 1;
#X connect 4 0 19 1;
#X connect 5 0 8 0;
#X connect 5 0 10 1;
#X connect 5 0 10 0;
#X connect 6 0 13 1;
#X connect 7 0 0 0;
#X connect 8 0 9 0;
#X connect 9 0 19 0;
#X connect 10 0 11 0;
#X connect 11 0 14 0;
#X connect 11 0 17 1;
#X connect 12 0 11 1;
#X connect 13 0 12 0;
#X connect 14 0 18 0;
#X connect 15 0 16 0;
#X connect 16 0 17 2;
#X connect 17 0 0 2;
#X connect 17 1 0 3;
#X connect 17 2 1 2;
#X connect 17 3 1 3;
#X connect 18 0 15 0;
#X connect 19 0 17 0;
#X restore 12 86 pd zeros;
#X obj 12 49 *~;
#N canvas 744 202 254 278 poles 0;
#X obj 12 170 cpole~;
#X obj 12 217 cpole~;
#X obj 12 244 outlet~;
#X obj 12 12 inlet~;
#X obj 62 12 inlet~;
#X obj 112 12 inlet~ a1;
#X obj 182 12 inlet~ a2;
#N canvas 739 258 279 198 location 0;
#X obj 12 12 inlet~;
#X obj 127 12 inlet~;
#X obj 222 49 inlet~;
#X obj 12 155 outlet~;
#X obj 62 155 outlet~;
#X obj 112 155 outlet~;
#X obj 172 155 outlet~;
#N canvas 796 341 183 142 gte 0;
#X obj 117 12 inlet~;
#X obj 12 12 inlet~;
#X obj 12 100 outlet~;
#N canvas 679 326 140 75 @hv_obj 0;
#X obj 72 12 inlet~;
#X obj 12 12 inlet~;
#X obj 12 34 outlet~;
#X connect 1 0 2 0;
#X restore 12 78 pd @hv_obj __and~f;
#X obj 117 56 sig~ 1;
#N canvas 754 439 132 184 @hv_obj 0;
#X obj 12 56 -~;
#X obj 12 78 clip~ -1e-37 0;
#X obj 12 12 inlet~;
#X obj 62 12 inlet~;
#X obj 12 144 outlet~;
#X obj 12 122 *~ 1e+37;
#X obj 12 34 min~;
#X obj 12 100 +~ 1e-37;
#X connect 0 0 1 0;
#X connect 1 0 7 0;
#X connect 2 0 6 0;
#X connect 3 0 6 1;
#X connect 3 0 0 1;
#X connect 5 0 4 0;
#X connect 6 0 0 0;
#X connect 7 0 5 0;
#X restore 12 34 pd @hv_obj __gte~f;
#X connect 0 0 5 1;
#X connect 1 0 5 0;
#X connect 3 0 2 0;
#X connect 4 0 3 1;
#X connect 5 0 3 0;
#X restore 127 39 pd gte;
#N canvas 816 493 187 138 lte 0;
#X obj 117 12 inlet~;
#X obj 12 12 inlet~;
#X obj 12 100 outlet~;
#N canvas 467 216 142 76 @hv_obj 0;
#X obj 72 12 inlet~;
#X obj 12 12 inlet~;
#X obj 12 34 outlet~;
#X connect 1 0 2 0;
#X restore 12 78 pd @hv_obj __and~f;
#X obj 117 56 sig~ 1;
#N canvas 715 101 131 178 @hv_obj 0;
#X obj 12 56 -~;
#X obj 12 78 clip~ -1e-37 0;
#X obj 12 12 inlet~;
#X obj 62 12 inlet~;
#X obj 12 144 outlet~;
#X obj 12 122 *~ 1e+37;
#X obj 12 34 min~;
#X obj 12 100 +~ 1e-37;
#X connect 0 0 1 0;
#X connect 1 0 7 0;
#X connect 2 0 6 0;
#X connect 2 0 0 1;
#X connect 3 0 6 1;
#X connect 5 0 4 0;
#X connect 6 0 0 0;
#X connect 7 0 5 0;
#X restore 12 34 pd @hv_obj __lte~f;
#X connect 0 0 5 1;
#X connect 1 0 5 0;
#X connect 3 0 2 0;
#X connect 4 0 3 1;
#X connect 5 0 3 0;
#X restore 172 39 pd lte;
#X obj 12 83 +~;
#X obj 205 12 sig~ 0;
#X obj 127 66 *~;
#X obj 172 66 *~;
#X obj 112 133 -~;
#X obj 172 133 *~ -1;
#X connect 0 0 9 0;
#X connect 0 0 13 0;
#X connect 1 0 7 0;
#X connect 1 0 8 0;
#X connect 2 0 11 1;
#X connect 2 0 12 1;
#X connect 7 0 11 0;
#X connect 8 0 12 0;
#X connect 9 0 3 0;
#X connect 10 0 7 1;
#X connect 10 0 8 1;
#X connect 11 0 9 1;
#X connect 11 0 13 1;
#X connect 12 0 4 0;
#X connect 12 0 14 0;
#X connect 13 0 5 0;
#X connect 14 0 6 0;
#X restore 34 144 pd location;
#X obj 54 77 *~ 0.5;
#X obj 112 39 *~;
#X obj 112 61 +~;
#X obj 182 44 *~ 4;
#X obj 112 83 abs~;
#X obj 112 127 *~ 0.5;
#X obj 112 105 sqrt~;
#X connect 0 0 1 0;
#X connect 0 1 1 1;
#X connect 1 0 2 0;
#X connect 3 0 0 0;
#X connect 4 0 0 1;
#X connect 5 0 8 0;
#X connect 5 0 9 0;
#X connect 5 0 9 1;
#X connect 6 0 11 0;
#X connect 7 0 0 2;
#X connect 7 1 0 3;
#X connect 7 2 1 2;
#X connect 7 3 1 3;
#X connect 8 0 7 0;
#X connect 9 0 10 0;
#X connect 10 0 7 1;
#X connect 10 0 12 0;
#X connect 11 0 10 1;
#X connect 12 0 14 0;
#X connect 13 0 7 2;
#X connect 14 0 13 0;
#X restore 12 133 pd poles;
#X obj 12 160 outlet~;
#X obj 272 116 *~ -1;
#X obj 332 116 *~ -1;
#X connect 0 0 6 1;
#X connect 0 0 7 1;
#X connect 1 0 6 2;
#X connect 2 0 6 3;
#X connect 3 0 10 0;
#X connect 4 0 11 0;
#X connect 5 0 7 0;
#X connect 6 0 8 0;
#X connect 6 1 8 1;
#X connect 7 0 6 0;
#X connect 8 0 9 0;
#X connect 10 0 8 2;
#X connect 11 0 8 3;
#X restore 12 71 pd @hv_obj biquad;
#X obj 62 12 inlet~ freq;
#X obj 142 12 inlet~ q;
#X obj 12 12 inlet~;
#X obj 202 12 inlet~ gain;
#N canvas 999 35 787 462 highshelf.coeffs 0;
#X obj 97 12 inlet~ freq;
#X obj 273 47 inlet~ q;
#N canvas 78 244 261 257 hz2rad 0;
#X obj 27 56 samplerate~;
#X obj 27 34 loadbang;
#X obj 27 122 atan;
#X msg 27 100 1;
#X obj 27 144 * 8;
#X obj 27 78 t b a;
#X obj 27 166 / 44100;
#X obj 12 188 *~;
#X obj 12 210 outlet~ w(rad);
#X obj 12 12 inlet~ freq(Hz);
#X text 77 166 // 2 * pi / SR;
#X text 107 56 // w = 2 * pi * f / SR;
#X connect 0 0 5 0;
#X connect 1 0 0 0;
#X connect 2 0 4 0;
#X connect 3 0 2 0;
#X connect 4 0 6 0;
#X connect 5 0 3 0;
#X connect 5 1 6 1;
#X connect 6 0 7 1;
#X connect 7 0 8 0;
#X connect 9 0 7 0;
#X restore 97 55 pd hz2rad;
#X obj 97 34 clip~ 20 20000;
#X obj 97 77 /~ 6.28319;
#X obj 97 121 cos~;
#X obj 273 69 clip~ 0.1 100;
#X obj 258 91 sig~ 1;
#X obj 258 113 /~;
#X obj 167 121 cos~;
#X obj 243 135 *~;
#X obj 243 157 *~ 0.5;
#X obj 12 361 sig~ 1;
#X obj 12 383 /~;
#X obj 82 397 *~;
#X obj 82 419 outlet~ b0;
#X obj 152 397 *~;
#X obj 152 419 outlet~ b1;
#X obj 222 397 *~;
#X obj 222 419 outlet~ b2;
#X obj 292 397 *~;
#X obj 292 419 outlet~ a1;
#X obj 362 397 *~;
#X obj 362 419 outlet~ a2;
#X text 443 142 w0 = 2*pi*f0*Fs;
#X text 443 162 alpha = sin(w0)/(2*Q);
#X text 482 72 H(z) = -----------------------------------------;
#X text 482 32 Audio-Cookbook:;
#X text 482 112 http://musicdsp.org/files/Audio-EQ-Cookbook.txt;
#X text 524 87 1 + (a1/a0)*z^(-1) + (a2/a0)*z^(-2);
#X text 524 57 (b0/a0) + (b1/a0)*z^(-1) + (b2/a0)*z^(-2);
#X obj 167 99 -~ 0.25;
#X obj 388 39 inlet~ dBGain;
#X obj 388 60 clip~ -24 24;
#X obj 388 81 /~ 40;
#X obj 367 102 sig~ 10;
#X obj 367 123 pow~;
#X obj 27 197 *~;
#X obj 27 218 +~;
#X obj 59 204 +~ 1;
#X obj 258 183 sqrt~;
#X obj 258 204 *~ 2;
#X obj 243 225 *~;
#X obj 27 239 +~;
#X text 443 182 A = 10^(dbGain/40);
#X obj 42 156 -~ 1;
#X text 443 212 High Shelf:;
#X text 453 292 b0 = A*( (A+1) + (A-1)*cos(wc) + 2*sqrt(A)*alpha);
#X text 453 312 b1 = -2*A*( (A-1) + (A+1)*cos(wc));
#X text 453 332 b2 = A*((A+1) + (A-1)*cos(wc) - 2*sqrt(A)*alpha);
#X text 453 232 a0 = (A+1) - (A-1)*cos(wc) + 2*sqrt(A)*alpha;
#X text 453 252 a1 = 2*((A-1) - (A+1)*cos(wc));
#X text 453 272 a2 = (A+1) - (A-1)*cos(wc) - 2*sqrt(A)*alpha;
#X obj 42 177 *~ -1;
#X obj 112 287 -~ 1;
#X obj 97 308 *~;
#X obj 97 329 +~;
#X obj 97 350 +~;
#X obj 97 371 *~;
#X obj 129 315 +~ 1;
#X obj 167 308 *~;
#X obj 167 329 +~;
#X obj 182 287 +~ 1;
#X obj 199 315 -~ 1;
#X obj 167 350 *~;
#X obj 199 336 *~ -2;
#X obj 252 287 -~ 1;
#X obj 237 308 *~;
#X obj 237 329 +~;
#X obj 237 371 *~;
#X obj 269 315 +~ 1;
#X obj 237 350 -~;
#X obj 307 308 *~;
#X obj 307 329 +~;
#X obj 307 350 *~ 2;
#X obj 339 315 -~ 1;
#X obj 322 287 *~ -1;
#X obj 322 266 +~ 1;
#X obj 377 308 *~;
#X obj 377 329 +~;
#X obj 392 266 -~ 1;
#X obj 392 287 *~ -1;
#X obj 409 315 +~ 1;
#X obj 377 350 -~;
#X connect 0 0 3 0;
#X connect 1 0 6 0;
#X connect 2 0 4 0;
#X connect 3 0 2 0;
#X connect 4 0 5 0;
#X connect 4 0 31 0;
#X connect 5 0 37 0;
#X connect 5 0 55 0;
#X connect 5 0 60 0;
#X connect 5 0 67 0;
#X connect 5 0 72 0;
#X connect 5 0 78 0;
#X connect 6 0 8 1;
#X connect 7 0 8 0;
#X connect 8 0 10 1;
#X connect 9 0 10 0;
#X connect 10 0 11 0;
#X connect 11 0 42 0;
#X connect 12 0 13 0;
#X connect 13 0 14 0;
#X connect 13 0 16 0;
#X connect 13 0 18 0;
#X connect 13 0 20 0;
#X connect 13 0 22 0;
#X connect 14 0 15 0;
#X connect 16 0 17 0;
#X connect 18 0 19 0;
#X connect 20 0 21 0;
#X connect 22 0 23 0;
#X connect 31 0 9 0;
#X connect 32 0 33 0;
#X connect 33 0 34 0;
#X connect 34 0 36 1;
#X connect 35 0 36 0;
#X connect 36 0 40 0;
#X connect 36 0 39 0;
#X connect 36 0 45 0;
#X connect 36 0 54 0;
#X connect 36 0 59 0;
#X connect 36 0 58 1;
#X connect 36 0 62 0;
#X connect 36 0 63 0;
#X connect 36 0 65 0;
#X connect 36 0 66 0;
#X connect 36 0 70 0;
#X connect 36 0 69 1;
#X connect 36 0 77 0;
#X connect 36 0 75 0;
#X connect 36 0 80 0;
#X connect 36 0 82 0;
#X connect 37 0 38 0;
#X connect 38 0 43 0;
#X connect 39 0 38 1;
#X connect 40 0 41 0;
#X connect 41 0 42 1;
#X connect 42 0 43 1;
#X connect 42 0 57 1;
#X connect 42 0 71 1;
#X connect 42 0 83 1;
#X connect 43 0 13 1;
#X connect 45 0 53 0;
#X connect 53 0 37 1;
#X connect 54 0 55 1;
#X connect 55 0 56 0;
#X connect 56 0 57 0;
#X connect 57 0 58 0;
#X connect 58 0 14 1;
#X connect 59 0 56 1;
#X connect 60 0 61 0;
#X connect 61 0 64 0;
#X connect 62 0 60 1;
#X connect 63 0 61 1;
#X connect 64 0 16 1;
#X connect 65 0 64 1;
#X connect 66 0 67 1;
#X connect 67 0 68 0;
#X connect 68 0 71 0;
#X connect 69 0 18 1;
#X connect 70 0 68 1;
#X connect 71 0 69 0;
#X connect 72 0 73 0;
#X connect 73 0 74 0;
#X connect 74 0 20 1;
#X connect 75 0 73 1;
#X connect 76 0 72 1;
#X connect 77 0 76 0;
#X connect 78 0 79 0;
#X connect 79 0 83 0;
#X connect 80 0 81 0;
#X connect 81 0 78 1;
#X connect 82 0 79 1;
#X connect 83 0 22 1;
#X restore 62 34 pd highshelf.coeffs;
#X connect 1 0 0 0;
#X connect 2 0 6 0;
#X connect 3 0 6 1;
#X connect 4 0 1 0;
#X connect 5 0 6 2;
#X connect 6 0 1 1;
#X connect 6 1 1 2;
#X connect 6 2 1 3;
#X connect 6 3 1 4;
#X connect 6 4 1 5;
