#N canvas 397 105 304 436 10;
#X obj 12 71 inlet~;
#X obj 60 121 inlet~;
#X obj 184 153 samplerate~;
#X msg 157 89 1;
#X obj 157 110 atan;
#X obj 157 131 * 8;
#X obj 12 323 outlet~;
#X obj 45 235 clip~ 0 1;
#X obj 12 271 rpole~;
#X obj 12 297 rzero~ 1;
#X obj 157 26 loadbang;
#X obj 45 191 sig~ 1;
#X obj 45 213 -~;
#X obj 123 214 inlet;
#X msg 123 235 clear;
#X msg 157 47 bang;
#X obj 157 68 t b b;
#X text 13 397 https://github.com/dotmmb/mmb;
#X text 13 377 Reference:;
#X text 13 357 [hip.mmb~] | [expr~] free version;
#X obj 60 147 *~ 6.28319;
#X obj 60 169 /~ 44100;
#X text 62 323 (O1) Output;
#X text 123 194 (I3) Clear internal state;
#X text 12 51 (I1) Input;
#X text 60 101 (I2) Frequency;
#X connect 0 0 8 0;
#X connect 1 0 20 0;
#X connect 2 0 21 1;
#X connect 3 0 4 0;
#X connect 4 0 5 0;
#X connect 5 0 20 1;
#X connect 7 0 8 1;
#X connect 8 0 9 0;
#X connect 9 0 6 0;
#X connect 10 0 15 0;
#X connect 11 0 12 0;
#X connect 12 0 7 0;
#X connect 13 0 14 0;
#X connect 14 0 8 0;
#X connect 14 0 9 0;
#X connect 15 0 16 0;
#X connect 16 0 3 0;
#X connect 16 1 2 0;
#X connect 20 0 21 0;
#X connect 21 0 12 1;
