#N canvas 950 23 587 628 10;
#X obj 62 12 inlet;
#X obj 112 12 inlet;
#X obj 222 12 inlet;
#X obj 62 168 pack f f f;
#X msg 364 203 \$3;
#X obj 62 189 t l l l;
#X msg 62 266 \$1;
#X msg 213 245 \$2;
#X obj 213 266 clip 0 1;
#X obj 143 66 samplerate~;
#X obj 365 224 / 40;
#X msg 365 245 10 \$1;
#X obj 365 266 pow;
#N canvas 913 670 234 241 expr 0;
#X obj 12 129 t f f;
#X obj 12 150 cos;
#X obj 39 150 sin;
#X obj 103 101 + 1;
#X msg 71 52 1 \$1;
#X obj 71 73 /;
#X obj 71 94 - 1;
#X obj 120 54 t f f;
#X obj 147 122 * 2;
#X obj 71 115 *;
#X obj 71 157 sqrt;
#X obj 39 171 *;
#X obj 71 136 +;
#X obj 103 80 pow 2;
#X obj 39 192 outlet;
#X obj 12 213 outlet;
#X obj 172 193 outlet;
#X obj 12 108 inlet;
#X obj 71 31 inlet;
#X obj 145 12 inlet;
#X obj 145 33 t f f;
#X connect 0 0 1 0;
#X connect 0 1 2 0;
#X connect 1 0 15 0;
#X connect 2 0 11 0;
#X connect 3 0 9 1;
#X connect 4 0 5 0;
#X connect 5 0 6 0;
#X connect 6 0 9 0;
#X connect 7 0 13 0;
#X connect 7 1 8 0;
#X connect 8 0 12 1;
#X connect 9 0 12 0;
#X connect 10 0 11 1;
#X connect 11 0 14 0;
#X connect 12 0 10 0;
#X connect 13 0 3 0;
#X connect 17 0 0 0;
#X connect 18 0 4 0;
#X connect 19 0 20 0;
#X connect 20 0 7 0;
#X connect 20 1 16 0;
#X restore 62 292 pd expr cos($f1) \; sin($f1) * sqrt(($f3*$f3 + 1)*(1/$f2
- 1) + 2*$f3) \; $f3;
#N canvas 925 256 272 181 expr 0;
#X obj 27 60 - 1;
#X obj 12 81 *;
#X obj 211 95 + 1;
#X obj 12 123 +;
#X obj 126 109 +;
#X obj 94 67 - 1;
#X obj 77 37 + 1;
#X obj 62 60 *;
#X obj 62 102 +;
#X obj 62 123 * -2;
#X obj 173 74 * -1;
#X obj 173 95 +;
#X obj 158 116 +;
#X obj 211 23 inlet;
#X obj 126 12 inlet;
#X obj 12 12 inlet;
#X obj 12 144 outlet;
#X obj 62 144 outlet;
#X obj 158 137 outlet;
#X obj 12 102 t f f;
#X obj 12 33 t f f;
#X obj 126 33 t f f;
#X connect 0 0 1 1;
#X connect 1 0 19 0;
#X connect 2 0 4 1;
#X connect 2 0 11 1;
#X connect 3 0 16 0;
#X connect 4 0 3 1;
#X connect 5 0 8 1;
#X connect 6 0 7 1;
#X connect 7 0 8 0;
#X connect 8 0 9 0;
#X connect 9 0 17 0;
#X connect 10 0 11 0;
#X connect 11 0 12 1;
#X connect 12 0 18 0;
#X connect 13 0 2 0;
#X connect 13 0 5 0;
#X connect 13 0 6 0;
#X connect 13 0 0 0;
#X connect 14 0 21 0;
#X connect 15 0 20 0;
#X connect 19 0 3 0;
#X connect 19 1 12 0;
#X connect 20 0 1 0;
#X connect 20 1 7 0;
#X connect 21 0 4 0;
#X connect 21 1 10 0;
#X restore 62 371 pd expr ($f3+1) + ($f3-1)*$f1 + $f2 \; -2*(($f3-1)
+ ($f3+1)*$f1) \; ($f3+1) + ($f3-1)*$f1 -$f2;
#N canvas 1068 509 241 244 expr 0;
#X obj 27 56 - 1;
#X obj 12 77 *;
#X obj 12 98 * -1;
#X obj 74 84 + 1;
#X obj 59 105 +;
#X obj 12 140 +;
#X obj 12 161 *;
#X obj 106 77 *;
#X obj 106 98 * -1;
#X obj 106 140 +;
#X obj 106 161 *;
#X obj 144 141 * 2;
#X obj 191 76 * -1;
#X obj 191 97 +;
#X obj 176 133 +;
#X obj 176 154 *;
#X obj 12 182 outlet;
#X obj 106 182 outlet;
#X obj 176 175 outlet;
#X obj 144 12 inlet;
#X obj 59 12 inlet;
#X obj 12 12 inlet;
#X obj 12 119 t f f;
#X obj 12 33 t f f;
#X connect 0 0 1 1;
#X connect 0 0 9 1;
#X connect 1 0 2 0;
#X connect 2 0 22 0;
#X connect 3 0 4 1;
#X connect 3 0 7 1;
#X connect 3 0 13 1;
#X connect 4 0 5 1;
#X connect 5 0 6 0;
#X connect 6 0 16 0;
#X connect 7 0 8 0;
#X connect 8 0 9 0;
#X connect 9 0 10 0;
#X connect 10 0 17 0;
#X connect 11 0 10 1;
#X connect 12 0 13 0;
#X connect 13 0 14 1;
#X connect 14 0 15 0;
#X connect 15 0 18 0;
#X connect 19 0 15 1;
#X connect 19 0 11 0;
#X connect 19 0 6 1;
#X connect 19 0 3 0;
#X connect 19 0 0 0;
#X connect 20 0 4 0;
#X connect 20 0 12 0;
#X connect 21 0 23 0;
#X connect 22 0 5 0;
#X connect 22 1 14 0;
#X connect 23 0 1 0;
#X connect 23 1 7 0;
#X restore 302 371 pd expr $f3*(($f3+1) - ($f3-1)*$f1 + $f2) \; 2*$f3*(($f3-1)
- ($f3+1)*$f1) \; $f3*(($f3+1) - ($f3-1)*$f1 - $f2);
#X obj 62 335 t f f;
#X obj 242 439 pack f f f f f f;
#X msg 242 460 \$2 \$3 \$4 \$5 \$6 \$1;
#X obj 242 481 unpack f f f f f f;
#X obj 242 533 /;
#X obj 272 533 /;
#X obj 302 533 /;
#X obj 332 533 /;
#X obj 362 533 /;
#X obj 242 559 pack f f f f f;
#X obj 242 507 * -1;
#X obj 272 507 * -1;
#X obj 12 573 biquad~;
#X obj 12 527 inlet~;
#X obj 12 594 outlet~;
#X obj 212 335 t f f;
#X obj 365 335 t f f;
#X obj 100 132 max 5.96046e-08;
#X obj 73 106 t b f;
#X obj 143 45 loadbang;
#X obj 62 59 * 6.28319;
#X obj 62 80 /;
#X obj 62 38 clip 0 20000;
#X obj 222 38 t b f;
#X obj 394 538 inlet;
#X msg 394 559 clear;
#X connect 0 0 38 0;
#X connect 1 0 34 0;
#X connect 2 0 39 0;
#X connect 3 0 5 0;
#X connect 4 0 10 0;
#X connect 5 0 6 0;
#X connect 5 1 7 0;
#X connect 5 2 4 0;
#X connect 6 0 13 0;
#X connect 7 0 8 0;
#X connect 8 0 13 1;
#X connect 9 0 37 1;
#X connect 10 0 11 0;
#X connect 11 0 12 0;
#X connect 12 0 13 2;
#X connect 13 0 16 0;
#X connect 13 1 31 0;
#X connect 13 2 32 0;
#X connect 14 0 17 0;
#X connect 14 1 17 1;
#X connect 14 2 17 2;
#X connect 15 0 17 3;
#X connect 15 1 17 4;
#X connect 15 2 17 5;
#X connect 16 0 14 0;
#X connect 16 1 15 0;
#X connect 17 0 18 0;
#X connect 18 0 19 0;
#X connect 19 0 26 0;
#X connect 19 1 27 0;
#X connect 19 2 22 0;
#X connect 19 3 23 0;
#X connect 19 4 24 0;
#X connect 19 5 24 1;
#X connect 19 5 23 1;
#X connect 19 5 22 1;
#X connect 19 5 21 1;
#X connect 19 5 20 1;
#X connect 20 0 25 0;
#X connect 21 0 25 1;
#X connect 22 0 25 2;
#X connect 23 0 25 3;
#X connect 24 0 25 4;
#X connect 25 0 28 0;
#X connect 26 0 20 0;
#X connect 27 0 21 0;
#X connect 28 0 30 0;
#X connect 29 0 28 0;
#X connect 31 0 14 1;
#X connect 31 1 15 1;
#X connect 32 0 14 2;
#X connect 32 1 15 2;
#X connect 33 0 3 1;
#X connect 34 0 3 0;
#X connect 34 1 33 0;
#X connect 35 0 9 0;
#X connect 36 0 37 0;
#X connect 37 0 3 0;
#X connect 38 0 36 0;
#X connect 39 0 3 0;
#X connect 39 1 3 2;
#X connect 40 0 41 0;
#X connect 41 0 28 0;
