#N canvas 674 23 275 140 10;
#X obj 12 109 outlet~;
#X obj 12 31 inlet~;
#N canvas 763 353 783 423 lowshelf.coeffs 0;
#X obj 27 37 clip~ 20 20000;
#X obj 258 64 sig~ 1;
#X obj 258 86 /~;
#X obj 243 108 *~;
#X obj 243 130 *~ 0.5;
#X obj 12 334 sig~ 1;
#X obj 12 356 /~;
#X obj 82 370 *~;
#X obj 82 392 outlet~ b0;
#X obj 152 370 *~;
#X obj 152 392 outlet~ b1;
#X obj 222 370 *~;
#X obj 222 392 outlet~ b2;
#X obj 292 370 *~;
#X obj 292 392 outlet~ a1;
#X obj 362 370 *~;
#X obj 362 392 outlet~ a2;
#X text 433 135 w0 = 2*pi*f0*Fs;
#X text 433 155 alpha = sin(w0)/(2*Q);
#X text 472 65 H(z) = -----------------------------------------;
#X text 472 25 Audio-Cookbook:;
#X text 472 105 http://musicdsp.org/files/Audio-EQ-Cookbook.txt;
#X text 514 80 1 + (a1/a0)*z^(-1) + (a2/a0)*z^(-2);
#X text 514 50 (b0/a0) + (b1/a0)*z^(-1) + (b2/a0)*z^(-2);
#X obj 388 33 clip~ -24 24;
#X obj 388 54 /~ 40;
#X obj 367 75 sig~ 10;
#X obj 367 96 pow~;
#X obj 27 170 *~;
#X obj 27 191 +~;
#X obj 59 177 +~ 1;
#X obj 258 156 sqrt~;
#X obj 258 177 *~ 2;
#X obj 243 198 *~;
#X obj 27 212 +~;
#X text 443 285 b0 = A*((A+1) - (A-1)*cos(w0) + 2*sqrt(A)*alpha);
#X text 443 305 b1 = 2*A*((A-1) - (A+1)*cos(w0));
#X text 443 325 b2 = A*((A+1) - (A-1)*cos(w0) - 2*sqrt(A)*alpha);
#X text 443 225 a0 = (A+1) + (A-1)*cos(w0) + 2*sqrt(A)*alpha;
#X text 443 245 a1 = -2*((A-1) + (A+1)*cos(w0));
#X text 443 265 a2 = (A+1) + (A-1)*cos(w0) - 2*sqrt(A)*alpha;
#X text 433 175 A = 10^(dbGain/40);
#X obj 97 281 *~;
#X obj 97 302 +~;
#X obj 97 323 +~;
#X obj 97 344 *~;
#X obj 129 288 +~ 1;
#X obj 112 239 -~ 1;
#X obj 112 260 *~ -1;
#X obj 182 239 +~ 1;
#X obj 182 260 *~ -1;
#X obj 167 281 *~;
#X obj 167 302 +~;
#X obj 199 288 -~ 1;
#X obj 167 323 *~;
#X obj 199 309 *~ 2;
#X obj 237 281 *~;
#X obj 237 302 +~;
#X obj 237 344 *~;
#X obj 269 288 +~ 1;
#X obj 252 239 -~ 1;
#X obj 252 260 *~ -1;
#X obj 237 323 -~;
#X obj 322 260 +~ 1;
#X obj 307 281 *~;
#X obj 307 302 +~;
#X obj 307 323 *~ -2;
#X obj 339 288 -~ 1;
#X obj 377 281 *~;
#X obj 377 302 +~;
#X obj 392 260 -~ 1;
#X obj 409 288 +~ 1;
#X obj 377 323 -~;
#X text 433 205 LowShelf:;
#X obj 52 149 -~ 1;
#X obj 27 100 expr~ cos($v1);
#X obj 127 94 expr~ sin($v1);
#X obj 27 80 *~ 6.28319;
#X obj 27 58 /~ 44100;
#X obj 273 20 inlet~;
#X obj 388 12 inlet~;
#X obj 27 15 inlet~;
#X obj 273 42 max~ 0.1;
#X connect 0 0 78 0;
#X connect 1 0 2 0;
#X connect 2 0 3 1;
#X connect 3 0 4 0;
#X connect 4 0 33 0;
#X connect 5 0 6 0;
#X connect 6 0 7 0;
#X connect 6 0 9 0;
#X connect 6 0 11 0;
#X connect 6 0 13 0;
#X connect 6 0 15 0;
#X connect 7 0 8 0;
#X connect 9 0 10 0;
#X connect 11 0 12 0;
#X connect 13 0 14 0;
#X connect 15 0 16 0;
#X connect 24 0 25 0;
#X connect 25 0 27 1;
#X connect 26 0 27 0;
#X connect 27 0 31 0;
#X connect 27 0 30 0;
#X connect 27 0 47 0;
#X connect 27 0 46 0;
#X connect 27 0 45 1;
#X connect 27 0 49 0;
#X connect 27 0 53 0;
#X connect 27 0 55 0;
#X connect 27 0 60 0;
#X connect 27 0 59 0;
#X connect 27 0 58 1;
#X connect 27 0 63 0;
#X connect 27 0 67 0;
#X connect 27 0 70 0;
#X connect 27 0 71 0;
#X connect 27 0 74 0;
#X connect 28 0 29 0;
#X connect 29 0 34 0;
#X connect 30 0 29 1;
#X connect 31 0 32 0;
#X connect 32 0 33 1;
#X connect 33 0 34 1;
#X connect 33 0 44 1;
#X connect 33 0 62 1;
#X connect 33 0 72 1;
#X connect 34 0 6 1;
#X connect 42 0 43 0;
#X connect 43 0 44 0;
#X connect 44 0 45 0;
#X connect 45 0 7 1;
#X connect 46 0 43 1;
#X connect 47 0 48 0;
#X connect 48 0 42 1;
#X connect 49 0 50 0;
#X connect 50 0 51 1;
#X connect 51 0 52 0;
#X connect 52 0 54 0;
#X connect 53 0 52 1;
#X connect 54 0 9 1;
#X connect 55 0 54 1;
#X connect 56 0 57 0;
#X connect 57 0 62 0;
#X connect 58 0 11 1;
#X connect 59 0 57 1;
#X connect 60 0 61 0;
#X connect 61 0 56 1;
#X connect 62 0 58 0;
#X connect 63 0 64 1;
#X connect 64 0 65 0;
#X connect 65 0 66 0;
#X connect 66 0 13 1;
#X connect 67 0 65 1;
#X connect 68 0 69 0;
#X connect 69 0 72 0;
#X connect 70 0 68 1;
#X connect 71 0 69 1;
#X connect 72 0 15 1;
#X connect 74 0 28 1;
#X connect 75 0 28 0;
#X connect 75 0 42 0;
#X connect 75 0 51 0;
#X connect 75 0 56 0;
#X connect 75 0 64 0;
#X connect 75 0 68 0;
#X connect 76 0 3 0;
#X connect 77 0 75 0;
#X connect 77 0 76 0;
#X connect 78 0 77 0;
#X connect 79 0 82 0;
#X connect 80 0 24 0;
#X connect 81 0 0 0;
#X connect 82 0 2 1;
#X restore 62 52 pd lowshelf.coeffs;
#X obj 62 31 inlet~;
#X obj 114 31 inlet~;
#X obj 167 31 inlet~;
#N canvas 776 547 365 190 @hv_obj 0;
#X obj 12 31 inlet~;
#N canvas 1097 522 303 331 zeros 0;
#X obj 12 217 czero~;
#X obj 12 273 czero~;
#X obj 12 299 outlet~;
#X obj 75 299 outlet~;
#X obj 12 31 inlet~;
#X obj 47 122 *~ -1;
#X obj 47 143 *~ 0.5;
#X obj 132 58 *~;
#X obj 132 92 -~;
#X obj 187 78 *~ 4;
#X obj 187 57 *~;
#X obj 132 113 abs~;
#X obj 132 155 *~ 0.5;
#X obj 132 176 /~;
#N canvas 773 235 262 212 location 0;
#X obj 12 12 inlet~;
#X obj 62 12 inlet~;
#X obj 207 12 inlet~;
#X obj 12 174 outlet~;
#X obj 72 174 outlet~;
#X obj 132 174 outlet~;
#X obj 192 174 outlet~;
#N canvas 725 189 180 137 gte 0;
#X obj 117 12 inlet~;
#X obj 12 12 inlet~;
#X obj 12 100 outlet~;
#N canvas 758 270 144 76 @hv_obj 0;
#X obj 62 12 inlet~;
#X obj 12 12 inlet~;
#X obj 12 34 outlet~;
#X connect 1 0 2 0;
#X restore 12 78 pd @hv_obj __and~f;
#X obj 117 56 sig~ 1;
#N canvas 945 362 136 178 @hv_obj 0;
#X obj 12 56 -~;
#X obj 12 78 clip~ -1e-37 0;
#X obj 12 12 inlet~;
#X obj 62 12 inlet~;
#X obj 12 144 outlet~;
#X obj 12 122 *~ 1e+37;
#X obj 12 34 min~;
#X obj 12 100 +~ 1e-37;
#X connect 0 0 1 0;
#X connect 1 0 7 0;
#X connect 2 0 6 0;
#X connect 3 0 6 1;
#X connect 3 0 0 1;
#X connect 5 0 4 0;
#X connect 6 0 0 0;
#X connect 7 0 5 0;
#X restore 12 34 pd @hv_obj __gte~f;
#X connect 0 0 5 1;
#X connect 1 0 5 0;
#X connect 3 0 2 0;
#X connect 4 0 3 1;
#X connect 5 0 3 0;
#X restore 62 49 pd gte;
#N canvas 845 375 187 138 lte 0;
#X obj 117 12 inlet~;
#X obj 12 12 inlet~;
#X obj 12 100 outlet~;
#N canvas 467 216 140 82 @hv_obj 0;
#X obj 72 12 inlet~;
#X obj 12 12 inlet~;
#X obj 12 39 outlet~;
#X connect 1 0 2 0;
#X restore 12 78 pd @hv_obj __and~f;
#X obj 117 56 sig~ 1;
#N canvas 715 101 137 184 @hv_obj 0;
#X obj 12 56 -~;
#X obj 12 78 clip~ -1e-37 0;
#X obj 12 12 inlet~;
#X obj 62 12 inlet~;
#X obj 12 144 outlet~;
#X obj 12 122 *~ 1e+37;
#X obj 12 34 min~;
#X obj 12 100 +~ 1e-37;
#X connect 0 0 1 0;
#X connect 1 0 7 0;
#X connect 2 0 6 0;
#X connect 2 0 0 1;
#X connect 3 0 6 1;
#X connect 5 0 4 0;
#X connect 6 0 0 0;
#X connect 7 0 5 0;
#X restore 12 34 pd @hv_obj __lte~f;
#X connect 0 0 5 1;
#X connect 1 0 5 0;
#X connect 3 0 2 0;
#X connect 4 0 3 1;
#X connect 5 0 3 0;
#X restore 127 49 pd lte;
#X obj 12 152 +~;
#X obj 160 22 sig~ 0;
#X obj 147 125 *~;
#X obj 192 125 *~;
#X obj 132 152 -~;
#X obj 192 152 *~ -1;
#X connect 0 0 9 0;
#X connect 0 0 13 0;
#X connect 1 0 7 0;
#X connect 1 0 8 0;
#X connect 2 0 11 1;
#X connect 2 0 12 1;
#X connect 7 0 11 0;
#X connect 8 0 12 0;
#X connect 9 0 3 0;
#X connect 10 0 7 1;
#X connect 10 0 8 1;
#X connect 11 0 9 1;
#X connect 11 0 13 1;
#X connect 12 0 4 0;
#X connect 12 0 14 0;
#X connect 13 0 5 0;
#X connect 14 0 6 0;
#X restore 34 190 pd location;
#X obj 132 134 sqrt~;
#X obj 47 164 /~;
#X obj 252 203 inlet;
#X text 62 11 b0;
#X text 132 11 b1;
#X text 202 11 b2;
#X obj 202 31 inlet~;
#X obj 132 31 inlet~;
#X obj 62 31 inlet~;
#X text 252 183 clear;
#X connect 0 0 1 0;
#X connect 0 1 1 1;
#X connect 1 0 2 0;
#X connect 1 1 3 0;
#X connect 4 0 0 0;
#X connect 5 0 6 0;
#X connect 6 0 16 0;
#X connect 7 0 8 0;
#X connect 8 0 11 0;
#X connect 8 0 14 1;
#X connect 9 0 8 1;
#X connect 10 0 9 0;
#X connect 11 0 15 0;
#X connect 12 0 13 0;
#X connect 13 0 14 2;
#X connect 14 0 0 2;
#X connect 14 1 0 3;
#X connect 14 2 1 2;
#X connect 14 3 1 3;
#X connect 15 0 12 0;
#X connect 16 0 14 0;
#X connect 17 0 0 0;
#X connect 17 0 1 0;
#X connect 21 0 10 1;
#X connect 22 0 5 0;
#X connect 22 0 7 1;
#X connect 22 0 7 0;
#X connect 23 0 10 0;
#X connect 23 0 13 1;
#X connect 23 0 16 1;
#X restore 12 89 pd zeros;
#X obj 12 52 *~;
#N canvas 1083 390 288 282 poles 0;
#X obj 12 181 cpole~;
#X obj 12 228 cpole~;
#X obj 12 249 outlet~;
#X obj 12 31 inlet~;
#X obj 62 31 inlet~;
#N canvas 739 258 279 198 location 0;
#X obj 12 12 inlet~;
#X obj 127 12 inlet~;
#X obj 222 49 inlet~;
#X obj 12 155 outlet~;
#X obj 62 155 outlet~;
#X obj 112 155 outlet~;
#X obj 172 155 outlet~;
#N canvas 796 341 183 142 gte 0;
#X obj 117 12 inlet~;
#X obj 12 12 inlet~;
#X obj 12 100 outlet~;
#N canvas 679 326 140 75 @hv_obj 0;
#X obj 72 12 inlet~;
#X obj 12 12 inlet~;
#X obj 12 34 outlet~;
#X connect 1 0 2 0;
#X restore 12 78 pd @hv_obj __and~f;
#X obj 117 56 sig~ 1;
#N canvas 754 439 132 184 @hv_obj 0;
#X obj 12 56 -~;
#X obj 12 78 clip~ -1e-37 0;
#X obj 12 12 inlet~;
#X obj 62 12 inlet~;
#X obj 12 144 outlet~;
#X obj 12 122 *~ 1e+37;
#X obj 12 34 min~;
#X obj 12 100 +~ 1e-37;
#X connect 0 0 1 0;
#X connect 1 0 7 0;
#X connect 2 0 6 0;
#X connect 3 0 6 1;
#X connect 3 0 0 1;
#X connect 5 0 4 0;
#X connect 6 0 0 0;
#X connect 7 0 5 0;
#X restore 12 34 pd @hv_obj __gte~f;
#X connect 0 0 5 1;
#X connect 1 0 5 0;
#X connect 3 0 2 0;
#X connect 4 0 3 1;
#X connect 5 0 3 0;
#X restore 127 39 pd gte;
#N canvas 816 493 187 138 lte 0;
#X obj 117 12 inlet~;
#X obj 12 12 inlet~;
#X obj 12 100 outlet~;
#N canvas 467 216 142 76 @hv_obj 0;
#X obj 72 12 inlet~;
#X obj 12 12 inlet~;
#X obj 12 34 outlet~;
#X connect 1 0 2 0;
#X restore 12 78 pd @hv_obj __and~f;
#X obj 117 56 sig~ 1;
#N canvas 715 101 131 178 @hv_obj 0;
#X obj 12 56 -~;
#X obj 12 78 clip~ -1e-37 0;
#X obj 12 12 inlet~;
#X obj 62 12 inlet~;
#X obj 12 144 outlet~;
#X obj 12 122 *~ 1e+37;
#X obj 12 34 min~;
#X obj 12 100 +~ 1e-37;
#X connect 0 0 1 0;
#X connect 1 0 7 0;
#X connect 2 0 6 0;
#X connect 2 0 0 1;
#X connect 3 0 6 1;
#X connect 5 0 4 0;
#X connect 6 0 0 0;
#X connect 7 0 5 0;
#X restore 12 34 pd @hv_obj __lte~f;
#X connect 0 0 5 1;
#X connect 1 0 5 0;
#X connect 3 0 2 0;
#X connect 4 0 3 1;
#X connect 5 0 3 0;
#X restore 172 39 pd lte;
#X obj 12 83 +~;
#X obj 205 12 sig~ 0;
#X obj 127 66 *~;
#X obj 172 66 *~;
#X obj 112 133 -~;
#X obj 172 133 *~ -1;
#X connect 0 0 9 0;
#X connect 0 0 13 0;
#X connect 1 0 7 0;
#X connect 1 0 8 0;
#X connect 2 0 11 1;
#X connect 2 0 12 1;
#X connect 7 0 11 0;
#X connect 8 0 12 0;
#X connect 9 0 3 0;
#X connect 10 0 7 1;
#X connect 10 0 8 1;
#X connect 11 0 9 1;
#X connect 11 0 13 1;
#X connect 12 0 4 0;
#X connect 12 0 14 0;
#X connect 13 0 5 0;
#X connect 14 0 6 0;
#X restore 34 155 pd location;
#X obj 72 78 *~ 0.5;
#X obj 122 57 *~;
#X obj 122 78 +~;
#X obj 182 64 *~ 4;
#X obj 122 99 abs~;
#X obj 122 141 *~ 0.5;
#X obj 122 120 sqrt~;
#X obj 232 167 inlet;
#X text 182 11 a2;
#X text 122 11 a1;
#X obj 122 31 inlet~;
#X obj 182 31 inlet~;
#X text 232 147 clear;
#X connect 0 0 1 0;
#X connect 0 1 1 1;
#X connect 1 0 2 0;
#X connect 3 0 0 0;
#X connect 4 0 0 1;
#X connect 5 0 0 2;
#X connect 5 1 0 3;
#X connect 5 2 1 2;
#X connect 5 3 1 3;
#X connect 6 0 5 0;
#X connect 7 0 8 0;
#X connect 8 0 5 1;
#X connect 8 0 10 0;
#X connect 9 0 8 1;
#X connect 10 0 12 0;
#X connect 11 0 5 2;
#X connect 12 0 11 0;
#X connect 13 0 0 0;
#X connect 13 0 1 0;
#X connect 16 0 6 0;
#X connect 16 0 7 0;
#X connect 16 0 7 1;
#X connect 17 0 9 0;
#X restore 12 133 pd poles;
#X obj 12 159 outlet~;
#X obj 212 119 *~ -1;
#X obj 262 119 *~ -1;
#X obj 312 75 inlet;
#X obj 62 31 inlet~;
#X obj 112 31 inlet~;
#X obj 162 31 inlet~;
#X obj 212 31 inlet~;
#X obj 262 31 inlet~;
#X text 62 11 b0;
#X text 112 11 b1;
#X text 162 11 b2;
#X text 212 11 a1;
#X text 262 11 a2;
#X text 312 55 clear;
#X connect 0 0 2 0;
#X connect 1 0 3 0;
#X connect 1 1 3 1;
#X connect 2 0 1 0;
#X connect 3 0 4 0;
#X connect 5 0 3 2;
#X connect 6 0 3 3;
#X connect 7 0 1 4;
#X connect 7 0 3 4;
#X connect 8 0 2 1;
#X connect 8 0 1 1;
#X connect 9 0 1 2;
#X connect 10 0 1 3;
#X connect 11 0 5 0;
#X connect 12 0 6 0;
#X restore 12 88 pd @hv_obj biquad;
#X obj 217 53 inlet;
#X msg 217 74 clear;
#X text 217 33 clear;
#X text 62 11 freq;
#X text 114 11 q;
#X text 167 11 gain;
#X connect 1 0 6 0;
#X connect 2 0 6 1;
#X connect 2 1 6 2;
#X connect 2 2 6 3;
#X connect 2 3 6 4;
#X connect 2 4 6 5;
#X connect 3 0 2 0;
#X connect 4 0 2 1;
#X connect 5 0 2 2;
#X connect 6 0 0 0;
#X connect 7 0 8 0;
#X connect 8 0 6 6;
