#N canvas 1103 392 573 453 10;
#X obj 12 295 inlet~;
#X obj 12 347 *~;
#X obj 47 373 +~;
#X obj 12 321 -~;
#X obj 267 71 block~ 1 1 1;
#X obj 87 389 delwrite~ \$0-z 0;
#X obj 62 305 delread~ \$0-z 0;
#X obj 47 415 outlet~;
#X obj 193 73 loadbang;
#X msg 181 157 1;
#X obj 181 178 atan;
#X obj 181 199 * 4;
#X obj 181 242 / 44100;
#X obj 193 115 samplerate~;
#X obj 166 263 *~;
#X obj 180 289 /~ 6.28319;
#X obj 180 310 -~ 0.25;
#X obj 180 331 cos~;
#X obj 237 236 * 2;
#X text 266 26 Based on The Art of VA Filter Design;
#X text 266 46 http://www.discodsp.net/VAFilterDesign_1.1.1.pdf;
#X obj 166 31 inlet~;
#X obj 181 220 t f f;
#X msg 193 94 bang;
#X obj 193 136 t b f;
#X text 12 275 0: Input;
#X text 166 11 1: Frequency;
#X text 266 11 Naive 1-pole lowpass filter;
#X text 97 415 <-- Output;
#X obj 166 52 clip~ 0 22050;
#X connect 0 0 3 0;
#X connect 1 0 2 0;
#X connect 2 0 5 0;
#X connect 2 0 7 0;
#X connect 3 0 1 0;
#X connect 6 0 3 1;
#X connect 6 0 2 1;
#X connect 8 0 23 0;
#X connect 9 0 10 0;
#X connect 10 0 11 0;
#X connect 11 0 22 0;
#X connect 12 0 14 1;
#X connect 13 0 24 0;
#X connect 14 0 15 0;
#X connect 15 0 16 0;
#X connect 16 0 17 0;
#X connect 17 0 1 1;
#X connect 18 0 15 1;
#X connect 21 0 29 0;
#X connect 22 0 12 0;
#X connect 22 1 18 0;
#X connect 23 0 13 0;
#X connect 24 0 9 0;
#X connect 24 1 12 1;
#X connect 29 0 14 0;
