#N canvas 117 105 874 615 10;
#X obj 20 385 *~;
#X obj 20 20 inlet~;
#X obj 35 273 r \$0-dry-gain;
#X obj 20 464 outlet~;
#X text 426 338 Original author: Miller Puckette;
#X obj 157 266 r \$0-lowcut;
#X obj 155 213 r \$0-highcut;
#N canvas 397 74 957 645 guts 0;
#X obj 161 497 +~;
#X obj 520 105 inlet;
#X obj 184 407 *~;
#X obj 486 412 *~;
#X obj 285 412 *~;
#X obj 387 412 *~;
#X obj 443 546 -~;
#X obj 364 545 -~;
#X obj 239 537 +~;
#X obj 161 534 +~;
#X obj 162 444 +~;
#X obj 262 440 +~;
#X obj 464 501 -~;
#X obj 387 499 +~;
#X obj 239 500 -~;
#X obj 452 105 inlet;
#X obj 609 429 line~;
#X obj 509 374 line~;
#X obj 16 121 delread~ \$0-del1 58.6435;
#X obj 94 143 delread~ \$0-del2 69.4325;
#X obj 176 165 delread~ \$0-del3 74.5234;
#X obj 258 189 delread~ \$0-del4 86.1244;
#X obj 530 500 *~;
#X obj 599 501 *~;
#X obj 161 641 delwrite~ \$0-del1 58.6435;
#X obj 240 617 delwrite~ \$0-del2 69.4325;
#X obj 365 595 delwrite~ \$0-del3 74.5234;
#X obj 444 573 delwrite~ \$0-del4 86.1244;
#X obj 609 357 dbtorms;
#X obj 609 403 pack 0 30;
#X obj 520 211 pack 0 50;
#X obj 9 390 inlet~;
#X obj 530 525 outlet~;
#X obj 599 525 outlet~;
#X obj 520 187 / 200;
#X obj 520 162 clip 0 100;
#X obj 52 236 lop~;
#X obj 625 143 f \$3;
#X obj 696 143 f \$4;
#X obj 367 106 loadbang;
#X obj 625 167 moses 1;
#X msg 631 193 3000;
#X obj 705 193 clip 0 100;
#N canvas 345 88 355 597 early-reflect 0;
#X obj 119 477 delread~ \$0-ref6 13.645;
#X obj 119 453 delwrite~ \$0-ref6 13.645;
#X obj 106 400 delread~ \$0-ref5 16.364;
#X obj 106 376 delwrite~ \$0-ref5 16.364;
#X obj 102 324 delread~ \$0-ref4 19.392;
#X obj 102 300 delwrite~ \$0-ref4 19.392;
#X obj 106 247 delread~ \$0-ref3 25.796;
#X obj 106 223 delwrite~ \$0-ref3 25.796;
#X obj 107 169 delread~ \$0-ref2 43.5337;
#X obj 107 145 delwrite~ \$0-ref2 43.5337;
#X obj 110 90 delread~ \$0-ref1 75.2546;
#X obj 84 119 -~;
#X obj 49 119 +~;
#X obj 50 195 +~;
#X obj 85 196 -~;
#X obj 84 275 -~;
#X obj 49 274 +~;
#X obj 82 349 -~;
#X obj 48 350 +~;
#X obj 83 428 -~;
#X obj 49 428 +~;
#X obj 65 7 inlet~;
#X obj 110 66 delwrite~ \$0-ref1 75.2546;
#X obj 49 508 outlet~;
#X obj 119 507 outlet~;
#X connect 0 0 24 0;
#X connect 2 0 20 1;
#X connect 2 0 19 1;
#X connect 4 0 18 1;
#X connect 4 0 17 1;
#X connect 6 0 16 1;
#X connect 6 0 15 1;
#X connect 8 0 13 1;
#X connect 8 0 14 1;
#X connect 10 0 12 1;
#X connect 10 0 11 1;
#X connect 11 0 9 0;
#X connect 12 0 14 0;
#X connect 12 0 13 0;
#X connect 13 0 16 0;
#X connect 13 0 15 0;
#X connect 14 0 7 0;
#X connect 15 0 5 0;
#X connect 16 0 18 0;
#X connect 16 0 17 0;
#X connect 17 0 3 0;
#X connect 18 0 20 0;
#X connect 18 0 19 0;
#X connect 19 0 1 0;
#X connect 20 0 23 0;
#X connect 21 0 12 0;
#X connect 21 0 11 0;
#X connect 21 0 22 0;
#X restore 9 416 pd early-reflect;
#X obj 618 216 f;
#X obj 618 105 inlet;
#X obj 696 109 inlet;
#X obj 705 216 f;
#X obj 705 239 * 0.01;
#X obj 705 263 pack 0 50;
#X obj 705 287 line~;
#X obj 29 269 -~;
#X obj 28 300 *~;
#X obj 16 331 +~;
#X obj 132 240 lop~;
#X obj 106 274 -~;
#X obj 105 309 *~;
#X obj 95 333 +~;
#X obj 214 245 lop~;
#X obj 188 273 -~;
#X obj 187 314 *~;
#X obj 176 339 +~;
#X obj 308 249 lop~;
#X obj 281 274 -~;
#X obj 281 318 *~;
#X obj 258 342 +~;
#X obj 609 379 * 0.125;
#X text 403 10 control inlets:;
#X obj 452 137 f 80;
#X obj 520 138 f 80;
#X text 16 29 https://github.com/rjdj/rjlib/blob/master/rj/e_reverb.pd
;
#X text 400 45 2: liveness \, 0-100 \, usually between 85 and 100 (feedback)
;
#X text 399 79 4: high frequency damping \, 0-100 (damp);
#X text 17 9 Abstraction found in rjlib's e_reverb.pd;
#X text 400 62 3: crossover frequency in Hz. (3000 default) (crossfreq)
;
#X text 400 29 1: output level \, dB \, 0-100 (wet-gain);
#X connect 0 0 9 0;
#X connect 0 0 7 0;
#X connect 1 0 69 0;
#X connect 2 0 10 1;
#X connect 3 0 12 1;
#X connect 3 0 13 1;
#X connect 4 0 11 1;
#X connect 5 0 13 0;
#X connect 5 0 12 0;
#X connect 6 0 27 0;
#X connect 7 0 26 0;
#X connect 8 0 25 0;
#X connect 9 0 24 0;
#X connect 10 0 14 0;
#X connect 10 0 0 0;
#X connect 10 0 22 0;
#X connect 11 0 0 1;
#X connect 11 0 14 1;
#X connect 11 0 23 0;
#X connect 12 0 8 1;
#X connect 12 0 6 1;
#X connect 13 0 9 1;
#X connect 13 0 7 1;
#X connect 14 0 8 0;
#X connect 14 0 6 0;
#X connect 15 0 68 0;
#X connect 16 0 22 1;
#X connect 16 0 23 1;
#X connect 17 0 4 1;
#X connect 17 0 2 1;
#X connect 17 0 5 1;
#X connect 17 0 3 1;
#X connect 18 0 36 0;
#X connect 18 0 51 1;
#X connect 18 0 53 0;
#X connect 19 0 54 0;
#X connect 19 0 55 1;
#X connect 19 0 57 0;
#X connect 20 0 61 0;
#X connect 20 0 58 0;
#X connect 20 0 59 1;
#X connect 21 0 65 0;
#X connect 21 0 63 1;
#X connect 21 0 62 0;
#X connect 22 0 32 0;
#X connect 23 0 33 0;
#X connect 28 0 66 0;
#X connect 29 0 16 0;
#X connect 30 0 17 0;
#X connect 31 0 43 0;
#X connect 34 0 30 0;
#X connect 35 0 34 0;
#X connect 36 0 51 0;
#X connect 37 0 40 0;
#X connect 38 0 42 0;
#X connect 39 0 37 0;
#X connect 39 0 38 0;
#X connect 39 0 68 0;
#X connect 39 0 69 0;
#X connect 40 0 41 0;
#X connect 40 1 44 0;
#X connect 41 0 44 0;
#X connect 42 0 47 0;
#X connect 43 0 10 0;
#X connect 43 1 11 0;
#X connect 44 0 36 1;
#X connect 44 0 54 1;
#X connect 44 0 58 1;
#X connect 44 0 62 1;
#X connect 45 0 44 0;
#X connect 46 0 38 0;
#X connect 47 0 48 0;
#X connect 48 0 49 0;
#X connect 49 0 50 0;
#X connect 50 0 52 1;
#X connect 50 0 56 1;
#X connect 50 0 60 1;
#X connect 50 0 64 1;
#X connect 51 0 52 0;
#X connect 52 0 53 1;
#X connect 53 0 2 0;
#X connect 54 0 55 0;
#X connect 55 0 56 0;
#X connect 56 0 57 1;
#X connect 57 0 4 0;
#X connect 58 0 59 0;
#X connect 59 0 60 0;
#X connect 60 0 61 1;
#X connect 61 0 5 0;
#X connect 62 0 63 0;
#X connect 63 0 64 0;
#X connect 64 0 65 1;
#X connect 65 0 3 0;
#X connect 66 0 29 0;
#X connect 68 0 28 0;
#X connect 69 0 35 0;
#X restore 136 418 pd guts;
#X obj 192 383 r \$0-damp;
#X obj 110 464 outlet~;
#X obj 164 341 r \$0-feedback;
#X text 426 272 Taken from e_reverb.pd in rjlib. Itself expanding from
recirculating reverberators found in G08.Reverb.pd in help browser.
;
#X text 423 322 http://msp.ucsd.edu/techniques/v0.11/book-html/node124.html
;
#X obj 35 361 line~;
#X obj 35 295 dbtorms;
#X obj 35 339 pack 0 30;
#X obj 35 317 * 0.125;
#X obj 150 318 r \$0-wet-gain;
#X obj 178 362 r \$0-crossfreq;
#X obj 136 80 delwrite~ \$0-predelay 3000;
#X obj 136 136 sig~;
#X obj 136 164 vd~ \$0-predelay;
#X obj 136 112 r \$0-predelay_ms;
#X obj 363 29 inlet;
#X obj 363 50 unpack s f;
#X obj 363 71 pack s \$0;
#X msg 363 92 \$2-\$1;
#X obj 363 113 symbol;
#X obj 363 134 t b a;
#X obj 405 160 f;
#X obj 405 181 s;
#N canvas 0 23 450 300 lowpass 0;
#X obj 62 16 inlet;
#X obj 206 16 inlet;
#X obj 62 122 * 6.28319;
#X obj 62 143 /;
#X obj 154 106 loadbang;
#X obj 154 127 samplerate~;
#X obj 123 152 max 5.96046e-08;
#X obj 155 178 cos;
#X obj 137 320 pack f f f f f f;
#X obj 155 225 * -2;
#X obj 62 232 t f f;
#X msg 89 253 1 \$1;
#X obj 89 274 -;
#X obj 62 274 + 1;
#X obj 62 51 f;
#X obj 206 37 t b f;
#X obj 62 190 sin;
#X obj 62 211 /;
#X obj 123 197 * 2;
#X obj 62 164 t f f;
#X obj 155 199 t f f;
#X msg 137 341 \$2 \$3 \$4 \$5 \$6 \$1;
#X obj 137 362 unpack f f f f f f;
#X obj 137 414 /;
#X obj 167 414 /;
#X obj 197 414 /;
#X obj 227 414 /;
#X obj 257 414 /;
#X obj 137 440 pack f f f f f;
#X obj 137 388 * -1;
#X obj 167 388 * -1;
#X text 247 320 a0 a1 a2 b0 b1 b2;
#X obj 12 454 biquad~;
#X obj 289 419 inlet;
#X msg 289 440 clear;
#X obj 12 428 inlet~;
#X obj 12 475 outlet~;
#X msg 211 213 1 \$1;
#X obj 211 234 -;
#X obj 211 255 t f f;
#X obj 238 276 / 2;
#X obj 238 297 t f f;
#X obj 62 101 clip 20 20000;
#X connect 0 0 14 0;
#X connect 1 0 15 0;
#X connect 2 0 3 0;
#X connect 3 0 19 0;
#X connect 4 0 5 0;
#X connect 5 0 3 1;
#X connect 6 0 18 0;
#X connect 7 0 20 0;
#X connect 8 0 21 0;
#X connect 9 0 8 1;
#X connect 10 0 13 0;
#X connect 10 1 11 0;
#X connect 11 0 12 0;
#X connect 12 0 8 2;
#X connect 13 0 8 0;
#X connect 14 0 42 0;
#X connect 15 0 14 0;
#X connect 15 1 6 0;
#X connect 16 0 17 0;
#X connect 17 0 10 0;
#X connect 18 0 17 1;
#X connect 19 0 16 0;
#X connect 19 1 7 0;
#X connect 20 0 9 0;
#X connect 20 1 37 0;
#X connect 21 0 22 0;
#X connect 22 0 29 0;
#X connect 22 1 30 0;
#X connect 22 2 25 0;
#X connect 22 3 26 0;
#X connect 22 4 27 0;
#X connect 22 5 27 1;
#X connect 22 5 26 1;
#X connect 22 5 25 1;
#X connect 22 5 24 1;
#X connect 22 5 23 1;
#X connect 23 0 28 0;
#X connect 24 0 28 1;
#X connect 25 0 28 2;
#X connect 26 0 28 3;
#X connect 27 0 28 4;
#X connect 28 0 32 0;
#X connect 29 0 23 0;
#X connect 30 0 24 0;
#X connect 32 0 36 0;
#X connect 33 0 34 0;
#X connect 34 0 32 0;
#X connect 35 0 32 0;
#X connect 37 0 38 0;
#X connect 38 0 39 0;
#X connect 39 0 8 4;
#X connect 39 1 40 0;
#X connect 40 0 41 0;
#X connect 41 0 8 3;
#X connect 41 1 8 5;
#X connect 42 0 2 0;
#X restore 136 239 pd lowpass;
#N canvas 0 23 450 300 highpass 0;
#X obj 62 16 inlet;
#X obj 206 16 inlet;
#X obj 62 122 * 6.28319;
#X obj 62 143 /;
#X obj 154 106 loadbang;
#X obj 154 127 samplerate~;
#X obj 123 152 max 5.96046e-08;
#X obj 155 178 cos;
#X obj 137 320 pack f f f f f f;
#X obj 226 273 / 2;
#X obj 155 225 * -2;
#X obj 62 232 t f f;
#X msg 89 253 1 \$1;
#X obj 89 274 -;
#X obj 62 274 + 1;
#X obj 188 226 + 1;
#X obj 188 273 * -1;
#X obj 62 51 f;
#X obj 206 37 t b f;
#X obj 62 190 sin;
#X obj 62 211 /;
#X obj 123 197 * 2;
#X obj 62 164 t f f;
#X obj 188 247 t f f;
#X obj 226 294 t f f;
#X obj 155 199 t f f;
#X msg 137 341 \$2 \$3 \$4 \$5 \$6 \$1;
#X obj 137 362 unpack f f f f f f;
#X obj 137 414 /;
#X obj 167 414 /;
#X obj 197 414 /;
#X obj 227 414 /;
#X obj 257 414 /;
#X obj 137 440 pack f f f f f;
#X obj 137 388 * -1;
#X obj 167 388 * -1;
#X text 247 320 a0 a1 a2 b0 b1 b2;
#X obj 12 454 biquad~;
#X obj 289 419 inlet;
#X msg 289 440 clear;
#X obj 12 428 inlet~;
#X obj 12 475 outlet~;
#X obj 62 101 clip 20 20000;
#X connect 0 0 17 0;
#X connect 1 0 18 0;
#X connect 2 0 3 0;
#X connect 3 0 22 0;
#X connect 4 0 5 0;
#X connect 5 0 3 1;
#X connect 6 0 21 0;
#X connect 7 0 25 0;
#X connect 8 0 26 0;
#X connect 9 0 24 0;
#X connect 10 0 8 1;
#X connect 11 0 14 0;
#X connect 11 1 12 0;
#X connect 12 0 13 0;
#X connect 13 0 8 2;
#X connect 14 0 8 0;
#X connect 15 0 23 0;
#X connect 16 0 8 4;
#X connect 17 0 42 0;
#X connect 18 0 17 0;
#X connect 18 1 6 0;
#X connect 19 0 20 0;
#X connect 20 0 11 0;
#X connect 21 0 20 1;
#X connect 22 0 19 0;
#X connect 22 1 7 0;
#X connect 23 0 16 0;
#X connect 23 1 9 0;
#X connect 24 0 8 3;
#X connect 24 1 8 5;
#X connect 25 0 10 0;
#X connect 25 1 15 0;
#X connect 26 0 27 0;
#X connect 27 0 34 0;
#X connect 27 1 35 0;
#X connect 27 2 30 0;
#X connect 27 3 31 0;
#X connect 27 4 32 0;
#X connect 27 5 32 1;
#X connect 27 5 31 1;
#X connect 27 5 30 1;
#X connect 27 5 29 1;
#X connect 27 5 28 1;
#X connect 28 0 33 0;
#X connect 29 0 33 1;
#X connect 30 0 33 2;
#X connect 31 0 33 3;
#X connect 32 0 33 4;
#X connect 33 0 37 0;
#X connect 34 0 28 0;
#X connect 35 0 29 0;
#X connect 37 0 41 0;
#X connect 38 0 39 0;
#X connect 39 0 37 0;
#X connect 40 0 37 0;
#X connect 42 0 2 0;
#X restore 136 292 pd highpass;
#X obj 241 182 loadbang;
#X msg 241 203 0.404;
#X connect 0 0 3 0;
#X connect 0 0 9 0;
#X connect 1 0 19 0;
#X connect 1 0 0 0;
#X connect 2 0 14 0;
#X connect 5 0 32 1;
#X connect 6 0 31 1;
#X connect 7 0 3 0;
#X connect 7 1 9 0;
#X connect 8 0 7 4;
#X connect 10 0 7 2;
#X connect 13 0 0 1;
#X connect 14 0 16 0;
#X connect 15 0 13 0;
#X connect 16 0 15 0;
#X connect 17 0 7 1;
#X connect 18 0 7 3;
#X connect 20 0 21 0;
#X connect 21 0 31 0;
#X connect 22 0 20 0;
#X connect 23 0 24 0;
#X connect 24 0 25 0;
#X connect 24 1 29 1;
#X connect 25 0 26 0;
#X connect 26 0 27 0;
#X connect 27 0 28 0;
#X connect 28 0 29 0;
#X connect 28 1 30 1;
#X connect 29 0 30 0;
#X connect 31 0 32 0;
#X connect 32 0 7 0;
#X connect 33 0 34 0;
#X connect 34 0 32 2;
#X connect 34 0 31 2;
