#N canvas 409 261 471 552 10;
#X text 13 51 INLETS;
#X text 213 51 OUTLETS;
#X obj 91 381 hsl 128 16 0 0.5 0 0 empty empty VOLUME -2 -6 0 12 -4034
-1 -1 8300 1;
#X obj 88 402 pack f 20;
#X obj 88 423 line~;
#X obj 22 449 *~;
#X obj 22 141 loadbang;
#X obj 22 183 readsf~;
#X text 23 66 1: Audio Input;
#X obj 110 252 hsl 128 16 0 1 0 0 empty \$0-drywet DRY/WET -2 -6 0
12 -128992 -262144 -1 3200 1;
#X obj 107 294 line~;
#X floatatom 222 268 0 0 0 0 - - -;
#X msg 107 273 \$1 20;
#X obj 22 385 +~;
#X obj 37 320 -~;
#X obj 22 341 *~;
#X obj 92 320 *~;
#X obj 92 209 re.spring~;
#X obj 22 480 dac~ 1 2;
#X text 13 11 [re.spring~];
#X text 223 66 1: Audio Output;
#X obj 37 294 sig~ 1;
#X text 23 26 Attempt at making a "simple" spring reverb.;
#X obj 355 91 loadbang;
#X obj 355 112 f \$0;
#X msg 355 133 \; \$1-drywet 0.5;
#X msg 22 162 open ../wavs/piano.wav \, 1;
#X connect 2 0 3 0;
#X connect 3 0 4 0;
#X connect 4 0 5 1;
#X connect 5 0 18 0;
#X connect 5 0 18 1;
#X connect 6 0 26 0;
#X connect 7 0 15 0;
#X connect 7 0 17 0;
#X connect 7 1 26 0;
#X connect 9 0 11 0;
#X connect 9 0 12 0;
#X connect 10 0 16 1;
#X connect 10 0 14 1;
#X connect 12 0 10 0;
#X connect 13 0 5 0;
#X connect 14 0 15 1;
#X connect 15 0 13 0;
#X connect 16 0 13 1;
#X connect 17 0 16 0;
#X connect 21 0 14 0;
#X connect 23 0 24 0;
#X connect 24 0 25 0;
#X connect 26 0 7 0;
