#N canvas 85 219 510 559 10;
#X text 13 47 INLETS;
#X text 183 47 OUTLETS;
#X obj 91 392 hsl 128 16 0 0.5 0 0 empty empty VOLUME -2 -6 0 12 -4034
-1 -1 12600 1;
#X obj 88 413 pack f 20;
#X obj 88 434 line~;
#X obj 22 450 *~;
#X obj 22 107 loadbang;
#X obj 360 14 loadbang;
#X obj 360 56 f \$0;
#X text 23 62 1: Audio Input;
#X msg 360 35 bang;
#X text 22 501 References:;
#X obj 121 274 hsl 128 16 0 1 0 0 empty \$0-dry/wet DRY/WET -2 -6 0
12 -128992 -262144 -1 12700 1;
#X obj 118 316 line~;
#X floatatom 199 290 0 0 0 0 - - -;
#X msg 118 295 \$1 20;
#X obj 22 357 *~;
#X obj 103 357 *~;
#X msg 22 128 open ../sound/piano.wav \, 1;
#X obj 22 471 dac~ 1 2;
#X obj 157 170 hsl 128 16 2 256 1 0 empty \$0-steps STEPS -2 -6 0 12
-128992 -262144 -1 7257 1;
#X obj 154 212 line~;
#X msg 154 191 \$1 20;
#X obj 22 378 +~;
#X obj 37 311 sig~ 1;
#X obj 37 332 -~;
#X obj 103 238 fx.crush~;
#X obj 22 149 readsf~;
#X floatatom 241 186 0 0 0 0 - - -;
#X msg 360 77 \; \$1-steps 32 \; \$1-dry/wet 1 \;;
#X text 22 516 https://lists.puredata.info/pipermail/pd-list/2008-12/066923.html
;
#X text 23 77 2: Steps;
#X text 193 62 1: Quantized Output;
#X text 13 7 [fx.crush~];
#X text 23 22 Quantizer;
#X connect 2 0 3 0;
#X connect 3 0 4 0;
#X connect 4 0 5 1;
#X connect 5 0 19 0;
#X connect 5 0 19 1;
#X connect 6 0 18 0;
#X connect 7 0 10 0;
#X connect 8 0 29 0;
#X connect 10 0 8 0;
#X connect 12 0 14 0;
#X connect 12 0 15 0;
#X connect 13 0 17 1;
#X connect 13 0 25 1;
#X connect 15 0 13 0;
#X connect 16 0 23 0;
#X connect 17 0 23 1;
#X connect 18 0 27 0;
#X connect 20 0 22 0;
#X connect 20 0 28 0;
#X connect 21 0 26 1;
#X connect 22 0 21 0;
#X connect 23 0 5 0;
#X connect 24 0 25 0;
#X connect 25 0 16 1;
#X connect 26 0 17 0;
#X connect 27 0 16 0;
#X connect 27 0 26 0;
#X connect 27 1 18 0;
