#N canvas 574 162 396 333 10;
#X obj 12 141 -~;
#X obj 27 115 wrap~;
#X obj 27 94 +~ 0.5;
#X obj 140 198 +~;
#X obj 155 172 /~;
#X obj 155 151 sig~ 0.5;
#X obj 52 167 /~;
#X obj 12 68 *~;
#X obj 170 31 inlet~;
#X obj 140 219 outlet~;
#X obj 12 31 inlet~;
#X text 140 239 (O1) Output;
#X text 12 11 (I1) Input;
#X text 12 272 https://lists.puredata.info/pipermail/pd-list/2008-12/066923.html
;
#X text 12 257 Reference:;
#X obj 170 52 /~ 2;
#X text 170 11 (I2) Steps;
#X connect 0 0 6 0;
#X connect 1 0 0 1;
#X connect 2 0 1 0;
#X connect 3 0 9 0;
#X connect 4 0 3 1;
#X connect 5 0 4 0;
#X connect 6 0 3 0;
#X connect 7 0 0 0;
#X connect 7 0 2 0;
#X connect 8 0 15 0;
#X connect 10 0 7 0;
#X connect 15 0 4 1;
#X connect 15 0 7 1;
#X connect 15 0 6 1;
