#N canvas 574 162 360 273 10;
#X obj 12 136 samphold~;
#N canvas 453 305 166 159 triangle 0;
#X obj 33 38 *~ -1;
#X obj 33 59 +~ 1;
#X obj 12 80 min~;
#X obj 12 101 *~ 2;
#X obj 12 122 outlet~;
#X obj 12 12 inlet~;
#X connect 0 0 1 0;
#X connect 1 0 2 1;
#X connect 2 0 3 0;
#X connect 3 0 4 0;
#X connect 5 0 2 0;
#X connect 5 0 0 0;
#X restore 106 141 pd triangle;
#X obj 12 157 *~;
#X obj 214 136 samphold~;
#X obj 184 162 *~;
#X obj 282 89 +~ 0.5;
#X obj 282 110 wrap~;
#X obj 12 178 +~;
#X obj 106 120 wrap~;
#X obj 12 31 inlet~;
#X obj 106 31 inlet~;
#X obj 106 73 phasor~;
#X obj 12 199 outlet~;
#X obj 106 52 /~ 2;
#X text 12 11 (I1) Input;
#N canvas 453 305 166 159 triangle 0;
#X obj 33 38 *~ -1;
#X obj 33 59 +~ 1;
#X obj 12 80 min~;
#X obj 12 101 *~ 2;
#X obj 12 122 outlet~;
#X obj 12 12 inlet~;
#X connect 0 0 1 0;
#X connect 1 0 2 1;
#X connect 2 0 3 0;
#X connect 3 0 4 0;
#X connect 5 0 2 0;
#X connect 5 0 0 0;
#X restore 282 146 pd triangle;
#X text 106 11 (I2) Samplerate;
#X text 12 219 (O1) Interpolated Output;
#X obj 199 192 +~;
#X obj 199 213 /~ 2;
#X obj 199 234 outlet~;
#X connect 0 0 2 0;
#X connect 0 0 18 0;
#X connect 1 0 2 1;
#X connect 2 0 7 0;
#X connect 3 0 4 0;
#X connect 3 0 18 1;
#X connect 4 0 7 1;
#X connect 5 0 6 0;
#X connect 6 0 3 1;
#X connect 6 0 15 0;
#X connect 7 0 12 0;
#X connect 8 0 0 1;
#X connect 8 0 1 0;
#X connect 9 0 0 0;
#X connect 9 0 3 0;
#X connect 10 0 13 0;
#X connect 11 0 5 0;
#X connect 11 0 8 0;
#X connect 13 0 11 0;
#X connect 15 0 4 1;
#X connect 18 0 19 0;
#X connect 19 0 20 0;
